<svg id="svg3667" xmlns="http://www.w3.org/2000/svg" viewBox="0 0 1013.33 543.17"><defs><style>.cls-1{fill:#e9d2a8}.cls-1,.cls-2,.cls-3{stroke:#fff}.cls-2{fill:#d89f4c}.cls-3{fill:#b9b9b9}.cls-5{fill:#fffefd}.cls-6{fill:#fff}.cls-7{fill:none;stroke:#c99e52;stroke-width:2px}</style></defs><path id="path3791" class="cls-1" d="M480.8 542.59l-2.7-1-1.7-2.7-2-4h-2l-4.3.3h-2.7l-4-.7-5.7 1-3 .3-.3-1.7.7-4.3 2.7-1.7 2.3-2 1-1.3-1.3-.3-.3-3-2.7-3.3-5-5.7 4.7 2.3h3.3l2.7-.3 4.7.3 5-2 2.3-.3 2.7-8 3.3-.3 2.7-2h2.3l.7 1.3 3-7.3 3-.7-.7-5.3 4.7-.3v-2l1.7-3 .3-3.7-.3-3 3.7-1.7 4.7-2 3.3 1.3 2.2-1.2 3.5.2 4.5 5.5 3.2.7 2 1.8-2.7.4.5 1.8-6.4 2.8-4.3-.1-2.4-1.1-1.3 1.8.2 3.9.8 3.5 3 1.5.8 1.3.8 1.9-1.6 1.3-1.7.6.1 3.1-2.3 2.1v2.1l-3.4 2.8-1 2.7-3.7 3.3-1.3 2.2-4.3 1.5-1.8-1.7-2.3 2.2-1.5 3.7 2.7 2.3.2 3.3 2.2.7 1.3 3.7-.2 2.3-2.2 1.2-1.7-.5-6 .2z"/><path id="path3793" class="cls-1" d="M450.7 513.49l-.2-2 2.3-3.3.3-3.7-2.8-.7-.8-5.7-1.2-2.5.7-2.3-1-1 .3-2.8 1.3-3.2 1.5-4.2 2 .8 2.3.3.7 1 2.3-.8 1.3-3.3 4.8-1.5 1.7-3.2 1-2 2.2-.2 2.3-.5 2.2.2 2.7.3 3 .8 4.3-.2 1.2.2 2-2 2-.5 2.5-4 1.8.2.7 2.3.8.2.7 2.8-.2 2.3 1.7.3 3.5-2.2 2.2-1.2 2-.3 1.2 1.2 3.2-.8.8.2-.3 2.2-2.2 1.2-3.3-1.3-8.3 3.7.3 3-.3 3-1.7 3.7v2l-4.7.3.7 5.3-3 .7-2.8 6.3-.8-.3h-2.3l-2.2 1.7-3.8.7-2.7 8-2.8.5-4.5 1.8-4.7-.3-6 .3z"/><path id="path3795" class="cls-1" d="M479.7 474.09l1.7-3 .2-2-.2-4.5-1.7-1.2-.7-.7-.2-1.2 3.7-.3.5-2.7 1.5-3.3 1.5.5.2-1.7 1.2.3 3.7-1.8.5 2-1 1.2 1.2 1.2-2 .3-2.3.5-.8 1-2-.2.3 1.5h1.7l1.7.3 1.5.8h3.7l2-.7.8.2 1.5 1.3 3-.8 1.5-.7 2.8.8.2 1.5.8 2.3.2 1 2.2-.2 2 2 .3 3.2-1 .8-3 1-1.8-1-2 .3-5.7 3.3-1.7-.3.3-1.8-.8-3.3-.8-.2-.6-2.1-2.1-.4-2.5 4.3-1.8.3-2 2h-1.6l-3.2.3-.9-.1z"/><path id="path3797" class="cls-1" d="M492 457l4.2-.1 2.1-1.3 2.3-1.6 1.3-1.3-2.4-1.4-1.6.7-1.3-.1-1.5-1.9-2.6.9-2.6-1 .3-.8 2.4-1.1 1.6-1.4.8-.6-1.1-1.4 1.6-1.9 2.9.1h3.4l3.2 1.4.8-.9-.3-2.9 2-1.3 1.9.1 1.7 1.2 3.1.9 3.2-.4 2.5-.3 3.6-.1 2.4-.5 2 .4 1.7 2.2 1.5 1.8 2.1-.1.4 1.2-1.4 2.1-2.5.8-3.1 1.8-3.2 2.1-3.9.4-4.2 3.8-2.3-1-3.3 2.1-3.8 1.7-.6 2.2-3.1-.8-4.3 1.5-1.9-1.5-.9-.1-1.8.7-3.3-.1-1.9-.7-3-.5-.6-1.3 1.9.1 1-1.2 3.9-.7.7.1z"/><path id="path3799" class="cls-1" d="M419.3 472.79l-.9-5.3-.3-1.8 1.3-2-1.6-.6-1-1.4.8-2.6-3-.3.3 1.3-1.4-1.1.3-3 .8-1.6 2 .3 2.5.4 2.4-.3 1.1-1.6-.1-1-2.3-1.6-1.4-1.8-.9-1.9-2.5.8-.8 1.3-.3 2.8-1.5-2.4.8-2.9 2.1-1.5 3.6-.8 2.5.3 2.1 1.1 1.4 2.5 1.5 1.4 2.9.3 2.5.1 1.4.1-.3-3.9 3-.8 1-1.3.8-.5.6-.9 1.8-.1 1.8 1.6.8 1.3 1.4.5 1.4 2 1.1 1.9 1 1.1 4.4.1 1.9 1.6 1.3 2 .6 1.5 1.6 2.9 1.1 1.6 2.5 2.1 3 1.5 2.8 2.1 2.5 1.8 2.4.8 2.8.5-.6 3.6-2.2-.2-3.3.5-1.3.2-3 5-4.5 1.6-1.3 3.3-2.3.8-.7-1-1.7.1-2.7-1.3-.7-5.8-3.3-.1-1.6-2.4-1.8-.3-1.5-2.5-1.4-.3-1.1.4-2.3-.3-.8-1.3-1.8-.3-.8-1.6-3.6-.1-2.1.9-2.3-.3-2.9 1.5-.6 2.3-3.4 1z"/><path id="path3801" class="cls-1" d="M429.5 448.89l-.6-22 10.8-2.3-.9 3.1-1.1 3.6.3 1.9.6 3.3 3 .5 1.6-.1 1.3 1.8 1.8-1 .5-.9 1.3.1.5-2.4 1 .3 3.8 2.9 4.8-.4 3.3 1.3 3.5-.6 2.9 2.8 1 5.1 1 2.4-.3 1.6-1.8 1.4 2.3 1.6 5.1.5 3 .8 1.1 1.4 2.4.9 1-2 1.1-3.1 2.1-2.5 3-.4 3.3-1.6 1 .8-2.8 1.9-.3.8 2.6 1 2.6-.9 1.5 1.9 1.3.1 1.6-.7 2.4 1.4-5.2 4-5.4.2-.8-1.1 1-1.2-.5-2-3.7 1.8-1.6-.7v1.9l-1.6-.3-1.1 3.3-.5 2.7-3.7.3.4 1.9 1.8 1.3.4 6.4-1.7 3-3-.8-2.7-.3.6-3.6-5.1-1.3-5.3-3.9-3-1.5-2.5-2.1-3.4-6-1.3-2-1.9-1.6-4.4-.1-3.3-4.6-1.3-.8-2.1-2.6-1.1-.5-1.4.3-1.4 1.4-1 1.3-3 .8.3 3.9-3.9-.3z"/><path id="path3803" class="cls-2" d="M429.3 449.29l-2.5.1-1.5-1.4-1.4-2.5-2.6-1.5-2.7.3-1.7.2-1.7.8-1.8 1.1-.6 1.9-1-.8.3-1.7.8-2.3v-1l-3-.2-1-1.7h-1.5l-.3-1.7-.8-2.2-1.3-2.5-1.8-.5-.7-2.7 2.5.5 3 .5-.8-1.8 2.5-3.5.5 2.3 1-2h3.2l.7 1.3 3-.7-1.5 1.8-1 2.2.3 1.2 1.5-1.5 1.7-2.2 3.5.2-.5-3-1.5-1.5-2-1.2-.7-2.3-2.3-3-2-2.5h-4l-4.2-.3-2.8 1.7-2.8.8-1.7 1.7-1 2-1.7 1.5.3-2.5 2-2.7-1.2-2-3.2-2.7-1-1.2-3-3-1.7-2.8.3-2.3 1.2-4.3 1-6.5 5.2 3.7.8-2.5-.8-2.3 1.5-2 .3-2.5 2.8-.3 3.8-2.2.5-1.7 3 1-.5 2.2 2.2-1.5 2.3.2 2.7-.8 2.8.8 3.3 3.3.7 3.3 1.2-1.8 1.5-.3 2.2 1.5 2.2.3 2.2-2.5h3.5l1.8 1.2 3.8-1 1.5 2.5 2.8 1.5 2.8-1.7 2.8 1.3 4.2-5-2-1.3-3.8-.7-.3-2-1.8-1.2 3.8-1.7v-4l-.5-.8 2-.3 4 .5-2.2-3.5-1.2-1.5 2.3-1.2-2.7-1.3 1.2-2.7 2.8.7 6.8-1 3.2-.7 3 .3 4-3.7 7.2-.7 2.5-1.2 3.5-3.5 2.7 1 2.7.3 1.8.5.8 2.7 1.3 2.3-.5 3.2 2.2 1.7.7-1.7 3.2.5.2 1.5 2.3-.8.5 1 .3 2.5h4l1.8.3 1.8-2.3 2-.3 2.5-4.7 3-.2-1.5 2.7 5.3 6.5 5.8 5.8 3.5 7 1.3 3.7 3.3-3.8 1.8 1 .8 1.5 1.8 2.2 3.3-.2 3-1 2.7.3 1.7 3.8 1.2 1.8 2.5-.2 2.2 3 2.3-.3 2.5-1.3 1.3 2.5-.7 1.5-.3 3.3-2.5 1.2-2.8.7v5.5l-.8 3.5-3.7 1-2.3-.8-3-.3-2.5 3.8-2.2 5.2 1.3 3.5-1.3 1.2-4.5-.5-5.3 1.5 1.8 2.5-1.2 1.8 1 2.7v3.7l-.7 2-.2 2.3-2.9.1-2.9-3.6-1.7-.8-1 .2-10 1-1.8-.2-2.5-.5-1.7-1.2-1.9-.1-2 1.3.1 2.4-.7 1.4-2.8-1.2-2.3.2-4.3-.4-1.6 1.9 1.1 1.4-1.9 1.3-1-.8-2.5 1.3-3.8.7-2.1 2.5-2.1 5.1-2.4-.9-1.1-1.4-4-.9-3.7-.2L467 451l1.8-1.4.3-1.6-1-2.4-1-5.1-2.9-2.8-3.5.6-3.3-1.3-4.8.4-3.8-2.9 1.7-.8-1.2-3.2 2.3-.3 1.2-1.8-1.3-.8-1.8-3.3.3-2.8 1.3-2.5-.7-1.3-1.5.5-.2 1.2-1.8-1.2v1.2l-1.8-1.2-.2 2.5 2.5.7-2.7.7-1.8-.8-.2 2.5h-1.5l-1.3-.5-1.1 1.3-10.8 2.3 1.1 22.4z"/><path id="path3805" class="cls-1" d="M452.8 536l-1.8.7-4.3-1.8-4.8.5-6.8-2-1.8-.5-1-5.3-3-.8-1.3 1.3-3.3 1.3 1.3-2-5 2.3-3.3-2.5-4.8-1-2.5-3.5-4-.3-.5-4-2-3-1.8-3-2.3-.5-.3 1-2.5-2-1.5.3-2.5-2v-3.3l-2-1.8 1-3.5-4-4-3.3-.5-2.2-6.5.5-3.8 2-2.3v-4.1l-2-.5-2.2-2v-2.5l-2.3-3-1.3-3.8v-3l-.5-3 1.5-3 2.5.3 2.5 1.5 1.3 1.3 1.5 1.8 2 .3 1.8-1.8 2-1.8 1.3-1 1.8 1.5-1.3 1.3 1.8 1.3-1.8 2 1.8 1.3 1.5 1.8v2.3l1 2.3 2 .5 1.5-.5 2.3 1.3-.3 1.5 2.3 1 4.5 1.3 3.5-.8 3-1 1.5 1 1.3-.8-.5-3.6 3.5-.6.6-2.3 2.9-1.5 2.3.3 2.1-.9 3.6.1.8 1.6 1.8.3.8 1.3 3.4-.1 1.4.3 1.5 2.5 1.8.3 1.6 2.4 3.3.1.7 5.8-2.8 7.3-.3 2.8 1 1-.7 2.3 1 3.3 1 4.9 2.3.8.3 3.5-2 4.5.5 2.3 3.5 3.4 2.7 3.3.3 3 .3 1.7-3.6 2.6-2 2.5-.1 2.9z"/><path id="path3807" class="cls-1" d="M388.8 463.29v-2.2s-.3-2.3.3-1.8 1.3 1.2 1.3 1.2l.3-2.2-1.2-1.5-2.2-1v2.3l-1.3.7-.7-2-.7-1.8-1.3-.5-2.5-2-.3-2.5 4.5 1.7 1.3-1.5-1.5-1.3-1.2-2.2 1.2-.3 3.8 1 2.7 2.5 1.8.7 2-2.2 3 3.2 1.3 2.7 3.2 1.7-3.2 2.7-.7 3.3-.5 2-1.7.5.5 4.1-3.3-3 1.6-2.4-1.2-.8.8-1.3-1.3-1.3-4.8 3.5z"/><path id="path3809" class="cls-1" d="M378.8 458.89l-1.7-1.6-2-.5v-2.7l-.3-2-1.5-2 7.3-.2.3 2.5 2.5 2 1.3.5 1.3 3.8 1.3-.7v-2.3l2.2 1 1.2 1.5-.3 2.2-1.3-1.2-.3 4-.7.8-1.6-.5-1.5-1.8-2.1-1.6-1.7-1.2-1.3-.2-1.1.2z"/><path id="path3811" class="cls-2" d="M373.3 450.09l-2-.5-.7-2-3.2 1.3-1.8-.5-.7-3.8-1.3-2.3-3.3-1-2-1.8-1.5-1.7 3.7-.2h4.2l3.7 2 3.3 1 2.7.3 2.7 2.2 2.2-.2 3.3.3 1.8 2.8-.5.5 1.2 2.2 1.5 1.3-1.3 1.5-4-1.5-1.3-.5-6.7.6z"/><path id="path3813" class="cls-1" d="M379.3 472.49l-2.2.3-1.7-.5-2.8.8h-2.2l-3 2.7-2 2.2-.3 4-.3 3.5-.8 2.2-10.3 7 .5 1.2.2 4.2.8.2.2.8 7.7.8 16.7 13.8 6.8.3 5-4.3 4.6-.5-2.5-2 .1-2.8-2.1-2.2 1-3.5-4-4-3.3-.5-2.2-6.5.5-3.8 2-2.3-.4-3.8-1.6-.7-2.2-2v-2.5l-2.2-2.1z"/><path id="path3815" class="cls-1" d="M367.5 473.09l-1.3 1.5-4-.3-5.7 2-3.7-1.5-4.8 1.5-1.7-1.5-1.7.8v2.5l-3.3 3.2-1.5 2.2.8.2.5 4.2h2l.5 1.8-1.8 1.3-.3 2-.8 1-.3 3.2 1.8 1.2.7 1.3 2.2-.2 3-1.3 16-10.5.8-2.2.3-7 4.8-4.8-1.3-.5-1.2-.1z"/><path id="path3817" class="cls-1" d="M387.2 515.59l3.8.5 2 2 1-.5 1.3-2.3.7-1.5-1.8-1.2 1.5-.3 1.9-1.4-6.1.8z"/><path id="path3819" class="cls-1" d="M340.7 494l-2.2-.5.7-2.3 1-1.7 1-1.7h1.5l1 1.8-1.8 1.3-.3 2z"/><path id="path3821" class="cls-1" d="M340.3 497.09l-.5 1.5-1.7-.2-.2 2.2-.3 2.5 1.2.8-.7 2.8-.7 7.5 6 2.2 2.3-3.3 2-.5 1.7-1.7v-1l1.2-.2V509l-3.8-3.5v-1.2l8.7-3.2-.3-1.2-.8-.2-.2-4.2-.5-1.2-8.7 4.8-2.2.2-.6-1z"/><path id="path3837" class="cls-1" d="M337.1 514.89l-.8-4.8-1.8-4.2.6-1.1.3-1.8.1-2.5 1.3-.9.2-2.4.8-1.8.8-2 2 .8-.3 3.3-.3 1.2-1.7.1-.7 4.5 1.1.8-.5 2.4-.7 8.2z"/><path id="path3839" class="cls-1" d="M366 449l-2.5 2.6-1 .1-3.1 1.4-1.5-.4-2.5-.3-3.4 1.1-2.4-.4-2.4-.6-.5.4-2.9-1.5-1.6-.4-.8-1.9-2.8-.3-1.4-1.8-3 .4-7.9.1-1.9 2.1-2.5 1.3-.6 1.8-3.4-.1-5.8-.5-.9.3-2.8-1.5-2.4-1.8.1-2.3-3.8-.5-1.9 1.3-.3 2.5-1.1 2.6-1.5 1.1.4 1.3 3.1.1 1.5.1 2-2.5 2.5.3 2.4-.3 1.4-.1.8 1 .9.9.8.4-3 .5 1 1.6-2.1-.3-2.9-.1-1.8-.8h-3.3l-2 .4-.6 1.4.6 2.3-.5 1.5 2.1.1.9-.1-.4 2.3.9 1.4v1.8l-.8.8-1.3-1.1-.6 1.1.4 1.3 1.6.3 2 1-1.3 1.4 1.5.6.5 1.6-.8 1 2.1.4 2-.1-1.8 1.5 1.4 1.1.6-.9 1.8-.5.9 1.1 1.9 1.5 2.3.6 3.5-.4.4-2.5h2.3l2.8 1.1 1.9 1.5.9.9h5.1l2.1-1.4 2.3-2.1h2l.5 1 2-.3 1.5-2 .4 1.5-1.1 1.5.3 2.8 3.3-3.2v-2.5l1.7-.8 1.7 1.5 4.8-1.5 3.4 1.5 5.6-1.9 4.3.3 1.3-1.5 2.1.3 1.5-.4 1.9.1 2.9-.9 1.3.5 2.2-.3-1.6-3.8.1-3.8-.5-3 1.5-3-1.7-1.6-2-.5-.3-4.7-1.5-2-2-.5-.7-2-3.2 1.3z"/><path id="path3841" class="cls-2" d="M324.9 486.29l1.9-1.2h1.8l1.3-.9h2l3.1-1.9.4 1-2.7 2-.1 1.3.3 1-1.6.4-1.9-.1-1.2.4-1.1.5-1.3-.2-.4-1.3z"/><path id="path3881" class="cls-2" d="M324 381.09l-3.9 1.1-1.8 3.4-.3 2.5-2.5-1.3-2.3-.5-1.6-.6-1.4.8-5.3-.8-2.8-.8h-2.9l-6.4-.6-3.3 1.6-1.3.9 1.3 3.4.8 2.9-.6 2-2.9 1.9-1.8 2.4-.5 1.6-2 .4-.8 4.8 2.5 3.8 1.5-1 3.3.9 3 .4 1.5.8 2.4-1.3 2.3-.3 3-1.6 2-1.1 1.6-.6 2.9 1.4 3.1.8 1.5 1.5 1.1 3 1.4 2 .1 4.3-1.9 1-1.4.4-.6 2.41-1.3.9-2.1.1v1.5l1.8 1.6 1.8-.9 1.5-.3 1.6-.5 2.5-1.1.3-1.8.1-1.4 3-1 2.9-.8 1.1-.3v2.6l1.4 1.3 2.5-.4 2.1.5.8.4-1.6 1.3-2.5 1.4.1.8 2.4 1.4.9.4v3.3l1 1.5 3.8-1.3 2.4-1.6 1.8-1.4 2.4-.3 1-.9-2-.4-2.5-.3h-1.5l-.4-1.3-1.1-1.7-1.3-.6-1-1h1.9l2.3-.5 2.3-2 3-.9 2.3-.6 2.4-1.1 2.3-1.8 3.5-.1-.8-2 2.8-1.5 1.6-1.8h2.3l2-2.8-1.7-3 1-4.6-2.3-.6-1-1.3-1.2.2-2.3-1.8-2.3-1-1.5-2-2.5 1.5-2.8-1.2-3.5.3-2.5-5.8-3-.2-.7-5-2-2.7z"/><path id="path3883" class="cls-1" d="M302.1 407.49l.6 1.1 1.3 2.1 1.9 1.6 1.5 3 .5 2.8-.1 4.9v.6l2.1-.1 1.3-.9.6-2.4 3.3-1.4-.1-4.3-1.4-2-1.1-3L311 408l-2.8-.8-3.3-1.4z"/><path id="path3885" class="cls-1" d="M284.1 410.29l-.5 1.6-2.4 1.1-1.1 1.1-.8 1.9-1 3-2 1.6-3 .6 1.5 2.6 1.9 2.3 1.5.8.5 1.5 1.8 2.3 2 .5 1.5-.4-.4 1.8 1 1.6.5 1.4 5.8.8h3.8l1.9.3 4.5-1.6 1.6-1.3 2.5.9.8.3h1.1l.8 1.3 1.4.3 1.1-4.1.4-2 .8 1.5 1.9-1.1.6-2.1-.3-2.6-1.3.3-1.6.1-1.3.6-1.8-1.6v-7.8l-.8-2.3-1.1-2.8-1.9-1.6-1.9-3.3-3.9 1.9-2.3.3-2.4 1.3-1.5-.8-4.1-.5-2.1-.8z"/><path id="path3887" class="cls-1" d="M301.3 447.49l-1.9-.4-.4 2-1.9.9-3.1-.1-2.4-1-1.6-.4-2.5 1.4h-1.6l-.3-3.5-2-1.3-.5-1 .5-3.8 1.4-1.1-1.4-3 .4-2.6 1 1.9 2.8.4 5.1.4h1.6l1.9.3 3-.9 1.5-.8 1.6-1.3 2.9 1.3 1.5-.1.8 1.3 1.4.3.1 2.9-2.1.1-.6.6-.1 3-1.5 1-.8 1.1 1.8.1.6 1.9-2.9-.5z"/><g id="g7374"><path id="path3889" class="cls-1" d="M285 450.58l-2.8.8-1.1-.3-1.3 1.5-3.3.4-.6 3-1.5 2.3-.3 1.3-4 .5 1.5 2.9.9-1.6 1.1 2 1.4.8.4 1.5-1.3.9 1.8.3.9 1.6 2.1-.1 3.8.1 1.9 1.4h-1.9l-2.4-1-2.5.4-1.6 1.4-1.1-1.4-1.3-1.3-.6 1.5 1.3 1.1h.6l-.5 1.5 1.5.3.6-.8.3-.8 1.4 1.8.3 1.4.4 1.4.8 1.9.4-1.6 1.9 1.1.5 2s.9-2 1.3-1.5 1.8 2.3 1.8 1.8-.5-3.5-.5-3.5l-1.9-2.1 1.6-.6 1.1 1 1.1-.8-1.5-1.5 1.9-.4 2.3 1.4.4-2.5 1-1.4-.6-1.5-1.3-.9-2.5-.5-1.1-1-.1 1.5-1.4-.8.8-1.4-.1-1.8-.4-1.8-.9-1.5.6-3.8 1.4.8.8 2.3 1.6.6 1-2.1-.5-2 1.8.4 1.9-1.6.9 1 1.1-1.4 2.1 1.1 2-.1 1.5-1.1 1.1-2.6.3-2.5-1.4-.6-.4 2-1.9.9-3.1-.1-2.4-1-1.6-.4-2 1.5-2.1-.1z"/><path id="path3891" class="cls-1" d="M286.85 483.78l1.9 1.3h2l1.6 1.3h2.3l2.9-.1 2.4-1.1 1.9-1.1 1.6.1.6-1.4 1.5-1.8 1.1.5 1.3-2.1-1.1-.9-1.8 1.5-.4 1.3-1 1-1.6.5-.9 1.1-1.8.9-1.3.5-1.1-.6-1.9-.5-1.9-.1-1.1-.4-1.3-.8-1.4.5-2.1-.4z"/></g><path id="path3893" class="cls-3" d="M297.2 462.79l1 1.1 1.3.8 1.1-1.1-1.4-1.4z"/><path id="path3895" class="cls-3" d="M297.2 466.49l-.3 2.4 2 .5.6-1.6-1-1.5z"/><path id="path3897" class="cls-3" d="M293.7 458.79l-.4 1.8h1.8l.8-1.3z"/><path id="path3899" class="cls-1" d="M276.6 453l-1.8-2.2.3-3 1-1.2.5-1.5 2.2-.2 2-1.5 1.5.7h.9l1.1 1.3 1.4.9.3 3.5-1 .8-2.3.5h-1.6l-1.8 1.7z"/><path id="path3901" class="cls-1" d="M270.8 459.49v-1l-1.2-1.7-.3-3.7.2-2.2.2-1.2.3-1.7-.3-.5.5-4.7h2.5L274 444l1.3 1.2-.2 2.5-.2 2 .3 1.7 1.3 1.5-.6 1.8v1.2l-1.1 2-.6 1.5z"/><path id="path3903" class="cls-2" d="M269.7 448.09l-1.3-1.1-2-1.6-.5-2.6.5-2.5 1.8-1.6 1-1.6.5-.5 1.3 1.1 2.3 2.1-1.1 3-1.9-.3z"/><path id="path3905" class="cls-2" d="M270.3 435.89l-.6-3-.4-3.3-.1-2.6.3-1.5-1.4-2.6 2.4-1.4 2.8.1 2.9 4 2.1 1.3 1.1 2.1 1.1 1.6 2 .5 1.5-.4-.4 1.8.6 1.5-.5 2.3 1.4 3-1.4 2-.5 2.9-1.4-.1-1.4-.5-1.6 1.5-2.2.2-1.5 2.4.1-2.2-1.5-1.5-1.8-1 1.1-3-2.3-2.1-1.3-1.1.9-.9z"/><path id="path3907" class="cls-1" d="M263 441.29l-1.4.5v-2l-1.6-2.9-2.9-1.9-1-2.8-1.1-2.3-.8-1.6.5-1.4 2.1.9 1-.9 3.3.6 1.3.8 1.8-.5 1.6.4 2 1.6 1.6-.3.4 3.6.6 2.6-1.1 1.1-1.3 2.1-1.5 1.1-.5 2.5-1.3-.1z"/><path id="path3909" class="cls-1" d="M251.6 425.39l-3.1-.3-2.9.3-1 1.3-1 1 2.3 2.5.1-2.3 1-.6 2 1.5.6 1.4 1.1.4s-1.9 1.4-1.5 1.5a13.69 13.69 0 0 1 2 1.3l-.4 1-.1.8 1.5 1.6 1.5 1.1.6 1.5 1.8-.8 1.6.3 1.3 1 .4 1.5.9.4 1.3.8 1.3.9 1.4 1 1.4 1 1 .1-1-2.3-.8-.5-1.8-1.4-1 .6-.4-2.1-1.6-2.9-2.9-1.9-2.9-6.6.5-1.4 2.1.9 1-.9 3.8.9.8.5 1.8-.5 1.3.3 2.4 1.8 1.6-.3-.1-2.6.3-1.5-1.4-2.6h-5.8l-3.9-3.4-1.8-.8-1.9 1.6-1 1.3-1.9 2.9z"/><path id="path3911" class="cls-1" d="M261 409.09l-1.1.3-.5 2.3-1.8.4-1 3-1 1.6 1.1 2.1 1.8.4 3.9 3.8h5.8l2.4-1.4 2.8.1 3.1-1 2-1.6 1.8-4.9 1.3-1.5 2.3-1.1.8-1.6-2.5-3.8-1.5.3-5-.4-1.8 1.3-1.6.8-3.5.6-1.3 2-2.5.3-2.9-.1z"/><path id="path3913" class="cls-1" d="M245.1 425.09l-.4-1.8-1-2.1.8-2.5 2.1.4 2.1.4 2.9-1.3 1.6-1.1 2.4-.5 1.1 2.1-1.9 1.6-2.9 4.1-.4.9-2.5-.1-2.9.1z"/><path id="path3915" class="cls-1" d="M259.8 409.39l-1-.9.4-1.8-.3-1.4-.3-1.4 1-1 3-.4 2.9-1.9.9-1.3.1-1.5 1.8 2.1 2.1-.9 1.8 1.4 1.9-.3h1.4l2.3-.4 1.4-.6 1.8 1.3 1.8 1.4-.8 4.1-1.5.3-2.8-.4h-2.3l-1.8 1.3-1.6.8-3.5.6-1.3 2-5.4.1-.8-1.3z"/><path id="path3917" class="cls-2" d="M288.7 386.79l-.4-1.8.5-3-1.6-.9.6-2 1.5-1.8.1-3.3-1.3-4.1 3.3-.8.6-1.6 3.1-1.9h1.1l1-4.1 4-3-.4-2.4 1.4-1.3 1.8-.9 2.5.1 1.1-2 1-1 .6.9 5.4.5 1.1 1.8 3.5-.5 1.3 6.3 1.5 5 2.3 2.3.2 2 2 2.1-.9 3-3.3-.2 1.5 6.5-3.9 1.1-1.8 3.4-.3 2.5-2.1-1.1-2.6-.6-1.6-.6-1.4.8-5.3-.8-2.4-.8-2.8.1-7.1-.8-3.8 2.9z"/><path id="path3919" class="cls-1" d="M306.5 337.89l-1.4 1.6-2.4-.4-2.3.5-4.5-3.4-4 .9-.9.1v-2.5h-1l-.6 1.6-1.5-1.9-1.1-1.9-1.4.6-.4 1.6-2 1.1-1.3.5-.6 1.5-.8-1.6-.6-1.8.8-1.4h1.6l.4-1.3-.8-1.3-1.5-.3.9-.8 2.4-.9 1.1 1.3-1.3 1.8-.1.9 1.3-.1 1.3-.1.9-.9-.4-1.4-.9-.5 1.4-1.6 1.4-1.5 1.8-.4 2.3-1.9.8.6 2.9.1 1.4-.9 1.9.8 2.6.5 2.3.4 2.2-.3.3 2.7-2.8 2.8 2.3 5.8z"/><path id="path3921" class="cls-1" d="M289.5 346.39l-3.3.3-1.1-2.6-1.8-2.1-1-1.5-3.9 1.9-.9 2.5-.3 2.4-1.1 2.3v3.3l4-2.5 9.9-.4 1.9.4 1.5-.5 1.6 1.8 3 1 3 3.8 1.4-1.3 1.8-.9 2.5.1 1.1-2 1-1-.5-1.1v-8.4l-.8-3.2-.9-.8-.9 1.6-2.9-.4-2.3.5-4.5-3.4-4.9 1-.4 6-.4 2.6z"/><path id="path3923" class="cls-1" d="M275.8 354l.6 2 .4 2.1 1.1.5 1.5 1 2.6 1 2.8.5.4 2.4-.1 1.6 1.9 1.4.9 1.8.4 1.8 3.3-.8.6-1.6 3.1-1.9h1.1l1-4.1 4-3-.4-2.4-3-3.8-3-1-1.6-1.8-1.5.5-1.9-.4-9.4.5-4.5 2.4z"/><path id="path3925" class="cls-1" d="M265.8 396.29l-3.1-.6.9-1.8-.8-.9-1.4.8-2.5-.4-.5 1.4-1.6-1.5.3-1.1-3.1-.1-2-.4-.8-1.3-.9-.8.1-2.9-1-2.3-.5-4.9-.3-1.3-1.3-1.8.1-1.6.1-1.3-1.5-2.6v-.8l.8-1 1.5.6-.5 1.1.4.9-.2-.9.8-2.1 2.5-1 3.1-.9 1.9-1.8 2.6-1.3 3.9-.5 2.3-.3 1.5 1.4h-1.4l.9 1.3 2.1 1 .9.1 2.6-2h2.6l2.5-.1 3.6 1.3 3.8.1 1-.9 1.8 1 .9 1.8.4 1.8 1.3 4.1-.1 3.3-1.5 1.8-.6 2 1.5 1.3-.4 2.3.4 2.1-.6.6 1.9 4.4.4 1.9-.6 1.51-2.5 1.8-2.1 2.5-.5 1.6-2.4.6-2.6-2.1h-1.1l-1.8.8-1.9-.1-2.6.5-1.8-1.4-2.1.9-1.8-2.1z"/><path id="path3927" class="cls-1" d="M257 404.29l-1.1-.1-1.5-.9-3.5-.5-.3 1.8-2.1 1.1-2.8-1-5-4.8-1-1.8.1-1.8-1.1-2.4 2.6-.3 2.6-1.5 2.1-1.3 1.3-.1.4-1.8.9.1 1.4 1.6.4-1.3 1.1 1.4.5.6 5.1.5-.3 1.1 1.6 1.5.5-1.4 2.5.4 1.4-.8.8.9-.5 1.9 2.8.5.8 1.8-.1 1.5-.9 1.3-2.9 1.9-3 .4-1 1z"/><path id="path3929" class="cls-1" d="M244.6 405.89l-3 2.8.5 2.1-.6 1-3-.3-2.6 1.1-1.3-.3-.8 1-1.9-.8-2 .3-1.1.3h-1.4v1.6l.8.6 1.1.5.9-.1 1.4.6-.1.8h1.8l2-.6 1.6-.5 1.1-.9 1.3.1.9 1v1.3l1.8.1 2 .5 1.1.6 3.8.8 3.3-1.5 1.3-.9 2-.4 1.4-1.8 1-3 1.8-.4.5-2.3-1-.9.4-1.8-.5-2.8-1.8.3-1.1-.1-1.5-.9-3.5-.5-.3 1.8-1.6 1.1-2.3-.6z"/><g id="g7393"><path id="path3931" class="cls-1" d="M252.65 458.48l-1.3.3-1.6-.9-.5-1.8-.9-1.1-1.5.6-1-1.5-.1-1.4-1.5-1-2.8-.1-2.3-1.3-2-2.3-1.5-1.3-1.6-1.3-1.4-1.6-2.4-2v-3.5l-.8-1.5-.9-1.4-1-1.1-.9.3-1.4-1.1-1.8-.3-1.8.5-.9 1.8-1.4-.6-.1-1.4-1.8-.1-1.4-.8-.4-3.4-.8-1.1 1.5-2.1-.3-3.5 3.4-1.3h.9l1.3-1.9 1.4 1.8 1.1 1.5.9-1.1-.4-1.6h3.1l1.3-.1 2.1-2 .4-.9h2l2.4-.9 1.1-.9h1.6l.9 1v1.3l1.8.1 2 .5 1.1.6-1.3 2.5 1.1 2.5.3 1.4h-1.4l-2.4.1-1 .8-.6.5h-1.8l.6 1.1.1 1.4-.6 1.6v1.4l.6 2 1.6 1.4 1.9 1.3 1.3.1.8 1.8.3 2.4 1 1.6.8 1.9 2.5 1.9s2 1.1 2.4 1.4a18.33 18.33 0 0 0 3.1.8l-.4 1.4.9 1.4 2.8.9 2.5 1.4 2.3 1.1 1.4 1.1 1.4 1.6.4 1.3-.9 1.5-1.5-1.3-1.4-1.3-1.1-.5-1.1-1.1-1.3.9-.9 2.1-.6 1.1 1.8 1.5 1 .8-.4 2.3-1.3.6-1.1.8.3 2.1-.4 1.4-1.3.6-1.6.5-.6-1.4-1.3.4.1 1.3-.8 1.6v1.8l.4 1.5-.9 1.1-2.1.5-1.5-2.4h-2.1l-1-1.3-1.5-.3-.6-1-2.3-.1-.5-1.9v-1.2l2-.1 1.5-.1 1.3.1.9.9h2l1.9-.4 1.8-.5h1.3l1.1-.6 1-1.1.8-1.3.6-.6-.4-1.5-.3-2-.6-.8-.3-2.1z"/><path id="path3933" class="cls-1" d="M225 451.88l-1.7 1.1-1.4 1.2-.8-.4-.8-.7.2 2.3.8.5.3 2.2v1.5l.6.2-.8 1.3v1.8l.8 2.1 1.1.6 1.5-1.3 1.7-.2 1-.8-.4-3.2V458l-.6-.7 1.2-.5-.1-1.4-.7-1.2.1-1.1-.7-.8-1.3-.4z"/></g><path id="path3935" class="cls-1" d="M217.2 422.69l-.6-.9-.3-2-1.3-.7-1.9.7-.4.6.9-2.3 1.7-2.8 1.2-1.7 1.8-1.2.8-.3 2.5.4 1 .2 1.5-1.1h2.3l1.3.2-.1 1.1-.2.9.1 1 1.4 1.5 1.4-.5 1.1.5.4 1.3-2.2 2.3h-4.2l.2 1.8-.9 1.1-1.7-2.4-1.1-.5-.8 1.5H220z"/><path id="path3937" class="cls-1" d="M218.4 411.59l-.2-2.8.7-2.4 1.6-1.8 1.1-2.1-3.9-.3-2.1-.8-1.6-.39-.5-.9.2-2.8-.7-1.4-.4-1 1.3-2.2-1.3-1.3-.6-1 .3-1.8.4-1.8-.1-2.1-.1-1.2 1.7-.3 1.3-1 1-1.7.3-2v-1.8l.6-1-.4-1.1-1.5-.4-.3-.9 1.1-.9 1.1-.8 2.3-.1.5.6.5 1.3 1-.2-.2-1.6.3-1h1.3l1.4.4.5-.6-1.1-1.1.1-.9-.5-1.2-.6-.7 1.1-.5.6-.7-.9-1.1-.9-1.2.2-.8 3.1.1.9 1.6.8-.3.8.8-.3 1.2 1 .8 1.3.2 1 .4 1.3-.2.3 1-1.7 1.1.1 1.4 2.2-.8 1.4.2.8-1.9 2.2-.2 1-1.3 1-.3 1 1.1 1.2-.2-.7-1.5 1.8-.9 1.5 1.7-.3 1.1-2-.1v1l1.2.8 1.3-.3 1.7.7-.5 1.8 1.1 2.2.4.9-.4 2.6 1.5 1.8.6 5.6 1.1 3-.1 2.7-.4 1.3-1.6-1.6-.6-.2-.3 1.6-1.6.3-4.5 2.8-2.6.3 1.1 2.4-.1 1.8.7 1.6 5.3 4.9.5.6-1.7.7-3 2.8.5 2.1-.8 1.1-2.8-.4-2.6 1.1-1.3-.3-.8 1-2.1-.7-2.9.4-1.2-.1-.1-1.3-3.3-.2-1.9 1.1-3.7-.5-.4-1z"/><path id="path3945" class="cls-1" d="M215.2 373.29l-1.7 1-3.2-.2h-2.1l.2 1.8 2.2 1.7.3 2.3-2.2 2.2-1.2-2.2-.3-2.5-1-1.8-.8 1.5-.3 2.3v2l-1.5 1 .3 2.2 1.8.3-.3.8 1.3.8h1.7l1.2 1.5 2.4 2.2.6-3-.5-4.2 2.2.1 1.8-1.3.5-1.4.3-3.8.6-1-.4-1.1-1.5-.4-.4-.8z"/><path id="path3947" class="cls-1" d="M204 386.49l-2 .8-.8.5-1-.3-1.7 1.5-1.3.7 1 1.5 1.2.2.8 1.3 2.3.2 2 2.7.5 1.5 2.2-1.3.3 1.7 1.7 1.3 1.5 1.5.5-3 1.2-1.8 1.5-2.7-1.9-2.3-2.4-2.2-1.2-1.5h-1.7l-1.3-.8-1.4.5z"/><path id="path3949" class="cls-1" d="M213.8 400.49l-1.5-.2-1.7-.2.5-3 1.2-1.8 1.3 1.9z"/><path id="path3951" class="cls-3" d="M220.3 435.29a1.4 1.4 0 1 1-1.4-1.4 1.37 1.37 0 0 1 1.4 1.34z"/><g id="g10961"><path id="path3953" class="cls-1" d="M191.55 388.08h-3.3l-1.3-1.3 2.3-1.5 1.8-2.5 1.8-.3v-4.3l-2.8-2-2.8.3-.5 1.5-1.3-1.5.5-2.5-1-2-.3-2.3-2.5-3.5-3-2.8-1.5-1.8-.8-5-3-3.3-1.5.3h-1.3l1.3-1.8 1.3-.3-.8-2.5 1.8-1.5 1-3.3 1.5-1.5-.8-2.5h-5.5l-3 .8-.5-2 1.8-2.3 2.5-2.3-.3-2.3-2.2.5-2 .7h-3.3l-1 .8v2.2l-1.8 1.3.2 1.8s-1.8.3-1.5 1a15.5 15.5 0 0 1 .5 2.8l-2.3-1.3-.3-1.5-1.8.2v-1.3l1.8-1 .7-3.3-1.7 1.2-2 1.2-.2 1.8.3 1.3 1.3 1.5-.2 1.3 1.2 1 1.2 1.5 1.3.7.5-1.8.5 1.3-.7 1.8s-1.3.5-1.2 1a10.4 10.4 0 0 0 1.2 2l2-.3.8-1.2.2 1.7-1.5 1.7-.2 1.7-.3 2-1 3.5 3-2-.2-3.2 1.5 2.5.7 2.7-.7 1.2-.8 1.8.8 1.5 1.8-.5 1-1.3 2.2.7h1l-.3 1.8 1.3 2 .2 1.5 1.7-.3-.7 2.8v1.7l1.3 1.3-2.7.5h-2.8l-2.5-.8 1 2.2-1.8 1.7s-1.2 1.5-.7 1.3a12.19 12.19 0 0 1 2.7 0l.2 2.2-2.2 2.3-2.7 1.5 1.3 2.3 2.2-1 1.7.3 1 .3 2.3 1 1.5-.5-2.2 1.2-2.7.3-.8 2.2-1.8 1.3-1.5 2.2-3.7 3h2.8l2-1.5 1.7-.7 2.8 1.2 1.5-2.8 1.7-.3h2.7l1.3.3 3-1.5h2l3.3.2 2.5-.2 2.8-1.8 2-1v-1.4z"/><path id="path3955" class="cls-1" d="M180.45 315l-1.8 1.3v2.2l-1.7 1.2 1.8 1-.2 1.5 1.8-3 .7-2.5z"/><path id="path3957" class="cls-1" d="M172.45 328l-1.7.5.3 1.7 2.8-.2z"/><path id="path3959" class="cls-1" d="M156.35 360.78l-1.2.3-.8.2-.8 1.5-1.3 1.5h-1.5l.7 2.2 1.8 1.7 2.3-1.5.7-.7 1.3 1.5 2.5.8 1-1.5-.8-2.3v-1.7l-1.5-2z"/></g><path id="path3961" class="cls-3" d="M165.2 367l-.7 2.5 2.7-2-.7-1.3z"/><path id="path3963" class="cls-1" d="M157.5 381.79v-1.9l1.6-2.8-.1-2-.8-2.3.1-2.8 1.7-1.8-2.5-.8-1.3-1.5-.7.7-2.3 1.5-2-2-.5-1.8h1.5l2.2-3-.4-1.7h-1.9l-1.4.8-2.4.5-1.1 1.5v2.1l1.8.3v1.4l-1 .6-.5 1-1.8-.3-1.5-.4-1.3.1-.5 2-1.3 2 .3 1.9 1 1 1.4.8 1.8.5-1.5 1.6-.6 2 2.6.1-4.3 1.1-.5 1.8-1.3.5 1.9.8-1.9 1.1 1.1 1.1 1.9-1.1-1.8 2.3 2.1-.6-1.1 1.8 3.1.4 1.8-1.3 2-2 1.5.5 2.8-2.1 1.1-.9 2.1.4.9-1.1z"/><path id="path3969" class="cls-1" d="M304.5 317.49l-2.8-.1h-4.3l-2.9.6-2 1.3-1.9 1.3-2.9 1-3 .6-3.5-1.3 1.5-2.1-1.5-1.3-2.5-1.6-1.8-.6.3-3 .9-1.3v-5.2l-.9-2.9-.3-1.8.1-1-.8-1.8.6-2.9 2.4-2.6.6-2 2.3-2.6 2.5-2.6 1.8-1.6 2.6-2.5.8-2 2-3.9 2.8-.5.3-.9-.5-2.5.3-2.6-1.6-2.3-1.8-1.5-1.5-1-1-3-.5-1.6.9-3.9-1.1-2.5-.1-3.4.9-2.6-1.1-1v-3.8l1.1-1.6-1.5-1.4-1.4-1.1-1-2.1-2.9-1.3-1.5-1.9-3.3-2.9-.9-1.3.9-4 1.8.3 1.5 2.5.8 2.8 1 2.3 3.6 1.3h2.3l1.3-2.1 1.5 1 2.1 1.4 2.1-1.5 1.4-3.1 1-2.8.1-2.3.9-3.8 2.8-3.5 2.6-.3 3-1.1 1.5 1.9 1.6 1.6 2.3.6-.6 2.9-1.1 2.8-.4 2.9-1.9 2.9v2.2l1.5 3.3 3.8 4 1.2 3.5.9 1-4.5 7.8 4.8 12.8-.8 1-.3 3.8.3 3.8 1.3 2.2.3 3.5 1.5 2.3-2.3 3.5 2 3.2 2.5 1 .7 3 1.2 1-.4 2.5-6.4 6-4.1 7.4-3.9 3.3-2.3 3.2z"/><path id="path3971" class="cls-1" d="M275.3 228.59l-2.8.5v2.8l-.5 2 .5 2-2-.3-2.8-.5-2.3-1.3-1.3 2.3-.5 3.8-3 1-2.8 1.5-.8 4-1.5 2v2.8L253 256l-1.5 4-1.5 2.5-2.3.3-.8 8.5-2 4.3-1.3 3.3 3 2.5-1.5 2-4.8.3-1.5 3.5-.5 4-1.5 3.8 1.5 4.8-.3 4.3 1 4.5.5 2.5-.5 1.8.3 5.3-.8 4-2.6 3.6-.6 4.5-2.4-1.4.5 4.1.4 3.1.8 3.3 1.1 1.6.5 2.4.9 1.4 1.6 3.4 1.6 2.1-.1 2.1-1.4 1.6 1.1 2 1.3 2.1.9 1.4 3.6-.9.8-2.5 1.3-2.6 3.8-.3 2.3.1 1.4-4 .6-2.4.4-4 1.3-2.3-.3-3.3.1-2.5-.9-1.1 2.1-1.3 2.9-2 .5.6 1.5-2.3 2.1-2.1.1-1.5.5-2.5-.6-2.1-1.5-2.5-1.9-1h-1.3l-1.3-2.5-.8-2.3.3-1.6 1.3-3.6-.4-2 .4-3.1.1-1.8 1.3-1.1.5-2.5 1.4-.1 2.1-3.8 1.5-2 1.6-.5 1.4-2.1 3.3-.6 3.3-3.3.4-2.5 1.6-.6-1.8-2.4a7 7 0 0 1-.1-2.1c.2-.3 2-2.3 2-2.3l-.9-2.8.4-1.8 1.6-.4.8-3.3 1.6-.9 1.1.8 2-.4 2.8-.3.6-.5.5-.1-1.5-4.6.9-3.9-1.5-2.3.3-3.6.9-2.6-1.1-1v-3.8l1.1-1.6-2.9-2.5-1-2.1-2.9-1.3-1.5-1.9-4.1-4.1z"/><path id="path3973" class="cls-1" d="M267.7 338.79l-2.5 1-2.1 1.8.4 4.1.6 1.5 2.5-4 .1-1.6z"/><path id="path3975" class="cls-3" d="M258.5 343.39l-1.6 3.4-.9 5.1 2.4-4.4z"/><path id="path3977" class="cls-1" d="M324.5 221.59l-3.3-.4-1.9 1.5-3.3-.69-1 2-2.8 1.7-1 3.3-1-.3.4-2.9 1.1-2.8.6-2.9-2.3-.6-3.1-3.5-3 1.1-2.6.3-2.8 3.5-.9 3.8-.1 2.3-2.4 5.9-2.1 1.5-3.6-2.4-.9 2.1h-2.6l-3.6-1.3-.9-2.8-1.5-3.1-1.4-1.9h-1.3l-.9 4-1.1-.6-2.8.5-.1 3.1-.4 1.6.5 2-4.8-.8-2.3-1.3-1 1.8-.8 4.3-5.8 2.5-.8 3.6-1.5 2v3.1l-2.5 4.8-1.5 4-1.5 2.5-2.3.3-.8 8.5-3.3 7.5 3 2.5-1.9 2.3-4.4.5-1.5 3-.5 4.4-1.5 3.4 1.5 4.8-.3 4.3 1.5 7-.5 1.8.3 5.3-.8 4-2.6 3.6-.6 4.5-4.4-2.3-.5-3.1-1.1 1.9-.3 2.5-3.3 1.9-2.4 2.6-2.9 3.5-2.9 1-3-.8-2.8-.6-2.1-2.9-2.1-2.1 2.8-1-.3-1.4 1-2.3-3.3 1.1-.5-3.1 3.9-1.4-1.4-1.1-.8-1.5-2.3 2.4 1.4-3.4-1-1.1-.1-1.4 1.3-1.9-2.4-.9.8-1.6 4.9-.4 1.4-.1-1.9-1.4-3.3.9-1.6-1.9 1.4-1.1-.4-2-.8-1.8 1.8-1.4 1.9.6-.4-2.1 2.4-1-2.6-.6 2.1-1.8 2-.9 1.8 1.1 2-.9-1.1-1.9.6-1.3 2.3-.3-1.4-1.1.9-1.4 2.5-.4 1.9-.1 1.3-1.8.5-1 1.8-.5 1.5 1 2.1-.3.5-1.5-2.5.4-.6-2.4.5-3.1 3-2.4 2.1-2.4 1.8-1.9-1.8-1.1 2.6-1.8 1.9-1.3-.4-1.5.4-3.3 1.4-1 .3-1.5-1.3-.9 2.3-2.5h2.3l-1.3-1.6.9-2.4.9-1.9 1.6-1.5.1-1.3 2-1.8 2.6-1-1.6-.6 1.3-2.8 2.1-.3-1.3-3 2.4-3.1 2.9-2-2.5-1.1-5.1 2-2.3.6-3.6 2.6-1.9 2.1 1.5-4.6 4.5-1 1.4-1.1 2.5-2.3.5-1.6-2.9.1 1.8-2.9 1.4-.4.3 2 1-1.5 1.6-1 .3 2.8 1.4-2.9 2.4 2.5 1.9-2.9 1.1-1.9-2.4.8 2.6-4.1 2-.8 1.3 3.3.9-2.9 2 1.6-.6-3.1-.1-3.4 2.9.1 1.3 2.5 2.1-3.8 1.5 4.8.6-4.6 1.5-.5 1.8-1 2.9 2.9-1-3.5-2.5-1.8 3.6-1 3.4 1.6 1.3 3.9v-5.8l2.1-1.1 1.1-2.6 2.5-1.5.1-2.6 3.1-.8 2.1 1.3-1.9 3-.1 4 2.5-2.6 3.8-5.3-.1 5.3s-.3 2.5-.1 2.1l1.9-3.8 1.9-3.1.4-2 3 1 1.5 1.3-2.6 2.9.3 3.5 1.8-5 2.1-1.1 1.9 1.8 2 1.4s2.1.6 1.8.9a8.84 8.84 0 0 0-.8 1.1l3.1.6.8 1.3-.5 1.3-3.4 1.4-2.5.6-4.5-.4 3 1.1 2.4 1.4 1.3 1.1 1.8 1.1 2-.6 3.8-.6.3-1.4 3.3 1.3 1.6 1.5-.3 2.3-2-.1z"/><path id="path3985" class="cls-1" d="M147.3 454.29l-.4 3.9-1 2.5-1 2.9-.1 2.8.9 1.1 1.8-.6-.5 2.5-.1 3.4-.9 1.9 2.9.3 2.8.3 2.5-1.3.3-3.9 1.5-1.4-1-1.5.5-3.8-1.5-2.5 1.8-.9.9-2.8.3-2.6-.1-3.1 2-1.1.5-1-1.3-1.3-.1-1.09-1.4-.3-1.6.6-4-.3-.4-1.8-2.8 2.5-.4 2.5.3 2.5z"/><path id="path3991" d="M179.2 437.29l-1.3 2.3-3.8-.3-3.5-.5-2.8-.3-2.5.5-8.5-.5-3.8-.49-1.8-1-2.4.8-.5 1.1-3.8.5v2.4l1.3 1.3 1.3 1.6.3 2.6 2.9-2.1.4 1.8 4 .3 1.6-.6 1.4.3.1 1.1 1.3 1.3-.9 1.3-1.6.9.1 3.1-.3 2.6-.9 2.8-1.8.5 1.5 2.9-.5 3.8 1 1.5-1.5 1.4-.3 3.9a3.55 3.55 0 0 1 2.3 1.1c.8 1 1.8 2.4 1.8 2.4s-.4 2.1.9 2.6a4.88 4.88 0 0 0 2.1.4l1.8-2.5h2.5l2-1.8 3-.1 1.6 1.3 1.9-.6 2.1-.1 2.3-3 1.9-1 1.8-.5 1.8-3.5 2.1-2.6-1.8-2.1.1-3.3 2.4-2.4 2.1-3.1.4-1.1 1.6-1.9 2.6-.3 2.8-1.9 2.6-1.8.5-2.3.3-1.8h-2.6l-3.1-.6-1.9-1.3-2-.3H186l-2.1-.3-3.7-1.2.3-1.5-1.3-1.7z" fill="#d4a455" stroke="#fff"/><path id="path3993" class="cls-1" d="M198.6 458.89c-.5.3-3.1 1.6-3.1 1.6l-.5 1a12.65 12.65 0 0 1 1.8.5c.4.2 1.8 1.1 1.8 1.1l1.9-2.1-1.1-.8z"/><path id="path3995" class="cls-1" d="M201.4 458.79l2.1 1.3 1.1-1.4-1.9-1z"/><path id="path3997" class="cls-1" d="M191.4 463.09l-1.4 2 1.6 1.6 1.1-2.5z"/><g id="g10977"><path id="path4123" class="cls-2" d="M356.85 437.78l7.8-.2 3.7 2 6 1.3 2.7 2.2 5.5.2 1.8 2.8 4.5 1.2 2.7 2.5 1.8.7 2-2.2-2-4.2-2.8-4 1-3.5-1.5-.8-1.3-2.5-2.3-.8 2.5-2.8 2-5.3.8-2 2 2.3 1.7-1.6.3-2.5 2-2.7-1.2-2-7.2-6.8-1.7-2.8 2.5-13.2 5.2 3.7.8-2.5-.8-2.3 1.5-2 .1-3.3 3.1.4 3.8-2.2.5-1.7 3 1-.5 2.2 2.2-1.5 2.3.2 2.7-.8 2.8.8 3.3 3.3.7 3.3 1.6-2.6 1.1.4 2.2 1.5 2.2.3 2.2-2.5h3.5l1.8 1.2 3.8-1 1.5 2.5 2.8 1.5 2.2-1.7 3.5 1.3 4.2-5-2-1.3-2.9-.3-1.3-2.4-1.8-1.2 3.8-1.7-.5-4.8 6 .2-2.8-4.6 1.8-1.6-2.7-1.3 1.2-2.7 2.8.7 10-1.7 3 .3 4-3.7 7.2-.7 2.5-1.2 3.5-3.5 3.3 1.3 3.9.6 1.1 3.7 1.1 1.3-.5 3.2 2.2 1.7.7-1.7 2.6.5.8 1.5 2.3-.8.5 1 .3 2.5 5.8.3 1.8-2.3 2-.3 2.5-4.7 3-.2-1.5 2.7 6.4 7.8 4.8 4.5 3.8 8.3 1.1 2.4 3.3-3.8 1.8 1 2 3.7 4-.2 3-1 2.7.3 2.8 5.7 2.5-.2 2.2 3 2.3-.3 2.5-1.3 1.3 2.5-.7 1.5h4.5l1.8-2.3 3.8-.3 1.2-2.7 2.3.7 2.5-1.8 3.6-.6 2.3-2 1.7.3.5-1 2.2 2.2 5.7-.2 2.6 2.5 1.3 1 4-.3 6.7 1.7 2-.7.7-5-1.8-.8-.3-3.5 1.5-4.7 1.8 1.3 1.2-3.5 4.3 2.3 6.2 1.8.8 1.5 3.8.3-.6 3.3 1.7 3.3 3.9 1.2 2.4-.3 1.8-1.2 5.3.7 1.2.8 3.3-.2 3.4 3.2 4.3 1.8 4.5.9 5.5 1 4.7-1.3 4.6-2 1.8-2.3 1-2 3.5-.9 2.3.2 1.8 2.5.5 1.3 2.8-.7 3.4 1.1 4.4 2.6 2.1-2.3 1.8-1.8 1.8-.1-.1-2.9 1.9-4.4 3-3.5 1.2-4.3-1.8-2.3-1-.5 2.7-3.8 4.1-.5 4.1-.2 3.7-1.1 3.5 2 3.8 1.9.5-1 3.2 2.8 3.8 9.3 3.4 7.3v2.8l1.3 1.3 6.8 1.2 3.5 5.2 1.2-.3-.5 2.2 1.5 1.9v2.4l3.3 1.3 4.8-1.8 6.3-1.8 4.6-1.3-1.3 2.7-.5 3-1.5 1.7-.5 3.5-2.3 4.3-1.3 3.8-1.5 1.5.2 1.7-4.5-1.6-1.7.6-1.3 1.9-1.8.3 1.3 5-.7 4-.2 1.5-3.3 2.1 1.6 1.7.5-1.5 1.5.3 1.6-.9.8-2.1.3-1.4.5-.9.4 2.3 1.6-1 .8 1.3 2.4 1 1.9.8 2.3-1.5 2-.6 3-2.4 1.6-2.4 2.4-3.1h1s1.5-4.3 1.9-4.5 3.8-2.4 3.8-2.4l2.6-5 1.5-3 1.1-2.9 1.3-.9.8-2.4 2-2.4 1.6-2.3 1.5-2-.4-3.6 1.3-1.1-.1-3.3-.3-3.3 1.1-4.8.3-3 1.9-2 .9-1.8 1.1-.1.3 2.8 1.8 2.9-.1 4.3-.1 4.4.1 5.4-1.9 4.4 1.3.5.8 3.6-.9 2.3.1 4.1-1.1 2 .5 3.9 1.5 1.8.3-2.4.3-2.1 1.9-1.4a8.67 8.67 0 0 1 2 1.4c.2.4 1.8 2.3 1.8 2.3l.1-2.1-2-3.1-.9-2.1-2.5-2 .6-3 1-3.1.3-2.6 2.6-1.9h2.8l2.6 3.5 1.4-.6-1.8-2.1-2-3.4-1.6-4.8-.9-4.1-.6-3.3-.3-2.4-1.8-2.5.6-2.6.9.8-.5-5.8-.6-3.4-.8-1.9.4-1.1-.9-2.3-1.4.5-1.8.1 2.1 2-.1 2.1-2 1-1.9.9.8 2.3.5 1.6-.8 2.4-.4 1.5-.1 1.1h-1.4l-.6-1.5 1.3-.1-.8-2.6-.8-1 .8-.9.1-1.8-1.8-1.6-1.9-1.1-.9-1.4-2.3-1.9-.4-.9-1.8.9-2.6-1.4.1 2.9-.4 2.5-1.4-.3.5-2.6-1.9 1.3-.9 1.8h-2.5l2-2.08-.8-1 .9-2h-2.5l-1.1 2.1-.3-1.9.3-2.1-1.6-1.1-3.1.8-2-1.3.8-2.4 2.5-1.5 2.4-2 2.6-2.9 2.9-2.1 2-3.8 3.6-4.1 2.5-2.1v-3h2.1l1.9-4 3.9-3 3.1-2.9 4.3-.4 5.9-.3 2.5-1.5 1.9-.5.9.8 1.5-.3 1.4-1.5 2.5.9 1.6.6 2.4-.6 1.8.6 1 .6 2.1-.5-.9-1.3 1.1-1 .3-2.4 2.6.8 3.6 1.8 3.5.2 1.8 1s3.5 1.5 3 1.5h-5.2l-.3 2 2.5 1.2 2.8-1.5 2.5.5 2-2.2 2.8 1.5 1.5-2.2 4 .5-2.7-3h-2.2l-.2-4.2 1.2 1.2 1.7-4.7 3.3-2.2 1.8-3 3.2-2-.3-2.8 6.8-2 3.8-.8.8 1.2 3.2-1.3-.8 4.3-1 1.5.3 3.2 2.2-1-1.2 3.3 2.8-1.7 2.8-2.3 4.2-3.7 2-1.7 1.2 1 .2-3.5.2-4.5 2.2-1.5 4.7-1 2.3 2.5-4.3.8-.7 4.2-1.2 2.8.2 2.5-1 1.8-.5 2.8-2.7.2-3.5 2.2-.2 2.5-6.5 5.8-2.8 4-4 4.8-3.3 4.5-2.7.7-2.5-.3v3.2l-1.3 3-3.8 4-.7 8.8v6.2l1 6.5 2 7.7.3 4.7.7 4.8 1 2-1.8 1.5-2.2 1-2.8 2.2-.8 2v2l-1.2 1.8-1.5 2.2-2 2.3-1.3 3.3-2.3 1.5-1 2.5-1.3 2.5-2.5 1.2-1.8 2.3-3.7 2.8-3 .8-2.2 2.8-2.5 2h-2.2l-2.3-.5-1.3 2.3-3.5 2.7-1 1.3-1.7-.3-1.8 2-.5 1.8 1.2-1 2.2-1.2.7-.7 2-1.7v1.8l2.3-2.2 2-1.7 2-1.3 2.3-.8 2-1.8.8 1 1.3-2 2.3-1.5.5-1.2 4.8-3.2 1.5-.2 1.5-1.8.5-1 1.5-2.5 1.7-.8-.2-1.5.8-.8.7-.8 1.3-2 .7-1.5 2-.7-.3-1.2 1.7-1.5 1.3-1.2-.7-1 1-2.8 2.8-.7 1-2.8.8-.8 1.2-1.3 1.5-1 2.3-1.7 1.5-1.7 1.5-1.8 2.3-4.8-.5-3.7v-1h2.3l2.2-1.2 2.2.8-.3-4.5-.3-1.7 3.5-4.3 2.3-.2 1.3.5 2.3-1.8-1-3-.7-3 1.3-3.3.2-2 3.2-1.7-1 3.3 2 1.2 1.5-3-1-1.8v-2h-2.2l1-4.8 1-1.8-2.7-1.8-2.2 1.2.3-3.8 2.2-3.7 1.3-3.3.8-2.8.8-3 1.2-2.2 2.8-1.7s-.5 1.8 0 1.3a15.48 15.48 0 0 1 2.7-1.5l.2 2.3 4.2-3.5 2.2-.8-.7 4.5 1.3-.5 3.5-4.2 3.7-1 3.8-.7 3 2.2 2.3 3.3 3.2-4.7 3.7-3 7.2-7.3 4.7-3.3 6.5-2.3 5.2-3.3 6.5 1 2.2 2.2 1-3.8-.7-3.8-2.5-4.5-2-2.3.8-4.8-.3-1.3-4.7-.7.2-4 4.8 1 2.7-.8 3.3-2 3.8-4.2L968 265l-.7-2.7 3.7-.8 2.5-1.2-.8 3 1.5 4.2-2 1.2 5.2.3 2.5-1.2 3.2 1.5 2.5 3.8-.8.8 3.8 2.5 2.8-.5 1.5 2.8 1.7 2.7 3.7-1v-3.3l2.5-2.8 1.7-3.3-2.3-2.8 5.3 1.7 1.2-2 2-2 3.8-2.5-3.7-3.2-4.8-4.3-3.7-2.5-2.5.3-3.2-2.3h-3l.7 5.2-1.5-2-1.2-4-.7-4.5-3.5-2.2.5 2.3-3.2-2.7.2-2-4-2.3-6.2-4.2-.8-3-5.7-3-4.3-4.3-5.3-1.3-5-3.5-2.5-2.5-8.2.5h-6l-9-2-.3 4.3-1.3 1.7 3.8 3.3-.7 3.7-4.8 2.3-3-2.7-2.2-1-.3-4.2-2.3-2.5 3 1.3 2.7-1-.2-2.8-4.8-1.2v2.2l-1.7 1.7-3 1.3-.7 2.8-1.5-2-3.8-.3-4.8-.2-3.7-3.2-2.5 1.3-4 .3-2.5 2-3-1.2-4.2-2.5-2.7-.8 1.5-3 .5-2.8-1.7-4.2-2.7-3.8-5.7-1-6.3.3-10.2.5-3.7.2-2.8.2-.8-2.5-.7-3.8-3.8.2-2.8-2.7-2.3-1.7-3.8-.3 1.8-1.7 3.8.3-2.2-4.5-5.7-2.7-5.3.3-2.5 5.2-3.3 3.3-3.3 1.3-.3-2.7 1.7-2.2 3-3.7-.3 5 3.2-6.8-3.7 1-3.2 1-3.7-1 .3-3 5.5.8 3-.7-4.3-1.7-4.8-.8-6.2-1.5-4.3-.2-3.5-1.2-.3 3.8-1.7 2h-4.3l-2.2 2.8h4.5l-2.8 3.7 3 6.2-4.5.8-2-1.8-3.3 2.5-2.3-2.3h-3.2l-5.7-1.2-4 4.5-3.7-2.5-3.8-5.2-3.3 8.2-.7 4.5-2.3 2.2-3.5-3.2-5.2-3.5-.7-4.5-.7-4.3 1.3-4 .8-7-.5-5-5.5-6.8-6.5.3-6.8-3.2-7-1.7-1 6 .7 5.5-3.7.5-9.3-.8-4.5-1.2-2.7.8-1.5-4.3 2.5-1-6.7-1.7-9-1.8-4.3 1.8-4.3.2-1-4.8-1.3-1.5-1.5 4.2-4.2-1.7-.3-3.3-3.8 1.8-3.2-.3-.7 4.8 3.2 1-6 4.2-8 1-4.2 1.5 1.3-3.8 6-4.8 2.3-.8 4.3-5.2 3.3-4.8 7-4.5 2.8 1.8-4.3 3.3 2.7 3.8 3.5-1.2 3-4.5-4-1.2-3.5-2.8 2.3-2.7 4-3.3 2-4.3 1-3-2.8-2.7 2.3-1.3.2-3.3-2.3-4.2-.7-2.8-2.7 1.8-1.5-6.3-5.7-3-7.8-.8-5.8 1.2-1.2 2.7h-7.2l5.5-5.5 1.5-3.7-8.2-1.3-4.3.8 4.2-5.5 2.5-3.2-5.3-2-5.5-1-7.3 4.8-5.3 9.5 1.5 3.5 1.5 4.7-5.8-.7h-4.5l3 4.5-4.3.3-6.5 3.3-6 2 2.2-5.2-7 2s-9.3.7-8.8 1 5.5 2.5 5.5 2.5l-13 4.3-8.5 4.7-5 4.3-3.2-.2-.8 4.2-4 1.8 3.3 5.2s-3.3 2-2.8 2.7 7 6.2 7 6.2l-4.2 2-6 .8-6.3-.3-7 1.7-5.2 1.7-2 5.5 2.5 6.3-.7 3.7 4.7 3.8 2 1.3 1.7 3.7 2.5 1.8-.3 4.8.3 7.8-2.2-.8-2 1.2v-5.8l2.7-3.7.2-3-2.8-.7-2.2 1-4-3.5-5.8-5.2-4.5-1-4 2.8 1.8 2.8-2.3 1.7-3.2-2.5-3.3 1.8 4.7 7.2 5.7 1.7-1.3 4-4.2-2.8-4-.5-5-2.3 1-6.3s.3-5.2.3-5.7v-6.7l-2.7-2.8v2.8l.7 4-1.7 4.7-6 3.5-.8 5.5 4.8 7.3.7 5-2.7 6-.2 6.7 2 6 5.8-2.2h5.2l4 4.5.8 6 1 2.2-2.2 3.2 2.2 1.7 1.8 1.7-2.7.8-3.5-2.2 1.3-5.3-1.2-4-2.7-5-8.5 3-1.2 5.2 3.3 5.5-3.5 3.3-1.5 2.8-2.2 4-4.7 3.5.2 3.7-4.7-1.8-5-.3 3.3-2.3 3.5-2 3.2-4.8.8-3.5 2.8-2.2.2-5.2 2.3-4.3-5.2-5-.2-7 1.2-6-1.7-4.2 2.3-.8-.5-9-3.3-5-.5-2.8 1.8-7.8 1-5.7-.8-3.2-4.8-1.3-4.5.2 1.2-2.8 4.7-.8-2.2-3.2-2.7-1.7-3.2 3.7 2.3 2.5-1.2 2.5-2.3-.8-1.5 2.7-.8 3.3-1.3 5.3-1 4.8-2.3 5-4.8 4 1.2 2.5-3 1.8 1.2 1.8 2.3-1v7l.5 2.7-2.7 1.8.8 4.5 1.7-1.5 3 2.2.7-.5v4l2.5 4 1.3.2-.8 4.3-1.7 3.8-2.2-3.2-2.3-3.2s-1.5-2.5-2-2.5-3.8-.7-3.8-.7l-5-3.2-3.8-3.8-4-1.8-5-1.2-4.5-.2-2.2.7-1.3-4.2-6.2-5-.3 3 1.2 3.7 2.8 2.7 3.5.5v1.3l.7 3.3 1.8 3.5-.5 3.5-3.3.8-.5 3.8-2.8-.5v-3.9l-1.3-2.7-3.5 2.7-3.5 1-.2 2-4-.5-4.5.8-2 4.2-4.2-.5s-4.8-.7-3-1 4.2-2.5 4.2-2.5v-3.7l-4.8-.2-3.3 2 .5 3.8-3.8-1.8-3.8 3.3-8.8 3.8-2.3 3.5-2 5.7-2.8 2.5-5.8-1.7-1.8-4.2.7-4.2 2.7-.3 2.8-1.2-.8-2.7-1.5-1.8-1.8-2.7-5.7-.2-5.7-2 3.8 4.2.8 3.2-.8 4.3-1.5 3.3 2.3 2.8 1.3 2.8-.8 5 .3 5.7-3.8-4.5-4.3-1.8-1.7 2.3-4.2 3.2-4.5 2.8s-1.2 2-.8 2.5 2.3 5.8 2.3 5.8l2.2 3.2-2.5.7-4.5-2-5.3-1.3-4.3-3.2s-3.2 3.3-2.7 3.7 4.2 4.8 4.2 4.8l3-1 1.2 4.8-2.5.2-4.8-.3-4.2-3.7-3-1.8-2-4.7-.2-4.5.7-2.3.3-3.2-3.2-3-2.8-3-2.5-2.8-2.5.3v-3l.2-2.3 3.5 1.2 1.3 2.5 4 1.7 3.8 1.7 6.2 2.2 3.5 1.8 6.3 1.3 4.5-2.5 3.8-3.2 3.7-5.3-1-3.2-1.5-4-5-4.2-5-2.8-5.2-5.3-4.7-4.2-6.7-2.8-5.5-.2-3.8-1.2-2.7-3-3.3-.7-1.8 1.8-3.3-.7-1 2-2.8 1.7-1 3.3-1.5-.2-1.3 2.8v2.2l1.5 3.3 3.8 4 1.2 3.5 1.2.7-4.7 7.7 4.7 13.2-.8 1-.3 3.8.3 3.8 1.3 2.2.3 3.5 1.5 2.3-2.2 3.3 2 3.2 2.5 1 .7 3 1.2 1-.7 2.5-3.2 3-3 3-2.3 4-2 3.7-3.7 3-2.3 3.2 3.3-1.2.3 1.8 3.2 2.3 1.7-.2 2.2 2.5-3.8-.2-1.7.2-3 1.7-1.3 1.8.3 2.7-2.8 2.8 2 5.7 1.7 1.8.8 3.2.2 5-.2 3.3.7 1.8 6.2.7.8 1.8 3.5-.5 1.3 6.3 1.5 5 2.3 2.3.2 2 2.3 2-1.2 3.2-3.3-.2.7 2.7.8 3.8 2.8-.5 2.5-.2h3.2l2 2.7.7 5 3 .2 1.5 4 .7 1.7 3.5-.3 2.8 1.2 2.5-1.5 1.5 2 2.3 1 2.3 1.8 1.2-.2 1 1.3 2.7.2-.8 3-.5 1.7 1.7 3.3-1.7 2.7-2.7.2-1.8 1.8-2.5 1.5.8 2h3.7l-4 2.7-3.7.7 3.2 3.8-2.5.3-2.2 2.8-2.2 1-1 1 2.7 1.5 1.5 2.3 5.3 2.2a17 17 0 0 1 1.8.8c.5.3.2 3.5.2 3.5z"/><path id="path4125" class="cls-2" d="M966.85 197.28l-7.3 5 1 4.3 7.3-2 5.3.7 2-5.3-4.7-3.7z"/><path id="path4127" class="cls-2" d="M805.85 173l-10.7-1.3-5-.7 4-3.7.7-4.3-4.7-2.3 1.7-4.7h4.3l-.7 6.3 1.7 1.3 2.7-1 4.7 1.7 2.7 4 .3 5z"/><path id="path4129" class="cls-2" d="M788.85 144.28l-1.7 4-5.7-4.7v-6.7l-2.3-3.3 3.7-5.7 2.7-5 5.7 3 1 5.7 2 2 2.7-1.3-.3-5 3.3-1 6.3 4.7 2.3 1.7 5 1 2 1.7-3.3 4-1.7 4-4-2v-5.7l-5-2.3 2.3 6.3 1 3 3.3 1.3-3.3 2-4.3-.3-3.3.3-5.7 2-.7-3.3z"/><path id="path4131" class="cls-2" d="M819.85 134.28l2 5.3 1.7 4.3 6.7 4 6 1 2.7-3.3-3.7-4.7-4.7-1-3.7-2z"/><path id="path4133" class="cls-2" d="M599.85 9.08l-2.5 9.5-12 4.5-.5 8 4.5 7.5 2.5 3.5-5.5 2-6.5-2.5 3 8.5 5.5-1.5 4-3 1 2-5 7 5.5 4.5 2 5 5.5.5 3 5 8.5 1 5.5-4 6 2.5-4 9.5-1.5 9 5.5-2.5 11.5-.5 5.5-6 .5-6.5-6-6-4-3-1-5-4.5-1-1.5 7-.8 4-4.8-2-2-5.3.5-6 .8-5-1.3-5.5L614 42l-2.5 2-3.5-3.8-1.5-1.5-8 1.8-4 2.8v3l-2.3-2.3.3-2.3 2.3-1.3 3-2.5 2.8-2.7h4.8l1.5-1.3-.8-4.8 2.8-4.5-1.5-5-3.8-1.8-1.5-8z"/><path id="path4135" class="cls-2" d="M478.45 109l-5.7 3-7 6.3-7.3 5-5-1-6.7 3.3-5.7 4.7-6.3 5.7-1 5-7 1.7.3 6.3v5.3l-3.7 3-3 6.7 3 2-3.7 4-.7 3-4.3 5-2.7 3.7 2 4-2 4.7-4.3-.7 1.3 6 3.7 3.3 1.3-1.7 3.7 4-1 2.7.7 3 5.7 1.3 4.3 1.3 4.7-1 2 1.7 1-2.3-4-2.7-2.3-4.3-2.3-7-.3-5-.3-8.3 4-3.7 1.7-5.7 2.3-6 1.3-5 2.3 1 1-5.3 1.3-4.3 2.7-.7 2.7 1.3 1.3-4.7 2.3-5 2.3-.7 5-5.3 4.7-2.3h3.3l5.7-4.7 7.3-3.7 4.7-2.3 1-3 2-2.7-1.7-2 1-3.3-3.7-2.7-1.9-.9z"/><path id="path4137" class="cls-2" d="M396.15 225l-3.7 3.7 1.3 4.7 6-1 3-4.7-3-2.7z"/><path id="path4139" class="cls-2" d="M284.55 366.08l-4.1.1-3.6-1.3-3.9.1h-1.3l1.3-1.4-.8-1.4 2.8-.6.3 1.3 1.4-1.1-.4-2.3 1-.5-.4-1 1.9 1.3 2.8 1 3.5 1.1.3 2-.1 1.6z"/><path id="path4141" class="cls-2" d="M463.55 5.58l-4 3.8-3.3 6.8 3 4.5 2.8-3 5.3-.5-2-5.8.5-5.5z"/><path id="path4143" class="cls-2" d="M401.55 19.08l-1.8 4.3-4.5 2.8-2-4.8-10-.8-7 4.5s1 4 1.8 4 5.5 2.3 5.5 2.3l.5-6.8 3.3-1.5 4 2 2.5 1.5-5 1s-3 2-2 2a42.94 42.94 0 0 1 5 1l-1.5 2.8-5.3 2 3.3 4.5 3.8-1.3-.3 3.5 3.3-1.5s1.8-2.8 1.8-3.5-.3-3.2-.3-3.2l4.3.3 1.3-4.3 3.5-1.5 1.8-4-5.3.3s.8-3 1.5-3 3-1.5 3-1.5l-3 .3c-.2-.1-2.2-1.4-2.2-1.4z"/><path id="path4145" class="cls-2" d="M444.05 21.58l-1.3 4.8-1 7.8 7.5-.5s2.8-.3 2.3-1.8a65.81 65.81 0 0 0-3-6l3.3-2 1.3-3-4.3.5z"/><path id="path4147" class="cls-2" d="M420.85 14.88s-.3 2.8.5 3 4 .8 4 .8l2.8 3.3 4 1.8 2.8.8-1.8-3.5-5.5-2.8-.3-1.5z"/><path id="path4149" class="cls-2" d="M432.85.58l-2 2 4.3 3.3 3.3-1.8-2.8-2.5z"/><path id="path4151" class="cls-2" d="M429.35 5.88l-.5 2s-5.8.8-5 1.3a36.56 36.56 0 0 0 4.8 1.5l3.3-1.8s3.5 1 3 .3-1.8-2.8-1.8-2.8z"/><path id="path4153" class="cls-2" d="M428.85 33.58l-1.8 1.8s-.5 6.5.3 6.2 5 .3 4.8-.8a20.35 20.35 0 0 1-.3-3.3v-2.7z"/><path id="path4155" class="cls-2" d="M433.85 31.58s.3 3 .5 4q.78 2.39 1.8 4.7l1.8-4.5 1.5-1-3.5-2.5z"/><path id="path4157" class="cls-2" d="M427.85 14.38a19.64 19.64 0 0 0 2.8 3.3c.8.5 3.5 2 3.5 2l1.3-2-3.3-3.3z"/><path id="path4159" class="cls-2" d="M446.35 14.58l.3 2.5 3.5 2 1.8-3.5-2.5-1z"/><path id="path4161" class="cls-2" d="M414.85 33.88l-1.5 2.5s-5.3 2.7-1.5 3 7.3.5 7.3.5l-.5-3.5z"/></g><g id="g7370"><path id="path4253" class="cls-1" d="M197.15 389.58l-2.5 1.3-2.3 1.2-1 3.3-.8 1.7-3.8 1.7-.2 2.2-1.5.5-3.2-.2h-1.3l-1.7-1.5h-2.2l.8 2.7.8 1.5.3 2.7-2.5.2-2.3-.2-2.2-1.5-2.3.2-2.8 1.5-2.7.3s-2.5 0-1.8.3 2.2 1 2.2 1l1.7 1-.8 1.2 2 1.3 1.7-.2 2.3 1.5 1 1 1.2-.2 1.8.2-.5 2.2 1.3 1.5.7 1.3 2.2 2 1.5 1.7-.2 1.2.5 2.2.5.8-1-.2-.5 2.5.3 3.2-.3 2.8-.3 1.8 1.3 1.7-.3 1.5 3.7 1.2 3.2.3 3-.2 2 .3 2 1.3 3.2.5h2.2l.7-2.2-.7-.7 1.3-1.8 1.2.2 2-1 1.7.8 2.2.8 1.7.3 2 .3 2.5-.3.5-1.3 2.2-1.2 1.3-1 2.5-1.7-1.4-1.4-1.4-.6-1.2-1-.1-2.9-.9-.8 1.6-2.5.2-3.4-.9-2.9-1.3-.7-1.9.7.8-2.7 2.5-3.6 2.4-1.4-.5-3.4.7-2.4 2.6-3.5-3.8-.7-3.2-1.2-2.2-.7h-1l-3.8-2.5-.3-2.2-2.2 1.3-1-2-1.5-2.2-2.3-.2-.8-1.3-1.2-.2-1.4-1.1z"/><path id="path4255" class="cls-1" d="M225.35 441.08l-.5 1.7h-1l-1.3 1.3-.5 1.8.8 1.7 1.3 2 1 1.2 1-2.5.5-1.8-.5-3.2v-1.5z"/></g><path id="path4301" class="cls-2" d="M25.2 169.19l.2 1.5 1.2 2.4-.5 2.5-1.2-1.59-.8-1.8-1.8-.3-2.8-.3h-.8l.5 1.6 1.6 2.2v2.2l.5 2.5 2 .2.8 1.2-2.5-.3-.8.5.3 2.4-.5 2.6.1 3-.8 2-.9 2.9.7 2 .5 2.6.3 1.9-.5 2.6.3 1.8.8 1.8.7 2.2.5 1.5 2.4 1.9 1.2-.1 1.6.2-1.7.5.5.8-1.5.2 1.4 1.5 1.4 1.5-.4 1.4 1.8 2.6 1.9 1.6.2 1.9 1.6.8 2.2.7 1.7 1.5 1.5.9 1.6 1.2.9.7 1 2.2 5.8-.1 11.3 3.9h9.4l-.2-.9h4.5l1.8 1 1 1 2.6 1.8.9 3.3 2.6 1.4 1.6.7 2.2-2.6 2.8.3 1.2.9 3 4.9 1 1.2.8 2.8 6 2.4-.2-2-.2-2.8 1.9-2.2-.3-.7 1.9-1.6 1 .5 1.7-1.9 1-1.4h1.5l3.3-.7 2.4 1h1.8l.7-.8.8.5.1 1 2.4.8 2.2-.3 1.9.1-1.6-1.2-.1-.7 1-.5-.1-.5h-1.6l-1.8.3 1.2-1 .5-.7.5.5 3.3-.5.5.5h2.2l1.2-.3 1.8-.1 1.7.7 1-.1 1 1.5 2 .1 1.2-.9h1.2l2.2 1.9 1.2 1.4.3 1.8-.2 2.2.8 2.4 2.2 2.7 1.2 2.6.5 1 2.2-.5.5-2.5v-3.7l-1.2-3-.3-.8-.2-2.2-1.9-2.2-.3-2.7.1-2.2.9-2.5 1.7-1.4-.1-1 2-.3 2.9-3.3 1.4-1.2 1.5.2 1.4-2.6 1.9-1s1.5.2 1.6-.3a33.44 33.44 0 0 1 1.6-3.3l-1.6-.9.9-.8.2-.5-.9-2.2-.9-1 1.2-1.2-.9-1.2-.2-2.2-.1-1.9.7-.5.5 2.8.3 1.4.8 1.2-.2 2 1.2-2.5.8-1.9.1-1.2-1.2-1.4-.1-.5.3-.3 1.8 1.2.5-1.4 1.2-1.2.2-1.4-.2-1.6.1-.8.2-1.2.9 1.2h.5l1.4-.2 1.4-.1 1.8-.5-.3-.7-1.8.1-1.7.5-.8.5-.1-.8.5-.7 1.5-.3 1.8-.3 1.2-.3 1-.7 2.4.5s1 .5 1.2.2a7.81 7.81 0 0 0 .5-1.2l-.8-.9-.3-1.4.2-2.2.2-1.8 1-1.4.2-.5.7.3 2.2-2.4h.8l1.8-.2.5-1.2h1.6l1.4-1.2-.5-.6-1.2-1.6-.7-.5.3-3.8-.3-3.5-2-.6-1.8.6-.9-.1-3.9 9.1-1.8.1-.8.7-9.6-.1-2.4 2.2-1.5.9-.7 1.9-.3 1-1.7 1.2h-1.9l-1.2-.5-1.6.2-2 .7.1 1-.1 1.8-1 .9-2 .5-3.2 1.6-2.4.8-2.2.1-1.4-1 .7-1.2.3-.3.5-1.2.9-.5 1.1-1.9-1-1.5-.2-2.4-1.5-.5-1.9 1.4.7-1.6 1.2-1.6-.5-1.5-.3-1.7-1.8-.7-1.6-1.4-1.9.8.1 1.5-1.2 1.4-.9-.5-1.8 1.9v2.2l.2 2.2 1 1.6-.1 3.3-2.2 2-1.6.1-.8-2.4-.8-1.7.3-2.2-.3-2.2.8-1.5.5-1.5.8-2.5-1.8 2 1-3.5 1.6-1.4 1.9-.1 1.5-.7h4.3l1.2-.3 1.5.2.7 1.2 2.8 1 .5-1.6-1.9.2-1.2-.1-1.8-1.4-1.2-.7-1.3-.9-1.3.4-1.2-.9-2.9.1-1.6 1-1.2-.8-1.5-.8-2.2-.1 2.2-3-2.5 1.2-2 1.6-2 1.2-1.8.2-.2-1.2-3.7.8 3.1-2.7 2.2-1.6 2.7-2.2-1.2-.2-3.7.1-1.7-.3-1.6-.3-1.6-1.1-1.7.1-3.3-.8-.9-1-.5-1.6-.8-.7.1.9-.8 1.2-79.3.1-.1.6z"/><path id="path3965" class="cls-1" d="M222.9 362.29l-.8-1.4.3-3.1-2.3-.3-.3-4.9.3-2.8 2-.4-.9-2.9 1.8-.9 2.8-.8 2.1-2.8 1.8-1.8 1.4-.1-.9 2.1.8 1-1 2.5-1.1.6 1 1.6-.3 3 2.8-.9-.6 2.4-3 .6s-.6 1-.5 1.4.3 2 .3 2l-1.3.3-.6.9 1.8.3 1.4-1.1 1 1.5 1.5.9-.1 1.9-2.4.9h-1.6l-.5-1.1-.3-2-.4-.5-.8.4-.3 1.3-.1 1 .3 1.3z"/><path id="path3967" class="cls-1" d="M238.6 353.29l-2 .9-.4 2-1-1.5-1.6 1s-1 1.1-.5 1.5 1 2.6 1 2.6l1.4.3 1 1.4-1.3.4-2 .3.5 1.6 1.9.6.8-1.9.6-.8.6-1.4 1.6-.8-.6-1.6-.9-1.3.6-1.4 1-.1z"/><path class="cls-5" d="M611.6 225.09h-2.2v2.4H607v-4.7h12.1v4.7h-2.4v-2.4h-2.4v19.7h-2.7v-19.7zM630.1 232.59v2.7h-5.3v6.8h6.7v2.7h-9.4v-22h9.1v2.7h-6.4v7.1zM645.6 226.09V234l-3.4 3.5H638v7.2h-2.7v-21.9h6.9zm-4.5 8.8l1.8-1.9v-5.7l-1.8-1.8h-3.2v9.4zM659.9 226.09V234l-3.4 3.5h-4.2v7.2h-2.7v-21.9h6.9zm-4.5 8.8l1.8-1.9v-5.7l-1.8-1.8h-3.2v9.4zM663.9 244.79v-22h2.7v7.8l-.4 9.2h.1l2.1-9.1 2.5-7.9h3.7v22h-2.7v-10.6l.5-7.9h-.1l-2 7.7-3.4 10.8zM680.9 225.09H677v-2.4h10.5v2.4h-3.9v19.7h-2.7v-19.7zM701 241.39l-3.3 3.5h-4.2l-3.3-3.5v-15.5l3.3-3.3h4.2l3.3 3.3zm-2.6-1.1v-13.4l-1.8-1.8h-2l-1.8 1.8v13.4l1.8 1.9h1.9zM715.6 226.09V234l-3.4 3.5H708v7.2h-2.7v-21.9h6.9zm-4.5 8.8l1.8-1.9v-5.7l-1.8-1.8h-3.2v9.4zM719.5 244.79v-22h2.7v7.8l-.4 9.2h.1l2.1-9.1 2.5-7.9h3.7v22h-2.7v-10.6l.5-7.9h-.1l-2 7.7-3.4 10.8zM741.4 237.39H739l-3.4 7.4h-2.9l3.9-8.5-2.4-2.6V226l3.4-3.4h6.5v22h-2.7zm0-11.9h-2.7l-1.8 1.8v5.4l1.8 2h2.7zM627.3 285.09l-5.3 5.7h-6.8l-5.3-5.7V260l5.3-5.3h6.7l5.3 5.3v25.1zm-4.3-1.7v-21.7l-2.8-2.8H617l-2.8 2.8v21.7l2.9 3.1h3.2zM638.7 255.29v31.3h7.5v-3.8h4.4v7.9h-16.1V261l1.8-1.1v-.4h-4.4v-4.2zM653.2 259.59v-4.3h13.9l5.3 5.3v24.7l-5.3 5.3h-11.3v-29.7l1.8-1.1v-.4h-4.4zm12 26.8l2.8-2.8v-21.2l-2.8-2.7H660v26.7zM676.8 255.29h13l5.3 5.3v8.7l-2.6 3.2L696 276v9.4l-5.3 5.3h-11.3v-29.6l1.8-1.1v-.4h-4.4v-4.3zm11.4 15.3l2.5-2.9v-5.2l-2.7-2.7h-4.2v10.8zm-4.5 15.7h5.2l2.7-2.7v-5.7l-3.1-2.9h-4.9v11.3zM719.2 285.09l-5.3 5.7h-6.8l-5.3-5.7V260l5.3-5.3h6.7l5.3 5.3v25.1zm-4.3-1.7v-21.7l-2.8-2.8h-3.2l-2.8 2.8v21.7l2.9 3.1h3.2zM734.5 272.39l2.9-9.5 2.7-7.7h4.6l-8.1 22.4v13.2h-4.4v-13.2l-6.2-17.1 1.5-.9v-.4h-4.7v-4h5.9l2.7 7.8 2.8 9.4z"/><path class="cls-6" d="M606.6 212.89h137.8v2.7H606.6zM610.1 298.89h137.8v2.7H610.1z"/><path d="M319.1 220.29h6.7l-2.7 1.7 2.8 1.7h-6.8v-3.4z"/><path d="M319.1 220.39h.6v9.2h-.6zM761 294.59h6.8l-2.7 1.7 2.7 1.7H761v-3.4z"/><path d="M761 294.69h.6v9.2h-.6zM872.4 365.79h6.8l-2.7 1.6 2.7 1.8h-6.8v-3.4z"/><path d="M872.4 365.89h.6v9.2h-.6zM758.1 426.59h6.8l-2.7 1.7 2.7 1.8h-6.8v-3.5z"/><path d="M758.1 426.69h.6v9.2h-.6zM580.4 191.09h6.8l-2.8 1.7 2.8 1.7h-6.8v-3.4z"/><path d="M580.4 191.19h.6v9.2h-.6zM580.4 346.59h6.8l-2.8 1.7 2.8 1.7h-6.8v-3.4z"/><path d="M580.4 346.69h.6v9.2h-.6zM384.8 431.69h6.7l-2.7 1.7 2.8 1.7h-6.8v-3.4z"/><path d="M384.8 431.79h.6v9.2h-.6zM378.7 424.59h6.7l-2.7 1.7 2.8 1.8h-6.8v-3.5z"/><path d="M378.7 424.79h.6v9.2h-.6zM368.3 424.69h6.7l-2.7 1.7 2.8 1.7h-6.8v-3.4z"/><path d="M368.3 424.79h.6v9.2h-.6zM523 427.39h6.8l-2.7 1.7 2.7 1.7H523v-3.4z"/><path d="M523 427.49h.6v9.2h-.6zM476.2 439.29h6.8l-2.8 1.7 2.8 1.7h-6.8v-3.4z"/><path d="M476.2 439.39h.6v9.2h-.6zM462 424.69h6.7l-2.7 1.7 2.8 1.7H462v-3.4z"/><path d="M462 424.79h.6v9.2h-.6zM563.9 263.79h6.8l-2.7 1.6 2.7 1.8h-6.8v-3.4z"/><path d="M563.9 263.89h.6v9.2h-.6zM547.1 262.49h6.7l-2.7 1.7 2.8 1.8h-6.8v-3.5z"/><path d="M547.1 262.59h.6v9.2h-.6zM529.9 293.89h6.8l-2.7 1.7 2.7 1.8h-6.8v-3.5z"/><path d="M529.9 293.99h.6v9.2h-.6zM506.6 294.69h6.7l-2.7 1.7 2.8 1.7h-6.8v-3.4z"/><path d="M506.6 294.79h.6v9.2h-.6zM406.5 282.39h6.8l-2.8 1.7 2.8 1.7h-6.8v-3.4z"/><path d="M406.5 282.49h.6v9.2h-.6zM422.8 291.69h6.7l-2.7 1.7 2.8 1.8h-6.8v-3.5z"/><path d="M422.8 291.79h.6v9.2h-.6zM394.8 299.29h6.7l-2.7 1.7 2.8 1.8h-6.8v-3.5z"/><path d="M394.8 299.49h.6v9.2h-.6zM357.1 341.59h6.7l-2.7 1.7 2.8 1.7h-6.8v-3.4z"/><path d="M357.1 341.69h.6v9.2h-.6zM279.8 355.19h6.7l-2.7 1.7 2.8 1.8h-6.8v-3.5z"/><path d="M279.8 355.29h.6v9.2h-.6zM169.6 452.89h6.8l-2.7 1.6 2.7 1.8h-6.8v-3.4z"/><path d="M169.6 452.99h.6v9.2h-.6zM414.3 317.49h6.8l-2.7 1.7 2.7 1.7h-6.8v-3.4z"/><path d="M414.3 317.59h.6v9.2h-.6zM433.8 310.29h6.8l-2.7 1.7 2.7 1.7h-6.8v-3.4z"/><path d="M433.8 310.39h.6v9.2h-.6zM396.5 342.99h6.7l-2.7 1.7 2.8 1.7h-6.8v-3.4z"/><path d="M396.5 343.09h.6v9.2h-.6zM374.7 312.89h6.8l-2.7 1.7 2.8 1.8h-6.9v-3.5z"/><path d="M374.7 312.99h.6v9.2h-.6zM389.1 325.49h6.7l-2.7 1.7 2.8 1.7h-6.8v-3.4z"/><path d="M389.1 325.59h.6v9.2h-.6zM422.8 336.99h6.7l-2.7 1.7 2.8 1.8h-6.8v-3.5z"/><path d="M422.8 337.19h.6v9.2h-.6zM409.9 302.29h6.8l-2.8 1.6 2.8 1.8h-6.8v-3.4z"/><path d="M409.9 302.39h.6v9.2h-.6zM448 288.79h6.7l-2.7 1.7 2.8 1.7H448v-3.4z"/><path d="M448 288.89h.6v9.2h-.6zM454.8 320.39h6.7l-2.7 1.7 2.8 1.8h-6.8v-3.5z"/><path d="M454.8 320.49h.6v9.2h-.6zM477.4 375.79h6.8l-2.7 1.7 2.7 1.7h-6.8v-3.4z"/><path d="M477.4 375.89h.6v9.2h-.6zM503.8 355.29h6.7l-2.7 1.7 2.8 1.7h-6.8v-3.4z"/><path d="M503.8 355.39h.6v9.2h-.6zM377.3 359.59h6.7l-2.7 1.7 2.8 1.7h-6.8v-3.4z"/><path d="M377.3 359.69h.6v9.2h-.6zM462 341.79h6.8l-2.8 1.7 2.8 1.8H462v-3.5z"/><path d="M462 341.99h.6v9.2h-.6zM360.5 358.69h6.7l-2.7 1.7 2.8 1.8h-6.8v-3.5z"/><path d="M360.5 358.79h.6v9.2h-.6zM319.1 314.49h6.7l-2.7 1.7 2.8 1.8h-6.8v-3.5z"/><path d="M319.1 314.59h.6v9.2h-.6zM374.7 340.59h6.8l-2.7 1.7 2.8 1.7h-6.9v-3.4z"/><path d="M374.7 340.69h.6v9.2h-.6zM360.3 414.09h6.8l-2.7 1.7 2.7 1.7h-6.8v-3.4z"/><path d="M360.3 414.19h.6v9.2h-.6zM377.8 406.89h6.7l-2.7 1.7 2.8 1.7h-6.8v-3.4z"/><path d="M377.8 406.99h.6v9.2h-.6zM393.7 374.59h6.7l-2.7 1.7 2.8 1.7h-6.8v-3.4z"/><path d="M393.7 374.69h.6v9.2h-.6zM356.8 381.09h6.7l-2.7 1.7 2.8 1.8h-6.8v-3.5z"/><path d="M356.8 381.29h.6v9.2h-.6zM345 369.89h6.8l-2.8 1.7 2.8 1.7H345v-3.4z"/><path d="M345 369.99h.6v9.2h-.6zM461.9 342.29h6.8l-2.8 1.6 2.8 1.8h-6.8v-3.4z"/><path d="M461.9 342.39h.6v9.2h-.6zM334.1 351.29h6.8l-2.7 1.6 2.7 1.8h-6.8v-3.4z"/><path d="M334.1 351.39h.6v9.2h-.6zM326.8 334.09h6.7l-2.7 1.7 2.8 1.7h-6.8v-3.4z"/><path d="M326.8 334.19h.6v9.2h-.6zM348.4 325.09h6.8l-2.8 1.7 2.8 1.7h-6.8v-3.4z"/><path d="M348.4 325.19h.6v9.2h-.6zM356.8 305.79h6.7l-2.7 1.6 2.8 1.8h-6.8v-3.4z"/><path d="M356.8 305.89h.6v9.2h-.6zM337.7 302.79h6.7l-2.7 1.7 2.8 1.7h-6.8v-3.4z"/><path d="M337.7 302.89h.6v9.2h-.6zM373.8 287.09h6.8l-2.7 1.7 2.8 1.7h-6.9v-3.4z"/><path d="M373.8 287.19h.6v9.2h-.6zM420 363.39h6.7l-2.7 1.7 2.8 1.7H420v-3.4z"/><path d="M420 363.49h.6v9.2h-.6zM519.4 251.19h6.8l-2.7 1.7 2.7 1.7h-6.8v-3.4z"/><path d="M519.4 251.29h.6v9.2h-.6zM432.7 412.49h6.8l-2.7 1.7 2.8 1.7h-6.9v-3.4z"/><path d="M432.7 412.59h.6v9.2h-.6zM412.6 427.89h6.8l-2.7 1.7 2.7 1.8h-6.8v-3.5z"/><path d="M412.6 428.09h.6v9.2h-.6zM409.2 402.79h6.8l-2.7 1.7 2.7 1.8h-6.8v-3.5z"/><path d="M409.2 402.99h.6v9.2h-.6zM767.8 425.39h6.7l-2.7 1.7 2.8 1.7h-6.8v-3.4z"/><path d="M767.8 425.49h.6v9.2h-.6zM439.3 348.29h6.7l-2.7 1.7 2.8 1.7h-6.8v-3.4z"/><path d="M439.3 348.39h.6v9.2h-.6zM439.3 366.89h6.7l-2.7 1.7 2.8 1.8h-6.8v-3.5z"/><path d="M439.3 367.09h.6v9.2h-.6zM315.7 403.09h6.7l-2.7 1.7 2.8 1.8h-6.8v-3.5z"/><path d="M315.7 403.29h.6v9.2h-.6zM343.4 387.69h6.7l-2.7 1.7 2.8 1.8h-6.8v-3.5z"/><path d="M343.4 387.89h.6v9.2h-.6zM333.6 418.89h6.7l-2.7 1.7 2.8 1.8h-6.8v-3.5z"/><path d="M333.6 419.09h.6v9.2h-.6zM330.2 476.59h6.7l-2.7 1.7 2.8 1.8h-6.8v-3.5z"/><path d="M330.2 476.79h.6v9.2h-.6zM36.93 135.66l-2.9 3.1h-3.7l-2.9-3.1v-13.5l2.9-2.9H34l2.9 2.9zm-2.3-.9v-11.69l-1.5-1.5h-1.7l-1.5 1.5v11.7l1.6 1.7h1.7zM43 119.46v16.9h4.1v-2h2.3v4.3h-8.7v-16l1-.6v-.2h-2.3v-2.3zM51 121.86v-2.3h7.5l2.9 2.9v13.3l-2.9 2.9h-6.1v-16l1-.6v-.2zm6.5 14.4l1.5-1.5v-11.4l-1.5-1.5h-2.8v14.4zM63.83 119.46h7l2.9 2.9v4.71l-1.4 1.7 1.9 1.9v5.1l-2.9 2.9h-6.1v-16l1-.6v-.2h-2.3zm6.1 8.3l1.4-1.6v-2.8l-1.5-1.5h-2.3v5.9zm-2.4 8.5h2.8l1.5-1.5v-3.1l-1.6-1.59h-2.7zM86.73 135.56l-2.9 3.1h-3.7l-2.9-3.1v-13.49l2.9-2.9h3.7l2.9 2.9zm-2.3-.9V123l-1.5-1.5h-1.7l-1.5 1.5v11.7l1.6 1.7H83zM94.93 128.66l1.5-5.1 1.4-4.1h2.5l-4.4 12.1v7.1h-2.3v-7.1l-3.4-9.2.8-.5v-.2h-2.5v-2.2h3.2l1.5 4.2 1.5 5.1zM106.53 138.56v-2.1h2.1v-14.1l1-.6v-.2h-2.8v-2.1h6v2.1H111v14.9h2.1v2.1zM114.33 119.46h4.5l2.2 6.8 2.1 8h.1l-.5-8.1v-6.7H125v19.1h-2.5l-3-9.4-1.7-6.3h-.1l.3 6.5v9.2h-2.3v-16l1-.6v-.2h-2.3zM135.73 119.36v15.3l1.5 1.6h1.5l1.5-1.6v-15.3h2.3v16.2l-2.7 3.1h-3.6l-2.8-3.1v-13.3l1-.6v-.2h-2.3v-2.1zM147.23 138.46h-2.3v-2.39h2.3zM151.83 134.66l1.5 1.6H155l1.5-1.6v-3l-6.9-4.8v-4.79l2.7-2.9h3.6l2.7 2.9V125h-2.3v-2l-1.4-1.5h-1.6l-1.4 1.5v2.7l6.9 4.8v5.2l-2.8 3h-3.7l-2.8-3v-3.5h2.3zM163.33 138.46H161v-2.39h2.3zM166.13 119.26h6l2.9 19.1h-2.3l-.7-5h-4l-.7 5H165l2.3-16 1-.6v-.2h-2zm4 2.3h-.5l-1.4 9.51h3.3zM276.4 428.19h6.7l-2.7 1.7 2.8 1.8h-6.8v-3.5z"/><path d="M276.4 428.39h.6v9.2h-.6zM306.85 365.44h6.8l-2.7 1.6 2.7 1.8h-6.8v-3.4z"/><path d="M306.85 365.54h.6v9.2h-.6zM369.9 435.81h6.7l-2.7 1.7 2.8 1.7h-6.8v-3.4z"/><path d="M369.9 435.91h.6v9.2h-.6z"/><path class="cls-7" d="M8.18 87.59v206.3H138.8l55.13-53.81V87.59H8.18z"/><path class="cls-7" d="M187.03 81.24h14.35v14.35h-14.35zM1 80.41h14.35v14.35H1zM1 286.71h14.35v14.35H1z"/><path d="M30.95 207.35h6.8l-2.7 1.7 2.8 1.7h-6.9v-3.4z"/><path d="M30.95 207.45h.6v9.2h-.6zM359.05 423.64h6.7l-2.7 1.7 2.8 1.7h-6.8v-3.4z"/><path d="M359.05 423.74h.6v9.2h-.6zM508.4 212.89h6.8l-2.8 1.7 2.8 1.7h-6.8v-3.4z"/><path d="M508.4 212.99h.6v9.2h-.6zM526.5 233.79h6.8l-2.8 1.7 2.8 1.7h-6.8v-3.4z"/><path d="M526.5 233.89h.6v9.2h-.6zM490.15 243.09h6.8l-2.8 1.7 2.8 1.7h-6.8v-3.4z"/><path d="M490.15 243.19h.6v9.2h-.6zM384.2 381.54h6.8l-2.8 1.7 2.8 1.7h-6.8v-3.4z"/><path d="M384.2 381.64h.6v9.2h-.6zM505.65 262.54h6.8l-2.8 1.7 2.8 1.7h-6.8v-3.4z"/><path d="M505.65 262.64h.6v9.2h-.6zM490.15 265.94h6.8l-2.8 1.7 2.8 1.7h-6.8v-3.4z"/><path d="M490.15 266.04h.6v9.2h-.6zM469.9 299.84h6.8l-2.8 1.7 2.8 1.7h-6.8v-3.4z"/><path d="M469.9 299.94h.6v9.2h-.6zM477.4 307.34h6.8l-2.8 1.7 2.8 1.7h-6.8v-3.4z"/><path d="M477.4 307.44h.6v9.2h-.6zM268.25 433.85h5.05l-2.08 1.27 2.08 1.26h-5.05v-2.53z"/><path d="M268.25 433.93h.45v6.83h-.45z"/><path d="M268.25 438.25h5.05l-2.08 1.26 2.08 1.27h-5.05v-2.53z"/><path d="M268.25 438.32h.45v6.83h-.45zM403.1 356.64h6.8l-2.8 1.7 2.8 1.7h-6.8v-3.4z"/><path d="M403.1 356.74h.6v9.2h-.6zM488.95 285.84h6.8l-2.8 1.7 2.8 1.7h-6.8v-3.4z"/><path d="M488.95 285.94h.6v9.2h-.6z"/></svg>