<svg id="svg3667" xmlns="http://www.w3.org/2000/svg" viewBox="0 0 1003.28 543.17"><defs><style>.cls-1{fill:#e9d2a8;}.cls-1,.cls-2,.cls-3,.cls-4{stroke:#fff;}.cls-2{fill:#d89f4c;}.cls-3{fill:#b9b9b9;}.cls-4{fill:#d4a455;}.cls-5{fill:#fffefd;}.cls-6{fill:#fff;}.cls-7{fill:none;stroke:#c99e52;stroke-width:2px;}</style></defs><title>Монтажная область 1</title><path id="path3791" class="cls-1" d="M470.8,542.59l-2.7-1-1.7-2.7-2-4h-2l-4.3.3h-2.7l-4-.7-5.7,1-3,.3-.3-1.7.7-4.3,2.7-1.7,2.3-2,1-1.3-1.3-.3-.3-3-2.7-3.3-5-5.7,4.7,2.3h3.3l2.7-.3,4.7.3,5-2,2.3-.3,2.7-8,3.3-.3,2.7-2h2.3l.7,1.3,3-7.3,3-.7-.7-5.3,4.7-.3v-2l1.7-3,.3-3.7-.3-3,3.7-1.7,4.7-2,3.3,1.3,2.2-1.2,3.5.2,4.5,5.5,3.2.7,2,1.8-2.7.4.5,1.8-6.4,2.8-4.3-.1-2.4-1.1-1.3,1.8.2,3.9.8,3.5,3,1.5.8,1.3.8,1.9-1.6,1.3-1.7.6.1,3.1-2.3,2.1v2.1l-3.4,2.8-1,2.7-3.7,3.3-1.3,2.2-4.3,1.5-1.8-1.7-2.3,2.2-1.5,3.7,2.7,2.3.2,3.3,2.2.7,1.3,3.7-.2,2.3-2.2,1.2-1.7-.5-6,.2Z"/><path id="path3793" class="cls-1" d="M440.7,513.49l-.2-2,2.3-3.3.3-3.7-2.8-.7-.8-5.7-1.2-2.5.7-2.3-1-1,.3-2.8,1.3-3.2,1.5-4.2,2,.8,2.3.3.7,1,2.3-.8,1.3-3.3,4.8-1.5,1.7-3.2,1-2,2.2-.2,2.3-.5,2.2.2,2.7.3,3,.8,4.3-.2,1.2.2,2-2,2-.5,2.5-4,1.8.2.7,2.3.8.2.7,2.8-.2,2.3,1.7.3,3.5-2.2,2.2-1.2,2-.3,1.2,1.2,3.2-.8.8.2-.3,2.2-2.2,1.2-3.3-1.3-8.3,3.7.3,3-.3,3-1.7,3.7v2l-4.7.3.7,5.3-3,.7-2.8,6.3-.8-.3h-2.3l-2.2,1.7-3.8.7-2.7,8-2.8.5-4.5,1.8-4.7-.3-6,.3Z"/><path id="path3795" class="cls-1" d="M469.7,474.09l1.7-3,.2-2-.2-4.5-1.7-1.2-.7-.7-.2-1.2,3.7-.3.5-2.7,1.5-3.3,1.5.5.2-1.7,1.2.3,3.7-1.8.5,2-1,1.2,1.2,1.2-2,.3-2.3.5-.8,1-2-.2.3,1.5h1.7l1.7.3,1.5.8h3.7l2-.7.8.2,1.5,1.3,3-.8,1.5-.7,2.8.8.2,1.5.8,2.3.2,1,2.2-.2,2,2,.3,3.2-1,.8-3,1-1.8-1-2,.3-5.7,3.3-1.7-.3.3-1.8-.8-3.3-.8-.2-.6-2.1-2.1-.4-2.5,4.3-1.8.3-2,2h-1.6l-3.2.3-.9-.1Z"/><path id="path3797" class="cls-1" d="M482,457l4.2-.1,2.1-1.3,2.3-1.6,1.3-1.3-2.4-1.4-1.6.7-1.3-.1-1.5-1.9-2.6.9-2.6-1,.3-.8,2.4-1.1,1.6-1.4.8-.6-1.1-1.4,1.6-1.9,2.9.1h3.4l3.2,1.4.8-.9-.3-2.9,2-1.3,1.9.1,1.7,1.2,3.1.9,3.2-.4,2.5-.3,3.6-.1,2.4-.5,2,.4,1.7,2.2,1.5,1.8,2.1-.1.4,1.2-1.4,2.1-2.5.8-3.1,1.8-3.2,2.1-3.9.4-4.2,3.8-2.3-1-3.3,2.1-3.8,1.7-.6,2.2-3.1-.8-4.3,1.5-1.9-1.5-.9-.1-1.8.7-3.3-.1-1.9-.7-3-.5-.6-1.3,1.9.1,1-1.2,3.9-.7.7.1Z"/><path id="path3799" class="cls-1" d="M409.3,472.79l-.9-5.3-.3-1.8,1.3-2-1.6-.6-1-1.4.8-2.6-3-.3.3,1.3-1.4-1.1.3-3,.8-1.6,2,.3,2.5.4,2.4-.3,1.1-1.6-.1-1-2.3-1.6-1.4-1.8-.9-1.9-2.5.8-.8,1.3-.3,2.8-1.5-2.4.8-2.9,2.1-1.5,3.6-.8,2.5.3,2.1,1.1,1.4,2.5,1.5,1.4,2.9.3,2.5.1,1.4.1-.3-3.9,3-.8,1-1.3.8-.5.6-.9,1.8-.1,1.8,1.6.8,1.3,1.4.5,1.4,2,1.1,1.9,1,1.1,4.4.1,1.9,1.6,1.3,2,.6,1.5,1.6,2.9,1.1,1.6,2.5,2.1,3,1.5,2.8,2.1,2.5,1.8,2.4.8,2.8.5-.6,3.6-2.2-.2-3.3.5-1.3.2-3,5-4.5,1.6-1.3,3.3-2.3.8-.7-1-1.7.1-2.7-1.3-.7-5.8-3.3-.1-1.6-2.4-1.8-.3-1.5-2.5-1.4-.3-1.1.4-2.3-.3-.8-1.3-1.8-.3-.8-1.6-3.6-.1-2.1.9-2.3-.3-2.9,1.5-.6,2.3-3.4,1Z"/><path id="path3801" class="cls-1" d="M419.5,448.89l-.6-22,10.8-2.3-.9,3.1-1.1,3.6.3,1.9.6,3.3,3,.5,1.6-.1,1.3,1.8,1.8-1,.5-.9,1.3.1.5-2.4,1,.3,3.8,2.9,4.8-.4,3.3,1.3,3.5-.6,2.9,2.8,1,5.1,1,2.4-.3,1.6-1.8,1.4,2.3,1.6,5.1.5,3,.8,1.1,1.4,2.4.9,1-2,1.1-3.1,2.1-2.5,3-.4,3.3-1.6,1,.8-2.8,1.9-.3.8,2.6,1,2.6-.9,1.5,1.9,1.3.1,1.6-.7,2.4,1.4-5.2,4-5.4.2-.8-1.1,1-1.2-.5-2-3.7,1.8-1.6-.7v1.9l-1.6-.3-1.1,3.3-.5,2.7-3.7.3.4,1.9,1.8,1.3.4,6.4-1.7,3-3-.8-2.7-.3.6-3.6-5.1-1.3-5.3-3.9-3-1.5-2.5-2.1-3.4-6-1.3-2-1.9-1.6-4.4-.1-3.3-4.6-1.3-.8-2.1-2.6-1.1-.5-1.4.3-1.4,1.4-1,1.3-3,.8.3,3.9-3.9-.3Z"/><path id="path3803" class="cls-2" d="M419.3,449.29l-2.5.1-1.5-1.4-1.4-2.5-2.6-1.5-2.7.3-1.7.2-1.7.8-1.8,1.1-.6,1.9-1-.8.3-1.7.8-2.3v-1l-3-.2-1-1.7h-1.5l-.3-1.7-.8-2.2-1.3-2.5-1.8-.5-.7-2.7,2.5.5,3,.5-.8-1.8,2.5-3.5.5,2.3,1-2h3.2l.7,1.3,3-.7-1.5,1.8-1,2.2.3,1.2,1.5-1.5,1.7-2.2,3.5.2-.5-3-1.5-1.5-2-1.2-.7-2.3-2.3-3-2-2.5h-4l-4.2-.3-2.8,1.7-2.8.8-1.7,1.7-1,2-1.7,1.5.3-2.5,2-2.7-1.2-2-3.2-2.7-1-1.2-3-3-1.7-2.8.3-2.3,1.2-4.3,1-6.5,5.2,3.7.8-2.5-.8-2.3,1.5-2,.3-2.5,2.8-.3,3.8-2.2.5-1.7,3,1-.5,2.2,2.2-1.5,2.3.2,2.7-.8,2.8.8,3.3,3.3.7,3.3,1.2-1.8,1.5-.3,2.2,1.5,2.2.3,2.2-2.5h3.5l1.8,1.2,3.8-1,1.5,2.5,2.8,1.5,2.8-1.7,2.8,1.3,4.2-5-2-1.3-3.8-.7-.3-2-1.8-1.2,3.8-1.7v-4l-.5-.8,2-.3,4,.5-2.2-3.5-1.2-1.5,2.3-1.2-2.7-1.3,1.2-2.7,2.8.7,6.8-1,3.2-.7,3,.3,4-3.7,7.2-.7,2.5-1.2,3.5-3.5,2.7,1,2.7.3,1.8.5.8,2.7,1.3,2.3-.5,3.2,2.2,1.7.7-1.7,3.2.5.2,1.5,2.3-.8.5,1,.3,2.5h4l1.8.3,1.8-2.3,2-.3,2.5-4.7,3-.2-1.5,2.7,5.3,6.5,5.8,5.8,3.5,7,1.3,3.7,3.3-3.8,1.8,1,.8,1.5,1.8,2.2,3.3-.2,3-1,2.7.3,1.7,3.8,1.2,1.8,2.5-.2,2.2,3,2.3-.3,2.5-1.3,1.3,2.5-.7,1.5-.3,3.3-2.5,1.2-2.8.7v5.5l-.8,3.5-3.7,1-2.3-.8-3-.3-2.5,3.8-2.2,5.2,1.3,3.5-1.3,1.2-4.5-.5-5.3,1.5,1.8,2.5-1.2,1.8,1,2.7v3.7l-.7,2-.2,2.3-2.9.1-2.9-3.6-1.7-.8-1,.2-10,1-1.8-.2-2.5-.5-1.7-1.2-1.9-.1-2,1.3.1,2.4-.7,1.4-2.8-1.2-2.3.2-4.3-.4-1.6,1.9,1.1,1.4-1.9,1.3-1-.8-2.5,1.3-3.8.7-2.1,2.5-2.1,5.1-2.4-.9-1.1-1.4-4-.9-3.7-.2L457,451l1.8-1.4.3-1.6-1-2.4-1-5.1-2.9-2.8-3.5.6-3.3-1.3-4.8.4-3.8-2.9,1.7-.8-1.2-3.2,2.3-.3,1.2-1.8-1.3-.8-1.8-3.3.3-2.8,1.3-2.5-.7-1.3-1.5.5-.2,1.2-1.8-1.2v1.2l-1.8-1.2-.2,2.5,2.5.7-2.7.7-1.8-.8-.2,2.5h-1.5l-1.3-.5-1.1,1.3-10.8,2.3,1.1,22.4Z"/><path id="path3805" class="cls-1" d="M442.8,536l-1.8.7-4.3-1.8-4.8.5-6.8-2-1.8-.5-1-5.3-3-.8-1.3,1.3-3.3,1.3,1.3-2-5,2.3-3.3-2.5-4.8-1-2.5-3.5-4-.3-.5-4-2-3-1.8-3-2.3-.5-.3,1-2.5-2-1.5.3-2.5-2v-3.3l-2-1.8,1-3.5-4-4-3.3-.5-2.2-6.5.5-3.8,2-2.3v-4.1l-2-.5-2.2-2v-2.5l-2.3-3-1.3-3.8v-3l-.5-3,1.5-3,2.5.3,2.5,1.5,1.3,1.3,1.5,1.8,2,.3,1.8-1.8,2-1.8,1.3-1,1.8,1.5-1.3,1.3,1.8,1.3-1.8,2,1.8,1.3,1.5,1.8v2.3l1,2.3,2,.5,1.5-.5,2.3,1.3-.3,1.5,2.3,1,4.5,1.3,3.5-.8,3-1,1.5,1,1.3-.8-.5-3.6,3.5-.6.6-2.3,2.9-1.5,2.3.3,2.1-.9,3.6.1.8,1.6,1.8.3.8,1.3,3.4-.1,1.4.3,1.5,2.5,1.8.3,1.6,2.4,3.3.1.7,5.8-2.8,7.3-.3,2.8,1,1-.7,2.3,1,3.3,1,4.9,2.3.8.3,3.5-2,4.5.5,2.3,3.5,3.4,2.7,3.3.3,3,.3,1.7-3.6,2.6-2,2.5-.1,2.9Z"/><path id="path3807" class="cls-1" d="M378.8,463.29v-2.2s-.3-2.3.3-1.8,1.3,1.2,1.3,1.2l.3-2.2-1.2-1.5-2.2-1v2.3l-1.3.7-.7-2-.7-1.8-1.3-.5-2.5-2-.3-2.5,4.5,1.7,1.3-1.5-1.5-1.3-1.2-2.2,1.2-.3,3.8,1,2.7,2.5,1.8.7,2-2.2,3,3.2,1.3,2.7,3.2,1.7-3.2,2.7-.7,3.3-.5,2-1.7.5.5,4.1-3.3-3,1.6-2.4-1.2-.8.8-1.3-1.3-1.3-4.8,3.5Z"/><path id="path3809" class="cls-1" d="M368.8,458.89l-1.7-1.6-2-.5v-2.7l-.3-2-1.5-2,7.3-.2.3,2.5,2.5,2,1.3.5,1.3,3.8,1.3-.7v-2.3l2.2,1,1.2,1.5-.3,2.2-1.3-1.2-.3,4-.7.8-1.6-.5-1.5-1.8-2.1-1.6-1.7-1.2-1.3-.2-1.1.2Z"/><path id="path3811" class="cls-2" d="M363.3,450.09l-2-.5-.7-2-3.2,1.3-1.8-.5-.7-3.8-1.3-2.3-3.3-1-2-1.8-1.5-1.7,3.7-.2h4.2l3.7,2,3.3,1,2.7.3,2.7,2.2,2.2-.2,3.3.3,1.8,2.8-.5.5,1.2,2.2,1.5,1.3-1.3,1.5-4-1.5-1.3-.5-6.7.6Z"/><path id="path3813" class="cls-1" d="M369.3,472.49l-2.2.3-1.7-.5-2.8.8h-2.2l-3,2.7-2,2.2-.3,4-.3,3.5-.8,2.2-10.3,7,.5,1.2.2,4.2.8.2.2.8,7.7.8,16.7,13.8,6.8.3,5-4.3,4.6-.5-2.5-2,.1-2.8-2.1-2.2,1-3.5-4-4-3.3-.5-2.2-6.5.5-3.8,2-2.3-.4-3.8-1.6-.7-2.2-2v-2.5l-2.2-2.1Z"/><path id="path3815" class="cls-1" d="M357.5,473.09l-1.3,1.5-4-.3-5.7,2-3.7-1.5-4.8,1.5-1.7-1.5-1.7.8v2.5l-3.3,3.2-1.5,2.2.8.2.5,4.2h2l.5,1.8-1.8,1.3-.3,2-.8,1-.3,3.2,1.8,1.2.7,1.3,2.2-.2,3-1.3,16-10.5.8-2.2.3-7,4.8-4.8-1.3-.5-1.2-.1Z"/><path id="path3817" class="cls-1" d="M377.2,515.59l3.8.5,2,2,1-.5,1.3-2.3.7-1.5-1.8-1.2,1.5-.3,1.9-1.4-6.1.8Z"/><path id="path3819" class="cls-1" d="M330.7,494l-2.2-.5.7-2.3,1-1.7,1-1.7h1.5l1,1.8-1.8,1.3-.3,2Z"/><path id="path3821" class="cls-1" d="M330.3,497.09l-.5,1.5-1.7-.2-.2,2.2-.3,2.5,1.2.8-.7,2.8-.7,7.5,6,2.2,2.3-3.3,2-.5,1.7-1.7v-1l1.2-.2V509l-3.8-3.5v-1.2l8.7-3.2-.3-1.2-.8-.2-.2-4.2-.5-1.2-8.7,4.8-2.2.2-.6-1Z"/><path id="path3837" class="cls-1" d="M327.1,514.89l-.8-4.8-1.8-4.2.6-1.1.3-1.8.1-2.5,1.3-.9.2-2.4.8-1.8.8-2,2,.8-.3,3.3-.3,1.2-1.7.1-.7,4.5,1.1.8-.5,2.4-.7,8.2-.4.2Z"/><path id="path3839" class="cls-1" d="M356,449l-2.5,2.6-1,.1-3.1,1.4-1.5-.4-2.5-.3-3.4,1.1-2.4-.4-2.4-.6-.5.4-2.9-1.5-1.6-.4-.8-1.9-2.8-.3-1.4-1.8-3,.4-7.9.1-1.9,2.1-2.5,1.3-.6,1.8-3.4-.1-5.8-.5-.9.3-2.8-1.5-2.4-1.8.1-2.3-3.8-.5-1.9,1.3-.3,2.5-1.1,2.6-1.5,1.1.4,1.3,3.1.1,1.5.1,2-2.5,2.5.3,2.4-.3,1.4-.1.8,1,.9.9.8.4-3,.5,1,1.6-2.1-.3-2.9-.1-1.8-.8h-3.3l-2,.4-.6,1.4.6,2.3-.5,1.5,2.1.1.9-.1-.4,2.3.9,1.4V467l-.8.8-1.3-1.1-.6,1.1.4,1.3,1.6.3,2,1-1.3,1.4,1.5.6.5,1.6-.8,1,2.1.4,2-.1-1.8,1.5,1.4,1.1.6-.9,1.8-.5.9,1.1,1.9,1.5,2.3.6,3.5-.4.4-2.5h2.3l2.8,1.1,1.9,1.5.9.9h5.1l2.1-1.4,2.3-2.1h2l.5,1,2-.3,1.5-2,.4,1.5-1.1,1.5.3,2.8,3.3-3.2v-2.5l1.7-.8,1.7,1.5,4.8-1.5,3.4,1.5,5.6-1.9,4.3.3,1.3-1.5,2.1.3,1.5-.4,1.9.1,2.9-.9,1.3.5,2.2-.3-1.6-3.8.1-3.8-.5-3,1.5-3-1.7-1.6-2-.5-.3-4.7-1.5-2-2-.5-.7-2-3.2,1.3-1.6.1Z"/><path id="path3841" class="cls-2" d="M314.9,486.29l1.9-1.2h1.8l1.3-.9h2l3.1-1.9.4,1-2.7,2-.1,1.3.3,1-1.6.4-1.9-.1-1.2.4-1.1.5-1.3-.2-.4-1.3Z"/><path id="path3881" class="cls-2" d="M314,381.09l-3.9,1.1-1.8,3.4-.3,2.5-2.5-1.3-2.3-.5-1.6-.6-1.4.8-5.3-.8-2.8-.8h-2.9l-6.4-.6-3.3,1.6-1.3.9,1.3,3.4.8,2.9-.6,2-2.9,1.9-1.8,2.4-.5,1.6-2,.4-.8,4.8,2.5,3.8,1.5-1,3.3.9,3,.4,1.5.8,2.4-1.3,2.3-.3,3-1.6,2-1.1,1.6-.6,2.9,1.4,3.1.8,1.5,1.5,1.1,3,1.4,2,.1,4.3-1.9,1-1.4.4L301,423l-1.3.9-2.1.1v1.5l1.8,1.6,1.8-.9,1.5-.3,1.6-.5,2.5-1.1.3-1.8.1-1.4,3-1,2.9-.8,1.1-.3v2.6l1.4,1.3,2.5-.4,2.1.5.8.4-1.6,1.3-2.5,1.4.1.8,2.4,1.4.9.4V432l1,1.5,3.8-1.3,2.4-1.6,1.8-1.4,2.4-.3,1-.9-2-.4-2.5-.3h-1.5l-.4-1.3-1.1-1.7-1.3-.6-1-1h1.9l2.3-.5,2.3-2,3-.9,2.3-.6,2.4-1.1,2.3-1.8,3.5-.1-.8-2,2.8-1.5,1.6-1.8h2.3l2-2.8-1.7-3,1-4.6-2.3-.6-1-1.3-1.2.2-2.3-1.8-2.3-1-1.5-2L337,395l-2.8-1.2-3.5.3-2.5-5.8-3-.2-.7-5-2-2.7Z"/><path id="path3883" class="cls-1" d="M292.1,407.49l.6,1.1,1.3,2.1,1.9,1.6,1.5,3,.5,2.8-.1,4.9v.6l2.1-.1,1.3-.9.6-2.4,3.3-1.4-.1-4.3-1.4-2-1.1-3L301,408l-2.8-.8-3.3-1.4Z"/><path id="path3885" class="cls-1" d="M274.1,410.29l-.5,1.6-2.4,1.1-1.1,1.1-.8,1.9-1,3-2,1.6-3,.6,1.5,2.6,1.9,2.3,1.5.8.5,1.5,1.8,2.3,2,.5,1.5-.4-.4,1.8,1,1.6.5,1.4,5.8.8h3.8l1.9.3,4.5-1.6,1.6-1.3,2.5.9.8.3h1.1l.8,1.3,1.4.3,1.1-4.1.4-2,.8,1.5,1.9-1.1.6-2.1-.3-2.6-1.3.3-1.6.1-1.3.6-1.8-1.6v-7.8l-.8-2.3-1.1-2.8-1.9-1.6-1.9-3.3-3.9,1.9-2.3.3-2.4,1.3-1.5-.8-4.1-.5-2.1-.8Z"/><path id="path3887" class="cls-1" d="M291.3,447.49l-1.9-.4-.4,2-1.9.9-3.1-.1-2.4-1-1.6-.4-2.5,1.4h-1.6l-.3-3.5-2-1.3-.5-1,.5-3.8,1.4-1.1-1.4-3,.4-2.6,1,1.9,2.8.4,5.1.4h1.6l1.9.3,3-.9,1.5-.8,1.6-1.3,2.9,1.3,1.5-.1.8,1.3,1.4.3.1,2.9-2.1.1-.6.6-.1,3-1.5,1-.8,1.1,1.8.1.6,1.9-2.9-.5Z"/><g id="g7374"><path id="path3889" class="cls-1" d="M275,450.58l-2.8.8-1.1-.3-1.3,1.5-3.3.4-.6,3-1.5,2.3-.3,1.3-4,.5,1.5,2.9.9-1.6,1.1,2,1.4.8.4,1.5-1.3.9,1.8.3.9,1.6,2.1-.1,3.8.1,1.9,1.4h-1.9l-2.4-1-2.5.4-1.6,1.4-1.1-1.4-1.3-1.3-.6,1.5,1.3,1.1h.6l-.5,1.5,1.5.3.6-.8.3-.8,1.4,1.8.3,1.4.4,1.4.8,1.9.4-1.6,1.9,1.1.5,2s.9-2,1.3-1.5,1.8,2.3,1.8,1.8-.5-3.5-.5-3.5l-1.9-2.1,1.6-.6,1.1,1,1.1-.8-1.5-1.5,1.9-.4,2.3,1.4.4-2.5,1-1.4-.6-1.5-1.3-.9-2.5-.5-1.1-1-.1,1.5-1.4-.8.8-1.4-.1-1.8-.4-1.8-.9-1.5.6-3.8,1.4.8.8,2.3,1.6.6,1-2.1-.5-2,1.8.4,1.9-1.6.9,1,1.1-1.4,2.1,1.1,2-.1,1.5-1.1,1.1-2.6.3-2.5-1.4-.6-.4,2-1.9.9-3.1-.1-2.4-1-1.6-.4-2,1.5-2.1-.1Z"/><path id="path3891" class="cls-1" d="M276.85,483.78l1.9,1.3h2l1.6,1.3h2.3l2.9-.1,2.4-1.1,1.9-1.1,1.6.1.6-1.4,1.5-1.8,1.1.5,1.3-2.1-1.1-.9-1.8,1.5-.4,1.3-1,1-1.6.5-.9,1.1-1.8.9-1.3.5-1.1-.6-1.9-.5-1.9-.1-1.1-.4-1.3-.8-1.4.5-2.1-.4Z"/></g><path id="path3893" class="cls-3" d="M287.2,462.79l1,1.1,1.3.8,1.1-1.1-1.4-1.4Z"/><path id="path3895" class="cls-3" d="M287.2,466.49l-.3,2.4,2,.5.6-1.6-1-1.5Z"/><path id="path3897" class="cls-3" d="M283.7,458.79l-.4,1.8h1.8l.8-1.3Z"/><path id="path3899" class="cls-1" d="M266.6,453l-1.8-2.2.3-3,1-1.2.5-1.5,2.2-.2,2-1.5,1.5.7h.9l1.1,1.3,1.4.9.3,3.5-1,.8-2.3.5h-1.6l-1.8,1.7Z"/><path id="path3901" class="cls-1" d="M260.8,459.49v-1l-1.2-1.7-.3-3.7.2-2.2.2-1.2.3-1.7-.3-.5.5-4.7h2.5L264,444l1.3,1.2-.2,2.5-.2,2,.3,1.7,1.3,1.5-.6,1.8v1.2l-1.1,2-.6,1.5Z"/><path id="path3903" class="cls-1" d="M259.7,448.09l-1.3-1.1-2-1.6-.5-2.6.5-2.5,1.8-1.6,1-1.6.5-.5,1.3,1.1,2.3,2.1-1.1,3-1.9-.3Z"/><path id="path3905" class="cls-2" d="M260.3,435.89l-.6-3-.4-3.3-.1-2.6.3-1.5-1.4-2.6,2.4-1.4,2.8.1,2.9,4,2.1,1.3,1.1,2.1,1.1,1.6,2,.5,1.5-.4-.4,1.8.6,1.5-.5,2.3,1.4,3-1.4,2-.5,2.9-1.4-.1-1.4-.5-1.6,1.5-2.2.2-1.5,2.4.1-2.2-1.5-1.5-1.8-1,1.1-3-2.3-2.1-1.3-1.1.9-.9Z"/><path id="path3907" class="cls-1" d="M253,441.29l-1.4.5v-2l-1.6-2.9-2.9-1.9-1-2.8-1.1-2.3-.8-1.6.5-1.4,2.1.9,1-.9,3.3.6,1.3.8,1.8-.5,1.6.4,2,1.6,1.6-.3.4,3.6.6,2.6-1.1,1.1-1.3,2.1-1.5,1.1-.5,2.5-1.3-.1Z"/><path id="path3909" class="cls-1" d="M241.6,425.39l-3.1-.3-2.9.3-1,1.3-1,1,2.3,2.5.1-2.3,1-.6,2,1.5.6,1.4,1.1.4s-1.9,1.4-1.5,1.5a14,14,0,0,1,2,1.3l-.4,1-.1.8,1.5,1.6,1.5,1.1.6,1.5,1.8-.8,1.6.3,1.3,1,.4,1.5.9.4,1.3.8,1.3.9,1.4,1,1.4,1,1,.1-1-2.3-.8-.5-1.8-1.4-1,.6-.4-2.1-1.6-2.9-2.9-1.9-2.9-6.6.5-1.4,2.1.9,1-.9,3.8.9.8.5,1.8-.5,1.3.3,2.4,1.8,1.6-.3-.1-2.6.3-1.5-1.4-2.6h-5.8l-3.9-3.4-1.8-.8-1.9,1.6-1,1.3-1.9,2.9Z"/><path id="path3911" class="cls-1" d="M251,409.09l-1.1.3-.5,2.3-1.8.4-1,3-1,1.6,1.1,2.1,1.8.4,3.9,3.8h5.8l2.4-1.4,2.8.1,3.1-1,2-1.6,1.8-4.9,1.3-1.5,2.3-1.1.8-1.6-2.5-3.8-1.5.3-5-.4-1.8,1.3-1.6.8-3.5.6-1.3,2-2.5.3-2.9-.1Z"/><path id="path3913" class="cls-1" d="M235.1,425.09l-.4-1.8-1-2.1.8-2.5,2.1.4,2.1.4,2.9-1.3,1.6-1.1,2.4-.5,1.1,2.1-1.9,1.6-2.9,4.1-.4.9-2.5-.1-2.9.1Z"/><path id="path3915" class="cls-1" d="M249.8,409.39l-1-.9.4-1.8-.3-1.4-.3-1.4,1-1,3-.4,2.9-1.9.9-1.3.1-1.5,1.8,2.1,2.1-.9,1.8,1.4,1.9-.3h1.4l2.3-.4,1.4-.6,1.8,1.3,1.8,1.4-.8,4.1-1.5.3-2.8-.4h-2.3l-1.8,1.3-1.6.8-3.5.6-1.3,2-5.4.1-.8-1.3Z"/><path id="path3917" class="cls-2" d="M278.7,386.79l-.4-1.8.5-3-1.6-.9.6-2,1.5-1.8.1-3.3-1.3-4.1,3.3-.8.6-1.6,3.1-1.9h1.1l1-4.1,4-3-.4-2.4,1.4-1.3,1.8-.9,2.5.1,1.1-2,1-1,.6.9,5.4.5,1.1,1.8,3.5-.5,1.3,6.3,1.5,5,2.3,2.3.2,2,2,2.1-.9,3-3.3-.2,1.5,6.5-3.9,1.1-1.8,3.4-.3,2.5-2.1-1.1-2.6-.6-1.6-.6-1.4.8-5.3-.8-2.4-.8-2.8.1-7.1-.8-3.8,2.9Z"/><path id="path3919" class="cls-1" d="M296.5,337.89l-1.4,1.6-2.4-.4-2.3.5-4.5-3.4-4,.9-.9.1v-2.5h-1l-.6,1.6-1.5-1.9-1.1-1.9-1.4.6-.4,1.6-2,1.1-1.3.5-.6,1.5-.8-1.6-.6-1.8.8-1.4h1.6l.4-1.3-.8-1.3-1.5-.3.9-.8,2.4-.9,1.1,1.3-1.3,1.8-.1.9,1.3-.1,1.3-.1.9-.9-.4-1.4-.9-.5,1.4-1.6,1.4-1.5,1.8-.4,2.3-1.9.8.6,2.9.1,1.4-.9,1.9.8,2.6.5,2.3.4,2.2-.3.3,2.7-2.8,2.8,2.3,5.8Z"/><path id="path3921" class="cls-1" d="M279.5,346.39l-3.3.3-1.1-2.6-1.8-2.1-1-1.5-3.9,1.9-.9,2.5-.3,2.4-1.1,2.3v3.3l4-2.5,9.9-.4,1.9.4,1.5-.5,1.6,1.8,3,1,3,3.8,1.4-1.3,1.8-.9,2.5.1,1.1-2,1-1-.5-1.1v-8.4l-.8-3.2-.9-.8-.9,1.6-2.9-.4-2.3.5-4.5-3.4-4.9,1-.4,6-.4,2.6Z"/><path id="path3923" class="cls-1" d="M265.8,354l.6,2,.4,2.1,1.1.5,1.5,1,2.6,1,2.8.5.4,2.4-.1,1.6,1.9,1.4.9,1.8.4,1.8,3.3-.8.6-1.6,3.1-1.9h1.1l1-4.1,4-3-.4-2.4-3-3.8-3-1-1.6-1.8-1.5.5-1.9-.4-9.4.5-4.5,2.4Z"/><path id="path3925" class="cls-1" d="M255.8,396.29l-3.1-.6.9-1.8-.8-.9-1.4.8-2.5-.4-.5,1.4-1.6-1.5.3-1.1-3.1-.1-2-.4-.8-1.3-.9-.8.1-2.9-1-2.3-.5-4.9-.3-1.3-1.3-1.8.1-1.6.1-1.3-1.5-2.6v-.8l.8-1,1.5.6-.5,1.1.4.9-.2-.9.8-2.1,2.5-1,3.1-.9,1.9-1.8,2.6-1.3,3.9-.5,2.3-.3,1.5,1.4h-1.4l.9,1.3,2.1,1,.9.1,2.6-2h2.6l2.5-.1,3.6,1.3,3.8.1,1-.9,1.8,1,.9,1.8.4,1.8,1.3,4.1-.1,3.3-1.5,1.8-.6,2,1.5,1.3-.4,2.3.4,2.1-.6.6,1.9,4.4.4,1.9L280,395l-2.5,1.8-2.1,2.5-.5,1.6-2.4.6-2.6-2.1h-1.1l-1.8.8-1.9-.1-2.6.5-1.8-1.4-2.1.9-1.8-2.1Z"/><path id="path3927" class="cls-1" d="M247,404.29l-1.1-.1-1.5-.9-3.5-.5-.3,1.8-2.1,1.1-2.8-1-5-4.8-1-1.8.1-1.8-1.1-2.4,2.6-.3,2.6-1.5,2.1-1.3,1.3-.1.4-1.8.9.1,1.4,1.6.4-1.3,1.1,1.4.5.6,5.1.5-.3,1.1,1.6,1.5.5-1.4,2.5.4,1.4-.8.8.9-.5,1.9,2.8.5.8,1.8-.1,1.5-.9,1.3-2.9,1.9-3,.4-1,1Z"/><path id="path3929" class="cls-1" d="M234.6,405.89l-3,2.8.5,2.1-.6,1-3-.3-2.6,1.1-1.3-.3-.8,1-1.9-.8-2,.3-1.1.3h-1.4v1.6l.8.6,1.1.5.9-.1,1.4.6-.1.8h1.8l2-.6,1.6-.5,1.1-.9,1.3.1.9,1v1.3l1.8.1,2,.5,1.1.6,3.8.8,3.3-1.5,1.3-.9,2-.4,1.4-1.8,1-3,1.8-.4.5-2.3-1-.9.4-1.8-.5-2.8-1.8.3-1.1-.1-1.5-.9-3.5-.5-.3,1.8-1.6,1.1-2.3-.6Z"/><g id="g7393"><path id="path3931" class="cls-1" d="M242.65,458.48l-1.3.3-1.6-.9-.5-1.8-.9-1.1-1.5.6-1-1.5-.1-1.4-1.5-1-2.8-.1-2.3-1.3-2-2.3-1.5-1.3-1.6-1.3-1.4-1.6-2.4-2v-3.5l-.8-1.5-.9-1.4-1-1.1-.9.3-1.4-1.1-1.8-.3-1.8.5-.9,1.8-1.4-.6-.1-1.4-1.8-.1-1.4-.8-.4-3.4-.8-1.1,1.5-2.1-.3-3.5,3.4-1.3h.9l1.3-1.9,1.4,1.8,1.1,1.5.9-1.1-.4-1.6h3.1l1.3-.1,2.1-2,.4-.9h2l2.4-.9,1.1-.9h1.6l.9,1v1.3l1.8.1,2,.5,1.1.6-1.3,2.5,1.1,2.5.3,1.4h-1.4l-2.4.1-1,.8-.6.5h-1.8l.6,1.1.1,1.4-.6,1.6v1.4l.6,2,1.6,1.4,1.9,1.3,1.3.1.8,1.8.3,2.4,1,1.6.8,1.9,2.5,1.9s2,1.1,2.4,1.4a17.76,17.76,0,0,0,3.1.8l-.4,1.4.9,1.4,2.8.9,2.5,1.4,2.3,1.1,1.4,1.1,1.4,1.6.4,1.3-.9,1.5-1.5-1.3-1.4-1.3-1.1-.5-1.1-1.1-1.3.9-.9,2.1-.6,1.1,1.8,1.5,1,.8-.4,2.3-1.3.6-1.1.8.3,2.1-.4,1.4-1.3.6-1.6.5-.6-1.4-1.3.4.1,1.3-.8,1.6v1.8l.4,1.5-.9,1.1-2.1.5-1.5-2.4h-2.1l-1-1.3-1.5-.3-.6-1-2.3-.1-.5-1.9v-1.2l2-.1,1.5-.1,1.3.1.9.9h2l1.9-.4,1.8-.5h1.3l1.1-.6,1-1.1.8-1.3.6-.6-.4-1.5-.3-2-.6-.8-.3-2.1Z"/><path id="path3933" class="cls-1" d="M215,451.88l-1.7,1.1-1.4,1.2-.8-.4-.8-.7.2,2.3.8.5.3,2.2v1.5l.6.2-.8,1.3v1.8l.8,2.1,1.1.6,1.5-1.3,1.7-.2,1-.8-.4-3.2V458l-.6-.7,1.2-.5-.1-1.4-.7-1.2.1-1.1-.7-.8-1.3-.4Z"/></g><path id="path3935" class="cls-1" d="M207.2,422.69l-.6-.9-.3-2-1.3-.7-1.9.7-.4.6.9-2.3,1.7-2.8,1.2-1.7,1.8-1.2.8-.3,2.5.4,1,.2,1.5-1.1h2.3l1.3.2-.1,1.1-.2.9.1,1,1.4,1.5,1.4-.5,1.1.5.4,1.3-2.2,2.3h-4.2l.2,1.8-.9,1.1-1.7-2.4-1.1-.5-.8,1.5H210l-2.8,1.3Z"/><path id="path3937" class="cls-1" d="M208.4,411.59l-.2-2.8.7-2.4,1.6-1.8,1.1-2.1-3.9-.3-2.1-.8L204,401l-.5-.9.2-2.8-.7-1.4-.4-1,1.3-2.2-1.3-1.3-.6-1,.3-1.8.4-1.8-.1-2.1-.1-1.2,1.7-.3,1.3-1,1-1.7.3-2v-1.8l.6-1-.4-1.1-1.5-.4-.3-.9,1.1-.9,1.1-.8,2.3-.1.5.6.5,1.3,1-.2-.2-1.6.3-1h1.3l1.4.4.5-.6-1.1-1.1.1-.9-.5-1.2-.6-.7,1.1-.5.6-.7-.9-1.1-.9-1.2.2-.8,3.1.1.9,1.6.8-.3.8.8-.3,1.2,1,.8,1.3.2,1,.4,1.3-.2.3,1-1.7,1.1.1,1.4,2.2-.8,1.4.2.8-1.9,2.2-.2,1-1.3,1-.3,1,1.1,1.2-.2-.7-1.5,1.8-.9,1.5,1.7-.3,1.1-2-.1v1l1.2.8,1.3-.3,1.7.7-.5,1.8,1.1,2.2.4.9-.4,2.6,1.5,1.8.6,5.6,1.1,3-.1,2.7-.4,1.3-1.6-1.6-.6-.2-.3,1.6-1.6.3-4.5,2.8-2.6.3,1.1,2.4-.1,1.8.7,1.6,5.3,4.9.5.6-1.7.7-3,2.8.5,2.1-.8,1.1-2.8-.4-2.6,1.1-1.3-.3-.8,1-2.1-.7-2.9.4-1.2-.1-.1-1.3-3.3-.2-1.9,1.1-3.7-.5-.4-1Z"/><path id="path3945" class="cls-1" d="M205.2,373.29l-1.7,1-3.2-.2h-2.1l.2,1.8,2.2,1.7.3,2.3-2.2,2.2-1.2-2.2-.3-2.5-1-1.8-.8,1.5-.3,2.3v2l-1.5,1,.3,2.2,1.8.3-.3.8,1.3.8h1.7l1.2,1.5,2.4,2.2.6-3-.5-4.2,2.2.1,1.8-1.3.5-1.4.3-3.8.6-1-.4-1.1-1.5-.4-.4-.8Z"/><path id="path3947" class="cls-1" d="M194,386.49l-2,.8-.8.5-1-.3-1.7,1.5-1.3.7,1,1.5,1.2.2.8,1.3,2.3.2,2,2.7.5,1.5,2.2-1.3.3,1.7,1.7,1.3,1.5,1.5.5-3,1.2-1.8,1.5-2.7-1.9-2.3-2.4-2.2-1.2-1.5h-1.7l-1.3-.8-1.4.5Z"/><path id="path3949" class="cls-1" d="M203.8,400.49l-1.5-.2-1.7-.2.5-3,1.2-1.8,1.3,1.9Z"/><path id="path3951" class="cls-3" d="M210.3,435.29a1.4,1.4,0,1,1-1.4-1.4A1.37,1.37,0,0,1,210.3,435.29Z"/><g id="g10961"><path id="path3953" class="cls-1" d="M181.55,388.08h-3.3l-1.3-1.3,2.3-1.5,1.8-2.5,1.8-.3v-4.3l-2.8-2-2.8.3-.5,1.5-1.3-1.5.5-2.5-1-2-.3-2.3-2.5-3.5-3-2.8-1.5-1.8-.8-5-3-3.3-1.5.3h-1.3l1.3-1.8,1.3-.3-.8-2.5,1.8-1.5,1-3.3,1.5-1.5-.8-2.5h-5.5l-3,.8-.5-2,1.8-2.3,2.5-2.3-.3-2.3-2.2.5-2,.7h-3.3l-1,.8v2.2l-1.8,1.3.2,1.8s-1.8.3-1.5,1a15.09,15.09,0,0,1,.5,2.8l-2.3-1.3-.3-1.5-1.8.2v-1.3l1.8-1,.7-3.3-1.7,1.2-2,1.2-.2,1.8.3,1.3,1.3,1.5-.2,1.3,1.2,1,1.2,1.5,1.3.7.5-1.8.5,1.3-.7,1.8s-1.3.5-1.2,1a10.36,10.36,0,0,0,1.2,2l2-.3.8-1.2.2,1.7-1.5,1.7-.2,1.7-.3,2-1,3.5,3-2-.2-3.2,1.5,2.5.7,2.7-.7,1.2-.8,1.8.8,1.5,1.8-.5,1-1.3,2.2.7h1l-.3,1.8,1.3,2,.2,1.5,1.7-.3-.7,2.8v1.7l1.3,1.3-2.7.5h-2.8l-2.5-.8,1,2.2-1.8,1.7s-1.2,1.5-.7,1.3a12,12,0,0,1,2.7,0l.2,2.2-2.2,2.3-2.7,1.5,1.3,2.3,2.2-1,1.7.3,1,.3,2.3,1,1.5-.5-2.2,1.2-2.7.3-.8,2.2-1.8,1.3-1.5,2.2-3.7,3h2.8l2-1.5,1.7-.7,2.8,1.2,1.5-2.8,1.7-.3h2.7l1.3.3,3-1.5h2l3.3.2,2.5-.2,2.8-1.8,2-1v-1.4Z"/><path id="path3955" class="cls-1" d="M170.45,315l-1.8,1.3v2.2l-1.7,1.2,1.8,1-.2,1.5,1.8-3,.7-2.5Z"/><path id="path3957" class="cls-1" d="M162.45,328l-1.7.5.3,1.7,2.8-.2Z"/><path id="path3959" class="cls-1" d="M146.35,360.78l-1.2.3-.8.2-.8,1.5-1.3,1.5h-1.5l.7,2.2,1.8,1.7,2.3-1.5.7-.7,1.3,1.5,2.5.8,1-1.5-.8-2.3v-1.7l-1.5-2Z"/></g><path id="path3961" class="cls-3" d="M155.2,367l-.7,2.5,2.7-2-.7-1.3Z"/><path id="path3963" class="cls-1" d="M147.5,381.79v-1.9l1.6-2.8-.1-2-.8-2.3.1-2.8,1.7-1.8-2.5-.8-1.3-1.5-.7.7-2.3,1.5-2-2-.5-1.8h1.5l2.2-3-.4-1.7h-1.9l-1.4.8-2.4.5-1.1,1.5v2.1l1.8.3v1.4l-1,.6-.5,1-1.8-.3-1.5-.4-1.3.1-.5,2-1.3,2,.3,1.9,1,1,1.4.8,1.8.5-1.5,1.6-.6,2,2.6.1-4.3,1.1-.5,1.8-1.3.5,1.9.8-1.9,1.1,1.1,1.1,1.9-1.1-1.8,2.3,2.1-.6-1.1,1.8,3.1.4,1.8-1.3,2-2,1.5.5,2.8-2.1,1.1-.9,2.1.4.9-1.1Z"/><path id="path3969" class="cls-1" d="M294.5,317.49l-2.8-.1h-4.3l-2.9.6-2,1.3-1.9,1.3-2.9,1-3,.6-3.5-1.3,1.5-2.1-1.5-1.3-2.5-1.6-1.8-.6.3-3,.9-1.3v-5.2l-.9-2.9-.3-1.8.1-1-.8-1.8.6-2.9,2.4-2.6.6-2,2.3-2.6,2.5-2.6,1.8-1.6,2.6-2.5.8-2,2-3.9,2.8-.5.3-.9-.5-2.5.3-2.6-1.6-2.3-1.8-1.5-1.5-1-1-3-.5-1.6.9-3.9-1.1-2.5-.1-3.4.9-2.6-1.1-1v-3.8l1.1-1.6-1.5-1.4-1.4-1.1-1-2.1-2.9-1.3-1.5-1.9-3.3-2.9-.9-1.3.9-4,1.8.3,1.5,2.5.8,2.8,1,2.3,3.6,1.3h2.3l1.3-2.1,1.5,1,2.1,1.4,2.1-1.5,1.4-3.1,1-2.8.1-2.3.9-3.8,2.8-3.5,2.6-.3,3-1.1,1.5,1.9,1.6,1.6,2.3.6-.6,2.9-1.1,2.8-.4,2.9-1.9,2.9v2.2l1.5,3.3,3.8,4,1.2,3.5.9,1-4.5,7.8,4.8,12.8-.8,1-.3,3.8.3,3.8,1.3,2.2.3,3.5,1.5,2.3-2.3,3.5,2,3.2,2.5,1,.7,3,1.2,1-.4,2.5-6.4,6-4.1,7.4-3.9,3.3-2.3,3.2Z"/><path id="path3971" class="cls-1" d="M265.3,228.59l-2.8.5v2.8l-.5,2,.5,2-2-.3-2.8-.5-2.3-1.3-1.3,2.3-.5,3.8-3,1-2.8,1.5-.8,4-1.5,2v2.8L243,256l-1.5,4-1.5,2.5-2.3.3-.8,8.5-2,4.3-1.3,3.3,3,2.5-1.5,2-4.8.3-1.5,3.5-.5,4-1.5,3.8,1.5,4.8-.3,4.3,1,4.5.5,2.5-.5,1.8.3,5.3-.8,4-2.6,3.6-.6,4.5-2.4-1.4.5,4.1.4,3.1.8,3.3,1.1,1.6.5,2.4.9,1.4,1.6,3.4,1.6,2.1-.1,2.1-1.4,1.6,1.1,2,1.3,2.1.9,1.4,3.6-.9.8-2.5,1.3-2.6,3.8-.3,2.3.1,1.4-4,.6-2.4.4-4,1.3-2.3-.3-3.3.1-2.5-.9-1.1,2.1-1.3,2.9-2,.5.6,1.5-2.3,2.1-2.1.1-1.5.5-2.5-.6-2.1-1.5-2.5-1.9-1h-1.3l-1.3-2.5-.8-2.3.3-1.6,1.3-3.6-.4-2,.4-3.1.1-1.8,1.3-1.1.5-2.5,1.4-.1,2.1-3.8,1.5-2,1.6-.5,1.4-2.1,3.3-.6,3.3-3.3.4-2.5,1.6-.6-1.8-2.4a6.85,6.85,0,0,1-.1-2.1c.2-.3,2-2.3,2-2.3l-.9-2.8.4-1.8,1.6-.4.8-3.3,1.6-.9,1.1.8,2-.4,2.8-.3.6-.5.5-.1-1.5-4.6.9-3.9-1.5-2.3.3-3.6.9-2.6-1.1-1v-3.8l1.1-1.6-2.9-2.5-1-2.1-2.9-1.3-1.5-1.9-4.1-4.1Z"/><path id="path3973" class="cls-1" d="M257.7,338.79l-2.5,1-2.1,1.8.4,4.1.6,1.5,2.5-4,.1-1.6Z"/><path id="path3975" class="cls-3" d="M248.5,343.39l-1.6,3.4-.9,5.1,2.4-4.4Z"/><path id="path3977" class="cls-1" d="M314.5,221.59l-3.3-.4-1.9,1.5L306,222l-1,2-2.8,1.7-1,3.3-1-.3.4-2.9,1.1-2.8.6-2.9-2.3-.6-3.1-3.5-3,1.1-2.6.3-2.8,3.5-.9,3.8-.1,2.3-2.4,5.9-2.1,1.5-3.6-2.4-.9,2.1h-2.6l-3.6-1.3-.9-2.8-1.5-3.1-1.4-1.9h-1.3l-.9,4-1.1-.6-2.8.5-.1,3.1-.4,1.6.5,2-4.8-.8-2.3-1.3-1,1.8-.8,4.3-5.8,2.5-.8,3.6-1.5,2v3.1l-2.5,4.8-1.5,4-1.5,2.5-2.3.3-.8,8.5-3.3,7.5,3,2.5-1.9,2.3-4.4.5-1.5,3-.5,4.4-1.5,3.4,1.5,4.8-.3,4.3,1.5,7-.5,1.8.3,5.3-.8,4-2.6,3.6-.6,4.5-4.4-2.3-.5-3.1-1.1,1.9-.3,2.5-3.3,1.9-2.4,2.6-2.9,3.5-2.9,1-3-.8-2.8-.6-2.1-2.9-2.1-2.1,2.8-1-.3-1.4,1-2.3-3.3,1.1-.5-3.1,3.9-1.4-1.4-1.1-.8-1.5-2.3,2.4,1.4-3.4-1-1.1-.1-1.4,1.3-1.9-2.4-.9.8-1.6,4.9-.4,1.4-.1-1.9-1.4-3.3.9-1.6-1.9,1.4-1.1-.4-2-.8-1.8,1.8-1.4,1.9.6-.4-2.1,2.4-1-2.6-.6,2.1-1.8,2-.9,1.8,1.1,2-.9-1.1-1.9.6-1.3,2.3-.3-1.4-1.1.9-1.4,2.5-.4,1.9-.1,1.3-1.8.5-1,1.8-.5,1.5,1,2.1-.3.5-1.5-2.5.4-.6-2.4.5-3.1,3-2.4,2.1-2.4,1.8-1.9-1.8-1.1,2.6-1.8,1.9-1.3-.4-1.5.4-3.3,1.4-1,.3-1.5-1.3-.9,2.3-2.5h2.3l-1.3-1.6.9-2.4.9-1.9,1.6-1.5.1-1.3,2-1.8,2.6-1-1.6-.6,1.3-2.8,2.1-.3-1.3-3,2.4-3.1,2.9-2-2.5-1.1-5.1,2-2.3.6-3.6,2.6-1.9,2.1,1.5-4.6,4.5-1,1.4-1.1,2.5-2.3.5-1.6-2.9.1,1.8-2.9,1.4-.4.3,2,1-1.5,1.6-1,.3,2.8,1.4-2.9,2.4,2.5,1.9-2.9,1.1-1.9-2.4.8,2.6-4.1,2-.8,1.3,3.3.9-2.9,2,1.6-.6-3.1-.1-3.4,2.9.1,1.3,2.5,2.1-3.8,1.5,4.8.6-4.6,1.5-.5,1.8-1,2.9,2.9-1-3.5-2.5-1.8,3.6-1,3.4,1.6,1.3,3.9v-5.8l2.1-1.1,1.1-2.6,2.5-1.5.1-2.6,3.1-.8,2.1,1.3-1.9,3-.1,4,2.5-2.6,3.8-5.3-.1,5.3s-.3,2.5-.1,2.1l1.9-3.8,1.9-3.1.4-2,3,1,1.5,1.3-2.6,2.9.3,3.5,1.8-5L301,205l1.9,1.8,2,1.4s2.1.6,1.8.9a8.84,8.84,0,0,0-.8,1.1l3.1.6.8,1.3-.5,1.3-3.4,1.4-2.5.6-4.5-.4,3,1.1,2.4,1.4,1.3,1.1,1.8,1.1,2-.6,3.8-.6.3-1.4,3.3,1.3,1.6,1.5-.3,2.3-2-.1Z"/><path id="path3985" class="cls-1" d="M137.3,454.29l-.4,3.9-1,2.5-1,2.9-.1,2.8.9,1.1,1.8-.6-.5,2.5-.1,3.4-.9,1.9,2.9.3,2.8.3,2.5-1.3.3-3.9,1.5-1.4-1-1.5.5-3.8-1.5-2.5,1.8-.9.9-2.8.3-2.6-.1-3.1,2-1.1.5-1-1.3-1.3L148,447l-1.4-.3-1.6.6-4-.3-.4-1.8-2.8,2.5-.4,2.5.3,2.5Z"/><path id="path3991" class="cls-4" d="M169.2,437.29l-1.3,2.3-3.8-.3-3.5-.5-2.8-.3-2.5.5-8.5-.5L143,438l-1.8-1-2.4.8-.5,1.1-3.8.5v2.4l1.3,1.3,1.3,1.6.3,2.6,2.9-2.1.4,1.8,4,.3,1.6-.6,1.4.3.1,1.1,1.3,1.3-.9,1.3-1.6.9.1,3.1-.3,2.6-.9,2.8-1.8.5,1.5,2.9-.5,3.8,1,1.5-1.5,1.4-.3,3.9a3.57,3.57,0,0,1,2.3,1.1c.8,1,1.8,2.4,1.8,2.4s-.4,2.1.9,2.6a4.8,4.8,0,0,0,2.1.4l1.8-2.5h2.5l2-1.8,3-.1,1.6,1.3,1.9-.6,2.1-.1,2.3-3,1.9-1,1.8-.5,1.8-3.5,2.1-2.6-1.8-2.1.1-3.3,2.4-2.4,2.1-3.1.4-1.1,1.6-1.9,2.6-.3,2.8-1.9,2.6-1.8.5-2.3.3-1.8h-2.6l-3.1-.6-1.9-1.3-2-.3H176l-2.1-.3-3.7-1.2.3-1.5-1.3-1.7Z"/><path id="path3993" class="cls-1" d="M188.6,458.89c-.5.3-3.1,1.6-3.1,1.6l-.5,1a13.18,13.18,0,0,1,1.8.5c.4.2,1.8,1.1,1.8,1.1l1.9-2.1-1.1-.8Z"/><path id="path3995" class="cls-1" d="M191.4,458.79l2.1,1.3,1.1-1.4-1.9-1Z"/><path id="path3997" class="cls-1" d="M181.4,463.09l-1.4,2,1.6,1.6,1.1-2.5Z"/><g id="g10977"><path id="path4123" class="cls-2" d="M346.85,437.78l7.8-.2,3.7,2,6,1.3,2.7,2.2,5.5.2,1.8,2.8,4.5,1.2,2.7,2.5,1.8.7,2-2.2-2-4.2-2.8-4,1-3.5-1.5-.8-1.3-2.5-2.3-.8,2.5-2.8,2-5.3.8-2,2,2.3,1.7-1.6.3-2.5,2-2.7-1.2-2-7.2-6.8-1.7-2.8,2.5-13.2,5.2,3.7.8-2.5-.8-2.3,1.5-2,.1-3.3,3.1.4,3.8-2.2.5-1.7,3,1-.5,2.2,2.2-1.5,2.3.2,2.7-.8,2.8.8,3.3,3.3.7,3.3,1.6-2.6,1.1.4,2.2,1.5,2.2.3,2.2-2.5h3.5l1.8,1.2,3.8-1,1.5,2.5,2.8,1.5,2.2-1.7,3.5,1.3,4.2-5-2-1.3-2.9-.3-1.3-2.4-1.8-1.2,3.8-1.7-.5-4.8,6,.2-2.8-4.6,1.8-1.6-2.7-1.3,1.2-2.7,2.8.7,10-1.7,3,.3,4-3.7,7.2-.7,2.5-1.2,3.5-3.5,3.3,1.3,3.9.6,1.1,3.7,1.1,1.3-.5,3.2,2.2,1.7.7-1.7,2.6.5.8,1.5,2.3-.8.5,1,.3,2.5,5.8.3,1.8-2.3,2-.3,2.5-4.7,3-.2-1.5,2.7,6.4,7.8,4.8,4.5,3.8,8.3,1.1,2.4,3.3-3.8,1.8,1,2,3.7,4-.2,3-1,2.7.3,2.8,5.7,2.5-.2,2.2,3,2.3-.3,2.5-1.3,1.3,2.5-.7,1.5h4.5l1.8-2.3,3.8-.3,1.2-2.7,2.3.7,2.5-1.8,3.6-.6,2.3-2,1.7.3.5-1,2.2,2.2,5.7-.2,2.6,2.5,1.3,1,4-.3,6.7,1.7,2-.7.7-5-1.8-.8-.3-3.5,1.5-4.7,1.8,1.3,1.2-3.5,4.3,2.3,6.2,1.8.8,1.5,3.8.3-.6,3.3,1.7,3.3,3.9,1.2,2.4-.3,1.8-1.2,5.3.7,1.2.8,3.3-.2,3.4,3.2,4.3,1.8,4.5.9,5.5,1,4.7-1.3,4.6-2,1.8-2.3,1-2,3.5-.9,2.3.2,1.8,2.5.5,1.3,2.8-.7,3.4,1.1,4.4,2.6,2.1-2.3,1.8-1.8,1.8-.1-.1-2.9,1.9-4.4,3-3.5,1.2-4.3-1.8-2.3-1-.5,2.7-3.8,4.1-.5,4.1-.2,3.7-1.1,3.5,2,3.8,1.9.5-1,3.2,2.8,3.8,9.3,3.4,7.3v2.8l1.3,1.3,6.8,1.2,3.5,5.2,1.2-.3-.5,2.2,1.5,1.9v2.4l3.3,1.3,4.8-1.8,6.3-1.8,4.6-1.3-1.3,2.7-.5,3-1.5,1.7-.5,3.5-2.3,4.3-1.3,3.8-1.5,1.5.2,1.7-4.5-1.6-1.7.6-1.3,1.9-1.8.3,1.3,5-.7,4-.2,1.5-3.3,2.1,1.6,1.7.5-1.5,1.5.3,1.6-.9.8-2.1.3-1.4.5-.9.4,2.3,1.6-1,.8,1.3,2.4,1,1.9.8,2.3-1.5,2-.6,3-2.4,1.6-2.4,2.4-3.1h1s1.5-4.3,1.9-4.5,3.8-2.4,3.8-2.4l2.6-5,1.5-3,1.1-2.9,1.3-.9.8-2.4,2-2.4,1.6-2.3,1.5-2-.4-3.6,1.3-1.1-.1-3.3-.3-3.3,1.1-4.8.3-3,1.9-2,.9-1.8,1.1-.1.3,2.8,1.8,2.9-.1,4.3-.1,4.4.1,5.4-1.9,4.4,1.3.5.8,3.6-.9,2.3.1,4.1-1.1,2,.5,3.9,1.5,1.8.3-2.4.3-2.1,1.9-1.4a9.23,9.23,0,0,1,2,1.4c.2.4,1.8,2.3,1.8,2.3l.1-2.1-2-3.1-.9-2.1-2.5-2,.6-3,1-3.1.3-2.6,2.6-1.9h2.8l2.6,3.5,1.4-.6-1.8-2.1-2-3.4-1.6-4.8-.9-4.1-.6-3.3-.3-2.4-1.8-2.5.6-2.6.9.8-.5-5.8-.6-3.4-.8-1.9.4-1.1-.9-2.3-1.4.5-1.8.1,2.1,2-.1,2.1-2,1-1.9.9.8,2.3.5,1.6-.8,2.4-.4,1.5-.1,1.1h-1.4l-.6-1.5,1.3-.1-.8-2.6-.8-1,.8-.9.1-1.8-1.8-1.6-1.9-1.1-.9-1.4-2.3-1.9-.4-.9-1.8.9-2.6-1.4.1,2.9-.4,2.5-1.4-.3.5-2.6-1.9,1.3-.9,1.8h-2.5L773,370l-.8-1,.9-2h-2.5l-1.1,2.1-.3-1.9.3-2.1-1.6-1.1-3.1.8-2-1.3.8-2.4,2.5-1.5,2.4-2,2.6-2.9,2.9-2.1,2-3.8,3.6-4.1,2.5-2.1v-3h2.1l1.9-4,3.9-3,3.1-2.9,4.3-.4,5.9-.3,2.5-1.5,1.9-.5.9.8,1.5-.3,1.4-1.5,2.5.9,1.6.6,2.4-.6,1.8.6,1,.6,2.1-.5-.9-1.3,1.1-1,.3-2.4,2.6.8,3.6,1.8,3.5.2,1.8,1s3.5,1.5,3,1.5h-5.2l-.3,2,2.5,1.2,2.8-1.5,2.5.5,2-2.2,2.8,1.5,1.5-2.2,4,.5-2.7-3h-2.2l-.2-4.2,1.2,1.2,1.7-4.7,3.3-2.2,1.8-3,3.2-2-.3-2.8,6.8-2,3.8-.8.8,1.2,3.2-1.3-.8,4.3-1,1.5.3,3.2,2.2-1-1.2,3.3,2.8-1.7,2.8-2.3,4.2-3.7,2-1.7,1.2,1,.2-3.5.2-4.5,2.2-1.5,4.7-1,2.3,2.5-4.3.8-.7,4.2-1.2,2.8.2,2.5-1,1.8-.5,2.8-2.7.2-3.5,2.2-.2,2.5-6.5,5.8-2.8,4-4,4.8-3.3,4.5-2.7.7-2.5-.3v3.2l-1.3,3-3.8,4-.7,8.8v6.2l1,6.5,2,7.7.3,4.7.7,4.8,1,2-1.8,1.5-2.2,1-2.8,2.2-.8,2v2l-1.2,1.8-1.5,2.2-2,2.3-1.3,3.3-2.3,1.5-1,2.5-1.3,2.5-2.5,1.2-1.8,2.3-3.7,2.8-3,.8-2.2,2.8-2.5,2h-2.2l-2.3-.5-1.3,2.3-3.5,2.7-1,1.3-1.7-.3-1.8,2-.5,1.8,1.2-1,2.2-1.2.7-.7,2-1.7v1.8l2.3-2.2,2-1.7,2-1.3,2.3-.8,2-1.8.8,1,1.3-2,2.3-1.5.5-1.2,4.8-3.2,1.5-.2,1.5-1.8.5-1,1.5-2.5,1.7-.8-.2-1.5.8-.8.7-.8,1.3-2,.7-1.5,2-.7-.3-1.2,1.7-1.5,1.3-1.2-.7-1,1-2.8,2.8-.7,1-2.8.8-.8,1.2-1.3,1.5-1,2.3-1.7,1.5-1.7,1.5-1.8,2.3-4.8-.5-3.7v-1h2.3l2.2-1.2,2.2.8-.3-4.5-.3-1.7,3.5-4.3,2.3-.2,1.3.5,2.3-1.8-1-3-.7-3,1.3-3.3.2-2,3.2-1.7-1,3.3,2,1.2,1.5-3-1-1.8v-2h-2.2l1-4.8,1-1.8-2.7-1.8-2.2,1.2.3-3.8,2.2-3.7,1.3-3.3.8-2.8.8-3,1.2-2.2,2.8-1.7s-.5,1.8,0,1.3a16,16,0,0,1,2.7-1.5l.2,2.3,4.2-3.5,2.2-.8-.7,4.5,1.3-.5,3.5-4.2,3.7-1,3.8-.7,3,2.2,2.3,3.3,3.2-4.7,3.7-3,7.2-7.3,4.7-3.3,6.5-2.3,5.2-3.3,6.5,1,2.2,2.2,1-3.8-.7-3.8-2.5-4.5-2-2.3.8-4.8-.3-1.3-4.7-.7.2-4,4.8,1,2.7-.8,3.3-2,3.8-4.2L958,265l-.7-2.7,3.7-.8,2.5-1.2-.8,3,1.5,4.2-2,1.2,5.2.3,2.5-1.2,3.2,1.5,2.5,3.8-.8.8,3.8,2.5,2.8-.5,1.5,2.8,1.7,2.7,3.7-1v-3.3l2.5-2.8,1.7-3.3-2.3-2.8,5.3,1.7,1.2-2,2-2,3.8-2.5-3.7-3.2-4.8-4.3-3.7-2.5-2.5.3-3.2-2.3h-3l.7,5.2-1.5-2-1.2-4-.7-4.5-3.5-2.2.5,2.3-3.2-2.7.2-2-4-2.3-6.2-4.2-.8-3-5.7-3-4.3-4.3-5.3-1.3-5-3.5-2.5-2.5-8.2.5h-6l-9-2-.3,4.3-1.3,1.7,3.8,3.3-.7,3.7-4.8,2.3-3-2.7-2.2-1-.3-4.2-2.3-2.5,3,1.3,2.7-1-.2-2.8-4.8-1.2v2.2l-1.7,1.7-3,1.3-.7,2.8-1.5-2-3.8-.3-4.8-.2-3.7-3.2-2.5,1.3-4,.3-2.5,2-3-1.2-4.2-2.5-2.7-.8,1.5-3,.5-2.8-1.7-4.2-2.7-3.8-5.7-1-6.3.3-10.2.5-3.7.2-2.8.2-.8-2.5-.7-3.8-3.8.2-2.8-2.7-2.3-1.7-3.8-.3,1.8-1.7,3.8.3-2.2-4.5-5.7-2.7-5.3.3L812,191l-3.3,3.3-3.3,1.3-.3-2.7,1.7-2.2,3-3.7-.3,5,3.2-6.8-3.7,1-3.2,1-3.7-1,.3-3,5.5.8,3-.7-4.3-1.7-4.8-.8-6.2-1.5-4.3-.2-3.5-1.2-.3,3.8-1.7,2h-4.3l-2.2,2.8h4.5l-2.8,3.7,3,6.2-4.5.8-2-1.8-3.3,2.5-2.3-2.3h-3.2l-5.7-1.2-4,4.5-3.7-2.5-3.8-5.2-3.3,8.2-.7,4.5-2.3,2.2-3.5-3.2-5.2-3.5-.7-4.5-.7-4.3,1.3-4,.8-7-.5-5-5.5-6.8-6.5.3-6.8-3.2-7-1.7-1,6,.7,5.5-3.7.5-9.3-.8-4.5-1.2-2.7.8-1.5-4.3,2.5-1-6.7-1.7-9-1.8-4.3,1.8-4.3.2-1-4.8-1.3-1.5-1.5,4.2-4.2-1.7-.3-3.3-3.8,1.8-3.2-.3-.7,4.8,3.2,1-6,4.2-8,1-4.2,1.5,1.3-3.8,6-4.8,2.3-.8,4.3-5.2,3.3-4.8,7-4.5,2.8,1.8-4.3,3.3,2.7,3.8,3.5-1.2,3-4.5-4-1.2-3.5-2.8,2.3-2.7,4-3.3,2-4.3,1-3-2.8-2.7,2.3-1.3.2-3.3-2.3-4.2-.7-2.8-2.7,1.8-1.5-6.3-5.7-3-7.8-.8-5.8,1.2-1.2,2.7h-7.2l5.5-5.5,1.5-3.7-8.2-1.3-4.3.8,4.2-5.5,2.5-3.2-5.3-2L625,96l-7.3,4.8-5.3,9.5,1.5,3.5,1.5,4.7-5.8-.7h-4.5l3,4.5-4.3.3-6.5,3.3-6,2,2.2-5.2-7,2s-9.3.7-8.8,1,5.5,2.5,5.5,2.5l-13,4.3-8.5,4.7-5,4.3-3.2-.2-.8,4.2-4,1.8,3.3,5.2s-3.3,2-2.8,2.7,7,6.2,7,6.2l-4.2,2-6,.8-6.3-.3-7,1.7-5.2,1.7-2,5.5,2.5,6.3-.7,3.7,4.7,3.8,2,1.3,1.7,3.7,2.5,1.8-.3,4.8.3,7.8-2.2-.8-2,1.2v-5.8l2.7-3.7.2-3-2.8-.7-2.2,1-4-3.5-5.8-5.2-4.5-1-4,2.8,1.8,2.8-2.3,1.7-3.2-2.5-3.3,1.8,4.7,7.2L517,200l-1.3,4-4.2-2.8-4-.5-5-2.3,1-6.3s.3-5.2.3-5.7v-6.7l-2.7-2.8v2.8l.7,4-1.7,4.7-6,3.5-.8,5.5,4.8,7.3.7,5-2.7,6-.2,6.7,2,6,5.8-2.2h5.2l4,4.5.8,6,1,2.2-2.2,3.2,2.2,1.7,1.8,1.7-2.7.8-3.5-2.2,1.3-5.3-1.2-4-2.7-5-8.5,3L498,238l3.3,5.5-3.5,3.3-1.5,2.8-2.2,4-4.7,3.5.2,3.7-4.7-1.8-5-.3,3.3-2.3,3.5-2,3.2-4.8.8-3.5,2.8-2.2.2-5.2,2.3-4.3-5.2-5-.2-7,1.2-6-1.7-4.2,2.3-.8-.5-9-3.3-5-.5-2.8,1.8-7.8,1-5.7-.8-3.2-4.8-1.3-4.5.2L482,174l4.7-.8-2.2-3.2-2.7-1.7-3.2,3.7,2.3,2.5-1.2,2.5-2.3-.8-1.5,2.7-.8,3.3-1.3,5.3-1,4.8-2.3,5-4.8,4,1.2,2.5-3,1.8,1.2,1.8,2.3-1v7l.5,2.7-2.7,1.8.8,4.5,1.7-1.5,3,2.2.7-.5v4l2.5,4,1.3.2-.8,4.3-1.7,3.8-2.2-3.2-2.3-3.2s-1.5-2.5-2-2.5-3.8-.7-3.8-.7l-5-3.2-3.8-3.8-4-1.8-5-1.2-4.5-.2-2.2.7-1.3-4.2-6.2-5-.3,3,1.2,3.7,2.8,2.7,3.5.5v1.3l.7,3.3,1.8,3.5-.5,3.5-3.3.8-.5,3.8-2.8-.5v-3.9l-1.3-2.7-3.5,2.7-3.5,1-.2,2-4-.5-4.5.8-2,4.2-4.2-.5s-4.8-.7-3-1,4.2-2.5,4.2-2.5v-3.7l-4.8-.2-3.3,2,.5,3.8-3.8-1.8-3.8,3.3L387,243l-2.3,3.5-2,5.7-2.8,2.5-5.8-1.7-1.8-4.2.7-4.2,2.7-.3,2.8-1.2-.8-2.7-1.5-1.8-1.8-2.7-5.7-.2-5.7-2,3.8,4.2.8,3.2-.8,4.3-1.5,3.3,2.3,2.8,1.3,2.8-.8,5,.3,5.7-3.8-4.5-4.3-1.8-1.7,2.3-4.2,3.2-4.5,2.8s-1.2,2-.8,2.5,2.3,5.8,2.3,5.8l2.2,3.2-2.5.7-4.5-2-5.3-1.3-4.3-3.2s-3.2,3.3-2.7,3.7,4.2,4.8,4.2,4.8l3-1,1.2,4.8-2.5.2-4.8-.3-4.2-3.7-3-1.8-2-4.7-.2-4.5.7-2.3.3-3.2-3.2-3-2.8-3-2.5-2.8-2.5.3v-3l.2-2.3,3.5,1.2,1.3,2.5,4,1.7,3.8,1.7,6.2,2.2,3.5,1.8,6.3,1.3,4.5-2.5,3.8-3.2,3.7-5.3-1-3.2-1.5-4-5-4.2-5-2.8-5.2-5.3-4.7-4.2-6.7-2.8-5.5-.2-3.8-1.2-2.7-3-3.3-.7-1.8,1.8-3.3-.7-1,2-2.8,1.7-1,3.3-1.5-.2-1.3,2.8v2.2l1.5,3.3,3.8,4,1.2,3.5,1.2.7-4.7,7.7,4.7,13.2-.8,1-.3,3.8.3,3.8,1.3,2.2.3,3.5,1.5,2.3-2.2,3.3,2,3.2,2.5,1,.7,3,1.2,1-.7,2.5-3.2,3-3,3-2.3,4-2,3.7-3.7,3-2.3,3.2,3.3-1.2.3,1.8,3.2,2.3,1.7-.2,2.2,2.5-3.8-.2-1.7.2-3,1.7-1.3,1.8.3,2.7-2.8,2.8,2,5.7,1.7,1.8.8,3.2.2,5-.2,3.3.7,1.8,6.2.7.8,1.8,3.5-.5,1.3,6.3,1.5,5,2.3,2.3.2,2,2.3,2-1.2,3.2-3.3-.2.7,2.7.8,3.8,2.8-.5,2.5-.2h3.2l2,2.7.7,5,3,.2,1.5,4,.7,1.7,3.5-.3,2.8,1.2,2.5-1.5,1.5,2,2.3,1,2.3,1.8,1.2-.2,1,1.3,2.7.2-.8,3-.5,1.7L352,407l-1.7,2.7-2.7.2-1.8,1.8-2.5,1.5.8,2h3.7l-4,2.7-3.7.7,3.2,3.8-2.5.3-2.2,2.8-2.2,1-1,1,2.7,1.5,1.5,2.3,5.3,2.2a17.33,17.33,0,0,1,1.8.8c.5.3.2,3.5.2,3.5Z"/><path id="path4125" class="cls-2" d="M956.85,197.28l-7.3,5,1,4.3,7.3-2,5.3.7,2-5.3-4.7-3.7Z"/><path id="path4127" class="cls-2" d="M795.85,173l-10.7-1.3-5-.7,4-3.7.7-4.3-4.7-2.3,1.7-4.7h4.3l-.7,6.3,1.7,1.3,2.7-1,4.7,1.7,2.7,4,.3,5-1.7-.3Z"/><path id="path4129" class="cls-2" d="M778.85,144.28l-1.7,4-5.7-4.7v-6.7l-2.3-3.3,3.7-5.7,2.7-5,5.7,3,1,5.7,2,2,2.7-1.3-.3-5,3.3-1,6.3,4.7,2.3,1.7,5,1,2,1.7-3.3,4-1.7,4-4-2v-5.7l-5-2.3,2.3,6.3,1,3,3.3,1.3-3.3,2-4.3-.3-3.3.3-5.7,2-.7-3.3-2-.4Z"/><path id="path4131" class="cls-2" d="M809.85,134.28l2,5.3,1.7,4.3,6.7,4,6,1,2.7-3.3-3.7-4.7-4.7-1-3.7-2-7-3.6Z"/><path id="path4133" class="cls-2" d="M589.85,9.08l-2.5,9.5-12,4.5-.5,8,4.5,7.5,2.5,3.5-5.5,2-6.5-2.5,3,8.5,5.5-1.5,4-3,1,2-5,7,5.5,4.5,2,5,5.5.5,3,5,8.5,1,5.5-4,6,2.5-4,9.5-1.5,9,5.5-2.5,11.5-.5,5.5-6,.5-6.5-6-6-4-3-1-5-4.5-1-1.5,7-.8,4-4.8-2-2-5.3.5-6,.8-5-1.3-5.5L604,42l-2.5,2-3.5-3.8-1.5-1.5-8,1.8-4,2.8v3l-2.3-2.3.3-2.3,2.3-1.3,3-2.5,2.8-2.7h4.8l1.5-1.3-.8-4.8,2.8-4.5-1.5-5-3.8-1.8-1.5-8Z"/><path id="path4135" class="cls-2" d="M468.45,109l-5.7,3-7,6.3-7.3,5-5-1-6.7,3.3-5.7,4.7-6.3,5.7-1,5-7,1.7.3,6.3v5.3l-3.7,3-3,6.7,3,2-3.7,4-.7,3-4.3,5-2.7,3.7,2,4-2,4.7-4.3-.7,1.3,6,3.7,3.3,1.3-1.7,3.7,4-1,2.7.7,3,5.7,1.3,4.3,1.3,4.7-1,2,1.7,1-2.3-4-2.7-2.3-4.3-2.3-7-.3-5-.3-8.3,4-3.7,1.7-5.7,2.3-6,1.3-5,2.3,1,1-5.3,1.3-4.3,2.7-.7,2.7,1.3,1.3-4.7,2.3-5,2.3-.7,5-5.3,4.7-2.3h3.3l5.7-4.7,7.3-3.7,4.7-2.3,1-3,2-2.7-1.7-2,1-3.3-3.7-2.7-1.9-.9Z"/><path id="path4137" class="cls-2" d="M386.15,225l-3.7,3.7,1.3,4.7,6-1,3-4.7-3-2.7Z"/><path id="path4139" class="cls-2" d="M274.55,366.08l-4.1.1-3.6-1.3-3.9.1h-1.3l1.3-1.4-.8-1.4,2.8-.6.3,1.3,1.4-1.1-.4-2.3,1-.5-.4-1,1.9,1.3,2.8,1,3.5,1.1.3,2-.1,1.6Z"/><path id="path4141" class="cls-2" d="M453.55,5.58l-4,3.8-3.3,6.8,3,4.5,2.8-3,5.3-.5-2-5.8.5-5.5Z"/><path id="path4143" class="cls-2" d="M391.55,19.08l-1.8,4.3-4.5,2.8-2-4.8-10-.8-7,4.5s1,4,1.8,4,5.5,2.3,5.5,2.3l.5-6.8,3.3-1.5,4,2,2.5,1.5-5,1s-3,2-2,2a43.31,43.31,0,0,1,5,1l-1.5,2.8-5.3,2,3.3,4.5,3.8-1.3-.3,3.5,3.3-1.5s1.8-2.8,1.8-3.5-.3-3.2-.3-3.2l4.3.3,1.3-4.3,3.5-1.5,1.8-4-5.3.3s.8-3,1.5-3,3-1.5,3-1.5l-3,.3C393.55,20.38,391.55,19.08,391.55,19.08Z"/><path id="path4145" class="cls-2" d="M434.05,21.58l-1.3,4.8-1,7.8,7.5-.5s2.8-.3,2.3-1.8a65.07,65.07,0,0,0-3-6l3.3-2,1.3-3-4.3.5Z"/><path id="path4147" class="cls-2" d="M410.85,14.88s-.3,2.8.5,3,4,.8,4,.8l2.8,3.3,4,1.8,2.8.8-1.8-3.5-5.5-2.8-.3-1.5Z"/><path id="path4149" class="cls-2" d="M422.85.58l-2,2,4.3,3.3,3.3-1.8-2.8-2.5Z"/><path id="path4151" class="cls-2" d="M419.35,5.88l-.5,2s-5.8.8-5,1.3a34.72,34.72,0,0,0,4.8,1.5l3.3-1.8s3.5,1,3,.3-1.8-2.8-1.8-2.8Z"/><path id="path4153" class="cls-2" d="M418.85,33.58l-1.8,1.8s-.5,6.5.3,6.2,5,.3,4.8-.8a19.27,19.27,0,0,1-.3-3.3v-2.7Z"/><path id="path4155" class="cls-2" d="M423.85,31.58s.3,3,.5,4a48.34,48.34,0,0,0,1.8,4.7l1.8-4.5,1.5-1-3.5-2.5Z"/><path id="path4157" class="cls-2" d="M417.85,14.38a19.28,19.28,0,0,0,2.8,3.3c.8.5,3.5,2,3.5,2l1.3-2-3.3-3.3Z"/><path id="path4159" class="cls-2" d="M436.35,14.58l.3,2.5,3.5,2,1.8-3.5-2.5-1Z"/><path id="path4161" class="cls-2" d="M404.85,33.88l-1.5,2.5s-5.3,2.7-1.5,3,7.3.5,7.3.5l-.5-3.5Z"/></g><g id="g7370"><path id="path4253" class="cls-1" d="M187.15,389.58l-2.5,1.3-2.3,1.2-1,3.3-.8,1.7-3.8,1.7-.2,2.2-1.5.5-3.2-.2h-1.3l-1.7-1.5h-2.2l.8,2.7.8,1.5.3,2.7-2.5.2-2.3-.2-2.2-1.5-2.3.2-2.8,1.5-2.7.3s-2.5,0-1.8.3,2.2,1,2.2,1l1.7,1-.8,1.2,2,1.3,1.7-.2,2.3,1.5,1,1,1.2-.2,1.8.2-.5,2.2,1.3,1.5.7,1.3,2.2,2,1.5,1.7-.2,1.2.5,2.2.5.8-1-.2-.5,2.5.3,3.2-.3,2.8-.3,1.8,1.3,1.7-.3,1.5,3.7,1.2,3.2.3,3-.2,2,.3,2,1.3,3.2.5h2.2l.7-2.2-.7-.7,1.3-1.8,1.2.2,2-1,1.7.8,2.2.8,1.7.3,2,.3,2.5-.3.5-1.3,2.2-1.2,1.3-1,2.5-1.7-1.4-1.4-1.4-.6-1.2-1-.1-2.9-.9-.8,1.6-2.5.2-3.4-.9-2.9-1.3-.7-1.9.7.8-2.7,2.5-3.6,2.4-1.4-.5-3.4.7-2.4,2.6-3.5-3.8-.7-3.2-1.2-2.2-.7h-1l-3.8-2.5-.3-2.2-2.2,1.3-1-2-1.5-2.2-2.3-.2-.8-1.3-1.2-.2-1.4-1.1Z"/><path id="path4255" class="cls-1" d="M215.35,441.08l-.5,1.7h-1l-1.3,1.3-.5,1.8.8,1.7,1.3,2,1,1.2,1-2.5.5-1.8-.5-3.2v-1.5Z"/></g><path id="path4301" class="cls-2" d="M15.2,169.19l.2,1.5,1.2,2.4-.5,2.5L14.9,174l-.8-1.8-1.8-.3-2.8-.3H8.7l.5,1.6,1.6,2.2v2.2l.5,2.5,2,.2.8,1.2-2.5-.3-.8.5.3,2.4-.5,2.6.1,3-.8,2-.9,2.9.7,2,.5,2.6.3,1.9-.5,2.6.3,1.8.8,1.8.7,2.2.5,1.5,2.4,1.9,1.2-.1,1.6.2-1.7.5.5.8-1.5.2,1.4,1.5,1.4,1.5-.4,1.4,1.8,2.6,1.9,1.6.2,1.9,1.6.8,2.2.7,1.7,1.5,1.5.9,1.6,1.2.9.7,1,2.2,5.8-.1,11.3,3.9h9.4l-.2-.9h4.5l1.8,1,1,1,2.6,1.8.9,3.3,2.6,1.4,1.6.7,2.2-2.6,2.8.3,1.2.9,3,4.9,1,1.2.8,2.8,6,2.4-.2-2-.2-2.8,1.9-2.2-.3-.7,1.9-1.6,1,.5,1.7-1.9,1-1.4h1.5l3.3-.7,2.4,1h1.8l.7-.8.8.5.1,1,2.4.8,2.2-.3,1.9.1-1.6-1.2-.1-.7,1-.5-.1-.5h-1.6l-1.8.3,1.2-1,.5-.7.5.5,3.3-.5.5.5h2.2l1.2-.3,1.8-.1,1.7.7,1-.1,1,1.5,2,.1,1.2-.9h1.2l2.2,1.9,1.2,1.4.3,1.8-.2,2.2.8,2.4,2.2,2.7,1.2,2.6.5,1,2.2-.5.5-2.5v-3.7l-1.2-3-.3-.8-.2-2.2-1.9-2.2-.3-2.7.1-2.2.9-2.5,1.7-1.4-.1-1,2-.3,2.9-3.3,1.4-1.2,1.5.2,1.4-2.6,1.9-1s1.5.2,1.6-.3a34.65,34.65,0,0,1,1.6-3.3l-1.6-.9.9-.8.2-.5-.9-2.2-.9-1,1.2-1.2-.9-1.2-.2-2.2-.1-1.9.7-.5.5,2.8.3,1.4.8,1.2-.2,2,1.2-2.5.8-1.9.1-1.2-1.2-1.4-.1-.5.3-.3,1.8,1.2.5-1.4,1.2-1.2.2-1.4-.2-1.6.1-.8.2-1.2.9,1.2h.5l1.4-.2,1.4-.1,1.8-.5-.3-.7-1.8.1-1.7.5-.8.5-.1-.8.5-.7,1.5-.3,1.8-.3,1.2-.3,1-.7,2.4.5s1,.5,1.2.2.5-1.2.5-1.2l-.8-.9-.3-1.4.2-2.2.2-1.8,1-1.4.2-.5.7.3,2.2-2.4h.8l1.8-.2.5-1.2H177l1.4-1.2-.5-.6-1.2-1.6-.7-.5.3-3.8-.3-3.5-2-.6-1.8.6-.9-.1-3.9,9.1-1.8.1-.8.7-9.6-.1-2.4,2.2-1.5.9-.7,1.9-.3,1-1.7,1.2h-1.9l-1.2-.5-1.6.2-2,.7.1,1-.1,1.8-1,.9-2,.5-3.2,1.6-2.4.8-2.2.1-1.4-1,.7-1.2.3-.3.5-1.2.9-.5,1.1-1.9-1-1.5-.2-2.4-1.5-.5-1.9,1.4.7-1.6,1.2-1.6-.5-1.5-.3-1.7-1.8-.7-1.6-1.4-1.9.8.1,1.5-1.2,1.4-.9-.5-1.8,1.9v2.2l.2,2.2,1,1.6-.1,3.3-2.2,2-1.6.1-.8-2.4-.8-1.7.3-2.2-.3-2.2.8-1.5.5-1.5.8-2.5-1.8,2,1-3.5,1.6-1.4,1.9-.1,1.5-.7h4.3l1.2-.3,1.5.2.7,1.2,2.8,1,.5-1.6-1.9.2-1.2-.1-1.8-1.4-1.2-.7-1.3-.9-1.3.4-1.2-.9-2.9.1-1.6,1-1.2-.8-1.5-.8-2.2-.1,2.2-3-2.5,1.2-2,1.6-2,1.2-1.8.2-.2-1.2-3.7.8,3.1-2.7,2.2-1.6,2.7-2.2-1.2-.2-3.7.1-1.7-.3-1.6-.3-1.6-1.1-1.7.1-3.3-.8-.9-1-.5-1.6-.8-.7.1.9-.8,1.2-79.3.1-.1.6Z"/><path id="path3965" class="cls-1" d="M212.9,362.29l-.8-1.4.3-3.1-2.3-.3-.3-4.9.3-2.8,2-.4-.9-2.9,1.8-.9,2.8-.8,2.1-2.8,1.8-1.8,1.4-.1-.9,2.1.8,1-1,2.5-1.1.6,1,1.6-.3,3,2.8-.9-.6,2.4-3,.6s-.6,1-.5,1.4.3,2,.3,2l-1.3.3-.6.9,1.8.3,1.4-1.1,1,1.5,1.5.9-.1,1.9-2.4.9h-1.6l-.5-1.1-.3-2-.4-.5-.8.4-.3,1.3-.1,1,.3,1.3Z"/><path id="path3967" class="cls-1" d="M228.6,353.29l-2,.9-.4,2-1-1.5-1.6,1s-1,1.1-.5,1.5,1,2.6,1,2.6l1.4.3,1,1.4-1.3.4-2,.3.5,1.6,1.9.6.8-1.9.6-.8.6-1.4,1.6-.8-.6-1.6-.9-1.3.6-1.4,1-.1Z"/><path class="cls-5" d="M601.6,225.09h-2.2v2.4H597v-4.7h12.1v4.7h-2.4v-2.4h-2.4v19.7h-2.7v-19.7Z"/><path class="cls-5" d="M620.1,232.59v2.7h-5.3v6.8h6.7v2.7h-9.4v-22h9.1v2.7h-6.4v7.1Z"/><path class="cls-5" d="M635.6,226.09V234l-3.4,3.5H628v7.2h-2.7v-21.9h6.9Zm-4.5,8.8,1.8-1.9v-5.7l-1.8-1.8h-3.2v9.4Z"/><path class="cls-5" d="M649.9,226.09V234l-3.4,3.5h-4.2v7.2h-2.7v-21.9h6.9Zm-4.5,8.8,1.8-1.9v-5.7l-1.8-1.8h-3.2v9.4Z"/><path class="cls-5" d="M653.9,244.79v-22h2.7v7.8l-.4,9.2h.1l2.1-9.1,2.5-7.9h3.7v22h-2.7v-10.6l.5-7.9h-.1l-2,7.7-3.4,10.8Z"/><path class="cls-5" d="M670.9,225.09H667v-2.4h10.5v2.4h-3.9v19.7h-2.7v-19.7Z"/><path class="cls-5" d="M691,241.39l-3.3,3.5h-4.2l-3.3-3.5v-15.5l3.3-3.3h4.2l3.3,3.3Zm-2.6-1.1v-13.4l-1.8-1.8h-2l-1.8,1.8v13.4l1.8,1.9h1.9Z"/><path class="cls-5" d="M705.6,226.09V234l-3.4,3.5H698v7.2h-2.7v-21.9h6.9Zm-4.5,8.8,1.8-1.9v-5.7l-1.8-1.8h-3.2v9.4Z"/><path class="cls-5" d="M709.5,244.79v-22h2.7v7.8l-.4,9.2h.1l2.1-9.1,2.5-7.9h3.7v22h-2.7v-10.6l.5-7.9h-.1l-2,7.7-3.4,10.8Z"/><path class="cls-5" d="M731.4,237.39H729l-3.4,7.4h-2.9l3.9-8.5-2.4-2.6V226l3.4-3.4h6.5v22h-2.7Zm0-11.9h-2.7l-1.8,1.8v5.4l1.8,2h2.7Z"/><path class="cls-5" d="M617.3,285.09l-5.3,5.7h-6.8l-5.3-5.7V260l5.3-5.3h6.7l5.3,5.3v25.1Zm-4.3-1.7v-21.7l-2.8-2.8H607l-2.8,2.8v21.7l2.9,3.1h3.2Z"/><path class="cls-5" d="M628.7,255.29v31.3h7.5v-3.8h4.4v7.9H624.5V261l1.8-1.1v-.4h-4.4v-4.2Z"/><path class="cls-5" d="M643.2,259.59v-4.3h13.9l5.3,5.3v24.7l-5.3,5.3H645.8v-29.7l1.8-1.1v-.4h-4.4Zm12,26.8,2.8-2.8v-21.2l-2.8-2.7H650v26.7Z"/><path class="cls-5" d="M666.8,255.29h13l5.3,5.3v8.7l-2.6,3.2L686,276v9.4l-5.3,5.3H669.4v-29.6l1.8-1.1v-.4h-4.4v-4.3Zm11.4,15.3,2.5-2.9v-5.2l-2.7-2.7h-4.2v10.8Zm-4.5,15.7h5.2l2.7-2.7v-5.7l-3.1-2.9h-4.9v11.3Z"/><path class="cls-5" d="M709.2,285.09l-5.3,5.7h-6.8l-5.3-5.7V260l5.3-5.3h6.7l5.3,5.3v25.1Zm-4.3-1.7v-21.7l-2.8-2.8h-3.2l-2.8,2.8v21.7l2.9,3.1h3.2Z"/><path class="cls-5" d="M724.5,272.39l2.9-9.5,2.7-7.7h4.6l-8.1,22.4v13.2h-4.4v-13.2l-6.2-17.1,1.5-.9v-.4h-4.7v-4h5.9l2.7,7.8,2.8,9.4Z"/><rect class="cls-6" x="596.6" y="212.89" width="137.8" height="2.7"/><rect class="cls-6" x="600.1" y="298.89" width="137.8" height="2.7"/><polygon points="309.1 220.29 315.8 220.29 313.1 221.99 315.9 223.69 309.1 223.69 309.1 220.29"/><rect x="309.1" y="220.39" width="0.6" height="9.2"/><polygon points="751 294.59 757.8 294.59 755.1 296.29 757.8 297.99 751 297.99 751 294.59"/><rect x="751" y="294.69" width="0.6" height="9.2"/><polygon points="862.4 365.79 869.2 365.79 866.5 367.39 869.2 369.19 862.4 369.19 862.4 365.79"/><rect x="862.4" y="365.89" width="0.6" height="9.2"/><polygon points="748.1 426.59 754.9 426.59 752.2 428.29 754.9 430.09 748.1 430.09 748.1 426.59"/><rect x="748.1" y="426.69" width="0.6" height="9.2"/><polygon points="570.4 191.09 577.2 191.09 574.4 192.79 577.2 194.49 570.4 194.49 570.4 191.09"/><rect x="570.4" y="191.19" width="0.6" height="9.2"/><polygon points="570.4 346.59 577.2 346.59 574.4 348.29 577.2 349.99 570.4 349.99 570.4 346.59"/><rect x="570.4" y="346.69" width="0.6" height="9.2"/><polygon points="374.8 431.69 381.5 431.69 378.8 433.39 381.6 435.09 374.8 435.09 374.8 431.69"/><rect x="374.8" y="431.79" width="0.6" height="9.2"/><polygon points="368.7 424.59 375.4 424.59 372.7 426.29 375.5 428.09 368.7 428.09 368.7 424.59"/><rect x="368.7" y="424.79" width="0.6" height="9.2"/><polygon points="358.3 424.69 365 424.69 362.3 426.39 365.1 428.09 358.3 428.09 358.3 424.69"/><rect x="358.3" y="424.79" width="0.6" height="9.2"/><polygon points="513 427.39 519.8 427.39 517.1 429.09 519.8 430.79 513 430.79 513 427.39"/><rect x="513" y="427.49" width="0.6" height="9.2"/><polygon points="466.2 439.29 473 439.29 470.2 440.99 473 442.69 466.2 442.69 466.2 439.29"/><rect x="466.2" y="439.39" width="0.6" height="9.2"/><polygon points="452 424.69 458.7 424.69 456 426.39 458.8 428.09 452 428.09 452 424.69"/><rect x="452" y="424.79" width="0.6" height="9.2"/><polygon points="553.9 263.79 560.7 263.79 558 265.39 560.7 267.19 553.9 267.19 553.9 263.79"/><rect x="553.9" y="263.89" width="0.6" height="9.2"/><polygon points="537.1 262.49 543.8 262.49 541.1 264.19 543.9 265.99 537.1 265.99 537.1 262.49"/><rect x="537.1" y="262.59" width="0.6" height="9.2"/><polygon points="519.9 293.89 526.7 293.89 524 295.59 526.7 297.39 519.9 297.39 519.9 293.89"/><rect x="519.9" y="293.99" width="0.6" height="9.2"/><polygon points="496.6 294.69 503.3 294.69 500.6 296.39 503.4 298.09 496.6 298.09 496.6 294.69"/><rect x="496.6" y="294.79" width="0.6" height="9.2"/><polygon points="396.5 282.39 403.3 282.39 400.5 284.09 403.3 285.79 396.5 285.79 396.5 282.39"/><rect x="396.5" y="282.49" width="0.6" height="9.2"/><polygon points="412.8 291.69 419.5 291.69 416.8 293.39 419.6 295.19 412.8 295.19 412.8 291.69"/><rect x="412.8" y="291.79" width="0.6" height="9.2"/><polygon points="384.8 299.29 391.5 299.29 388.8 300.99 391.6 302.79 384.8 302.79 384.8 299.29"/><rect x="384.8" y="299.49" width="0.6" height="9.2"/><polygon points="347.1 341.59 353.8 341.59 351.1 343.29 353.9 344.99 347.1 344.99 347.1 341.59"/><rect x="347.1" y="341.69" width="0.6" height="9.2"/><polygon points="269.8 355.19 276.5 355.19 273.8 356.89 276.6 358.69 269.8 358.69 269.8 355.19"/><rect x="269.8" y="355.29" width="0.6" height="9.2"/><polygon points="159.6 452.89 166.4 452.89 163.7 454.49 166.4 456.29 159.6 456.29 159.6 452.89"/><rect x="159.6" y="452.99" width="0.6" height="9.2"/><polygon points="404.3 317.49 411.1 317.49 408.4 319.19 411.1 320.89 404.3 320.89 404.3 317.49"/><rect x="404.3" y="317.59" width="0.6" height="9.2"/><polygon points="423.8 310.29 430.6 310.29 427.9 311.99 430.6 313.69 423.8 313.69 423.8 310.29"/><rect x="423.8" y="310.39" width="0.6" height="9.2"/><polygon points="386.5 342.99 393.2 342.99 390.5 344.69 393.3 346.39 386.5 346.39 386.5 342.99"/><rect x="386.5" y="343.09" width="0.6" height="9.2"/><polygon points="364.7 312.89 371.5 312.89 368.8 314.59 371.6 316.39 364.7 316.39 364.7 312.89"/><rect x="364.7" y="312.99" width="0.6" height="9.2"/><polygon points="379.1 325.49 385.8 325.49 383.1 327.19 385.9 328.89 379.1 328.89 379.1 325.49"/><rect x="379.1" y="325.59" width="0.6" height="9.2"/><polygon points="412.8 336.99 419.5 336.99 416.8 338.69 419.6 340.49 412.8 340.49 412.8 336.99"/><rect x="412.8" y="337.19" width="0.6" height="9.2"/><polygon points="399.9 302.29 406.7 302.29 403.9 303.89 406.7 305.69 399.9 305.69 399.9 302.29"/><rect x="399.9" y="302.39" width="0.6" height="9.2"/><polygon points="438 288.79 444.7 288.79 442 290.49 444.8 292.19 438 292.19 438 288.79"/><rect x="438" y="288.89" width="0.6" height="9.2"/><polygon points="444.8 320.39 451.5 320.39 448.8 322.09 451.6 323.89 444.8 323.89 444.8 320.39"/><rect x="444.8" y="320.49" width="0.6" height="9.2"/><polygon points="467.4 375.79 474.2 375.79 471.5 377.49 474.2 379.19 467.4 379.19 467.4 375.79"/><rect x="467.4" y="375.89" width="0.6" height="9.2"/><polygon points="493.8 355.29 500.5 355.29 497.8 356.99 500.6 358.69 493.8 358.69 493.8 355.29"/><rect x="493.8" y="355.39" width="0.6" height="9.2"/><polygon points="367.3 359.59 374 359.59 371.3 361.29 374.1 362.99 367.3 362.99 367.3 359.59"/><rect x="367.3" y="359.69" width="0.6" height="9.2"/><polygon points="452 341.79 458.8 341.79 456 343.49 458.8 345.29 452 345.29 452 341.79"/><rect x="452" y="341.99" width="0.6" height="9.2"/><polygon points="350.5 358.69 357.2 358.69 354.5 360.39 357.3 362.19 350.5 362.19 350.5 358.69"/><rect x="350.5" y="358.79" width="0.6" height="9.2"/><polygon points="309.1 314.49 315.8 314.49 313.1 316.19 315.9 317.99 309.1 317.99 309.1 314.49"/><rect x="309.1" y="314.59" width="0.6" height="9.2"/><polygon points="364.7 340.59 371.5 340.59 368.8 342.29 371.6 343.99 364.7 343.99 364.7 340.59"/><rect x="364.7" y="340.69" width="0.6" height="9.2"/><polygon points="350.3 414.09 357.1 414.09 354.4 415.79 357.1 417.49 350.3 417.49 350.3 414.09"/><rect x="350.3" y="414.19" width="0.6" height="9.2"/><polygon points="367.8 406.89 374.5 406.89 371.8 408.59 374.6 410.29 367.8 410.29 367.8 406.89"/><rect x="367.8" y="406.99" width="0.6" height="9.2"/><polygon points="383.7 374.59 390.4 374.59 387.7 376.29 390.5 377.99 383.7 377.99 383.7 374.59"/><rect x="383.7" y="374.69" width="0.6" height="9.2"/><polygon points="346.8 381.09 353.5 381.09 350.8 382.79 353.6 384.59 346.8 384.59 346.8 381.09"/><rect x="346.8" y="381.29" width="0.6" height="9.2"/><polygon points="335 369.89 341.8 369.89 339 371.59 341.8 373.29 335 373.29 335 369.89"/><rect x="335" y="369.99" width="0.6" height="9.2"/><polygon points="451.9 342.29 458.7 342.29 455.9 343.89 458.7 345.69 451.9 345.69 451.9 342.29"/><rect x="451.9" y="342.39" width="0.6" height="9.2"/><polygon points="324.1 351.29 330.9 351.29 328.2 352.89 330.9 354.69 324.1 354.69 324.1 351.29"/><rect x="324.1" y="351.39" width="0.6" height="9.2"/><polygon points="316.8 334.09 323.5 334.09 320.8 335.79 323.6 337.49 316.8 337.49 316.8 334.09"/><rect x="316.8" y="334.19" width="0.6" height="9.2"/><polygon points="338.4 325.09 345.2 325.09 342.4 326.79 345.2 328.49 338.4 328.49 338.4 325.09"/><rect x="338.4" y="325.19" width="0.6" height="9.2"/><polygon points="346.8 305.79 353.5 305.79 350.8 307.39 353.6 309.19 346.8 309.19 346.8 305.79"/><rect x="346.8" y="305.89" width="0.6" height="9.2"/><polygon points="327.7 302.79 334.4 302.79 331.7 304.49 334.5 306.19 327.7 306.19 327.7 302.79"/><rect x="327.7" y="302.89" width="0.6" height="9.2"/><polygon points="363.8 287.09 370.6 287.09 367.9 288.79 370.7 290.49 363.8 290.49 363.8 287.09"/><rect x="363.8" y="287.19" width="0.6" height="9.2"/><polygon points="410 363.39 416.7 363.39 414 365.09 416.8 366.79 410 366.79 410 363.39"/><rect x="410" y="363.49" width="0.6" height="9.2"/><polygon points="509.4 251.19 516.2 251.19 513.5 252.89 516.2 254.59 509.4 254.59 509.4 251.19"/><rect x="509.4" y="251.29" width="0.6" height="9.2"/><polygon points="422.7 412.49 429.5 412.49 426.8 414.19 429.6 415.89 422.7 415.89 422.7 412.49"/><rect x="422.7" y="412.59" width="0.6" height="9.2"/><polygon points="402.6 427.89 409.4 427.89 406.7 429.59 409.4 431.39 402.6 431.39 402.6 427.89"/><rect x="402.6" y="428.09" width="0.6" height="9.2"/><polygon points="399.2 402.79 406 402.79 403.3 404.49 406 406.29 399.2 406.29 399.2 402.79"/><rect x="399.2" y="402.99" width="0.6" height="9.2"/><polygon points="757.8 425.39 764.5 425.39 761.8 427.09 764.6 428.79 757.8 428.79 757.8 425.39"/><rect x="757.8" y="425.49" width="0.6" height="9.2"/><polygon points="429.3 348.29 436 348.29 433.3 349.99 436.1 351.69 429.3 351.69 429.3 348.29"/><rect x="429.3" y="348.39" width="0.6" height="9.2"/><polygon points="429.3 366.89 436 366.89 433.3 368.59 436.1 370.39 429.3 370.39 429.3 366.89"/><rect x="429.3" y="367.09" width="0.6" height="9.2"/><polygon points="20.7 210.79 25.3 210.79 23.5 211.89 25.3 213.19 20.7 213.19 20.7 210.79"/><rect x="20.7" y="210.89" width="0.4" height="6.2"/><polygon points="305.7 403.09 312.4 403.09 309.7 404.79 312.5 406.59 305.7 406.59 305.7 403.09"/><rect x="305.7" y="403.29" width="0.6" height="9.2"/><polygon points="333.4 387.69 340.1 387.69 337.4 389.39 340.2 391.19 333.4 391.19 333.4 387.69"/><rect x="333.4" y="387.89" width="0.6" height="9.2"/><polygon points="323.6 418.89 330.3 418.89 327.6 420.59 330.4 422.39 323.6 422.39 323.6 418.89"/><rect x="323.6" y="419.09" width="0.6" height="9.2"/><polygon points="320.2 476.59 326.9 476.59 324.2 478.29 327 480.09 320.2 480.09 320.2 476.59"/><rect x="320.2" y="476.79" width="0.6" height="9.2"/><rect class="cls-7" x="1" y="87.59" width="184.3" height="206.3"/><path d="M32.7,129.59l-2.9,3.1H26.1l-2.9-3.1v-13.5l2.9-2.9h3.7l2.9,2.9Zm-2.3-.9V117l-1.5-1.5H27.2L25.7,117v11.7l1.6,1.7H29Z"/><path d="M38.8,113.39v16.9h4.1v-2h2.3v4.3H36.5v-16l1-.6v-.2H35.2v-2.3Z"/><path d="M46.8,115.79v-2.3h7.5l2.9,2.9v13.3l-2.9,2.9H48.2v-16l1-.6v-.2Zm6.5,14.4,1.5-1.5v-11.4l-1.5-1.5H50.5v14.4Z"/><path d="M59.6,113.39h7l2.9,2.9V121l-1.4,1.7,1.9,1.9v5.1l-2.9,2.9H61v-16l1-.6v-.2H59.7Zm6.1,8.3,1.4-1.6v-2.8l-1.5-1.5H63.3v5.9Zm-2.4,8.5h2.8l1.5-1.5v-3.1L66,124H63.3Z"/><path d="M82.5,129.49l-2.9,3.1H75.9l-2.9-3.1V116l2.9-2.9h3.7l2.9,2.9Zm-2.3-.9v-11.7l-1.5-1.5H77l-1.5,1.5v11.7l1.6,1.7h1.7Z"/><path d="M90.7,122.59l1.5-5.1,1.4-4.1h2.5l-4.4,12.1v7.1H89.4v-7.1l-3.4-9.2.8-.5v-.2H84.3v-2.2h3.2l1.5,4.2,1.5,5.1Z"/><path d="M102.3,132.49v-2.1h2.1v-14.1l1-.6v-.2h-2.8v-2.1h6v2.1h-1.8v14.9h2.1v2.1Z"/><path d="M110.1,113.39h4.5l2.2,6.8,2.1,8h.1l-.5-8.1v-6.7h2.3v19.1h-2.5l-3-9.4-1.7-6.3h-.1l.3,6.5v9.2h-2.3v-16l1-.6v-.2h-2.3Z"/><path d="M131.5,113.29v15.3l1.5,1.6h1.5l1.5-1.6v-15.3h2.3v16.2l-2.7,3.1H132l-2.8-3.1v-13.3l1-.6v-.2h-2.3v-2.1Z"/><path d="M143,132.39h-2.3V130H143Z"/><path d="M147.6,128.59l1.5,1.6h1.7l1.5-1.6v-3l-6.9-4.8V116l2.7-2.9h3.6l2.7,2.9v2.9h-2.3v-2l-1.4-1.5h-1.6l-1.4,1.5v2.7l6.9,4.8v5.2l-2.8,3h-3.7l-2.8-3v-3.5h2.3Z"/><path d="M159.1,132.39h-2.3V130h2.3Z"/><path d="M161.9,113.19h6l2.9,19.1h-2.3l-.7-5h-4l-.7,5h-2.3l2.3-16,1-.6v-.2h-2Zm4,2.3h-.5L164,125h3.3Z"/><polygon points="266.4 428.19 273.1 428.19 270.4 429.89 273.2 431.69 266.4 431.69 266.4 428.19"/><rect x="266.4" y="428.39" width="0.6" height="9.2"/><polygon points="296.85 365.44 303.65 365.44 300.95 367.04 303.65 368.84 296.85 368.84 296.85 365.44"/><rect x="296.85" y="365.54" width="0.6" height="9.2"/><polygon points="359.9 435.81 366.6 435.81 363.9 437.51 366.7 439.21 359.9 439.21 359.9 435.81"/><rect x="359.9" y="435.91" width="0.6" height="9.2"/></svg>