<?xml version="1.0" encoding="utf-8"?>
<!-- Generator: Adobe Illustrator 21.0.0, SVG Export Plug-In . SVG Version: 6.00 Build 0)  -->
<svg version="1.1" id="Layer_1" xmlns="http://www.w3.org/2000/svg" xmlns:xlink="http://www.w3.org/1999/xlink" x="0px" y="0px"
	 viewBox="0 0 868 517" style="enable-background:new 0 0 868 517;" xml:space="preserve">
<style type="text/css">
	.st0{fill:#D89F4C;stroke:#FFFFFF;}
	.st1{fill:#E9D2A8;stroke:#FFFFFF;}
	.st2{fill:#B9B9B9;stroke:#FFFFFF;}
	.st3{fill:#FFFEFD;}
	.st4{fill:#FFFFFF;}
</style>
<title>Монтажная область 1</title>
<g id="Слой_2">
	<path id="path3803" class="st0" d="M285.1,449.2l-2.5,0.1l-1.5-1.4l-1.4-2.5l-2.6-1.5l-2.7,0.3l-1.7,0.2l-1.7,0.8l-1.8,1.1
		l-0.6,1.9l-1-0.8l0.3-1.7l0.8-2.3v-1l-3-0.2l-1-1.7h-1.5l-0.3-1.7l-0.8-2.2l-1.3-2.5l-1.8-0.5l-0.7-2.7l2.5,0.5l3,0.5l-0.8-1.8
		l2.5-3.5l0.5,2.3l1-2h3.2l0.7,1.3l3-0.7l-1.5,1.8l-1,2.2l0.3,1.2l1.5-1.5l1.7-2.2l3.5,0.2l-0.5-3l-1.5-1.5l-2-1.2l-0.7-2.3l-2.3-3
		l-2-2.5h-4l-4.2-0.3l-2.8,1.7l-2.8,0.8l-1.7,1.7l-1,2l-1.7,1.5l0.3-2.5l2-2.7l-1.2-2l-3.2-2.7l-1-1.2l-3-3l-1.7-2.8l0.3-2.3
		l1.2-4.3l1-6.5l5.2,3.7l0.8-2.5l-0.8-2.3l1.5-2l0.3-2.5l2.8-0.3l3.8-2.2l0.5-1.7l3,1l-0.5,2.2l2.2-1.5l2.3,0.2l2.7-0.8l2.8,0.8
		l3.3,3.3l0.7,3.3l1.2-1.8l1.5-0.3l2.2,1.5l2.2,0.3l2.2-2.5h3.5l1.8,1.2l3.8-1l1.5,2.5l2.8,1.5l2.8-1.7l2.8,1.3l4.2-5l-2-1.3
		l-3.8-0.7l-0.3-2l-1.8-1.2l3.8-1.7v-4l-0.5-0.8l2-0.3l4,0.5l-2.2-3.5l-1.2-1.5l2.3-1.2l-2.7-1.3l1.2-2.7l2.8,0.7l6.8-1l3.2-0.7
		l3,0.3l4-3.7l7.2-0.7l2.5-1.2l3.5-3.5l2.7,1l2.7,0.3l1.8,0.5l0.8,2.7l1.3,2.3l-0.5,3.2l2.2,1.7l0.7-1.7l3.2,0.5l0.2,1.5l2.3-0.8
		l0.5,1l0.3,2.5h4l1.8,0.3l1.8-2.3l2-0.3l2.5-4.7l3-0.2l-1.5,2.7l5.3,6.5l5.8,5.8l3.5,7l1.3,3.7l3.3-3.8l1.8,1l0.8,1.5l1.8,2.2
		l3.3-0.2l3-1l2.7,0.3l1.7,3.8l1.2,1.8l2.5-0.2l2.2,3l2.3-0.3l2.5-1.3l1.3,2.5l-0.7,1.5l-0.3,3.3l-2.5,1.2l-2.8,0.7v5.5l-0.8,3.5
		l-3.7,1l-2.3-0.8l-3-0.3l-2.5,3.8l-2.2,5.2l1.3,3.5l-1.3,1.2l-4.5-0.5l-5.3,1.5l1.8,2.5l-1.2,1.8l1,2.7v3.7l-0.7,2l-0.2,2.3
		l-2.9,0.1l-2.9-3.6l-1.7-0.8l-1,0.2l-10,1l-1.8-0.2l-2.5-0.5l-1.7-1.2l-1.9-0.1l-2,1.3l0.1,2.4l-0.7,1.4l-2.8-1.2l-2.3,0.2
		l-4.3-0.4l-1.6,1.9l1.1,1.4l-1.9,1.3l-1-0.8l-2.5,1.3l-3.8,0.7l-2.1,2.5l-2.1,5.1l-2.4-0.9l-1.1-1.4l-4-0.9l-3.7-0.2l-2.7-1.8
		l1.8-1.4l0.3-1.6l-1-2.4l-1-5.1l-2.9-2.8l-3.5,0.6l-3.3-1.3l-4.8,0.4l-3.8-2.9l1.7-0.8l-1.2-3.2l2.3-0.3l1.2-1.8l-1.3-0.8l-1.8-3.3
		l0.3-2.8l1.3-2.5l-0.7-1.3l-1.5,0.5l-0.2,1.2l-1.8-1.2v1.2l-1.8-1.2l-0.2,2.5l2.5,0.7l-2.7,0.7l-1.8-0.8l-0.2,2.5h-1.5l-1.3-0.5
		l-1.1,1.3l-10.8,2.3L285.1,449.2z"/>
	<path id="path3807" class="st1" d="M244.6,463.2v-2.2c0,0-0.3-2.3,0.3-1.8c0.5,0.4,0.9,0.8,1.3,1.2l0.3-2.2l-1.2-1.5l-2.2-1v2.3
		l-1.3,0.7l-0.7-2l-0.7-1.8l-1.3-0.5l-2.5-2l-0.3-2.5l4.5,1.7l1.3-1.5l-1.5-1.3l-1.2-2.2l1.2-0.3l3.8,1l2.7,2.5l1.8,0.7l2-2.2l3,3.2
		l1.3,2.7l3.2,1.7l-3.2,2.7l-0.7,3.3l-0.5,2l-1.7,0.5l0.5,4.1l-3.3-3l1.6-2.4l-1.2-0.8l0.8-1.3l-1.3-1.3L244.6,463.2z"/>
	<path id="path3809" class="st1" d="M234.6,458.8l-1.7-1.6l-2-0.5v-2.7l-0.3-2l-1.5-2l7.3-0.2l0.3,2.5l2.5,2l1.3,0.5l1.3,3.8
		l1.3-0.7v-2.3l2.2,1l1.2,1.5l-0.3,2.2l-1.3-1.2l-0.3,4l-0.7,0.8l-1.6-0.5l-1.5-1.8l-2.1-1.6l-1.7-1.2l-1.3-0.2L234.6,458.8z"/>
	<path id="path3811" class="st1" d="M229.1,450.1l-2-0.5l-0.7-2l-3.2,1.3l-1.8-0.5l-0.7-3.8l-1.3-2.3l-3.3-1l-2-1.8l-1.5-1.7
		l3.7-0.2h4.2l3.7,2l3.3,1l2.7,0.3l2.7,2.2l2.2-0.2l3.3,0.3l1.8,2.8l-0.5,0.5l1.2,2.2l1.5,1.3l-1.3,1.5l-4-1.5l-1.3-0.5L229.1,450.1
		L229.1,450.1z"/>
	<path id="path3813" class="st1" d="M235.1,472.4l-2.2,0.3l-1.7-0.5l-2.8,0.8h-2.2l-3,2.7l-2,2.2l-0.3,4l-0.3,3.5l-0.8,2.2l-10.3,7
		l0.5,1.2l0.2,4.2l0.8,0.2l0.2,0.8l7.7,0.8l16.7,13.8l6.8,0.3l5-4.3l4.6-0.5l-2.5-2l0.1-2.8l-2.1-2.2l1-3.5l-4-4l-3.3-0.5l-2.3-6.5
		l0.5-3.8l2-2.3l-0.4-3.8l-1.6-0.7l-2.3-2v-2.5L235.1,472.4L235.1,472.4z"/>
	<path id="path3815" class="st1" d="M223.3,473.1l-1.3,1.5l-4-0.3l-5.7,2l-3.7-1.5l-4.8,1.5l-1.7-1.5l-1.7,0.8v2.5l-3.3,3.2
		l-1.5,2.2l0.8,0.2l0.5,4.2h2l0.5,1.8l-1.8,1.3l-0.3,2l-0.8,1l-0.3,3.2l1.8,1.2l0.7,1.3l2.2-0.2l3-1.3l16-10.5l0.8-2.2l0.3-7
		l4.8-4.8l-1.3-0.5L223.3,473.1z"/>
	<path id="path3819" class="st1" d="M196.4,493.9l-2.2-0.5l0.7-2.3l1-1.7l1-1.7h1.5l1,1.8l-1.8,1.3l-0.3,2L196.4,493.9z"/>
	<path id="path3821" class="st1" d="M196.1,497.1l-0.5,1.5l-1.7-0.2l-0.2,2.2l-0.3,2.5l1.2,0.8l-0.7,2.8l-0.7,7.5l6,2.2l2.3-3.3
		l2-0.5l1.7-1.7v-1l1.2-0.2v-0.7l-3.8-3.5v-1.2l8.7-3.2l-0.3-1.2l-0.8-0.2l-0.2-4.2l-0.5-1.2l-8.7,4.8l-2.2,0.2l-0.7-1.3
		L196.1,497.1z"/>
	<path id="path3837" class="st1" d="M192.9,514.8l-0.8-4.8l-1.8-4.2l0.6-1.1l0.3-1.8l0.1-2.5l1.3-0.9l0.2-2.4l0.8-1.8l0.8-2l2,0.8
		l-0.3,3.3l-0.3,1.2l-1.7,0.1l-0.7,4.5l1.1,0.8l-0.5,2.4l-0.7,8.2L192.9,514.8L192.9,514.8z"/>
	<path id="path3839" class="st1" d="M221.7,448.9l-2.5,2.6l-1,0.1l-3.1,1.4l-1.5-0.4l-2.5-0.3l-3.4,1.1l-2.4-0.4l-2.4-0.6l-0.5,0.4
		l-2.9-1.5l-1.6-0.4l-0.8-1.9l-2.8-0.3l-1.4-1.7l-3,0.4l-7.9,0.1l-1.9,2.1l-2.5,1.3l-0.6,1.8l-3.4-0.1l-5.8-0.5l-0.9,0.3l-2.8-1.5
		l-2.4-1.8l0.1-2.3l-3.8-0.5l-1.9,1.3l-0.3,2.5l-1.1,2.6l-1.5,1.1l0.4,1.3l3.1,0.1l1.5,0.1l2-2.5l2.5,0.3l2.4-0.3l1.4-0.1l0.8,1
		l0.9,0.9l0.8,0.4l-3,0.5l1,1.6l-2.1-0.3l-2.9-0.1l-1.8-0.8H157l-2,0.4l-0.6,1.4l0.6,2.3l-0.5,1.5l2.1,0.1l0.9-0.1l-0.4,2.3l0.9,1.4
		v1.8l-0.8,0.8l-1.3-1.1l-0.6,1.1l0.4,1.3l1.6,0.3l2,1l-1.3,1.4l1.5,0.6l0.5,1.6l-0.8,1l2.1,0.4l2-0.1l-1.8,1.5l1.4,1.1l0.6-0.9
		l1.8-0.5l0.9,1.1l1.9,1.5l2.3,0.6l3.5-0.4l0.4-2.5h2.3l2.8,1.1l1.9,1.5l0.9,0.9h5.1l2.1-1.4l2.3-2.1h2l0.5,1l2-0.3l1.5-2l0.4,1.5
		l-1.1,1.5l0.3,2.8l3.3-3.2v-2.5l1.7-0.8l1.7,1.5l4.8-1.5l3.4,1.5l5.6-1.9l4.3,0.3l1.3-1.5l2.1,0.3l1.5-0.4l1.9,0.1l2.9-0.9l1.3,0.5
		l2.2-0.3l-1.6-3.8l0.1-3.8l-0.5-3l1.5-3l-1.7-1.6l-2-0.5l-0.3-4.7l-1.5-2l-2-0.5l-0.7-2l-3.2,1.3L221.7,448.9L221.7,448.9z"/>
	<path id="path3841" class="st0" d="M180.7,486.2l1.9-1.2h1.8l1.3-0.9h2l3.1-1.9l0.4,1l-2.7,2l-0.1,1.3l0.3,1l-1.6,0.4l-1.9-0.1
		l-1.3,0.3l-1.1,0.5l-1.3-0.2l-0.4-1.3L180.7,486.2z"/>
	<path id="path3881" class="st0" d="M179.8,381.1l-3.9,1.2l-1.8,3.4l-0.3,2.5l-2.5-1.3l-2.3-0.5l-1.6-0.6l-1.4,0.8l-5.3-0.8
		l-2.8-0.8H155l-6.4-0.6l-3.3,1.6l-1.3,0.9l1.3,3.4l0.8,2.9l-0.6,2l-2.9,1.9l-1.8,2.4l-0.5,1.6l-2,0.4l-0.8,4.8l2.5,3.8l1.5-1
		l3.3,0.9l3,0.4l1.5,0.8l2.4-1.3l2.3-0.3l3-1.6l2-1.1l1.6-0.6l2.9,1.4l3.1,0.8l1.5,1.5l1.1,3l1.4,2l0.1,4.3l-1.9,1l-1.4,0.4
		l-0.6,2.4l-1.3,0.9l-2.1,0.1v1.5l1.8,1.6l1.8-0.9l1.5-0.3l1.6-0.5l2.5-1.1l0.3-1.8l0.1-1.4l3-1l2.9-0.8l1.1-0.3v2.6l1.4,1.3
		l2.5-0.4l2.1,0.5l0.8,0.4l-1.6,1.3l-2.5,1.4l0.1,0.8l2.4,1.4l0.9,0.4v3.3l1,1.5l3.8-1.3l2.4-1.6l1.8-1.4l2.4-0.3l1-0.9l-2-0.4
		l-2.3-0.1h-1.5l-0.4-1.3l-1.1-1.8l-1.3-0.6l-1-1h1.9l2.3-0.5l2.3-2l3-0.9l2.3-0.6l2.4-1.1l2.3-1.8l3.5-0.1l-0.8-2l2.8-1.5l1.6-1.8
		h2.3l2-2.8l-1.7-3l1-4.6l-2.3-0.6l-1-1.3l-1.2,0.2l-2.3-1.8l-2.3-1l-1.5-2l-2.5,1.5l-2.8-1.2l-3.5,0.3l-2.2-5.7l-3-0.2l-0.7-5
		l-2-2.7L179.8,381.1z"/>
	<path id="path3883" class="st1" d="M157.9,407.4l0.6,1.1l1.3,2.1l1.9,1.6l1.5,3l0.5,2.8l-0.1,4.9v0.6l2.1-0.1l1.3-0.9l0.6-2.4
		l3.3-1.4l-0.1-4.3l-1.4-2l-1.1-3l-1.5-1.5l-2.8-0.8l-3.3-1.4L157.9,407.4z"/>
	<path id="path3885" class="st1" d="M139.9,410.2l-0.5,1.6L137,413l-1.1,1.1l-0.8,1.9l-1,3l-2,1.6l-3,0.6l1.5,2.6l1.9,2.3l1.5,0.8
		l0.5,1.5l1.8,2.3l2,0.5l1.5-0.4l-0.4,1.8l1,1.6l0.5,1.4l5.8,0.8h3.8l1.9,0.3l4.5-1.6l1.6-1.3l2.5,0.9l0.8,0.3h1.1l0.8,1.3l1.4,0.3
		l1.1-4.1l0.4-2l0.8,1.5l1.9-1.1l0.6-2.1l-0.3-2.6l-1.3,0.3l-1.6,0.1l-1.3,0.6l-1.8-1.6v-7.8l-0.8-2.3l-1.1-2.8l-1.9-1.6l-1.9-3.3
		l-3.9,1.9l-2.3,0.3l-2.4,1.3l-1.5-0.8l-4.1-0.5l-2.1-0.8L139.9,410.2z"/>
	<path id="path3887" class="st1" d="M157.1,447.4l-1.9-0.4l-0.4,2l-1.9,0.9l-3.1-0.1l-2.4-1l-1.6-0.4l-2.5,1.4h-1.6l-0.3-3.5l-2-1.3
		l-0.5-1l0.5-3.8l1.4-1.1l-1.4-3l0.4-2.6l1,1.9l2.8,0.4l5.1,0.4h1.6l1.9,0.3l3-0.9l1.5-0.8l1.6-1.3l2.9,1.3l1.5-0.1l0.8,1.3l1.4,0.3
		l0.1,2.9l-2.1,0.1l-0.6,0.6l-0.1,3l-1.5,1l-0.8,1.1l1.8,0.1l0.6,1.9l-2.9-0.5L157.1,447.4z"/>
	<g id="g7374">
		<path id="path3889" class="st1" d="M140.7,450.6l-2.8,0.8l-1.1-0.3l-1.3,1.5l-3.3,0.4l-0.6,3l-1.5,2.3l-0.3,1.3l-4,0.5l1.5,2.9
			l0.9-1.6l1.1,2l1.4,0.8l0.4,1.5l-1.3,0.9l1.8,0.3l0.9,1.6l2.1-0.1l3.8,0.1l1.9,1.4h-1.9l-2.4-1l-2.5,0.4l-1.6,1.4l-1.1-1.4
			l-1.3-1.3l-0.6,1.5l1.3,1.1h0.6l-0.5,1.5l1.5,0.3l0.6-0.8l0.3-0.8l1.4,1.8l0.3,1.4l0.4,1.4l0.8,1.9l0.4-1.6l1.9,1.1l0.5,2
			c0,0,0.9-2,1.3-1.5s1.8,2.3,1.8,1.8s-0.5-3.5-0.5-3.5l-1.9-2.1l1.6-0.6l1.1,1l1.1-0.8l-1.5-1.5l1.9-0.4l2.3,1.4l0.4-2.5l1-1.4
			l-0.6-1.5l-1.3-0.9l-2.5-0.5l-1.1-1l-0.1,1.5l-1.4-0.8l0.8-1.4l-0.1-1.8l-0.4-1.8l-0.9-1.5l0.6-3.8l1.4,0.8l0.8,2.3l1.6,0.6l1-2.1
			l-0.5-2l1.8,0.4l1.9-1.6l0.9,1l1.1-1.4l2.1,1.1l2-0.1l1.5-1.1l1.1-2.6l0.3-2.5l-1.4-0.6l-0.4,2l-1.9,0.9l-3.1-0.1l-2.4-1l-1.6-0.4
			l-2,1.5l-2.1-0.1L140.7,450.6z"/>
		<path id="path3891" class="st1" d="M142.6,483.7l1.9,1.3h2l1.6,1.3h2.3l2.9-0.1l2.4-1.1l1.9-1.1l1.6,0.1l0.6-1.4l1.5-1.8l1.1,0.5
			l1.3-2.1l-1.1-0.9l-1.8,1.5l-0.4,1.3l-1,1l-1.6,0.5l-0.9,1.1l-1.8,0.9l-1.3,0.6l-1.1-0.6l-1.9-0.5l-1.9-0.1l-1.1-0.4l-1.3-0.8
			l-1.4,0.5l-2.1-0.4L142.6,483.7z"/>
	</g>
	<path id="path3893" class="st2" d="M153,462.7l1,1.1l1.3,0.8l1.1-1.1l-1.4-1.4L153,462.7z"/>
	<path id="path3895" class="st2" d="M153,466.4l-0.3,2.4l2,0.5l0.6-1.6l-1-1.5L153,466.4z"/>
	<path id="path3897" class="st2" d="M149.5,458.7l-0.4,1.8h1.8l0.8-1.3L149.5,458.7z"/>
	<path id="path3899" class="st1" d="M132.4,452.9l-1.8-2.2l0.3-3l1-1.2l0.5-1.5l2.2-0.2l2-1.5l1.5,0.7h0.9l1.1,1.3l1.4,0.9l0.3,3.5
		l-1,0.8l-2.3,0.5h-1.6l-1.8,1.7L132.4,452.9z"/>
	<path id="path3901" class="st1" d="M126.6,459.4v-1l-1.2-1.7l-0.3-3.7l0.2-2.2l0.2-1.2l0.3-1.7l-0.3-0.5l0.5-4.7h2.5l1.3,1.2
		l1.3,1.2l-0.2,2.5l-0.2,2l0.3,1.7l1.3,1.5l-0.6,1.8v1.2l-1.1,2l-0.6,1.5L126.6,459.4z"/>
	<path id="path3903" class="st1" d="M125.5,448.1l-1.3-1.1l-2-1.6l-0.5-2.6l0.5-2.5l1.8-1.6l1-1.6l0.5-0.5l1.3,1.1l2.3,2.1l-1.1,3
		l-1.9-0.3L125.5,448.1z"/>
	<path id="path3905" class="st0" d="M126.1,435.8l-0.6-3l-0.4-3.3l-0.1-2.6l0.3-1.5l-1.4-2.6l2.4-1.4l2.8,0.1l2.9,4l2.1,1.3l1.1,2.1
		l1.1,1.6l2,0.5l1.5-0.4l-0.4,1.8l0.6,1.5l-0.5,2.3l1.4,3l-1.4,2l-0.5,2.9l-1.4-0.1l-1.4-0.5l-1.6,1.5l-2.2,0.2l-1.5,2.4l0.1-2.2
		l-1.5-1.5l-1.8-1l1.1-3l-2.3-2.1l-1.3-1.1L126.1,435.8L126.1,435.8z"/>
	<path id="path3907" class="st1" d="M118.7,441.2l-1.4,0.5v-2l-1.6-2.9l-2.9-1.9l-1-2.8l-1.1-2.3l-0.8-1.6l0.5-1.4l2.1,0.9l1-0.9
		l3.3,0.6l1.3,0.8l1.8-0.5l1.6,0.4l2,1.6l1.6-0.3l0.4,3.6l0.6,2.6L125,437l-1.3,2.1l-1.5,1.1l-0.5,2.5l-1.3-0.1L118.7,441.2z"/>
	<path id="path3909" class="st1" d="M107.4,425.3l-3.1-0.3l-2.9,0.3l-1,1.3l-1,1l2.3,2.5l0.1-2.3l1-0.6l2,1.5l0.6,1.4l1.1,0.4
		c0,0-1.9,1.4-1.5,1.5c0.7,0.4,1.4,0.8,2,1.3l-0.4,1l-0.1,0.8l1.5,1.6l1.5,1.1l0.6,1.5l1.8-0.8l1.6,0.3l1.3,1l0.4,1.5l0.9,0.4
		l1.3,0.8l1.3,0.9l1.4,1l1.4,1l1,0.1l-1-2.3l-0.8-0.5l-1.8-1.3l-1,0.6l-0.4-2.1l-1.6-2.9l-2.9-1.9l-2.9-6.6l0.5-1.4l2.1,0.9l1-0.9
		l3.8,0.9l0.8,0.5l1.8-0.5l1.3,0.3l2.4,1.8l1.6-0.3L125,427l0.3-1.5l-1.4-2.6h-5.8l-3.9-3.4l-1.8-0.8l-1.9,1.6l-1,1.3l-1.9,2.9
		L107.4,425.3z"/>
	<path id="path3911" class="st1" d="M116.7,409.1l-1.1,0.3l-0.5,2.3l-1.8,0.4l-1,3l-1,1.6l1.1,2.1l1.8,0.4l3.9,3.8h5.8l2.4-1.4
		l2.8,0.1l3.1-1l2-1.6l1.8-4.9l1.3-1.5l2.3-1.1l0.8-1.6l-2.5-3.8l-1.5,0.3l-5-0.4l-1.8,1.3l-1.6,0.8l-3.5,0.6l-1.3,2l-2.5,0.3
		l-2.9-0.1L116.7,409.1z"/>
	<path id="path3913" class="st1" d="M100.9,425.1l-0.4-1.8l-1-2.1l0.8-2.5l2.1,0.4l2.1,0.4l2.9-1.3l1.6-1.1l2.4-0.5l1.1,2.1
		l-1.9,1.6l-2.9,4.1l-0.4,0.9l-2.5-0.1l-2.9,0.1L100.9,425.1z"/>
	<path id="path3915" class="st1" d="M115.6,409.3l-1-0.9l0.4-1.8l-0.3-1.4l-0.3-1.4l1-1l3-0.4l2.9-1.9l0.9-1.3l0.1-1.5l1.8,2.1
		l2.1-0.9l1.8,1.4l1.9-0.3h1.4l2.3-0.4l1.4-0.6l1.8,1.3l1.8,1.4l-0.8,4.1l-1.5,0.3l-2.8-0.4h-2.3l-1.8,1.3l-1.6,0.8l-3.5,0.6l-1.3,2
		l-5.4,0.1l-0.8-1.3L115.6,409.3z"/>
	<path id="path3917" class="st0" d="M144.5,386.7l-0.4-1.8l0.5-3l-1.6-0.9l0.6-2l1.5-1.8l0.1-3.3l-1.3-4.1l3.3-0.8l0.6-1.6l3.1-1.9
		h1.1l1-4.1l4-3l-0.4-2.4l1.4-1.3l1.8-0.9l2.5,0.1l1.1-2l1-1l0.6,0.9l5.4,0.5l1.1,1.8l3.5-0.5l1.3,6.3l1.5,5l2.3,2.3l0.2,2l2,2.1
		l-0.9,3l-3.3-0.2l1.5,6.5l-3.9,1.2l-1.8,3.4l-0.3,2.5l-2.1-1.1l-2.6-0.6l-1.6-0.6l-1.4,0.8l-5.3-0.8l-2.4-0.8l-2.8,0.1l-7.1-0.8
		L144.5,386.7L144.5,386.7z"/>
	<path id="path3919" class="st1" d="M162.2,337.8l-1.4,1.6l-2.4-0.4l-2.3,0.5l-4.5-3.4l-4,0.9l-0.9,0.1v-2.5h-1l-0.6,1.6l-1.5-1.9
		l-1.1-1.9l-1.4,0.6l-0.4,1.6l-2,1.1l-1.3,0.5l-0.6,1.5l-0.8-1.6l-0.6-1.8l0.8-1.4h1.6l0.4-1.3l-0.8-1.3l-1.5-0.3l0.9-0.8l2.4-0.9
		l1.1,1.3l-1.3,1.8l-0.1,0.9l1.3-0.1l1.3-0.1l0.9-0.9l-0.4-1.4l-0.9-0.5l1.4-1.6l1.4-1.5l1.8-0.4l2.3-1.9l0.8,0.6l2.9,0.1l1.4-0.9
		l1.9,0.8l2.6,0.5l2.3,0.4l2.2-0.3l0.3,2.7l-2.8,2.8l2.3,5.8L162.2,337.8z"/>
	<path id="path3921" class="st1" d="M145.2,346.3l-3.3,0.3l-1.1-2.6l-1.8-2.1l-1-1.5l-3.9,1.9l-0.9,2.5l-0.4,2.5l-1.1,2.3v3.3l4-2.5
		l9.9-0.4l1.9,0.4l1.5-0.5l1.6,1.8l3,1l3,3.8l1.4-1.3l1.8-0.9l2.5,0.1l1.1-2l1-1l-0.5-1.1l0-4.3l0-4.1l-0.8-3.2l-0.9-0.8l-0.9,1.6
		l-2.9-0.4l-2.3,0.5l-4.5-3.4l-4.9,1l-0.4,6l-0.4,2.6L145.2,346.3z"/>
	<path id="path3923" class="st1" d="M131.6,353.9l0.6,2l0.4,2.1l1.1,0.5l1.5,1l2.6,1l2.8,0.5l0.4,2.4l-0.1,1.6l1.9,1.4l0.9,1.8
		l0.4,1.8l3.3-0.8l0.6-1.6l3.1-1.9h1.1l1-4.1l4-3l-0.4-2.4l-3-3.8l-3-1l-1.6-1.8l-1.5,0.5l-1.9-0.4l-9.4,0.5l-4.5,2.4L131.6,353.9z"
		/>
	<path id="path3925" class="st1" d="M121.6,396.2l-3.1-0.6l0.9-1.8l-0.8-0.9l-1.4,0.8l-2.5-0.4l-0.5,1.4l-1.6-1.5l0.3-1.1l-3.1-0.1
		l-2-0.4l-0.8-1.3l-0.9-0.8l0.1-2.9l-1-2.3l-0.5-4.9l-0.3-1.3l-1.3-1.8l0.1-1.6l0.1-1.3l-1.5-2.6v-0.8l0.8-1l1.5,0.6l-0.5,1.1
		l0.4,0.9l-0.2-0.9l0.8-2.1l2.5-1l3.1-0.9l1.9-1.8l2.6-1.3l3.9-0.5l2.3-0.3l1.5,1.4H121l0.9,1.3l2.1,1l0.9,0.1l2.6-2h2.6l2.5-0.1
		l3.6,1.3l3.8,0.1l1-0.9l1.8,1l0.9,1.8l0.4,1.8l1.3,4.1l-0.1,3.3l-1.5,1.8l-0.6,2l1.5,1.3l-0.4,2.3l0.4,2.1l-0.6,0.6l1.9,4.4
		l0.4,1.9l-0.6,1.5l-2.5,1.8l-2.1,2.5l-0.5,1.6l-2.4,0.6l-2.6-2.1h-1.1l-1.8,0.8l-1.9-0.1l-2.6,0.5l-1.8-1.4l-2.1,0.9l-1.8-2.1
		L121.6,396.2z"/>
	<path id="path3927" class="st1" d="M112.7,404.2l-1.1-0.1l-1.5-0.9l-3.5-0.5l-0.3,1.8l-2.1,1.1l-2.8-1l-5-4.8l-1-1.8l0.1-1.8
		l-1.1-2.4l2.6-0.3l2.6-1.5l2.1-1.3l1.3-0.1l0.4-1.8l0.9,0.1l1.4,1.6l0.4-1.3l1.1,1.4l0.5,0.6l5.1,0.5l-0.3,1.1l1.6,1.5l0.5-1.4
		l2.5,0.4l1.4-0.8l0.8,0.9l-0.5,1.9l2.8,0.5l0.8,1.8l-0.1,1.5l-0.9,1.3l-2.9,1.9l-3,0.4l-1,1L112.7,404.2z"/>
	<path id="path3929" class="st1" d="M100.4,405.8l-3,2.8l0.5,2.1l-0.6,1l-3-0.3l-2.6,1.1l-1.3-0.3l-0.8,1l-1.9-0.8l-2,0.3l-1.1,0.3
		h-1.4v1.6l0.8,0.6l1.1,0.5l0.9-0.1l1.4,0.6l-0.1,0.8H89l2-0.6l1.6-0.5l1.1-0.9l1.3,0.1l0.9,1v1.3l1.8,0.1l2,0.5l1.1,0.6l3.8,0.8
		l3.3-1.5l1.3-0.9l2-0.4l1.4-1.8l1-3l1.8-0.4l0.5-2.3l-1-0.9l0.4-1.8l-0.5-2.8l-1.8,0.3l-1.1-0.1l-1.5-0.9l-3.5-0.5l-0.3,1.8
		l-1.6,1.1l-2.3-0.6L100.4,405.8z"/>
	<g id="g7393">
		<path id="path3931" class="st1" d="M108.5,458.4l-1.3,0.3l-1.6-0.9l-0.5-1.8l-0.9-1.1l-1.5,0.6l-1-1.5l-0.1-1.4l-1.5-1l-2.8-0.1
			l-2.3-1.3l-2-2.3l-1.5-1.3l-1.6-1.3l-1.4-1.6l-2.4-2v-3.5l-0.8-1.5l-0.9-1.4l-1-1.1l-0.9,0.3l-1.4-1.1l-1.8-0.3l-1.8,0.5l-0.9,1.8
			l-1.4-0.6l-0.1-1.4l-1.8-0.1l-1.4-0.8l-0.4-3.4l-0.8-1.1l1.5-2.1l-0.3-3.5l3.4-1.3h0.9l1.3-1.9l1.4,1.8l1.1,1.5l0.9-1.1l-0.4-1.6
			h3.1l1.3-0.1l2.1-2l0.4-0.9h2l2.4-0.9l1.1-0.9H95l0.9,1v1.3l1.8,0.1l2,0.5l1.1,0.6l-1.3,2.5l1.1,2.5l0.3,1.4h-1.4l-2.4,0.1l-1,0.8
			l-0.6,0.5h-1.8l0.6,1.1l0.1,1.4l-0.6,1.6v1.4l0.6,2l1.6,1.4l1.9,1.3l1.3,0.1l0.8,1.8l0.3,2.4l1,1.6l0.8,1.9l2.5,1.9
			c0,0,2,1.1,2.4,1.4c1,0.3,2.1,0.6,3.1,0.8l-0.4,1.4l0.9,1.4l2.8,0.9l2.5,1.4l2.3,1.1l1.4,1.1l1.4,1.6l0.4,1.3l-0.9,1.5l-1.5-1.3
			l-1.4-1.3l-1.1-0.5l-1.1-1.1l-1.3,0.9l-0.9,2.1l-0.6,1.1l1.8,1.5l1,0.8l-0.4,2.3l-1.3,0.6l-1.1,0.8l0.3,2.1l-0.4,1.4l-1.3,0.6
			l-1.6,0.5l-0.6-1.4l-1.3,0.4l0.1,1.3l-0.8,1.6v1.8l0.4,1.5l-0.9,1.1l-2.1,0.5l-1.5-2.4h-2.1l-1-1.3l-1.5-0.3l-0.6-1l-2.3-0.1
			l-0.5-1.9v-1.1l2-0.1l1.5-0.1l1.3,0.1l0.9,0.9h2l1.9-0.4l1.8-0.5h1.3l1.1-0.6l1-1.1l0.8-1.3l0.6-0.6l-0.4-1.5l-0.3-2l-0.6-0.8
			l-0.3-2.1L108.5,458.4z"/>
		<path id="path3933" class="st1" d="M80.8,451.8l-1.7,1.1l-1.4,1.2l-0.8-0.4L76,453l0.2,2.3l0.8,0.5l0.3,2.2v1.5l0.6,0.2l-0.8,1.3
			v1.8l0.8,2.1l1.1,0.6l1.5-1.3l1.7-0.2l1-0.8l-0.4-3.2v-2.1l-0.6-0.7l1.2-0.5l-0.1-1.4l-0.7-1.2l0.1-1.1l-0.7-0.8L80.8,451.8
			L80.8,451.8z"/>
	</g>
	<path id="path3935" class="st1" d="M72.9,422.7l-0.6-0.9l-0.3-2l-1.3-0.7l-1.9,0.7l-0.4,0.6l0.9-2.3l1.7-2.8l1.2-1.7l1.8-1.2
		l0.8-0.3l2.5,0.4l1,0.2l1.5-1.1H82l1.3,0.2l-0.1,1.1l-0.2,0.9l0.1,1l1.4,1.5l1.4-0.5l1.1,0.5l0.4,1.3l-2.2,2.3h-4.2l0.2,1.8
		l-0.9,1.1l-1.7-2.4l-1.1-0.5l-0.8,1.5h-1.1L72.9,422.7L72.9,422.7z"/>
	<path id="path3937" class="st1" d="M74.2,411.5l-0.2-2.8l0.6-2.4l1.6-1.8l1.1-2.1l-3.9-0.3l-2.1-0.8l-1.6-0.4l-0.5-0.9l0.2-2.8
		l-0.7-1.4l-0.4-1l1.3-2.2l-1.3-1.3l-0.6-1l0.3-1.8l0.4-1.8l-0.1-2.1l-0.1-1.2l1.7-0.3l1.3-1l1-1.7l0.3-2v-1.8l0.6-1l-0.4-1.1
		l-1.5-0.4l-0.3-0.9l1.1-0.9l1.1-0.8l2.3-0.1l0.5,0.6l0.5,1.3l1-0.2l-0.2-1.6l0.3-1h1.3l1.4,0.4l0.5-0.6l-1.1-1.1l0.1-0.9l-0.5-1.2
		l-0.6-0.7l1.1-0.5l0.6-0.7l-0.9-1.1l-0.9-1.2l0.2-0.8l3.1,0.1l0.9,1.6l0.8-0.3l0.8,0.8l-0.3,1.2l1,0.8l1.3,0.2l1,0.4l1.3-0.2l0.3,1
		l-1.7,1.1l0.1,1.4l2.2-0.8l1.4,0.2l0.8-1.9l2.2-0.2l1-1.3l1-0.3l1,1.1l1.2-0.2l-0.7-1.5l1.8-0.9l1.5,1.7l-0.3,1.1l-2-0.1v1l1.2,0.8
		l1.3-0.3l1.7,0.7l-0.5,1.8l1.1,2.2l0.4,0.9l-0.4,2.6l1.5,1.8l0.6,5.6l1.1,3l-0.1,2.7l-0.4,1.3l-1.6-1.6l-0.6-0.2l-0.3,1.6l-1.6,0.3
		l-4.5,2.8l-2.6,0.3l1.1,2.4l-0.1,1.8l0.7,1.6l5.3,4.9l0.5,0.6l-1.7,0.7l-3,2.8l0.5,2.1l-0.8,1.1l-2.8-0.4l-2.6,1.1l-1.3-0.3l-0.8,1
		l-2.1-0.7l-2.9,0.4l-1.2-0.1l-0.1-1.3l-3.3-0.2l-1.9,1.1l-3.7-0.5L74.2,411.5L74.2,411.5z"/>
	<path id="path3945" class="st1" d="M70.9,373.2l-1.7,1l-3.2-0.2h-2.2l0.2,1.8l2.2,1.7l0.3,2.3l-2.2,2.2l-1.2-2.2l-0.3-2.5l-1-1.8
		l-0.8,1.5l-0.3,2.3v2l-1.5,1l0.3,2.2l1.8,0.3l-0.3,0.8l1.3,0.8h1.7l1.2,1.5l2.4,2.2l0.6-3l-0.5-4.2l2.2,0.1l1.8-1.3l0.5-1.4
		l0.3-3.8l0.6-1l-0.4-1.1l-1.5-0.4L70.9,373.2L70.9,373.2z"/>
	<path id="path3947" class="st1" d="M59.8,386.4l-2,0.8l-0.8,0.5l-1-0.3l-1.7,1.5l-1.3,0.7l1,1.5l1.2,0.2l0.8,1.3l2.3,0.2l2,2.7
		l0.5,1.5l2.2-1.3l0.3,1.7l1.7,1.3l1.5,1.5l0.5-3l1.2-1.8l1.5-2.7l-1.9-2.3l-2.4-2.2l-1.2-1.5h-1.7l-1.3-0.8L59.8,386.4L59.8,386.4z
		"/>
	<path id="path3949" class="st1" d="M69.6,400.4l-1.5-0.2l-1.7-0.2l0.5-3l1.2-1.8l1.3,1.9L69.6,400.4z"/>
	<path id="path3951" class="st2" d="M76.1,435.2c0,0.8-0.6,1.4-1.4,1.4c-0.8,0-1.4-0.6-1.4-1.4c0-0.8,0.6-1.4,1.4-1.4c0,0,0,0,0,0
		C75.5,433.9,76.1,434.5,76.1,435.2z"/>
	<path id="path3973" class="st1" d="M123.5,338.7l-2.5,1l-2.1,1.8l0.4,4.1l0.6,1.5l2.5-4l0.1-1.6L123.5,338.7z"/>
	<path id="path3975" class="st2" d="M114.2,343.3l-1.6,3.4l-0.9,5.1l2.4-4.4L114.2,343.3z"/>
	<g id="g8011">
		<path id="path3985" class="st1" d="M3.1,454.2l-0.4,3.9l-1,2.5l-1,2.9l-0.1,2.8l0.9,1.1l1.8-0.6l-0.5,2.5l-0.1,3.4l-0.9,1.9
			l2.9,0.3l2.8,0.3l2.5-1.3l0.3-3.9l1.5-1.4l-1-1.5l0.5-3.8l-1.5-2.5l1.8-0.9l0.9-2.8l0.3-2.6l-0.1-3.1l2-1.1l0.5-1l-1.3-1.3
			l-0.1-1.1l-1.4-0.3l-1.6,0.6l-4-0.3l-0.4-1.8l-2.8,2.5L3,450.2l0.3,2.5L3.1,454.2z"/>
	</g>
	<g id="g7378">
		<path id="path3991" class="st0" d="M34.9,437.2l-1.3,2.3l-3.8-0.3l-3.5-0.5l-2.8-0.3l-2.5,0.5l-8.5-0.5l-3.8-0.5l-1.8-1l-2.4,0.8
			l-0.5,1.1l-3.8,0.5v2.4l1.3,1.3l1.3,1.6l0.3,2.6l2.9-2.1l0.4,1.8l4,0.3l1.6-0.6l1.4,0.3l0.1,1.1l1.3,1.3l-0.9,1.3l-1.6,0.9
			l0.1,3.1l-0.3,2.6l-0.9,2.8l-1.8,0.5l1.5,2.9l-0.5,3.8l1,1.5l-1.5,1.4l-0.3,3.9c0.9,0.1,1.7,0.5,2.3,1.1c0.8,1,1.8,2.4,1.8,2.4
			s-0.4,2.1,0.9,2.6c0.7,0.3,1.4,0.4,2.1,0.4l1.8-2.5h2.5l2-1.8l3-0.1l1.6,1.3l1.9-0.6l2.1-0.1l2.3-3l1.9-1l1.8-0.5l1.8-3.5l2.1-2.6
			l-1.8-2.1l0.1-3.3l2.4-2.4l2.1-3.1l0.4-1.1l1.6-1.9l2.6-0.3l2.8-1.9l2.6-1.8l0.5-2.3l0.3-1.8h-2.6l-3.1-0.6l-1.9-1.3l-2-0.3h-3.8
			l-2.1-0.3l-3.7-1.2l0.3-1.5L34.9,437.2z"/>
		<path id="path3993" class="st0" d="M54.4,458.8l-3.1,1.6l-0.5,1c0.6,0.1,1.2,0.3,1.8,0.5c0.4,0.3,1.8,1.1,1.8,1.1l1.9-2.1
			l-1.1-0.8L54.4,458.8z"/>
		<path id="path3995" class="st0" d="M57.1,458.7l2.1,1.3l1.1-1.4l-1.9-1L57.1,458.7z"/>
		<path id="path3997" class="st0" d="M47.1,463.1l-1.4,2l1.6,1.6l1.1-2.5L47.1,463.1z"/>
	</g>
	<g id="g10977">
		<path class="st0" d="M863.4,260.6l-4.8-4.3l-3.7-2.5l-2.5,0.3l-3.2-2.3h-3l0.7,5.2l-1.5-2l-1.2-4l-0.7-4.5l-3.5-2.2l0.5,2.3
			l-3.2-2.7l0.2-2l-4-2.3l-6.2-4.2l-0.8-3l-5.7-3l-4.3-4.3l-5.3-1.3l-5-3.5l-2.5-2.5l-8.2,0.5h-6l-9-2l-0.3,4.3l-1.3,1.7l3.8,3.3
			l-0.7,3.7l-4.8,2.3l-3-2.7l-2.2-1l-0.3-4.2l-2.3-2.5l3,1.3l2.7-1l-0.2-2.8l-4.8-1.2v2.2l-1.7,1.7l-3,1.3l-0.7,2.8l-1.5-2l-3.8-0.3
			l-4.8-0.2l-3.7-3.2l-2.5,1.3l-4,0.3l-2.5,2l-3-1.2l-4.2-2.5l-2.7-0.8l1.5-3l0.5-2.8l-1.7-4.2l-2.7-3.8l-5.7-1l-6.3,0.3l-10.2,0.5
			l-3.7,0.2l-2.8,0.2l-0.8-2.5l-0.7-3.8l-3.8,0.2l-2.8-2.7l-2.3-1.7l-3.8-0.3l1.8-1.7l3.8,0.3l-2.2-4.5l-5.7-2.7l-5.3,0.3l-2.5,5.2
			l-3.3,3.3l-3.3,1.3l-0.3-2.7l1.7-2.2l3-3.7l-0.3,5l3.2-6.8l-3.7,1l-3.2,1l-3.7-1l0.3-3l5.5,0.8l3-0.7l-4.3-1.7l-4.8-0.8l-6.2-1.5
			l-4.3-0.2l-3.5-1.2l-0.3,3.8l-1.7,2h-4.3l-2.2,2.8h4.5l-2.8,3.7l3,6.2l-4.5,0.8l-2-1.8l-3.3,2.5l-2.3-2.3h-3.2l-5.7-1.2l-4,4.5
			l-3.7-2.5l-3.8-5.2l-3.3,8.2l-0.7,4.5l-2.3,2.2l-3.5-3.2l-5.2-3.5l-0.7-4.5l-0.7-4.3l1.3-4l0.8-7l-0.5-5l-5.5-6.8l-6.5,0.3
			l-6.8-3.2l-7-1.7l-1,6l0.7,5.5l-3.7,0.5l-9.3-0.8l-4.5-1.2l-2.7,0.8l-1.5-4.3l2.5-1l-6.7-1.7l-9-1.8l-4.3,1.8l-4.3,0.2l-1-4.8
			l-1.3-1.5l-1.5,4.2l-4.2-1.7l-0.3-3.3l-3.8,1.8l-3.2-0.3l-0.7,4.8l3.2,1l-6,4.2l-8,1l-4.2,1.5l1.3-3.8l6-4.8l2.3-0.8l4.3-5.2
			l3.3-4.8l7-4.5l2.8,1.8l-4.3,3.3l2.7,3.8l3.5-1.2l3-4.5l-4-1.2l-3.5-2.8l2.3-2.7l4-3.3l2-4.3l1-3l-2.8-2.7l2.3-1.3l0.2-3.3
			l-2.3-4.2l-0.7-2.8l-2.7,1.8l-1.5-6.3l-5.7-3l-7.8-0.8l-5.8,1.2l-1.2,2.7h-7.2l5.5-5.5l1.5-3.7l-8.2-1.3l-4.3,0.8l4.2-5.5l2.5-3.2
			l-5.3-2l-5.5-1l-7.3,4.8l-5.3,9.5l1.5,3.5l1.5,4.7l-5.8-0.7h-4.5l3,4.5l-4.3,0.3l-6.5,3.3l-6,2l2.2-5.2l-7,2c0,0-9.3,0.7-8.8,1
			s5.5,2.5,5.5,2.5l-13,4.3l-8.5,4.7l-5,4.3l-3.2-0.2l-0.8,4.2l-4,1.8l3.3,5.2c0,0-3.3,2-2.8,2.7s7,6.2,7,6.2l-4.2,2l-6,0.8
			l-6.3-0.3l-7,1.7l-5.2,1.7l-2,5.5l2.5,6.3l-0.7,3.7l4.7,3.8l2,1.3l1.7,3.7l2.5,1.8l-0.3,4.8l0.3,7.8l-2.2-0.8l-2,1.2v-5.8l2.7-3.7
			l0.2-3l-2.8-0.7l-2.2,1l-4-3.5l-5.8-5.2l-4.5-1l-4,2.8l1.8,2.8l-2.3,1.7l-3.2-2.5l-3.3,1.8l4.7,7.2l5.7,1.7l-1.3,4l-4.2-2.8
			l-4-0.5l-5-2.3l1-6.3c0,0,0.3-5.2,0.3-5.7v-6.7l-2.7-2.8v2.8l0.7,4l-1.7,4.7l-6,3.5l-0.8,5.5l4.8,7.3l0.7,5l-2.7,6l-0.2,6.7l2,6
			l5.8-2.2h5.2l4,4.5l0.8,6l1,2.2l-2.2,3.2l2.2,1.7l1.8,1.7l-2.7,0.8l-3.5-2.2l1.3-5.3l-1.2-4l-2.7-5l-8.5,3l-1.2,5.2l3.3,5.5
			l-3.5,3.3l-1.5,2.8l-2.2,4l-4.7,3.5l0.2,3.7l-4.7-1.8l-5-0.3l3.3-2.3l3.5-2l3.2-4.8l0.8-3.5l2.8-2.2l0.2-5.2l2.3-4.3l-5.2-5
			l-0.2-7l1.2-6l-1.7-4.2l2.3-0.8l-0.5-9l-3.3-5l-0.5-2.8l1.8-7.8l1-5.7l-0.8-3.2l-4.8-1.3l-4.5,0.2l1.2-2.8l4.7-0.8l-2.2-3.2
			l-2.7-1.7l-3.2,3.7l2.3,2.5l-1.2,2.5l-2.3-0.8l-1.5,2.7l-0.8,3.3l-1.3,5.3l-1,4.8l-2.3,5l-4.8,4l1.2,2.5l-3,1.8l1.2,1.8l2.3-1v7
			l0.5,2.7l-2.7,1.8l0.8,4.5l1.7-1.5l3,2.2l0.7-0.5v4l2.5,4l1.3,0.2l-0.8,4.3l-1.7,3.8l-2.2-3.2l-2.3-3.2c0,0-1.5-2.5-2-2.5
			s-3.8-0.7-3.8-0.7l-5-3.2l-3.8-3.8l-4-1.8l-5-1.2l-4.5-0.2l-2.2,0.7l-1.3-4.2l-6.2-5l-0.3,3l1.2,3.7l2.8,2.7l3.5,0.5v1.3l0.7,3.3
			l1.8,3.5l-0.5,3.5l-3.3,0.8l-0.5,3.8l-2.8-0.5v-4.8l-1.3-2.7l-3.5,2.7l-3.5,1l-0.2,2l-4-0.5l-4.5,0.8l-2,4.2l-4.2-0.5
			c0,0-4.8-0.7-3-1s4.2-2.5,4.2-2.5v-3.7l-4.8-0.2l-3.3,2l0.5,3.8l-3.8-1.8l-3.8,3.3l-8.8,3.8l-2.3,3.5l-2,5.7l-2.8,2.5l-5.8-1.7
			l-1.8-4.2l0.7-4.2l2.7-0.3l2.8-1.2l-0.8-2.7l-1.5-1.8l-1.8-2.7l-5.7-0.2l-5.7-2l3.8,4.2l0.8,3.2l-0.8,4.3l-1.5,3.3l2.3,2.8
			l1.3,2.8l-0.8,5l0.3,5.7l-3.8-4.5l-4.3-1.8l-1.7,2.3l-4.2,3.2l-4.5,2.8c0,0-1.2,2-0.8,2.5s2.3,5.8,2.3,5.8l2.2,3.2l-2.5,0.7
			l-4.5-2l-5.3-1.3l-4.3-3.2c0,0-3.2,3.3-2.7,3.7s4.2,4.8,4.2,4.8l3-1l1.2,4.8l-2.5,0.2l-4.8-0.3l-4.2-3.7l-3-1.8l-2-4.7l-0.2-4.5
			l0.7-2.3l0.3-3.2l-3.2-3l-2.8-3l-2.5-2.8l-2.5,0.3v-3l0.2-2.3l3.5,1.2l1.3,2.5l4,1.7l3.8,1.7l6.2,2.2l3.5,1.8l6.3,1.3l4.5-2.5
			l3.8-3.2l3.7-5.3l-1-3.2l-1.5-4l-5-4.2l-5-2.8l-5.2-5.3l-4.7-4.2l-6.7-2.8l-5.5-0.2l-3.8-1.2l-2.7-3l-3.3-0.7l-1.8,1.8l-3.3-0.7
			l-1,2l-2.8,1.7l-1,3.3l-1.5-0.2l-1.3,2.8v2.2l1.5,3.3l3.8,4l1.2,3.5l1.2,0.7l-4.7,7.7l4.7,13.2l-0.8,1l-0.3,3.8l0.3,3.8l1.3,2.2
			l0.3,3.5l1.5,2.3l-2.2,3.3l2,3.2l2.5,1l0.7,3l1.2,1l-0.7,2.5l-3.2,3l-3,3l-2.3,4l-2,3.7l-3.7,3l-2.3,3.2l3.3-1.2l0.3,1.8l3.2,2.3
			l1.7-0.2l2.2,2.5l-3.8-0.2l-1.7,0.2l-3,1.7l-1.3,1.8l0.3,2.7l-2.8,2.8l2,5.7l1.7,1.8l0.8,3.2l0.2,5l-0.2,3.3l0.7,1.8l6.2,0.7
			l0.8,1.8l3.5-0.5l1.3,6.3l1.5,5l2.3,2.3l0.2,2l2.3,2l-1.2,3.2l-3.3-0.2l0.7,2.7l0.8,3.8l2.8-0.5l2.5-0.2h3.2l2,2.7l0.7,5l3,0.2
			l1.5,4l0.7,1.7l3.5-0.3l2.8,1.2l2.5-1.5l1.5,2l2.3,1l2.3,1.8l1.2-0.2l1,1.3l2.7,0.2l-0.8,3l-0.5,1.7l1.7,3.3l-1.7,2.7l-2.7,0.2
			l-1.8,1.8l-2.5,1.5l0.8,2h3.7l-4,2.7l-3.7,0.7l3.2,3.8l-2.5,0.3l-2.2,2.8l-2.2,1l-1,1l2.7,1.5l1.5,2.3l5.3,2.2
			c0.6,0.2,1.2,0.5,1.8,0.8c0.5,0.3,1.5,3,1.5,3l0,0l7.8-0.2l3.7,2l6,1.3l2.7,2.2l5.5,0.2l1.8,2.8l4.5,1.2l2.7,2.5l1.8,0.7l2-2.2
			l-2-4.2l-2.8-4l1-3.5l-1.5-0.8l-1.3-2.5l-2.3-0.8l2.5-2.8l2-5.3l0.8-2l2,2.3l1.7-1.6l0.3-2.5l2-2.7l-1.2-2l-7.2-6.8l-1.7-2.8
			l2.5-13.2l5.2,3.7l0.8-2.5l-0.8-2.3l1.5-2l0.1-3.3l3.1,0.4l3.8-2.2l0.5-1.7l3,1l-0.5,2.2l2.2-1.5l2.3,0.2l2.7-0.8l2.8,0.8l3.3,3.3
			l0.7,3.3l1.6-2.6l1.1,0.4l2.2,1.5l2.2,0.3l2.2-2.5h3.5l1.8,1.2l3.8-1l1.5,2.5l2.8,1.5l2.2-1.7l3.5,1.3l4.2-5l-2-1.3l-2.9-0.3
			l-1.3-2.4l-1.8-1.2l3.8-1.7l-0.5-4.8l6,0.2l-2.8-4.6l1.8-1.6l-2.7-1.3l1.2-2.7l2.8,0.7l10-1.7l3,0.3l4-3.7l7.2-0.7l2.5-1.2
			l3.5-3.5l3.3,1.3l3.9,0.6l1.1,3.7l1.1,1.3l-0.5,3.2l2.2,1.7l0.7-1.7l2.6,0.5l0.8,1.5l2.3-0.8l0.5,1l0.3,2.5l5.8,0.3l1.8-2.3l2-0.3
			l2.5-4.7l3-0.2l-1.5,2.7l6.4,7.8l4.8,4.5l3.8,8.3l1.1,2.4l3.3-3.8l1.8,1l2,3.7l4-0.2l3-1l2.7,0.3l2.8,5.7l2.5-0.2l2.2,3l2.3-0.3
			l2.5-1.3l1.3,2.5l-0.7,1.5h4.5l1.8-2.3l3.8-0.3l1.2-2.7l2.3,0.7l2.5-1.8l3.6-0.6l2.3-2l1.7,0.3l0.5-1l2.2,2.2l5.7-0.2l2.6,2.5
			l1.3,1l4-0.3l6.7,1.7l2-0.7l0.7-5l-1.8-0.8l-0.3-3.5l1.5-4.7l1.8,1.3l1.2-3.5l4.3,2.3l6.2,1.8l0.8,1.5l3.8,0.3l-0.6,3.3l1.7,3.3
			l3.9,1.2l2.4-0.3l1.8-1.2l5.3,0.7l1.2,0.8l3.3-0.2l3.4,3.2l4.2,1.8l4.5,0.9l5.5,1l4.7-1.3l4.6-2l1.8-2.3l1-2l3.5-0.9l2.3,0.2
			l1.8,2.5l0.5,1.3l2.8-0.7l3.4,1.1l4.4,2.6l2.1-2.3l1.8-1.8l1.8-0.1l-0.1-2.9l1.9-4.4l3-3.5l1.2-4.3l-1.8-2.3l-1-0.5l2.7-3.8
			l4.1-0.5l4.1-0.2l3.7-1.1l3.5,2l3.8,1.9l0.5-1l3.2,2.8l3.8,9.3l3.4,7.3v2.8l1.3,1.3l6.8,1.2l3.5,5.2l1.2-0.3l-0.5,2.2l1.5,1.9v2.4
			l3.3,1.3l4.8-1.8l6.3-1.8l4.6-1.3l-1.3,2.7l-0.5,3l-1.5,1.7l-0.5,3.5l-2.3,4.3l-1.3,3.8l-1.5,1.5l0.2,1.7l-4.5-1.6l-1.7,0.6
			l-1.3,1.9l-1.8,0.3l1.3,5l-0.7,4l-0.2,1.5l-3.3,2.1l1.6,1.7l0.5-1.5l1.5,0.3l1.6-0.9l0.8-2.1l0.3-1.4l0.5-0.9l0.4,2.3l1.6-1
			l0.8,1.3l2.4,1l1.9,0.8l2.3-1.5l2-0.6l3-2.4l1.6-2.3l2.4-3.1h1c0,0,1.5-4.3,1.9-4.5l3.8-2.4l2.6-5l1.5-3l1.1-2.9l1.3-0.9l0.8-2.4
			l2-2.4l1.6-2.3l1.5-2l-0.4-3.6l1.3-1.1l-0.1-3.3l-0.3-3.3l1.1-4.8l0.3-3l1.9-2l0.9-1.8l1.1-0.1l0.3,2.8l1.8,2.9l-0.1,4.3l-0.1,4.4
			l0.1,5.4l-1.9,4.4l1.3,0.5l0.8,3.6l-0.9,2.3l0.1,4.1l-1.1,2l0.5,3.9l1.5,1.8l0.3-2.4l0.3-2.1l1.9-1.4c0.7,0.4,1.4,0.8,2,1.4
			c0.3,0.4,1.8,2.3,1.8,2.3l0.1-2.1l-2-3.1l-0.9-2.1l-2.5-2l0.6-3l1-3.1l0.3-2.6l2.6-1.9h2.8l2.6,3.5l1.4-0.6l-1.8-2.1l-2-3.4
			l-1.6-4.8l-0.9-4.1l-0.6-3.3l-0.3-2.4l-1.8-2.5l0.6-2.6l0.9,0.8l-0.5-5.8l-0.6-3.4l-0.8-1.9l0.4-1.1l-0.9-2.3l-1.4,0.5l-1.8,0.1
			l2.1,2l-0.1,2.1l-2,1l-1.9,0.9l0.8,2.3l0.5,1.6l-0.8,2.4l-0.4,1.5l-0.1,1.1h-1.4l-0.6-1.5l1.3-0.1l-0.8-2.6l-0.8-1l0.8-0.9
			l0.1-1.8l-1.8-1.6l-1.9-1.1l-0.9-1.4l-2.3-1.9l-0.4-0.9l-1.8,0.9l-2.6-1.4l0.1,2.9l-0.4,2.5l-1.4-0.3l0.5-2.6l-1.9,1.3l-0.9,1.8
			h-2.5l1.9-2.1l-0.8-1l0.9-2h-2.5l-1.1,2.1l-0.3-1.9l0.3-2.1l-1.6-1.1l-3.1,0.8l-2-1.3l0.8-2.4l2.5-1.5l2.4-2l2.6-2.9l2.9-2.1
			l2-3.8l3.6-4.1l2.5-2.1v-3h2.1l1.9-4l3.9-3l3.1-2.9l4.3-0.4l5.9-0.3l2.5-1.5l1.9-0.5l0.9,0.8l1.5-0.3l1.4-1.5l2.5,0.9l1.6,0.6
			l2.4-0.6l1.8,0.6l1,0.6l2.1-0.5l-0.9-1.3l1.1-1l0.3-2.4l2.6,0.8l3.6,1.8l3.5,0.2l1.8,1c0,0,3.5,1.5,3,1.5h-5.2l-0.3,2l2.5,1.2
			l2.8-1.5l2.5,0.5l2-2.2l2.8,1.5l1.5-2.2l4,0.5l-2.7-3h-2.2l-0.2-4.2l1.2,1.2l1.7-4.7l3.3-2.2l1.8-3l3.2-2l-0.3-2.8l6.8-2l3.8-0.8
			l0.8,1.2l3.2-1.3l-0.8,4.3l-1,1.5l0.3,3.2l2.2-1l-1.2,3.3l2.8-1.7l2.8-2.3l4.2-3.7l2-1.7l1.2,1l0.2-3.5l0.2-4.5l2.2-1.5l4.7-1
			l2.3,2.5l-4.3,0.8l-0.7,4.2l-1.2,2.8l0.2,2.5l-1,1.8l-0.5,2.8l-2.7,0.2l-3.5,2.2l-0.2,2.5l-6.5,5.8l-2.8,4l-4,4.8l-3.3,4.5
			l-2.7,0.7l-2.5-0.3v3.1l-1.3,3l-3.8,4l-0.7,8.8v6.2l1,6.5l2,7.7l0.3,4.7l0.7,4.8l1,2l-1.6,1.3c0.2,0.2,0.4,0.4,0.6,0.6l0.1-0.1
			l1.5-1l2.3-1.7l1.5-1.7l1.5-1.8l2.3-4.8l-0.5-3.7v-1h2.3l2.2-1.2l2.2,0.8l-0.3-4.5l-0.3-1.7l3.5-4.3l2.3-0.2l1.3,0.5l2.3-1.8l-1-3
			l-0.7-3l1.3-3.3l0.2-2l3.2-1.7l-1,3.3l2,1.2l1.5-3l-1-1.8v-2h-2.2l1-4.8l1-1.8l-2.7-1.8l-2.2,1.2l0.3-3.8l2.2-3.7l1.3-3.3l0.8-2.8
			l0.8-3l1.2-2.2l2.8-1.7c0,0-0.5,1.8,0,1.3c0.8-0.6,1.7-1.1,2.7-1.5l0.2,2.3l4.2-3.5l2.2-0.8l-0.7,4.5l1.3-0.5l3.5-4.2l3.7-1
			l3.8-0.7l3,2.2l2.3,3.3l3.2-4.7l3.7-3l7.2-7.3l4.7-3.3l6.5-2.3l5.2-3.3l6.5,1l2.2,2.2l1-3.8l-0.7-3.8l-2.5-4.5l-2-2.3l0.8-4.8
			l-0.3-1.3l-4.7-0.7l0.2-4l4.8,1l2.7-0.8l3.3-2l3.8-4.2l-2.2-4.5l-0.7-2.7l3.7-0.8l2.5-1.2l-0.8,3l1.5,4.2l-2,1.2l5.2,0.3l2.5-1.2
			l3.2,1.5l2.5,3.8l-0.8,0.8l3.8,2.5l2.8-0.5l1.5,2.8l1.7,2.7l3.7-1v-3.3l2.5-2.8l1.7-3.3l-2.3-2.8l5.3,1.7l1.2-2l2-2l3.8-2.5
			L863.4,260.6z"/>
		<path id="path4125" class="st0" d="M822.6,197.2l-7.3,5l1,4.3l7.3-2l5.3,0.7l2-5.3l-4.7-3.7L822.6,197.2z"/>
		<path id="path4127" class="st0" d="M661.6,172.9l-10.7-1.3l-5-0.7l4-3.7l0.7-4.3l-4.7-2.3l1.7-4.7h4.3l-0.7,6.3l1.7,1.3l2.7-1
			l4.7,1.7l2.7,4l0.3,5L661.6,172.9z"/>
		<path id="path4129" class="st0" d="M644.6,144.2l-1.7,4l-5.7-4.7v-6.7l-2.3-3.3l3.7-5.7l2.7-5l5.7,3l1,5.7l2,2l2.7-1.3l-0.3-5
			l3.3-1l6.3,4.7l2.3,1.7l5,1l2,1.7l-3.3,4l-1.7,4l-4-2v-5.7l-5-2.3l2.3,6.3l1,3l3.3,1.3l-3.3,2l-4.3-0.3l-3.3,0.3l-5.7,2l-0.7-3.3
			L644.6,144.2z"/>
		<path id="path4131" class="st0" d="M675.6,134.2l2,5.3l1.7,4.3l6.7,4l6,1l2.7-3.3l-3.7-4.7l-4.7-1l-3.7-2L675.6,134.2z"/>
		<path id="path4133" class="st0" d="M455.6,9.1l-2.5,9.5l-12,4.5l-0.5,8l4.5,7.5l2.5,3.5l-5.5,2l-6.5-2.5l3,8.5l5.5-1.5l4-3l1,2
			l-5,7l5.5,4.5l2,5l5.5,0.5l3,5l8.5,1l5.5-4l6,2.5l-4,9.5l-1.5,9l5.5-2.5l11.5-0.5l5.5-6l0.5-6.5l-6-6l-4-3l-1-5l-4.5-1l-1.5,7
			l-0.8,4l-4.8-2l-2-5.3l0.5-6l0.8-5l-1.3-5.5l-3.3-2.3l-2.5,2l-3.5-3.8l-1.5-1.5l-8,1.8l-4,2.8v3l-2.3-2.3l0.3-2.3l2.3-1.3l3-2.5
			l2.8-2.8h4.8l1.5-1.3l-0.8-4.8l2.8-4.5l-1.5-5l-3.8-1.8l-1.5-8L455.6,9.1z"/>
		<path id="path4135" class="st0" d="M334.3,108.9l-5.7,3l-7,6.3l-7.3,5l-5-1l-6.7,3.3l-5.7,4.7l-6.3,5.7l-1,5l-7,1.7l0.3,6.3v5.3
			l-3.7,3l-3,6.7l3,2l-3.7,4l-0.7,3l-4.3,5l-2.7,3.7l2,4l-2,4.7l-4.3-0.7l1.3,6l3.7,3.3l1.3-1.7l3.7,4l-1,2.7l0.7,3l5.7,1.3l4.3,1.3
			l4.7-1l2,1.7l1-2.3l-4-2.7l-2.3-4.3l-2.3-7l-0.3-5l-0.3-8.3l4-3.7l1.7-5.7l2.3-6l1.3-5l2.3,1l1-5.3l1.3-4.3l2.7-0.7l2.7,1.3
			l1.3-4.7l2.3-5l2.3-0.7l5-5.3l4.7-2.3h3.3l5.7-4.7l7.3-3.7l4.7-2.3l1-3l2-2.7l-1.7-2l1-3.3l-3.7-2.7L334.3,108.9L334.3,108.9z"/>
		<path id="path4137" class="st0" d="M251.9,224.9l-3.7,3.7l1.3,4.7l6-1l3-4.7l-3-2.7H251.9z"/>
		<path id="path4139" class="st0" d="M140.4,366.1l-4.1,0.1l-3.6-1.3l-3.9,0.1h-1.3l1.3-1.4l-0.8-1.4l2.8-0.6l0.3,1.3l1.4-1.1
			l-0.4-2.3l1-0.5l-0.4-1l1.9,1.3l2.8,1l3.5,1.1l0.3,2l-0.1,1.6L140.4,366.1z"/>
		<path id="path4141" class="st0" d="M319.4,5.6l-4,3.7l-3.3,6.8l3,4.5l2.8-3l5.3-0.5l-2-5.8l0.5-5.5L319.4,5.6z"/>
		<path id="path4143" class="st0" d="M257.4,19.1l-1.8,4.3l-4.5,2.8l-2-4.8l-10-0.8l-7,4.5c0,0,1,4,1.8,4s5.5,2.3,5.5,2.3l0.5-6.8
			l3.3-1.5l4,2l2.5,1.5l-5,1c0,0-3,2-2,2c1.7,0.2,3.4,0.6,5,1l-1.5,2.8l-5.3,2l3.3,4.5l3.8-1.3l-0.3,3.5l3.3-1.5
			c0,0,1.8-2.8,1.8-3.5s-0.3-3.3-0.3-3.3l4.3,0.3l1.3-4.3l3.5-1.5l1.8-4l-5.3,0.3c0,0,0.8-3,1.5-3s3-1.5,3-1.5l-3,0.3L257.4,19.1z"
			/>
		<path id="path4145" class="st0" d="M299.9,21.6l-1.3,4.8l-1,7.8l7.5-0.5c0,0,2.8-0.3,2.3-1.8c-0.9-2.1-1.9-4.1-3-6l3.3-2l1.3-3
			l-4.3,0.5L299.9,21.6z"/>
		<path id="path4147" class="st0" d="M276.6,14.8c0,0-0.3,2.8,0.5,3s4,0.8,4,0.8l2.8,3.3l4,1.8l2.8,0.8l-1.8-3.5l-5.5-2.8l-0.3-1.5
			L276.6,14.8z"/>
		<path id="path4149" class="st0" d="M288.6,0.6l-2,2l4.3,3.3l3.3-1.8l-2.8-2.5L288.6,0.6z"/>
		<path id="path4151" class="st0" d="M285.1,5.8l-0.5,2c0,0-5.8,0.7-5,1.2c1.5,0.6,3.1,1.1,4.8,1.5l3.3-1.8c0,0,3.5,1,3,0.3
			s-1.8-2.7-1.8-2.7L285.1,5.8z"/>
		<path id="path4153" class="st0" d="M284.6,33.6l-1.8,1.8c0,0-0.5,6.5,0.3,6.3s5,0.3,4.8-0.8c-0.2-1.1-0.3-2.2-0.3-3.3v-2.8
			L284.6,33.6z"/>
		<path id="path4155" class="st0" d="M289.6,31.6c0,0,0.3,3,0.5,4s1.8,4.8,1.8,4.8l1.8-4.5l1.5-1l-3.5-2.5L289.6,31.6z"/>
		<path id="path4157" class="st0" d="M283.6,14.3c0.8,1.2,1.7,2.3,2.8,3.3c0.8,0.5,3.5,2,3.5,2l1.3-2l-3.3-3.3H283.6z"/>
		<path id="path4159" class="st0" d="M302.1,14.6l0.3,2.5l3.5,2l1.8-3.5l-2.5-1H302.1z"/>
		<path id="path4161" class="st0" d="M270.6,33.8l-1.5,2.5c0,0-5.3,2.8-1.5,3l7.3,0.5l-0.5-3.5L270.6,33.8z"/>
	</g>
	<g id="g7370">
		<path id="path4253" class="st1" d="M52.9,389.6l-2.5,1.3l-2.3,1.2l-1,3.3l-0.8,1.7l-3.8,1.7l-0.2,2.2l-1.5,0.5l-3.2-0.2h-1.3
			l-1.7-1.5h-2.2l0.8,2.7l0.8,1.5l0.3,2.7l-2.5,0.2l-2.3-0.2l-2.2-1.5l-2.3,0.2l-2.8,1.5l-2.7,0.3c0,0-2.5,0-1.8,0.3s2.2,1,2.2,1
			l1.7,1l-0.8,1.2l2,1.3l1.7-0.2l2.3,1.5l1,1l1.2-0.2l1.8,0.2l-0.5,2.2l1.3,1.5l0.7,1.3l2.2,2l1.5,1.7l-0.2,1.2l0.5,2.2l0.5,0.8
			l-1-0.2l-0.5,2.5l0.3,3.2l-0.3,2.8l-0.3,1.8l1.3,1.7l-0.3,1.5l3.7,1.2l3.2,0.3l3-0.2l2,0.3l2,1.3l3.2,0.5h2.2l0.7-2.2l-0.7-0.7
			l1.3-1.8l1.2,0.2l2-1l1.7,0.8l2.2,0.8l1.7,0.3l2,0.3l2.5-0.3l0.5-1.3l2.2-1.2l1.3-1l2.5-1.7l-1.4-1.4l-1.4-0.6l-1.2-1l-0.1-2.9
			l-0.9-0.8l1.6-2.5l0.2-3.4l-0.9-2.9l-1.3-0.7l-1.9,0.7l0.8-2.7l2.5-3.6l2.4-1.4l-0.5-3.4l0.7-2.4l2.6-3.5l-3.8-0.7l-3.2-1.2
			l-2.2-0.7h-1l-3.8-2.5l-0.3-2.2l-2.2,1.3l-1-2l-1.5-2.2l-2.3-0.2l-0.8-1.3l-1.2-0.2L52.9,389.6L52.9,389.6z"/>
		<path id="path4255" class="st1" d="M81.1,441.1l-0.5,1.7h-1l-1.3,1.3l-0.5,1.8l0.8,1.7l1.3,2l1,1.2l1-2.5l0.5-1.8l-0.5-3.2v-1.5
			L81.1,441.1z"/>
	</g>
	<path class="st3" d="M474.6,240.8h-2.4v2.4h-2.4v-4.9h12.5v4.9h-2.4v-2.4h-2.4V261h-2.8V240.8z"/>
	<path class="st3" d="M493.6,248.4v2.8h-5.5v7.1h7v2.8h-9.7v-22.7h9.3v2.8h-6.5v7.3L493.6,248.4z"/>
	<path class="st3" d="M509.7,241.8v8.1l-3.5,3.6h-4.4v7.4H499v-22.7h7.1L509.7,241.8z M505,250.8l1.9-2v-5.9l-1.9-1.8h-3.2v9.7
		L505,250.8z"/>
	<path class="st3" d="M524.4,241.8v8.1l-3.5,3.6h-4.4v7.4h-2.8v-22.7h7.1L524.4,241.8z M519.8,250.8l1.9-2v-5.9l-1.9-1.8h-3.2v9.7
		L519.8,250.8z"/>
	<path class="st3" d="M528.5,261v-22.7h2.8v8l-0.4,9.5h0.1l2.2-9.4l2.6-8.1h3.7V261h-2.7v-10.9l0.4-8.2h-0.1l-2.1,7.9l-3.5,11.1
		L528.5,261z"/>
	<path class="st3" d="M545.9,240.8h-4v-2.4h10.8v2.4h-4V261h-2.8V240.8z"/>
	<path class="st3" d="M566.7,257.5l-3.4,3.6h-4.4l-3.4-3.6v-16l3.4-3.4h4.3l3.4,3.4L566.7,257.5z M564,256.4v-13.9l-1.8-1.8h-2.1
		l-1.8,1.8v13.9l1.9,2h2L564,256.4z"/>
	<path class="st3" d="M581.8,241.8v8.1l-3.5,3.6h-4.4v7.4h-2.8v-22.7h7.1L581.8,241.8z M577.1,250.8l1.9-2v-5.9l-1.9-1.8h-3.2v9.7
		L577.1,250.8z"/>
	<path class="st3" d="M585.8,261v-22.7h2.8v8l-0.4,9.5h0.1l2.2-9.4l2.6-8.1h3.7V261H594v-10.9l0.4-8.2h-0.1l-2.1,7.9l-3.5,11.1
		L585.8,261z"/>
	<path class="st3" d="M608.4,253.4h-2.4l-3.5,7.6h-3l4-8.7l-2.4-2.6v-7.9l3.5-3.5h6.7V261h-2.8V253.4z M608.4,241.1h-2.8l-1.9,1.9
		v5.6l1.9,2h2.8V241.1z"/>
	<path class="st3" d="M490.8,302.6l-5.5,5.8h-7l-5.5-5.8v-25.8l5.5-5.5h7l5.5,5.5L490.8,302.6z M486.4,300.9v-22.3l-2.9-2.9h-3.3
		l-2.9,2.9v22.3l3,3.2h3.2L486.4,300.9z"/>
	<path class="st3" d="M502.5,271.8V304h7.7v-3.9h4.4v8.1h-16.6v-30.6l1.9-1.1v-0.3h-4.5v-4.4H502.5z"/>
	<path class="st3" d="M517.4,276.3v-4.4h14.3l5.5,5.5v25.5l-5.5,5.5H520v-30.5l1.9-1.1v-0.3L517.4,276.3z M529.8,303.8l2.9-2.9
		v-21.8l-2.9-2.8h-5.4v27.5H529.8z"/>
	<path class="st3" d="M541.8,271.8h13.3l5.5,5.5v8.9l-2.7,3.2l3.6,3.6v9.7l-5.5,5.5h-11.7v-30.4l1.9-1.1v-0.3h-4.5V271.8z
		 M553.5,287.6l2.6-3.1v-5.3l-2.8-2.8h-4.5v11.2L553.5,287.6z M548.9,303.8h5.4l2.8-2.8v-5.9l-3.1-3.1h-5.1V303.8z"/>
	<path class="st3" d="M585.5,302.6l-5.5,5.8h-7l-5.5-5.8v-25.8l5.5-5.5h7l5.5,5.5V302.6z M581.1,300.9v-22.3l-2.9-2.9h-3.3l-2.9,2.9
		v22.3l3,3.2h3.2L581.1,300.9z"/>
	<path class="st3" d="M601.2,289.4l3-9.8l2.8-7.9h4.7l-8.4,23v13.6h-4.4v-13.6l-6.4-17.6l1.6-0.9v-0.3h-4.9v-4.1h6.1l2.8,8l2.9,9.7
		L601.2,289.4z"/>
	<rect x="469.4" y="228.2" class="st4" width="141.9" height="2.7"/>
	<rect x="473" y="316.8" class="st4" width="141.9" height="2.7"/>
	<polygon points="135.6,355.2 142.3,355.2 139.6,356.8 142.4,358.6 135.6,358.6 	"/>
	<rect x="135.6" y="355.3" width="0.6" height="9.2"/>
	<polygon points="26.8,466.9 33.5,466.9 30.8,468.6 33.6,470.3 26.8,470.3 	"/>
	<rect x="26.8" y="467" width="0.6" height="9.2"/>
	<polygon points="14.5,468.9 21.2,468.9 18.5,470.6 21.3,472.3 14.5,472.3 	"/>
	<rect x="14.5" y="469" width="0.6" height="9.2"/>
	<polygon points="161.6,363.4 168.3,363.4 165.6,365.1 168.4,366.8 161.6,366.8 	"/>
	<rect x="161.6" y="363.5" width="0.6" height="9.2"/>
	<polygon points="187.7,419.1 194.5,419.1 191.8,420.8 194.5,422.6 187.7,422.6 	"/>
	<rect x="187.7" y="419.3" width="0.6" height="9.2"/>
	<polygon points="180.5,411.5 187.2,411.5 184.5,413.2 187.3,414.9 180.5,414.9 	"/>
	<rect x="180.5" y="411.6" width="0.6" height="9.2"/>
	<polygon points="378.5,427.1 385.2,427.1 382.5,428.8 385.3,430.5 378.5,430.5 	"/>
	<rect x="378.5" y="427.2" width="0.6" height="9.2"/>
	<polygon points="331.7,439 338.4,439 335.7,440.7 338.5,442.4 331.7,442.4 	"/>
	<rect x="331.7" y="439.1" width="0.6" height="9.2"/>
	<polygon points="317.4,424.4 324.2,424.4 321.5,426.1 324.2,427.8 317.4,427.8 	"/>
	<rect x="317.4" y="424.5" width="0.6" height="9.2"/>
	<polygon points="332.9,375.5 339.6,375.5 336.9,377.2 339.7,378.9 332.9,378.9 	"/>
	<rect x="332.9" y="375.6" width="0.6" height="9.2"/>
	<polygon points="288.2,412.2 295,412.2 292.2,413.9 295,415.6 288.2,415.6 	"/>
	<rect x="288.2" y="412.3" width="0.6" height="9.2"/>
	<polygon points="268.1,427.6 274.8,427.6 272.1,429.3 274.9,431.1 268.1,431.1 	"/>
	<rect x="268.1" y="427.7" width="0.6" height="9.2"/>
	<polygon points="264.7,402.5 271.4,402.5 268.7,404.2 271.5,406 264.7,406 	"/>
	<rect x="264.7" y="402.6" width="0.6" height="9.2"/>
	<polygon points="427.8,197.3 434.5,197.3 431.8,199 434.6,200.8 427.8,200.8 	"/>
	<rect x="427.8" y="197.4" width="0.6" height="9.2"/>
	<polygon points="447.7,322.9 454.4,322.9 451.7,324.6 454.5,326.3 447.7,326.3 	"/>
	<rect x="447.7" y="323" width="0.6" height="9.2"/>
	<polygon points="370.3,243.9 377.1,243.9 374.3,245.5 377.1,247.3 370.3,247.3 	"/>
	<rect x="370.3" y="244" width="0.6" height="9.2"/>
	<polygon points="377.3,294.7 384,294.7 381.3,296.4 384.1,298.2 377.3,298.2 	"/>
	<rect x="377.3" y="294.9" width="0.6" height="9.2"/>
	<polygon points="365.2,291.8 372,291.8 369.3,293.5 372,295.3 365.2,295.3 	"/>
	<rect x="365.2" y="292" width="0.6" height="9.2"/>
	<polygon points="358.3,341.5 365.1,341.5 362.4,343.2 365.1,344.9 358.3,344.9 	"/>
	<rect x="358.3" y="341.6" width="0.6" height="9.2"/>
	<polygon points="377.6,345.1 384.3,345.1 381.6,346.8 384.4,348.5 377.6,348.5 	"/>
	<rect x="377.6" y="345.2" width="0.6" height="9.2"/>
	<polygon points="354.9,324.6 361.7,324.6 358.9,326.3 361.7,328 354.9,328 	"/>
	<rect x="354.9" y="324.7" width="0.6" height="9.2"/>
	<polygon points="413.8,350.7 420.6,350.7 417.9,352.4 420.7,354.2 413.8,354.2 	"/>
	<rect x="413.8" y="350.9" width="0.6" height="9.2"/>
	<polygon points="307.1,331.9 313.8,331.9 311.1,333.6 313.9,335.3 307.1,335.3 	"/>
	<rect x="307.1" y="332" width="0.6" height="9.2"/>
	<polygon points="279.7,318.2 286.4,318.2 283.7,319.9 286.5,321.6 279.7,321.6 	"/>
	<rect x="279.7" y="318.3" width="0.6" height="9.2"/>
	<polygon points="279.7,349.5 286.4,349.5 283.7,351.2 286.5,352.9 279.7,352.9 	"/>
	<rect x="279.7" y="349.6" width="0.6" height="9.2"/>
	<polygon points="276.9,373 283.6,373 280.9,374.7 283.7,376.4 276.9,376.4 	"/>
	<rect x="276.9" y="373.1" width="0.6" height="9.2"/>
	<polygon points="266.5,336.6 273.2,336.6 270.5,338.3 273.3,340 266.5,340 	"/>
	<rect x="266.5" y="336.7" width="0.6" height="9.2"/>
	<polygon points="265.8,350.8 272.6,350.8 269.8,352.5 272.6,354.2 265.8,354.2 	"/>
	<rect x="265.8" y="350.9" width="0.6" height="9.2"/>
	<polygon points="175.6,306.8 182.4,306.8 179.6,308.5 182.4,310.3 175.6,310.3 	"/>
	<rect x="175.6" y="307" width="0.6" height="9.2"/>
	<polygon points="197.7,336.6 204.5,336.6 201.8,338.3 204.5,340 197.7,340 	"/>
	<rect x="197.7" y="336.7" width="0.6" height="9.2"/>
	<polygon points="213.9,328 220.6,328 217.9,329.7 220.7,331.4 213.9,331.4 	"/>
	<rect x="213.9" y="328.1" width="0.6" height="9.2"/>
	<polygon points="172.2,364.7 179,364.7 176.2,366.4 179,368.1 172.2,368.1 	"/>
	<rect x="172.2" y="364.8" width="0.6" height="9.2"/>
	<polygon points="197.7,376.2 204.5,376.2 201.8,377.9 204.5,379.6 197.7,379.6 	"/>
	<rect x="197.7" y="376.3" width="0.6" height="9.2"/>
	<polygon points="229.5,357.1 236.2,357.1 233.5,358.8 236.3,360.5 229.5,360.5 	"/>
	<rect x="229.5" y="357.2" width="0.6" height="9.2"/>
	<polygon points="259.6,368.6 266.3,368.6 263.6,370.3 266.4,372 259.6,372 	"/>
	<rect x="259.6" y="368.7" width="0.6" height="9.2"/>
	<polygon points="245.5,435.6 252.3,435.6 249.6,437.3 252.3,439.1 245.5,439.1 	"/>
	<rect x="245.5" y="435.8" width="0.6" height="9.2"/>
	<polygon points="240.9,422.5 247.7,422.5 244.9,424.2 247.7,426 240.9,426 	"/>
	<rect x="240.9" y="422.7" width="0.6" height="9.2"/>
	<polygon points="240.2,429.1 247,429.1 244.3,430.8 247,432.6 240.2,432.6 	"/>
	<rect x="240.2" y="429.2" width="0.6" height="9.2"/>
	<polygon points="225.5,419 232.2,419 229.5,420.7 232.3,422.4 225.5,422.4 	"/>
	<rect x="225.5" y="419.1" width="0.6" height="9.2"/>
	<polygon points="219.4,420.4 226.2,420.4 223.5,422.1 226.2,423.8 219.4,423.8 	"/>
	<rect x="219.4" y="420.5" width="0.6" height="9.2"/>
	<polygon points="222.1,426.2 228.8,426.2 226.1,427.8 228.9,429.6 222.1,429.6 	"/>
	<rect x="222.1" y="426.3" width="0.6" height="9.2"/>
	<polygon points="208.7,416 215.4,416 212.7,417.7 215.5,419.4 208.7,419.4 	"/>
	<rect x="208.7" y="416.1" width="0.6" height="9.2"/>
	<polygon points="217,403.6 223.7,403.6 221,405.3 223.8,407 217,407 	"/>
	<rect x="217" y="403.7" width="0.6" height="9.2"/>
	<polygon points="231.1,389.2 237.9,389.2 235.2,390.9 237.9,392.7 231.1,392.7 	"/>
	<rect x="231.1" y="389.3" width="0.6" height="9.2"/>
	<polygon points="235.9,366.4 242.7,366.4 240,368.1 242.8,369.8 235.9,369.8 	"/>
	<rect x="235.9" y="366.5" width="0.6" height="9.2"/>
	<polygon points="247.8,325.5 254.5,325.5 251.8,327.2 254.6,328.9 247.8,328.9 	"/>
	<rect x="247.8" y="325.6" width="0.6" height="9.2"/>
	<polygon points="252.1,331.3 258.8,331.3 256.1,333 258.9,334.7 252.1,334.7 	"/>
	<rect x="252.1" y="331.4" width="0.6" height="9.2"/>
	<polygon points="231.3,325.6 238.1,325.6 235.4,327.2 238.1,329 231.3,329 	"/>
	<rect x="231.3" y="325.7" width="0.6" height="9.2"/>
	<polygon points="185.8,324.1 192.6,324.1 189.9,325.8 192.6,327.6 185.8,327.6 	"/>
	<rect x="185.8" y="324.3" width="0.6" height="9.2"/>
	<polygon points="182.9,351.7 189.6,351.7 186.9,353.4 189.7,355.2 182.9,355.2 	"/>
	<rect x="182.9" y="351.9" width="0.6" height="9.2"/>
	<polygon points="217,345 223.7,345 221,346.7 223.8,348.4 217,348.4 	"/>
	<rect x="217" y="345.1" width="0.6" height="9.2"/>
	<polygon points="214.4,359.9 221.2,359.9 218.5,361.6 221.3,363.3 214.4,363.3 	"/>
	<rect x="214.4" y="360" width="0.6" height="9.2"/>
	<polygon points="233,338.6 239.8,338.6 237.1,340.3 239.8,342 233,342 	"/>
	<rect x="233" y="338.7" width="0.6" height="9.2"/>
	<polygon points="238.7,378.5 245.4,378.5 242.7,380.2 245.5,382 238.7,382 	"/>
	<rect x="238.7" y="378.6" width="0.6" height="9.2"/>
	<polygon points="190.7,225.1 197.5,225.1 194.8,226.8 197.5,228.5 190.7,228.5 	"/>
	<rect x="190.7" y="225.2" width="0.6" height="9.2"/>
	<polygon points="222,368 228.8,368 226.1,369.7 228.9,371.4 222,371.4 	"/>
	<rect x="222" y="368.1" width="0.6" height="9.2"/>
	<polygon points="204.1,361.3 210.9,361.3 208.1,363 210.9,364.7 204.1,364.7 	"/>
	<rect x="204.1" y="361.4" width="0.6" height="9.2"/>
	<polygon points="195.7,355.5 202.4,355.5 199.7,357.2 202.5,358.9 195.7,358.9 	"/>
	<rect x="195.7" y="355.6" width="0.6" height="9.2"/>
	<polygon points="188,368.1 194.8,368.1 192.1,369.7 194.8,371.5 188,371.5 	"/>
	<rect x="188" y="368.2" width="0.6" height="9.2"/>
	<polygon points="214.1,380.5 220.8,380.5 218.1,382.2 220.9,384 214.1,384 	"/>
	<rect x="214.1" y="380.6" width="0.6" height="9.2"/>
	<polygon points="244.2,348.3 251,348.3 248.3,349.9 251.1,351.7 244.2,351.7 	"/>
	<rect x="244.2" y="348.4" width="0.6" height="9.2"/>
	<polygon points="235.6,411.3 242.4,411.3 239.7,413 242.5,414.8 235.6,414.8 	"/>
	<rect x="235.6" y="411.5" width="0.6" height="9.2"/>
	<polygon points="240.8,399.4 247.6,399.4 244.9,401.1 247.6,402.8 240.8,402.8 	"/>
	<rect x="240.8" y="399.5" width="0.6" height="9.2"/>
	<polygon points="300.7,365 307.5,365 304.7,366.7 307.5,368.5 300.7,368.5 	"/>
	<rect x="300.7" y="365.2" width="0.6" height="9.2"/>
	<polygon points="288.2,363.5 295,363.5 292.2,365.2 295,366.9 288.2,366.9 	"/>
	<rect x="288.2" y="363.6" width="0.6" height="9.2"/>
	<polygon points="199.4,318.3 206.2,318.3 203.4,320 206.2,321.7 199.4,321.7 	"/>
	<rect x="199.4" y="318.4" width="0.6" height="9.2"/>
	<polygon points="217,386.3 223.7,386.3 221,388 223.8,389.7 217,389.7 	"/>
	<rect x="217" y="386.4" width="0.6" height="9.2"/>
	<polygon points="246.8,362.2 253.6,362.2 250.8,363.9 253.6,365.7 246.8,365.7 	"/>
	<rect x="246.8" y="362.4" width="0.6" height="9.2"/>
	<polygon points="317.4,353.2 324.2,353.2 321.5,354.8 324.2,356.6 317.4,356.6 	"/>
	<rect x="317.4" y="353.3" width="0.6" height="9.2"/>
	<polygon points="285.1,338.6 291.8,338.6 289.1,340.3 291.9,342 285.1,342 	"/>
	<rect x="285.1" y="338.7" width="0.6" height="9.2"/>
	<polygon points="246.8,309.2 253.6,309.2 250.9,310.9 253.6,312.6 246.8,312.6 	"/>
	<rect x="246.8" y="309.3" width="0.6" height="9.2"/>
	<polygon points="299.5,316.1 306.3,316.1 303.6,317.8 306.3,319.5 299.5,319.5 	"/>
	<rect x="299.5" y="316.2" width="0.6" height="9.2"/>
	<polygon points="302.3,349.6 309.1,349.6 306.4,351.2 309.1,353 302.3,353 	"/>
	<rect x="302.3" y="349.7" width="0.6" height="9.2"/>
	<polygon points="256.8,310.6 263.5,310.6 260.8,312.3 263.6,314 256.8,314 	"/>
	<rect x="256.8" y="310.7" width="0.6" height="9.2"/>
	<polygon points="232.6,312.3 239.4,312.3 236.6,314 239.4,315.7 232.6,315.7 	"/>
	<rect x="232.6" y="312.4" width="0.6" height="9.2"/>
	<polygon points="224.3,337.6 231.1,337.6 228.4,339.2 231.1,341 224.3,341 	"/>
	<rect x="224.3" y="337.7" width="0.6" height="9.2"/>
	<polygon points="185.9,340.2 192.6,340.2 189.9,341.9 192.7,343.6 185.9,343.6 	"/>
	<rect x="185.9" y="340.3" width="0.6" height="9.2"/>
	<polygon points="204.9,381.2 211.6,381.2 208.9,382.9 211.7,384.6 204.9,384.6 	"/>
	<rect x="204.9" y="381.3" width="0.6" height="9.2"/>
	<polygon points="328.3,336.9 335,336.9 332.3,338.6 335.1,340.4 328.3,340.4 	"/>
	<rect x="328.3" y="337.1" width="0.6" height="9.2"/>
	<polygon points="388.2,374.9 395,374.9 392.3,376.6 395.1,378.4 388.2,378.4 	"/>
	<rect x="388.2" y="375.1" width="0.6" height="9.2"/>
	<polygon points="223.8,309.3 230.5,309.3 227.8,311 230.6,312.7 223.8,312.7 	"/>
	<rect x="223.8" y="309.4" width="0.6" height="9.2"/>
	<polygon points="163.3,329 170.1,329 167.4,330.7 170.1,332.4 163.3,332.4 	"/>
	<rect x="163.3" y="329.1" width="0.6" height="9.2"/>
	<polygon points="166.7,340.2 173.5,340.2 170.8,341.9 173.5,343.7 166.7,343.7 	"/>
	<rect x="166.7" y="340.4" width="0.6" height="9.2"/>
	<polygon points="294.3,306.8 301.1,306.8 298.3,308.5 301.1,310.3 294.3,310.3 	"/>
	<rect x="294.3" y="307" width="0.6" height="9.2"/>
	<polygon points="340.4,343.9 347.2,343.9 344.4,345.6 347.2,347.3 340.4,347.3 	"/>
	<rect x="340.4" y="344" width="0.6" height="9.2"/>
	<polygon points="338.8,319.9 345.6,319.9 342.9,321.6 345.6,323.4 338.8,323.4 	"/>
	<rect x="338.8" y="320" width="0.6" height="9.2"/>
	<polygon points="357.6,355.9 364.4,355.9 361.7,357.5 364.5,359.3 357.6,359.3 	"/>
	<rect x="357.6" y="356" width="0.6" height="9.2"/>
	<polygon points="200.4,303.5 207.1,303.5 204.4,305.2 207.2,306.9 200.4,306.9 	"/>
	<rect x="200.4" y="303.6" width="0.6" height="9.2"/>
	<polygon points="622.3,425.1 629.1,425.1 626.4,426.8 629.1,428.6 622.3,428.6 	"/>
	<rect x="622.3" y="425.3" width="0.6" height="9.2"/>
	<polygon points="614.9,429 621.7,429 619,430.7 621.7,432.5 614.9,432.5 	"/>
	<rect x="614.9" y="429.2" width="0.6" height="9.2"/>
	<polygon points="721.3,365 728.1,365 725.4,366.7 728.1,368.5 721.3,368.5 	"/>
	<rect x="721.3" y="365.2" width="0.6" height="9.2"/>
	<polygon points="202.1,394.7 208.8,394.7 206.1,396.4 208.9,398.2 202.1,398.2 	"/>
	<rect x="202.1" y="394.8" width="0.6" height="9.2"/>
	<polygon points="130.8,428.4 137.6,428.4 134.9,430.1 137.6,431.8 130.8,431.8 	"/>
	<rect x="130.8" y="428.5" width="0.6" height="9.2"/>
	<polygon points="185.3,477.1 192.1,477.1 189.4,478.8 192.1,480.6 185.3,480.6 	"/>
	<rect x="185.3" y="477.3" width="0.6" height="9.2"/>
</g>
</svg>
