<svg width="327" height="548" viewBox="0 0 327 548" fill="none" xmlns="http://www.w3.org/2000/svg">
<path d="M264.668 387.073C264.448 386.255 264.229 385.437 264.01 384.619L195.019 127.141C194.8 126.323 194.581 125.505 194.362 124.687C211.353 119.689 221.246 101.95 216.672 84.6798L216.621 84.6934C211.896 67.1693 194.019 56.7254 176.623 61.3262L172.923 62.3177C157.735 29.2535 118.872 14.739 86.1192 29.8992C61.0027 41.5253 45.9468 67.8637 48.5386 95.6465L44.8384 96.6379C27.5608 101.78 17.7522 120.078 22.9306 137.508C27.8294 153.996 44.4845 163.962 61.1573 160.379C61.3765 161.197 61.5957 162.015 61.8149 162.833L130.806 420.311C131.025 421.129 131.244 421.947 131.463 422.765C114.307 428.298 104.912 446.816 110.478 464.126C115.744 480.5 132.615 490.085 149.201 486.126L152.902 485.134C168.09 518.199 206.953 532.713 239.706 517.553C264.822 505.927 279.878 479.588 277.286 451.806L280.986 450.814C298.264 445.672 308.073 427.375 302.894 409.944C297.995 393.456 281.341 383.492 264.668 387.073ZM76.2269 68.0069L76.3283 67.9797C88.2121 47.2135 114.595 40.1579 135.258 52.2211C141.822 56.053 147.278 61.5545 151.077 68.1713L70.4858 89.7657C70.464 82.1218 72.4446 74.6166 76.2269 68.0069ZM43.1811 131.002C41.668 125.355 44.9802 119.56 50.5785 118.06L182.364 82.7486C187.996 81.3818 193.682 84.8793 195.062 90.5603C195.685 93.1212 195.338 95.8198 194.09 98.1282L194.094 98.3463C192.712 100.741 190.449 102.489 187.793 103.213L56.0584 138.511C50.46 140.011 44.6946 136.65 43.1811 131.002ZM132.56 341.096L122.313 302.853L237.062 369.81L242.542 390.261C242.836 391.058 243.056 391.879 243.2 392.715L228.095 396.763L132.56 341.096ZM197.609 405.041L153.106 416.965C152.813 416.169 152.593 415.348 152.449 414.511L140.969 371.667L197.609 405.041ZM193.265 206.356L203.526 244.651L88.7625 177.642L83.2827 157.191C82.9891 156.394 82.7692 155.573 82.6252 154.737L97.527 150.744L193.265 206.356ZM128.013 142.465L172.718 130.487C173.012 131.283 173.232 132.104 173.376 132.941L184.856 175.785L128.013 142.465ZM211.718 275.225L228.856 339.185L114.107 272.227L96.9686 208.267L211.718 275.225ZM249.699 479.418C237.816 500.184 211.432 507.24 190.77 495.177C184.206 491.345 178.749 485.843 174.95 479.227L255.339 457.686C255.361 465.33 253.38 472.835 249.598 479.445L249.699 479.418ZM281.327 424.465C279.957 426.772 277.762 428.461 275.192 429.189L143.407 464.5C137.809 466 132.043 462.638 130.53 456.991C129.017 451.344 132.329 445.549 137.927 444.049L269.712 408.738C272.405 408.101 275.241 408.562 277.607 410.02L277.695 409.941C282.674 412.958 284.3 419.46 281.327 424.465Z" fill="white"/>
</svg>
