<?xml version="1.0" encoding="utf-8"?>
<!-- Generator: Adobe Illustrator 21.0.0, SVG Export Plug-In . SVG Version: 6.00 Build 0)  -->
<svg version="1.1" xmlns="http://www.w3.org/2000/svg" xmlns:xlink="http://www.w3.org/1999/xlink" x="0px" y="0px"
	 viewBox="0 0 1240 1240" style="enable-background:new 0 0 1240 1240;" xml:space="preserve">
<style type="text/css">
	.st0{stroke:#000000;stroke-miterlimit:10;}
	.st1{fill:#FFFFFF;}
</style>
<g id="Layer_2">
	<rect x="-17.9" y="-21.9" class="st0" width="1279.8" height="1279.8"/>
</g>
<g id="Layer_1">
	<g id="Слой_x0020_1">
		<path class="st1" d="M843.6,445.5h3.3l7.5,16.7H867l-9.2-18.4c1.7-0.8,2.5-1.7,4.2-3.3c1.7-2.5,3.3-5,2.5-8.4
			c0-8.4-5.9-14.2-14.2-14.2h-17.6v44.4h10.9V445.5z M843.6,428h5.9c2.5,0,4.2,1.7,4.2,4.2l0,0c0,2.5-1.7,5-4.2,5l0,0h-5.9V428z"/>
		<path class="st1" d="M1001.8,453.1c-1.7,0-4.2-0.8-6.7-1.7c-0.8,0-1.7-0.8-2.5-1.7l-7.5,6.7c1.7,1.7,4.2,3.3,5.9,4.2
			c3.3,0.8,6.7,1.7,10,1.7c11.7,0,18.4-5,18.4-14.2c0-7.5-4.2-11.7-12.6-12.6l-5-0.8c-2.5-0.8-4.2-1.7-4.2-3.3
			c0-2.5,2.5-4.2,6.7-4.2c1.7,0,3.3,0,4.2,0.8c1.7,0,2.5,0.8,2.5,1.7l0,0l7.5-6.7c-1.7-1.7-3.3-2.5-5.9-3.3
			c-2.5-1.7-5.9-1.7-9.2-1.7c-10,0-15.9,5-15.9,14.2c0,6.7,3.3,10.9,11.7,12.6l5,0.8c2.5,0,4.2,0.8,4.2,3.3S1006,453.1,1001.8,453.1
			z"/>
		<polygon class="st1" points="1037,444.7 1047.9,444.7 1047.9,462.3 1058.8,462.3 1058.8,417.9 1047.9,417.9 1047.9,435.5 
			1037,435.5 1037,417.9 1026.1,417.9 1026.1,462.3 1037,462.3 		"/>
		<path class="st1" d="M905.5,448.9c0-4.2-1.7-6.7-5.9-9.2l0,0c3.3-2.5,5-5.9,5-9.2c0-7.5-5.9-12.6-14.2-12.6H872v44.4h19.3
			C899.7,462.3,905.5,457.3,905.5,448.9z M882.9,428h6.7c2.5,0,4.2,1.7,4.2,3.3c0,2.5-1.7,4.2-4.2,4.2h-6.7V428z M890.5,452.2h-7.5
			v-7.5h7.5c1.7,0,4.2,1.7,4.2,3.3c0,0,0,0,0,0.8c0,1.7-1.7,3.3-3.3,3.3C890.5,452.2,890.5,452.2,890.5,452.2z"/>
		<path class="st1" d="M1094.8,457.3c5-4.2,5-10.9,5-16.7l0,0v-4.2c0-6.7-1.7-10.9-5-13.4c-2.5-3.3-7.5-5-11.7-5
			c-5-0.8-9.2,1.7-12.6,5s-4.2,6.7-4.2,15.9v2.5c0,5.9,0,11.7,4.2,15.9C1077.2,464,1088.1,464,1094.8,457.3z M1077.2,438
			c0-3.3,0-6.7,1.7-8.4c0.8-1.7,2.5-2.5,4.2-2.5s3.3,0.8,4.2,2.5c0.8,1.7,1.7,4.2,1.7,8.4v3.3c0,5.9-0.8,8.4-1.7,10
			c-0.8,0.8-2.5,1.7-4.2,1.7s-3.3-0.8-4.2-1.7c-1.7-1.7-1.7-4.2-1.7-10V438z"/>
		<path class="st1" d="M801.7,455.6h13.4l1.7,6.7h11.7l-15.9-44.4h-8.4l-15.9,44.4h10.9L801.7,455.6z M808.4,434.7l3.3,11.7h-7.5
			L808.4,434.7z"/>
		<path class="st1" d="M960,445.5h4.2l7.5,16.7h12.6l-9.2-18.4c1.7-0.8,2.5-1.7,4.2-3.3c1.7-2.5,2.5-5,2.5-8.4
			c0-8.4-5.9-14.2-15.1-14.2h-16.7v44.4h10V445.5z M960,428h6.7c2.5,0,4.2,1.7,4.2,4.2l0,0c0,2.5-1.7,5-4.2,5l0,0H960V428z"/>
		<polygon class="st1" points="942.4,452.2 923.1,452.2 923.1,444.7 939.9,444.7 939.9,435.5 923.1,435.5 923.1,428 942.4,428 
			942.4,417.9 912.2,417.9 912.2,462.3 942.4,462.3 		"/>
		<polygon class="st1" points="383,588.7 383.9,588.7 383.9,401.2 343.7,411.2 343.7,582.9 		"/>
		<path class="st1" d="M731.4,665.8c-49.4-12.6-24.3,34.3-44.4-6.7l17.6-3.3l-600.4-92.1l-3.3,98l391.9,52.8l0.8-56.1l129.8,13.4
			c-26.8,35.2-197.6,103.8-232.8,118.1l-237,87.1c-6.7,1.7-9.2,2.5-14.2,8.4c-16.7,17.6-22.6,54.4,10.9,70.3
			c4.2,1.7,8.4,3.3,13.4,3.3C232.3,959.7,434.9,850,491,819c31.8-16.7,199.3-124.8,222.7-121.4c37.7,5.9,62.8,20.9,104.7,20.9
			l10-18.4l-13.4-17.6C801.7,681.7,741.4,685,731.4,665.8z M177.9,928.7H177c-7.5,0-14.2-6.7-14.2-14.2c0-8.4,6.7-14.2,14.2-14.2
			l0,0c8.4,0,14.2,6.7,14.2,14.2C191.3,922,185.4,928.7,177.9,928.7z M655.2,702.6L655.2,702.6c-8.4,0-15.1-6.7-15.1-15.1
			c0-7.5,6.7-14.2,15.1-14.2l0,0c7.5,0.8,14.2,6.7,14.2,15.1C669.4,695.9,662.7,702.6,655.2,702.6z"/>
		<path class="st1" d="M885.4,474.8L885.4,474.8c-7.5-1.7-15.1-2.5-22.6-2.5c-6.7,0-13.4,0.8-20.1,2.5
			c-15.9,3.3-30.1,10.9-40.2,22.6c-15.1,16.7-23.4,38.5-23.4,65.3s7.5,49.4,22.6,65.3c14.2,16.7,35.2,25.1,61.1,25.1
			s46.1-8.4,61.1-24.3c15.1-16.7,22.6-38.5,22.6-66.2c0-28.5-7.5-50.2-21.8-66.2C913.9,484.9,900.5,477.4,885.4,474.8z M893,604.6
			c-6.7,10-17.6,15.9-30.1,15.1c-27.6,0-41-19.3-41-56.9l0,0c0-18.4,3.3-31.8,10.9-41.9s17.6-15.1,30.1-15.1
			c27.6,0,41.9,18.4,41.9,56.9C904.7,580.4,900.5,594.6,893,604.6z"/>
		<path class="st1" d="M1124.1,417.9h-17.6v44.4h10.9v-15.9h6.7c9.2,0,15.1-5.9,15.1-14.2S1133.3,417.9,1124.1,417.9z M1124.1,437.2
			L1124.1,437.2h-6.7V428h6.7c2.5,0,4.2,1.7,4.2,4.2l0,0C1128.3,434.7,1126.6,437.2,1124.1,437.2z"/>
		<path class="st1" d="M1035.3,596.3l-47.7-120.6h-41.9l54.4,134.8c7.5,20.1,11.7,34.3,12.6,45.2c0,2.5,0,5-0.8,6.7
			c-1.7,3.3-3.3,5.9-5.9,8.4s-6.7,6.7-15.1,9.2c-4.2,0.8-9.2,1.7-14.2,1.7c-3.3,0-6.7,0-10.9,0l-15.9,18.4l15.9,17.6l0,0
			c58.6,2.5,76.2-34.3,76.2-34.3v-0.8l0.8-0.8l77.9-206h-41.9L1035.3,596.3z"/>
		<path class="st1" d="M603.3,622.2L603.3,622.2z"/>
		<path class="st1" d="M779.9,439.7L779.9,439.7L779.9,439.7L779.9,439.7z"/>
		<path class="st1" d="M718,639.8l10.9,1.7c5-3.3,10.9-8.4,14.2-10.9c15.9-12.6,24.3-29.3,24.3-51.1c0-32.7-15.1-53.6-44.4-63.6
			c20.1-10.9,30.1-26,30.1-45.2c0-19.3-6.7-34.3-20.9-45.2s-33.5-15.9-57.8-15.9c-13.4,0-36,0.8-67.8,2.5l-3.3,210.2l24.3,4.2
			L718,639.8z M723.8,574.5c0,14.2-5,25.1-13.4,31.8c-8.4,5.9-21.8,9.2-41,9.2c-5,0-11.7-0.8-20.1-0.8V536l0,0
			c10,0,16.7-0.8,20.9-0.8c20.1,0,33.5,3.3,41,9.2C719.6,551,723.8,560.3,723.8,574.5z M673.6,444.7c25.1,0,37.7,9.2,37.7,27.6
			c0,20.9-14.2,31-41.9,31c-6.7,0-14.2,0-20.1-0.8v-56.9l0,0C658.5,444.7,666.1,444.7,673.6,444.7z"/>
		<path class="st1" d="M759.8,462.3h11.7c8.4,0,13.4-5,13.4-13.4c0-4.2-1.7-6.7-5-9.2l0,0l0,0l0,0c3.3-2.5,5-5.9,5-9.2
			c0-7.5-5.9-12.6-14.2-12.6h-18.4V438c0.8,0.8,1.7,2.5,1.7,3.3C757.3,448.1,759,454.7,759.8,462.3z M763.2,428h6.7
			c2.5,0,4.2,1.7,4.2,3.3c0,2.5-1.7,4.2-4.2,4.2h-6.7V428z M763.2,444.7h6.7c2.5,0,4.2,0.8,4.2,3.3c0,0,0,0,0,0.8
			c0,1.7-1.7,3.3-4.2,3.3h-6.7V444.7L763.2,444.7z"/>
		<path class="st1" d="M731.4,665.8L731.4,665.8z"/>
		<path class="st1" d="M149.4,517.6c1.7-20.1,5.9-36,14.2-49.4c10.9-14.2,25.1-21.8,43.5-21.8c41,0,62,28.5,62,84.6
			c0,15.1-1.7,28.5-5,40.2l43.5,6.7c3.3-15.1,5.9-31,5-46.9c0-38.5-8.4-67.8-26.8-89.6c-18.4-20.9-44.4-31.8-78.7-32.7
			c-31,0-56.1,10.9-74.5,34.3c-16.7,20.9-26,46.1-27.6,75.4v9.2v0.8l0,0c0,0.8,0,0.8,0,1.7l-0.8,16.7l44.4,6.7
			C147.7,545.2,148.6,527.6,149.4,517.6z"/>
		<path class="st1" d="M418.2,594.6l49.4,7.5c-1.7-1.7-2.5-4.2-4.2-5.9c-4.2-8.4-6.7-19.3-6.7-31.8c0-18.4,5-32.7,13.4-42.7
			c9.2-10,21.8-15.1,37.7-15.1c9.2,0,18.4,3.3,26.8,10.9v94.6l41,5.9V401.2l-41,10v69.5c-10.9-5.9-23.4-8.4-36-8.4
			c-23.4,0-43.5,8.4-59.5,26c-15.9,17.6-24.3,39.4-24.3,67c0,9.2,0.8,17.6,2.5,26L418.2,594.6z"/>
	</g>
</g>
</svg>
