<?xml version="1.0" standalone="no"?>
<!DOCTYPE svg PUBLIC "-//W3C//DTD SVG 20010904//EN"
 "http://www.w3.org/TR/2001/REC-SVG-20010904/DTD/svg10.dtd">
<svg version="1.0" xmlns="http://www.w3.org/2000/svg"
 width="1240.000000pt" height="1240.000000pt" viewBox="0 0 1240.000000 1240.000000"
 preserveAspectRatio="xMidYMid meet">
<metadata>
Created by potrace 1.11, written by Peter Selinger 2001-2013
</metadata>
<g transform="translate(0.000000,1240.000000) scale(0.100000,-0.100000)"
fill="#000000" stroke="none">
<path d="M3348 9525 c-2 -3 -88 -25 -189 -50 -101 -25 -201 -50 -221 -56 l-38
-10 0 -1024 c0 -564 3 -1025 8 -1026 4 0 14 -2 22 -4 8 -1 35 -6 60 -9 25 -4
63 -9 85 -13 56 -9 74 -11 122 -17 23 -3 68 -10 99 -15 32 -6 64 -11 71 -11
11 0 13 201 13 1120 0 927 -2 1120 -13 1120 -8 0 -16 -2 -19 -5z"/>
<path d="M5649 9526 c-2 -3 -16 -7 -29 -10 -14 -2 -54 -12 -90 -21 -36 -9 -76
-18 -90 -21 -14 -3 -43 -10 -65 -16 -22 -6 -47 -12 -55 -14 -8 -1 -30 -7 -48
-12 -18 -6 -33 -11 -35 -11 -1 1 -14 -2 -29 -6 l-28 -7 0 -413 0 -413 -72 30
c-114 48 -221 66 -378 63 -74 -2 -146 -6 -160 -9 -14 -3 -34 -8 -45 -10 -99
-22 -262 -94 -316 -140 -11 -9 -23 -16 -27 -16 -9 0 -125 -111 -167 -160 -122
-140 -209 -329 -245 -533 -15 -90 -19 -261 -10 -431 2 -29 27 -146 33 -152 3
-3 20 -7 39 -10 18 -2 49 -7 68 -11 19 -3 44 -7 55 -9 41 -5 113 -15 200 -29
50 -8 108 -17 130 -20 22 -3 52 -8 68 -11 l27 -6 -30 45 c-66 98 -100 255 -95
432 2 66 6 134 10 150 21 100 28 123 47 169 12 28 37 76 57 106 103 160 290
246 511 236 92 -4 156 -26 238 -79 l62 -41 0 -567 0 -567 38 -7 c20 -4 51 -9
67 -11 82 -11 173 -23 215 -30 14 -2 44 -6 68 -9 23 -2 56 -7 72 -10 l30 -5 0
1295 c0 712 -4 1295 -8 1295 -5 0 -11 -2 -13 -4z"/>
<path d="M1138 9435 c-2 -1 -28 -5 -58 -9 -169 -20 -339 -85 -474 -181 -242
-172 -447 -500 -511 -815 -3 -14 -8 -31 -11 -39 -2 -8 -7 -30 -10 -50 -3 -20
-7 -47 -10 -61 -6 -35 -14 -180 -18 -347 l-4 -142 26 -5 c15 -3 50 -8 77 -12
28 -3 59 -8 70 -10 47 -10 73 -14 115 -18 25 -3 60 -8 78 -11 17 -3 44 -7 60
-9 15 -2 43 -7 63 -11 l37 -7 -1 109 c0 173 20 444 40 527 3 12 6 30 8 41 2
11 4 20 5 20 1 0 3 9 5 20 8 42 39 133 67 194 87 192 230 307 443 358 44 10
217 12 272 2 113 -20 279 -88 291 -120 2 -5 8 -9 12 -9 5 0 28 -19 51 -42 123
-126 206 -330 235 -578 16 -128 9 -472 -11 -570 -3 -14 -8 -38 -10 -55 -6 -29
-9 -45 -21 -84 -4 -17 1 -21 33 -26 21 -3 63 -10 93 -15 30 -6 73 -12 95 -16
22 -3 51 -7 65 -9 14 -2 41 -6 60 -9 20 -2 47 -7 60 -10 51 -12 110 -15 111
-5 2 12 6 28 8 32 2 1 4 16 6 32 2 17 7 41 11 55 4 14 8 39 10 55 2 17 7 55
11 85 15 108 7 580 -12 650 -2 8 -7 33 -10 55 -3 23 -8 52 -11 65 -3 14 -7 36
-10 49 -23 109 -112 328 -164 402 -11 15 -20 32 -20 38 0 6 -4 11 -8 11 -4 0
-15 13 -25 29 -23 39 -152 171 -197 201 -19 13 -37 27 -40 30 -47 51 -318 166
-434 184 -21 4 -48 8 -60 11 -59 13 -113 17 -243 20 -78 1 -143 2 -145 0z"/>
<path d="M6507 9423 c-2 -1 -63 -5 -137 -8 -283 -13 -323 -15 -327 -19 -2 -2
-6 -138 -8 -302 -5 -297 -10 -673 -20 -1274 -14 -825 -14 -930 -2 -931 7 0 19
-2 27 -4 8 -2 31 -7 50 -10 19 -4 46 -8 60 -11 14 -2 52 -9 85 -14 33 -5 71
-12 85 -14 14 -3 61 -10 105 -16 104 -15 135 -19 165 -25 14 -2 45 -7 70 -10
25 -3 57 -8 72 -11 15 -3 42 -7 60 -9 18 -2 67 -9 108 -15 41 -6 102 -15 135
-20 33 -5 69 -11 81 -13 11 -3 47 -8 80 -11 32 -4 66 -8 74 -11 8 -2 35 -6 60
-9 25 -3 56 -8 69 -11 83 -16 107 -14 136 10 15 14 31 25 34 25 3 0 20 13 38
28 17 15 50 42 73 61 144 117 241 284 269 459 9 59 7 278 -3 327 -56 264 -187
429 -430 540 -42 19 -76 36 -76 39 0 2 21 16 46 31 128 75 229 195 275 326 19
54 23 84 22 189 0 69 -3 134 -6 145 -2 11 -10 38 -16 60 -6 22 -11 45 -12 50
-2 6 -16 35 -32 65 -44 81 -88 134 -161 197 -24 20 -154 103 -162 103 -4 0
-35 11 -70 25 -34 14 -79 28 -100 31 -22 3 -43 9 -49 12 -5 4 -17 7 -25 9 -92
14 -151 17 -378 18 -145 0 -264 0 -265 -2z m468 -423 c36 -3 129 -32 165 -50
20 -10 51 -33 69 -52 30 -30 40 -48 69 -119 23 -58 8 -212 -29 -280 -26 -50
-114 -127 -154 -136 -5 -1 -29 -9 -52 -17 -22 -8 -54 -18 -70 -22 -36 -8 -375
-14 -402 -7 -21 5 -21 10 -21 343 0 314 1 339 18 342 16 4 367 2 407 -2z m30
-1081 c6 -4 34 -10 63 -13 30 -3 63 -11 73 -17 10 -5 19 -8 19 -5 0 16 132
-64 168 -101 39 -41 54 -67 92 -158 22 -55 22 -222 0 -310 -50 -195 -164 -289
-407 -332 -37 -6 -378 -11 -425 -5 l-38 4 0 468 c0 303 4 470 10 472 19 6 435
3 445 -3z"/>
<path d="M7778 9290 c-2 -23 -2 -43 0 -45 2 -2 5 -39 6 -82 3 -82 4 -87 30
-145 9 -21 16 -44 16 -52 0 -8 4 -17 9 -21 5 -3 13 -30 16 -60 9 -69 22 -87
66 -87 178 1 231 30 245 132 8 53 0 80 -30 113 l-24 26 24 28 c13 15 24 33 25
38 0 6 3 23 5 39 6 35 -12 84 -40 110 -40 36 -78 44 -212 45 l-132 2 -4 -41z
m245 -94 c43 -33 7 -76 -64 -76 l-49 0 0 45 0 45 48 0 c26 0 55 -7 65 -14z m5
-198 c16 -16 15 -43 -2 -61 -8 -7 -37 -15 -65 -16 l-51 -1 0 45 0 45 53 0 c29
0 58 -5 65 -12z"/>
<path d="M8394 9313 c-3 -10 -10 -27 -14 -38 -5 -11 -23 -63 -41 -115 -18 -52
-37 -101 -42 -107 -5 -7 -6 -13 -2 -13 4 0 2 -7 -5 -15 -7 -8 -9 -15 -5 -15 4
0 3 -6 -3 -12 -5 -7 -17 -40 -27 -73 -9 -33 -20 -64 -25 -70 -4 -5 -10 -20
-13 -32 -4 -19 -1 -23 21 -24 15 -1 32 0 37 1 6 1 22 2 36 2 21 -1 30 7 44 39
17 37 38 48 80 39 5 -1 23 -2 40 -2 42 0 61 -6 63 -21 3 -41 11 -52 40 -58 17
-3 34 -4 37 0 3 3 22 4 41 2 37 -3 39 0 25 27 -8 15 -35 90 -154 427 l-25 70
-51 3 c-42 3 -52 0 -57 -15z m75 -247 c6 -24 13 -51 17 -60 5 -13 -1 -16 -40
-16 -41 0 -46 2 -37 18 5 9 9 22 10 27 3 24 23 75 31 75 4 0 13 -20 19 -44z"/>
<path d="M8740 9070 c0 -302 -10 -278 115 -271 12 1 15 19 15 102 0 97 1 100
22 97 16 -2 30 -24 61 -95 28 -64 47 -95 61 -99 18 -6 48 -6 123 -1 8 0 8 7 0
26 -6 14 -14 28 -17 31 -3 3 -22 40 -42 82 l-37 77 27 23 c28 24 64 87 56 99
-2 4 -6 26 -9 49 -7 56 -38 98 -89 121 -33 15 -66 19 -163 19 l-123 0 0 -260z
m234 124 c39 -38 1 -94 -64 -94 l-40 0 0 55 0 55 44 0 c27 0 51 -6 60 -16z"/>
<path d="M9210 9066 l1 -266 22 -1 c12 0 30 -2 39 -4 10 -2 20 1 24 6 3 5 10
7 15 3 13 -8 125 -8 169 1 126 23 174 181 78 253 -17 12 -16 15 11 44 25 27
29 37 26 83 -3 62 -18 89 -65 118 -31 19 -52 22 -178 25 l-143 4 1 -266z m243
130 c42 -32 7 -76 -62 -76 l-47 0 -3 45 -2 45 48 0 c26 0 56 -7 66 -14z m16
-210 c21 -39 1 -63 -53 -64 -24 -1 -50 -3 -57 -4 -9 -2 -14 12 -16 45 l-4 47
59 0 c51 0 60 -3 71 -24z"/>
<path d="M9690 9066 l0 -265 28 -3 c15 -2 44 0 64 3 21 3 40 4 43 1 7 -7 134
-4 145 3 5 3 11 2 14 -3 3 -5 19 -7 36 -4 30 4 30 5 30 63 l0 59 -37 1 c-21 0
-73 0 -115 -1 l-78 -1 0 45 0 46 100 0 100 0 0 55 0 55 -57 1 c-32 0 -77 0
-100 -1 l-43 -2 0 46 0 46 115 0 115 0 0 60 0 60 -180 0 -180 0 0 -264z"/>
<path d="M10139 9243 c0 -48 0 -95 0 -103 -1 -8 0 -44 1 -80 1 -36 1 -69 0
-75 -1 -5 -2 -49 -1 -97 l1 -87 33 -1 c53 -1 80 0 83 3 2 2 4 47 5 100 1 96 2
97 26 97 19 0 28 -9 45 -47 51 -119 69 -155 74 -150 3 3 19 1 35 -3 16 -5 31
-5 34 0 3 5 18 5 34 0 16 -4 32 -6 35 -3 3 3 -19 54 -49 114 l-55 108 23 18
c42 34 55 66 52 126 -4 71 -28 114 -82 143 -37 19 -59 22 -168 23 l-126 2 0
-88z m234 -47 c21 -16 22 -45 1 -74 -12 -18 -25 -22 -65 -22 l-49 0 0 55 0 55
48 0 c26 0 55 -7 65 -14z"/>
<path d="M10703 9323 c-13 -3 -23 -9 -23 -15 0 -6 -3 -8 -7 -5 -10 11 -53 -34
-69 -72 -19 -44 -17 -109 5 -146 20 -36 89 -72 149 -80 76 -9 97 -30 69 -69
-19 -26 -78 -29 -135 -8 l-50 19 -42 -40 c-37 -37 -39 -41 -23 -50 10 -6 21
-14 24 -19 12 -19 97 -35 169 -33 57 1 85 7 115 25 34 19 69 54 70 70 0 3 3
10 6 15 11 18 7 100 -7 127 -8 14 -26 35 -41 46 -26 18 -45 24 -113 37 -67 13
-80 18 -86 37 -3 12 0 26 9 35 22 22 90 28 125 11 28 -15 31 -14 66 19 20 20
35 40 33 47 -8 25 -82 50 -152 51 -38 1 -80 0 -92 -2z"/>
<path d="M11050 9066 l0 -265 23 -3 c12 -2 41 -1 65 1 l42 3 0 104 0 104 65 0
65 0 0 -105 0 -106 54 2 c29 1 59 -1 65 -6 9 -5 12 0 11 16 -1 13 -1 26 -1 29
5 13 5 130 1 130 -3 0 -4 24 -2 52 5 113 5 156 -2 167 -4 6 -2 11 4 11 6 0 8
5 4 12 -4 6 -6 35 -5 65 l2 53 -65 0 -66 0 0 -105 0 -105 -65 1 -65 1 0 104 0
104 -65 0 -65 0 0 -264z"/>
<path d="M11645 9316 c-50 -22 -92 -72 -105 -123 -15 -62 -11 -238 8 -283 49
-118 231 -145 323 -47 52 56 51 52 56 186 4 124 -6 165 -50 213 -57 63 -159
86 -232 54z m114 -106 c28 -15 44 -88 38 -181 -4 -71 -8 -86 -27 -101 -26 -21
-61 -19 -88 5 -15 14 -19 33 -21 108 -1 50 3 107 9 125 16 48 50 65 89 44z"/>
<path d="M12010 9071 c0 -183 3 -262 11 -267 7 -4 31 -7 54 -7 23 0 47 3 54 7
7 5 11 40 11 95 l0 88 74 5 c89 6 137 32 167 89 23 45 23 109 1 153 -38 78
-86 96 -248 96 l-124 0 0 -259z m242 122 c43 -39 4 -93 -67 -93 l-45 0 0 55 0
55 47 0 c29 0 53 -6 65 -17z"/>
<path d="M8960 8670 c-19 -5 -51 -11 -70 -14 -20 -3 -63 -14 -97 -24 -34 -11
-65 -17 -68 -14 -3 3 -5 0 -5 -7 0 -7 -4 -10 -8 -7 -4 2 -35 -9 -67 -26 -262
-133 -445 -379 -516 -693 -32 -143 -34 -414 -4 -565 9 -46 46 -172 53 -185 4
-5 7 -15 8 -22 4 -22 65 -135 106 -196 50 -73 190 -213 244 -244 176 -100 293
-137 473 -149 37 -3 71 -5 76 -5 19 -2 190 11 215 16 122 23 205 51 295 98 33
18 65 35 70 39 74 55 143 114 168 144 18 21 40 46 50 56 9 10 17 20 17 23 0 2
18 32 40 66 22 34 40 68 40 75 0 7 3 14 8 16 15 6 72 184 87 268 26 154 27
404 1 560 -28 167 -109 357 -201 468 -50 60 -135 138 -195 176 -65 42 -144 83
-146 75 0 -2 -7 1 -15 7 -16 13 -130 43 -229 60 -50 9 -296 11 -330 4z m275
-404 c34 -8 123 -46 143 -61 38 -28 103 -100 125 -137 27 -48 61 -143 72 -203
5 -22 10 -51 12 -65 8 -43 8 -323 0 -374 -19 -121 -51 -206 -111 -301 -40 -61
-122 -145 -143 -145 -7 0 -13 -4 -13 -9 0 -4 -26 -17 -57 -27 -86 -28 -241
-27 -325 1 -148 50 -241 155 -287 325 -29 108 -33 138 -36 306 -5 276 41 433
167 570 84 92 191 133 333 129 49 -1 104 -6 120 -9z"/>
<path d="M10119 8641 l-25 -6 47 -120 c26 -66 55 -138 64 -160 9 -21 57 -140
107 -265 49 -124 96 -238 103 -255 7 -16 20 -48 28 -70 9 -22 23 -58 33 -80
10 -22 18 -45 20 -50 1 -6 10 -31 21 -55 11 -25 32 -76 48 -115 15 -38 33 -83
40 -100 7 -16 43 -106 80 -200 37 -93 71 -179 76 -190 4 -11 24 -69 44 -130
30 -94 46 -152 71 -260 3 -11 7 -48 11 -82 7 -73 -16 -127 -82 -195 -85 -87
-187 -123 -365 -127 l-105 -2 -40 -42 c-88 -94 -145 -163 -145 -176 0 -11 143
-179 175 -204 10 -8 219 -2 290 8 60 9 183 43 216 60 16 9 31 15 34 15 13 -1
127 63 171 95 79 59 172 164 203 229 28 57 127 312 136 346 4 17 41 114 55
145 5 11 39 101 76 200 37 99 72 191 77 205 6 14 11 27 12 30 0 3 11 32 23 65
25 66 29 76 31 87 2 7 8 22 44 108 6 14 11 27 11 30 2 7 176 472 186 495 5 11
41 106 80 210 39 105 80 211 91 237 10 26 19 54 19 62 0 9 5 16 12 16 6 0 9 3
6 6 -4 3 1 22 9 42 8 20 28 71 44 114 l28 77 -39 -2 c-22 -2 -40 0 -40 3 0 4
-15 5 -32 3 -18 -1 -71 -2 -118 -2 -94 0 -101 0 -178 -1 -29 0 -56 1 -60 4 -9
6 -37 -10 -38 -21 0 -4 -5 -19 -11 -33 -6 -14 -31 -83 -57 -155 -55 -153 -57
-159 -58 -162 0 -1 -22 -62 -49 -135 -28 -73 -52 -141 -54 -150 -2 -9 -9 -26
-15 -37 -6 -12 -8 -21 -5 -21 3 0 -4 -18 -15 -40 -11 -21 -20 -44 -20 -49 0
-5 -5 -22 -12 -38 -6 -15 -12 -32 -14 -38 -10 -36 -75 -209 -85 -227 -7 -13
-11 -23 -10 -23 1 0 0 -7 -3 -15 -47 -140 -60 -177 -66 -185 -4 -5 -13 -31
-20 -57 -7 -27 -15 -48 -19 -48 -5 0 -36 75 -182 450 -27 69 -53 134 -58 145
-5 11 -48 117 -94 235 -47 118 -119 301 -160 405 l-75 190 -34 2 c-32 2 -160
3 -223 2 -16 -1 -45 -1 -62 0 -18 1 -45 1 -60 1 -16 0 -37 2 -48 3 -11 2 -32
1 -46 -2z"/>
<path d="M45 7580 c-3 -6 -8 -66 -10 -133 -3 -67 -7 -196 -10 -287 -3 -91 -8
-226 -10 -300 -3 -74 -7 -204 -10 -287 -4 -119 -3 -153 7 -155 7 0 24 -2 38
-4 14 -2 36 -5 50 -7 14 -3 52 -8 85 -12 33 -4 67 -9 75 -10 9 -2 43 -6 75
-10 33 -4 69 -9 80 -11 11 -2 45 -7 75 -10 64 -7 95 -12 95 -14 0 -1 54 -8
110 -14 46 -5 137 -17 165 -22 14 -3 45 -7 70 -10 25 -2 58 -7 74 -10 16 -2
53 -7 83 -10 31 -2 59 -6 62 -9 4 -2 34 -6 67 -10 33 -3 71 -8 84 -10 14 -3
45 -7 70 -10 25 -3 61 -7 80 -10 19 -2 55 -7 80 -10 25 -4 56 -8 70 -10 65
-10 89 -14 140 -20 30 -4 69 -9 85 -12 17 -3 44 -6 60 -8 27 -2 55 -6 155 -21
19 -2 58 -7 85 -9 28 -3 61 -7 75 -10 31 -6 70 -12 135 -20 51 -6 100 -13 145
-20 14 -2 51 -7 83 -10 32 -4 66 -8 76 -10 9 -2 44 -6 76 -10 33 -4 68 -9 79
-11 10 -2 44 -6 75 -10 31 -3 65 -8 76 -11 18 -3 48 -7 135 -18 14 -1 43 -5
65 -9 58 -8 263 -35 315 -42 57 -7 85 -11 85 -13 0 -1 20 -4 45 -6 58 -4 141
-15 160 -20 8 -2 41 -7 73 -10 32 -4 68 -8 80 -11 12 -2 40 -6 62 -9 22 -2 76
-9 120 -15 44 -6 96 -13 115 -16 91 -11 117 -14 140 -19 14 -2 48 -7 75 -10
64 -7 133 -16 165 -21 102 -17 100 -18 101 23 2 95 7 467 8 546 l1 88 58 -6
c31 -3 75 -8 97 -11 22 -3 60 -7 85 -9 25 -2 63 -6 85 -9 22 -3 72 -8 110 -12
39 -3 84 -7 100 -9 17 -2 57 -6 90 -9 33 -3 80 -9 105 -12 25 -3 65 -7 90 -9
49 -5 135 -13 190 -20 19 -2 61 -6 93 -9 121 -12 173 -18 212 -22 37 -5 76 -9
178 -18 20 -1 41 -6 45 -10 7 -8 -135 -146 -150 -146 -3 0 -13 -6 -20 -13 -15
-14 -190 -132 -198 -132 -3 0 -23 -13 -46 -27 -97 -63 -465 -260 -480 -257 -4
0 -10 -3 -13 -8 -7 -10 -513 -253 -526 -253 -2 0 -41 -17 -87 -39 -46 -21
-137 -62 -203 -91 -66 -29 -143 -63 -170 -75 -28 -12 -91 -39 -140 -60 -50
-20 -108 -45 -131 -55 -22 -11 -63 -28 -91 -39 -28 -11 -72 -29 -99 -41 -27
-12 -58 -26 -69 -30 -189 -78 -355 -144 -375 -151 -14 -4 -92 -33 -175 -64
-82 -31 -154 -58 -160 -59 -5 -2 -17 -6 -25 -9 -14 -6 -97 -37 -280 -102 -36
-13 -82 -31 -102 -39 -21 -9 -40 -16 -43 -16 -3 0 -20 -6 -38 -13 -27 -12
-102 -39 -117 -42 -3 -1 -16 -6 -30 -12 -38 -15 -144 -55 -155 -58 -12 -2 -36
-11 -85 -30 -36 -14 -227 -85 -425 -157 -334 -121 -632 -231 -650 -239 -11 -5
-45 -17 -75 -28 -30 -11 -136 -50 -235 -86 -99 -37 -207 -75 -240 -86 -63 -19
-112 -58 -173 -136 -35 -45 -101 -180 -109 -222 -10 -55 -10 -215 -1 -250 12
-43 57 -140 76 -161 76 -88 144 -137 245 -174 58 -23 78 -25 164 -22 54 2 113
7 131 10 125 20 264 53 349 81 23 8 52 16 65 19 13 2 61 18 108 36 47 17 85
30 85 30 0 -1 32 9 55 17 8 4 20 7 25 9 11 2 154 57 290 111 50 19 114 46 143
59 29 13 55 24 57 24 9 0 402 174 524 231 68 33 125 59 127 59 2 0 79 37 171
82 93 45 170 83 173 83 15 4 112 54 126 66 9 8 18 12 18 10 1 -4 156 72 219
107 20 12 37 19 37 16 0 -4 6 -1 14 5 7 6 76 43 152 82 161 82 437 227 584
306 25 14 92 50 150 81 58 31 107 59 108 64 2 4 8 8 14 8 13 0 215 111 343
188 50 30 110 66 135 80 25 14 63 37 85 52 22 15 45 29 50 31 6 2 47 27 93 54
46 28 95 57 110 66 15 9 76 46 135 83 60 36 110 66 112 66 2 0 25 15 52 32 26
18 54 33 62 35 8 1 17 6 20 11 6 8 83 55 181 110 25 14 56 33 70 42 21 15 140
83 220 127 14 8 39 23 55 33 17 11 44 26 60 35 17 8 53 28 80 45 96 57 303
170 313 170 5 0 15 7 22 15 7 8 21 15 30 15 10 0 20 4 22 9 6 17 312 159 425
197 74 25 105 27 200 9 95 -18 331 -77 400 -100 24 -8 57 -17 75 -20 17 -3 35
-8 40 -11 4 -3 16 -7 25 -9 10 -1 47 -11 83 -20 36 -9 76 -19 90 -21 14 -3 32
-7 40 -10 8 -3 31 -8 50 -10 19 -3 46 -7 60 -10 50 -10 137 -17 224 -18 l89
-1 23 43 c13 24 39 72 59 107 l35 64 -75 100 c-42 55 -79 103 -84 105 -4 3
-98 8 -207 11 -215 5 -347 12 -380 20 -12 2 -39 7 -60 11 -21 3 -59 10 -84 16
-25 5 -53 11 -64 14 -44 9 -144 65 -184 103 -23 23 -52 41 -65 42 -12 0 -31 2
-42 5 -58 13 -149 10 -196 -6 -51 -17 -109 -63 -109 -86 0 -18 -31 -47 -41
-37 -7 8 -72 133 -74 143 0 3 -6 15 -13 27 -13 24 -10 27 63 38 22 4 47 8 55
10 8 2 25 4 38 4 13 1 20 5 17 11 -4 6 -12 10 -18 9 -11 -2 -78 7 -132 17 -21
5 -61 11 -122 19 -21 3 -64 10 -95 16 -32 5 -74 12 -95 14 -21 2 -49 7 -63 10
-14 3 -45 8 -70 10 -25 3 -56 8 -70 11 -37 7 -66 11 -155 24 -83 12 -116 17
-150 24 -11 2 -47 7 -80 11 -32 3 -62 8 -66 11 -4 2 -29 6 -55 8 -27 3 -60 7
-74 10 -30 6 -92 15 -139 22 -19 2 -48 7 -65 10 -17 3 -42 7 -56 9 -14 2 -68
10 -120 18 -52 8 -102 15 -110 16 -8 0 -53 7 -100 15 -97 17 -165 27 -260 41
-24 4 -85 13 -125 20 -11 2 -42 6 -70 9 -27 4 -57 9 -65 11 -8 2 -37 7 -65 11
-27 3 -59 8 -70 11 -11 2 -37 6 -57 8 -21 2 -50 6 -65 9 -24 5 -57 10 -138 21
-11 2 -49 8 -85 14 -36 6 -83 13 -105 16 -22 4 -51 8 -65 10 -14 3 -43 7 -65
10 -22 3 -65 10 -95 15 -30 5 -73 12 -95 15 -22 2 -53 7 -70 10 -70 12 -92 15
-136 20 -26 3 -58 8 -70 10 -39 8 -170 29 -254 40 -11 2 -51 8 -88 14 -37 6
-87 14 -111 17 -24 2 -55 7 -67 9 -52 11 -76 15 -119 19 -25 2 -52 7 -60 10
-8 2 -37 7 -65 10 -27 3 -59 8 -70 10 -11 2 -41 6 -66 10 -25 4 -59 9 -75 12
-16 3 -42 7 -59 9 -16 2 -41 6 -55 9 -14 3 -45 7 -71 10 -25 3 -52 7 -60 10
-7 3 -36 7 -64 10 -27 3 -61 8 -75 11 -14 2 -41 7 -60 9 -20 2 -47 7 -60 10
-14 3 -47 8 -75 11 -27 3 -59 8 -70 10 -22 5 -80 14 -135 21 -19 2 -51 7 -70
10 -19 3 -42 7 -50 8 -8 2 -33 6 -55 9 -22 4 -58 9 -80 12 -23 3 -52 8 -65 10
-43 9 -129 22 -200 30 -19 3 -46 7 -60 10 -42 8 -96 16 -197 30 -49 7 -92 13
-123 20 -13 2 -42 7 -65 10 -22 3 -51 8 -65 10 -23 4 -81 13 -140 21 -14 2
-36 5 -50 7 -14 3 -47 8 -75 12 -52 7 -75 11 -112 19 -12 2 -47 7 -78 11 -31
3 -78 10 -105 15 -27 5 -71 12 -97 15 -59 8 -90 13 -125 20 -14 4 -29 1 -33
-5z m6615 -1310 c71 -19 122 -86 126 -163 2 -54 -6 -75 -46 -121 -32 -36 -63
-50 -120 -52 -105 -4 -182 79 -175 188 6 104 111 176 215 148z m-5676 -2719
c96 -48 124 -185 54 -266 -49 -57 -157 -69 -218 -25 -171 122 -24 382 164 291z"/>
</g>
</svg>
