<?xml version="1.0" standalone="no"?>
<!DOCTYPE svg PUBLIC "-//W3C//DTD SVG 20010904//EN"
 "http://www.w3.org/TR/2001/REC-SVG-20010904/DTD/svg10.dtd">
<svg version="1.0" xmlns="http://www.w3.org/2000/svg"
 width="700.000000pt" height="700.000000pt" viewBox="0 0 700.000000 700.000000"
 preserveAspectRatio="xMidYMid meet">
<metadata>
Created by potrace 1.11, written by Peter Selinger 2001-2013
</metadata>
<g transform="translate(0.000000,700.000000) scale(0.100000,-0.100000)"
fill="#000000" stroke="none">
<path d="M0 3500 l0 -3500 3500 0 3500 0 0 3500 0 3500 -3500 0 -3500 0 0
-3500z m2165 182 c-5 -6 -189 16 -212 25 -11 4 -13 92 -13 489 l0 483 38 10
c20 6 71 18 112 29 l75 18 3 -524 c1 -289 0 -527 -3 -530z m1085 442 l0 -616
-32 5 c-18 4 -70 11 -115 18 l-83 11 0 269 0 268 -47 28 c-39 23 -60 28 -108
27 -92 -1 -141 -19 -195 -73 -55 -55 -79 -114 -87 -216 -6 -74 14 -179 43
-222 8 -13 12 -23 9 -23 -18 0 -270 42 -273 45 -9 9 -21 93 -22 153 -1 238
131 448 325 512 88 29 219 30 296 1 29 -12 55 -21 57 -21 1 0 2 88 2 195 l0
194 38 10 c20 6 71 19 112 30 41 10 76 20 78 20 1 1 2 -276 2 -615z m-1927
551 c215 -45 375 -215 420 -445 24 -121 30 -282 13 -388 -8 -52 -17 -96 -20
-99 -3 -3 -60 3 -126 12 l-122 18 7 31 c28 136 23 335 -12 441 -35 107 -106
184 -198 215 -62 21 -181 17 -236 -7 -137 -61 -194 -185 -206 -444 l-6 -136
-116 19 c-64 10 -120 18 -125 18 -16 0 1 260 22 330 70 233 207 384 395 435
68 18 224 18 310 0z m2628 0 c194 -41 298 -154 299 -326 0 -100 -36 -170 -118
-229 l-43 -31 52 -26 c69 -35 125 -92 157 -162 21 -45 27 -75 30 -151 6 -138
-16 -190 -120 -292 -43 -43 -87 -78 -96 -78 -20 0 -620 88 -672 99 l-35 7 4
314 c2 173 7 441 10 595 l6 280 130 5 c253 11 323 10 396 -5z m459 -55 c22
-22 27 -69 8 -88 -9 -9 -9 -15 0 -24 19 -19 14 -76 -8 -98 -23 -23 -118 -29
-124 -7 -1 6 -12 42 -24 79 -12 37 -22 87 -22 112 l0 46 75 0 c62 0 79 -4 95
-20z m189 -7 c6 -16 26 -72 45 -125 l35 -98 -34 0 c-25 0 -35 5 -40 20 -5 15
-15 20 -42 20 -26 0 -36 -5 -40 -20 -4 -15 -14 -20 -39 -20 -19 0 -34 1 -34 3
0 6 81 230 86 239 3 4 16 8 28 8 16 0 27 -9 35 -27z m260 1 c25 -32 27 -66 5
-103 -15 -26 -15 -30 5 -69 12 -23 21 -44 21 -47 0 -3 -16 -5 -35 -5 -31 0
-36 4 -54 45 -11 25 -25 45 -30 45 -6 0 -11 -20 -11 -45 0 -43 -1 -45 -30 -45
l-30 0 0 125 0 125 69 0 c63 0 71 -2 90 -26z m226 1 c29 -28 30 -40 11 -77
-12 -23 -12 -27 0 -32 22 -8 17 -66 -8 -93 -19 -20 -31 -23 -95 -23 l-73 0 0
125 0 125 70 0 c62 0 74 -3 95 -25z m235 -5 c0 -30 -1 -30 -55 -30 -48 0 -55
-2 -55 -20 0 -17 7 -20 50 -20 47 0 50 -2 50 -25 0 -23 -3 -25 -50 -25 -43 0
-50 -3 -50 -20 0 -18 7 -20 55 -20 54 0 55 0 55 -30 l0 -30 -85 0 -85 0 0 125
0 125 85 0 85 0 0 -30z m197 8 c27 -26 31 -82 7 -109 -14 -16 -13 -21 11 -68
l25 -51 -39 0 c-37 0 -40 2 -58 45 -24 59 -43 59 -43 0 0 -43 -1 -45 -30 -45
l-30 0 0 125 0 125 67 0 c55 0 71 -4 90 -22z m211 9 c23 -13 23 -13 3 -31 -13
-12 -28 -16 -44 -12 -14 3 -32 0 -43 -8 -18 -14 -18 -15 9 -25 16 -6 36 -11
46 -11 27 0 54 -36 54 -72 0 -22 -8 -38 -28 -56 -25 -21 -36 -24 -82 -20 -30
3 -61 11 -69 20 -13 13 -12 16 5 32 16 14 26 16 48 9 15 -5 36 -7 46 -5 32 7
17 28 -28 40 -60 16 -81 48 -65 97 6 19 19 39 28 45 24 13 93 12 120 -3z m132
-37 c0 -47 2 -50 25 -50 23 0 25 3 25 50 l0 50 35 0 35 0 0 -125 0 -125 -35 0
-35 0 0 50 c0 47 -2 50 -25 50 -23 0 -25 -3 -25 -50 l0 -50 -35 0 -35 0 0 125
0 125 35 0 35 0 0 -50z m317 26 c26 -23 28 -29 28 -101 0 -73 -1 -78 -30 -101
-42 -34 -89 -32 -126 5 -26 27 -29 35 -29 99 0 62 3 72 26 96 35 35 92 36 131
2z m227 3 c57 -45 17 -139 -59 -139 -35 0 -35 0 -35 -45 0 -45 0 -45 -35 -45
l-35 0 0 125 0 125 69 0 c54 0 74 -4 95 -21z m-1399 -301 c157 -33 275 -153
319 -325 20 -76 21 -259 2 -330 -45 -169 -151 -284 -301 -329 -89 -27 -251
-24 -330 6 -189 71 -295 244 -295 480 0 360 258 572 605 498z m572 -10 c5 -7
67 -161 138 -342 71 -180 131 -324 132 -320 2 5 57 158 122 339 l119 330 108
3 c59 1 113 1 120 -2 8 -3 -61 -195 -205 -578 -120 -315 -225 -587 -233 -604
-55 -103 -220 -185 -368 -183 -65 1 -65 1 -108 49 l-43 48 43 50 c42 48 44 49
117 56 128 12 191 62 191 150 0 67 -43 191 -211 607 -83 206 -153 382 -156
392 -5 15 5 17 110 17 80 0 117 -4 124 -12z m-3297 -748 c899 -137 1649 -253
1665 -258 29 -8 29 -9 -17 -16 l-48 -7 21 -42 c28 -55 26 -54 49 -24 12 15 38
31 58 36 42 11 124 -1 130 -18 6 -18 71 -47 131 -60 30 -6 117 -14 194 -18
l139 -6 39 -50 39 -49 -30 -52 -29 -51 -76 3 c-44 2 -133 18 -213 39 -282 72
-303 76 -351 64 -98 -26 -309 -141 -850 -463 -390 -233 -602 -349 -981 -539
-614 -307 -1007 -457 -1204 -460 -184 -3 -289 178 -202 348 13 26 37 60 53 74
20 18 218 95 678 264 874 319 1235 468 1625 666 262 133 460 269 392 269 -11
0 -169 16 -353 35 -184 19 -337 35 -340 35 -4 0 -8 -68 -11 -150 -3 -83 -8
-153 -12 -157 -3 -4 -484 58 -1069 136 -584 79 -1079 146 -1100 149 l-39 5 6
236 c4 130 9 255 12 279 5 41 7 43 32 38 15 -3 763 -118 1662 -256z"/>
<path d="M3702 4483 l-33 -4 3 -157 3 -157 100 1 c165 1 225 41 233 154 6 77
-15 115 -75 142 -46 20 -163 31 -231 21z"/>
<path d="M3708 3973 l-38 -4 0 -221 0 -220 123 4 c151 6 214 28 254 91 28 44
41 136 29 202 -10 51 -67 110 -124 129 -50 16 -183 26 -244 19z"/>
<path d="M4310 4560 c0 -23 31 -27 49 -7 14 17 4 27 -26 27 -16 0 -23 -6 -23
-20z"/>
<path d="M4310 4470 c0 -17 5 -21 28 -18 16 2 27 9 27 18 0 9 -11 16 -27 18
-23 3 -28 -1 -28 -18z"/>
<path d="M4552 4510 c-7 -19 -6 -26 5 -28 21 -5 25 2 14 29 l-9 24 -10 -25z"/>
<path d="M4760 4560 c0 -27 27 -37 47 -17 20 19 9 37 -23 37 -17 0 -24 -5 -24
-20z"/>
<path d="M4990 4559 c0 -15 5 -20 22 -17 34 5 37 38 4 38 -20 0 -26 -5 -26
-21z"/>
<path d="M4990 4470 c0 -15 7 -20 24 -20 29 0 44 19 25 31 -25 16 -49 10 -49
-11z"/>
<path d="M5420 4555 c0 -29 29 -35 50 -10 16 19 4 35 -26 35 -19 0 -24 -5 -24
-25z"/>
<path d="M6095 4574 c-15 -15 -20 -78 -9 -108 3 -9 16 -16 29 -16 18 0 23 7
27 33 12 74 -13 124 -47 91z"/>
<path d="M6310 4555 c0 -29 29 -35 50 -10 16 19 4 35 -26 35 -19 0 -24 -5 -24
-25z"/>
<path d="M4785 4124 c-53 -29 -94 -76 -117 -133 -31 -80 -31 -261 1 -341 35
-90 74 -124 157 -139 145 -28 251 68 273 244 18 155 -22 300 -98 351 -53 35
-168 44 -216 18z"/>
<path d="M3664 3186 c-50 -22 -61 -87 -21 -124 40 -38 102 -27 122 21 17 40 2
83 -36 102 -33 18 -26 18 -65 1z"/>
<path d="M973 1909 c-32 -12 -56 -54 -49 -84 18 -73 108 -89 142 -24 32 63
-27 132 -93 108z"/>
</g>
</svg>
