<?xml version="1.0" encoding="UTF-8"?>
<!DOCTYPE svg PUBLIC "-//W3C//DTD SVG 1.1//EN" "http://www.w3.org/Graphics/SVG/1.1/DTD/svg11.dtd">
<!-- Creator: CorelDRAW 2019 (64-Bit) -->
<svg xmlns="http://www.w3.org/2000/svg" xml:space="preserve" width="137.587mm" height="137.587mm" version="1.1" style="shape-rendering:geometricPrecision; text-rendering:geometricPrecision; image-rendering:optimizeQuality; fill-rule:evenodd; clip-rule:evenodd"
viewBox="0 0 8049.71 8049.71"
 xmlns:xlink="http://www.w3.org/1999/xlink">
 <defs>
  <style type="text/css">
   <![CDATA[
    .fil3 {fill:#41479B}
    .fil4 {fill:#73AF00}
    .fil1 {fill:#D80027}
    .fil2 {fill:#E6B432}
    .fil0 {fill:whitesmoke}
   ]]>
  </style>
 </defs>
 <g id="Layer_x0020_1">
  <metadata id="CorelCorpID_0Corel-Layer"/>
  <g id="_1676121737696">
   <path class="fil0" d="M2226 7626.02l3597.7 0c1319.76,-660.54 2226,-2024.91 2226,-3601.17 0,-1576.3 -906.3,-2940.71 -2226.11,-3601.22l-3597.49 0c-1319.81,660.51 -2226.11,2024.92 -2226.11,3601.22 0,1576.26 906.25,2940.63 2226,3601.17z"/>
   <path class="fil0" d="M4024.85 0c646.59,0 1257.43,152.71 1798.8,423.66l-3597.61 0c541.38,-270.95 1152.21,-423.66 1798.8,-423.66zm1798.9 7626c-541.39,270.98 -1152.27,423.71 -1798.9,423.71 -646.62,0 -1257.5,-152.73 -1798.9,-423.71l3597.79 0z"/>
   <path class="fil0" d="M6085.29 5353.55c0,-178.03 -144.32,-322.35 -322.35,-322.35 -178.03,0 -322.35,144.32 -322.35,322.35 0,178.03 144.32,322.35 322.35,322.35 178.03,0 322.35,-144.32 322.35,-322.35z"/>
   <path class="fil0" d="M6328.61 3502.73c-237.23,199.44 -396.78,207.84 -396.78,207.84 422.01,-172.16 377.9,-499.66 377.9,-499.66 -199.44,262.43 -403.1,335.91 -403.1,335.91 424.1,-287.62 356.91,-673.92 356.91,-673.92 -138.55,306.53 -313.85,426.18 -313.85,426.18 352.71,-469.23 179.5,-771.54 179.5,-771.54 -138.55,434.58 -255.09,560.57 -255.09,560.57 270.83,-724.32 38.85,-933.21 38.85,-933.21 0,388.39 -144.87,610.94 -144.87,610.94 151.18,-512.26 -86.07,-806.19 -86.07,-806.19 0,0 -2.23,417.64 -82.67,636.39 -19.3,-29.32 -30.72,-25.44 -30.72,-25.44 -40.89,268.26 -185.06,457.12 -247.31,528.17 -13.83,-66.86 -55.38,-87.33 -55.38,-87.33 0,0 -7.49,65.63 -66.38,162.43 -38.58,63.42 -220.87,211.31 -250.26,341.47 -23.57,104.36 79.79,191.04 113.36,212.03 33.59,21 69.28,58.79 54.57,119.65 -14.69,60.88 -123.87,54.57 -201.55,52.48 -77.68,-2.09 -88.16,125.96 -174.27,121.78l-14.59 95.51 -33.72 7.37c0,0 -352.71,702.84 -382.73,941.99l-259.72 34.24 -259.72 -34.24c-30.02,-239.15 -382.73,-941.99 -382.73,-941.99l-33.72 -7.37 -14.59 -95.51c-86.07,4.2 -96.56,-123.87 -174.27,-121.78 -77.7,2.09 -186.86,8.4 -201.55,-52.48 -14.69,-60.88 21,-98.7 54.57,-119.65 33.59,-21 136.95,-107.7 113.36,-212.03 -29.39,-130.18 -211.68,-278.05 -250.26,-341.47 -58.89,-96.78 -66.38,-162.43 -66.38,-162.43 0,0 -41.56,20.47 -55.38,87.33 -62.22,-71.1 -206.4,-259.91 -247.29,-528.17 0,0 -11.42,-3.86 -30.72,25.44 -80.43,-218.78 -82.67,-636.39 -82.67,-636.39 0,0 -237.23,293.91 -86.07,806.19 0,0 -144.87,-222.52 -144.87,-610.94 0,0 -231.98,208.89 38.85,933.21 0,0 -116.5,-125.96 -255.09,-560.57 0,0 -173.21,302.31 179.5,771.54 0,0 -175.3,-119.65 -313.85,-426.18 0,0 -67.17,386.3 356.91,673.92 0,0 -203.66,-73.48 -403.1,-335.91 0,0 -44.08,327.53 377.9,499.66 0,0 -159.55,-8.4 -396.78,-207.84 0,0 -42,289.74 508.06,438.78 0,0 -224.66,-4.2 -453.49,-157.46 0,0 -6.31,285.51 463.98,342.22 0,0 -155.36,23.09 -329.62,-39.88 0,0 6.31,230.92 415.69,260.32 0,0 -161.66,12.6 -266.63,-12.6 0,0 10.48,237.23 333.82,197.35 0,0 -109.18,35.68 -144.87,46.17 0,0 6.31,193.68 343.25,124.4 0,0 -59.85,37.27 -141.73,49.87 0,0 69.28,161.66 350.62,90.28l-57.73 62.99c0,0 217.29,125.96 384.19,-47.25l-59.85 107.07c0,0 141.73,53.54 229.89,-85.02 0,0 -24.14,207.84 -318.08,245.66 0,0 10.48,44.08 23.09,60.88 0,0 -18.91,35.68 -188.95,65.08 0,0 35.68,54.57 73.48,71.39 0,0 -73.48,62.99 -113.36,75.57 0,0 62.99,31.48 102.87,37.8 0,0 -88.16,86.07 -197.35,88.16 -109.18,2.09 -304.4,-10.51 -304.4,-10.51 0,0 -2.09,-104.96 -52.48,-195.26 -50.39,-90.28 -67.17,-97.09 -67.17,-97.09 0,0 11.02,-72.43 -20.47,-102.35 -31.49,-29.92 -48.81,-44.08 -48.81,-44.08 0,0 16.8,-144.87 -29.39,-235.14 -46.17,-90.28 -209.95,-287.62 -218.35,-434.58 -8.4,-146.96 -2.09,-201.55 -2.09,-201.55l-50.39 12.6 -33.59 -69.28 56.68 -6.31 -23.09 -104.96 -77.7 29.39 -10.51 -90.28 -92.36 37.8 46.17 81.88 -81.88 23.09 48.3 96.56 62.99 -39.88 16.8 83.96c0,0 -37.8,8.4 -58.79,42 0,0 103.88,68.94 134.36,151.18 48.3,130.18 33.59,424.1 102.87,512.26 69.28,88.16 123.87,149.05 123.87,149.05 0,0 -19.41,59.85 2.62,92.89 22.05,33.07 53.54,42.52 53.54,42.52 0,0 -18.91,133.86 29.93,222.02 48.81,88.16 77.15,110.24 77.15,110.24 0,0 -177.94,108.63 -51.95,234.62 0,0 -16.8,114.42 102.87,141.73 0,0 6.31,90.28 109.18,79.79 0,0 50.39,-14.69 62.99,10.51 12.6,25.18 0,170.04 0,170.04 0,0 46.17,-4.2 75.57,-25.18l92.36 46.17 2.09 -102.87 115.47 -46.17c0,0 -50.39,8.4 -153.27,-88.16 0,0 16.8,-10.51 29.39,-92.39 0,0 81.88,-65.08 98.7,-117.56 16.8,-52.48 132.27,-167.95 266.63,-205.75l18.38 81.88c0,0 192.12,-170.04 272.39,-179.5l66.14 87.11c0,0 247.75,-367.39 356.91,-432.49 -8.4,29.39 52.48,33.59 -82.93,184.75 -135.41,151.18 -51.45,270.83 -51.45,270.83 -83.96,69.28 -67.17,132.27 -77.7,203.66 -10.48,71.39 -289.74,256.14 -289.74,256.14 88.16,111.27 186.86,86.07 186.86,86.07 -54.59,35.68 -37.8,155.36 -37.8,155.36 79.79,21 159.55,-14.69 159.55,-14.69 -27.31,75.57 14.69,128.05 14.69,128.05 50.39,-31.48 165.87,-50.39 165.87,-50.39 -14.69,130.18 69.28,199.44 69.28,199.44l73.48 -79.79c12.6,146.96 142.78,230.94 142.78,230.94 0,0 130.18,-83.99 142.78,-230.94l73.48 79.79c0,0 83.99,-69.28 69.28,-199.44 0,0 115.47,18.91 165.87,50.39 0,0 42,-52.48 14.69,-128.05 0,0 79.79,35.68 159.55,14.69 0,0 16.8,-119.67 -37.8,-155.36 0,0 98.7,25.18 186.86,-86.07 0,0 -279.23,-184.75 -289.74,-256.14 -10.48,-71.39 6.31,-134.36 -77.7,-203.66 0,0 83.96,-119.67 -51.45,-270.83 -135.41,-151.18 -74.53,-155.38 -82.93,-184.75 109.18,65.08 356.91,432.49 356.91,432.49l66.14 -87.11c80.32,9.45 272.39,179.5 272.39,179.5l18.38 -81.88 3.48 -3.79c100.16,53.94 265.6,126.89 332.45,178.01 71.39,54.59 130.18,58.79 302.31,0 172.18,-58.79 492.46,-149.19 445.09,-256.14 -2.59,-5.83 -5.52,-9.74 -8.35,-14.3 7.51,-27.62 10.61,-75.83 -39.95,-117.97 0,0 0.6,11.74 0.19,26.8l-164.12 -61.17c-5.42,-14.52 -13.53,-28.75 -29.21,-41.2 0,0 0.24,12.6 -2.02,29.59l-42.09 -15.69 84.02 -236.34c-6.36,-3.55 -13.51,-5.54 -20.11,-8.66 1.7,-21.41 5.73,-50.99 12,-81.93 20.52,7.17 39.26,16.03 52.84,27.14l23.71 -86.53c0,0 -25.51,-1.68 -59.13,-7.97 8.5,-26.11 18.58,-49.55 30.55,-64.7l-111.27 -33.59c0,0 2.88,33.72 0.91,75.78 -21.24,-8.61 -41.49,-19.56 -57.86,-33.57l-26.08 96.03c8.95,0.53 39.33,3.14 74.53,9.43 -6.36,28.19 -17.56,53.2 -33.62,71.97 -3.96,-0.53 -7.63,-1.97 -11.66,-2.35l-81.59 229.53 -221.25 -82.45c-9.48,14.92 -16.8,31.2 -23.64,47.66 1.18,-2.4 2.23,-6.14 3.48,-7.65 0,0 -85.59,44.78 -84.42,110.55 -15.77,5.97 -29.59,17.8 -37.39,38.32 -25.18,66.14 129.1,214.15 91.33,233.03 -37.1,18.52 -230.92,-141.1 -262,-167.91 39.95,-7.75 98.24,-36.79 98.24,-36.79 -39.91,-12.6 -113.36,-75.57 -113.36,-75.57 37.8,-16.8 73.48,-71.39 73.48,-71.39 -170.04,-29.39 -188.95,-65.08 -188.95,-65.08 12.6,-16.8 23.09,-60.88 23.09,-60.88 -293.91,-37.8 -318.08,-245.66 -318.08,-245.66 88.16,138.55 229.89,85.02 229.89,85.02l-59.85 -107.07c166.9,173.21 384.19,47.25 384.19,47.25l-57.73 -62.99c281.32,71.39 350.62,-90.28 350.62,-90.28 -81.88,-12.6 -141.73,-49.87 -141.73,-49.87 336.96,69.28 343.25,-124.4 343.25,-124.4 -35.68,-10.51 -144.87,-46.17 -144.87,-46.17 323.31,39.91 333.82,-197.35 333.82,-197.35 -104.96,25.18 -266.63,12.6 -266.63,12.6 409.39,-29.39 415.69,-260.32 415.69,-260.32 -174.27,62.99 -329.62,39.88 -329.62,39.88 470.26,-56.68 463.98,-342.22 463.98,-342.22 -228.84,153.27 -453.49,157.46 -453.49,157.46 550.26,-149.12 508.26,-438.81 508.26,-438.81zm-477.1 2076.85c-22.44,-36.43 31.03,-69.01 55.1,-103.69l93.06 34.65c-31.61,37.72 -125.02,106.59 -148.16,69.04zm-62.17 -147.37c-30.19,46.77 -51.19,99.23 -144.1,101.73 -116.5,3.14 -135.41,-100.79 -160.59,-157.46 -7.34,-16.53 -20.02,-29.01 -34.55,-37.58 -0.05,-10.17 0.48,-21.33 1.37,-32.61l337.87 125.93z"/>
   <path class="fil0" d="M4016.1 3214.05c0,0 -149.57,-127.54 -193.68,-196.82 0,0 50.39,-20.47 75.57,-51.95 0,0 -135.41,-72.43 -207.84,-146.43 0,0 47.25,-7.87 83.46,-37.8 0,0 -121.62,-21.98 -183.29,-121.57 140.6,-48.02 93.54,-179.18 93.54,-179.18 -28.34,37.8 -144.87,85.02 -270.83,31.48 -125.96,-53.54 -264.52,-15.77 -264.52,53.54 0,0 -283.43,-81.88 -212.57,192.12 0,0 45.64,-102.35 146.43,-64.55 100.79,37.8 203.13,166.9 203.13,166.9 0,0 -62.99,34.63 -179.5,-3.14 0,0 47.25,181.05 259.82,89.75 0,0 83.96,45.14 88.16,177.41 0,0 35.68,-18.91 58.79,-60.88 0,0 33.59,128.05 -10.48,233.03 0,0 58.79,-10.48 77.7,-29.39 0,0 16.8,111.27 -56.68,201.55 0,0 322.78,153.8 527.5,-14.69 0,0 -77.15,-88.16 -102.35,-170.04 -0.1,-0.06 42.4,-17.39 67.62,-69.32z"/>
   <path class="fil0" d="M4952.98 2565.3c0,-69.28 -138.55,-107.07 -264.52,-53.54 -125.96,53.54 -242.49,6.31 -270.83,-31.48 0,0 -47.08,131.17 93.54,179.18 -61.67,99.58 -183.29,121.57 -183.29,121.57 36.23,29.93 83.46,37.8 83.46,37.8 -72.43,74 -207.84,146.43 -207.84,146.43 25.18,31.48 75.57,51.95 75.57,51.95 -44.08,69.28 -193.68,196.82 -193.68,196.82 25.18,51.95 67.72,69.28 67.72,69.28 -25.18,81.88 -102.35,170.04 -102.35,170.04 204.69,168.48 527.5,14.69 527.5,14.69 -73.48,-90.28 -56.68,-201.55 -56.68,-201.55 18.91,18.91 77.7,29.39 77.7,29.39 -44.08,-104.96 -10.48,-233.03 -10.48,-233.03 23.09,42 58.79,60.88 58.79,60.88 4.2,-132.27 88.16,-177.41 88.16,-177.41 212.57,91.33 259.82,-89.75 259.82,-89.75 -116.5,37.8 -179.5,3.14 -179.5,3.14 0,0 102.35,-129.1 203.13,-166.9 100.79,-37.8 146.43,64.55 146.43,64.55 70.74,-273.93 -212.66,-192.07 -212.66,-192.07z"/>
   <path class="fil0" d="M4824.64 4238.02c-27.64,-160.92 -51.47,-299.91 17.95,-459.15l12.96 -29.73 -274.93 -315.7 -32.49 10.82c-2.81,0.96 -290.17,94.91 -474.39,2.76l-22.99 -11.5 -22.99 11.5c-183.36,91.88 -471.49,-1.8 -474.46,-2.81l-32.49 -10.72 -274.88 315.65 12.96 29.73c69.42,159.24 45.59,298.23 17.95,459.15 -26.04,151.95 -55.58,324.2 -3.6,534.24 56.42,228.02 246.4,309.05 413.94,380.66 129.18,55.12 251.15,107.2 320.12,216.5l43.44 68.87 43.44 -68.87c68.97,-109.31 190.94,-161.35 320.12,-216.5 167.59,-71.58 357.53,-152.62 413.94,-380.66 51.99,-210.04 22.43,-382.32 -3.58,-534.24zm-1459.17 -469.76l188.69 -216.62c85.48,23.49 316.52,74.32 496.57,-2.11 180.02,76.46 411.07,25.58 496.57,2.11l188.69 216.62c-66.25,174.51 -40.17,326.62 -12.62,487.14 20.61,120.27 41.13,244.16 23.9,386.85l-1393.07 0c-17.21,-142.69 3.31,-266.58 23.9,-386.85 27.54,-160.49 53.63,-312.66 -12.63,-487.14zm1008.49 1290.16c-116.77,49.87 -236.92,101.12 -323.24,198.43 -86.31,-97.31 -206.47,-148.57 -323.24,-198.43 -163.85,-69.95 -305.22,-131.1 -351.84,-302.79l1350.1 0.01c-46.58,171.72 -187.94,232.84 -351.79,302.79z"/>
   <path class="fil0" d="M3365.47 3768.26l188.69 -216.62c85.48,23.49 316.52,74.32 496.57,-2.11 180.02,76.46 411.07,25.58 496.57,2.11l188.69 216.62c-66.25,174.51 -40.17,326.62 -12.62,487.14 20.61,120.27 41.13,244.16 23.9,386.85l-1393.07 0c-17.21,-142.69 3.31,-266.58 23.9,-386.85 27.54,-160.49 53.63,-312.66 -12.63,-487.14z"/>
   <path class="fil0" d="M3368.45 4725.66c1.61,7.37 2.64,14.45 4.51,21.93 44.13,178.32 187.99,239.73 354.58,310.83 116.77,49.87 236.92,101.12 323.24,198.43 86.31,-97.31 206.47,-148.57 323.24,-198.43 166.59,-71.13 310.45,-132.53 354.58,-310.83 1.85,-7.47 2.88,-14.57 4.51,-21.93l-1364.65 0z"/>
   <path class="fil0" d="M4667.08 4130.22c0,-92.89 -88.29,-107.53 -168.53,-105.94 -80.27,1.61 -197.66,-13.05 -200.64,-75.44 -1.85,-38.9 63.42,-42.52 105.94,-28.89 24.67,7.92 178.15,35.33 226.31,-67.41 0,0 -56.13,1.8 -115.37,-11.5 -45.64,-10.24 -232.94,13.08 -266.65,85.31 -33.72,72.23 74.99,144.32 200.18,144.32 125.19,0 142.38,25.05 141.39,55.58 -1.29,40.12 -100.57,51.47 -157.63,50.95 -89.82,-32.61 -299.41,-7.08 -300.41,-11.04 -1.2,-4.85 -48.36,-85.79 -48.36,-85.79 0,0 85.81,-6.05 96.68,-21.76 10.87,-15.69 -65.11,-76.05 -65.11,-76.05 0,0 63.9,-25.49 66.33,-43.6 2.64,-19.94 -51.88,-67.14 -51.88,-67.14 0,0 21.07,-20.76 36.91,-56.2 11.33,-25.32 -78.64,-32.08 -78.64,-32.08 4.82,-19.24 2.98,-37.94 -20.88,-46.55 -18.43,-6.65 -86.68,19.24 -133.21,19.24 -46.53,0 -64.22,33.72 -64.22,33.72 0,0 -81.85,9.65 -93.11,19.24 -11.23,9.65 3.22,72.23 3.22,72.23 -41.73,-6.41 -60.98,-43.34 -60.98,-43.34 -20.88,94.69 77.05,104.34 77.05,104.34l16.05 51.37c0,0 0,0 40.12,4.82 40.12,4.82 20.88,43.34 -41.73,43.34 -62.61,0 -89.17,74.68 -89.17,74.68 -43.51,1.22 -67.67,-33.83 -77.34,-78.57 -10.65,-49.22 -4.36,-124.85 3.62,-172.8 9.67,-58.03 -19.34,-74.94 -19.34,-74.94l-19.34 48.36c-1.2,-49.55 -44.73,-54.38 -44.73,-54.38l-7.25 60.43c-21.76,-39.88 -59.2,-21.76 -59.2,-21.76 0,0 36.26,130.52 35.06,137.77 -1.22,7.25 -13.29,13.29 -30.21,-4.85 -16.92,-18.14 -28.99,-6.05 -28.99,-6.05 18.14,130.52 88.12,111.37 88.12,111.37 0,0 3.12,40.89 24.26,123.89 22.55,88.62 115.37,71.94 115.37,71.94 0,28.89 22.48,70.62 28.89,166.92 6.41,96.3 -81.85,163.73 -81.85,163.73 -80.27,-1.61 -72.23,77.05 -72.23,77.05l221.51 0.01c0,-204.81 88.05,-239.92 88.05,-239.92 130.52,6.05 256.21,-48.36 256.21,-48.36 -19.34,78.57 14.52,111.18 14.52,111.18 53.18,-7.25 26.59,97.88 10.87,97.88 -15.69,0 -48.36,0 -67.67,0 -19.31,0 -74.94,60.43 -74.94,60.43l229.63 0c0,0 35.06,-50.75 47.13,-76.12 12.07,-25.39 -26.59,-60.43 -28.99,-87.01 -2.4,-26.59 39.88,-43.51 39.88,-43.51 44.73,62.82 147.44,66.47 147.44,66.47l-2.4 -47.13c0,0 53.18,18.14 65.27,33.83 12.07,15.69 9.67,88.23 -54.38,96.68 -64.05,8.45 -68.9,54.38 -68.9,54.38 0,0 146.24,0 175.25,0 29.01,0 51.95,-54.38 51.95,-74.94 0,-20.54 0,-154.69 0,-183.72 0,-28.99 -24.16,-25.36 -80.97,-31.44 -51.59,-5.47 -46.65,-61.93 -67.91,-127.47 74.58,-2.52 189.94,-18.84 189.94,-95.75z"/>
   <path class="fil0" d="M4653.5 1934.04c-14.38,-126.72 -115.4,-288.1 -500.19,-363.74 -1.27,-40.89 -26.42,-75.54 -62.39,-90.13l0 -70.62 62.99 -0.01 0 -75.57 -62.99 0 0 -62.97 -75.57 0.01 0 62.99 -62.99 -0.01 0 75.57 62.99 0 0 70.62c-35.92,14.59 -61.12,49.24 -62.39,90.13 -384.79,75.66 -485.81,237.02 -500.19,363.74 -17.93,158.02 95.24,307.85 197.28,365.28l0 80.17 806.19 0.01 0 -80.17c102.01,-57.42 215.15,-207.28 197.25,-365.3zm-422.06 243.92l-112.83 0 0 -464.79c93.01,42.02 150.55,106.45 167.3,194.95 20.85,110.2 -23.2,222.55 -54.48,269.84zm-411.11 -269.91c16.75,-88.5 74.27,-152.91 167.3,-194.9l0 464.79 -112.85 0c-31.32,-47.27 -75.35,-159.65 -54.45,-269.89zm-93.27 -127.61c-18.52,37.12 -30.35,74.24 -36.38,108.35 -18.24,103.23 2.66,208.15 37.22,289.19l-26.47 -0.01c-56.53,-38.92 -129.18,-134.67 -118.45,-229.15 7.46,-66.11 57.59,-122.81 144.08,-168.38zm677.78 397.53l-26.54 0c34.55,-80.99 55.48,-185.9 37.27,-289.14 -6.05,-34.1 -17.86,-71.27 -36.4,-108.42 86.51,45.57 136.64,102.32 144.1,168.39 10.72,94.5 -61.92,190.25 -118.43,229.17z"/>
   <path class="fil1" d="M2226 7626.02l3597.7 0c1319.76,-660.54 2226,-2024.91 2226,-3601.17 0,-1576.3 -906.3,-2940.71 -2226.11,-3601.22l-3597.49 0c-1319.81,660.51 -2226.11,2024.92 -2226.11,3601.22 0,1576.26 906.25,2940.63 2226,3601.17z"/>
   <path class="fil2" d="M4024.85 0c646.59,0 1257.43,152.71 1798.8,423.66l-3597.61 0c541.38,-270.95 1152.21,-423.66 1798.8,-423.66zm1798.9 7626c-541.39,270.98 -1152.27,423.71 -1798.9,423.71 -646.62,0 -1257.5,-152.73 -1798.9,-423.71l3597.79 0z"/>
   <path class="fil3" d="M6085.29 5353.55c0,-178.03 -144.32,-322.35 -322.35,-322.35 -178.03,0 -322.35,144.32 -322.35,322.35 0,178.03 144.32,322.35 322.35,322.35 178.03,0 322.35,-144.32 322.35,-322.35z"/>
   <path class="fil2" d="M6328.61 3502.73c-237.23,199.44 -396.78,207.84 -396.78,207.84 422.01,-172.16 377.9,-499.66 377.9,-499.66 -199.44,262.43 -403.1,335.91 -403.1,335.91 424.1,-287.62 356.91,-673.92 356.91,-673.92 -138.55,306.53 -313.85,426.18 -313.85,426.18 352.71,-469.23 179.5,-771.54 179.5,-771.54 -138.55,434.58 -255.09,560.57 -255.09,560.57 270.83,-724.32 38.85,-933.21 38.85,-933.21 0,388.39 -144.87,610.94 -144.87,610.94 151.18,-512.26 -86.07,-806.19 -86.07,-806.19 0,0 -2.23,417.64 -82.67,636.39 -19.3,-29.32 -30.72,-25.44 -30.72,-25.44 -40.89,268.26 -185.06,457.12 -247.31,528.17 -13.83,-66.86 -55.38,-87.33 -55.38,-87.33 0,0 -7.49,65.63 -66.38,162.43 -38.58,63.42 -220.87,211.31 -250.26,341.47 -23.57,104.36 79.79,191.04 113.36,212.03 33.59,21 69.28,58.79 54.57,119.65 -14.69,60.88 -123.87,54.57 -201.55,52.48 -77.68,-2.09 -88.16,125.96 -174.27,121.78l-14.59 95.51 -33.72 7.37c0,0 -352.71,702.84 -382.73,941.99l-259.72 34.24 -259.72 -34.24c-30.02,-239.15 -382.73,-941.99 -382.73,-941.99l-33.72 -7.37 -14.59 -95.51c-86.07,4.2 -96.56,-123.87 -174.27,-121.78 -77.7,2.09 -186.86,8.4 -201.55,-52.48 -14.69,-60.88 21,-98.7 54.57,-119.65 33.59,-21 136.95,-107.7 113.36,-212.03 -29.39,-130.18 -211.68,-278.05 -250.26,-341.47 -58.89,-96.78 -66.38,-162.43 -66.38,-162.43 0,0 -41.56,20.47 -55.38,87.33 -62.22,-71.1 -206.4,-259.91 -247.29,-528.17 0,0 -11.42,-3.86 -30.72,25.44 -80.43,-218.78 -82.67,-636.39 -82.67,-636.39 0,0 -237.23,293.91 -86.07,806.19 0,0 -144.87,-222.52 -144.87,-610.94 0,0 -231.98,208.89 38.85,933.21 0,0 -116.5,-125.96 -255.09,-560.57 0,0 -173.21,302.31 179.5,771.54 0,0 -175.3,-119.65 -313.85,-426.18 0,0 -67.17,386.3 356.91,673.92 0,0 -203.66,-73.48 -403.1,-335.91 0,0 -44.08,327.53 377.9,499.66 0,0 -159.55,-8.4 -396.78,-207.84 0,0 -42,289.74 508.06,438.78 0,0 -224.66,-4.2 -453.49,-157.46 0,0 -6.31,285.51 463.98,342.22 0,0 -155.36,23.09 -329.62,-39.88 0,0 6.31,230.92 415.69,260.32 0,0 -161.66,12.6 -266.63,-12.6 0,0 10.48,237.23 333.82,197.35 0,0 -109.18,35.68 -144.87,46.17 0,0 6.31,193.68 343.25,124.4 0,0 -59.85,37.27 -141.73,49.87 0,0 69.28,161.66 350.62,90.28l-57.73 62.99c0,0 217.29,125.96 384.19,-47.25l-59.85 107.07c0,0 141.73,53.54 229.89,-85.02 0,0 -24.14,207.84 -318.08,245.66 0,0 10.48,44.08 23.09,60.88 0,0 -18.91,35.68 -188.95,65.08 0,0 35.68,54.57 73.48,71.39 0,0 -73.48,62.99 -113.36,75.57 0,0 62.99,31.48 102.87,37.8 0,0 -88.16,86.07 -197.35,88.16 -109.18,2.09 -304.4,-10.51 -304.4,-10.51 0,0 -2.09,-104.96 -52.48,-195.26 -50.39,-90.28 -67.17,-97.09 -67.17,-97.09 0,0 11.02,-72.43 -20.47,-102.35 -31.49,-29.92 -48.81,-44.08 -48.81,-44.08 0,0 16.8,-144.87 -29.39,-235.14 -46.17,-90.28 -209.95,-287.62 -218.35,-434.58 -8.4,-146.96 -2.09,-201.55 -2.09,-201.55l-50.39 12.6 -33.59 -69.28 56.68 -6.31 -23.09 -104.96 -77.7 29.39 -10.51 -90.28 -92.36 37.8 46.17 81.88 -81.88 23.09 48.3 96.56 62.99 -39.88 16.8 83.96c0,0 -37.8,8.4 -58.79,42 0,0 103.88,68.94 134.36,151.18 48.3,130.18 33.59,424.1 102.87,512.26 69.28,88.16 123.87,149.05 123.87,149.05 0,0 -19.41,59.85 2.62,92.89 22.05,33.07 53.54,42.52 53.54,42.52 0,0 -18.91,133.86 29.93,222.02 48.81,88.16 77.15,110.24 77.15,110.24 0,0 -177.94,108.63 -51.95,234.62 0,0 -16.8,114.42 102.87,141.73 0,0 6.31,90.28 109.18,79.79 0,0 50.39,-14.69 62.99,10.51 12.6,25.18 0,170.04 0,170.04 0,0 46.17,-4.2 75.57,-25.18l92.36 46.17 2.09 -102.87 115.47 -46.17c0,0 -50.39,8.4 -153.27,-88.16 0,0 16.8,-10.51 29.39,-92.39 0,0 81.88,-65.08 98.7,-117.56 16.8,-52.48 132.27,-167.95 266.63,-205.75l18.38 81.88c0,0 192.12,-170.04 272.39,-179.5l66.14 87.11c0,0 247.75,-367.39 356.91,-432.49 -8.4,29.39 52.48,33.59 -82.93,184.75 -135.41,151.18 -51.45,270.83 -51.45,270.83 -83.96,69.28 -67.17,132.27 -77.7,203.66 -10.48,71.39 -289.74,256.14 -289.74,256.14 88.16,111.27 186.86,86.07 186.86,86.07 -54.59,35.68 -37.8,155.36 -37.8,155.36 79.79,21 159.55,-14.69 159.55,-14.69 -27.31,75.57 14.69,128.05 14.69,128.05 50.39,-31.48 165.87,-50.39 165.87,-50.39 -14.69,130.18 69.28,199.44 69.28,199.44l73.48 -79.79c12.6,146.96 142.78,230.94 142.78,230.94 0,0 130.18,-83.99 142.78,-230.94l73.48 79.79c0,0 83.99,-69.28 69.28,-199.44 0,0 115.47,18.91 165.87,50.39 0,0 42,-52.48 14.69,-128.05 0,0 79.79,35.68 159.55,14.69 0,0 16.8,-119.67 -37.8,-155.36 0,0 98.7,25.18 186.86,-86.07 0,0 -279.23,-184.75 -289.74,-256.14 -10.48,-71.39 6.31,-134.36 -77.7,-203.66 0,0 83.96,-119.67 -51.45,-270.83 -135.41,-151.18 -74.53,-155.38 -82.93,-184.75 109.18,65.08 356.91,432.49 356.91,432.49l66.14 -87.11c80.32,9.45 272.39,179.5 272.39,179.5l18.38 -81.88 3.48 -3.79c100.16,53.94 265.6,126.89 332.45,178.01 71.39,54.59 130.18,58.79 302.31,0 172.18,-58.79 492.46,-149.19 445.09,-256.14 -2.59,-5.83 -5.52,-9.74 -8.35,-14.3 7.51,-27.62 10.61,-75.83 -39.95,-117.97 0,0 0.6,11.74 0.19,26.8l-164.12 -61.17c-5.42,-14.52 -13.53,-28.75 -29.21,-41.2 0,0 0.24,12.6 -2.02,29.59l-42.09 -15.69 84.02 -236.34c-6.36,-3.55 -13.51,-5.54 -20.11,-8.66 1.7,-21.41 5.73,-50.99 12,-81.93 20.52,7.17 39.26,16.03 52.84,27.14l23.71 -86.53c0,0 -25.51,-1.68 -59.13,-7.97 8.5,-26.11 18.58,-49.55 30.55,-64.7l-111.27 -33.59c0,0 2.88,33.72 0.91,75.78 -21.24,-8.61 -41.49,-19.56 -57.86,-33.57l-26.08 96.03c8.95,0.53 39.33,3.14 74.53,9.43 -6.36,28.19 -17.56,53.2 -33.62,71.97 -3.96,-0.53 -7.63,-1.97 -11.66,-2.35l-81.59 229.53 -221.25 -82.45c-9.48,14.92 -16.8,31.2 -23.64,47.66 1.18,-2.4 2.23,-6.14 3.48,-7.65 0,0 -85.59,44.78 -84.42,110.55 -15.77,5.97 -29.59,17.8 -37.39,38.32 -25.18,66.14 129.1,214.15 91.33,233.03 -37.1,18.52 -230.92,-141.1 -262,-167.91 39.95,-7.75 98.24,-36.79 98.24,-36.79 -39.91,-12.6 -113.36,-75.57 -113.36,-75.57 37.8,-16.8 73.48,-71.39 73.48,-71.39 -170.04,-29.39 -188.95,-65.08 -188.95,-65.08 12.6,-16.8 23.09,-60.88 23.09,-60.88 -293.91,-37.8 -318.08,-245.66 -318.08,-245.66 88.16,138.55 229.89,85.02 229.89,85.02l-59.85 -107.07c166.9,173.21 384.19,47.25 384.19,47.25l-57.73 -62.99c281.32,71.39 350.62,-90.28 350.62,-90.28 -81.88,-12.6 -141.73,-49.87 -141.73,-49.87 336.96,69.28 343.25,-124.4 343.25,-124.4 -35.68,-10.51 -144.87,-46.17 -144.87,-46.17 323.31,39.91 333.82,-197.35 333.82,-197.35 -104.96,25.18 -266.63,12.6 -266.63,12.6 409.39,-29.39 415.69,-260.32 415.69,-260.32 -174.27,62.99 -329.62,39.88 -329.62,39.88 470.26,-56.68 463.98,-342.22 463.98,-342.22 -228.84,153.27 -453.49,157.46 -453.49,157.46 550.26,-149.12 508.26,-438.81 508.26,-438.81zm-477.1 2076.85c-22.44,-36.43 31.03,-69.01 55.1,-103.69l93.06 34.65c-31.61,37.72 -125.02,106.59 -148.16,69.04zm-62.17 -147.37c-30.19,46.77 -51.19,99.23 -144.1,101.73 -116.5,3.14 -135.41,-100.79 -160.59,-157.46 -7.34,-16.53 -20.02,-29.01 -34.55,-37.58 -0.05,-10.17 0.48,-21.33 1.37,-32.61l337.87 125.93z"/>
   <path class="fil2" d="M4016.1 3214.05c0,0 -149.57,-127.54 -193.68,-196.82 0,0 50.39,-20.47 75.57,-51.95 0,0 -135.41,-72.43 -207.84,-146.43 0,0 47.25,-7.87 83.46,-37.8 0,0 -121.62,-21.98 -183.29,-121.57 140.6,-48.02 93.54,-179.18 93.54,-179.18 -28.34,37.8 -144.87,85.02 -270.83,31.48 -125.96,-53.54 -264.52,-15.77 -264.52,53.54 0,0 -283.43,-81.88 -212.57,192.12 0,0 45.64,-102.35 146.43,-64.55 100.79,37.8 203.13,166.9 203.13,166.9 0,0 -62.99,34.63 -179.5,-3.14 0,0 47.25,181.05 259.82,89.75 0,0 83.96,45.14 88.16,177.41 0,0 35.68,-18.91 58.79,-60.88 0,0 33.59,128.05 -10.48,233.03 0,0 58.79,-10.48 77.7,-29.39 0,0 16.8,111.27 -56.68,201.55 0,0 322.78,153.8 527.5,-14.69 0,0 -77.15,-88.16 -102.35,-170.04 -0.1,-0.06 42.4,-17.39 67.62,-69.32z"/>
   <path class="fil2" d="M4952.98 2565.3c0,-69.28 -138.55,-107.07 -264.52,-53.54 -125.96,53.54 -242.49,6.31 -270.83,-31.48 0,0 -47.08,131.17 93.54,179.18 -61.67,99.58 -183.29,121.57 -183.29,121.57 36.23,29.93 83.46,37.8 83.46,37.8 -72.43,74 -207.84,146.43 -207.84,146.43 25.18,31.48 75.57,51.95 75.57,51.95 -44.08,69.28 -193.68,196.82 -193.68,196.82 25.18,51.95 67.72,69.28 67.72,69.28 -25.18,81.88 -102.35,170.04 -102.35,170.04 204.69,168.48 527.5,14.69 527.5,14.69 -73.48,-90.28 -56.68,-201.55 -56.68,-201.55 18.91,18.91 77.7,29.39 77.7,29.39 -44.08,-104.96 -10.48,-233.03 -10.48,-233.03 23.09,42 58.79,60.88 58.79,60.88 4.2,-132.27 88.16,-177.41 88.16,-177.41 212.57,91.33 259.82,-89.75 259.82,-89.75 -116.5,37.8 -179.5,3.14 -179.5,3.14 0,0 102.35,-129.1 203.13,-166.9 100.79,-37.8 146.43,64.55 146.43,64.55 70.74,-273.93 -212.66,-192.07 -212.66,-192.07z"/>
   <path class="fil2" d="M4824.64 4238.02c-27.64,-160.92 -51.47,-299.91 17.95,-459.15l12.96 -29.73 -274.93 -315.7 -32.49 10.82c-2.81,0.96 -290.17,94.91 -474.39,2.76l-22.99 -11.5 -22.99 11.5c-183.36,91.88 -471.49,-1.8 -474.46,-2.81l-32.49 -10.72 -274.88 315.65 12.96 29.73c69.42,159.24 45.59,298.23 17.95,459.15 -26.04,151.95 -55.58,324.2 -3.6,534.24 56.42,228.02 246.4,309.05 413.94,380.66 129.18,55.12 251.15,107.2 320.12,216.5l43.44 68.87 43.44 -68.87c68.97,-109.31 190.94,-161.35 320.12,-216.5 167.59,-71.58 357.53,-152.62 413.94,-380.66 51.99,-210.04 22.43,-382.32 -3.58,-534.24zm-1459.17 -469.76l188.69 -216.62c85.48,23.49 316.52,74.32 496.57,-2.11 180.02,76.46 411.07,25.58 496.57,2.11l188.69 216.62c-66.25,174.51 -40.17,326.62 -12.62,487.14 20.61,120.27 41.13,244.16 23.9,386.85l-1393.07 0c-17.21,-142.69 3.31,-266.58 23.9,-386.85 27.54,-160.49 53.63,-312.66 -12.63,-487.14zm1008.49 1290.16c-116.77,49.87 -236.92,101.12 -323.24,198.43 -86.31,-97.31 -206.47,-148.57 -323.24,-198.43 -163.85,-69.95 -305.22,-131.1 -351.84,-302.79l1350.1 0.01c-46.58,171.72 -187.94,232.84 -351.79,302.79z"/>
   <path class="fil3" d="M3365.47 3768.26l188.69 -216.62c85.48,23.49 316.52,74.32 496.57,-2.11 180.02,76.46 411.07,25.58 496.57,2.11l188.69 216.62c-66.25,174.51 -40.17,326.62 -12.62,487.14 20.61,120.27 41.13,244.16 23.9,386.85l-1393.07 0c-17.21,-142.69 3.31,-266.58 23.9,-386.85 27.54,-160.49 53.63,-312.66 -12.63,-487.14z"/>
   <path class="fil4" d="M3368.45 4725.66c1.61,7.37 2.64,14.45 4.51,21.93 44.13,178.32 187.99,239.73 354.58,310.83 116.77,49.87 236.92,101.12 323.24,198.43 86.31,-97.31 206.47,-148.57 323.24,-198.43 166.59,-71.13 310.45,-132.53 354.58,-310.83 1.85,-7.47 2.88,-14.57 4.51,-21.93l-1364.65 0z"/>
   <path class="fil2" d="M4667.08 4130.22c0,-92.89 -88.29,-107.53 -168.53,-105.94 -80.27,1.61 -197.66,-13.05 -200.64,-75.44 -1.85,-38.9 63.42,-42.52 105.94,-28.89 24.67,7.92 178.15,35.33 226.31,-67.41 0,0 -56.13,1.8 -115.37,-11.5 -45.64,-10.24 -232.94,13.08 -266.65,85.31 -33.72,72.23 74.99,144.32 200.18,144.32 125.19,0 142.38,25.05 141.39,55.58 -1.29,40.12 -100.57,51.47 -157.63,50.95 -89.82,-32.61 -299.41,-7.08 -300.41,-11.04 -1.2,-4.85 -48.36,-85.79 -48.36,-85.79 0,0 85.81,-6.05 96.68,-21.76 10.87,-15.69 -65.11,-76.05 -65.11,-76.05 0,0 63.9,-25.49 66.33,-43.6 2.64,-19.94 -51.88,-67.14 -51.88,-67.14 0,0 21.07,-20.76 36.91,-56.2 11.33,-25.32 -78.64,-32.08 -78.64,-32.08 4.82,-19.24 2.98,-37.94 -20.88,-46.55 -18.43,-6.65 -86.68,19.24 -133.21,19.24 -46.53,0 -64.22,33.72 -64.22,33.72 0,0 -81.85,9.65 -93.11,19.24 -11.23,9.65 3.22,72.23 3.22,72.23 -41.73,-6.41 -60.98,-43.34 -60.98,-43.34 -20.88,94.69 77.05,104.34 77.05,104.34l16.05 51.37c0,0 0,0 40.12,4.82 40.12,4.82 20.88,43.34 -41.73,43.34 -62.61,0 -89.17,74.68 -89.17,74.68 -43.51,1.22 -67.67,-33.83 -77.34,-78.57 -10.65,-49.22 -4.36,-124.85 3.62,-172.8 9.67,-58.03 -19.34,-74.94 -19.34,-74.94l-19.34 48.36c-1.2,-49.55 -44.73,-54.38 -44.73,-54.38l-7.25 60.43c-21.76,-39.88 -59.2,-21.76 -59.2,-21.76 0,0 36.26,130.52 35.06,137.77 -1.22,7.25 -13.29,13.29 -30.21,-4.85 -16.92,-18.14 -28.99,-6.05 -28.99,-6.05 18.14,130.52 88.12,111.37 88.12,111.37 0,0 3.12,40.89 24.26,123.89 22.55,88.62 115.37,71.94 115.37,71.94 0,28.89 22.48,70.62 28.89,166.92 6.41,96.3 -81.85,163.73 -81.85,163.73 -80.27,-1.61 -72.23,77.05 -72.23,77.05l221.51 0.01c0,-204.81 88.05,-239.92 88.05,-239.92 130.52,6.05 256.21,-48.36 256.21,-48.36 -19.34,78.57 14.52,111.18 14.52,111.18 53.18,-7.25 26.59,97.88 10.87,97.88 -15.69,0 -48.36,0 -67.67,0 -19.31,0 -74.94,60.43 -74.94,60.43l229.63 0c0,0 35.06,-50.75 47.13,-76.12 12.07,-25.39 -26.59,-60.43 -28.99,-87.01 -2.4,-26.59 39.88,-43.51 39.88,-43.51 44.73,62.82 147.44,66.47 147.44,66.47l-2.4 -47.13c0,0 53.18,18.14 65.27,33.83 12.07,15.69 9.67,88.23 -54.38,96.68 -64.05,8.45 -68.9,54.38 -68.9,54.38 0,0 146.24,0 175.25,0 29.01,0 51.95,-54.38 51.95,-74.94 0,-20.54 0,-154.69 0,-183.72 0,-28.99 -24.16,-25.36 -80.97,-31.44 -51.59,-5.47 -46.65,-61.93 -67.91,-127.47 74.58,-2.52 189.94,-18.84 189.94,-95.75z"/>
   <path class="fil2" d="M4653.5 1934.04c-14.38,-126.72 -115.4,-288.1 -500.19,-363.74 -1.27,-40.89 -26.42,-75.54 -62.39,-90.13l0 -70.62 62.99 -0.01 0 -75.57 -62.99 0 0 -62.97 -75.57 0.01 0 62.99 -62.99 -0.01 0 75.57 62.99 0 0 70.62c-35.92,14.59 -61.12,49.24 -62.39,90.13 -384.79,75.66 -485.81,237.02 -500.19,363.74 -17.93,158.02 95.24,307.85 197.28,365.28l0 80.17 806.19 0.01 0 -80.17c102.01,-57.42 215.15,-207.28 197.25,-365.3zm-422.06 243.92l-112.83 0 0 -464.79c93.01,42.02 150.55,106.45 167.3,194.95 20.85,110.2 -23.2,222.55 -54.48,269.84zm-411.11 -269.91c16.75,-88.5 74.27,-152.91 167.3,-194.9l0 464.79 -112.85 0c-31.32,-47.27 -75.35,-159.65 -54.45,-269.89zm-93.27 -127.61c-18.52,37.12 -30.35,74.24 -36.38,108.35 -18.24,103.23 2.66,208.15 37.22,289.19l-26.47 -0.01c-56.53,-38.92 -129.18,-134.67 -118.45,-229.15 7.46,-66.11 57.59,-122.81 144.08,-168.38zm677.78 397.53l-26.54 0c34.55,-80.99 55.48,-185.9 37.27,-289.14 -6.05,-34.1 -17.86,-71.27 -36.4,-108.42 86.51,45.57 136.64,102.32 144.1,168.39 10.72,94.5 -61.92,190.25 -118.43,229.17z"/>
  </g>
 </g>
</svg>
