<svg xmlns="http://www.w3.org/2000/svg" width="178.529" height="92.557" viewBox="0 0 1253 650" shape-rendering="geometricPrecision" text-rendering="geometricPrecision" image-rendering="optimizeQuality" fill-rule="evenodd" clip-rule="evenodd"><defs><style>.fil3{fill:#000}.fil5{fill:#d6a354}.fil2{fill:#f0d8b4}.fil0,.fil1{fill:#d6a354;fill-rule:nonzero}.fil0{fill:#f0d8b4}</style></defs><g id="Слой_x0020_1"><g id="_750381760"><path class="fil0" d="M713 508h24v-30l-29-30h-37l-29 30v140l28 32h38l29-32v-32l-24 1v22l-15 17h-17l-15-17V487l15-15h17l15 15z"/><path id="1" class="fil0" d="M761 474h24v2l-10 6v167h24v-88h45v88h24V450h-24v88h-45v-88h-38z"/><path id="2" class="fil0" d="M932 474h34v23h23v-47h-95v24h24v2l-10 6v167h24z"/><path class="fil1" d="M720 502h24v-30l-29-31h-38l-29 31v139l29 33h38l29-33v-31h-24v22l-16 17h-17l-15-17V481l15-15h17l16 15z"/><path id="1" class="fil1" d="M767 468h24v2l-10 6v166h25v-87h45v87h24V444h-24v87h-45v-87h-39z"/><path id="2" class="fil1" d="M938 468h34v23h24v-47h-96v24h24v2l-10 6v166h24z"/><path class="fil2" d="M1046 507c5-3 11-6 15-8 18-11 33-24 46-39 31-38 40-94 15-137-45-80-111-24-80 14 13 16 30 13 46 49 14 29 8 53-8 74-10 14-32 35-53 43v1l-1 5v140h20V507z"/><path class="fil2" d="M1071 519c2-3 10-6 13-7 26-13 55-42 72-65 13-17 59-80 27-106-10-8-46-13-43 24 6 68-31 112-87 144v140h18V519z"/><path class="fil2" d="M1097 524c20-5 87-56 99-71 3-3 5-5 9-8 3-3 5-6 8-9 34-36-3-61-20-40-3 4-9 17-12 22-4 7-9 14-13 20-8 12-22 28-32 37-15 16-38 36-58 43v131h19V524z"/><path class="fil2" d="M1126 533c22-3 61-29 76-40 10-7 41-30 45-42 2-8-5-15-10-18-14-6-23 12-34 21-22 20-55 46-81 62-3 2-17 8-18 11v122h22V533zM1004 383c-19 3-34 19-31 42 8 47 81 36 72-13-3-17-20-33-41-29z"/><g><path class="fil3" d="M735 305c12 24 83 21 97 16l16 20-13 19c-48 5-77-11-121-18-26-4-220 121-257 141-67 37-317 173-386 160-52-18-39-73-13-91l283-103c41-17 239-96 269-136l-150-16-1 65L0 299l5-115 695 113c-3 0-9 0-17 1 24 48-5-7 52 7zm-89 10c10 0 17 7 17 17 0 9-7 16-17 16-9 0-16-8-16-17s7-16 16-16zM95 576c9 0 17 8 17 17s-8 16-17 16-17-7-17-16c0-10 8-17 17-17z"/><path d="M12 147c0-39 10-72 32-99C65 21 94 7 130 7c39 0 70 13 91 37 20 25 31 59 31 103 0 20-2 38-7 55l-50-8c4-13 6-29 6-47 0-64-24-96-71-96-22 0-39 8-50 26-12 17-18 41-18 70 0 11 1 20 2 29l-52-8v-21zM287 11l47-11v214l-47-7V11zm85 209c-2-10-3-19-3-30 0-32 10-58 28-78 19-20 42-30 69-30 16 0 30 3 42 10V11l47-11v246l-47-7V134c-10-8-20-12-31-12-19 0-33 6-44 17-10 12-15 28-15 50 0 16 3 29 9 38l-55-7zm219 31V12c37-1 63-2 78-2 28 0 51 6 67 18s24 30 24 52-11 39-35 52c35 12 52 36 52 74 0 25-10 44-29 59-4 4-10 7-15 10l-142-24zm49-200v66c7 1 15 1 23 1 32 0 48-12 48-36 0-21-14-32-43-32-8 0-17 1-28 1zm0 105v90c10 1 18 2 24 2 22 0 37-4 47-11 10-8 15-20 15-37 0-16-5-27-14-34s-25-11-48-11c-4 0-13 0-24 1zm150 30c0-30 9-55 27-75 18-19 41-29 70-29 31 0 54 10 71 28 17 19 25 44 25 76s-8 58-25 77c-18 19-41 28-71 28s-54-9-71-29c-17-19-26-44-26-76zm49 0c0 44 16 67 48 67 15 0 26-6 35-18 8-11 13-28 13-49 0-43-16-65-48-65-15 0-26 5-35 17-8 12-13 28-13 48zm257 133c-5 14-16 25-33 34-13 7-28 11-45 13h-12l-18-21 18-20c4 0 9-1 12-1 28-2 42-11 42-27 0-12-5-30-15-55L982 86h49l55 139 50-139h49l-89 233z" fill-rule="nonzero"/><path class="fil3" d="M791 44c4-2 5-6 5-10 0-9-6-14-16-14h-21v24c5 8 8 17 9 26h13c10 0 16-5 16-15 0-5-2-8-6-11zm-19-5v-8h7c3 0 5 1 5 4s-2 4-5 4h-7zm0 20v-9h8c3 0 5 2 5 5 0 2-2 4-5 4h-8zm75 11l-19-50h-9l-19 50h13l3-7h15l3 7h13zm-19-18h-9l5-13 4 13zm64 18l-11-21c2-1 3-2 4-3 3-3 4-6 4-10 0-10-7-16-17-16h-20v50h12V51h4l9 19h15zm-28-29V31h7c3 0 6 2 6 5s-3 5-6 5h-7zm65 3c4-2 6-6 6-10 0-9-6-14-16-14h-21v50h22c10 0 16-5 16-15 0-5-2-8-7-11zm-19-5v-8h8c3 0 5 1 5 4s-2 4-5 4h-8zm0 20v-9h9c3 0 4 2 4 5 0 2-1 4-4 4h-9zm69 11V59h-23v-9h19V39h-19v-8h23V20h-35v50h35zm48 0l-11-21c3-1 4-2 5-3 2-3 3-6 3-10 0-10-7-16-17-16h-20v50h12V51h5l9 19h14zm-28-29V31h8c3 0 5 2 5 5s-2 5-5 5h-8zm60-8l7-8c-2-2-3-3-6-4s-6-2-10-2c-12 0-19 6-19 16 0 9 4 14 13 15l7 1c3 0 4 1 4 4s-2 5-7 5c-3 0-6-1-8-2-2 0-2-1-4-2l-8 8c3 3 5 4 7 5 3 1 7 2 12 2 12 0 20-6 20-16 0-9-4-14-14-15l-6-1c-3-1-4-2-4-4 0-3 2-5 7-5 2 0 4 0 5 1 2 0 2 1 4 2zm54 37V20h-12v19h-13V20h-13v50h13V50h13v20h12zm47-25v-4c0-8-1-12-5-16s-8-6-14-6-11 2-14 6c-4 4-5 8-5 18v3c0 7 0 14 5 19 3 4 8 6 14 6s10-2 14-6c6-6 5-13 5-20zm-24-12c1-2 3-3 5-3s4 1 5 3c1 1 2 5 2 10v3c0 7-1 10-2 11-1 2-3 3-5 3s-4-1-5-3c-1-1-2-4-2-11v-3c0-5 1-9 2-10zm33-13v50h12V52h8c10 0 17-7 17-16 0-10-7-16-17-16h-20zm12 21V31h7c3 0 5 2 5 5s-2 5-5 5h-7z"/></g><g><path class="fil5" d="M1052 501c5-3 11-6 16-9 17-10 33-23 45-38 32-38 40-94 16-137-46-80-112-25-81 14 13 16 30 13 47 49 13 28 7 53-8 74-11 14-33 35-54 42v7c0 19-1 86-1 139h20V501z"/><path class="fil5" d="M1078 512c1-3 9-5 12-7 27-13 55-42 72-64 13-18 60-81 28-106-10-8-47-13-43 24 6 68-31 112-88 143v140h19V512z"/><path class="fil5" d="M1104 518c19-5 86-56 99-71 3-4 5-5 8-8 4-3 5-6 8-9 34-37-2-61-20-40-3 3-9 16-12 22-4 7-8 14-13 20-8 11-22 27-31 37-16 15-39 36-58 43v130h19V518z"/><path class="fil5" d="M1133 526c21-3 61-29 75-39 11-7 42-30 45-42 2-8-4-16-10-18-14-7-23 12-34 21-22 20-55 46-81 62-3 1-17 8-17 11v121h22V526zM1010 376c-18 3-34 20-30 43 7 46 80 36 72-13-3-18-20-33-42-30z"/></g></g></g></svg>