<?xml version="1.0" encoding="UTF-8"?>
<!DOCTYPE svg PUBLIC "-//W3C//DTD SVG 1.1//EN" "http://www.w3.org/Graphics/SVG/1.1/DTD/svg11.dtd">
<!-- Creator: CorelDRAW X7 -->
<svg xmlns="http://www.w3.org/2000/svg" xml:space="preserve" width="47.2358mm" height="24.4891mm" version="1.1" style="shape-rendering:geometricPrecision; text-rendering:geometricPrecision; image-rendering:optimizeQuality; fill-rule:evenodd; clip-rule:evenodd"
viewBox="0 0 1253 650"
 xmlns:xlink="http://www.w3.org/1999/xlink">
 <defs>
  <style type="text/css">
   <![CDATA[
    .fil3 {fill:black}
    .fil5 {fill:#D6A354}
    .fil2 {fill:#F0D8B4}
    .fil4 {fill:black;fill-rule:nonzero}
    .fil1 {fill:#D6A354;fill-rule:nonzero}
    .fil0 {fill:#F0D8B4;fill-rule:nonzero}
   ]]>
  </style>
 </defs>
 <g id="Слой_x0020_1">
  <metadata id="CorelCorpID_0Corel-Layer"/>
  <g id="_750381760">
   <polygon class="fil0" points="713,508 737,508 737,478 708,448 671,448 642,478 642,618 670,650 708,650 737,618 737,586 713,587 713,609 698,626 681,626 666,609 666,487 681,472 698,472 713,487 "/>
   <polygon id="1" class="fil0" points="761,474 785,474 785,476 775,482 775,649 799,649 799,561 844,561 844,649 868,649 868,450 844,450 844,538 799,538 799,450 761,450 "/>
   <polygon id="2" class="fil0" points="932,474 966,474 966,497 989,497 989,450 894,450 894,474 918,474 918,476 908,482 908,649 932,649 "/>
   <polygon class="fil1" points="720,502 744,502 744,472 715,441 677,441 648,472 648,611 677,644 715,644 744,611 744,580 720,580 720,602 704,619 687,619 672,602 672,481 687,466 704,466 720,481 "/>
   <polygon id="1" class="fil1" points="767,468 791,468 791,470 781,476 781,642 806,642 806,555 851,555 851,642 875,642 875,444 851,444 851,531 806,531 806,444 767,444 "/>
   <polygon id="2" class="fil1" points="938,468 972,468 972,491 996,491 996,444 900,444 900,468 924,468 924,470 914,476 914,642 938,642 "/>
   <g>
    <path class="fil2" d="M1046 507c5,-3 11,-6 15,-8 18,-11 33,-24 46,-39 31,-38 40,-94 15,-137 -45,-80 -111,-24 -80,14 13,16 30,13 46,49 14,29 8,53 -8,74 -10,14 -32,35 -53,43 0,0 0,0 0,0 0,0 0,1 0,1l-1 5c0,20 0,87 0,140l20 0c0,-58 0,-131 0,-142z"/>
    <path class="fil2" d="M1071 519c2,-3 10,-6 13,-7 26,-13 55,-42 72,-65 13,-17 59,-80 27,-106 -10,-8 -46,-13 -43,24 6,68 -31,112 -87,144l0 140 18 0 0 -130z"/>
    <path class="fil2" d="M1097 524c20,-5 87,-56 99,-71 3,-3 5,-5 9,-8 3,-3 5,-6 8,-9 34,-36 -3,-61 -20,-40 -3,4 -9,17 -12,22 -4,7 -9,14 -13,20 -8,12 -22,28 -32,37 -15,16 -38,36 -58,43l0 131 19 0 0 -125z"/>
    <path class="fil2" d="M1126 533c22,-3 61,-29 76,-40 10,-7 41,-30 45,-42 2,-8 -5,-15 -10,-18 -14,-6 -23,12 -34,21 -22,20 -55,46 -81,62 -3,2 -17,8 -18,11l0 122 22 0 0 -116z"/>
    <path class="fil2" d="M1004 383c-19,3 -34,19 -31,42 8,47 81,36 72,-13 -3,-17 -20,-33 -41,-29z"/>
   </g>
   <g>
    <path class="fil3" d="M735 305c12,24 83,21 97,16l16 20 -13 19c-48,5 -77,-11 -121,-18 -26,-4 -220,121 -257,141 -67,37 -317,173 -386,160 -52,-18 -39,-73 -13,-91l283 -103c41,-17 239,-96 269,-136l-150 -16 -1 65 -459 -63 5 -115 695 113c-3,0 -9,0 -17,1 24,48 -5,-7 52,7zm-89 10c10,0 17,7 17,17 0,9 -7,16 -17,16 -9,0 -16,-8 -16,-17 0,-9 7,-16 16,-16zm-551 261c9,0 17,8 17,17 0,9 -8,16 -17,16 -9,0 -17,-7 -17,-16 0,-10 8,-17 17,-17z"/>
    <path class="fil4" d="M12 147c0,-39 10,-72 32,-99 21,-27 50,-41 86,-41 39,0 70,13 91,37 20,25 31,59 31,103 0,20 -2,38 -7,55l-50 -8c4,-13 6,-29 6,-47 0,-64 -24,-96 -71,-96 -22,0 -39,8 -50,26 -12,17 -18,41 -18,70 0,11 1,20 2,29l-52 -8c0,-6 0,-13 0,-21zm275 -136l47 -11 0 214 -47 -7 0 -196zm85 209c-2,-10 -3,-19 -3,-30 0,-32 10,-58 28,-78 19,-20 42,-30 69,-30 16,0 30,3 42,10l0 -81 47 -11 0 246 -47 -7 0 -105c-10,-8 -20,-12 -31,-12 -19,0 -33,6 -44,17 -10,12 -15,28 -15,50 0,16 3,29 9,38l-55 -7zm219 31l0 -239c37,-1 63,-2 78,-2 28,0 51,6 67,18 16,12 24,30 24,52 0,22 -11,39 -35,52 35,12 52,36 52,74 0,25 -10,44 -29,59 -4,4 -10,7 -15,10l-142 -24zm49 -200l0 66c7,1 15,1 23,1 32,0 48,-12 48,-36 0,-21 -14,-32 -43,-32 -8,0 -17,1 -28,1zm0 105l0 90c10,1 18,2 24,2 22,0 37,-4 47,-11 10,-8 15,-20 15,-37 0,-16 -5,-27 -14,-34 -9,-7 -25,-11 -48,-11 -4,0 -13,0 -24,1zm150 30c0,-30 9,-55 27,-75 18,-19 41,-29 70,-29 31,0 54,10 71,28 17,19 25,44 25,76 0,32 -8,58 -25,77 -18,19 -41,28 -71,28 -30,0 -54,-9 -71,-29 -17,-19 -26,-44 -26,-76zm49 0c0,44 16,67 48,67 15,0 26,-6 35,-18 8,-11 13,-28 13,-49 0,-43 -16,-65 -48,-65 -15,0 -26,5 -35,17 -8,12 -13,28 -13,48zm257 133c-5,14 -16,25 -33,34 -13,7 -28,11 -45,13 -4,0 -8,0 -12,0l-18 -21 18 -20c4,0 9,-1 12,-1 28,-2 42,-11 42,-27 0,-12 -5,-30 -15,-55l-63 -156 49 0 55 139 50 -139 49 0 -89 233z"/>
    <path class="fil3" d="M791 44c4,-2 5,-6 5,-10 0,-9 -6,-14 -16,-14l-21 0 0 24c5,8 8,17 9,26l13 0c10,0 16,-5 16,-15 0,-5 -2,-8 -6,-11zm-19 -5l0 -8 7 0c3,0 5,1 5,4 0,3 -2,4 -5,4l-7 0zm0 20l0 -9 8 0c3,0 5,2 5,5 0,2 -2,4 -5,4l-8 0zm75 11l-19 -50 -9 0 -19 50 13 0 3 -7 15 0 3 7 13 0zm-19 -18l-9 0 5 -13 4 13zm64 18l-11 -21c2,-1 3,-2 4,-3 3,-3 4,-6 4,-10 0,-10 -7,-16 -17,-16l-20 0 0 50 12 0 0 -19 4 0 9 19 15 0zm-28 -29l0 -10 7 0c3,0 6,2 6,5 0,3 -3,5 -6,5l-7 0zm65 3c4,-2 6,-6 6,-10 0,-9 -6,-14 -16,-14l-21 0 0 50 22 0c10,0 16,-5 16,-15 0,-5 -2,-8 -7,-11zm-19 -5l0 -8 8 0c3,0 5,1 5,4 0,3 -2,4 -5,4l-8 0zm0 20l0 -9 9 0c3,0 4,2 4,5 0,2 -1,4 -4,4l-9 0zm69 11l0 -11 -23 0 0 -9 19 0 0 -11 -19 0 0 -8 23 0 0 -11 -35 0 0 50 35 0zm48 0l-11 -21c3,-1 4,-2 5,-3 2,-3 3,-6 3,-10 0,-10 -7,-16 -17,-16l-20 0 0 50 12 0 0 -19 5 0 9 19 14 0zm-28 -29l0 -10 8 0c3,0 5,2 5,5 0,3 -2,5 -5,5l-8 0zm60 -8l7 -8c-2,-2 -3,-3 -6,-4 -3,-1 -6,-2 -10,-2 -12,0 -19,6 -19,16 0,9 4,14 13,15l7 1c3,0 4,1 4,4 0,3 -2,5 -7,5 -3,0 -6,-1 -8,-2 -2,0 -2,-1 -4,-2l-8 8c3,3 5,4 7,5 3,1 7,2 12,2 12,0 20,-6 20,-16 0,-9 -4,-14 -14,-15l-6 -1c-3,-1 -4,-2 -4,-4 0,-3 2,-5 7,-5 2,0 4,0 5,1 2,0 2,1 4,2zm54 37l0 -50 -12 0 0 19 -13 0 0 -19 -13 0 0 50 13 0 0 -20 13 0 0 20 12 0zm47 -25l0 -4c0,-8 -1,-12 -5,-16 -4,-4 -8,-6 -14,-6 -6,0 -11,2 -14,6 -4,4 -5,8 -5,18l0 3c0,7 0,14 5,19 3,4 8,6 14,6 6,0 10,-2 14,-6 6,-6 5,-13 5,-20zm-24 -12c1,-2 3,-3 5,-3 2,0 4,1 5,3 1,1 2,5 2,10l0 3c0,7 -1,10 -2,11 -1,2 -3,3 -5,3 -2,0 -4,-1 -5,-3 -1,-1 -2,-4 -2,-11l0 -3c0,-5 1,-9 2,-10zm33 -13l0 50 12 0 0 -18 8 0c10,0 17,-7 17,-16 0,-10 -7,-16 -17,-16l-20 0zm12 21l0 -10 7 0c3,0 5,2 5,5 0,3 -2,5 -5,5l-7 0z"/>
   </g>
   <g>
    <path class="fil5" d="M1052 501c5,-3 11,-6 16,-9 17,-10 33,-23 45,-38 32,-38 40,-94 16,-137 -46,-80 -112,-25 -81,14 13,16 30,13 47,49 13,28 7,53 -8,74 -11,14 -33,35 -54,42 0,1 0,1 0,1 0,0 0,0 0,1l0 5c0,19 -1,86 -1,139l20 0c0,-57 0,-131 0,-141z"/>
    <path class="fil5" d="M1078 512c1,-3 9,-5 12,-7 27,-13 55,-42 72,-64 13,-18 60,-81 28,-106 -10,-8 -47,-13 -43,24 6,68 -31,112 -88,143l0 140 19 0 0 -130z"/>
    <path class="fil5" d="M1104 518c19,-5 86,-56 99,-71 3,-4 5,-5 8,-8 4,-3 5,-6 8,-9 34,-37 -2,-61 -20,-40 -3,3 -9,16 -12,22 -4,7 -8,14 -13,20 -8,11 -22,27 -31,37 -16,15 -39,36 -58,43l0 130 19 0 0 -124z"/>
    <path class="fil5" d="M1133 526c21,-3 61,-29 75,-39 11,-7 42,-30 45,-42 2,-8 -4,-16 -10,-18 -14,-7 -23,12 -34,21 -22,20 -55,46 -81,62 -3,1 -17,8 -17,11l0 121 22 0 0 -116z"/>
    <path class="fil5" d="M1010 376c-18,3 -34,20 -30,43 7,46 80,36 72,-13 -3,-18 -20,-33 -42,-30z"/>
   </g>
  </g>
 </g>
</svg>
