<?xml version="1.0" encoding="utf-8"?>
<!-- Generator: Adobe Illustrator 23.0.5, SVG Export Plug-In . SVG Version: 6.00 Build 0)  -->
<svg version="1.1" id="Слой_1" xmlns="http://www.w3.org/2000/svg" xmlns:xlink="http://www.w3.org/1999/xlink" x="0px" y="0px"
	 viewBox="0 0 412.5 105" style="enable-background:new 0 0 412.5 105;" xml:space="preserve">
<style type="text/css">
	.st0{fill:#FDF6EE;}
</style>
<path class="st0" d="M109.4,8.3c-0.3-0.3-0.6-0.6-1-0.8c0.3,1.6,0.1-0.6-0.4,1.6c-2.4,0.2,0.4,0.3-2-0.2h-1V8.8
	c-0.2-0.6,0.1-0.3-0.4-0.6L104.3,9c-0.5,0-1-0.1-1.4-0.2c-1.6,0,0,1-4,1.4c0-0.7,0.4-0.6-1.8-1.2c0.1-0.4,0.1-0.2,0.3-0.5
	c0.4-0.7,0,0.4,0.3-0.5c-0.7-0.1-1.4-0.3-2.1-0.5c-1.7-0.4,0,0.1-1.9,0.1c0,0.3,0.1,0.7,0.2,1c-0.4,0-0.8,0.1-1.2,0.2L92,9.2
	c-0.2-0.7-0.2-0.5,0.2-1c-1.3,0-0.6,0.4-1.1,0.9l-0.2,0.2l-0.1,0.1h-0.1c-0.5,0.1-1,0.1-1.6,0.1c-1.4-0.2,0.1-0.2-1.2-0.6l-1.4,0.4
	c0-0.6,0-0.4-0.2-0.8c-0.7,0.5-0.4,0.3-1.1,0.3c-0.6,0-1.1,0-1.7-0.1c0.2-0.2,0.4-0.3,0.6-0.4l-0.3-0.1c-0.2-0.1-0.4-0.1-0.6-0.1
	c-0.2,0.7-0.3,0.7-1,0.8L81,9.1c-0.2,0-1-0.1-1-0.1h-0.1l-0.4-0.1h-0.1l-2.8-0.1c0.3-1,0.3-0.2,0.6-1.2c-1.8,1-1.3,1.3-2,1.4
	c-0.7,0.1-0.6-0.1-0.8-0.4c0.3-0.5,0.2-0.5,1-0.6V7.4c-0.7-0.1-0.4-0.3-0.9,0.1c-1,0.6-0.5,1.4-3.1,1.5c-0.1-0.4,0.1-0.2-0.2-0.4
	h-0.6c-1.5-0.4-1.3-0.1-2-0.6c-0.4,0.8,0.1,0.5-0.6,1c-0.2-0.1-0.4-0.2-0.6-0.4c-0.3-0.2-0.2-0.1-0.6-0.2c-0.2,0.8-0.1,0.6-1,0.6
	V8.6h-0.4C65,8.7,65.2,8.7,65,8.8c-1,0.1-1.7,0.9-2.1,0c-0.5-0.9,0,0.2-0.1-0.2c-0.2-1.1,0.4,0.5,0-0.3c-0.5,0.3-0.2,0.2-1,0.2
	c-0.2,0.5-0.1,0.2,0,0.8c-0.6-0.1-0.2,0-0.4-0.1c-0.4-0.3-0.6-0.8-0.6-1.3l-1.2-0.3c-0.4-0.2,0.2-0.1-0.3,0s0.3,0-0.4,0.1
	c-1.3,0.2-0.7-0.5-2.7,0.5l0.5,0.7L56.6,9c-1.4-0.1-2.8-0.3-4.2-0.6c0.2-0.1,0-0.1,0.4-0.2h0.6L53,7.8l-0.2-0.2
	c-1.1-0.5-2,0.2-3,0.2c-1.5-0.1,0.4-0.4-1.3-0.4c-0.6,0-0.9,0.3-1.6,0.4c-0.1-0.5-0.3-0.5-0.6-0.8c0.5,0.1,0.9,0.2,1.4,0.2V6.8
	c-0.5,0-1.1-0.1-1.6-0.2c0,1.5,0.3,1,0.6,2c-0.9,0-3.3,0.5-4.5,0.3c-1.7-0.4-0.2,0.4-1.8,0c-1.3-0.3-1,0-2.4-0.1s-1.5-0.6-3.2-0.6
	C34.5,9,35,8.2,34.6,9c-0.4-0.1-0.9,0-1.3,0.1c-1.2,0.5-2.5,0.8-3.8,0.7c0.1-0.2,0.8-1-0.5-0.7l-2,0.5c-0.1-0.2-0.2-0.3-0.3-0.5
	L26.6,9l-0.1-0.1l-0.1-0.1l-1.2-0.3c-0.6,0-0.2,0-0.8,0.2c-0.2-0.6,0.1-0.1-0.4-0.6c-0.4,0.1-0.2-0.1-0.4,0.5v0.1l-4.1-0.3
	c0,0-0.7,0.1-0.9,0.1c-0.1,0.3-0.2-0.1,0,0.3l0.2,0.4c-1,0-0.6-0.2-1,0.4c0.7,0.2,0.5,0.1,0.8,0.6c-1,0-1.4,0.2-2.6,0.2h-2.8
	L13,11.2c-0.8-0.2-1.2,0-1.6-0.6c1.7,0,0.9-0.4,2.6-0.4L12.3,10c-0.4-0.7-0.8-0.5-2.3,0c-0.7,0.2-0.2,0.2-1.1,0.3L3.6,9.9
	C3.9,9.5,3.8,9.7,4,9.1c1.4,0,1.4-0.3,1.2,0.6H7c0.4-1.1,0.7-0.1,1.4-1C6.6,8.6,4.8,8.5,3,8.6H0.6c-0.9,0.1-1.8,0-2.7-0.1
	c0.3,0.6,0,0.5,0,1.6l4,0.2l-0.7,0.4c-0.5,0.4-0.1-0.1-0.1,0.2V11C0,11.1-1,11.2-2.1,11.2v95.3h416.8V11.4c-0.3,0.2-0.7,0.2-1,0
	c-0.6-0.3-0.4-0.3,0-0.8c-1.1,0-1.4,0.1-1.6-0.8c1.4,0.8,0.6,0,2.4,0V9.2c-1.6-0.2,0.6-0.8-2-0.8c-0.5,1.3-1.2,0.4-0.8,1.4
	c-0.6-0.2-0.5-0.3-0.7-0.3c-0.6,0,0.3,0-0.5,0.3c-0.7-0.2-1.5-0.3-2.2-0.2c-0.3-1.1-0.6-0.5-2-1.2c-0.2-0.6,0.1-0.1-0.4-0.6
	c-0.5,0.1-0.3,0-0.7,0.5L405,8.4l-0.6,0.7c-1.2,0.9-2.9-0.4-4,0.1c0.2-0.6,0.4-0.6,1.2-0.6V8.1c-1.4-0.1,0.2-0.2-1.2-0.6
	c-0.2,0.5,0.1-0.1,0.2,0.8l-1.2,0.2c0.1-1.4,0.6-1.3-1.3-1.8H398l-2.5-0.4c0,0-0.9,0.2-1,0.3l-0.7,0.5l-0.7,0.6
	c-1.3,0.7-2.8,1-4.3,0.9c-0.6,0-1.3,0-1.9,0.1V8.2c-0.4,0.3-0.4,0.4-0.9,0.5s-0.6-0.2-0.9-0.3C384.4,7.8,385,8.1,384,8
	c-0.6,0.5-0.3,0.1-0.6,1.2c-2.4,0.2,0.5,0.3-2-0.2h-1c-0.2-0.4,0.1-0.4-0.4-0.8L379.8,9c-2.1,0-1.4-0.7-2.6,0.4
	c-0.8,0.5-1.8,0.8-2.8,0.8c0-0.7,0.5-0.6-1.8-1.2c0.2-0.7,0.3-0.3,0.6-1c-0.7-0.1-1.4-0.3-2.1-0.5c-1.7-0.4,0,0.1-1.9,0.1
	c0,0.3,0.1,0.7,0.2,1c-0.4,0-0.8,0.1-1.2,0.2v0.4c-1.1-0.1-0.8-0.4-0.4-1c-0.4,0-0.4-0.1-0.7,0.1c-0.3,0.2-0.1,0.2-0.2,0.4
	s0,0.3-0.5,0.6c-1.5,0.8-3-0.4-3-0.4L362,9.3c0-0.6,0-0.4-0.2-0.8L361,8.8h-0.1c-0.7,0.1-1.4,0-2-0.1c0.2-0.2,0.4-0.3,0.6-0.4
	l-0.1-0.1l-0.1-0.1C359.1,8,358.9,8,358.8,8c-0.3,1.1-0.7,0.6-1.7,0.8L353,8.5c-0.6-0.1,0.6,0-0.2,0h-0.3c-0.3,0.1,0.1,0-0.5,0.2
	c0.3-1,0.3-0.2,0.6-1.2c-0.5,0.2-1,0.6-1.4,1s-0.1,0.3-0.6,0.4C350,9,350,8.8,349.7,8.5c0.4-0.5,0.2-0.5,1-0.6V7.5
	c-2-0.4-0.2,1.5-3.8,1.6c-0.1-0.3,0-0.3-0.3-0.5h-0.3l-0.7-0.1h-0.1c-1-0.1-0.5,0.1-1.2-0.4c-0.4,0.8,0.1,0.5-0.6,1
	c-0.2-0.1-0.4-0.2-0.6-0.4c-0.3-0.2-0.2-0.1-0.6-0.2c-0.2,0.8-0.1,0.6-1,0.6l-0.8-0.2c-1,0.1-1.6,0.9-2.1,0s0,0.2-0.1-0.2
	c-0.3-1.1,0.3,0.5,0-0.3c-0.5,0.3-0.2,0.2-1,0.2c-0.2,0.5-0.1,0.2,0,0.8c-1-0.1,0,0.5-1-1c0.5,0,0.3-0.1,0.5-0.1l0.3-0.1
	c1.4-0.4,0.7,0.2,1.3-0.5c-0.7-0.2-1.3-0.2-2-0.2c-0.2,0.5-0.2,0.1,0,0.6h-0.8l-0.4-0.2c-0.4-0.2,0.2,0-0.7,0.1
	c-1.3,0.2-0.7-0.5-2.7,0.5c0.1,0.5,0.3,0.5,0.6,0.8c-1.4-0.1-2.8-0.3-4.2-0.6c0.2-0.1,0-0.1,0.4-0.2h0.6L329,8.1l-0.2-0.2
	c-1.1-0.5-2,0.2-3,0.2c-1.5-0.1,0.4-0.4-1.4-0.4c-0.6,0-0.9,0.3-1.6,0.4l-0.6-0.8c0.5,0.1,0.9,0.2,1.4,0.2V7c-0.5,0-1.1-0.1-1.6-0.2
	c0,1.5,0.3,1,0.6,2c-0.5,0-1.1,0-1.6,0.2c-1.1,0.2-2.3,0.2-3.4,0c-0.9,0,0,0.1-0.7,0.2c-0.4,0-0.3,0-0.6-0.1c-1.3-0.3-1,0-2.4-0.1
	s-1.5-0.6-3.2-0.6c-0.4,0.8,0.1,0-0.2,0.8c-0.4-0.1-0.9,0-1.3,0.1l-0.4,0.2l-0.3-0.3c-1.1,0.4-2.2,0.5-3.3,0.5
	c0.1-0.6,0.2-0.3,0-0.8c-0.9,0.1-0.5,0.4-1.1,0.4L303,9.5c-0.2-0.4-0.5-0.6-0.9-0.7L302,8.7c-0.9-0.4-0.7-0.2-1.6,0
	c-0.3-0.6,0.1-0.1-0.4-0.6c-0.6,0.2,0-0.1-0.3,0.2l-0.1,0.4l-0.7,0.1l-1.7-0.1V8.2V8.1h-0.8v0.1c0,0.1,0,0.1-0.1,0.2
	c0,0.2,0.1,0-0.1,0.3c-1-0.7-0.2-0.2-1.6-0.2c-0.1,0.3-0.2-0.1,0,0.3l0.2,0.4c-0.8,0-0.5-0.1-1,0.2c0.5,0.6,0.3,0.2,0.8,0.8
	c-1.1-0.2-2.7,0.6-4.3,0.1l-1.5-0.3c0.1-0.7,0-0.1,0.1-0.5s0,0.2,0.3-0.5c-0.7-0.1-0.6,0-1-0.4c1.1,0,5,0.4,5.9-0.4l-11.9,0.3
	c-0.8,0.1-1.8,0-2.6,0c-0.3,0-0.8,0.1-1,0.1l-3.4-0.1l0.1-0.1l0.5-0.5c-0.9-0.1-1.7-0.1-2.6,0c-0.9,0.2-1.9,0.3-2.8,0.2
	c0.2,0.5,0.2,0.1,0,0.6c1.4-0.3,2.8-0.5,4.2-0.4h0.2c0,0.3-0.9,0.8-1.2,0.9l-2.5,0.7c-0.6,0.1-1.2,0.1-1.8,0
	c-0.1,0.5-0.2-0.3,0.1,0.2c0.3,0.5,0.2-0.2,0.1,0.2c-0.6,0.3-0.4,0.2-1.2,0.2c-0.1-0.1-0.1-0.2-0.1-0.3V9.9c-0.8,0.2-0.3,0.3-1,0.3
	c-0.3,0-0.8-0.2-1.3-0.3c-1.2-0.2-0.5,0.1-1.6,0.2h-0.8v-1c-0.9,0.6-0.8,1-2.8,1.2c-0.1-0.7-0.1-0.7-0.8-0.8
	c0.2,0.8,1.1,1.2-1.2,1.4c-0.4-0.6-0.6-0.5-0.8-1.4h1.6c-0.2-0.9-0.8-0.8-1.5-0.5h-0.1c-0.3,0.1-0.6,0.1-0.9,0.1
	c0.5,1,0.2,0.8,0.2,2.2c-1.3,0-2.4,1.1-3.3,0.3l-0.3-0.7c-1.3-0.1-2.6,0-3.8,0.2c0.2-0.8,0.4-0.6,0.8-1.2c-0.9-0.2-1.4-0.3-1.4,1
	c-1,0.1-0.5,0.2-1.5,0.1c-0.6-0.1-1.4-0.5-2-0.3c-1,0.3,0.4-0.1-0.3,0.1c-0.1,0-0.2,0.1-0.4,0.2c-0.5,0.2-1,0.3-1.5,0.4
	c0,0,0.1,0,0.1,0.1c0.1,0.3,0-0.1,0.3,0.1s0.2-0.1,0.4,0.4c-0.4,0.2-0.7,0.4-1.1,0.5c-1.2,0.3-1-0.3-1.1,0.7l-3.6,0.2
	c-1.4-0.3-0.6-0.3-0.7-0.5c-0.3-0.5,0-0.4-0.3-1.1c-1.6,1-0.6,0.3-2.6,0.2s-1.2-0.2-1.1-0.4l0.1-0.1l0.3-0.7
	c-1.4,0.1,0.2,0.1-0.6,0.3l-0.7-0.2h-0.8l-0.2,0.1c-0.4,0.1,0.5,0.1-0.6,0.2l0.7,0.3l0.1,0.1c-1,0.1-0.5,0.2-1.7,0.1
	c-2.1-0.2-1.4,0.7-5-0.1c-0.4-0.2-0.9-0.2-1.4-0.2c-0.9-0.1-0.6-0.2-1.4-0.4c0.1-1.1,0.6-1,1.4-1.2c0.9-0.3,1.9-0.5,2.8-0.4
	c-0.2-0.1,0-0.1-0.5-0.2s-0.1,0-0.6,0c-1.5,0.1-3-0.1-3.8,0.4s0.2,0.1-0.7,0.3v0.8h0.8c-0.4,0.6,0,0.1-0.4,0.3
	c-1.3,0.5-6.1,0.3-7.7,0.3V12c-1.1,0-2.2,0.2-3.2,0.4c0.4-1.4,0.8,0,2.2-1c-0.5,0-1,0-1.5-0.1s-0.5,0.1-0.7-0.5
	c-0.5-0.3-0.5-0.5-1-0.2c-0.1,0.4,0,0.3-0.2,0.6l-0.9-0.1c-1.8-0.4-0.8,0.8-4.4-0.4c-0.7-0.2,0.1-0.1-0.7-0.3l-0.6,0.4
	c-0.4-0.3-0.3-0.4-1-0.4c-0.5,0-0.5,0.1-1.2,0.2c-1.8,0.1-1.5,0-2.4-0.6c0.2,1,0.1,0.3,0,0.6l-3.7,0.1c-1.4,0,0.3-0.4-1.1-0.2
	s-0.2,1-1.9,0.2c-1.5-0.7-0.4,0.3-2.2,0.4c0-1.5,1.1-1.3,1.2-2.6c-0.4,0.1-2.6,1.8-2.8,2.4c-1.6,0-0.3-0.2-1.9,0.1
	c-0.9,0.2-0.8-0.2-1.5-0.7c-0.6,0.5-1.2,0.9-1.9,1.1c-1.4,0.3-2-0.5-2.1,0.9c-1-0.4,0.2-0.1-0.8-0.4c-0.4,0.9,0.1,0.8-1.2,0.8
	c0.3-0.4,0.8-1,0.1-1.6c-0.3-0.3-0.5-0.3-0.7-0.1c-0.4,0.4-0.1-0.1-0.1,0.3l0.2,0.4c-0.9-0.2-1.1-0.8-1.7-0.9
	c-0.8-0.1-1.7,0-2.5,0.1v-0.2c0-0.3,0.2,0.3,0-0.3c-0.1-0.2,0-0.3-0.7-0.4c-0.3,0.6-0.1,0.7-0.3,1.3c-0.1,0.4-0.4,0.5-0.7,0.9
	c-0.4-0.4-1-0.6-1.6-0.6l0.3-0.3L171,11c-1,0.2-0.6,0-1.8,0c0,0.3,0.1,0.7,0.2,1c-1.5,0-1.1,0.3-2.2,0.4c0-0.8-0.1-0.6,0.2-1.2
	c-1.1,0-1.7-0.2-2.2,0.4c0.5,0,0.9-0.1,1.4-0.2c-0.4,1.4-1,0.2-2.7,0.7c-1,0.4-2.1,0.4-3.1,0.1c-0.3-1.2-0.1-0.5,0-1.6
	c-0.3,0.1-0.6,0.2-0.9,0.4c-0.8,0.3-0.7,0.1-0.9,0.1c-1.4,0.1-0.4,0.3-0.7,1.1c-1-0.1-0.3-0.2-1.2-0.8s-0.4,0.1-1-1
	c1.2,0.3,0.4,0,1.6-0.2h6.6V9.8c-1.4,0-1.3-0.3-2.4-0.4l-4.2-0.2c-0.8-0.1-1.2-0.5-2.1,0c-0.2,0.1,0.6,0-0.4,0.2h-0.8
	c0-0.1,0.1-0.4,0.2-0.4c0.1-0.5,0.2,0,0-0.4c-0.5,0.3-0.2,0.2-1,0.2c-0.5-0.6-0.7,0-0.9,0.1c-0.6,0.4,0.1,0.3-0.9,0.2
	s-6.1-0.3-6.5,0.3v0.2l-0.1-0.1L145,9.6l-0.3,0.1c2,0,2.6,0.4,6.1,0.4c-0.2,0.7-0.9,1.2-1.6,1.2c-1.2,0-0.2-0.6-2.2-0.2
	c0-1.2,0.1-0.6-0.4-0.8c-0.2,0.5-0.1,0.5,0.2,1l-3,0.1h-1.1c-0.1,0,0,0.1-0.5,0s-0.3-0.1-0.4-0.1c-0.8-0.2-0.4,0-0.9,0
	c-0.3,0.1-0.6,0-0.8-0.2c-0.5-0.4-0.4,0.1,0.1-0.7c-1.1,0-1.4,0.1-1.6-0.8c0.8,0.4,0.5,0.4,1.2,0.2h0.1l0.5-0.1
	c0.6-0.2,0.4,0.1,0.6-0.4c0.2-0.5,0.2,0.2-0.2-0.2c-1.1-1-0.4-0.8-1.8-0.8c-0.4,1.3-1.2,0.4-0.8,1.4c-0.6-0.2-0.5-0.3-0.8-0.3
	c-0.6,0,0.3,0-0.5,0.3c-0.7-0.2-1.5-0.3-2.2-0.2c-0.2-0.8-0.9-1-2-1V8.4L130,7.7L128.8,9c-1,0.8-2.8-0.1-3.8-0.1
	c0.4-0.6,0-0.4,1-0.4V8.2c-1.4-0.1,0.2-0.2-1.2-0.6c-0.2,0.5,0.1-0.1,0.2,0.8l-1.2,0.2c0-0.8,0.9-1.6-2-1.9
	c-4.3-0.5-2.3,0.5-4.6,1.3l-0.5,0.1c-3.5,1.1-1.5,0.4-5.4,0.7V8.2c-0.4,0.3-0.4,0.4-0.9,0.5H110c-0.1,0-0.2-0.1-0.3-0.1L109.4,8.3
	L109.4,8.3z"/>
<path class="st0" d="M209.1,10.6c0.8,0,0.9,0.1,1.8,0.2c2.3,0.1-0.4,0.3,1.4,0.4v-0.4c3-0.1-0.1,0.5,3.4-0.2
	c0.6-0.1,1.2-0.3,1.8-0.3c0.8,0,1,0.6,1.6-0.3c-0.9-0.1-0.7-0.3-1.8-0.1c-0.6,0-1.1,0-1.6,0.1v0.4c-0.7-0.2-0.3-0.2-0.9-0.4h-1.1
	c-0.2-0.3,0-0.3-0.5-0.4h-1.1c0,0.1,0.1,0.1,0,0.8L209.1,10.6L209.1,10.6z M24,4.1c1.1,0.5,2.4,0.4,3.4-0.3L28,3.4
	c-0.8-0.2-1.6-0.3-2.4-0.4C24.6,2.9,24.3,3.4,24,4.1z M299.6,4.1c1.3,0.6,1.3,0.4,2.8-0.1l1.3-0.7c-0.8-0.2-1.6-0.3-2.4-0.4
	C300.2,2.9,299.9,3.4,299.6,4.1L299.6,4.1z M40,3.7c0.4,1.5,1-0.3,1.4,1.2h0.8l-0.1-0.8C41.8,3,40.9,3.9,40,3.7z M315.5,3.7
	c0.4,1.5,1-0.3,1.4,1.2h0.8c0-0.3,0.1-1.4-0.8-1.4S316.7,3.9,315.5,3.7z M164.1,9.9c0.9,0,0.7,0.2,1.4,0.2c0.5-0.1,1.1-0.1,1.6-0.2
	V9.5C164.7,9.3,164.7,9,164.1,9.9z M60.7,7.7c1.3,0.4-0.7,0,0.6,0.4c0.2-0.5-0.1-0.3,0.4-0.4h1V7.3c-0.7-0.2-1.3-0.2-2-0.2
	C60.5,7.6,60.5,7.2,60.7,7.7z M14.1,5.9c0.5,0.3,0.7,0.2,1.6,0.2c0.6,0,0.4-0.1,0.6-0.4C15.8,5.5,14.1,5.2,14.1,5.9z M289.6,5.9
	c0.5,0.3,0.7,0.2,1.6,0.2c0.6,0,0.4-0.1,0.6-0.4C291.4,5.5,289.8,5.2,289.6,5.9z M306.4,2.9v0.2l1.6,0.2c0.3-0.8-0.1-0.3,1.2-0.2
	V2.7C308,2.7,307.6,2.9,306.4,2.9L306.4,2.9z M30.9,2.9v0.2l1.6,0.2c0.3-0.8-0.1-0.3,1.2-0.2V2.7C32.4,2.7,32,2.9,30.9,2.9z
	 M309.5,3.1h2.4c-0.4-0.6,0-0.4-1-0.4h-1.4V3.1z M33.9,3.1h2.4c-0.4-0.6,0-0.4-1-0.4h-1.4V3.1z M135.5,3.5c-0.7-1-1.1-1-2.2-1.6
	c0.2,0.7,0.2,0.6,0.9,0.9C134.6,3.1,135.1,3.3,135.5,3.5z M411,3.5c-0.7-1-1.1-1-2.2-1.6c0.2,0.7,0.2,0.6,0.9,0.9
	C410.1,3.1,410.6,3.3,411,3.5L411,3.5z M225.5,11.6v-0.4l0.2-0.4c-1.1-0.3-0.9-0.6-1.4,0.4C225,11.4,224.9,11.5,225.5,11.6z
	 M309.3,7.1c0.9,0.2,1.1,0.5,1.4-0.4C310.3,6.6,309.3,6.1,309.3,7.1z M33.7,7.1c0.9,0.2,1.2,0.5,1.4-0.4C34.7,6.6,33.7,6.1,33.7,7.1
	z M328,5.9l2,0.2V5.7c-1.1,0-1.1-0.2-2-0.2V5.9z M324.3,4.7l-0.1-0.1l-0.6-0.5c-0.5-0.3-1.1-0.2-1.5,0.1
	C322.8,4.5,323.5,4.7,324.3,4.7z M48.7,4.7l-0.1-0.2l-0.8-0.4c-1-0.2-1.1,0.2-1.2,0.2C47.2,4.5,48,4.7,48.7,4.7z M313.5,3.1
	c2.8,0,2.9,0.4,3.8-0.4L313.5,3.1z M38,3.1c1.5,0,2.9,0.2,3.5-0.1c0.6-0.4,0.1-0.1,0.3-0.3C41.8,2.7,38,3.1,38,3.1z M251.1,9.1
	c1.2,0,1.5-0.2,2.6-0.2V8.7C252.7,8.7,251.6,8.5,251.1,9.1z M252.5,8.3c0.9,0,1.1-0.2,2.2-0.2V7.9h-2.2V8.3z M239.1,12.6
	c0.8,0,0.8,0.1,1.4-0.2c-0.2-0.3,0-0.4-0.6-0.4S239.2,12.3,239.1,12.6L239.1,12.6z M235.7,9.3c0.8,0,0.5,0.2,1.4,0.2
	c0.6,0,0.4-0.1,0.6-0.4h-2V9.3z M43,4.3c0.4,0.1,0.8,0.2,1.2,0.2c-0.4-0.6-0.3-0.6-1.2-0.6V4.3z M318.6,4.3c0.4,0.1,0.8,0.2,1.2,0.2
	c-0.4-0.6-0.3-0.6-1.2-0.6V4.3z M313.9,5.1c0.4,0.1,0.9-0.1,1.2-0.4c-0.2-0.3-0.1-0.2-0.2-0.6L313.9,5.1z M38.4,5.1
	c0.4,0.1,0.9-0.1,1.2-0.4c-0.1-0.2-0.2-0.4-0.2-0.6L38.4,5.1z M49.5,6.7h1.6c-0.2-0.1-0.1-0.1-0.3-0.3C50.6,6.2,49.6,6.2,49.5,6.7z
	 M325.1,6.7h1.6c-0.1-0.1,0-0.1-0.3-0.3S325.1,6.2,325.1,6.7L325.1,6.7z M204.3,10.1c1.3,0,1.4,0.4,1.8-0.2h-1.8V10.1z M324.3,4.7
	L324,5.1h1.3V4.7H324.3z M48.7,4.7l-0.2,0.4h1.2V4.7H48.7z M140,9.9c1,0,0.8,0.2,1.2-0.4H140V9.9z M401.7,7.9
	c0.7-0.1,0.7-0.1,0.8-0.8C401.8,7.3,401.9,7.2,401.7,7.9z M126.2,7.9c0.7-0.1,0.7-0.1,0.8-0.8C126.3,7.3,126.4,7.2,126.2,7.9z
	 M311.9,4.3c0.8-0.1,0.6,0.1,0.8-0.6h-0.8V4.3z M36.3,4.3c0.8-0.1,0.6,0.1,0.8-0.6h-0.8V4.3z M57.9,6.7c0.6,0,0.4-0.1,0.6-0.4H57
	C57.6,6.7,57.4,6.7,57.9,6.7z M333.4,6.7c0.6,0,0.4-0.1,0.6-0.4h-1.4c0.2,0.1,0.1,0.1,0.3,0.3S332.6,6.7,333.4,6.7z M345.3,7.9
	l1-0.2V6.9L345.3,7.9z M69.8,7.9l1-0.2V6.9L69.8,7.9z M409,8.5c0.5,0.6,0.5,0.6,1.2,0.4l-0.4-0.3l-0.1-0.1
	C409.6,8.5,409.2,8.3,409,8.5z M355.6,5.3h0.8V4.9l-0.8-0.2V5.3z M69.6,4.5L70,4.7c0.6,0,0.4-0.1,0.6-0.4
	C70.2,4.2,69.7,3.9,69.6,4.5z M345.1,4.5l0.4,0.2c0.6,0,0.4-0.1,0.6-0.4C345.8,4.2,345.2,3.9,345.1,4.5z M33.7,4.5h1v0.4h-1V4.5z
	 M309.3,4.5h1v0.4h-1V4.5z"/>
<path class="st0" d="M225.5,11.2h2v0.2h-2V11.2z M53.4,5.7h1v0.4h-1V5.7z M133.4,8.5c0.4,0.6,0.5,0.6,1.2,0.4l-0.1-0.1l-0.7-0.4
	C133.7,8.4,133.5,8.4,133.4,8.5z M259.8,7.9l1.2,0.2V7.7h-1.2V7.9z M81,7.9c0.8-0.1,0.6,0.1,0.8-0.6H81C81.1,7.7,81.2,7.5,81,7.9z
	 M318,3.7c0.8-0.6-0.1-0.6,1-0.6V2.9h-1C318,2.9,318,3.7,318,3.7z M42.4,3.7c0.8-0.6-0.1-0.6,1-0.6V2.9h-1
	C42.4,2.9,42.4,3.7,42.4,3.7z M214.2,9.7l1.1-0.1c0.3-0.1,0.2-0.1,0.3-0.3C215,9.3,214.3,9.2,214.2,9.7L214.2,9.7z M286.7,7.5h1.8
	v0.2h-1.8V7.5z M99.2,9.7h1.2C100.3,9.6,99.3,8.8,99.2,9.7z M319.3,6.1h1V5.7C319.7,5.7,319.3,5.6,319.3,6.1z M43.6,6.1h1V5.7
	C44.1,5.7,43.7,5.6,43.6,6.1z M232.7,4.7h1c-0.4-0.6,0-0.4-1-0.4V4.7z M113.6,11.2c0.4,0,0.3,0.1,0.8-0.4h-1.2
	C113.3,11,113.3,11.2,113.6,11.2z M389.2,11.2c0.5,0,0.3,0.1,0.8-0.4h-1.2C388.9,11,388.9,11.2,389.2,11.2L389.2,11.2z M356.6,7.9
	c0.9-0.1,0.4,0.2,0.8-0.4c-0.2-0.1-0.5-0.2-0.8-0.2C356.7,7.7,356.8,7.5,356.6,7.9z M44,2.9h1.6v0.2H44V2.9z M319.6,2.9h1.6v0.2
	h-1.6V2.9z M63.1,4.9h0.8v0.4h-0.8V4.9z M338.7,4.9h0.8v0.4h-0.8V4.9z M52.4,5.5h0.8v0.4h-0.8V5.5z M237.7,11.4h0.8v0.4h-0.8V11.4z
	 M329.6,4.9h1c-0.1-0.2-0.1-0.4-0.4-0.4S329.6,4.6,329.6,4.9z M374.8,9.7h1c-0.1-0.2-0.1-0.4-0.4-0.4S374.9,9.4,374.8,9.7z M54,4.9
	h1c-0.1-0.2-0.2-0.4-0.4-0.4S54,4.6,54,4.9z M336.3,3.7h1c-0.1-0.1,0-0.1-0.3-0.3c-0.5-0.2-0.1-0.1-0.7-0.1
	C336.3,3.3,336.3,3.7,336.3,3.7z M60.7,3.7h1c-0.2-0.1,0-0.1-0.3-0.3c-0.5-0.2-0.1-0.1-0.7-0.1C60.7,3.3,60.7,3.7,60.7,3.7z M27,8.9
	h1c-0.2-0.1,0-0.1-0.3-0.3c-0.5-0.1-0.2,0-0.7-0.1C27,8.5,27,8.9,27,8.9z M234.5,11.2v-0.4h-1c0.1,0.1,0,0.1,0.3,0.3
	C234.3,11.3,233.9,11.2,234.5,11.2z M80.8,5.3c-0.2-0.5,0-0.4-0.8-0.6C80.4,5.6,79.8,5.2,80.8,5.3z M141.7,9.9h1.4v0.2h-1.4V9.9z
	 M216,9.3h1.4v0.2H216V9.3z M302.6,8.9h1V8.7c-0.3,0-0.7-0.1-1-0.2V8.9z M97.8,7.9h0.8V7.5C98.1,7.6,97.9,7.5,97.8,7.9z M293.4,0.9
	c0.9-0.1,0.4,0.2,0.8-0.4h-0.8V0.9z M17.8,0.9c0.9-0.1,0.3,0.2,0.8-0.4h-0.8V0.9z M355.1,5.3V4.9h-0.8
	C354.7,5.5,354.1,5.2,355.1,5.3z M79.5,5.3V4.9h-0.8C79.2,5.5,78.6,5.2,79.5,5.3z M265.9,5.1h0.6c-0.2-0.6,0.3-0.1-0.6-0.6V5.1z
	 M374.1,7.5c-0.9,0.1-0.4-0.2-0.8,0.4C374.5,7.9,373.9,8,374.1,7.5z M56,6.1h0.6v0.4H56V6.1z M370.1,4.3h0.6v0.4h-0.6V4.3z
	 M331.6,6.1h0.6v0.4h-0.6V6.1z M235.3,11h1.2v0.2h-1.2V11z M77.9,7.7c0.7,0.1,0.6,0.4,0.8-0.4l-0.4,0.2C77.9,7.7,78.2,7.5,77.9,7.7z
	 M353.4,7.7c0.7,0.1,0.6,0.4,0.8-0.4c-0.1,0-0.4,0.1-0.4,0.2C353.4,7.7,353.7,7.5,353.4,7.7z M67.8,5.5c-0.4-0.6,0.1-0.3-0.8-0.4
	C67.5,5.7,66.9,5.4,67.8,5.5z M241.4,6.7c-0.5-0.6,0.1-0.3-0.8-0.4C241,6.9,240.5,6.6,241.4,6.7z M343.3,5.5
	c-0.5-0.6,0.1-0.3-0.8-0.4C343,5.7,342.4,5.4,343.3,5.5z M33.3,6.9h-0.8C32.9,7.5,32.9,7.5,33.3,6.9z M308.9,6.9h-0.8
	C308.5,7.5,308.5,7.5,308.9,6.9z M354.7,8.1c0.3,0,0.2,0.1,0.5-0.1c0.7-0.3,0.3-0.1,0.5-0.3C355.1,7.8,354.9,7.8,354.7,8.1z
	 M218.2,10.6h1v0.2h-1V10.6z M98.2,9.1h0.6V8.7C98.5,8.8,98.3,8.8,98.2,9.1z M373.7,9.1h0.6V8.7C374,8.8,373.8,8.8,373.7,9.1z
	 M94.5,4.7h0.6V4.3C94.7,4.4,94.6,4.3,94.5,4.7z M230,9.3c-0.2-0.6,0-0.4-0.6-0.6C229.8,9.5,229.3,9.1,230,9.3z M208.1,10.4V9.9
	h-0.8c0.2,0.1-0.1,0,0.4,0.2L208.1,10.4L208.1,10.4z M51.4,5.7c0.6-0.1,0.3,0,0.6-0.4h-0.6V5.7z M209.1,10.1c0.6-0.1,0.3,0,0.6-0.4
	h-0.6V10.1z M327,5.7c0.6-0.1,0.3,0,0.6-0.4H327V5.7z M120.5,11.4h0.6c-0.3-0.4,0-0.3-0.6-0.4V11.4z M396.1,11.4h0.6
	c-0.3-0.4,0-0.3-0.6-0.4V11.4z M79.3,8.1c0.4-0.1,0,0.1,0.5-0.1l0.3-0.3C79.7,7.8,79.4,7.7,79.3,8.1z M382.2,8.9
	c0.4-0.1,0,0.1,0.5-0.1c0.3-0.1,0.2-0.1,0.3-0.3C382.6,8.6,382.3,8.5,382.2,8.9z M106.7,8.9c0.4-0.1,0,0.1,0.5-0.1l0.3-0.3
	C107.1,8.6,106.8,8.5,106.7,8.9z M2.5,1.1h0.8v0.2H2.5V1.1z M288.8,8.9h0.8v0.2h-0.8V8.9z M278,1.1h0.8v0.2H278V1.1z M13.2,8.9H14
	v0.2h-0.8V8.9z M244.8,9.1h0.8v0.2h-0.8V9.1z M323,3.7h0.8v0.2H323V3.7z M338.7,8.5h0.8v0.2h-0.8V8.5z M63.1,8.5h0.8v0.2h-0.8V8.5z
	 M47.4,3.7h0.8v0.2h-0.8V3.7z M239.5,9.7h0.8v0.2h-0.8V9.7z M130,7.1c0.6-0.5,0.3,0.1,0.4-0.8c-0.1,0.1-0.1,0-0.3,0.3
	C129.9,7.1,130.1,6.8,130,7.1L130,7.1z M405.6,7.1c0.6-0.5,0.3,0.1,0.4-0.8c-0.1,0.1-0.1,0-0.3,0.3C405.5,7.1,405.7,6.8,405.6,7.1z
	 M374.1,7.5c0.6-0.1,0.3,0,0.6-0.4C373.7,7.2,374.4,6.9,374.1,7.5z"/>
<path class="st0" d="M207.3,9.9c-0.1,0,0.2-0.4-0.4-0.1c-0.6,0.3,0-0.2-0.2,0.3C207.2,10,206.8,10.1,207.3,9.9L207.3,9.9z M99.2,7.1
	h-0.6C99.1,7.7,98.8,7.7,99.2,7.1z M375,7.7h-0.6C374.9,8.3,374.5,8.3,375,7.7z M99.4,7.7h-0.6C99.3,8.3,99,8.3,99.4,7.7z
	 M328.6,7.7l0.4-0.4c-1.1,0-0.3,0-0.6,0.2C328.4,7.5,328.6,7.7,328.6,7.7z M53,7.7l0.4-0.3c-1.1,0-0.3,0-0.6,0.2
	C52.8,7.6,53,7.7,53,7.7z M28.9,4.7c0.6-0.1,0.3,0,0.6-0.4C29.1,4.4,28.9,4.3,28.9,4.7z M338.5,7.3c0.6-0.1,0.3,0,0.6-0.4
	C338.7,7,338.6,6.9,338.5,7.3z M62.9,7.3c0.6-0.1,0.3,0,0.6-0.4C63.1,7,63,6.9,62.9,7.3z M304.4,4.7c0.6-0.1,0.3,0,0.6-0.4
	C304.6,4.4,304.4,4.3,304.4,4.7z M237.5,12.4h0.6v0.2h-0.6V12.4z M48.1,2.9h0.6v0.2h-0.6V2.9z M227.3,9.5h0.6v0.2h-0.6V9.5z M81,8.1
	h0.6v0.2H81V8.1z M8.1,5.7h0.6v0.2H8.1V5.7z M283.7,5.7h0.6v0.2h-0.6V5.7z M323.6,2.9h0.6v0.2h-0.6V2.9z M356.6,8.1h0.6v0.2h-0.6
	V8.1z M118.7,11.2h0.6v0.2h-0.6V11.2z M310.3,3.9h0.6v0.2h-0.6V3.9z M34.7,3.9h0.6v0.2h-0.6V3.9z M394.3,11.2h0.6v0.2h-0.6V11.2z
	 M407.2,0.7h0.6v0.2h-0.6V0.7z M249.7,8.5h0.6v0.2h-0.6V8.5z M131.6,0.7h0.6v0.2h-0.6V0.7z M68.2,7.3h0.6v0.2h-0.6V7.3z M163.1,9.7
	h0.6v0.2h-0.6V9.7z M343.7,7.3h0.6v0.2h-0.6V7.3z M292.2,10.1l-0.6-0.4C291.8,10.3,291.2,10.1,292.2,10.1z M413.7,5.5
	c-0.2-0.6,0.4-0.3-0.6-0.4c0,0,0.1,0,0.1,0.1s0.1,0.1,0.1,0.1S413.6,5.4,413.7,5.5z M183.2,5.3c-0.3-0.4,0-0.3-0.6-0.4
	C182.9,5.4,182.6,5.1,183.2,5.3z M138.1,5.5c-0.2-0.6,0.4-0.3-0.6-0.4c0,0,0.1,0,0.1,0.1L138.1,5.5z M307,4.9c0,0.2,0.4,0.4,0.3,0
	C307.3,4.8,306.9,4.4,307,4.9z M31.5,4.9c0,0.2,0.4,0.4,0.3,0C31.7,4.8,31.4,4.4,31.5,4.9z M336.3,7.1c-0.1-0.5,0.1-0.3-0.4-0.4
	C335.9,7.2,335.7,6.9,336.3,7.1z M60.7,7.1c-0.1-0.5,0.1-0.3-0.4-0.4C60.4,7.2,60.2,6.9,60.7,7.1z M86.3,8.3C86.5,8.5,87,8,86.5,8.2
	C86.5,8.2,85.8,8,86.3,8.3z M230.7,10.1c0.2,0.2,0.7-0.3,0.2-0.1C230.9,10,230.2,9.8,230.7,10.1z M210.5,10.1
	c0.2,0.2,0.7-0.3,0.2-0.1C210.7,10,210.1,9.8,210.5,10.1z M378,8.3c0.2,0.2,0.7-0.3,0.2-0.1C378.3,8.2,377.7,8,378,8.3z M110.8,7.9
	c0.2,0.2,0.7-0.3,0.2-0.1C111,7.8,110.4,7.6,110.8,7.9z M71.6,8.5c0.2,0.2,0.7-0.3,0.2-0.1C71.9,8.4,71.3,8.2,71.6,8.5z M15.2,6.7
	c0.2,0.2,0.7-0.3,0.2-0.1C15.5,6.6,14.9,6.4,15.2,6.7z M225.7,9.1c0.2,0.2,0.7-0.3,0.2-0.1C226,9,225.4,8.8,225.7,9.1z M347.2,8.5
	c0.2,0.2,0.7-0.3,0.2-0.1C347.5,8.4,346.9,8.2,347.2,8.5z M386.4,7.9c0.2,0.2,0.7-0.3,0.2-0.1C386.6,7.8,386,7.6,386.4,7.9z
	 M303.2,7.3c0.2,0.2,0.7-0.3,0.2-0.1C303.4,7.2,302.8,7,303.2,7.3z M27.6,7.3c0.2,0.2,0.7-0.3,0.2-0.1C27.8,7.2,27.2,7,27.6,7.3z
	 M341.3,6.7c0.2,0.2,0.7-0.3,0.2-0.1C341.5,6.6,341,6.4,341.3,6.7z M237.7,8.9c0.2,0.2,0.7-0.3,0.2-0.1
	C237.9,8.8,237.4,8.6,237.7,8.9z M74.4,8.3c0.2,0.2,0.8-0.3,0.3-0.1C74.7,8.2,74.1,8,74.4,8.3z M361.8,8.3c0.2,0.2,0.7-0.3,0.2-0.1
	C362,8.2,361.4,8,361.8,8.3z M229.1,11.4c0.2,0.2,0.7-0.3,0.2-0.1C229.4,11.3,228.8,11.1,229.1,11.4z M102.4,8.3
	c0.2,0.2,0.7-0.3,0.2-0.1C102.7,8.2,102.1,8,102.4,8.3z M350,8.3c0.2,0.2,0.7-0.3,0.2-0.1C350.3,8.2,349.7,8,350,8.3z M254.1,8.9
	c0.2,0.2,0.7-0.3,0.2-0.1C254.3,8.8,253.8,8.6,254.1,8.9z M202.9,10.4c0.2,0.2,0.7-0.3,0.2-0.1C203.1,10.3,202.5,10,202.9,10.4z
	 M65.7,6.7c0.2,0.2,0.7-0.3,0.2-0.1C65.9,6.6,65.4,6.4,65.7,6.7z M290.8,6.7c0.2,0.2,0.7-0.3,0.2-0.1C291.1,6.6,290.5,6.4,290.8,6.7
	z M263.9,7.9c0.2,0.2,0.7-0.3,0.2-0.1C264.1,7.8,263.5,7.6,263.9,7.9z M239.1,9.3c0.2,0.2,0.7-0.3,0.2-0.1
	C239.3,9.2,238.7,9,239.1,9.3z M381.6,8.7c0.2,0.2,0.7-0.3,0.2-0.1C381.9,8.6,381.3,8.4,381.6,8.7z M237.7,13
	c0.2,0.2,0.7-0.3,0.2-0.1C237.9,12.9,237.4,12.7,237.7,13z M269,8.7c0.2,0.2,0.7-0.3,0.2-0.1C269.2,8.6,268.5,8.4,269,8.7z
	 M106.1,8.7c0.2,0.2,0.7-0.3,0.2-0.1C106.4,8.6,105.8,8.4,106.1,8.7z M262.4,8.3c0,0.2,0.4,0.5,0.3,0s0.5,0-0.1-0.1
	C262.4,8.2,262.4,7.9,262.4,8.3L262.4,8.3z M379.9,7.3c0,0.2,0.4,0.5,0.3,0s0.5,0-0.1-0.1C379.8,7.2,379.9,6.9,379.9,7.3L379.9,7.3z
	 M104.2,7.3c0,0.2,0.4,0.5,0.3,0s0.5,0-0.1-0.1C104.2,7.2,104.2,6.9,104.2,7.3z M12.6,9.1c0,0.2,0.4,0.5,0.3,0
	c-0.1-0.5,0.5,0-0.1-0.1C12.6,9,12.6,8.7,12.6,9.1z M321,8.1c0,0.1,0.2,0,0.2,0s0.4,0.5,0.1,0C321.4,8.1,321,7.7,321,8.1L321,8.1z
	 M316.3,7.9c0,0.1,0.2,0,0.2,0s0.4,0.5,0.1,0C316.6,7.9,316.3,7.5,316.3,7.9L316.3,7.9z M368.1,8.7l0.2-0.4
	c-0.3,0.1-0.2-0.1-0.3,0.1S368,8.4,368.1,8.7L368.1,8.7z M92.5,8.7l0.2-0.4c-0.3,0.1-0.2-0.1-0.3,0.1C92.4,8.7,92.3,8.4,92.5,8.7z
	 M184.2,6.7c0,0.1,0.2,0,0.2,0s0.4,0.5,0.1-0.1C184.2,6.6,184.2,6.4,184.2,6.7z M196.3,8.3c0,0.1,0.2,0,0.2,0s0.4,0.5,0.1,0h-0.1
	C196.4,8.3,196.3,7.9,196.3,8.3z M45.4,8.1c0,0.1,0.2,0,0.2,0s0.3,0.5,0.1,0h-0.1C45.5,8.1,45.4,7.7,45.4,8.1z M40.8,7.9
	c0,0.1,0.2,0,0.2,0s0.3,0.5,0.1,0H41C40.9,7.9,40.8,7.5,40.8,7.9z M67.4,8.5h0.2l-0.2-0.2V8.5z M342.9,8.5h0.2l-0.2-0.2V8.5z
	 M225.5,11.6v0.2l0.3-0.1L225.5,11.6z M47.4,2.9C47.7,3,47.2,3.4,47.4,2.9C47.6,2.9,47.6,2.9,47.4,2.9z M4.5,9.7
	C4.5,9.7,4.6,9.6,4.5,9.7C4.6,9.7,4.5,9.7,4.5,9.7z M228.1,10.1C228.2,10.1,228.1,10.1,228.1,10.1z M233.1,11.2
	C233.1,11.2,233,11.2,233.1,11.2z M289.6,7.7C289.7,7.7,289.6,7.7,289.6,7.7z M228.7,7.3C228.8,7.3,228.7,7.3,228.7,7.3z M252.1,9.7
	C252.2,9.6,252.1,9.7,252.1,9.7z M262.9,7.9C262.9,7.8,262.8,7.9,262.9,7.9z M262.9,7.3C262.9,7.2,262.8,7.3,262.9,7.3z M49.4,7.3
	C49.4,7.3,49.3,7.3,49.4,7.3z M233.3,10.1C233.3,10.1,233.2,10.1,233.3,10.1z M225.1,10.1l0.4,0.2L225.1,10.1z M225.1,10.1l-0.4-0.2
	L225.1,10.1z M384.1,7.9l-0.2-0.4L384.1,7.9z"/>
</svg>
