<?xml version="1.0" encoding="utf-8"?>
<!-- Generator: Adobe Illustrator 23.0.5, SVG Export Plug-In . SVG Version: 6.00 Build 0)  -->
<svg version="1.1" id="Слой_1" xmlns="http://www.w3.org/2000/svg" xmlns:xlink="http://www.w3.org/1999/xlink" x="0px" y="0px"
	 viewBox="0 0 412.5 105" style="enable-background:new 0 0 412.5 105;" xml:space="preserve">
<style type="text/css">
	.st0{fill:#FDF6EE;}
</style>
<g id="XMLID_1_">
	<g>
		<path class="st0" d="M411.5,96.2C411.8,96,411.6,96.2,411.5,96.2L411.5,96.2z"/>
		<rect x="409.3" y="105.7" class="st0" width="0.8" height="0.2"/>
		<rect x="403.9" y="101.1" class="st0" width="0.6" height="0.2"/>
		<path class="st0" d="M399.7,98C399.7,98.3,399.3,98,399.7,98L399.7,98z"/>
		<path class="st0" d="M399.7,98C399.7,98,399.7,97.9,399.7,98c-0.1-0.6,0.3-0.3,0.3-0.1C400,98.3,400,98,399.7,98
			C399.8,98,399.7,98,399.7,98z"/>
		<rect x="398.6" y="97.9" class="st0" width="0.8" height="0.2"/>
		<path class="st0" d="M396.9,100.9c0.9,0,1.1-0.1,1.6,0.2c0,0.7-1.7,0.4-2.2,0.2C396.5,101,396.3,100.9,396.9,100.9z"/>
		<path class="st0" d="M397.2,100.4c-0.5,0.2,0-0.3,0.2-0.1C397.7,100.6,397.2,100.4,397.2,100.4z"/>
		<path class="st0" d="M394.8,106.1v0.4H394C394.5,105.9,393.9,106.2,394.8,106.1z"/>
		<path class="st0" d="M385.2,103.2c1-0.7,2.3-0.8,3.4-0.3c-0.3,0.7-0.6,1.2-1.6,1.1c-0.8-0.1-1.6-0.2-2.4-0.4L385.2,103.2z"/>
		<path class="st0" d="M384.9,98.4c-0.3-0.2-0.1-0.2-0.3-0.3h1v0.4C385.1,98.4,385.4,98.5,384.9,98.4z"/>
		<path class="st0" d="M384.8,99.8c-0.5,0.2,0-0.3,0.2-0.1C385.4,100,384.8,99.8,384.8,99.8z"/>
		<path class="st0" d="M383.1,102.7c0.3-0.4,0-0.3,0.6-0.4C383.7,102.7,383.5,102.6,383.1,102.7z"/>
		<path class="st0" d="M380.8,102.1c-0.1-0.4,0.3-0.2,0.3,0C381.2,102.6,380.9,102.2,380.8,102.1z"/>
		<path class="st0" d="M379.3,100.1c0.4-0.6,0.4-0.6,0.8,0H379.3z"/>
		<path class="st0" d="M381.7,104.1c-1.1,0-1.5,0.2-2.8,0.2v-0.4c1.3,0.1,0.9,0.6,1.2-0.2l1.6,0.2V104.1z"/>
		<rect x="377.9" y="102.1" class="st0" width="1" height="0.4"/>
		<path class="st0" d="M377.5,100.3c0.2-0.9,0.5-0.6,1.4-0.4C378.9,100.9,377.9,100.4,377.5,100.3z"/>
		<rect x="377.3" y="102.9" class="st0" width="0.6" height="0.2"/>
		<path class="st0" d="M377.3,104.3c-1,0-0.6,0.2-1-0.4h2.4v0.4H377.3z"/>
		<path class="st0" d="M376.3,102.7v0.6h-0.8C375.7,102.6,375.5,102.8,376.3,102.7z"/>
		<path class="st0" d="M374.2,101.9l-1,1c0-0.2-0.1-0.4-0.2-0.6C373.3,102,373.8,101.8,374.2,101.9z"/>
		<path class="st0" d="M371.6,99.1c0,0,0.2-0.1,0.2,0C371.8,99.5,371.7,99.1,371.6,99.1z"/>
		<path class="st0" d="M371.6,99.1h-0.1C371.3,98.6,371.6,99.1,371.6,99.1z"/>
		<path class="st0" d="M371.2,102.1c0.4,1.5,1-0.3,1.4,1.2c-0.9-0.2-1.8,0.7-2.1-0.4l-0.1-0.8H371.2z"/>
		<path class="st0" d="M370.8,104.3c0.2-0.2-0.3,0.1,0.3-0.3c0.6-0.3,2-0.1,3.5-0.1L370.8,104.3z"/>
		<path class="st0" d="M369.2,103.9c1.1,0,0.2,0,1-0.6v0.8h-1V103.9z"/>
		<path class="st0" d="M368,100.9h1c-0.1,0.5-0.5,0.4-1,0.4V100.9z"/>
		<path class="st0" d="M369.6,103.1c-0.9,0-0.8,0-1.2-0.6c0.4,0,0.8,0.1,1.2,0.2V103.1z"/>
		<rect x="367" y="103.9" class="st0" width="1.6" height="0.2"/>
		<path class="st0" d="M367,98.9c0,0,0.2-0.1,0.2,0C367.2,99.3,367.1,98.9,367,98.9z"/>
		<path class="st0" d="M366.9,98.9c-0.2-0.5,0.1,0,0.1,0H366.9z"/>
		<path class="st0" d="M363.9,102.3c0.7,0,1.5,0.2,2.1,0.4c-0.1,0-0.2,0.4-1.2,0.2l-0.8-0.4L363.9,102.3z"/>
		<path class="st0" d="M365.2,104.1C364.9,104,365.4,103.6,365.2,104.1L365.2,104.1z"/>
		<rect x="364.4" y="103.1" class="st0" width="0.8" height="0.2"/>
		<rect x="363.9" y="103.9" class="st0" width="0.6" height="0.2"/>
		<polygon class="st0" points="363.9,102.3 362.9,102.3 362.9,101.9 364.1,101.9 		"/>
		<path class="st0" d="M361.5,100.3h1.6c-0.1,0.5-1.1,0.5-1.3,0.3C361.6,100.4,361.7,100.4,361.5,100.3z"/>
		<path class="st0" d="M361.2,101.3v0.4h-0.6C360.9,101.3,360.6,101.4,361.2,101.3z"/>
		<rect x="359.4" y="101.1" class="st0" width="0.8" height="0.4"/>
		<path class="st0" d="M359.8,99.4c-0.3,0.2,0.5,0.2-0.6,0.2l0.4-0.3L359.8,99.4z"/>
		<rect x="358.2" y="100.9" class="st0" width="1" height="0.4"/>
		<path class="st0" d="M357.6,102.1h1c0,0.3-0.4,0.4-0.6,0.4S357.7,102.3,357.6,102.1z"/>
		<rect x="356" y="100.5" class="st0" width="0.6" height="0.4"/>
		<path class="st0" d="M354.7,100.3c0.5,0,0.3,0,0.9,0.4h-1.5C354.3,100.4,354.1,100.3,354.7,100.3z"/>
		<path class="st0" d="M353.1,99.5C353.2,99.5,353,99.5,353.1,99.5L353.1,99.5z"/>
		<path class="st0" d="M352.3,100.3c-0.5-0.1-0.3,0.1-0.4-0.4C352.4,100.1,352.2,99.8,352.3,100.3z"/>
		<path class="st0" d="M351.9,103.3v0.4c-0.6,0-0.2,0.1-0.7-0.1c-0.3-0.2-0.1-0.2-0.3-0.3H351.9z"/>
		<path class="st0" d="M351.9,99.9c-0.7,0-1.3,0-2-0.2v-0.4h1c0.5-0.1,0.2,0.1,0.4-0.4c1.3,0.4-0.7,0,0.6,0.4
			C352.1,99.8,352.1,99.4,351.9,99.9z"/>
		<path class="st0" d="M349.8,98.3C349.8,98.3,350.1,98.8,349.8,98.3C349.8,98.4,349.8,98.4,349.8,98.3
			C349.8,98.3,349.8,98.3,349.8,98.3z"/>
		<path class="st0" d="M349.7,98.5c0,0,0.1,0.1,0.1,0.2c0,0,0,0,0,0C349.9,99,349.7,98.6,349.7,98.5z"/>
		<path class="st0" d="M349.7,98.5C349.7,98.5,349.7,98.5,349.7,98.5L349.7,98.5z"/>
		<path class="st0" d="M349.7,99.7c-0.1,0.4-0.2,0.3-0.6,0.4C349.4,99.7,349.1,99.8,349.7,99.7z"/>
		<rect x="348.7" y="101.7" class="st0" width="0.8" height="0.4"/>
		<rect x="348.7" y="98.3" class="st0" width="0.8" height="0.2"/>
		<path class="st0" d="M346.9,100.3c0.3,0.3-0.2,0.1-0.2,0.1C346.2,100.6,346.7,100.1,346.9,100.3z"/>
		<path class="st0" d="M345.6,101.9c-0.9-0.1-0.4,0.2-0.8-0.4C345.7,101.6,345.1,101.3,345.6,101.9z"/>
		<polygon class="st0" points="345.2,98.5 345.2,98.7 345,98.5 		"/>
		<rect x="343.8" y="99.5" class="st0" width="0.6" height="0.2"/>
		<path class="st0" d="M342.6,102.3l0.4,0.2c-0.1,0.6-0.6,0.3-1,0.2C342.2,102.4,342,102.3,342.6,102.3z"/>
		<polygon class="st0" points="342.8,99.1 341.8,100.1 341.8,99.3 		"/>
		<path class="st0" d="M341,98.5c0.3,0.3-0.2,0.1-0.2,0.1C340.3,98.8,340.8,98.3,341,98.5z"/>
		<path class="st0" d="M338.2,98.7c0.3,0.3-0.2,0.2-0.3,0.1c0,0,0.1-0.1,0.1-0.2C338.1,98.6,338.2,98.7,338.2,98.7z"/>
		<path class="st0" d="M337.9,98.8c-0.4,0.2-0.1-0.1,0.1-0.2C338,98.7,338,98.8,337.9,98.8C337.9,98.8,337.9,98.8,337.9,98.8z"/>
		<path class="st0" d="M333.9,99.7c0.2-0.8,0.1-0.5,0.8-0.4c-0.3,0.2,0,0-0.4,0.2L333.9,99.7z"/>
		<path class="st0" d="M333.1,102.1v-0.4c0.9,0.1,0.3-0.2,0.8,0.4H333.1z"/>
		<path class="st0" d="M333.3,98.9c-0.1,0.4-0.4,0.3-0.8,0.4l0.3-0.3C333.3,98.8,332.9,99,333.3,98.9z"/>
		<path class="st0" d="M331.8,101.7c1,0.1,0.4-0.3,0.8,0.6C331.8,102.1,332,102.2,331.8,101.7z"/>
		<rect x="331" y="98.7" class="st0" width="0.6" height="0.2"/>
		<path class="st0" d="M331.6,99.1c-0.2,0.4-0.1,0.2,0,0.6h-0.8C331,99,330.8,99.2,331.6,99.1z"/>
		<path class="st0" d="M326.3,98.7c0.5,0.3-0.2,0.1-0.2,0.1C325.6,99,326.1,98.5,326.3,98.7z"/>
		<path class="st0" d="M320.2,98.6c-0.1,0.2,0,0-0.3,0.1l0.2-0.4C320.3,98.6,320.2,98.3,320.2,98.6z"/>
		<path class="st0" d="M317.5,102.3h0.6c-0.1,0.4-0.2,0.3-0.6,0.4V102.3z"/>
		<path class="st0" d="M314.4,97.9c-0.1,0.3-0.3,0.3-0.6,0.4v-0.4H314.4z"/>
		<path class="st0" d="M314.8,99.1c-0.1,0.4-0.3,0.3-0.8,0.4v-0.4H314.8z"/>
		<path class="st0" d="M314,99.9h-0.6C313.8,99.3,313.5,99.3,314,99.9z"/>
		<path class="st0" d="M313.2,99.3c0.4-0.6,0.1-0.6,0.6,0H313.2z"/>
		<path class="st0" d="M313.4,97.3c-0.1,0.9-1.1,0.1-1.2,0H313.4z"/>
		<path class="st0" d="M310.2,98.7c0.3,0.3-0.2,0.1-0.2,0.1C309.5,99,310,98.5,310.2,98.7z"/>
		<path class="st0" d="M308.1,99.8C308.1,100.1,307.7,99.8,308.1,99.8L308.1,99.8z"/>
		<path class="st0" d="M308.4,99.7c0,0.4,0,0.1-0.2,0.1c0,0-0.1,0-0.1,0c0,0,0-0.1,0-0.1C308,99.2,308.4,99.5,308.4,99.7z"/>
		<path class="st0" d="M306.3,98.4c-0.5,0.2,0-0.3,0.2-0.1C306.8,98.6,306.3,98.4,306.3,98.4z"/>
		<path class="st0" d="M305.5,97.8C305.5,97.7,305.8,97.7,305.5,97.8L305.5,97.8z"/>
		<path class="st0" d="M305.9,98.1c-0.1,0.4-0.4,0.3-0.8,0.4l0.3-0.3C305.9,98,305.5,98.2,305.9,98.1z"/>
		<path class="st0" d="M301.8,99.1c0.4,0.3-0.2,0.1-0.2,0.1C301.1,99.4,301.6,98.9,301.8,99.1z"/>
		<path class="st0" d="M299.4,96.2h-1.2c0.5-0.5,0.4-0.4,0.8-0.4C299.3,95.8,299.3,96,299.4,96.2z"/>
		<rect x="293.3" y="95.6" class="st0" width="0.6" height="0.2"/>
		<path class="st0" d="M292.1,95.6V96c-0.6-0.1-0.3,0-0.6-0.4H292.1z"/>
		<path class="st0" d="M286.4,99.1c-0.2,0.7-0.1,0.6-0.8,0.8C285.7,99.2,285.7,99.2,286.4,99.1z"/>
		<path class="st0" d="M282.2,100.7c0.1-0.9-0.2-0.3,0.4-0.8c-0.1,0.3,0.1,0-0.1,0.5C282.3,100.7,282.3,100.6,282.2,100.7z"/>
		<rect x="280.4" y="106.1" class="st0" width="0.6" height="0.2"/>
		<path class="st0" d="M279.2,98.5c-0.4-0.1-0.8-0.2-1-0.4C278.7,97.9,278.8,98,279.2,98.5z"/>
		<path class="st0" d="M278.4,104.2c0.7,0.3,0.7,0.2,0.9,0.9c-1.1-0.6-1.5-0.6-2.2-1.6C277.5,103.7,278,103.9,278.4,104.2z"/>
		<path class="st0" d="M278.8,98.6l-0.7-0.4l-0.1-0.1c0.1,0,0.1,0,0.2,0c0.2,0.2,0.5,0.3,1,0.4c0,0,0,0,0,0
			C279.1,98.6,278.9,98.6,278.8,98.6z"/>
		<path class="st0" d="M275,101.8c0,0.1,0.1,0.1,0.1,0.1c-1-0.1-0.4,0.2-0.6-0.4L275,101.8z"/>
		<path class="st0" d="M272.2,97.3l0.4-0.1v0.3h-0.9C271.8,97.3,271.7,97.5,272.2,97.3z"/>
		<path class="st0" d="M271.4,97.5c0.4-0.6,0.2-0.4,1.2-0.4v0.1l-0.4,0.1c-0.5,0.2-0.5,0-0.5,0.2H271.4z"/>
		<path class="st0" d="M271.6,97.8C271.5,98,271.4,97.8,271.6,97.8L271.6,97.8z"/>
		<rect x="269.5" y="96.9" class="st0" width="1.4" height="0.2"/>
		<path class="st0" d="M249.5,97.1v0.2h-0.1c-0.1,0-0.3-0.1-0.5-0.1v-0.1H249.5z"/>
		<path class="st0" d="M249.4,97.3h-0.5v-0.1C249.1,97.2,249.3,97.3,249.4,97.3z"/>
		<path class="st0" d="M248.5,97.1C248.5,97.1,248.4,97.2,248.5,97.1c-0.1,0.1-0.2,0.1-0.2,0.1v-0.1
			C248.4,97.1,248.4,97.1,248.5,97.1z"/>
		<path class="st0" d="M248.3,97.1v0.1c0,0,0.1,0,0.1,0c-0.5,0.8-0.6,0.5-2.9,0.3v-0.4c0.5-0.1,1.1-0.1,1.6-0.2
			C247.7,96.9,247.6,97.1,248.3,97.1z"/>
		<path class="st0" d="M234.9,95.9C235.1,95.8,235,95.9,234.9,95.9L234.9,95.9z"/>
		<path class="st0" d="M229.4,101.7c0.6,0.2,0.3-0.1,0.6,0.4C229.4,102,229.7,102.1,229.4,101.7z"/>
		<path class="st0" d="M228.4,100.3c0,0.3,0,0.1-0.3,0.1c-0.3-0.6,0.1-0.1,0.1-0.1S228.4,100.2,228.4,100.3z"/>
		<path class="st0" d="M216.1,98.7c0,0,0.2-0.1,0.2,0C216.3,99.1,216.2,98.7,216.1,98.7z"/>
		<path class="st0" d="M216.1,98.7H216C215.7,98.2,216.1,98.7,216.1,98.7z"/>
		<path class="st0" d="M209.7,96.6c0.4,0.4-0.2,0.1-0.2,0.1C209,96.9,209.5,96.4,209.7,96.6z"/>
		<path class="st0" d="M206.5,97.1c0.4-0.6,0.5-0.2,1.8-0.2v0.2H206.5z"/>
		<path class="st0" d="M205.9,97.1C206.1,97,205.9,97.2,205.9,97.1L205.9,97.1z"/>
		<path class="st0" d="M205.3,97.1c0.5-0.2,0.1-0.1,0.6-0.2c0,0.1,0,0.2,0,0.2c0,0-0.1,0-0.2,0.1C205.1,97.5,205.4,97.1,205.3,97.1z
			"/>
		<path class="st0" d="M204.9,96.9c0.5,0.2,0.2,0.1,0.4,0.2h-0.8v-0.5L204.9,96.9z"/>
		<path class="st0" d="M203.5,96.4l-0.7,0c0,0,0.1,0,0.1,0c0,0,0,0,0,0C203.1,96.4,203.3,96.4,203.5,96.4z"/>
		<path class="st0" d="M203.5,96.9v0.4h-0.6C203.2,96.9,202.9,97,203.5,96.9z"/>
		<path class="st0" d="M202.3,96.5l0.5,0C202.6,96.6,202.5,96.6,202.3,96.5z"/>
		<path class="st0" d="M202,96.2c0.4,0.1,0.6,0.1,0.9,0.1c0,0,0,0,0,0c0,0-0.1,0-0.1,0l-0.5,0C202.2,96.4,202.1,96.3,202,96.2z"/>
		<path class="st0" d="M202.1,96.9c0.4,0.3-0.2,0.1-0.2,0.1C201.4,97.2,201.9,96.7,202.1,96.9z"/>
		<path class="st0" d="M198.4,97.3c-0.1,0.5-0.8,0.4-1.4,0.4c0.1-0.2,0-0.2,0.3-0.3L198.4,97.3z"/>
		<path class="st0" d="M195.1,96.7c0.6,0,1.2-0.2,1.8-0.3c3.5-0.7,0.4-0.1,3.4-0.2v-0.4c1.8,0.1-0.9,0.3,1.4,0.4c0.1,0,0.2,0,0.3,0
			l0,0c0.2,0.1,0.3,0.2,0.3,0.2l-1.8,0.1c-0.1,0.7,0,0.7,0,0.8h-1.1c-0.5-0.1-0.3-0.1-0.5-0.4h-1.1c-0.6-0.2-0.2-0.2-0.9-0.4V97
			c-0.5,0.1-1,0.1-1.6,0.1c-1.1,0.2-0.9,0-1.8-0.1C194.1,96.1,194.3,96.7,195.1,96.7z"/>
		<rect x="195.2" y="97.5" class="st0" width="1.4" height="0.2"/>
		<rect x="193.4" y="96.2" class="st0" width="1" height="0.2"/>
		<path class="st0" d="M191,97.2C190.9,97.2,191.1,97.1,191,97.2L191,97.2z"/>
		<path class="st0" d="M187.6,95.5c-0.1,0-0.2,0-0.3-0.1C187.4,95.5,187.5,95.5,187.6,95.5z"/>
		<path class="st0" d="M187.1,95.8v-0.2v-0.2c0.1,0,0.1,0,0.2,0c0,0,0,0,0,0c0.1,0,0.2,0.1,0.3,0.1c0.2,0.1,0.3,0.2,0.7,0.3
			c-0.5,1-0.3,0.7-1.4,0.4L187.1,95.8z"/>
		<rect x="185.1" y="95.6" class="st0" width="2" height="0.2"/>
		<path class="st0" d="M187.1,95.4L187.1,95.4l-0.2,0C187,95.3,187,95.4,187.1,95.4z"/>
		<path class="st0" d="M187.1,95.2v0.2c-0.1,0-0.1,0-0.2,0l-0.1,0L187.1,95.2z"/>
		<path class="st0" d="M186.9,97.9c0.3,0.3-0.2,0.1-0.2,0.1C186.2,98.2,186.7,97.7,186.9,97.9z"/>
		<rect x="184.7" y="97.3" class="st0" width="0.6" height="0.2"/>
		<path class="st0" d="M183.5,95.6c0.3,0.3-0.2,0.1-0.2,0.1C182.8,95.9,183.3,95.4,183.5,95.6z"/>
		<path class="st0" d="M182.6,97.7c0.7,0.2,0.2-0.2,0.6,0.6C182.6,98.1,182.8,98.3,182.6,97.7z"/>
		<path class="st0" d="M181.9,96.9c0.5,0.3-0.2,0.1-0.2,0.1C181.2,97.2,181.7,96.7,181.9,96.9z"/>
		<path class="st0" d="M179.9,102.3v0.4c-1,0-0.6,0.2-1-0.4H179.9z"/>
		<path class="st0" d="M178.9,95.9c0.2,0.2,0.1,0.2,0.2,0.3h-0.7C179.7,96.1,178.4,96.1,178.9,95.9z"/>
		<path class="st0" d="M178.9,95.9c-0.4,0.2,0.8,0.2-0.5,0.3l0.2-0.4C178.6,95.8,178.7,95.8,178.9,95.9
			C178.8,95.9,178.8,95.9,178.9,95.9z"/>
		<path class="st0" d="M178.1,95.8c0.5,0,0.3-0.1,0.5,0l-0.2,0.4h-0.3V95.8z"/>
		<rect x="176.1" y="95.8" class="st0" width="1.2" height="0.2"/>
		<path class="st0" d="M176.9,97.7v0.2h-2c0.2-0.3,0-0.4,0.6-0.4C176.4,97.5,176.1,97.7,176.9,97.7z"/>
		<path class="st0" d="M175.1,94.4v0.2h-0.2c0-0.1,0-0.1,0-0.2H175.1z"/>
		<path class="st0" d="M174.9,94.4c0,0.1,0,0.1,0,0.2h-0.4v-0.2H174.9z"/>
		<rect x="174.1" y="95.2" class="st0" width="0.8" height="0.4"/>
		<path class="st0" d="M174.9,94c0.2,0.2,0.1,0.2-0.1,0.1C174.8,94.1,174.8,94.1,174.9,94C174.8,94,174.8,94,174.9,94
			C174.9,94,174.9,94,174.9,94z"/>
		<path class="st0" d="M174.9,98.1c0.3,0.3-0.2,0.1-0.2,0.1C174.2,98.4,174.7,97.9,174.9,98.1z"/>
		<path class="st0" d="M174.7,94.1c-0.5,0.2-0.1-0.2,0.2-0.1c0,0-0.1,0.1-0.1,0.1c0,0,0,0,0,0C174.8,94.1,174.7,94.1,174.7,94.1z"/>
		<path class="st0" d="M173.5,97.7c0.4,0.3-0.2,0.1-0.2,0.1C172.8,98,173.3,97.5,173.5,97.7z"/>
		<rect x="172.3" y="97.1" class="st0" width="0.8" height="0.2"/>
		<path class="st0" d="M173.5,94.4c-0.1,0.3-0.2,0.6-0.8,0.6c-0.6,0-0.4-0.1-0.6-0.4C172.7,94.3,172.7,94.4,173.5,94.4z"/>
		<path class="st0" d="M171.2,100.3c0.9,0.1,0.4-0.2,0.8,0.4C171.1,100.6,171.7,100.9,171.2,100.3z"/>
		<rect x="167" y="97.7" class="st0" width="0.8" height="0.2"/>
		<path class="st0" d="M167.3,96.2C167.3,96.2,167.3,96.2,167.3,96.2L167.3,96.2C167.3,96.2,167.3,96.2,167.3,96.2z"/>
		<path class="st0" d="M167.3,96.2C167.2,96.2,167.2,96.2,167.3,96.2C167.2,96.2,167.2,96.2,167.3,96.2
			C167.2,96.2,167.2,96.2,167.3,96.2z"/>
		<path class="st0" d="M167.1,96.2C167.1,96.2,167.1,96.2,167.1,96.2C167.1,96.2,167.1,96.2,167.1,96.2z"/>
		<path class="st0" d="M167.1,96.2C167.1,96.2,167.1,96.2,167.1,96.2C167.1,96.2,167.1,96.2,167.1,96.2z"/>
		<rect x="162.3" y="98.3" class="st0" width="0.6" height="0.2"/>
		<path class="st0" d="M161.5,97.9c-0.5,0.6-1.6,0.4-2.6,0.4v-0.2C160,98.1,160.3,97.9,161.5,97.9z"/>
		<path class="st0" d="M160.1,98.7v0.4h-2.2v-0.2C159,98.9,159.2,98.7,160.1,98.7z"/>
		<path class="st0" d="M158.5,98.1c0.3,0.3-0.2,0.1-0.2,0.1C157.8,98.4,158.3,97.9,158.5,98.1z"/>
		<polygon class="st0" points="152.8,99.1 152.8,99.3 151.6,99.3 151.6,98.9 		"/>
		<path class="st0" d="M149.9,98.8C149.9,99.1,149.5,98.8,149.9,98.8L149.9,98.8z"/>
		<path class="st0" d="M150.2,98.7c0,0.4,0,0.1-0.2,0.1c0,0-0.1,0-0.1,0c0,0,0-0.1,0-0.1C149.8,98.2,150.2,98.5,150.2,98.7z"/>
		<path class="st0" d="M148.7,99.1c0.4,0.3-0.2,0.1-0.2,0.1C148,99.4,148.5,98.9,148.7,99.1z"/>
		<path class="st0" d="M146.7,101.9v0.6c-0.9-0.5-0.4,0-0.6-0.6H146.7z"/>
		<path class="st0" d="M143.3,97C143.4,96.7,143.5,97.2,143.3,97L143.3,97z"/>
		<path class="st0" d="M143.4,98.4c-0.5,0.2,0-0.3,0.2-0.1C144.1,98.6,143.4,98.4,143.4,98.4z"/>
		<path class="st0" d="M143.1,96.7C143,97,142.9,96.6,143.1,96.7L143.1,96.7z"/>
		<rect x="133.8" y="105.7" class="st0" width="0.8" height="0.2"/>
		<rect x="128.3" y="101.1" class="st0" width="0.6" height="0.2"/>
		<rect x="124.1" y="99.3" class="st0" width="1.8" height="0.2"/>
		<path class="st0" d="M123.8,98L123.8,98l-0.8,0v-0.2h0.4c0,0,0,0.1,0,0.1C123.6,98,123.7,98,123.8,98z"/>
		<path class="st0" d="M123.8,97.9V98c-0.1,0-0.2,0-0.4-0.1c0,0,0-0.1,0-0.1H123.8z"/>
		<path class="st0" d="M121.4,100.9c0.9,0,1.1-0.1,1.6,0.2c-0.2,0.7-1.8,0.4-2.2,0.2C121,101,120.8,100.9,121.4,100.9z"/>
		<path class="st0" d="M121.8,100.3c0.3,0.3-0.2,0.1-0.2,0.1C121.1,100.6,121.6,100.1,121.8,100.3z"/>
		<path class="st0" d="M120.4,96.9c1,0,0.4-0.2,0.6,0.4L120.4,96.9z"/>
		<path class="st0" d="M119.2,106.1v0.4h-0.8C118.8,105.9,118.3,106.2,119.2,106.1z"/>
		<path class="st0" d="M110.2,103c1.5-0.5,1.5-0.7,2.8-0.1c-0.3,0.7-0.6,1.2-1.7,1.2c-0.8-0.1-1.6-0.2-2.4-0.4L110.2,103z"/>
		<path class="st0" d="M110,98.1v0.4c-0.3-0.1-0.7-0.2-1-0.2v-0.2H110z"/>
		<path class="st0" d="M109.4,99.7c0.4,0.3-0.2,0.1-0.2,0.1C108.7,100,109.2,99.5,109.4,99.7z"/>
		<path class="st0" d="M107.6,102.7c0.3-0.4,0-0.3,0.6-0.4C108.2,102.7,108,102.6,107.6,102.7z"/>
		<path class="st0" d="M105.3,102.1c-0.1-0.4,0.3-0.2,0.3,0C105.7,102.6,105.3,102.2,105.3,102.1z"/>
		<path class="st0" d="M103.7,100.1c0.4-0.6,0.4-0.6,0.8,0H103.7z"/>
		<path class="st0" d="M103.4,103.9c1.3,0.1,0.9,0.6,1.2-0.2l1.6,0.2v0.2c-1.2,0-1.6,0.2-2.8,0.2V103.9z"/>
		<rect x="102.3" y="102.1" class="st0" width="1" height="0.4"/>
		<path class="st0" d="M101.9,100.3c0.3-0.9,0.5-0.6,1.4-0.4C103.3,100.9,102.3,100.4,101.9,100.3z"/>
		<rect x="101.7" y="102.9" class="st0" width="0.6" height="0.2"/>
		<path class="st0" d="M103.1,104.3h-1.4c-1,0-0.6,0.2-1-0.4h2.4V104.3z"/>
		<path class="st0" d="M100.7,102.7v0.6h-0.8C100.1,102.6,99.9,102.8,100.7,102.7z"/>
		<path class="st0" d="M98.7,101.9l-1,1c-0.1-0.4,0-0.3-0.2-0.6C97.8,102,98.3,101.8,98.7,101.9z"/>
		<path class="st0" d="M95.3,104.3c0.9-0.8,1-0.4,3.8-0.4L95.3,104.3z"/>
		<path class="st0" d="M96.1,99.1c0,0,0.2-0.1,0.2,0C96.3,99.5,96,99.1,96.1,99.1C95.7,98.6,96.1,99.1,96.1,99.1z"/>
		<path class="st0" d="M95.7,102.1c0.4,1.5,1-0.3,1.4,1.2c-1.2-0.2-0.5,0.2-1.4,0.2c-0.9,0-0.8-1.1-0.8-1.4H95.7z"/>
		<path class="st0" d="M93.6,103.9c1.1,0,0.2,0,1-0.6v0.8h-1V103.9z"/>
		<path class="st0" d="M94,103.1c-0.9,0-0.8,0-1.2-0.6c0.4,0,0.8,0.1,1.2,0.2V103.1z"/>
		<path class="st0" d="M92.3,100.9h1c0,0.5-0.4,0.4-1,0.4V100.9z"/>
		<rect x="91.4" y="103.9" class="st0" width="1.6" height="0.2"/>
		<path class="st0" d="M91.3,98.9C91,98.4,91.4,98.9,91.3,98.9c0.1,0,0.3-0.1,0.3,0C91.6,99.3,91.2,98.9,91.3,98.9z"/>
		<path class="st0" d="M90.5,102.8c-0.4,0.3-1,0.4-1.5,0.1l-0.6-0.5l-0.1-0.1C89.1,102.3,89.8,102.5,90.5,102.8z"/>
		<rect x="88.8" y="103.1" class="st0" width="0.8" height="0.2"/>
		<rect x="88.4" y="103.9" class="st0" width="0.6" height="0.2"/>
		<polygon class="st0" points="87.3,101.9 88.6,101.9 88.3,102.3 87.3,102.3 		"/>
		<path class="st0" d="M85.9,100.3h1.6c0,0.5-1,0.5-1.3,0.3C85.9,100.4,86,100.4,85.9,100.3z"/>
		<path class="st0" d="M85.6,101.3v0.4H85C85.3,101.3,85,101.4,85.6,101.3z"/>
		<path class="st0" d="M84.6,101.5c-0.9,0-0.9-0.2-2-0.2v-0.4l2,0.2V101.5z"/>
		<path class="st0" d="M84.2,99.5c-0.3,0.2,0.5,0.2-0.6,0.2l0.4-0.4L84.2,99.5z"/>
		<path class="st0" d="M82,102.1h1c0,0.3-0.3,0.4-0.6,0.4C82.1,102.5,82.1,102.3,82,102.1z"/>
		<rect x="80.4" y="100.5" class="st0" width="0.6" height="0.4"/>
		<path class="st0" d="M79.7,100.4c0.2,0.2,0.1,0.2,0.3,0.3h-1.4c0.2-0.3,0-0.4,0.6-0.4c0.3,0,0.4,0,0.5,0
			C79.7,100.3,79.6,100.3,79.7,100.4z"/>
		<path class="st0" d="M76.3,99.9c0.6,0.2,0.4-0.1,0.4,0.4C76.2,100.2,76.4,100.4,76.3,99.9z"/>
		<path class="st0" d="M76.3,103.3v0.4c-0.6,0-0.2,0.1-0.7-0.1c-0.3-0.2-0.2-0.2-0.3-0.3H76.3z"/>
		<path class="st0" d="M74.2,98.6C74.2,98.8,74.2,98.7,74.2,98.6C74.1,98.6,74.2,98.6,74.2,98.6z"/>
		<path class="st0" d="M74.1,98.2C74.1,98.2,74.4,98.7,74.1,98.2C74.1,98.3,74.1,98.3,74.1,98.2C74.1,98.2,74.1,98.2,74.1,98.2z"/>
		<path class="st0" d="M74,98.4c0,0,0.1,0.1,0.1,0.2c0,0,0,0,0,0C74.1,98.5,74,98.4,74,98.4z"/>
		<path class="st0" d="M73.5,100.1c0.3-0.4,0-0.3,0.6-0.4C74,100.1,73.9,100,73.5,100.1z"/>
		<rect x="73.1" y="101.7" class="st0" width="0.8" height="0.4"/>
		<rect x="73.1" y="98.3" class="st0" width="0.8" height="0.2"/>
		<path class="st0" d="M71.3,100.3c0.3,0.3-0.2,0.1-0.2,0.1C70.6,100.6,71.1,100.1,71.3,100.3z"/>
		<path class="st0" d="M70.1,101.9c-0.9-0.1-0.3,0.2-0.8-0.4C70.2,101.6,69.6,101.3,70.1,101.9z"/>
		<polygon class="st0" points="69.7,98.5 69.7,98.7 69.5,98.5 		"/>
		<rect x="68.3" y="99.5" class="st0" width="0.6" height="0.2"/>
		<path class="st0" d="M67.1,102.3l0.4,0.2c-0.1,0.6-0.7,0.3-1,0.2C66.7,102.4,66.5,102.3,67.1,102.3z"/>
		<polygon class="st0" points="67.3,99.1 66.3,100.1 66.3,99.3 		"/>
		<path class="st0" d="M65.4,98.5c0.3,0.3-0.2,0.1-0.2,0.1C64.7,98.8,65.2,98.3,65.4,98.5z"/>
		<path class="st0" d="M62.7,98.8C62.7,98.8,62.7,98.9,62.7,98.8C62.6,98.9,62.7,98.8,62.7,98.8z"/>
		<path class="st0" d="M62.4,98.8c-0.5,0.2,0-0.3,0.2-0.1c0.1,0.1,0.1,0.1,0.1,0.1c0,0,0,0.1,0,0.1h0C62.5,98.9,62.4,98.8,62.4,98.8
			z"/>
		<path class="st0" d="M59.7,98.5C60,98.6,59.2,98.5,59.7,98.5C59.7,98.5,59.7,98.5,59.7,98.5z"/>
		<path class="st0" d="M58.4,99.7c0.2-0.8,0.1-0.5,0.8-0.4c-0.3,0.2,0,0-0.4,0.2C58.8,99.6,58.5,99.7,58.4,99.7z"/>
		<path class="st0" d="M58.3,102.1h-0.8v-0.4C58.5,101.8,57.9,101.5,58.3,102.1z"/>
		<path class="st0" d="M56.9,99.3c0.2-0.2-0.2,0,0.5-0.3c0.3-0.2,0.2-0.1,0.5-0.1C57.7,99.2,57.5,99.2,56.9,99.3z"/>
		<polygon class="st0" points="56.2,102.1 56.2,101.7 57,101.7 57,102.3 		"/>
		<rect x="55.4" y="98.7" class="st0" width="0.6" height="0.2"/>
		<path class="st0" d="M56,99.1c-0.2,0.4-0.1,0.2,0,0.6c-0.3,0-0.6-0.1-0.8-0.2C55.6,98.9,55.1,99.2,56,99.1z"/>
		<path class="st0" d="M50.8,98.7c0.4,0.3-0.2,0.1-0.2,0.1C50.1,99,50.6,98.5,50.8,98.7z"/>
		<path class="st0" d="M44.6,98.6c-0.1,0.2,0,0-0.3,0.1l0.2-0.4C44.6,98.6,44.7,98.4,44.6,98.6z"/>
		<rect x="41.9" y="102.3" class="st0" width="0.6" height="0.4"/>
		<path class="st0" d="M38.9,97.9c-0.1,0.3-0.3,0.3-0.6,0.4v-0.4H38.9z"/>
		<path class="st0" d="M38.5,99.5c0.2-0.5-0.4-0.4,0.8-0.4C38.9,99.7,39.4,99.4,38.5,99.5z"/>
		<path class="st0" d="M38.5,99.5c-0.3,0.6,0.4,0.3-0.6,0.4C38.2,99.5,37.9,99.6,38.5,99.5z"/>
		<path class="st0" d="M37.6,99.3c0.5-0.6,0.1-0.6,0.6,0H37.6z"/>
		<path class="st0" d="M37.8,97.3c-0.1,0.3-0.3,0.4-0.6,0.4s-0.3-0.2-0.4-0.4H37.8z"/>
		<path class="st0" d="M34.6,98.7c0.3,0.3-0.2,0.1-0.2,0.1C33.9,99,34.4,98.5,34.6,98.7z"/>
		<path class="st0" d="M32.7,99.7c0,0.1,0,0.2,0,0.2c0,0-0.1-0.1-0.2-0.1c0,0-0.1,0-0.1,0c0,0,0-0.1,0-0.1
			C32.3,99.2,32.7,99.5,32.7,99.7z"/>
		<path class="st0" d="M32.4,99.8C32.4,100.1,32,99.8,32.4,99.8L32.4,99.8z"/>
		<path class="st0" d="M30.8,98.4c-0.5,0.2,0-0.3,0.2-0.1C31.3,98.6,30.8,98.4,30.8,98.4z"/>
		<path class="st0" d="M30.1,97.7C30,97.6,30.4,97.6,30.1,97.7L30.1,97.7z"/>
		<path class="st0" d="M30.4,98.1c-0.1,0.4-0.4,0.3-0.8,0.4c0.1-0.2,0-0.2,0.3-0.3C30.4,98,30,98.2,30.4,98.1z"/>
		<path class="st0" d="M26.2,99.1c0.4,0.3-0.2,0.1-0.2,0.1C25.5,99.4,26,98.9,26.2,99.1z"/>
		<path class="st0" d="M23.8,96.2h-1.2c0.5-0.5,0.3-0.4,0.8-0.4C23.7,95.8,23.7,96,23.8,96.2z"/>
		<rect x="17.7" y="95.6" class="st0" width="0.6" height="0.2"/>
		<path class="st0" d="M16.5,95.6V96c-0.6-0.1-0.3,0-0.6-0.4H16.5z"/>
		<path class="st0" d="M10.9,99.1c-0.2,0.7-0.1,0.6-0.8,0.8C10.2,99.2,10.2,99.2,10.9,99.1z"/>
		<path class="st0" d="M6.6,100.7c0.1-0.9-0.2-0.3,0.4-0.8c-0.1,0.3,0.1,0-0.1,0.5C6.7,100.7,6.7,100.6,6.6,100.7z"/>
		<rect x="4.8" y="106.1" class="st0" width="0.6" height="0.2"/>
		<path class="st0" d="M2.4,98.1c0.7-0.2,0.7-0.2,1.2,0.4c-0.2,0.2-0.6,0-0.7,0l-0.1-0.1L2.4,98.1z"/>
		<path class="st0" d="M2.9,104.2c0.7,0.3,0.7,0.2,0.9,0.9c-1.1-0.6-1.5-0.6-2.2-1.6C2,103.7,2.5,103.9,2.9,104.2z"/>
		<path class="st0" d="M304.1,98.9C304.1,98.9,304,98.8,304.1,98.9L304.1,98.9z M292.1,96v-0.4h-0.6C291.8,96,291.5,95.9,292.1,96z
			 M293.9,95.8v-0.2h-0.6v0.2H293.9z M299.4,96.2c-0.1-0.2-0.1-0.4-0.4-0.4c-0.4,0-0.3-0.1-0.8,0.4H299.4z M23.8,96.2
			c-0.1-0.2-0.1-0.4-0.4-0.4c-0.5,0-0.3-0.1-0.8,0.4H23.8z M16.5,96v-0.4h-0.6C16.2,96,15.9,95.9,16.5,96z M18.3,95.8v-0.2h-0.6v0.2
			H18.3z M2.1,97.2c-0.8,0.3,0.1,0.3-0.5,0.3c-0.2,0-0.1-0.1-0.7-0.3c0.4,1-0.3,0.1-0.8,1.4c-2.6,0-0.4-0.6-2-0.8v-0.6
			c1.8,0,1-0.8,2.4,0c-0.2-0.9-0.5-0.8-1.6-0.8c0.4-0.5,0.6-0.5,0-0.8c-0.3-0.2-0.7-0.2-1,0V0.5h416.8v95.3c-1.1,0-2.1,0.1-3.2,0.2
			v0.1c0,0.1,0,0.1,0,0.1c0,0-0.1,0.1-0.1,0.1l-0.7,0.4l4,0.2c0,1.1-0.3,1,0,1.6c-0.9-0.1-1.8-0.2-2.7-0.1h-2.4
			c-1.8,0.1-3.6,0-5.4-0.1c0.7-0.9,1,0.1,1.4-1h1.8c-0.2,0.9-0.2,0.6,1.2,0.6c0.2-0.6,0.1-0.4,0.4-0.8l-5.3-0.4
			c-0.9,0.1-0.4,0.1-1.1,0.3c-1.5,0.5-1.9,0.7-2.3,0l-1.7-0.2c1.7,0,0.9-0.4,2.6-0.4c-0.4-0.6-0.8-0.4-1.6-0.6l-0.2,0.8h-2.8
			c-1.2,0-1.6,0.2-2.6,0.2c0.3,0.5,0.1,0.4,0.8,0.6c-0.4,0.6,0,0.4-1,0.4l0.2,0.4c0.2,0.4,0.1,0,0,0.3c-0.2,0-0.9,0.1-0.9,0.1
			l-4.1-0.3v0.1c-0.2,0.6,0,0.4-0.4,0.5c-0.5-0.5-0.2,0-0.4-0.6c-0.6,0.2-0.2,0.2-0.8,0.2l-1.2-0.3l-0.1-0.1L386,98l-0.1-0.1
			c-0.1-0.2-0.2-0.3-0.3-0.5l-2,0.5c-1.3,0.3-0.6-0.5-0.5-0.7c-1.3-0.1-2.6,0.2-3.8,0.7c-0.4,0.1-0.9,0.2-1.3,0.1
			c-0.4,0.8,0.1,0-0.2,0.8c-1.7,0-1.8-0.5-3.2-0.6c-1.4-0.1-1.1,0.2-2.4-0.1c-1.6-0.4-0.1,0.4-1.8,0c-1.2-0.2-3.6,0.3-4.5,0.3
			c0.3,1,0.6,0.5,0.6,2c-0.5-0.1-1.1-0.2-1.6-0.2v-0.4c0.5,0,0.9,0.1,1.4,0.2c-0.3-0.3-0.5-0.3-0.6-0.8c-0.7,0.1-1,0.4-1.6,0.4
			c-1.7,0,0.2-0.3-1.3-0.4c-1,0-1.9,0.7-3,0.2l-0.2-0.2l-0.4-0.4h0.6c0.4-0.1,0.2-0.1,0.4-0.2c-1.4-0.3-2.8-0.5-4.2-0.6l-0.1,0.1
			l0.5,0.7c-2,1-1.4,0.3-2.7,0.5c-0.2,0-0.3,0-0.3,0c0.1,0,0.1,0-0.1,0.1c-0.1,0-0.2,0-0.2,0.1c0,0-0.1,0-0.1-0.1l-1.2-0.3
			c0-0.5-0.2-1-0.6-1.3c-0.2-0.1,0.2,0-0.4-0.1c0.1,0.6,0.2,0.3,0,0.8c-0.8,0-0.5-0.1-1,0.2c0-0.1,0-0.2,0-0.3c0,0,0,0,0,0
			c0.3,0.5,0-0.1,0-0.1c0,0,0,0,0,0c0,0-0.1-0.1-0.1-0.2c-0.4-0.9-1.1-0.1-2.1,0c-0.2,0.1,0,0.1-0.4,0.2h-0.4V98
			c-0.9,0-0.8-0.2-1,0.6c-0.4-0.1-0.3,0-0.6-0.2c-0.2-0.2-0.4-0.3-0.6-0.4c-0.7,0.5-0.2,0.2-0.6,1c-0.7-0.5-0.5-0.2-2-0.6h-0.6
			c-0.3-0.2-0.1,0-0.2-0.4c-2.6,0.1-2.1,0.9-3.1,1.5c-0.5,0.4-0.2,0.2-0.9,0.1V99c0.5-0.1,0.6-0.1,0.7-0.2c0.1,0,0.5,0.2,0.3-0.1
			c0,0-0.1,0-0.2,0c0-0.1,0.1-0.1,0.2-0.3c-0.2-0.3-0.1-0.5-0.8-0.4c-0.7,0.1-0.2,0.4-2,1.4c0.3-1,0.3-0.2,0.6-1.2l-2.8-0.1h-0.1
			l-0.4-0.1h-0.1c0,0-0.8-0.1-1-0.1l-1.2,0.2c-0.7,0.1-0.8,0.1-1,0.8c-0.2,0-0.4,0-0.6-0.1l-0.3-0.1c0.2-0.1,0.4-0.2,0.6-0.4
			c-0.6-0.1-1.1-0.1-1.7-0.1c-0.7,0-0.4-0.2-1.1,0.3c-0.2-0.4-0.2-0.2-0.2-0.8l-1.4,0.4c-1.3-0.4,0.2-0.4-1.2-0.6
			c-0.6,0-1.1,0-1.6,0.1h-0.1l-0.1,0.1l-0.2,0.2c-0.5,0.5,0.2,0.9-1.1,0.9c0.4-0.5,0.4-0.3,0.2-1l-0.7,0.4c-0.4,0.1-0.8,0.2-1.2,0.2
			c0.1,0.3,0.2,0.7,0.2,1c-1.9,0-0.2,0.5-1.9,0.1c-0.7-0.2-1.4-0.4-2.1-0.5c0.3-0.9-0.1,0.2,0.3-0.5c0.2-0.3,0.2-0.1,0.3-0.5
			c-2.2-0.6-1.8-0.5-1.8-1.2c-4,0.4-2.4,1.4-4,1.4c-0.4-0.1-0.9-0.2-1.4-0.2l-0.3,0.8c-0.5-0.3-0.2,0-0.4-0.6v-0.1h-1
			c-0.8-0.2-1-0.3-1.1-0.3c0.3-0.1-0.1-0.1,0,0c-0.1,0-0.4,0.1-0.9,0.1c-0.3,1.2-0.5,1.1-0.5,1c0,0.1,0.1,0.2,0.1,0.6
			c-0.4-0.2-0.7-0.5-1-0.8l-0.3-0.3c-0.1,0-0.2-0.1-0.3-0.1h-0.4c-0.5,0.1-0.5,0.2-0.9,0.5v-0.6c-3.9,0.3-1.9-0.4-5.4,0.7l-0.5,0.1
			c-2.3,0.8-0.3,1.8-4.6,1.3c-2.9-0.3-2-1.1-2-1.9l-1.2,0.2c0.1,0.9,0.4,0.3,0.2,0.8c-1.4-0.4,0.2-0.5-1.2-0.6v-0.3
			c1,0,0.6,0.2,1-0.4c-1,0-2.8-0.9-3.8-0.1l-1.2,1.3l-2.7-0.7v-0.1c-0.3,0-0.5,0-0.7,0c-0.3-0.5-0.5-0.5-1-0.4
			c-0.1-0.1-0.2-0.3-0.3-0.6c-0.7,0.1-1.5,0-2.2-0.2c-0.8,0.3,0.1,0.3-0.5,0.3c-0.3,0-0.2-0.1-0.8-0.3c0.4,1-0.4,0.1-0.8,1.4
			c-1.4,0-0.7,0.2-1.8-0.8c-0.1-0.1-0.2-0.1-0.2-0.1c0,0,0,0,0-0.1c0-0.1,0.1-0.1,0.1-0.2h0.9v-0.3l0.1,0h0.1
			c0.7-0.2,0.4-0.2,1.2,0.2c-0.2-0.9-0.5-0.8-1.6-0.8c0.5-0.8,0.6-0.3,0.1-0.7c-0.2-0.2-0.5-0.3-0.8-0.2c-0.5,0-0.1,0.2-0.9,0
			c-0.1,0,0.1,0-0.4-0.1s-0.4,0-0.5,0h-1.1l-3,0.1c0.3,0.5,0.4,0.5,0.2,1c-0.5-0.2-0.4,0.4-0.4-0.8c-2,0.4-1-0.2-2.2-0.2
			c-0.7,0-1.4,0.5-1.6,1.2c3.5,0,4.1,0.4,6.1,0.4l-0.3,0.1l-0.2,0.1l-0.1-0.1v0.2c-0.4,0.6-5.5,0.4-6.5,0.3s-0.3-0.2-0.9,0.2
			c-0.2,0.1-0.4,0.7-0.9,0.1c-0.8,0-0.5-0.1-1,0.2c0-0.1-0.1-0.2-0.1-0.2c0,0,0.1,0,0.1-0.2c0.1,0,0.2-0.3,0.2-0.4h-0.8
			c-1,0.2-0.2,0.1-0.4,0.2c-0.9,0.5-1.3,0.1-2.1,0l-4.2-0.2c-0.7-0.1-0.9-0.2-1.3-0.3h0.1v-0.2h-0.6v0.1c-0.1,0-0.3,0-0.5,0
			c0,0,0.1-0.1,0.1-0.1c-0.1,0-0.1,0-0.2,0v-0.3h6.6c1.2-0.2,0.4-0.5,1.6-0.2c-0.6-1.1-0.1-0.4-1-1s-0.2-0.7-1.2-0.8
			c-0.3,0.8,0.7,1-0.7,1.1c-0.2,0-0.1-0.2-0.9,0.1c-0.3,0.2-0.6,0.3-0.9,0.4c0.1-1.1,0.3-0.4,0-1.6c-1-0.3-2.1-0.3-3.1,0.1
			c-1.7,0.5-2.3-0.7-2.7,0.7c0.5-0.1,0.9-0.2,1.4-0.2c-0.5,0.6-1.1,0.4-2.2,0.4c0.3-0.6,0.2-0.4,0.2-1.2c-1.1,0.1-0.7,0.4-2.2,0.4
			c0.1,0.3,0.2,0.7,0.2,1c-1.2,0-0.8-0.2-1.8,0l0.3-0.3l0.3-0.3c-0.6,0-1.2-0.2-1.6-0.6c-0.3,0.4-0.6,0.5-0.7,0.9
			c-0.2,0.6,0,0.7-0.3,1.3c-0.7-0.1-0.6-0.2-0.7-0.4c0-0.2-0.1-0.2-0.1-0.3c0,0,0.1,0.1,0.1,0v-0.2c-0.8,0.1-1.7,0.2-2.5,0.1
			c-0.6-0.1-0.8-0.7-1.7-0.9l0.2,0.4c0,0.1,0,0.2,0.1,0.2c0,0-0.1,0.1-0.1,0.1c-0.2,0.2-0.4,0.2-0.7-0.1c-0.7-0.6-0.2-1.2,0.1-1.6
			c-1.3,0-0.8-0.1-1.2,0.8c-1-0.3,0.2,0-0.8-0.4c-0.1,1.4-0.7,0.6-2.1,0.9c-0.7,0.2-1.3,0.6-1.9,1.1c-0.7-0.5-0.6-0.9-1.5-0.7
			c-1.6,0.3-0.3,0.1-1.9,0.1c-0.2,0.6-2.4,2.3-2.8,2.4c0.1-1.3,1.2-1.1,1.2-2.6c-1.8,0.1-0.7,1.1-2.2,0.4c-1.7-0.8-0.5,0-1.9,0.2
			c-1.4,0.2,0.3-0.2-1.1-0.2l-3.7,0.1c-0.1,0.3-0.2-0.4,0,0.6c-0.9-0.6-0.6-0.7-2.4-0.6c-0.7,0.1-0.7,0.2-1.2,0.2
			c-0.7,0-0.6-0.1-1-0.4l-0.6,0.4c-0.8-0.2,0-0.1-0.7-0.3c-3.6-1.2-2.6,0-4.4-0.4l-0.9-0.1c-0.2,0.3-0.1,0.2-0.2,0.6
			c-0.3,0-0.5-0.1-0.9-0.1l0,0c0,0,0,0-0.1,0c-0.2-0.6-0.2-0.4-0.7-0.5c-0.5-0.1-1-0.1-1.5-0.1c1.4-1,1.8,0.4,2.2-1
			c-1,0.2-2.1,0.4-3.2,0.4v0.7c-1.6,0-6.4-0.2-7.7,0.3c-0.2,0.1-0.2,0-0.2,0c0,0,0,0.1-0.2,0.3h0.8v0.8c-0.2,0.1-0.3,0.1-0.4,0.1
			c0.1-0.1-0.1,0,0,0c0,0-0.1,0.1-0.3,0.2c-0.8,0.5-2.3,0.3-3.8,0.4c-0.5,0-0.1,0.1-0.6,0c-0.5-0.1-0.3-0.1-0.5-0.2
			c0.9,0.1,1.9-0.1,2.8-0.4c0.8-0.2,1.3-0.1,1.4-1.2c-0.8-0.2-0.5-0.3-1.4-0.4c-0.4,0-0.7,0-1-0.1c-0.1,0-0.2-0.1-0.3-0.1
			c0,0,0,0,0,0c0,0-0.1,0-0.1,0c0,0-0.1,0-0.1,0v-0.2l-0.3,0.1l0.1,0c-3.3-0.7-2.7,0.1-4.7,0c-1.2-0.1-0.7,0-1.7,0.1l0.1,0.1
			l0.7,0.3c-1.1,0.1-0.2,0.1-0.6,0.2l-0.2,0.1h-0.8l-0.7-0.2c-0.1,0-0.1,0-0.1,0c0,0,0,0-0.1,0c-0.1-0.1-0.2-0.1-0.2-0.1l0.1-0.3
			l0.1-0.1c0.1-0.2,0.9-0.3-1.1-0.4s-1-0.8-2.6,0.2c-0.1-0.3-0.2-0.5-0.2-0.6h0.2v-0.2h-0.2c0-0.1,0-0.1-0.1-0.3
			c0.1,0,0.3,0.1,0.1-0.1c0,0,0,0,0,0c0.1-0.1,0.3-0.2-0.8-0.4l-3.6,0.2c-0.1,1,0.1,0.4-1.1,0.7c-0.4,0.1-0.7,0.3-1.1,0.5
			c0.2,0.5,0.1,0.2,0.4,0.4c0.3,0.2,0.2-0.2,0.3,0.1c0,0.1,0.1,0.1,0.1,0.1c-0.5,0.1-1,0.2-1.5,0.4c-0.2,0.1-0.3,0.2-0.3,0.2
			c0,0,0,0,0,0c0,0,0,0-0.1,0c0,0,0,0,0,0c0,0,0,0,0,0c0,0,0,0,0,0c0,0-0.1,0-0.1,0c0,0-0.1,0-0.1,0.1c-0.6,0.2-1.4-0.2-2-0.3
			c-1-0.1-0.5,0-1.5,0.1c0,1.3-0.5,1.2-1.4,1c0.4-0.6,0.6-0.4,0.8-1.2c-1.2,0.2-2.5,0.3-3.8,0.2l-0.3-0.7c-0.9-0.8-2,0.3-3.3,0.3
			c0,1.4-0.3,1.2,0.2,2.2c-0.3,0-0.6,0-0.9,0.1h-0.1c-0.7,0.3-1.3,0.4-1.5-0.5h1.6c-0.2-0.9-0.4-0.8-0.8-1.4
			c-2.3,0.2-1.4,0.6-1.2,1.4c-0.7-0.1-0.7-0.1-0.8-0.8c-2,0.2-1.9,0.6-2.8,1.2v-1h-0.8c-1.1,0.1-0.4,0.4-1.6,0.2
			c-0.5-0.1-1-0.3-1.3-0.3c-0.7,0-0.2,0.1-1,0.3v-0.3c0-0.1,0-0.2-0.1-0.3c-0.8,0-0.6-0.1-1.2,0.2c0,0,0,0,0,0.1
			c-0.1-0.2-0.1,0.2,0,0c0,0,0.1,0.1,0.1,0.2c0.1,0.1,0.1,0.1,0.1,0.1c0,0,0,0,0,0.1c-0.6-0.1-1.2-0.1-1.8,0l-2.5,0.7
			c-0.3,0.1-1.2,0.6-1.2,0.9h0.2c1.4,0.1,2.8-0.1,4.2-0.4c-0.2,0.5-0.2,0.1,0,0.6c-0.9-0.1-1.9,0-2.8,0.2c-0.9,0.1-1.7,0.1-2.6,0
			l0.5-0.5l0.1-0.1l-3.4-0.1c-0.2,0-0.7,0.1-1,0.1c-0.8,0-1.8-0.1-2.6,0l-11.9,0.3c0.9-0.8,4.8-0.4,5.9-0.4
			c-0.3-0.3-0.3-0.3-0.6-0.3v-0.2h-0.4c0.2-0.5,0.2,0,0.3-0.4c0-0.1,0-0.2,0.1-0.2c0,0,0-0.1,0.1-0.3l-1.5-0.3
			c-1.6-0.5-3.2,0.3-4.3,0.1c0.5,0.6,0.3,0.2,0.8,0.8c-0.5,0.3-0.2,0.2-1,0.2l0.2,0.4c0.2,0.4,0.1,0,0,0.3c-1.4,0-0.6,0.5-1.6-0.2
			c-0.2,0.3-0.1,0.1-0.1,0.3c-0.1,0.1-0.1,0.1-0.1,0.2v0.1h-0.8v-0.1v-0.5l-1.7-0.1l-0.7,0.1l-0.1,0.4c-0.1,0.1-0.1,0.1-0.1,0.1
			c0,0-0.1,0-0.2,0.1c-0.5-0.5-0.1,0-0.4-0.6c-0.9,0.2-0.7,0.4-1.6,0l-0.1-0.1c-0.4-0.1-0.7-0.3-0.9-0.7l-1.1,0.2
			c-0.6,0-0.2,0.3-1.1,0.4c-0.2-0.5-0.1-0.2,0-0.8c-1.1,0-2.2,0.1-3.3,0.5l-0.3-0.3l-0.4,0.2c-0.4,0.1-0.9,0.2-1.3,0.1
			c-0.3,0.8,0.2,0-0.2,0.8c-1.7,0-1.8-0.5-3.2-0.6c-1.4-0.1-1.1,0.2-2.4-0.1c-0.3-0.1-0.2-0.1-0.6-0.1C95,97.9,95.9,98,95,98
			c-1.1-0.2-2.3-0.2-3.4,0c-0.5,0.2-1.1,0.2-1.6,0.2c0.3,1,0.6,0.5,0.6,2c-0.5-0.1-1.1-0.2-1.6-0.2v-0.5c0.5,0,0.9,0.1,1.4,0.2
			l-0.6-0.8c-0.7,0.1-1,0.4-1.6,0.4c-1.8,0,0.1-0.3-1.4-0.4c-1,0-1.9,0.7-3,0.2l-0.2-0.2l-0.4-0.4h0.6c0.4-0.1,0.2-0.1,0.4-0.2
			c-1.4-0.3-2.8-0.5-4.2-0.6c0.3,0.3,0.5,0.3,0.6,0.8c-2,1-1.4,0.3-2.7,0.5c-0.9,0.1-0.3,0.3-0.7,0.1l-0.4-0.2H76
			c0.2,0.5,0.2,0.1,0,0.6c-0.7,0-1.3,0-2-0.2c0.6-0.7-0.1-0.1,1.3-0.5l0.3-0.1c0.2,0,0-0.1,0.5-0.1c-1-1.5,0-0.9-1-1
			c0.1,0.6,0.2,0.3,0,0.8c-0.8,0-0.5-0.1-0.9,0.2c0-0.1,0-0.1-0.1-0.3c0,0,0,0,0,0c0.3,0.5,0-0.1,0-0.1c0,0,0,0,0,0
			c0,0-0.1-0.1-0.1-0.2c-0.5-0.9-1.1-0.1-2.1,0l-0.8-0.2c-0.9,0-0.8-0.2-1,0.6c-0.4-0.1-0.3,0-0.6-0.2c-0.2-0.2-0.4-0.3-0.6-0.4
			c-0.7,0.5-0.2,0.2-0.6,1c-0.7-0.5-0.2-0.3-1.2-0.4H67l-0.7-0.1H66c-0.3-0.2-0.2-0.2-0.3-0.5c-3.6,0.1-1.8,2-3.8,1.6v-0.4
			c0.5-0.1,0.6-0.1,0.7-0.2h0c0,0,0.1,0,0-0.1c0.1-0.1,0.1-0.2,0.2-0.3c-0.3-0.3-0.3-0.5-0.9-0.4c-0.5,0.1-0.2,0-0.6,0.4
			c-0.4,0.4-0.9,0.8-1.4,1c0.3-1,0.3-0.2,0.6-1.2c-0.6,0.2-0.2,0.1-0.5,0.2h-0.3c0,0-0.1,0-0.1,0c0,0,0,0,0,0c0,0,0,0-0.1,0
			l-4.1-0.3c-1,0.2-1.4-0.3-1.7,0.8c-0.1,0-0.3,0-0.5-0.1l-0.1-0.1l-0.1-0.1c0.2-0.1,0.4-0.2,0.6-0.4c-0.6-0.1-1.3-0.2-2-0.1h-0.1
			l-0.8,0.3c-0.2-0.4-0.2-0.2-0.2-0.8l-1.4,0.4c0,0-1.5-1.2-3-0.4c-0.5,0.3-0.4,0.4-0.5,0.6c-0.1,0.2,0.1,0.2-0.2,0.4
			c-0.3,0.2-0.3,0.1-0.7,0.1c0.4-0.6,0.7-0.9-0.4-1v0.4c-0.4,0.1-0.8,0.2-1.2,0.2c0.1,0.3,0.2,0.7,0.2,1c-1.9,0-0.2,0.5-1.9,0.1
			c-0.7-0.2-1.4-0.4-2.1-0.5c0.3-0.7,0.4-0.3,0.6-1c-2.3-0.6-1.8-0.5-1.8-1.2c-1,0-2,0.3-2.8,0.8c-1.2,1.1-0.5,0.4-2.6,0.4l-0.2,0.8
			c-0.5-0.4-0.2-0.4-0.4-0.8h-1c-0.8-0.2-1-0.3-1.1-0.3c0.3-0.1-0.1-0.1,0,0c-0.1,0-0.4,0.1-0.9,0.1c-0.3,1.1,0,0.7-0.6,1.2
			c-1-0.1-0.4,0.2-1.1-0.4c-0.3-0.1-0.4-0.4-0.9-0.3c-0.5,0.1-0.5,0.2-0.9,0.5v-0.5c-0.6,0.1-1.3,0.1-1.9,0.1
			c-1.5-0.1-3,0.2-4.3,0.9l-0.7,0.6l-0.7,0.5c-0.1,0.1-1,0.3-1,0.3l-2.5-0.4h-0.1c-1.9-0.5-1.4-0.4-1.3-1.8L12,98.7
			c0.1,0.9,0.4,0.3,0.2,0.8c-1.4-0.4,0.2-0.5-1.2-0.6v-0.5c0.8,0,1,0,1.2-0.6c-1.1,0.5-2.8-0.8-4,0.1l-0.6,0.7l-0.2,0.1
			c-0.4,0.5-0.2,0.4-0.7,0.5c-0.5-0.5-0.2,0-0.4-0.6c-1.4-0.7-1.7-0.1-2-1.2C3.6,97.5,2.8,97.4,2.1,97.2z"/>
		<path class="st0" d="M-1.1,101.5c0.1,0.1,0.4,0.2,0.4,0.2s0.1,0,0.1,0.1c0,0.1,0.1,0.1,0.1,0.1C-1.5,101.8-0.9,102.1-1.1,101.5z"
			/>
	</g>
	<g>
	</g>
</g>
</svg>
