<?xml version="1.0" encoding="UTF-8"?>
<!DOCTYPE svg PUBLIC "-//W3C//DTD SVG 1.1//EN" "http://www.w3.org/Graphics/SVG/1.1/DTD/svg11.dtd">
<!-- Creator: CorelDRAW 2019 (64-Bit) -->
<svg xmlns="http://www.w3.org/2000/svg" xml:space="preserve" width="88.0694mm" height="42.2324mm" version="1.1" style="shape-rendering:geometricPrecision; text-rendering:geometricPrecision; image-rendering:optimizeQuality; fill-rule:evenodd; clip-rule:evenodd"
viewBox="0 0 6326.54 3033.8"
 xmlns:xlink="http://www.w3.org/1999/xlink">
 <defs>
  <style type="text/css">
   <![CDATA[
    .fil0 {fill:#ffffff}
   ]]>
  </style>
 </defs>
 <g id="Layer_x0020_1">
  <metadata id="CorelCorpID_0Corel-Layer"/>
  <g id="_2239019896576">
   <path class="fil0" d="M2943.32 2829.61c-37.91,-112.39 -4.97,-188.48 45.49,-278.26 10.71,-19.05 42.23,-58.4 46.26,-68.92 2.31,15.93 -32.93,313.97 -91.75,347.18zm62.03 -866.15c93.95,-55.2 71.79,10.3 70.09,47.48 -3.71,81.44 3.19,75.94 -23.45,123.67l-112.52 214.25c-38.71,69.16 -50.02,36.59 -61.03,-39.14 -7.12,-48.96 -4.14,-92.13 4.03,-135.45 14.65,-77.65 52.33,-169.35 122.89,-210.81zm-231.3 417.11c16.21,31.26 10.79,33.83 37.78,43.82 120.66,44.64 114.47,25.19 150.42,-39.42 9.25,-16.62 22.38,-34.09 30.21,-51.08l72.77 -159.07c4.61,57.45 -8.98,151.42 -14.37,210.97 -4.41,48.75 -19.28,49.33 -47.76,82.25 -57.92,66.97 -120.49,157.2 -128.78,255.21 -3.37,39.86 6.56,85.1 22.62,123.72 19.6,47.16 44.19,32.98 93.06,30.37 57.85,-3.07 57.41,-26.38 72.9,-63.46 96.74,-231.71 97.1,-447.19 113.85,-483.48 24.83,-53.81 133.26,-77.38 132.51,-143.19 -54.99,21.9 -86.81,63.99 -126.1,93.68l32.07 -271.63c4.29,-44.71 19.35,-111.5 -19.39,-131.13 -17.04,-8.63 -101.25,-44.91 -113.39,-32.81l-1.13 78.62c-19.41,-7.37 -37.19,-27.69 -72.27,-47.4 -63.7,-35.79 -177.25,95.39 -207.99,136.09 -86.89,115.09 -71.83,238.73 -27,367.93z"/>
   <path class="fil0" d="M2366.56 2982.73c-21.8,-75.76 -16.21,-138.18 5.29,-197.13 19.12,-52.45 47.38,-80.03 63.56,-114.25 7.31,-15.49 10.78,-20.91 23.9,-32.72 -0.83,50.39 -18.38,135.31 -28.22,185.71 -9.91,50.71 -23.2,140.83 -64.53,158.4zm233.21 -485.81c0.14,-26.36 50.17,-59.32 72.76,-77.75 59.28,-48.35 64.29,-40.61 60.63,-77.06 -55.98,19.75 -85.73,63.13 -124.72,92.82 -2.97,-96.29 58.33,-304.59 33.27,-392.67 -21.28,-7.26 -41.13,-18.86 -64.96,-27.14 -22.26,-7.74 -45.11,-16.57 -69.47,-21.07 0.68,51.62 -4.63,108.49 -6.82,160.91 -2.97,70.76 1.69,92.83 -28.05,143.98 -24.76,42.58 -41.95,82.15 -68.06,125.53 -9.02,14.98 -61.63,103.63 -74.24,114.96 10.63,-92.15 25.76,-188.4 36.56,-283.16 3.78,-33.14 21.63,-121.22 -5.62,-144.67 -15.11,-13 -103.87,-43.15 -127.82,-44.25 11.69,48.88 -30.22,446.37 -15.27,498.62 32.77,16.51 62.5,36.35 100.28,45.95 40.19,-30.34 100.27,-144.76 128.83,-190.19 14.35,-22.82 23.83,-46.05 42.45,-64.59 2.21,65.64 -10.01,123.69 -15.52,185.39 -3.84,43.06 -17.97,46 -40.85,72.47 -92.22,106.63 -183.83,243.05 -94.61,416.58 24.41,4.25 90.79,2.81 119.02,-7.99 28.67,-31.62 79.54,-192.42 95.56,-252.27 8.94,-33.43 43.26,-269.51 46.65,-274.4z"/>
   <path class="fil0" d="M3921.06 2119.69c-55.92,-92.96 -21.47,-277.62 52.89,-372.66 26.18,-33.44 64.07,-56.41 116,-62.52 31.28,127.4 -7,273.41 -79.81,362.7 -15.28,18.73 -56.51,76.63 -89.08,72.48zm61.31 -718.65c32.56,82.35 87.22,151.13 96.33,250.08 -39.5,-25.78 -52.38,-59.17 -109.54,-30.26 -150.16,75.95 -242.58,244.41 -192.82,427.39 16.99,62.47 21.08,94.26 71.28,112.11 40.18,14.27 76.84,33.9 115.93,-2.82 180.88,-169.93 183.07,-333.55 113.11,-613.64 -15.87,-63.46 -1.92,-73.63 35.07,-110.99 100.89,-101.87 208.03,-102.04 225.8,-144.25 6.7,-15.9 38.31,-101.16 34.57,-108.24 -107.52,-17.22 -340.48,157.28 -389.73,220.61z"/>
   <path class="fil0" d="M4533.09 1456.5c-16.25,13.13 -5.2,0.49 -11.04,16.33l-5.22 107.03c-1.58,38.32 -1.6,88.14 -8.29,121.9l-131.5 63.85c0.05,-37.33 19.99,-143.18 11.46,-171.99 -9.07,-30.65 -120.89,-62.54 -139.72,-61.99 7.11,24.14 -13.96,382.63 -18.73,455.25 -2.4,36.62 8.95,41.13 34.7,53.38 16.99,8.08 44.46,18.05 65.63,24.07 12.53,-35.04 26.1,-152.72 31.95,-198.31 7.1,-55.25 2.92,-46.22 51.68,-80.05 27.56,-19.12 62.04,-39.79 93.66,-54.92l-8.02 217.23c67.99,29.73 85.45,61.2 116.79,32.97 23.94,-21.54 67.17,-79.86 80.61,-105.06 17.68,-33.08 38.68,-62.86 27.66,-78.9 -16.04,4.86 -63.46,93.15 -110.81,121.86 0.82,-98.44 61.68,-318.35 40.29,-407.94 -34.04,-28.48 -103.15,-37.94 -121.09,-54.7z"/>
   <path class="fil0" d="M3660.41 1801.94c8.44,144.43 -1.37,246.1 -88.88,353.65 -78.74,96.78 -96.27,105.99 -112.07,-4.99 -9.42,-66.25 0.45,-137.75 22.23,-197.94 34.86,-96.34 82.34,-156.09 187.9,-166.79 9.12,-5.93 -1.33,13.21 4.04,-7.69l-69.21 -52.87c-68.51,-48.93 -183.15,78.74 -213.79,124.37 -70.13,104.44 -89.42,196.92 -33.24,367.06 16.03,48.53 27.64,48.46 65.78,60.54 26.14,8.28 60.42,24.65 86.09,7.67 40.24,-26.64 92.37,-95.8 113.52,-127.28 47.91,-71.28 86.59,-228.81 53.19,-357.51l-15.57 1.78z"/>
   <path class="fil0" d="M5107.45 1453.57l-9.54 -36.67c-34.39,11.39 2.81,15.88 -9.81,131.27 -8.02,73.22 -43.83,165.8 -89.95,222.72 -79.26,97.8 -98.38,112.04 -114.61,-1.87 -9.63,-67.67 1.37,-141.75 23.59,-201.73 22.02,-59.48 76.56,-171.72 193.45,-159.86 -14.39,-21.25 -53.18,-51.33 -75.36,-65.69l-29.85 -16.47c-98.84,53.86 -168.91,92.22 -221.37,215.39 -52.08,122.32 -9.73,313.21 35.67,340.98 14.37,8.79 56.24,20.12 72.66,24.58 41,11.14 44.7,4.35 73.12,-22.79 132.57,-126.62 162.54,-226.99 152.01,-429.87z"/>
   <path class="fil0" d="M5258.93 1621.93c21.95,14.04 46.85,33.93 77.43,37.33l53.35 -379.98c0.74,-72.12 19.14,-158.33 24.03,-234.24 4.52,-70.41 20.09,-79.94 -136.45,-125.04 -4.48,10.8 -20.83,619.3 -18.36,701.94z"/>
   <path class="fil0" d="M5331.42 1798.08c7.97,-22.13 16.67,-47.77 10.67,-76.56 -16.59,-11.02 -62.4,-35.06 -86.45,-37.6l-6.39 26.06c-1.06,9.22 -1.27,18.3 -1.9,26.23 -1.56,19.47 -3.65,31.27 -0.04,51.33 21.78,9.95 58.75,13.04 84.1,10.55z"/>
  </g>
  <g id="_2239019887200">
   <path class="fil0" d="M4236.13 1049.51c-50.77,-82.91 -30.66,-234.43 -5.17,-307.92 35.31,-101.77 90.57,-176.78 202.59,-183.88 2.55,21.56 -1.44,130.76 -5.78,152.35 -3.21,16.03 -19.5,45.39 -26.08,60.51 -9.79,22.53 -20.98,35.24 -31.27,57.27 -23.26,49.95 -92.5,188.89 -134.3,221.66zm348.63 -399.88c3.75,-33.3 19.94,-129.9 -3.49,-156.5 -9.01,-10.22 -111.42,-45.9 -133.96,-51.05l-7.49 25.31c-0.32,2.57 -0.66,19.05 -0.78,22.56 -0.53,17.89 -1.58,33.58 -1.65,51.42 -45.16,-21.1 -108.64,-155.89 -285.14,56.14 -60.23,72.35 -114.04,173.75 -92.62,310.68 8.99,57.5 26.67,159.08 79.11,179.5 72.64,28.27 116.32,42.2 144.5,-8.02 78.82,-140.35 81.4,-168.32 141.26,-283.16l-7.05 192.99c27.48,16.42 79.69,47.53 116.28,49.98 55.58,-45.88 135.58,-161.77 140.25,-218.01 -45.77,28.87 -66.25,97.34 -127.44,135.48l38.22 -307.33z"/>
   <path class="fil0" d="M1002.7 1478.88c1.57,32.99 -1.06,115.81 -6.17,148.69 -4.66,29.98 -169.55,361.76 -196.15,333.43 -64.21,-68.34 -25.19,-492.33 202.32,-482.12zm112.13 396.59c4.47,-104.94 74.8,-425.51 31.69,-464.14 -14.16,-12.69 -111.45,-45.15 -137.99,-49.48 0.59,28.67 3.86,75.35 -9.1,100.17 -35.9,-35.06 -81.89,-86.5 -148.3,-52.06 -52.64,27.3 -96.96,69.01 -128.78,105.86 -107.01,123.91 -122.98,255.89 -65.67,421.6 19.83,57.38 32.27,74.51 131.83,94.22 35.96,7.13 48.91,-12.16 64.34,-33.78 57.09,-79.94 121.47,-254.55 139.79,-282.74l-8.4 185.7c31.26,28.07 69.67,48.19 113.48,59.49 55.34,-36.03 158.97,-203.39 139.46,-213.96 -11.19,-4.18 -77.76,104.72 -122.36,129.11z"/>
   <path class="fil0" d="M2956.1 1373.18c67.66,34.35 94.59,68.09 155.74,35.06 90.13,-48.71 174.12,-154.76 172.41,-260.13 -1.19,-73.46 -46.64,-132.38 -86.19,-157.19 15.79,-18.93 59.24,-49.98 81.76,-72.26 22.46,-22.23 51.01,-61.48 63.33,-81.55l-18.15 429.04c23.6,20.32 40.11,29.48 65.09,42.08 34.29,17.28 44.34,24.27 73.31,-4.43 34.21,-33.9 84.81,-93.32 81.38,-144.75 -37.18,21.85 -49.49,57.15 -91.19,83.9 2.72,-91.32 68.02,-384.39 39.34,-456.32 -42.1,-19.1 -87.28,-34.96 -137.76,-49.82 -17.37,18.72 -39.27,93.18 -79.71,144.49 -26.02,33.01 -59.24,59.17 -95.09,84.34 -112.63,79.11 120.35,17.2 51.07,221.25 -18.61,54.83 -66.41,135.76 -151.78,156.05 12.69,-74.32 63.7,-394.07 41.97,-457.63 -21.77,-12.86 -106.78,-44.34 -139.49,-48.83l-26.04 536.69z"/>
   <path class="fil0" d="M5925.73 369.43c-63.88,-199.88 74.46,-296.39 167.2,-291.56 5.34,33.85 1.7,159.69 -19.22,182.46 -23.58,25.67 -113.94,99.31 -147.98,109.1zm-106.89 319.23c115.48,-98.73 189.73,-201.72 261.26,-303.78l-8.28 130.68c10.78,37.82 53.18,48.8 82.28,60.85 39.95,16.54 50.71,-6.63 80.08,-37.58 28.66,-30.23 103.31,-134.82 91,-169.45 -31.8,17.97 -67.07,103.03 -126.19,136.95 5.62,-101.5 70.78,-372.81 44.08,-460.08 -30.26,-12.92 -103.15,-43.84 -143.88,-46.26 -0.14,3.82 -0.15,20.65 -1.01,30.19 -0.73,7.96 -0.82,9.4 -2.25,16.44 -4.73,23.43 0.14,4.3 -4.88,15.28 -29.7,-7.6 -89.35,-36.94 -118.11,-28.32 -234.23,85.68 -225.76,370.08 -64.34,384.09 53.11,4.61 102.27,-60.51 137.44,-87.76 -11.16,49.66 -157.39,211.51 -220.36,260.87l9.47 -108.34c-32.22,-12.04 -82.2,-43.12 -125.14,-42.58 -1.65,47.71 6.12,105.56 14.04,159.68 9.03,61.65 19.46,54.52 65.46,73.69l29.33 15.43z"/>
   <path class="fil0" d="M1295.99 1827.9c28.63,6.04 33.32,18.87 81.84,37.84l28.62 9.73c35.82,-104.86 -17.82,-66.79 80.26,-290.17 23.63,-53.81 98.04,-229.45 125.29,-265.66 2.59,66.59 -25.22,404.05 -15.06,420.43 13.12,21.18 84.05,46.72 112.51,56.71 50.75,-44.19 150.23,-178.85 137.49,-219.82 -34.21,36.09 -70.74,105.33 -122.65,135.12 2.18,-88.37 68.34,-390.18 38.42,-461.77 -40.04,-30.35 -96.31,-28.25 -129.92,-55.36 -29.29,26.06 -82.55,152.05 -99.92,196.34 -13.93,35.52 -26.4,63.41 -40.26,98.74 -13.22,33.69 -26.81,73.03 -42.04,101.94 9.42,-169.42 59.34,-242.96 -31.13,-281.37 -27.18,-11.54 -70.29,-26.43 -98.78,-30.21 -9.07,36.66 -30.66,506.79 -24.66,547.52z"/>
   <path class="fil0" d="M3795.4 1160.11c-28.43,-83.58 -25.64,-335.18 -0.43,-426.14 10.87,-39.18 75.85,-69.63 110.17,-46.51 72.65,48.92 30.3,204.23 12.53,262.52 -18.74,61.47 -70.31,179.4 -122.27,210.13zm41.89 -584.36c9.63,-49.89 83.29,-189.32 124.47,-227.59 9.47,54.39 -90.7,187.27 -124.47,227.59zm-28.78 97.5c3.94,-34.95 10.34,-33.44 36.66,-61.31 47.35,-50.16 205.92,-235.97 172.05,-300.86 -4.22,-8.07 -79.57,-79.52 -123.3,-43.45 -64.83,53.51 -137.57,173.1 -164.84,230.82 -89.56,189.55 -24.58,216.88 -148.08,221.03 19.39,30.98 25.15,42.08 66.79,22.13 3.95,53.27 -72.76,294.84 22.22,443.52 19.96,31.21 111.68,60.3 138.35,39.17 101.95,-80.75 228.57,-398.7 151.14,-530.41 -37.54,-63.85 -82.89,-50.18 -150.99,-20.64z"/>
   <path class="fil0" d="M2326.22 1547.74c-1.08,-40.13 14.79,-112.55 20.83,-156.9 7.18,-52.41 12.74,-99.43 18.49,-152.02 4.4,-40.13 23.66,-125.93 -9.31,-151.8 -11.62,-9.11 -114.56,-43.87 -131.62,-45.72 -2.36,49.54 -5.58,98.08 -7.56,146.7 -1.72,43.23 0.08,30.52 -20.75,63.42l-91 174.09c-10.8,21.63 -18.3,37.24 -29.54,58.56 -10.55,20.01 -20.43,29.95 -31.26,48.19 -6.31,-57.81 49.15,-270.28 27.58,-360.45l-68.39 -28.16c-23.41,-8.22 -51.22,-16.59 -70.57,-23.94 -12.83,28.83 -20.11,284.13 -22.35,338.68 -6.77,163.75 -32.99,194.24 32.29,222.75 24.6,10.74 46.64,21.95 76.1,26.4 -0.51,-58.62 21.87,-63.78 44.06,-108.83l146.27 -296.4c5.65,53.42 -4.69,143.99 -6.84,202.68 -2.51,69.08 -26.16,82.05 109.78,123.21 49,-44.21 143.1,-171.49 139.3,-215.44 -33.19,11.73 -64.62,100.68 -125.5,134.97z"/>
   <path class="fil0" d="M4744.21 377.48c11.41,41.73 -4.99,206.26 -7.56,261.11 -3.15,67.48 -18.34,199.32 -11.23,259.8 30.18,16.88 71.28,45.46 108.89,53.36l9.04 -30.91c3,-11.36 5.47,-18.28 11.03,-28.3l56.56 -95.1c9.04,-19.01 12.26,-32.04 22.76,-50.99 38.22,-68.99 60.74,-138.58 99.88,-201.87l-8.68 283.99 104.8 43.65c55.08,-28.04 144.66,-170.13 143.22,-218.76 -39.52,34.01 -76.54,117.16 -125.6,137.38 5.51,-74.15 67.32,-401.07 41,-451.64 -11.54,-15.53 -116.11,-50.33 -141.03,-55.28 -3.71,48.51 -5.42,97.04 -8.04,145.98 -3.18,59.53 -26.1,72.21 -48.07,117.36 -20.75,42.63 -106.36,208.01 -125.04,226.92 0.46,-75.05 23.51,-177.18 30.51,-258.08 9.56,-110.46 20.01,-98.19 -141.14,-154.96l-11.29 16.35z"/>
   <path class="fil0" d="M162.47 1374.18c33.86,-29.31 90.87,-113.16 146.85,-125.12 42.69,81.97 47.38,202.98 18.32,271.27 -16.34,38.41 -68.7,109.02 -100.12,145.53 -24.15,28.07 -29.27,24.35 -27.05,47.23 20.32,4.73 44.15,-13.17 65.69,-24.92 48.12,-26.25 51.56,-35.67 68.43,-23.45 56.58,68.48 27.96,224.72 0.83,278.28 -32.57,64.28 -104.23,146.65 -213.08,170.45 -26.72,-12.94 -45.96,-22.05 -67.65,-38.83 -19.49,-15.07 -34.27,-31.23 -54.3,-40.2 -8.33,45.56 124.92,147.61 151.76,163.36 19.29,11.31 28.38,18.42 54.51,12.28 176.97,-41.66 363.18,-257.17 275.86,-545.26 -39.28,-9.24 -82.78,-34.42 -120.35,-53.94 3.15,-5.34 1.63,-3.63 9.4,-12.83l7.1 -7.74c7.03,-7.39 12.48,-11.88 18.73,-18.17 13.58,-13.61 22.22,-23.35 33.17,-38.83 73.56,-103.95 73.84,-241.14 9.68,-307.72 -16.74,-17.39 -65.54,-31.07 -93.47,-39.42 -49.01,-14.65 -57.58,-13.45 -96.05,22.48 -33.99,31.72 -110.96,118.3 -88.27,165.55z"/>
   <path class="fil0" d="M2816.92 1084.82c76.76,1.16 93.06,-176.48 91.74,-192.12 -22.46,-7.94 -52.23,-21.01 -82.88,-4.91l4.24 60.67 -77.21 -52.11c-137.13,30.86 -244.31,177.6 -271.19,299.27 -21.67,98.18 10.84,281.4 56.24,310.5 16.37,10.49 106.25,40.41 128.66,28.56 40.49,-21.41 150.21,-178.35 141.77,-215.16 -30.16,11.61 -76.53,119.85 -159.04,154.78 -70.25,-117.45 -28.32,-460 179.12,-490.53 8.59,27.47 -9.96,70.63 -11.44,101.06z"/>
   <path class="fil0" d="M5347.94 741.56c125.12,70.58 146.67,36.15 187.8,-7.54 21.61,-22.99 102.37,-145.01 95.39,-165.33 -13.08,-3.38 0.43,-4.3 -10.44,1.8 -13.66,7.66 -49.96,73.34 -103.62,118.09 -3.61,3.02 -22.58,17.99 -26.11,19.8 -80.23,40.9 -45.49,-234.41 -25.45,-293.71 17.25,-51.04 86.15,-199.55 183.63,-183.59 9.69,10.45 4.07,24.17 -0.55,45.06 -4.53,20.55 -8.15,32.2 -9.16,54.95 46.87,-7.25 45.18,-6.65 68.02,-78.89 9.76,-30.82 28.86,-80.17 20.55,-115.96 -26.44,-13.24 -49.87,-15.61 -80.91,-7.61l8.68 65.41c-65.95,-30.36 -56.22,-83.6 -152.54,-24.88 -49.23,30.01 -87.73,66.71 -119.71,105.2 -134.71,162.17 -92.62,296.53 -35.59,467.2z"/>
   <path class="fil0" d="M4854.54 157.47c-22.33,-15.57 -19.84,-25.04 -39.95,-14.24l0.91 9.85c9.1,21.11 51.22,42.65 59.15,44.35 44.32,5.56 169.17,-84.36 195.31,-115.63 -5.85,-40.44 -36.33,-66.14 -62.07,-75.03 -27.84,40.79 -18.07,34.04 -59.15,80.43 -23.36,26.39 -58.88,52.94 -94.2,70.27z"/>
  </g>
 </g>
</svg>
