<svg version="1.1" id="Слой_1" xmlns="http://www.w3.org/2000/svg" x="0" y="0" viewBox="0 0 206 416.8" xml:space="preserve"><style>.st0{opacity:.5;fill:#131313;enable-background:new}</style><path class="st0" d="M7.8 305.3c-.3.3-.6.6-.8 1 1.6-.3-.6-.1 1.6.4.2 2.4.3-.4-.2 2v1h-.1c-.6.2-.3-.1-.6.4l.8.3c0 .5-.1 1-.2 1.4 0 1.6 1 0 1.4 4-.7 0-.6-.4-1.2 1.8-.4-.1-.2-.1-.5-.3-.7-.4.4 0-.5-.3-.1.7-.3 1.4-.5 2.1-.4 1.7.1 0 .1 1.9.3 0 .7-.1 1-.2 0 .4.1.8.2 1.2l.4.7c-.7.2-.5.2-1-.2 0 1.3.4.6.9 1.1l.2.2.1.1v.1c.1.5.1 1 .1 1.6-.2 1.4-.2-.1-.6 1.2l.4 1.4c-.6 0-.4 0-.8.2.5.7.3.4.3 1.1 0 .6 0 1.1-.1 1.7-.2-.2-.3-.4-.4-.6l-.1.3c-.1.2-.1.4-.1.6.7.2.7.3.8 1l.2 1.2c0 .2-.1 1-.1 1v.1l-.1.4v.1l-.1 2.8c-1-.3-.2-.3-1.2-.6 1 1.8 1.3 1.3 1.4 2 .1.7-.1.6-.4.8-.5-.3-.5-.2-.6-1h-.6c-.1.7-.3.4.1.9.6 1 1.4.5 1.5 3.1-.4.1-.2-.1-.4.2v.6c-.4 1.5-.1 1.3-.6 2 .8.4.5-.1 1 .6-.1.2-.2.4-.4.6-.2.3-.1.2-.2.6.8.2.6.1.6 1h-.4v.4c.1.4.1.2.2.4.1 1 .9 1.7 0 2.1-.9.5.2 0-.2.1-1.1.2.5-.4-.3 0 .3.5.2.2.2 1 .5.2.2.1.8 0-.1.6 0 .2-.1.4-.3.4-.8.6-1.3.6l-.3 1.2c-.2.4-.1-.2 0 .3s0-.3.1.4c.2 1.3-.5.7.5 2.7l.7-.5.1.1c-.1 1.4-.3 2.8-.6 4.2-.1-.2-.1 0-.2-.4v-.6l-.4.4-.2.2c-.5 1.1.2 2 .2 3-.1 1.5-.4-.4-.4 1.3 0 .6.3.9.4 1.6-.5.1-.5.3-.8.6.1-.5.2-.9.2-1.4h-.4c0 .5-.1 1.1-.2 1.6 1.5 0 1-.3 2-.6 0 .9.5 4.3.3 5.5-.4 1.7.4.2 0 1.8-.3 1.3 0 1-.1 2.4s-.6 1.5-.6 3.2c.8.3 0-.2.8.2-.1.4 0 .9.1 1.3.5 1.2.8 2.5.7 3.8-.2-.1-1-.8-.7.5l.5 2c-.2.1-.3.2-.5.3l-.1.1-.1.1-.1.1-.3 1.2c0 .6 0 .2.2.8-.6.2-.1-.1-.6.4.1.4-.1.2.5.4h.1l-.3 4.1s.1.7.1.9c.3.1-.1.2.3 0l.4-.2c0 1-.2.6.4 1 .2-.7.1-.5.6-.8 0 1 .2 1.4.2 2.6v2.8l.8.2c-.2.8 0 1.2-.6 1.6 0-1.7-.4-.9-.4-2.6l-.2 1.7c-.7.4-.5.8 0 2.3.2.7.2.2.3 1.1l-.4 5.3c-.4-.3-.2-.2-.8-.4 0-1.4-.3-1.4.6-1.2v-1.8c-1.1-.4-.1-.7-1-1.4-.1 1.8-.2 3.6-.1 5.4v2.4c.1.9 0 1.8-.1 2.7.6-.3.5 0 1.6 0l.2-4 .4.7c.4.5-.1.1.2.1h.1c.1 1.1.2 2.1.2 3.2H206V-1H10.9c.2.3.2.7 0 1-.3.6-.3.4-.8 0 0 1.1.1 1.4-.8 1.6.8-1.4 0-.6 0-2.4h-.6c-.2 1.6-.8-.6-.8 2 1.3.5.4 1.2 1.4.8-.2.6-.3.5-.3.7 0 .6 0-.3.3.5-.2.7-.3 1.5-.2 2.2-1.1.3-.5.6-1.2 2-.6.2-.1-.1-.6.4.1.5 0 .3.5.7l.1.2.7.6c.9 1.2-.4 2.9.1 4-.6-.2-.6-.4-.6-1.2h-.5c-.1 1.4-.2-.2-.6 1.2.5.2-.1-.1.8-.2l.2 1.2c-1.4-.1-1.3-.6-1.8 1.3v.1l-.4 2.5s.2.9.3 1l.5.7.6.7c.7 1.3 1 2.8.9 4.3 0 .6 0 1.3.1 1.9h-.5c.3.4.4.4.5.9s-.2.6-.3.9c-.6.7-.3.1-.4 1.1.5.6.1.3 1.2.6.2 2.4.3-.5-.2 2v1c-.4.2-.4-.1-.8.4l.8.2c0 2.1-.7 1.4.4 2.6.5.8.8 1.8.8 2.8-.7 0-.6-.5-1.2 1.8-.7-.2-.3-.3-1-.6-.1.7-.3 1.4-.5 2.1-.4 1.7.1 0 .1 1.9.3 0 .7-.1 1-.2 0 .4.1.8.2 1.2h.4c-.1 1.1-.4.8-1 .4 0 .4-.1.4.1.7.2.3.2.1.4.2s.3 0 .6.5c.8 1.5-.4 3-.4 3l.4 2.4c-.6 0-.4 0-.8.2l.3.8v.1c.1.7 0 1.4-.1 2-.2-.2-.3-.4-.4-.6l-.1.1-.1.1c-.1.2-.1.4-.1.5 1.1.3.6.7.8 1.7L8 61.7c-.1.6 0-.6 0 .2v.3c.1.3 0-.1.2.5-1-.3-.2-.3-1.2-.6.2.5.6 1 1 1.4.4.4.3.1.4.6.1.6-.1.6-.4.9-.5-.4-.5-.2-.6-1H7c-.4 2 1.5.2 1.6 3.8-.3.1-.3 0-.5.3v.3l-.1.7v.1c-.1 1 .1.5-.4 1.2.8.4.5-.1 1 .6-.1.2-.2.4-.4.6-.2.3-.1.2-.2.6.8.2.6.1.6 1l-.2.8c.1 1 .9 1.6 0 2.1s.2 0-.2.1c-1.1.3.5-.3-.3 0 .3.5.2.2.2 1 .5.2.2.1.8 0-.1 1 .5 0-1 1 0-.5-.1-.3-.1-.5l-.1-.3c-.4-1.4.2-.7-.5-1.3-.2.7-.2 1.3-.2 2 .5.2.1.2.6 0V78.9l-.2.4c-.2.4 0-.2.1.7.2 1.3-.5.7.5 2.7.5-.1.5-.3.8-.6-.1 1.4-.3 2.8-.6 4.2-.1-.2-.1 0-.2-.4v-.6l-.4.4-.2.2c-.5 1.1.2 2 .2 3-.1 1.5-.4-.4-.4 1.4 0 .6.3.9.4 1.6l-.8.6c.1-.5.2-.9.2-1.4h-.5c0 .5-.1 1.1-.2 1.6 1.5 0 1-.3 2-.6 0 .5 0 1.1.2 1.6.2 1.1.2 2.3 0 3.4 0 .9.1 0 .2.7 0 .4 0 .3-.1.6-.3 1.3 0 1-.1 2.4s-.6 1.5-.6 3.2c.8.4 0-.1.8.2-.1.4 0 .9.1 1.3l.2.4-.3.3c.4 1.1.5 2.2.5 3.3-.6-.1-.3-.2-.8 0 .1.9.4.5.4 1.1l.2 1.1c-.4.2-.6.5-.7.9l-.1.1c-.4.9-.2.7 0 1.6-.6.3-.1-.1-.6.4.2.6-.1 0 .2.3l.4.1.1.7-.1 1.7h-.5-.1v.8h.1c.1 0 .1 0 .2.1.2 0 0-.1.3.1-.7 1-.2.2-.2 1.6.3.1-.1.2.3 0l.4-.2c0 .8-.1.5.2 1 .6-.5.2-.3.8-.8-.2 1.1.6 2.7.1 4.3l-.3 1.5c-.7-.1-.1 0-.5-.1s.2 0-.5-.3c-.1.7 0 .6-.4 1 0-1.1.4-5-.4-5.9l.3 11.9c.1.8 0 1.8 0 2.6 0 .3.1.8.1 1l-.1 3.4-.1-.1-.5-.5c-.1.9-.1 1.7 0 2.6.2.9.3 1.9.2 2.8.5-.2.1-.2.6 0-.3-1.4-.5-2.8-.4-4.2v-.2c.3 0 .8.9.9 1.2l.7 2.5c.1.6.1 1.2 0 1.8.5.1-.3.2.2-.1s-.2-.2.2-.1c.3.6.2.4.2 1.2-.1.1-.2.1-.3.1H9.4c.2.8.3.3.3 1 0 .3-.2.8-.3 1.3-.2 1.2.1.5.2 1.6v.8h-1c.6.9 1 .8 1.2 2.8-.7.1-.7.1-.8.8.8-.2 1.2-1.1 1.4 1.2-.6.4-.5.6-1.4.8v-1.6c-.9.2-.8.8-.5 1.5v.1c.1.3.1.6.1.9 1-.5.8-.2 2.2-.2 0 1.3 1.1 2.4.3 3.3l-.7.3c-.1 1.3 0 2.6.2 3.8-.8-.2-.6-.4-1.2-.8-.2.9-.3 1.4 1 1.4.1 1 .2.5.1 1.5-.1.6-.5 1.4-.3 2 .3 1-.1-.4.1.3 0 .1.1.2.2.4.2.5.3 1 .4 1.5 0 0 0-.1.1-.1.3-.1-.1 0 .1-.3s-.1-.2.4-.4c.2.4.4.7.5 1.1.3 1.2-.3 1 .7 1.1l.2 3.6c-.3 1.4-.3.6-.5.7-.5.3-.4 0-1.1.3 1 1.6.3.6.2 2.6s-.2 1.2-.4 1.1l-.1-.1-.7-.3c.1 1.4.1-.2.3.6l-.2.7v.8l.1.2c.1.4.1-.5.2.6l.3-.7.1-.1c.1 1 .2.5.1 1.7-.2 2.1.7 1.4-.1 5-.2.4-.2.9-.2 1.4-.1.9-.2.6-.4 1.4-1.1-.1-1-.6-1.2-1.4-.3-.9-.5-1.9-.4-2.8-.1.2-.1 0-.2.5s0 .1 0 .6c.1 1.5-.1 3 .4 3.8s.1-.2.3.7h.8v-.8c.6.4.1 0 .3.4.5 1.3.3 6.1.3 7.7h.7c0 1.1.2 2.2.4 3.2-1.4-.4 0-.8-1-2.2 0 .5 0 1-.1 1.5s.1.5-.5.7c-.3.5-.5.5-.2 1 .4.1.3 0 .6.2l-.1.9c-.4 1.8.8.8-.4 4.4-.2.7-.1-.1-.3.7l.4.6c-.3.4-.4.3-.4 1 0 .5.1.5.2 1.2.1 1.8 0 1.5-.6 2.4 1-.2.3-.1.6 0l.1 3.7c0 1.4-.4-.3-.2 1.1s1 .2.2 1.9c-.7 1.5.3.4.4 2.2-1.5 0-1.3-1.1-2.6-1.2.1.4 1.8 2.6 2.4 2.8 0 1.6-.2.3.1 1.9.2.9-.2.8-.7 1.5.5.6.9 1.2 1.1 1.9.3 1.4-.5 2 .9 2.1-.4 1-.1-.2-.4.8.9.4.8-.1.8 1.2-.4-.3-1-.8-1.6-.1-.3.3-.3.5-.1.7.4.4-.1.1.3.1l.4-.2c-.2.9-.8 1.1-.9 1.7-.1.8 0 1.7.1 2.5h-.2c-.3 0 .3-.2-.3 0-.2.1-.3 0-.4.7.6.3.7.1 1.3.3.4.1.5.4.9.7-.4.4-.6 1-.6 1.6l-.3-.3-.3-.3c.2 1 0 .6 0 1.8.3 0 .7-.1 1-.2 0 1.5.3 1.1.4 2.2-.8 0-.6.1-1.2-.2 0 1.1-.2 1.7.4 2.2 0-.5-.1-.9-.2-1.4 1.4.4.2 1 .7 2.7.4 1 .4 2.1.1 3.1-1.2.3-.5.1-1.6 0 .1.3.2.6.4.9.3.8.1.7.1.9.1 1.4.3.4 1.1.7-.1 1-.2.3-.8 1.2-.6.9.1.4-1 1 .3-1.2 0-.4-.2-1.6V250.4h-.4c0 1.4-.3 1.3-.4 2.4l-.2 4.2c-.1.8-.5 1.2 0 2.1.1.2 0-.6.2.4v.8c-.1 0-.4-.1-.4-.2-.5-.1 0-.2-.4 0 .3.5.2.2.2 1-.6.5 0 .7.1.9.4.6.3-.1.2.9s-.3 6.1.3 6.5h.2l-.1.1.1.2.1.3c0-2 .4-2.6.4-6.1.7.2 1.2.9 1.2 1.6 0 1.2-.6.2-.2 2.2-1.2 0-.6-.1-.8.4.5.2.5.1 1-.2l.1 3v1.1c0 .1.1 0 0 .5s-.1.3-.1.4c-.2.8 0 .4 0 .9.1.3 0 .6-.2.8-.4.5.1.4-.7-.1 0 1.1.1 1.4-.8 1.6.4-.8.4-.5.2-1.2v-.1l-.1-.5c-.2-.6.1-.4-.4-.6s.2-.2-.2.2c-1 1.1-.8.4-.8 1.8 1.3.4.4 1.2 1.4.8-.2.6-.3.5-.3.8 0 .6 0-.3.3.5-.2.7-.3 1.5-.2 2.2-.8.2-1 .9-1 2h-.1l-.7 2.7 1.3 1.2c.8 1-.1 2.8-.1 3.8-.6-.4-.4 0-.4-1h-.3c-.1 1.4-.2-.2-.6 1.2.5.2-.1-.1.8-.2l.2 1.2c-.8 0-1.6-.9-1.9 2-.5 4.3.5 2.3 1.3 4.6l.1.5c1.1 3.5.4 1.5.7 5.4h-.6c.3.4.4.4.5.9v.4c0 .1-.1.2-.1.3l-.3.3z"/><path class="st0" d="M10.1 205.6c0-.8.1-.9.2-1.8.1-2.3.3.4.4-1.4h-.4c-.1-3 .5.1-.2-3.4-.1-.6-.3-1.2-.3-1.8 0-.8.6-1-.3-1.6-.1.9-.3.7-.1 1.8 0 .6 0 1.1.1 1.6h.4c-.2.7-.2.3-.4.9v1.1c-.3.2-.3 0-.4.5v1.1c.1 0 .1-.1.8 0l.2 3zM3.6 391.7c.5-1.1.4-2.4-.3-3.4l-.4-.6c-.2.8-.3 1.6-.4 2.4-.1 1 .4 1.3 1.1 1.6zM3.6 115.1c.6-1.3.4-1.3-.1-2.8l-.7-1.3c-.2.8-.3 1.6-.4 2.4 0 1.1.5 1.4 1.2 1.7zM3.2 375.7c1.5-.4-.3-1 1.2-1.4v-.8l-.8.1c-1.1.3-.2 1.2-.4 2.1zM3.2 99.2c1.5-.4-.3-1 1.2-1.4V97c-.3 0-1.4-.1-1.4.8s.4.2.2 1.4zM9.4 250.6c0-.9.2-.7.2-1.4-.1-.5-.1-1.1-.2-1.6H9c-.2 2.4-.5 2.4.4 3zM7.2 354c.4-1.3 0 .7.4-.6-.5-.2-.3.1-.4-.4v-1h-.4c-.2.7-.2 1.3-.2 2 .5.2.1.2.6 0zM5.4 401.6c.3-.5.2-.7.2-1.6 0-.6-.1-.4-.4-.6-.2.5-.5 2.2.2 2.2zM5.4 125.1c.3-.5.2-.7.2-1.6 0-.6-.1-.4-.4-.6-.2.4-.5 2 .2 2.2zM2.4 108.3h.2l.2-1.6c-.8-.3-.3.1-.2-1.2h-.4c0 1.2.2 1.6.2 2.8zM2.4 384.8h.2l.2-1.6c-.8-.3-.3.1-.2-1.2h-.4c0 1.3.2 1.7.2 2.8zM2.6 105.2v-2.4c-.6.4-.4 0-.4 1v1.4h.4zM2.6 381.8v-2.4c-.6.4-.4 0-.4 1v1.4h.4zM3 279.2c-1 .7-1 1.1-1.6 2.2.7-.2.6-.2.9-.9.3-.4.5-.9.7-1.3zM3 2.7c-1 .7-1 1.1-1.6 2.2.7-.2.6-.2.9-.9.3-.4.5-.9.7-1.3zM11.1 189.2h-.4l-.4-.2c-.3 1.1-.6.9.4 1.4.2-.7.3-.6.4-1.2zM6.6 105.4c.2-.9.5-1.1-.4-1.4-.1.4-.6 1.4.4 1.4zM6.6 382c.2-.9.5-1.2-.4-1.4-.1.4-.6 1.4.4 1.4zM5.4 86.7l.2-2h-.4c0 1.1-.2 1.1-.2 2h.4zM4.2 90.4l-.6.7c-.3.5-.2 1.1.1 1.5.3-.7.5-1.4.5-2.2zM4.2 366l-.2.1-.4.8c-.2 1 .2 1.1.2 1.2.2-.6.4-1.4.4-2.1zM2.6 101.2c0-2.8.4-2.9-.4-3.8l.4 3.8zM2.6 377.7c0-1.5.2-2.9-.1-3.5-.4-.6-.1-.1-.3-.3l.4 3.8zM8.6 163.6c0-1.2-.2-1.5-.2-2.6h-.2c0 1-.2 2.1.4 2.6zM7.8 162.2c0-.9-.2-1.1-.2-2.2h-.2v2.2h.4zM12.1 175.6c0-.8.1-.8-.2-1.4-.3.2-.4 0-.4.6s.3.7.6.8zM8.8 179c0-.8.2-.5.2-1.4 0-.6-.1-.4-.4-.6v2h.2zM3.8 372.7c.1-.4.2-.8.2-1.2-.6.4-.6.3-.6 1.2h.4zM3.8 96.1c.1-.4.2-.8.2-1.2-.6.4-.6.3-.6 1.2h.4zM4.6 100.8c.1-.4-.1-.9-.4-1.2-.3.2-.2.1-.6.2l1 1zM4.6 377.3c.1-.4-.1-.9-.4-1.2-.2.1-.4.2-.6.2l1 1zM6.2 365.2v-1.6c-.1.2-.1.1-.3.3-.2.2-.2 1.2.3 1.3zM6.2 89.6V88c-.1.1-.1 0-.3.3s-.2 1.3.3 1.3zM9.6 210.4c0-1.3.4-1.4-.2-1.8v1.8h.2zM4.2 90.4l.4.3v-1.3h-.4zM4.2 366l.4.2V365h-.4zM9.4 274.7c0-1 .2-.8-.4-1.2v1.2h.4zM7.4 12c-.1-.7-.1-.7-.8-.8.2.7.1.6.8.8zM7.4 288.5c-.1-.7-.1-.7-.8-.8.2.7.1.6.8.8zM3.8 102.8c-.1-.8.1-.6-.6-.8v.8h.6zM3.8 379.4c-.1-.8.1-.6-.6-.8v.8h.6zM6.2 356.8c0-.6-.1-.4-.4-.6v1.5c.4-.6.4-.4.4-.9zM6.2 81.3c0-.6-.1-.4-.4-.6v1.4c.1-.2.1-.1.3-.3s.1.3.1-.5zM7.4 69.4l-.2-1h-.8l1 1zM7.4 344.9l-.2-1h-.8l1 1zM8 4.7c.6-.5.6-.5.4-1.2l-.3.4L8 4c0 .1-.2.5 0 .7zM4.8 59.1v-.8h-.4l-.2.8zM4 345.1l.2-.4c0-.6-.1-.4-.4-.6-.1.4-.4.9.2 1zM4 69.6l.2-.4c0-.6-.1-.4-.4-.6-.1.3-.4.9.2 1zM4 381h.4v1H4zM4 104.4h.4v1H4z"/><path class="st0" d="M10.7 187.2h.2v2h-.2zM5.2 360.3h.4v1h-.4zM8 281.3c.6-.4.6-.5.4-1.2l-.1.1-.4.7c0 .1 0 .3.1.4zM7.4 154.9l.2-1.2h-.4v1.2zM7.4 333.7c-.1-.8.1-.6-.6-.8v.8c.4-.1.2-.2.6 0zM3.2 96.7c-.6-.8-.6.1-.6-1h-.2v1h.8zM3.2 373.3c-.6-.8-.6.1-.6-1h-.2v1h.8zM9.2 200.5l-.1-1.1c-.1-.3-.1-.2-.3-.3 0 .6-.1 1.3.4 1.4zM7 126.2h.2v1.8H7zM9.2 315.5v-1.2c-.1.1-.9 1.1 0 1.2zM5.6 95.4v-1h-.4c0 .6-.1 1 .4 1zM5.6 372.1v-1h-.4c0 .5-.1.9.4 1zM4.2 182v-1c-.6.4-.4 0-.4 1h.4zM10.7 301.1c0-.4.1-.3-.4-.8v1.2c.2-.1.4-.1.4-.4zM10.7 24.5c0-.5.1-.3-.4-.8v1.2c.2-.1.4-.1.4-.4zM7.4 58.1c-.1-.9.2-.4-.4-.8-.1.2-.2.5-.2.8.4-.1.2-.2.6 0zM2.4 370.1h.2v1.6h-.2zM2.4 93.5h.2v1.6h-.2zM4.4 350.8h.4v.8h-.4zM4.4 75.2h.4v.8h-.4zM5 361.5h.4v.8H5zM10.9 176.2h.4v.8h-.4zM4.4 85.1v-1c-.2.1-.4.1-.4.4s.1.6.4.6zM9.2 38.9v-1c-.2.1-.4.1-.4.4s.1.5.4.6zM4.4 360.7v-1c-.2.1-.4.2-.4.4s.1.6.4.6zM3.2 78.4v-1c-.1.1-.1 0-.3.3-.2.5-.1.1-.1.7h.4zM3.2 354v-1c-.1.2-.1 0-.3.3-.2.5-.1.1-.1.7h.4zM8.4 388.7v-1c-.1.2-.1 0-.3.3-.1.5 0 .2-.1.7h.4zM10.7 180.2h-.4v1c.1-.1.1 0 .3-.3.2-.5.1-.1.1-.7zM4.8 333.9c-.5.2-.4 0-.6.8.9-.4.5.2.6-.8zM9.4 271.6h.2v1.4h-.2zM8.8 197.3H9v1.4h-.2zM8.4 112.1v-1h-.2c0 .3-.1.7-.2 1h.4zM7.4 316.9v-.8H7c.1.5 0 .7.4.8zM.4 121.3c-.1-.9.2-.4-.4-.8v.8h.4zM.4 397.9c-.1-.9.2-.3-.4-.8v.8h.4zM4.8 59.6h-.4v.8c.6-.4.3.2.4-.8zM4.8 335.2h-.4v.8c.6-.5.3.1.4-.8zM4.6 148.8v-.6c-.6.2-.1-.3-.6.6h.6zM7 39.6c.1.9-.2.4.4.8 0-1.2.1-.6-.4-.8zM5.6 358.1H6v.6h-.4zM3.8 43h.4v.6h-.4zM5.6 82.5H6v.6h-.4zM10.5 178.2h.2v1.2h-.2zM7.2 336.8c.1-.7.4-.6-.4-.8l.2.4c.2.4 0 .1.2.4zM7.2 61.3c.1-.7.4-.6-.4-.8 0 .1.1.4.2.4.2.4 0 .1.2.4zM5 346.9c-.6.4-.3-.1-.4.8.6-.5.3.1.4-.8zM6.2 173.3c-.6.5-.3-.1-.4.8.6-.4.3.1.4-.8zM5 71.4c-.6.5-.3-.1-.4.8.6-.5.3.1.4-.8zM6.4 382.4v.8c.6-.4.6-.4 0-.8zM6.4 105.8v.8c.6-.4.6-.4 0-.8zM7.6 60c0-.3.1-.2-.1-.5-.3-.7-.1-.3-.3-.5.1.6.1.8.4 1zM10.1 195.5h.2v1h-.2zM8.6 316.5v-.6h-.4c.1.3.1.5.4.6zM8.6 40v-.6h-.4c.1.3.1.5.4.6zM4.2 320.2v-.6h-.4c.1.4 0 .5.4.6zM8.8 184.7c-.6.2-.4 0-.6.6.8-.4.4.1.6-.6zM9.9 206.6h-.5v.8c.1-.2 0 .1.2-.4l.3-.4zM5.2 363.3c-.1-.6 0-.3-.4-.6v.6h.4zM9.6 205.6c-.1-.6 0-.3-.4-.6v.6h.4zM5.2 87.7c-.1-.6 0-.3-.4-.6v.6h.4zM10.9 294.2v-.6c-.4.3-.3 0-.4.6h.4zM10.9 17.6V17c-.4.3-.3 0-.4.6h.4zM7.6 335.4c-.1-.4.1 0-.1-.5l-.3-.3c.1.4 0 .7.4.8zM8.4 31.5c-.1-.4.1 0-.1-.5-.1-.3-.1-.2-.3-.3.1.4 0 .7.4.8zM8.4 308c-.1-.4.1 0-.1-.5l-.3-.3c.1.4 0 .7.4.8zM.6 412.4h.2v.8H.6zM8.4 125.1h.2v.8h-.2zM.6 135.9h.2v.8H.6zM8.4 401.7h.2v.8h-.2zM8.6 169.1h.2v.8h-.2zM3.2 90.9h.2v.8h-.2zM8 75.2h.2v.8H8zM8 350.8h.2v.8H8zM3.2 366.5h.2v.8h-.2zM9.2 174.4h.2v.8h-.2zM6.6 284.7c-.5-.6.1-.3-.8-.4.1.1 0 .1.3.3.5.2.2 0 .5.1zM6.6 8.1c-.5-.6.1-.3-.8-.4.1.1 0 .1.3.3.5.2.2 0 .5.1zM7 39.6c-.1-.6 0-.3-.4-.6.1 1-.2.3.4.6z"/><path class="st0" d="M9.4 207.4c0 .1-.4-.2-.1.4.3.6-.2 0 .3.2-.1-.5 0-.1-.2-.6zM6.6 315.5v.6c.6-.5.6-.2 0-.6zM7.2 38.7v.6c.6-.5.6-.1 0-.6zM7.2 315.3v.6c.6-.5.6-.2 0-.6zM7.2 86.1l-.4-.4c0 1.1 0 .3.2.6l.2-.2zM7.2 361.7l-.3-.4c0 1.1 0 .3.2.6l.1-.2zM4.2 386.8c-.1-.6 0-.3-.4-.6.1.4 0 .6.4.6zM6.8 76.2c-.1-.6 0-.3-.4-.6.1.4 0 .5.4.6zM6.8 351.8c-.1-.6 0-.3-.4-.6.1.4 0 .5.4.6zM4.2 110.3c-.1-.6 0-.3-.4-.6.1.4 0 .6.4.6zM11.9 176.6h.2v.6h-.2zM2.4 366h.2v.6h-.2zM9 186.8h.2v.6H9zM7.6 333.1h.2v.6h-.2zM5.2 407h.2v.6h-.2zM5.2 130.4h.2v.6h-.2zM2.4 90.5h.2v.6h-.2zM7.6 57.5h.2v.6h-.2zM10.7 295.4h.2v.6h-.2zM3.4 103.8h.2v.6h-.2zM3.4 380.4h.2v.6h-.2zM10.7 18.8h.2v.6h-.2zM.2 5.9h.2v.6H.2zM8 164.4h.2v.6H8zM.2 282.5h.2v.6H.2zM6.8 345.9H7v.6h-.2zM9.2 251h.2v.6h-.2zM6.8 70.4H7v.6h-.2zM9.6 122.5l-.4.6c.6-.2.4.4.4-.6zM5 0c-.6.2-.3-.4-.4.6 0 0 0-.1.1-.1s.1-.1.1-.1.1-.3.2-.4zM4.8 231.5c-.4.3-.3 0-.4.6.5-.3.2 0 .4-.6zM5 276.6c-.6.2-.3-.4-.4.6 0 0 0-.1.1-.1l.3-.5zM4.4 107.7c.2 0 .4-.4 0-.3-.1 0-.5.4 0 .3zM4.4 384.2c.2 0 .4-.4 0-.3-.1.1-.5.4 0 .3zM6.6 78.4c-.5.1-.3-.1-.4.4.5 0 .2.2.4-.4zM6.6 354c-.5.1-.3-.1-.4.4.5-.1.2.1.4-.4zM7.8 328.4c.2-.2-.3-.7-.1-.2 0 0-.2.7.1.2zM9.6 184c.2-.2-.3-.7-.1-.2 0 0-.2.7.1.2zM9.6 204.2c.2-.2-.3-.7-.1-.2 0 0-.2.6.1.2zM7.8 35.7c.2-.2-.3-.7-.1-.2 0-.1-.2.5.1.2zM7.4 303.9c.2-.2-.3-.7-.1-.2 0 0-.2.6.1.2zM8 343.1c.2-.2-.3-.7-.1-.2 0-.1-.2.5.1.2zM6.2 400.5c.2-.2-.3-.7-.1-.2 0-.1-.2.5.1.2zM8.6 189c.2-.2-.3-.7-.1-.2 0-.1-.2.5.1.2zM8 67.5c.2-.2-.3-.7-.1-.2 0-.1-.2.5.1.2zM7.4 27.3c.2-.2-.3-.7-.1-.2 0 0-.2.6.1.2zM6.8 111.5c.2-.2-.3-.7-.1-.2 0 0-.2.6.1.2zM6.8 388.1c.2-.2-.3-.7-.1-.2 0 0-.2.6.1.2zM6.2 73.4c.2-.2-.3-.7-.1-.2 0 0-.2.5.1.2zM8.4 177c.2-.2-.3-.7-.1-.2 0 0-.2.5.1.2zM7.8 340.3c.2-.2-.3-.8-.1-.3 0 0-.2.6.1.3zM7.8 52.9c.2-.2-.3-.7-.1-.2 0 0-.2.6.1.2zM10.9 185.6c.2-.2-.3-.7-.1-.2 0-.1-.2.5.1.2zM7.8 312.3c.2-.2-.3-.7-.1-.2 0-.1-.2.5.1.2zM7.8 64.7c.2-.2-.3-.7-.1-.2 0-.1-.2.5.1.2zM8.4 160.6c.2-.2-.3-.7-.1-.2 0 0-.2.5.1.2zM9.9 211.8c.2-.2-.3-.7-.1-.2 0 0-.3.6.1.2zM6.2 349c.2-.2-.3-.7-.1-.2 0 0-.2.5.1.2zM6.2 123.9c.2-.2-.3-.7-.1-.2 0-.1-.2.5.1.2zM7.4 150.8c.2-.2-.3-.7-.1-.2 0 0-.2.6.1.2zM8.8 175.6c.2-.2-.3-.7-.1-.2 0 0-.2.6.1.2zM8.2 32.1c.2-.2-.3-.7-.1-.2 0-.1-.2.5.1.2zM12.5 177c.2-.2-.3-.7-.1-.2 0 0-.2.5.1.2zM8.2 145.7c.2-.2-.3-.7-.1-.2 0 0-.2.7.1.2zM8.2 308.6c.2-.2-.3-.7-.1-.2 0-.1-.2.5.1.2zM7.8 152.3c.2 0 .5-.4 0-.3s0-.5-.1.1c0 .2-.3.2.1.2zM6.8 33.8c.2 0 .5-.4 0-.3s0-.5-.1.1c0 .3-.3.2.1.2zM6.8 310.5c.2 0 .5-.4 0-.3s0-.5-.1.1c0 .2-.3.2.1.2zM8.6 403.1c.2 0 .5-.4 0-.3s0-.5-.1.1c0 .2-.3.2.1.2zM7.6 93.7c.1 0 0-.2 0-.2s.5-.4 0-.1c0-.1-.4.3 0 .3zM7.4 98.4c.1 0 0-.2 0-.2s.5-.4 0-.1c0 0-.4.3 0 .3zM8.2 45.6l-.4-.2c.1.3-.1.2.1.3s0 0 .3-.1zM8.2 322.2l-.4-.2c.1.3-.1.2.1.3.3 0 0 .1.3-.1zM6.2 230.5c.1 0 0-.2 0-.2s.5-.4-.1-.1c0 .3-.2.3.1.3zM7.8 218.4c.1 0 0-.2 0-.2s.5-.4 0-.1v.1c0 .1-.4.2 0 .2zM7.6 370.3c.1 0 0-.2 0-.2s.5-.3 0-.1v.1c0 .1-.4.2 0 .2zM7.4 374.9c.1 0 0-.2 0-.2s.5-.3 0-.1v.1c0 .1-.4.2 0 .2zM8 347.3v-.2l-.2.2zM8 71.8v-.2l-.2.2zM11.1 189.2h.2l-.1-.3zM2.4 367.3c.1-.3.5.2 0 0 0-.2 0-.2 0 0zM9.2 411.2s-.1-.1 0 0c0-.1 0 0 0 0zM9.6 186.6c0-.1 0 0 0 0zM6.6 143.5zM10.7 181.6s0 .1 0 0zM7.2 125.1c0-.1 0 0 0 0zM6.8 186c0-.1 0 0 0 0zM9.2 162.6c-.1-.1 0 0 0 0zM7.4 151.8c-.1 0 0 .1 0 0zM6.8 151.8c-.1 0 0 .1 0 0zM6.8 365.3s0 .1 0 0zM9.6 181.4s0 .1 0 0zM9.6 189.6l.2-.4-.2.4zM9.6 189.6l-.2.4.2-.4zM7.4 29.6l-.4.2.4-.2z"/></svg>