<?xml version="1.0" encoding="utf-8"?>
<!-- Generator: Adobe Illustrator 21.0.0, SVG Export Plug-In . SVG Version: 6.00 Build 0)  -->
<svg version="1.1" id="Слой_1" xmlns="http://www.w3.org/2000/svg" xmlns:xlink="http://www.w3.org/1999/xlink" x="0px" y="0px"
	 viewBox="0 0 412.5 105" style="enable-background:new 0 0 412.5 105;" xml:space="preserve" preserveAspectRatio="xMidYMax">
<style type="text/css">
	.st0{fill:#131313;enable-background:new    ;}
</style>
<title>Монтажная область 3</title>
<path class="st0" d="M109.4,8.3c-0.3-0.3-0.6-0.6-1-0.8c0.3,1.6,0.1-0.6-0.4,1.6c-2.4,0.2,0.4,0.3-2-0.2c-0.3,0-0.7,0-1,0V8.8
	c-0.2-0.6,0.1-0.3-0.4-0.6L104.3,9c-0.5,0-1-0.1-1.4-0.2c-1.6,0,0,1-4,1.4c0-0.7,0.4-0.6-1.8-1.2c0.1-0.4,0.1-0.2,0.3-0.5
	c0.4-0.7,0,0.4,0.3-0.5c-0.7-0.1-1.4-0.3-2.1-0.5c-1.7-0.4,0,0.1-1.9,0.1c0,0.3,0.1,0.7,0.2,1c-0.4,0-0.8,0.1-1.2,0.2L92,9.2
	c-0.2-0.7-0.2-0.5,0.2-1c-1.3,0-0.6,0.4-1.1,0.9l-0.2,0.2l-0.1,0.1h-0.1c-0.5,0.1-1,0.1-1.6,0.1c-1.4-0.2,0.1-0.2-1.2-0.6l-1.4,0.4
	c0-0.6,0-0.4-0.2-0.8c-0.7,0.5-0.4,0.3-1.1,0.3c-0.6,0-1.1,0-1.7-0.1c0.2-0.2,0.4-0.3,0.6-0.4l-0.3-0.1c-0.2-0.1-0.4-0.1-0.6-0.1
	c-0.2,0.7-0.3,0.7-1,0.8l-1.2,0.2c-0.2,0-1-0.1-1-0.1h-0.1l-0.4-0.1h-0.1l-2.8-0.1c0.3-1,0.3-0.2,0.6-1.2c-1.8,1-1.3,1.3-2,1.4
	c-0.7,0.1-0.6-0.1-0.8-0.4c0.3-0.5,0.2-0.5,1-0.6V7.4c-0.7-0.1-0.4-0.3-0.9,0.1C73.5,8.1,74,8.9,71.4,9c-0.1-0.4,0.1-0.2-0.2-0.4
	h-0.6c-1.5-0.4-1.3-0.1-2-0.6c-0.4,0.8,0.1,0.5-0.6,1c-0.2-0.1-0.4-0.2-0.6-0.4c-0.3-0.2-0.2-0.1-0.6-0.2c-0.2,0.8-0.1,0.6-1,0.6
	V8.6c-0.1,0-0.3,0-0.4,0c-0.4,0.1-0.2,0.1-0.4,0.2c-1,0.1-1.7,0.9-2.1,0c-0.5-0.9,0,0.2-0.1-0.2c-0.2-1.1,0.4,0.5,0-0.3
	c-0.5,0.3-0.2,0.2-1,0.2c-0.2,0.5-0.1,0.2,0,0.8c-0.6-0.1-0.2,0-0.4-0.1c-0.4-0.3-0.6-0.8-0.6-1.3l-1.2-0.3c-0.4-0.2,0.2-0.1-0.3,0
	s0.3,0-0.4,0.1c-1.3,0.2-0.7-0.5-2.7,0.5l0.5,0.7L56.6,9c-1.4-0.1-2.8-0.3-4.2-0.6c0.2-0.1,0-0.1,0.4-0.2c0.2,0,0.4,0,0.6,0L53,7.8
	l-0.2-0.2c-1.1-0.5-2,0.2-3,0.2c-1.5-0.1,0.4-0.4-1.3-0.4c-0.6,0-0.9,0.3-1.6,0.4c-0.1-0.5-0.3-0.5-0.6-0.8c0.5,0.1,0.9,0.2,1.4,0.2
	V6.8c-0.5,0-1.1-0.1-1.6-0.2c0,1.5,0.3,1,0.6,2c-0.9,0-3.3,0.5-4.5,0.3c-1.7-0.4-0.2,0.4-1.8,0c-1.3-0.3-1,0-2.4-0.1
	c-1.4-0.1-1.5-0.6-3.2-0.6c-0.3,0.8,0.2,0-0.2,0.8c-0.4-0.1-0.9,0-1.3,0.1c-1.2,0.5-2.5,0.8-3.8,0.7c0.1-0.2,0.8-1-0.5-0.7L27,9.6
	c-0.1-0.2-0.2-0.3-0.3-0.5L26.6,9l-0.1-0.1l-0.1-0.1l-1.2-0.3c-0.6,0-0.2,0-0.8,0.2c-0.2-0.6,0.1-0.1-0.4-0.6
	c-0.4,0.1-0.2-0.1-0.4,0.5v0.1l-4.1-0.3c0,0-0.7,0.1-0.9,0.1c-0.1,0.3-0.2-0.1,0,0.3c0.2,0.4,0,0,0.2,0.4c-1,0-0.6-0.2-1,0.4
	c0.7,0.2,0.5,0.1,0.8,0.6c-1,0-1.4,0.2-2.6,0.2h-2.8l-0.2,0.8c-0.8-0.2-1.2,0-1.6-0.6c1.7,0,0.9-0.4,2.6-0.4L12.3,10
	c-0.4-0.7-0.8-0.5-2.3,0c-0.7,0.2-0.2,0.2-1.1,0.3L3.6,9.9C3.9,9.5,3.8,9.7,4,9.1c1.4,0,1.4-0.3,1.2,0.6H7c0.4-1.1,0.7-0.1,1.4-1
	C6.6,8.6,4.8,8.5,3,8.6H0.6c-0.9,0.1-1.8,0-2.7-0.1c0.3,0.6,0,0.5,0,1.6l4,0.2l-0.7,0.4c-0.5,0.4-0.1-0.1-0.1,0.2v0.1
	c-1.1,0.1-2.1,0.2-3.2,0.2v95.3h416.8V11.4c-0.3,0.2-0.7,0.2-1,0c-0.6-0.3-0.4-0.3,0-0.8c-1.1,0-1.4,0.1-1.6-0.8
	c1.4,0.8,0.6,0,2.4,0V9.2c-1.6-0.2,0.6-0.8-2-0.8c-0.5,1.3-1.2,0.4-0.8,1.4c-0.6-0.2-0.5-0.3-0.7-0.3c-0.6,0,0.3,0-0.5,0.3
	c-0.7-0.2-1.5-0.3-2.2-0.2c-0.3-1.1-0.6-0.5-2-1.2c-0.2-0.6,0.1-0.1-0.4-0.6c-0.5,0.1-0.3,0-0.7,0.5L405,8.4l-0.6,0.7
	c-1.2,0.9-2.9-0.4-4,0.1c0.2-0.6,0.4-0.6,1.2-0.6V8.1c-1.4-0.1,0.2-0.2-1.2-0.6c-0.2,0.5,0.1-0.1,0.2,0.8l-1.2,0.2
	c0.1-1.4,0.6-1.3-1.3-1.8h-0.1l-2.5-0.4c0,0-0.9,0.2-1,0.3l-0.7,0.5l-0.7,0.6c-1.3,0.7-2.8,1-4.3,0.9c-0.6,0-1.3,0-1.9,0.1V8.2
	c-0.4,0.3-0.4,0.4-0.9,0.5c-0.5,0.1-0.6-0.2-0.9-0.3C384.4,7.8,385,8.1,384,8c-0.6,0.5-0.3,0.1-0.6,1.2c-2.4,0.2,0.5,0.3-2-0.2
	c-0.3,0-0.7,0-1,0c-0.2-0.4,0.1-0.4-0.4-0.8L379.8,9c-2.1,0-1.4-0.7-2.6,0.4c-0.8,0.5-1.8,0.8-2.8,0.8c0-0.7,0.5-0.6-1.8-1.2
	c0.2-0.7,0.3-0.3,0.6-1c-0.7-0.1-1.4-0.3-2.1-0.5c-1.7-0.4,0,0.1-1.9,0.1c0,0.3,0.1,0.7,0.2,1c-0.4,0-0.8,0.1-1.2,0.2v0.4
	c-1.1-0.1-0.8-0.4-0.4-1c-0.4,0-0.4-0.1-0.7,0.1c-0.3,0.2-0.1,0.2-0.2,0.4c-0.1,0.2,0,0.3-0.5,0.6c-1.5,0.8-3-0.4-3-0.4l-1.4,0.4
	c0-0.6,0-0.4-0.2-0.8L361,8.8h-0.1c-0.7,0.1-1.4,0-2-0.1c0.2-0.2,0.4-0.3,0.6-0.4l-0.1-0.1l-0.1-0.1C359.1,8,358.9,8,358.8,8
	c-0.3,1.1-0.7,0.6-1.7,0.8l-4.1-0.3c-0.6-0.1,0.6,0-0.2,0c-0.1,0-0.2,0-0.3,0c-0.3,0.1,0.1,0-0.5,0.2c0.3-1,0.3-0.2,0.6-1.2
	c-0.5,0.2-1,0.6-1.4,1c-0.4,0.4-0.1,0.3-0.6,0.4C350,9,350,8.8,349.7,8.5c0.4-0.5,0.2-0.5,1-0.6V7.5c-2-0.4-0.2,1.5-3.8,1.6
	c-0.1-0.3,0-0.3-0.3-0.5h-0.3l-0.7-0.1h-0.1c-1-0.1-0.5,0.1-1.2-0.4c-0.4,0.8,0.1,0.5-0.6,1c-0.2-0.1-0.4-0.2-0.6-0.4
	c-0.3-0.2-0.2-0.1-0.6-0.2c-0.2,0.8-0.1,0.6-1,0.6l-0.8-0.2c-1,0.1-1.6,0.9-2.1,0c-0.5-0.9,0,0.2-0.1-0.2c-0.3-1.1,0.3,0.5,0-0.3
	c-0.5,0.3-0.2,0.2-1,0.2c-0.2,0.5-0.1,0.2,0,0.8c-1-0.1,0,0.5-1-1c0.5,0,0.3-0.1,0.5-0.1l0.3-0.1c1.4-0.4,0.7,0.2,1.3-0.5
	c-0.7-0.2-1.3-0.2-2-0.2c-0.2,0.5-0.2,0.1,0,0.6h-0.7h-0.1l-0.4-0.2c-0.4-0.2,0.2,0-0.7,0.1c-1.3,0.2-0.7-0.5-2.7,0.5
	c0.1,0.5,0.3,0.5,0.6,0.8c-1.4-0.1-2.8-0.3-4.2-0.6c0.2-0.1,0-0.1,0.4-0.2c0.2,0,0.4,0,0.6,0l-0.4-0.4l-0.2-0.2
	c-1.1-0.5-2,0.2-3,0.2c-1.5-0.1,0.4-0.4-1.4-0.4c-0.6,0-0.9,0.3-1.6,0.4l-0.6-0.8c0.5,0.1,0.9,0.2,1.4,0.2V7c-0.5,0-1.1-0.1-1.6-0.2
	c0,1.5,0.3,1,0.6,2c-0.5,0-1.1,0-1.6,0.2c-1.1,0.2-2.3,0.2-3.4,0c-0.9,0,0,0.1-0.7,0.2c-0.4,0-0.3,0-0.6-0.1c-1.3-0.3-1,0-2.4-0.1
	c-1.4-0.1-1.5-0.6-3.2-0.6c-0.4,0.8,0.1,0-0.2,0.8c-0.4-0.1-0.9,0-1.3,0.1l-0.4,0.2l-0.3-0.3c-1.1,0.4-2.2,0.5-3.3,0.5
	c0.1-0.6,0.2-0.3,0-0.8c-0.9,0.1-0.5,0.4-1.1,0.4l-1.1,0.2c-0.2-0.4-0.5-0.6-0.9-0.7l-0.1-0.1c-0.9-0.4-0.7-0.2-1.6,0
	c-0.3-0.6,0.1-0.1-0.4-0.6c-0.6,0.2,0-0.1-0.3,0.2l-0.1,0.4l-0.7,0.1l-1.7-0.1V8.2c0,0,0,0,0-0.1h-0.8c0,0,0,0,0,0.1
	c0,0.1,0,0.1-0.1,0.2c0,0.2,0.1,0-0.1,0.3c-1-0.7-0.2-0.2-1.6-0.2c-0.1,0.3-0.2-0.1,0,0.3s0,0,0.2,0.4c-0.8,0-0.5-0.1-1,0.2
	c0.5,0.6,0.3,0.2,0.8,0.8c-1.1-0.2-2.7,0.6-4.3,0.1l-1.5-0.3c0.1-0.7,0-0.1,0.1-0.5c0.1-0.4,0,0.2,0.3-0.5c-0.7-0.1-0.6,0-1-0.4
	c1.1,0,5,0.4,5.9-0.4l-11.9,0.3c-0.8,0.1-1.8,0-2.6,0c-0.3,0-0.8,0.1-1,0.1l-3.4-0.1l0.1-0.1l0.5-0.5c-0.9-0.1-1.7-0.1-2.6,0
	c-0.9,0.2-1.9,0.3-2.8,0.2c0.2,0.5,0.2,0.1,0,0.6c1.4-0.3,2.8-0.5,4.2-0.4h0.2l0,0c0,0.3-0.9,0.8-1.2,0.9l-2.5,0.7
	c-0.6,0.1-1.2,0.1-1.8,0c-0.1,0.5-0.2-0.3,0.1,0.2c0.3,0.5,0.2-0.2,0.1,0.2c-0.6,0.3-0.4,0.2-1.2,0.2c-0.1-0.1-0.1-0.2-0.1-0.3v-0.1
	V10V9.9c-0.8,0.2-0.3,0.3-1,0.3c-0.3,0-0.8-0.2-1.3-0.3c-1.2-0.2-0.5,0.1-1.6,0.2c-0.3,0-0.5,0-0.8,0v-1c-0.9,0.6-0.8,1-2.8,1.2
	c-0.1-0.7-0.1-0.7-0.8-0.8c0.2,0.8,1.1,1.2-1.2,1.4c-0.4-0.6-0.6-0.5-0.8-1.4h1.6c-0.2-0.9-0.8-0.8-1.5-0.5h-0.1
	c-0.3,0.1-0.6,0.1-0.9,0.1c0.5,1,0.2,0.8,0.2,2.2c-1.3,0-2.4,1.1-3.3,0.3l-0.3-0.7c-1.3-0.1-2.6,0-3.8,0.2c0.2-0.8,0.4-0.6,0.8-1.2
	c-0.9-0.2-1.4-0.3-1.4,1c-1,0.1-0.5,0.2-1.5,0.1c-0.6-0.1-1.4-0.5-2-0.3c-1,0.3,0.4-0.1-0.3,0.1c-0.1,0-0.2,0.1-0.4,0.2
	c-0.5,0.2-1,0.3-1.5,0.4c0,0,0.1,0,0.1,0.1c0.1,0.3,0-0.1,0.3,0.1c0.3,0.2,0.2-0.1,0.4,0.4c-0.4,0.2-0.7,0.4-1.1,0.5
	c-1.2,0.3-1-0.3-1.1,0.7l-3.6,0.2c-1.4-0.3-0.6-0.3-0.7-0.5c-0.3-0.5,0-0.4-0.3-1.1c-1.6,1-0.6,0.3-2.6,0.2c-2-0.1-1.2-0.2-1.1-0.4
	l0.1-0.1l0.3-0.7c-1.4,0.1,0.2,0.1-0.6,0.3l-0.7-0.2c-0.2,0-0.5,0-0.8,0l-0.2,0.1c-0.4,0.1,0.5,0.1-0.6,0.2l0.7,0.3l0.1,0.1
	c-1,0.1-0.5,0.2-1.7,0.1c-2.1-0.2-1.4,0.7-5-0.1c-0.4-0.2-0.9-0.2-1.4-0.2c-0.9-0.1-0.6-0.2-1.4-0.4c0.1-1.1,0.6-1,1.4-1.2
	c0.9-0.3,1.9-0.5,2.8-0.4c-0.2-0.1,0-0.1-0.5-0.2c-0.5-0.1-0.1,0-0.6,0c-1.5,0.1-3-0.1-3.8,0.4c-0.8,0.5,0.2,0.1-0.7,0.3v0.8h0.8
	c-0.4,0.6,0,0.1-0.4,0.3c-1.3,0.5-6.1,0.3-7.7,0.3V12c-1.1,0-2.2,0.2-3.2,0.4c0.4-1.4,0.8,0,2.2-1c-0.5,0-1,0-1.5-0.1
	c-0.5-0.1-0.5,0.1-0.7-0.5c-0.5-0.3-0.5-0.5-1-0.2c-0.1,0.4,0,0.3-0.2,0.6l-0.9-0.1c-1.8-0.4-0.8,0.8-4.4-0.4
	c-0.7-0.2,0.1-0.1-0.7-0.3l-0.6,0.4c-0.4-0.3-0.3-0.4-1-0.4c-0.5,0-0.5,0.1-1.2,0.2c-1.8,0.1-1.5,0-2.4-0.6c0.2,1,0.1,0.3,0,0.6
	l-3.7,0.1c-1.4,0,0.3-0.4-1.1-0.2s-0.2,1-1.9,0.2c-1.5-0.7-0.4,0.3-2.2,0.4c0-1.5,1.1-1.3,1.2-2.6c-0.4,0.1-2.6,1.8-2.8,2.4
	c-1.6,0-0.3-0.2-1.9,0.1c-0.9,0.2-0.8-0.2-1.5-0.7c-0.6,0.5-1.2,0.9-1.9,1.1c-1.4,0.3-2-0.5-2.1,0.9c-1-0.4,0.2-0.1-0.8-0.4
	c-0.4,0.9,0.1,0.8-1.2,0.8c0.3-0.4,0.8-1,0.1-1.6c-0.3-0.3-0.5-0.3-0.7-0.1c-0.4,0.4-0.1-0.1-0.1,0.3l0.2,0.4
	c-0.9-0.2-1.1-0.8-1.7-0.9c-0.8-0.1-1.7,0-2.5,0.1v-0.1v-0.1c0-0.3,0.2,0.3,0-0.3c-0.1-0.2,0-0.3-0.7-0.4c-0.3,0.6-0.1,0.7-0.3,1.3
	c-0.1,0.4-0.4,0.5-0.7,0.9c-0.4-0.4-1-0.6-1.6-0.6l0.3-0.3c0.3-0.3,0.1-0.1,0.3-0.3c-1,0.2-0.6,0-1.8,0c0,0.3,0.1,0.7,0.2,1
	c-1.5,0-1.1,0.3-2.2,0.4c0-0.8-0.1-0.6,0.2-1.2c-1.1,0-1.7-0.2-2.2,0.4c0.5,0,0.9-0.1,1.4-0.2c-0.4,1.4-1,0.2-2.7,0.7
	c-1,0.4-2.1,0.4-3.1,0.1c-0.3-1.2-0.1-0.5,0-1.6c-0.3,0.1-0.6,0.2-0.9,0.4c-0.8,0.3-0.7,0.1-0.9,0.1c-1.4,0.1-0.4,0.3-0.7,1.1
	c-1-0.1-0.3-0.2-1.2-0.8c-0.9-0.6-0.4,0.1-1-1c1.2,0.3,0.4,0,1.6-0.2c0.7,0,1.5,0,2.2,0h4.4V9.8c-1.4,0-1.3-0.3-2.4-0.4l-4.2-0.2
	c-0.8-0.1-1.2-0.5-2.1,0c-0.2,0.1,0.6,0-0.4,0.2c-0.2,0-0.5,0-0.8,0c0-0.1,0.1-0.4,0.2-0.4c0.1-0.5,0.2,0,0-0.4
	c-0.5,0.3-0.2,0.2-1,0.2c-0.5-0.6-0.7,0-0.9,0.1c-0.6,0.4,0.1,0.3-0.9,0.2c-1-0.1-6.1-0.3-6.5,0.3c0,0,0,0,0,0.1v0.1l-0.1-0.1
	l-0.2,0.1l-0.3,0.1c2,0,2.6,0.4,6.1,0.4c-0.2,0.7-0.9,1.2-1.6,1.2c-1.2,0-0.2-0.6-2.2-0.2c0-1.2,0.1-0.6-0.4-0.8
	c-0.2,0.5-0.1,0.5,0.2,1l-3,0.1c-0.4,0-0.8,0-1.1,0c-0.1,0,0,0.1-0.5,0c-0.5-0.1-0.3-0.1-0.4-0.1c-0.8-0.2-0.4,0-0.9,0
	c-0.3,0.1-0.6,0-0.8-0.2c-0.5-0.4-0.4,0.1,0.1-0.7c-1.1,0-1.4,0.1-1.6-0.8c0.8,0.4,0.5,0.4,1.2,0.2h0.1l0.5-0.1
	c0.6-0.2,0.4,0.1,0.6-0.4c0.2-0.5,0.2,0.2-0.2-0.2c-1.1-1-0.4-0.8-1.8-0.8c-0.4,1.3-1.2,0.4-0.8,1.4c-0.6-0.2-0.5-0.3-0.8-0.3
	c-0.6,0,0.3,0-0.5,0.3c-0.7-0.2-1.5-0.3-2.2-0.2c-0.2-0.8-0.9-1-2-1V8.4L130,7.7L128.8,9c-1,0.8-2.8-0.1-3.8-0.1
	c0.4-0.6,0-0.4,1-0.4V8.2c-1.4-0.1,0.2-0.2-1.2-0.6c-0.2,0.5,0.1-0.1,0.2,0.8l-1.2,0.2c0-0.8,0.9-1.6-2-1.9
	c-4.3-0.5-2.3,0.5-4.6,1.3l-0.5,0.1c-3.5,1.1-1.5,0.4-5.4,0.7V8.2c-0.4,0.3-0.4,0.4-0.9,0.5c-0.3,0-0.1,0-0.4,0
	c-0.1,0-0.2-0.1-0.3-0.1L109.4,8.3z"/>
<path class="st0" d="M209.1,10.6c0.8,0,0.9,0.1,1.8,0.2c2.3,0.1-0.4,0.3,1.4,0.4v-0.4c3-0.1-0.1,0.5,3.4-0.2
	c0.6-0.1,1.2-0.3,1.8-0.3c0.8,0,1,0.6,1.6-0.3c-0.9-0.1-0.7-0.3-1.8-0.1c-0.6,0-1.1,0-1.6,0.1v0.4c-0.7-0.2-0.3-0.2-0.9-0.4
	c-0.4,0-0.8,0-1.1,0c-0.2-0.3,0-0.3-0.5-0.4h-0.2h-0.9c0,0.1,0.1,0.1,0,0.8L209.1,10.6z"/>
<path class="st0" d="M24,4.1c1.1,0.5,2.4,0.4,3.4-0.3L28,3.4c-0.8-0.2-1.6-0.3-2.4-0.4C24.6,2.9,24.3,3.4,24,4.1z"/>
<path class="st0" d="M299.6,4.1c1.3,0.6,1.3,0.4,2.8-0.1l1.3-0.7c-0.8-0.2-1.6-0.3-2.4-0.4C300.2,2.9,299.9,3.4,299.6,4.1z"/>
<path class="st0" d="M40,3.7c0.4,1.5,1-0.3,1.4,1.2h0.8l-0.1-0.8C41.8,3,40.9,3.9,40,3.7z"/>
<path class="st0" d="M315.5,3.7c0.4,1.5,1-0.3,1.4,1.2h0.8c0-0.3,0.1-1.4-0.8-1.4C316,3.5,316.7,3.9,315.5,3.7z"/>
<path class="st0" d="M164.1,9.9c0.9,0,0.7,0.2,1.4,0.2c0.5-0.1,1.1-0.1,1.6-0.2V9.5C164.7,9.3,164.7,9,164.1,9.9z"/>
<path class="st0" d="M60.7,7.7c1.3,0.4-0.7,0,0.6,0.4c0.2-0.5-0.1-0.3,0.4-0.4c0.1,0,0.9,0,1,0V7.3c-0.7-0.2-1.3-0.2-2-0.2
	C60.5,7.6,60.5,7.2,60.7,7.7z"/>
<path class="st0" d="M14.1,5.9c0.5,0.3,0.7,0.2,1.6,0.2c0.6,0,0.4-0.1,0.6-0.4C15.8,5.5,14.1,5.2,14.1,5.9z"/>
<path class="st0" d="M289.6,5.9c0.5,0.3,0.7,0.2,1.6,0.2c0.6,0,0.4-0.1,0.6-0.4C291.4,5.5,289.8,5.2,289.6,5.9z"/>
<path class="st0" d="M306.4,2.9v0.2l1.6,0.2c0.3-0.8-0.1-0.3,1.2-0.2V2.7C308,2.7,307.6,2.9,306.4,2.9z"/>
<path class="st0" d="M30.9,2.9v0.2l1.6,0.2c0.3-0.8-0.1-0.3,1.2-0.2V2.7C32.4,2.7,32,2.9,30.9,2.9z"/>
<path class="st0" d="M309.5,3.1h2.4c-0.4-0.6,0-0.4-1-0.4c-0.4,0-1,0-1.4,0V3.1z"/>
<path class="st0" d="M33.9,3.1h2.4c-0.4-0.6,0-0.4-1-0.4c-0.4,0-1,0-1.4,0V3.1z"/>
<path class="st0" d="M135.5,3.5c-0.7-1-1.1-1-2.2-1.6c0.2,0.7,0.2,0.6,0.9,0.9C134.6,3.1,135.1,3.3,135.5,3.5z"/>
<path class="st0" d="M411,3.5c-0.7-1-1.1-1-2.2-1.6c0.2,0.7,0.2,0.6,0.9,0.9C410.1,3.1,410.6,3.3,411,3.5z"/>
<path class="st0" d="M225.5,11.6v-0.4l0.2-0.4c-1.1-0.3-0.9-0.6-1.4,0.4C225,11.4,224.9,11.5,225.5,11.6z"/>
<path class="st0" d="M309.3,7.1c0.9,0.2,1.1,0.5,1.4-0.4C310.3,6.6,309.3,6.1,309.3,7.1z"/>
<path class="st0" d="M33.7,7.1c0.9,0.2,1.2,0.5,1.4-0.4C34.7,6.6,33.7,6.1,33.7,7.1z"/>
<path class="st0" d="M328,5.9l2,0.2V5.7c-1.1,0-1.1-0.2-2-0.2V5.9z"/>
<path class="st0" d="M324.3,4.7l-0.1-0.1l-0.6-0.5c-0.5-0.3-1.1-0.2-1.5,0.1C322.8,4.5,323.5,4.7,324.3,4.7z"/>
<path class="st0" d="M48.7,4.7L48.7,4.7l-0.1-0.2l-0.8-0.4c-1-0.2-1.1,0.2-1.2,0.2C47.2,4.5,48,4.7,48.7,4.7z"/>
<path class="st0" d="M313.5,3.1c2.8,0,2.9,0.4,3.8-0.4L313.5,3.1z"/>
<path class="st0" d="M38,3.1c1.5,0,2.9,0.2,3.5-0.1c0.6-0.4,0.1-0.1,0.3-0.3L38,3.1z"/>
<path class="st0" d="M251.1,9.1c1.2,0,1.5-0.2,2.6-0.2V8.7C252.7,8.7,251.6,8.5,251.1,9.1z"/>
<path class="st0" d="M252.5,8.3c0.9,0,1.1-0.2,2.2-0.2V7.9h-2.2V8.3z"/>
<path class="st0" d="M239.1,12.6c0.8,0,0.8,0.1,1.4-0.2c-0.2-0.3,0-0.4-0.6-0.4S239.2,12.3,239.1,12.6z"/>
<path class="st0" d="M235.7,9.3c0.8,0,0.5,0.2,1.4,0.2c0.6,0,0.4-0.1,0.6-0.4h-2V9.3z"/>
<path class="st0" d="M43,4.3c0.4,0.1,0.8,0.2,1.2,0.2c-0.4-0.6-0.3-0.6-1.2-0.6V4.3z"/>
<path class="st0" d="M318.6,4.3c0.4,0.1,0.8,0.2,1.2,0.2c-0.4-0.6-0.3-0.6-1.2-0.6V4.3z"/>
<path class="st0" d="M313.9,5.1c0.4,0.1,0.9-0.1,1.2-0.4c-0.2-0.3-0.1-0.2-0.2-0.6L313.9,5.1z"/>
<path class="st0" d="M38.4,5.1c0.4,0.1,0.9-0.1,1.2-0.4c-0.1-0.2-0.2-0.4-0.2-0.6L38.4,5.1z"/>
<path class="st0" d="M49.5,6.7h1.6c-0.2-0.1-0.1-0.1-0.3-0.3C50.6,6.2,49.6,6.2,49.5,6.7z"/>
<path class="st0" d="M325.1,6.7h1.6c-0.1-0.1,0-0.1-0.3-0.3S325.1,6.2,325.1,6.7z"/>
<path class="st0" d="M204.3,10.1c1.3,0,1.4,0.4,1.8-0.2h-1.8V10.1z"/>
<polygon class="st0" points="324.3,4.7 324,5.1 325.3,5.1 325.3,4.7 "/>
<polygon class="st0" points="48.7,4.7 48.5,5.1 49.7,5.1 49.7,4.7 "/>
<path class="st0" d="M140,9.9c1,0,0.8,0.2,1.2-0.4H140V9.9z"/>
<path class="st0" d="M401.7,7.9c0.7-0.1,0.7-0.1,0.8-0.8C401.8,7.3,401.9,7.2,401.7,7.9z"/>
<path class="st0" d="M126.2,7.9c0.7-0.1,0.7-0.1,0.8-0.8C126.3,7.3,126.4,7.2,126.2,7.9z"/>
<path class="st0" d="M311.9,4.3c0.8-0.1,0.6,0.1,0.8-0.6h-0.8V4.3z"/>
<path class="st0" d="M36.3,4.3c0.8-0.1,0.6,0.1,0.8-0.6h-0.8V4.3z"/>
<path class="st0" d="M57.9,6.7c0.6,0,0.4-0.1,0.6-0.4H57C57.6,6.7,57.4,6.7,57.9,6.7z"/>
<path class="st0" d="M333.4,6.7c0.6,0,0.4-0.1,0.6-0.4h-1.4c0.2,0.1,0.1,0.1,0.3,0.3S332.6,6.7,333.4,6.7z"/>
<path class="st0" d="M345.3,7.9c0.5-0.1,0.5-0.1,1-0.2V6.9L345.3,7.9z"/>
<path class="st0" d="M69.8,7.9c0.5-0.1,0.5-0.1,1-0.2V6.9L69.8,7.9z"/>
<path class="st0" d="M409,8.5c0.5,0.6,0.5,0.6,1.2,0.4l-0.4-0.3l-0.1-0.1C409.6,8.5,409.2,8.3,409,8.5z"/>
<polygon class="st0" points="355.6,5.3 356.4,5.3 356.4,4.9 355.6,4.7 "/>
<path class="st0" d="M69.6,4.5L70,4.7c0.6,0,0.4-0.1,0.6-0.4C70.2,4.2,69.7,3.9,69.6,4.5z"/>
<path class="st0" d="M345.1,4.5l0.4,0.2c0.6,0,0.4-0.1,0.6-0.4C345.8,4.2,345.2,3.9,345.1,4.5z"/>
<rect x="33.7" y="4.5" class="st0" width="1" height="0.4"/>
<rect x="309.3" y="4.5" class="st0" width="1" height="0.4"/>
<rect x="225.5" y="11.2" class="st0" width="2" height="0.2"/>
<rect x="53.4" y="5.7" class="st0" width="1" height="0.4"/>
<path class="st0" d="M133.4,8.5c0.4,0.6,0.5,0.6,1.2,0.4l-0.1-0.1l-0.7-0.4C133.7,8.4,133.5,8.4,133.4,8.5z"/>
<polygon class="st0" points="259.8,7.9 261,8.1 261,7.7 259.8,7.7 "/>
<path class="st0" d="M81,7.9c0.8-0.1,0.6,0.1,0.8-0.6H81C81.1,7.7,81.2,7.5,81,7.9z"/>
<path class="st0" d="M318,3.7c0.8-0.6-0.1-0.6,1-0.6V2.9h-1V3.7z"/>
<path class="st0" d="M42.4,3.7c0.8-0.6-0.1-0.6,1-0.6V2.9h-1V3.7z"/>
<path class="st0" d="M214.2,9.7l1.1-0.1c0.3-0.1,0.2-0.1,0.3-0.3C215,9.3,214.3,9.2,214.2,9.7z"/>
<rect x="286.7" y="7.5" class="st0" width="1.8" height="0.2"/>
<path class="st0" d="M99.2,9.7h1.2C100.3,9.6,99.3,8.8,99.2,9.7z"/>
<path class="st0" d="M319.3,6.1h1V5.7C319.7,5.7,319.3,5.6,319.3,6.1z"/>
<path class="st0" d="M43.6,6.1h1V5.7C44.1,5.7,43.7,5.6,43.6,6.1z"/>
<path class="st0" d="M232.7,4.7h1c-0.4-0.6,0-0.4-1-0.4V4.7z"/>
<path class="st0" d="M113.6,11.2c0.4,0,0.3,0.1,0.8-0.4h-1.2C113.3,11,113.3,11.2,113.6,11.2z"/>
<path class="st0" d="M389.2,11.2c0.5,0,0.3,0.1,0.8-0.4h-1.2C388.9,11,388.9,11.2,389.2,11.2z"/>
<path class="st0" d="M356.6,7.9c0.9-0.1,0.4,0.2,0.8-0.4c-0.2-0.1-0.5-0.2-0.8-0.2C356.7,7.7,356.8,7.5,356.6,7.9z"/>
<rect x="44" y="2.9" class="st0" width="1.6" height="0.2"/>
<rect x="319.6" y="2.9" class="st0" width="1.6" height="0.2"/>
<rect x="63.1" y="4.9" class="st0" width="0.8" height="0.4"/>
<rect x="338.7" y="4.9" class="st0" width="0.8" height="0.4"/>
<rect x="52.4" y="5.5" class="st0" width="0.8" height="0.4"/>
<rect x="237.7" y="11.4" class="st0" width="0.8" height="0.4"/>
<path class="st0" d="M329.6,4.9h1c-0.1-0.2-0.1-0.4-0.4-0.4C329.9,4.5,329.6,4.6,329.6,4.9z"/>
<path class="st0" d="M374.8,9.7h1c-0.1-0.2-0.1-0.4-0.4-0.4S374.9,9.4,374.8,9.7z"/>
<path class="st0" d="M54,4.9h1c-0.1-0.2-0.2-0.4-0.4-0.4S54,4.6,54,4.9z"/>
<path class="st0" d="M336.3,3.7h1c-0.1-0.1,0-0.1-0.3-0.3c-0.5-0.2-0.1-0.1-0.7-0.1V3.7z"/>
<path class="st0" d="M60.7,3.7h1c-0.2-0.1,0-0.1-0.3-0.3c-0.5-0.2-0.1-0.1-0.7-0.1V3.7z"/>
<path class="st0" d="M27,8.9h1c-0.2-0.1,0-0.1-0.3-0.3c-0.5-0.1-0.2,0-0.7-0.1V8.9z"/>
<path class="st0" d="M234.5,11.2v-0.4h-1c0.1,0.1,0,0.1,0.3,0.3C234.3,11.3,233.9,11.2,234.5,11.2z"/>
<path class="st0" d="M80.8,5.3c-0.2-0.5,0-0.4-0.8-0.6C80.4,5.6,79.8,5.2,80.8,5.3z"/>
<rect x="141.7" y="9.9" class="st0" width="1.4" height="0.2"/>
<rect x="216" y="9.3" class="st0" width="1.4" height="0.2"/>
<path class="st0" d="M302.6,8.9h1V8.7c-0.3,0-0.7-0.1-1-0.2V8.9z"/>
<path class="st0" d="M97.8,7.9h0.8V7.5C98.1,7.6,97.9,7.5,97.8,7.9z"/>
<path class="st0" d="M293.4,0.9c0.9-0.1,0.4,0.2,0.8-0.4h-0.8V0.9z"/>
<path class="st0" d="M17.8,0.9c0.9-0.1,0.3,0.2,0.8-0.4h-0.8V0.9z"/>
<path class="st0" d="M355.1,5.3V4.9h-0.8C354.7,5.5,354.1,5.2,355.1,5.3z"/>
<path class="st0" d="M79.5,5.3V4.9h-0.8C79.2,5.5,78.6,5.2,79.5,5.3z"/>
<path class="st0" d="M265.9,5.1h0.6c-0.2-0.6,0.3-0.1-0.6-0.6V5.1z"/>
<path class="st0" d="M374.1,7.5c-0.9,0.1-0.4-0.2-0.8,0.4C374.5,7.9,373.9,8,374.1,7.5z"/>
<rect x="56" y="6.1" class="st0" width="0.6" height="0.4"/>
<rect x="370.1" y="4.3" class="st0" width="0.6" height="0.4"/>
<rect x="331.6" y="6.1" class="st0" width="0.6" height="0.4"/>
<rect x="235.3" y="11" class="st0" width="1.2" height="0.2"/>
<path class="st0" d="M77.9,7.7c0.7,0.1,0.6,0.4,0.8-0.4l-0.4,0.2C77.9,7.7,78.2,7.5,77.9,7.7z"/>
<path class="st0" d="M353.4,7.7c0.7,0.1,0.6,0.4,0.8-0.4c-0.1,0-0.4,0.1-0.4,0.2C353.4,7.7,353.7,7.5,353.4,7.7z"/>
<path class="st0" d="M67.8,5.5c-0.4-0.6,0.1-0.3-0.8-0.4C67.5,5.7,66.9,5.4,67.8,5.5z"/>
<path class="st0" d="M241.4,6.7c-0.5-0.6,0.1-0.3-0.8-0.4C241,6.9,240.5,6.6,241.4,6.7z"/>
<path class="st0" d="M343.3,5.5c-0.5-0.6,0.1-0.3-0.8-0.4C343,5.7,342.4,5.4,343.3,5.5z"/>
<path class="st0" d="M33.3,6.9h-0.8C32.9,7.5,32.9,7.5,33.3,6.9z"/>
<path class="st0" d="M308.9,6.9h-0.8C308.5,7.5,308.5,7.5,308.9,6.9z"/>
<path class="st0" d="M354.7,8.1c0.3,0,0.2,0.1,0.5-0.1c0.7-0.3,0.3-0.1,0.5-0.3C355.1,7.8,354.9,7.8,354.7,8.1z"/>
<rect x="218.2" y="10.6" class="st0" width="1" height="0.2"/>
<path class="st0" d="M98.2,9.1h0.6V8.7C98.5,8.8,98.3,8.8,98.2,9.1z"/>
<path class="st0" d="M373.7,9.1h0.6V8.7C374,8.8,373.8,8.8,373.7,9.1z"/>
<path class="st0" d="M94.5,4.7h0.6V4.3C94.7,4.4,94.6,4.3,94.5,4.7z"/>
<path class="st0" d="M230,9.3c-0.2-0.6,0-0.4-0.6-0.6C229.8,9.5,229.3,9.1,230,9.3z"/>
<path class="st0" d="M208.1,10.4V9.9h-0.8c0.2,0.1-0.1,0,0.4,0.2L208.1,10.4z"/>
<path class="st0" d="M51.4,5.7c0.6-0.1,0.3,0,0.6-0.4h-0.6V5.7z"/>
<path class="st0" d="M209.1,10.1c0.6-0.1,0.3,0,0.6-0.4h-0.6V10.1z"/>
<path class="st0" d="M327,5.7c0.6-0.1,0.3,0,0.6-0.4H327V5.7z"/>
<path class="st0" d="M120.5,11.4h0.6c-0.3-0.4,0-0.3-0.6-0.4V11.4z"/>
<path class="st0" d="M396.1,11.4h0.6c-0.3-0.4,0-0.3-0.6-0.4V11.4z"/>
<path class="st0" d="M79.3,8.1c0.4-0.1,0,0.1,0.5-0.1c0.1-0.1,0.2-0.2,0.3-0.3C79.7,7.8,79.4,7.7,79.3,8.1z"/>
<path class="st0" d="M382.2,8.9c0.4-0.1,0,0.1,0.5-0.1c0.3-0.1,0.2-0.1,0.3-0.3C382.6,8.6,382.3,8.5,382.2,8.9z"/>
<path class="st0" d="M106.7,8.9c0.4-0.1,0,0.1,0.5-0.1c0.1-0.1,0.2-0.2,0.3-0.3C107.1,8.6,106.8,8.5,106.7,8.9z"/>
<rect x="2.5" y="1.1" class="st0" width="0.8" height="0.2"/>
<rect x="288.8" y="8.9" class="st0" width="0.8" height="0.2"/>
<rect x="278" y="1.1" class="st0" width="0.8" height="0.2"/>
<rect x="13.2" y="8.9" class="st0" width="0.8" height="0.2"/>
<rect x="244.8" y="9.1" class="st0" width="0.8" height="0.2"/>
<rect x="323" y="3.7" class="st0" width="0.8" height="0.2"/>
<rect x="338.7" y="8.5" class="st0" width="0.8" height="0.2"/>
<rect x="63.1" y="8.5" class="st0" width="0.8" height="0.2"/>
<rect x="47.4" y="3.7" class="st0" width="0.8" height="0.2"/>
<rect x="239.5" y="9.7" class="st0" width="0.8" height="0.2"/>
<path class="st0" d="M130,7.1c0.6-0.5,0.3,0.1,0.4-0.8c-0.1,0.1-0.1,0-0.3,0.3C129.9,7.1,130.1,6.8,130,7.1z"/>
<path class="st0" d="M405.6,7.1c0.6-0.5,0.3,0.1,0.4-0.8c-0.1,0.1-0.1,0-0.3,0.3C405.5,7.1,405.7,6.8,405.6,7.1z"/>
<path class="st0" d="M374.1,7.5c0.6-0.1,0.3,0,0.6-0.4C373.7,7.2,374.4,6.9,374.1,7.5z"/>
<path class="st0" d="M207.3,9.9c-0.1,0,0.2-0.4-0.4-0.1c-0.6,0.3,0-0.2-0.2,0.3C207.2,10,206.8,10.1,207.3,9.9z"/>
<path class="st0" d="M99.2,7.1h-0.6C99.1,7.7,98.8,7.7,99.2,7.1z"/>
<path class="st0" d="M375,7.7h-0.6C374.9,8.3,374.5,8.3,375,7.7z"/>
<path class="st0" d="M99.4,7.7h-0.6C99.3,8.3,99,8.3,99.4,7.7z"/>
<path class="st0" d="M328.6,7.7l0.4-0.4c-1.1,0-0.3,0-0.6,0.2L328.6,7.7z"/>
<path class="st0" d="M53,7.7l0.4-0.3c-1.1,0-0.3,0-0.6,0.2L53,7.7z"/>
<path class="st0" d="M28.9,4.7c0.6-0.1,0.3,0,0.6-0.4C29.1,4.4,28.9,4.3,28.9,4.7z"/>
<path class="st0" d="M338.5,7.3c0.6-0.1,0.3,0,0.6-0.4C338.7,7,338.6,6.9,338.5,7.3z"/>
<path class="st0" d="M62.9,7.3c0.6-0.1,0.3,0,0.6-0.4C63.1,7,63,6.9,62.9,7.3z"/>
<path class="st0" d="M304.4,4.7c0.6-0.1,0.3,0,0.6-0.4C304.6,4.4,304.4,4.3,304.4,4.7z"/>
<rect x="237.5" y="12.4" class="st0" width="0.6" height="0.2"/>
<rect x="48.1" y="2.9" class="st0" width="0.6" height="0.2"/>
<rect x="227.3" y="9.5" class="st0" width="0.6" height="0.2"/>
<rect x="81" y="8.1" class="st0" width="0.6" height="0.2"/>
<rect x="8.1" y="5.7" class="st0" width="0.6" height="0.2"/>
<rect x="283.7" y="5.7" class="st0" width="0.6" height="0.2"/>
<rect x="323.6" y="2.9" class="st0" width="0.6" height="0.2"/>
<rect x="356.6" y="8.1" class="st0" width="0.6" height="0.2"/>
<rect x="118.7" y="11.2" class="st0" width="0.6" height="0.2"/>
<rect x="310.3" y="3.9" class="st0" width="0.6" height="0.2"/>
<rect x="34.7" y="3.9" class="st0" width="0.6" height="0.2"/>
<rect x="394.3" y="11.2" class="st0" width="0.6" height="0.2"/>
<rect x="407.2" y="0.7" class="st0" width="0.6" height="0.2"/>
<rect x="249.7" y="8.5" class="st0" width="0.6" height="0.2"/>
<rect x="131.6" y="0.7" class="st0" width="0.6" height="0.2"/>
<rect x="68.2" y="7.3" class="st0" width="0.6" height="0.2"/>
<rect x="163.1" y="9.7" class="st0" width="0.6" height="0.2"/>
<rect x="343.7" y="7.3" class="st0" width="0.6" height="0.2"/>
<path class="st0" d="M292.2,10.1l-0.6-0.4C291.8,10.3,291.2,10.1,292.2,10.1z"/>
<path class="st0" d="M413.7,5.5c-0.2-0.6,0.4-0.3-0.6-0.4c0,0,0.1,0,0.1,0.1s0.1,0.1,0.1,0.1S413.6,5.4,413.7,5.5z"/>
<path class="st0" d="M183.2,5.3c-0.3-0.4,0-0.3-0.6-0.4C182.9,5.4,182.6,5.1,183.2,5.3z"/>
<path class="st0" d="M138.1,5.5c-0.2-0.6,0.4-0.3-0.6-0.4c0,0,0.1,0,0.1,0.1L138.1,5.5z"/>
<path class="st0" d="M307,4.9c0,0.2,0.4,0.4,0.3,0C307.3,4.8,306.9,4.4,307,4.9z"/>
<path class="st0" d="M31.5,4.9c0,0.2,0.4,0.4,0.3,0C31.7,4.8,31.4,4.4,31.5,4.9z"/>
<path class="st0" d="M336.3,7.1c-0.1-0.5,0.1-0.3-0.4-0.4C335.9,7.2,335.7,6.9,336.3,7.1z"/>
<path class="st0" d="M60.7,7.1c-0.1-0.5,0.1-0.3-0.4-0.4C60.4,7.2,60.2,6.9,60.7,7.1z"/>
<path class="st0" d="M86.3,8.3C86.5,8.5,87,8,86.5,8.2C86.5,8.2,85.8,8,86.3,8.3z"/>
<path class="st0" d="M230.7,10.1c0.2,0.2,0.7-0.3,0.2-0.1C230.9,10,230.2,9.8,230.7,10.1z"/>
<path class="st0" d="M210.5,10.1c0.2,0.2,0.7-0.3,0.2-0.1C210.7,10,210.1,9.8,210.5,10.1z"/>
<path class="st0" d="M378,8.3c0.2,0.2,0.7-0.3,0.2-0.1C378.3,8.2,377.7,8,378,8.3z"/>
<path class="st0" d="M110.8,7.9c0.2,0.2,0.7-0.3,0.2-0.1C111,7.8,110.4,7.6,110.8,7.9z"/>
<path class="st0" d="M71.6,8.5c0.2,0.2,0.7-0.3,0.2-0.1C71.9,8.4,71.3,8.2,71.6,8.5z"/>
<path class="st0" d="M15.2,6.7c0.2,0.2,0.7-0.3,0.2-0.1C15.5,6.6,14.9,6.4,15.2,6.7z"/>
<path class="st0" d="M225.7,9.1c0.2,0.2,0.7-0.3,0.2-0.1C226,9,225.4,8.8,225.7,9.1z"/>
<path class="st0" d="M347.2,8.5c0.2,0.2,0.7-0.3,0.2-0.1C347.5,8.4,346.9,8.2,347.2,8.5z"/>
<path class="st0" d="M386.4,7.9c0.2,0.2,0.7-0.3,0.2-0.1C386.6,7.8,386,7.6,386.4,7.9z"/>
<path class="st0" d="M303.2,7.3c0.2,0.2,0.7-0.3,0.2-0.1C303.4,7.2,302.8,7,303.2,7.3z"/>
<path class="st0" d="M27.6,7.3c0.2,0.2,0.7-0.3,0.2-0.1C27.8,7.2,27.2,7,27.6,7.3z"/>
<path class="st0" d="M341.3,6.7c0.2,0.2,0.7-0.3,0.2-0.1C341.5,6.6,341,6.4,341.3,6.7z"/>
<path class="st0" d="M237.7,8.9c0.2,0.2,0.7-0.3,0.2-0.1C237.9,8.8,237.4,8.6,237.7,8.9z"/>
<path class="st0" d="M74.4,8.3c0.2,0.2,0.8-0.3,0.3-0.1C74.7,8.2,74.1,8,74.4,8.3z"/>
<path class="st0" d="M361.8,8.3c0.2,0.2,0.7-0.3,0.2-0.1C362,8.2,361.4,8,361.8,8.3z"/>
<path class="st0" d="M229.1,11.4c0.2,0.2,0.7-0.3,0.2-0.1C229.4,11.3,228.8,11.1,229.1,11.4z"/>
<path class="st0" d="M102.4,8.3c0.2,0.2,0.7-0.3,0.2-0.1C102.7,8.2,102.1,8,102.4,8.3z"/>
<path class="st0" d="M350,8.3c0.2,0.2,0.7-0.3,0.2-0.1C350.3,8.2,349.7,8,350,8.3z"/>
<path class="st0" d="M254.1,8.9c0.2,0.2,0.7-0.3,0.2-0.1C254.3,8.8,253.8,8.6,254.1,8.9z"/>
<path class="st0" d="M202.9,10.4c0.2,0.2,0.7-0.3,0.2-0.1C203.1,10.3,202.5,10,202.9,10.4z"/>
<path class="st0" d="M65.7,6.7c0.2,0.2,0.7-0.3,0.2-0.1C65.9,6.6,65.4,6.4,65.7,6.7z"/>
<path class="st0" d="M290.8,6.7c0.2,0.2,0.7-0.3,0.2-0.1C291.1,6.6,290.5,6.4,290.8,6.7z"/>
<path class="st0" d="M263.9,7.9c0.2,0.2,0.7-0.3,0.2-0.1C264.1,7.8,263.5,7.6,263.9,7.9z"/>
<path class="st0" d="M239.1,9.3c0.2,0.2,0.7-0.3,0.2-0.1C239.3,9.2,238.7,9,239.1,9.3z"/>
<path class="st0" d="M381.6,8.7c0.2,0.2,0.7-0.3,0.2-0.1C381.9,8.6,381.3,8.4,381.6,8.7z"/>
<path class="st0" d="M237.7,13c0.2,0.2,0.7-0.3,0.2-0.1C237.9,12.9,237.4,12.7,237.7,13z"/>
<path class="st0" d="M269,8.7c0.2,0.2,0.7-0.3,0.2-0.1C269.2,8.6,268.5,8.4,269,8.7z"/>
<path class="st0" d="M106.1,8.7c0.2,0.2,0.7-0.3,0.2-0.1C106.4,8.6,105.8,8.4,106.1,8.7z"/>
<path class="st0" d="M262.4,8.3c0,0.2,0.4,0.5,0.3,0c-0.1-0.5,0.5,0-0.1-0.1C262.4,8.2,262.4,7.9,262.4,8.3z"/>
<path class="st0" d="M379.9,7.3c0,0.2,0.4,0.5,0.3,0c-0.1-0.5,0.5,0-0.1-0.1C379.8,7.2,379.9,6.9,379.9,7.3z"/>
<path class="st0" d="M104.2,7.3c0,0.2,0.4,0.5,0.3,0c-0.1-0.5,0.5,0-0.1-0.1C104.2,7.2,104.2,6.9,104.2,7.3z"/>
<path class="st0" d="M12.6,9.1c0,0.2,0.4,0.5,0.3,0c-0.1-0.5,0.5,0-0.1-0.1C12.6,9,12.6,8.7,12.6,9.1z"/>
<path class="st0" d="M321,8.1c0,0.1,0.2,0,0.2,0s0.4,0.5,0.1,0C321.4,8.1,321,7.7,321,8.1z"/>
<path class="st0" d="M316.3,7.9c0,0.1,0.2,0,0.2,0s0.4,0.5,0.1,0C316.6,7.9,316.3,7.5,316.3,7.9z"/>
<path class="st0" d="M368.1,8.7l0.2-0.4c-0.3,0.1-0.2-0.1-0.3,0.1S368,8.4,368.1,8.7z"/>
<path class="st0" d="M92.5,8.7l0.2-0.4c-0.3,0.1-0.2-0.1-0.3,0.1C92.4,8.7,92.3,8.4,92.5,8.7z"/>
<path class="st0" d="M184.2,6.7c0,0.1,0.2,0,0.2,0s0.4,0.5,0.1-0.1l0,0C184.2,6.6,184.2,6.4,184.2,6.7z"/>
<path class="st0" d="M196.3,8.3c0,0.1,0.2,0,0.2,0s0.4,0.5,0.1,0l0,0h-0.1C196.4,8.3,196.3,7.9,196.3,8.3z"/>
<path class="st0" d="M45.4,8.1c0,0.1,0.2,0,0.2,0s0.3,0.5,0.1,0h-0.1C45.5,8.1,45.4,7.7,45.4,8.1z"/>
<path class="st0" d="M40.8,7.9c0,0.1,0.2,0,0.2,0s0.3,0.5,0.1,0H41C40.9,7.9,40.8,7.5,40.8,7.9z"/>
<polygon class="st0" points="67.4,8.5 67.6,8.5 67.4,8.3 "/>
<polygon class="st0" points="342.9,8.5 343.1,8.5 342.9,8.3 "/>
<polygon class="st0" points="225.5,11.6 225.5,11.8 225.8,11.7 "/>
<path class="st0" d="M47.4,2.9L47.4,2.9C47.7,3,47.2,3.4,47.4,2.9L47.4,2.9L47.4,2.9C47.6,2.9,47.6,2.9,47.4,2.9z"/>
<path class="st0" d="M4.5,9.7C4.5,9.7,4.6,9.6,4.5,9.7L4.5,9.7C4.6,9.7,4.5,9.7,4.5,9.7z"/>
<path class="st0" d="M228.1,10.1L228.1,10.1C228.2,10.1,228.1,10.1,228.1,10.1z"/>
<path class="st0" d="M271.2,7.1L271.2,7.1L271.2,7.1z"/>
<path class="st0" d="M233.1,11.2L233.1,11.2C233.1,11.2,233,11.2,233.1,11.2z"/>
<path class="st0" d="M289.6,7.7L289.6,7.7C289.7,7.7,289.6,7.7,289.6,7.7z"/>
<path class="st0" d="M228.7,7.3L228.7,7.3C228.8,7.3,228.7,7.3,228.7,7.3z"/>
<path class="st0" d="M252.1,9.7L252.1,9.7L252.1,9.7C252.2,9.6,252.1,9.7,252.1,9.7z"/>
<path class="st0" d="M262.9,7.9L262.9,7.9L262.9,7.9C262.9,7.8,262.8,7.9,262.9,7.9z"/>
<path class="st0" d="M262.9,7.3L262.9,7.3L262.9,7.3C262.9,7.2,262.8,7.3,262.9,7.3z"/>
<path class="st0" d="M49.4,7.3L49.4,7.3C49.4,7.3,49.3,7.3,49.4,7.3z"/>
<path class="st0" d="M233.3,10.1L233.3,10.1L233.3,10.1C233.3,10.1,233.2,10.1,233.3,10.1z"/>
<path class="st0" d="M225.1,10.1l0.4,0.2L225.1,10.1z"/>
<path class="st0" d="M225.1,10.1l-0.4-0.2L225.1,10.1z"/>
<path class="st0" d="M384.1,7.9l-0.2-0.4L384.1,7.9z"/>
</svg>
