<svg version="1.1" id="Слой_1" xmlns="http://www.w3.org/2000/svg" x="0" y="0" viewBox="0 0 412.5 105" xml:space="preserve" preserveAspectRatio="xMidYMax"><style>.st0{opacity:.8;fill:#131313}</style><path class="st0" d="M110.4 8.8c-.3-.3-.6-.6-1-.8.3 1.6.1-.6-.4 1.6-2.4.2.4.3-2-.2h-1v-.1c-.2-.6.1-.3-.4-.6l-.2.8c-.5 0-1-.1-1.4-.2-1.6 0 0 1-4 1.4 0-.7.4-.6-1.8-1.2.1-.4.1-.2.3-.5.4-.7 0 .4.3-.5-.7-.1-1.4-.3-2.1-.5-1.7-.4 0 .1-1.9.1 0 .3.1.7.2 1-.4 0-.8.1-1.2.2l-.6.4c-.2-.7-.2-.5.2-1-1.3 0-.6.4-1.1.9l-.2.2-.1.1h-.1c-.5.1-1 .1-1.6.1-1.4-.2.1-.2-1.2-.6l-1.4.4c0-.6 0-.4-.2-.8-.7.5-.4.3-1.1.3-.6 0-1.1 0-1.7-.1.2-.2.4-.3.6-.4l-.3-.1c-.2-.1-.4-.1-.6-.1-.2.7-.3.7-1 .8l-1.2.2c-.2 0-1-.1-1-.1h-.1l-.4-.1h-.1l-2.8-.1c.3-1 .3-.2.6-1.2-1.8 1-1.3 1.3-2 1.4s-.6-.1-.8-.4c.3-.5.2-.5 1-.6v-.6c-.7-.1-.4-.3-.9.1-.8.6-.3 1.4-2.9 1.5-.1-.4.1-.2-.2-.4H72c-1.5-.4-1.3-.1-2-.6-.4.8.1.5-.6 1-.2-.1-.4-.2-.6-.4-.3-.2-.2-.1-.6-.2-.2.8-.1.6-1 .6v-.4h-.4c-.4.1-.2.1-.4.2-1 .1-1.7.9-2.1 0-.5-.9 0 .2-.1-.2-.2-1.1.4.5 0-.3-.5.3-.2.2-1 .2-.2.5-.1.2 0 .8-.6-.1-.2 0-.4-.1-.4-.3-.6-.8-.6-1.3L61 8.1c-.4-.2.2-.1-.3 0s.3 0-.4.1c-1.3.2-.7-.5-2.7.5l.5.7.1.1c-1.4-.1-2.8-.3-4.2-.6.2-.1 0-.1.4-.2h.6l-.4-.4-.2-.2c-1.1-.5-2 .2-3 .2-1.5-.1.4-.4-1.3-.4-.6 0-.9.3-1.6.4-.1-.5-.3-.5-.6-.8.5.1.9.2 1.4.2v-.4c-.5 0-1.1-.1-1.6-.2 0 1.5.3 1 .6 2-.9 0-3.3.5-4.5.3-1.7-.4-.2.4-1.8 0-1.3-.3-1 0-2.4-.1s-1.5-.6-3.2-.6c-.3.8.2 0-.2.8-.4-.1-.9 0-1.3.1-1.2.5-2.5.8-3.8.7.1-.2.8-1-.5-.7l-1.7.5c-.1-.2-.2-.3-.3-.5l-.1-.1-.1-.1-.1-.1-1.2-.3c-.6 0-.2 0-.8.2-.2-.6.1-.1-.4-.6-.4.1-.2-.1-.4.5v.1l-4.1-.3s-.7.1-.9.1c-.1.3-.2-.1 0 .3l.2.4c-1 0-.6-.2-1 .4.7.2.5.1.8.6-1 0-1.4.2-2.6.2h-2.8l-.2.8c-.8-.2-1.2 0-1.6-.6 1.7 0 .9-.4 2.6-.4l-1.6-.2c-.4-.7-.8-.5-2.3 0-.7.2-.2.2-1.1.3l-5.2-.4c.3-.4.2-.2.4-.8 1.4 0 1.4-.3 1.2.6h1.8c.4-1.1.7-.1 1.4-1-1.8-.1-3.6-.2-5.4-.1H2.7C1.8 9.2.9 9.1 0 9c.3.6 0 .5 0 1.6l4 .2-.7.4c-.5.4-.1-.1-.1.2v.1c-1.1.1-2.1.2-3.2.2V106h412.5V11.8c-.3.2-.7.2-1 0-.6-.3-.4-.3 0-.8-1.1 0-1.4.1-1.6-.8 1.4.8.6 0 2.4 0v-.5c-1.6-.2.6-.8-2-.8-.5 1.3-1.2.4-.8 1.4-.6-.2-.5-.3-.7-.3-.6 0 .3 0-.5.3-.7-.2-1.5-.3-2.2-.2-.3-1.1-.6-.5-2-1.2-.2-.6.1-.1-.4-.6-.5.1-.3 0-.7.5l-.1.1-.6.7c-1.2.9-2.9-.4-4 .1.2-.6.4-.6 1.2-.6v-.5c-1.4-.1.2-.2-1.2-.6-.2.5.1-.1.2.8l-1.2.2c.1-1.4.6-1.3-1.3-1.8h-.1l-2.5-.4s-.9.2-1 .3l-.7.5-.7.6c-1.3.7-2.8 1-4.3.9-.6 0-1.3 0-1.9.1v-.5c-.4.3-.4.4-.9.5s-.6-.2-.9-.3c-.5-.6.1-.3-.8-.4-.6.5-.3.1-.6 1.2-2.4.2.5.3-2-.2h-1c-.2-.4.1-.4-.4-.8l-.2.8c-2.1 0-1.4-.7-2.6.4-.8.5-1.8.8-2.8.8 0-.7.5-.6-1.8-1.2.2-.7.3-.3.6-1-.7-.1-1.4-.3-2.1-.5-1.7-.4 0 .1-1.9.1 0 .3.1.7.2 1-.4 0-.8.1-1.2.2v.4c-1.1-.1-.8-.4-.4-1-.4 0-.4-.1-.7.1-.3.2-.1.2-.2.4s0 .3-.5.6c-1.5.8-3-.4-3-.4l-1.4.4c0-.6 0-.4-.2-.8l-.6.3h-.1c-.7.1-1.4 0-2-.1.2-.2.4-.3.6-.4l-.1-.1-.1-.1c-.2-.1-.4-.1-.5-.1-.3 1.1-.7.6-1.7.8l-4.1-.3c-.6-.1.6 0-.2 0h-.3c-.3.1.1 0-.5.2.3-1 .3-.2.6-1.2-.5.2-1 .6-1.4 1s-.1.3-.6.4-.5-.1-.8-.4c.4-.5.2-.5 1-.6V8c-2-.4-.2 1.5-3.8 1.6-.1-.3 0-.3-.3-.5h-.3l-.7-.1h-.1c-1-.1-.5.1-1.2-.4-.4.8.1.5-.6 1-.2-.1-.4-.2-.6-.4-.3-.2-.2-.1-.6-.2-.2.8-.1.6-1 .6l-.8-.2c-1 .1-1.6.9-2.1 0s0 .2-.1-.2c-.3-1.1.3.5 0-.3-.5.3-.2.2-1 .2-.2.5-.1.2 0 .8-1-.1 0 .5-1-1 .5 0 .3-.1.5-.1l.3-.1c1.4-.4.7.2 1.3-.5-.7-.2-1.3-.2-2-.2-.2.5-.2.1 0 .6H334.3l-.4-.2c-.4-.2.2 0-.7.1-1.3.2-.7-.5-2.7.5.1.5.3.5.6.8-1.4-.1-2.8-.3-4.2-.6.2-.1 0-.1.4-.2h.6l-.4-.4-.2-.2c-1.1-.5-2 .2-3 .2-1.5-.1.4-.4-1.4-.4-.6 0-.9.3-1.6.4l-.6-.8c.5.1.9.2 1.4.2v-.5c-.5 0-1.1-.1-1.6-.2 0 1.5.3 1 .6 2-.5 0-1.1 0-1.6.2-1.1.2-2.3.2-3.4 0-.9 0 0 .1-.7.2-.4 0-.3 0-.6-.1-1.3-.3-1 0-2.4-.1s-1.5-.6-3.2-.6c-.4.8.1 0-.2.8-.4-.1-.9 0-1.3.1l-.4.2-.3-.3c-1.1.4-2.2.5-3.3.5.1-.6.2-.3 0-.8-.9.1-.5.4-1.1.4l-1.1.2c-.2-.4-.5-.6-.9-.7l-.1-.1c-.9-.4-.7-.2-1.6 0-.3-.6.1-.1-.4-.6-.6.2 0-.1-.3.2l-.1.4-.7.1-1.7-.1v-.5-.1h-.8v.1c0 .1 0 .1-.1.2 0 .2.1 0-.1.3-1-.7-.2-.2-1.6-.2-.1.3-.2-.1 0 .3l.2.4c-.8 0-.5-.1-1 .2.5.6.3.2.8.8-1.1-.2-2.7.6-4.3.1l-1.5-.3c.1-.7 0-.1.1-.5s0 .2.3-.5c-.7-.1-.6 0-1-.4 1.1 0 4.9.4 5.8-.4l-11.8.3c-.8.1-1.8 0-2.6 0-.3 0-.8.1-1 .1l-3.4-.1.1-.1.5-.5c-.9-.1-1.7-.1-2.6 0-.9.2-1.9.3-2.8.2.2.5.2.1 0 .6 1.4-.3 2.8-.5 4.2-.4h.2c0 .3-.9.8-1.2.9l-2.5.7c-.6.1-1.2.1-1.8 0-.1.5-.2-.3.1.2s.2-.2.1.2c-.6.3-.4.2-1.2.2-.1-.1-.1-.2-.1-.3V10.4c-.8.2-.3.3-1 .3-.3 0-.8-.2-1.3-.3-1.2-.2-.5.1-1.6.2h-.8v-1c-.9.6-.8 1-2.8 1.2-.1-.7-.1-.7-.8-.8.2.8 1.1 1.2-1.2 1.4-.4-.6-.6-.5-.8-1.4h1.6c-.2-.9-.8-.8-1.5-.5h-.1c-.3.1-.6.1-.9.1.5 1 .2.8.2 2.2-1.3 0-2.4 1.1-3.3.3l-.3-.7c-1.3-.1-2.6 0-3.8.2.2-.8.4-.6.8-1.2-.9-.2-1.4-.3-1.4 1-1 .1-.5.2-1.5.1-.6-.1-1.4-.5-2-.3-1 .3.4-.1-.3.1-.1 0-.2.1-.4.2-.5.2-1 .3-1.5.4 0 0 .1 0 .1.1.1.3 0-.1.3.1s.2-.1.4.4c-.4.2-.7.4-1.1.5-1.2.3-1-.3-1.1.7l-3.6.2c-1.4-.3-.6-.3-.7-.5-.3-.5 0-.4-.3-1.1-1.6 1-.6.3-2.6.2s-1.2-.2-1.1-.4l.1-.1.3-.7c-1.4.1.2.1-.6.3l-.7-.2h-.8l-.2.1c-.4.1.5.1-.6.2l.7.3.1.1c-1 .1-.5.2-1.7.1-2.1-.2-1.4.7-4.9-.1-.4-.2-.9-.2-1.4-.2-.9-.1-.6-.2-1.4-.4.1-1.1.6-1 1.4-1.2.9-.3 1.9-.5 2.8-.4-.2-.1 0-.1-.5-.2s-.1 0-.6 0c-1.5.1-3-.1-3.8.4s.2.1-.7.3v.8h.8c-.4.6 0 .1-.4.3-1.3.5-6 .3-7.6.3v.6c-1.1 0-2.2.2-3.2.4.4-1.4.8 0 2.2-1-.5 0-1 0-1.5-.1s-.5.1-.7-.5c-.5-.3-.5-.5-1-.2-.1.4 0 .3-.2.6l-.9-.1c-1.8-.4-.8.8-4.4-.4-.7-.2.1-.1-.7-.3l-.6.4c-.4-.3-.3-.4-1-.4-.5 0-.5.1-1.2.2-1.8.1-1.5 0-2.4-.6.2 1 .1.3 0 .6l-3.7.1c-1.4 0 .3-.4-1.1-.2s-.2 1-1.9.2c-1.5-.7-.4.3-2.2.4 0-1.5 1.1-1.3 1.2-2.6-.4.1-2.6 1.8-2.8 2.4-1.6 0-.3-.2-1.9.1-.9.2-.8-.2-1.5-.7-.6.5-1.2.9-1.9 1.1-1.4.3-2-.5-2.1.9-1-.4.2-.1-.8-.4-.4.9.1.8-1.2.8.3-.4.8-1 .1-1.6-.3-.3-.5-.3-.7-.1-.4.4-.1-.1-.1.3l.2.4c-.9-.2-1.1-.8-1.7-.9-.8-.1-1.7 0-2.5.1v-.2c0-.3.2.3 0-.3-.1-.2 0-.3-.7-.4-.3.6-.1.7-.3 1.3-.1.4-.4.5-.7.9-.4-.4-1-.6-1.6-.6l.3-.3.3-.3c-1 .2-.6 0-1.8 0 0 .3.1.7.2 1-1.5 0-1.1.3-2.2.4 0-.8-.1-.6.2-1.2-1.1 0-1.7-.2-2.2.4.5 0 .9-.1 1.4-.2-.4 1.4-1 .2-2.7.7-1 .4-2.1.4-3.1.1-.3-1.2-.1-.5 0-1.6-.3.1-.6.2-.9.4-.8.3-.7.1-.9.1-1.4.1-.4.3-.7 1.1-1-.1-.3-.2-1.2-.8s-.4.1-1-1c1.2.3.4 0 1.6-.2H163v-.3c-1.4 0-1.3-.3-2.4-.4l-4.2-.2c-.8-.1-1.2-.5-2.1 0-.2.1.6 0-.4.2h-.8c0-.1.1-.4.2-.4.1-.5.2 0 0-.4-.5.3-.2.2-1 .2-.5-.6-.7 0-.9.1-.6.4.1.3-.9.2s-6-.3-6.4.3v.2l-.1-.1-.2.1-.3.1c2 0 2.6.4 6 .4-.2.7-.9 1.2-1.6 1.2-1.2 0-.2-.6-2.2-.2 0-1.2.1-.6-.4-.8-.2.5-.1.5.2 1l-3 .1h-1.1c-.1 0 0 .1-.5 0s-.3-.1-.4-.1c-.8-.2-.4 0-.9 0-.3.1-.6 0-.8-.2-.5-.4-.4.1.1-.7-1.1 0-1.4.1-1.6-.8.8.4.5.4 1.2.2h.1l.5-.1c.6-.2.4.1.6-.4s.2.2-.2-.2c-1.1-1-.4-.8-1.8-.8-.4 1.3-1.2.4-.8 1.4-.6-.2-.5-.3-.8-.3-.6 0 .3 0-.5.3-.7-.2-1.5-.3-2.2-.2-.2-.8-.9-1-2-1v-.1l-.6-.7-1.2 1.3c-1 .8-2.8-.1-3.8-.1.4-.6 0-.4 1-.4v-.3c-1.4-.1.2-.2-1.2-.6-.2.5.1-.1.2.8l-1.2.2c0-.8.9-1.6-2-1.9-4.3-.5-2.3.5-4.6 1.3l-.5.1c-3.5 1.1-1.5.4-5.3.7v-.6c-.4.3-.4.4-.9.5h-.4c-.1 0-.2-.1-.3-.1l-.2-.3z"/><path class="st0" d="M209.1 11c.8 0 .9.1 1.8.2 2.3.1-.4.3 1.4.4v-.4c3-.1-.1.5 3.4-.2.6-.1 1.2-.3 1.8-.3.8 0 1 .6 1.6-.3-.9-.1-.7-.3-1.8-.1-.6 0-1.1 0-1.6.1v.4c-.7-.2-.3-.2-.9-.4h-1.1c-.2-.3 0-.3-.5-.4h-1.1c0 .1.1.1 0 .8l-3 .2zM25.9 4.6c1.1.5 2.4.4 3.4-.3l.6-.4c-.8-.2-1.6-.3-2.4-.4-1-.1-1.3.4-1.6 1.1zM298.6 4.6c1.3.6 1.3.4 2.8-.1l1.3-.7c-.8-.2-1.6-.3-2.4-.4-1.1 0-1.4.5-1.7 1.2zM41.7 4.2c.4 1.5 1-.3 1.4 1.2h.8l-.1-.8c-.3-1.1-1.2-.2-2.1-.4zM314.4 4.2c.4 1.5 1-.3 1.4 1.2h.8c0-.3.1-1.4-.8-1.4s-.2.4-1.4.2zM164.5 10.4c.9 0 .7.2 1.4.2.5-.1 1.1-.1 1.6-.2V10c-2.4-.2-2.4-.5-3 .4zM62.2 8.2c1.3.4-.7 0 .6.4.2-.5-.1-.3.4-.4h1v-.4c-.7-.2-1.3-.2-2-.2-.2.5-.2.1 0 .6zM16.1 6.4c.5.3.7.2 1.6.2.6 0 .4-.1.6-.4-.5-.2-2.2-.5-2.2.2zM288.7 6.4c.5.3.7.2 1.6.2.6 0 .4-.1.6-.4-.4-.2-2-.5-2.2.2zM305.4 3.4v.2l1.6.2c.3-.8-.1-.3 1.2-.2v-.4c-1.3 0-1.7.2-2.8.2zM32.7 3.4v.2l1.6.2c.3-.8-.1-.3 1.2-.2v-.4c-1.3 0-1.7.2-2.8.2zM308.4 3.6h2.4c-.4-.6 0-.4-1-.4h-1.4v.4zM35.7 3.6h2.4c-.4-.6 0-.4-1-.4h-1.4v.4zM136.2 4c-.7-1-1.1-1-2.2-1.6.2.7.2.6.9.9.4.3.9.5 1.3.7zM408.9 4c-.7-1-1.1-1-2.2-1.6.2.7.2.6.9.9.4.3.9.5 1.3.7zM225.3 12v-.4l.2-.4c-1.1-.3-.9-.6-1.4.4.7.2.6.3 1.2.4zM308.2 7.6c.9.2 1.1.5 1.4-.4-.4-.1-1.4-.6-1.4.4zM35.5 7.6c.9.2 1.2.5 1.4-.4-.4-.1-1.4-.6-1.4.4zM326.7 6.4l2 .2v-.4c-1.1 0-1.1-.2-2-.2v.4zM323.1 5.2l-.1-.1-.6-.5c-.5-.3-1.1-.2-1.5.1.7.3 1.4.5 2.2.5zM50.3 5.2l-.1-.2-.8-.4c-1-.2-1.1.2-1.2.2.7.2 1.4.4 2.1.4zM312.4 3.6c2.8 0 2.9.4 3.8-.4l-3.8.4zM39.7 3.6c1.5 0 2.9.2 3.5-.1.6-.4.1-.1.3-.3l-3.8.4zM250.6 9.6c1.2 0 1.5-.2 2.6-.2v-.2c-1 0-2.1-.2-2.6.4zM252 8.8c.9 0 1.1-.2 2.2-.2v-.2H252v.4zM238.8 13c.8 0 .8.1 1.4-.2-.2-.3 0-.4-.6-.4s-.7.3-.8.6zM235.4 9.8c.8 0 .5.2 1.4.2.6 0 .4-.1.6-.4h-2v.2zM44.7 4.8c.4.1.8.2 1.2.2-.4-.6-.3-.6-1.2-.6v.4zM317.4 4.8c.4.1.8.2 1.2.2-.4-.6-.3-.6-1.2-.6v.4zM312.8 5.6c.4.1.9-.1 1.2-.4-.2-.3-.1-.2-.2-.6l-1 1zM40.1 5.6c.4.1.9-.1 1.2-.4-.1-.2-.2-.4-.2-.6l-1 1zM51.1 7.2h1.6c-.2-.1-.1-.1-.3-.3s-1.2-.2-1.3.3zM323.9 7.2h1.6c-.1-.1 0-.1-.3-.3s-1.3-.2-1.3.3zM204.3 10.6c1.3 0 1.4.4 1.8-.2h-1.8v.2zM323.1 5.2l-.3.4h1.3v-.4zM50.3 5.2l-.2.4h1.2v-.4zM140.7 10.4c1 0 .8.2 1.2-.4h-1.2v.4zM399.7 8.4c.7-.1.7-.1.8-.8-.7.2-.6.1-.8.8zM127 8.4c.7-.1.7-.1.8-.8-.7.2-.6.1-.8.8zM310.8 4.8c.8-.1.6.1.8-.6h-.8v.6zM38.1 4.8c.8-.1.6.1.8-.6h-.8v.6zM59.4 7.2c.6 0 .4-.1.6-.4h-1.4c.5.4.3.4.8.4zM332.1 7.2c.6 0 .4-.1.6-.4h-1.4c.2.1.1.1.3.3s-.3.1.5.1zM343.9 8.4l1-.2v-.8l-1 1zM71.2 8.4l1-.2v-.8l-1 1zM406.9 9c.5.6.5.6 1.2.4l-.4-.3-.1-.1c-.1 0-.5-.2-.7 0zM354 5.8h.8v-.4l-.8-.2zM71 5l.4.2c.6 0 .4-.1.6-.4-.4-.1-.9-.4-1 .2zM343.7 5l.4.2c.6 0 .4-.1.6-.4-.4-.1-.9-.4-1 .2zM35.5 5h1v.4h-1zM308.2 5h1v.4h-1z"/><path class="st0" d="M225.3 11.6h2v.2h-2zM55 6.2h1v.4h-1zM134.2 9c.4.6.5.6 1.2.4l-.1-.1-.7-.4c-.1 0-.3 0-.4.1zM259.2 8.4l1.2.2v-.4h-1.2zM82.3 8.4c.8-.1.6.1.8-.6h-.8c.1.4.2.2 0 .6zM316.8 4.2c.8-.6-.1-.6 1-.6v-.2h-1v.8zM44.1 4.2c.8-.6-.1-.6 1-.6v-.2h-1v.8zM214.1 10.2l1.1-.1c.3-.1.2-.1.3-.3-.6 0-1.3-.1-1.4.4zM285.9 8h1.8v.2h-1.8zM100.3 10.2h1.2c-.1-.1-1.1-.9-1.2 0zM318.1 6.6h1v-.4c-.6 0-1-.1-1 .4zM45.3 6.6h1v-.4c-.5 0-.9-.1-1 .4zM232.4 5.2h1c-.4-.6 0-.4-1-.4v.4zM114.6 11.6c.4 0 .3.1.8-.4h-1.2c.1.2.1.4.4.4zM387.3 11.6c.5 0 .3.1.8-.4h-1.2c.1.2.1.4.4.4zM355 8.4c.9-.1.4.2.8-.4-.2-.1-.5-.2-.8-.2.1.4.2.2 0 .6zM45.7 3.4h1.6v.2h-1.6zM318.4 3.4h1.6v.2h-1.6zM64.6 5.4h.8v.4h-.8zM337.3 5.4h.8v.4h-.8zM54 6h.8v.4H54zM237.4 11.8h.8v.4h-.8zM328.3 5.4h1c-.1-.2-.1-.4-.4-.4s-.6.1-.6.4zM373 10.2h1c-.1-.2-.1-.4-.4-.4s-.5.1-.6.4zM55.6 5.4h1c-.1-.2-.2-.4-.4-.4s-.6.1-.6.4zM334.9 4.2h1c-.1-.1 0-.1-.3-.3-.5-.2-.1-.1-.7-.1v.4zM62.2 4.2h1c-.2-.1 0-.1-.3-.3-.5-.2-.1-.1-.7-.1v.4zM28.9 9.4h1c-.2-.1 0-.1-.3-.3-.5-.1-.2 0-.7-.1v.4zM234.2 11.6v-.4h-1c.1.1 0 .1.3.3.5.2.1.1.7.1zM82.1 5.8c-.2-.5 0-.4-.8-.6.4.9-.2.5.8.6zM142.4 10.4h1.4v.2h-1.4zM215.9 9.8h1.4v.2h-1.4zM301.6 9.4h1v-.2c-.3 0-.7-.1-1-.2v.4zM98.9 8.4h.8V8c-.5.1-.7 0-.8.4zM292.5 1.4c.9-.1.4.2.8-.4h-.8v.4zM19.8 1.4c.9-.1.3.2.8-.4h-.8v.4zM353.6 5.8v-.4h-.8c.4.6-.2.3.8.4zM80.8 5.8v-.4H80c.5.6-.1.3.8.4zM265.3 5.6h.6c-.2-.6.3-.1-.6-.6v.6zM372.4 8c-.9.1-.4-.2-.8.4 1.2 0 .6.1.8-.4zM57.6 6.6h.6V7h-.6zM368.4 4.8h.6v.4h-.6zM330.3 6.6h.6V7h-.6zM235 11.4h1.2v.2H235zM79.2 8.2c.7.1.6.4.8-.4l-.4.2c-.4.2-.1 0-.4.2zM351.9 8.2c.7.1.6.4.8-.4-.1 0-.4.1-.4.2-.4.2-.1 0-.4.2zM69.2 6c-.4-.6.1-.3-.8-.4.5.6-.1.3.8.4zM241 7.2c-.5-.6.1-.3-.8-.4.4.6-.1.3.8.4zM341.9 6c-.5-.6.1-.3-.8-.4.5.6-.1.3.8.4zM35.1 7.4h-.8c.4.6.4.6.8 0zM307.8 7.4h-.8c.4.6.4.6.8 0zM353.2 8.6c.3 0 .2.1.5-.1.7-.3.3-.1.5-.3-.6.1-.8.1-1 .4zM218.1 11h1v.2h-1zM99.3 9.6h.6v-.4c-.3.1-.5.1-.6.4zM372 9.6h.6v-.4c-.3.1-.5.1-.6.4zM95.7 5.2h.6v-.4c-.4.1-.5 0-.6.4zM229.8 9.8c-.2-.6 0-.4-.6-.6.4.8-.1.4.6.6zM208.1 10.8v-.4h-.8c.2.1-.1 0 .4.2l.4.2zM53 6.2c.6-.1.3 0 .6-.4H53v.4zM209.1 10.6c.6-.1.3 0 .6-.4h-.6v.4zM325.7 6.2c.6-.1.3 0 .6-.4h-.6v.4zM121.4 11.8h.6c-.3-.4 0-.3-.6-.4v.4zM394.1 11.8h.6c-.3-.4 0-.3-.6-.4v.4zM80.6 8.6c.4-.1 0 .1.5-.1l.3-.3c-.4.1-.7 0-.8.4zM380.4 9.4c.4-.1 0 .1.5-.1.3-.1.2-.1.3-.3-.4.1-.7 0-.8.4zM107.7 9.4c.4-.1 0 .1.5-.1l.3-.3c-.4.1-.7 0-.8.4zM4.6 1.6h.8v.2h-.8zM287.9 9.4h.8v.2h-.8zM277.3 1.6h.8v.2h-.8zM15.2 9.4h.8v.2h-.8zM244.4 9.6h.8v.2h-.8zM321.8 4.2h.8v.2h-.8zM337.3 9h.8v.2h-.8zM64.6 9h.8v.2h-.8zM49.1 4.2h.8v.2h-.8zM239.2 10.2h.8v.2h-.8zM130.8 7.6c.6-.5.3.1.4-.8-.1.1-.1 0-.3.3-.2.5 0 .2-.1.5zM403.5 7.6c.6-.5.3.1.4-.8-.1.1-.1 0-.3.3-.2.5 0 .2-.1.5zM372.4 8c.6-.1.3 0 .6-.4-1 .1-.3-.2-.6.4z"/><path class="st0" d="M207.3 10.4c-.1 0 .2-.4-.4-.1s0-.2-.2.3c.5-.1.1 0 .6-.2zM100.3 7.6h-.6c.5.6.2.6.6 0zM373.2 8.2h-.6c.5.6.2.6.6 0zM100.5 8.2h-.6c.5.6.2.6.6 0zM327.3 8.2l.4-.4c-1.1 0-.3 0-.6.2l.2.2zM54.6 8.2l.4-.3c-1.1 0-.3 0-.6.2l.2.1zM30.7 5.2c.6-.1.3 0 .6-.4-.4.1-.6 0-.6.4zM337.1 7.8c.6-.1.3 0 .6-.4-.4.1-.5 0-.6.4zM64.4 7.8c.6-.1.3 0 .6-.4-.4.1-.5 0-.6.4zM303.4 5.2c.6-.1.3 0 .6-.4-.4.1-.6 0-.6.4zM237.2 12.8h.6v.2h-.6zM49.7 3.4h.6v.2h-.6zM227.1 10h.6v.2h-.6zM82.3 8.6h.6v.2h-.6zM10.2 6.2h.6v.2h-.6zM282.9 6.2h.6v.2h-.6zM322.4 3.4h.6v.2h-.6zM355 8.6h.6v.2h-.6zM119.6 11.6h.6v.2h-.6zM309.2 4.4h.6v.2h-.6zM36.5 4.4h.6v.2h-.6zM392.3 11.6h.6v.2h-.6zM405.1 1.2h.6v.2h-.6zM249.2 9h.6v.2h-.6zM132.4 1.2h.6v.2h-.6zM69.6 7.8h.6V8h-.6zM163.5 10.2h.6v.2h-.6zM342.3 7.8h.6V8h-.6zM291.3 10.6l-.6-.4c.2.5-.4.4.6.4zM411.5 6c-.2-.6.4-.3-.6-.4 0 0 .1 0 .1.1s.1.1.1.1.3.1.4.2zM183.4 5.8c-.3-.4 0-.3-.6-.4.3.5 0 .2.6.4zM138.8 6c-.2-.6.4-.3-.6-.4 0 0 .1 0 .1.1l.5.3zM306 5.4c0 .2.4.4.3 0-.1-.1-.4-.5-.3 0zM33.3 5.4c0 .2.4.4.3 0-.1-.1-.4-.5-.3 0zM334.9 7.6c-.1-.5.1-.3-.4-.4.1.5-.1.2.4.4zM62.2 7.6c-.1-.5.1-.3-.4-.4.1.5-.1.2.4.4zM87.5 8.8c.2.2.7-.3.2-.1 0 0-.6-.2-.2.1zM230.4 10.6c.2.2.7-.3.2-.1 0 0-.6-.2-.2.1zM210.5 10.6c.2.2.7-.3.2-.1 0 0-.6-.2-.2.1zM376.2 8.8c.2.2.7-.3.2-.1.1 0-.5-.2-.2.1zM111.8 8.4c.2.2.7-.3.2-.1 0 0-.6-.2-.2.1zM73 9c.2.2.7-.3.2-.1.1 0-.5-.2-.2.1zM17.2 7.2c.2.2.7-.3.2-.1.1 0-.5-.2-.2.1zM225.5 9.6c.2.2.7-.3.2-.1.1 0-.5-.2-.2.1zM345.7 9c.2.2.7-.3.2-.1.1 0-.5-.2-.2.1zM384.5 8.4c.2.2.7-.3.2-.1 0 0-.6-.2-.2.1zM302.2 7.8c.2.2.7-.3.2-.1 0 0-.6-.2-.2.1zM29.5 7.8c.2.2.7-.3.2-.1 0 0-.6-.2-.2.1zM339.9 7.2c.2.2.7-.3.2-.1 0 0-.5-.2-.2.1zM237.4 9.4c.2.2.7-.3.2-.1 0 0-.5-.2-.2.1zM75.8 8.8c.2.2.8-.3.3-.1 0 0-.6-.2-.3.1zM360.2 8.8c.2.2.7-.3.2-.1 0 0-.6-.2-.2.1zM228.9 11.8c.2.2.7-.3.2-.1.1 0-.5-.2-.2.1zM103.5 8.8c.2.2.7-.3.2-.1.1 0-.5-.2-.2.1zM348.5 8.8c.2.2.7-.3.2-.1.1 0-.5-.2-.2.1zM253.6 9.4c.2.2.7-.3.2-.1 0 0-.5-.2-.2.1zM202.9 10.8c.2.2.7-.3.2-.1 0 0-.6-.2-.2.1zM67.2 7.2c.2.2.7-.3.2-.1 0 0-.5-.2-.2.1zM289.9 7.2c.2.2.7-.3.2-.1.1 0-.5-.2-.2.1zM263.3 8.4c.2.2.7-.3.2-.1 0 0-.6-.2-.2.1zM238.8 9.8c.2.2.7-.3.2-.1 0 0-.6-.2-.2.1zM379.8 9.2c.2.2.7-.3.2-.1.1 0-.5-.2-.2.1zM237.4 13.4c.2.2.7-.3.2-.1 0 0-.5-.2-.2.1zM268.3 9.2c.2.2.7-.3.2-.1 0 0-.6-.2-.2.1zM107.1 9.2c.2.2.7-.3.2-.1.1 0-.5-.2-.2.1zM261.8 8.8c0 .2.4.5.3 0s.5 0-.1-.1c-.2 0-.2-.3-.2.1zM378.1 7.8c0 .2.4.5.3 0s.5 0-.1-.1c-.3 0-.2-.3-.2.1zM105.3 7.8c0 .2.4.5.3 0s.5 0-.1-.1c-.2 0-.2-.3-.2.1zM14.6 9.6c0 .2.4.5.3 0s.5 0-.1-.1c-.2 0-.2-.3-.2.1zM319.8 8.6c0 .1.2 0 .2 0s.4.5.1 0c.1 0-.3-.4-.3 0zM315.2 8.4c0 .1.2 0 .2 0s.4.5.1 0c0 0-.3-.4-.3 0zM366.4 9.2l.2-.4c-.3.1-.2-.1-.3.1s0 0 .1.3zM93.7 9.2l.2-.4c-.3.1-.2-.1-.3.1 0 .3-.1 0 .1.3zM184.4 7.2c0 .1.2 0 .2 0s.4.5.1-.1c-.3 0-.3-.2-.3.1zM196.4 8.8c0 .1.2 0 .2 0s.4.5.1 0h-.1c-.1 0-.2-.4-.2 0zM47.1 8.6c0 .1.2 0 .2 0s.3.5.1 0h-.1c-.1 0-.2-.4-.2 0zM42.5 8.4c0 .1.2 0 .2 0s.3.5.1 0h-.1c-.1 0-.2-.4-.2 0zM68.8 9h.2l-.2-.2zM341.5 9h.2l-.2-.2zM225.3 12v.2l.3-.1zM49.1 3.4c.2.1-.2.5 0 0 .1 0 .1 0 0 0zM6.6 10.2s.1-.1 0 0c.1 0 0 0 0 0zM227.9 10.6c.1 0 0 0 0 0zM270.5 7.6zM232.8 11.6s-.1 0 0 0zM288.7 8.2c.1 0 0 0 0 0zM228.5 7.8c.1 0 0 0 0 0zM251.6 10.2c.1-.1 0 0 0 0zM262.3 8.4c0-.1-.1 0 0 0zM262.3 7.8c0-.1-.1 0 0 0zM51 7.8s-.1 0 0 0zM233 10.6s-.1 0 0 0zM224.9 10.6l.4.2-.4-.2zM224.9 10.6l-.4-.2.4.2zM382.3 8.4l-.2-.4.2.4z"/></svg>