<?xml version="1.0" encoding="utf-8"?>
<!-- Generator: Adobe Illustrator 21.0.0, SVG Export Plug-In . SVG Version: 6.00 Build 0)  -->
<svg version="1.1" id="Слой_1" xmlns="http://www.w3.org/2000/svg" xmlns:xlink="http://www.w3.org/1999/xlink" x="0px" y="0px"
	 viewBox="0 0 206 416.8" style="enable-background:new 0 0 206 416.8;" xml:space="preserve">
<style type="text/css">
	.st0{opacity:0.5;fill:#131313;enable-background:new    ;}
</style>
<title>Монтажная область 3</title>
<path class="st0" d="M7.8,305.3c-0.3,0.3-0.6,0.6-0.8,1c1.6-0.3-0.6-0.1,1.6,0.4c0.2,2.4,0.3-0.4-0.2,2c0,0.3,0,0.7,0,1H8.3
	c-0.6,0.2-0.3-0.1-0.6,0.4l0.8,0.3c0,0.5-0.1,1-0.2,1.4c0,1.6,1,0,1.4,4c-0.7,0-0.6-0.4-1.2,1.8c-0.4-0.1-0.2-0.1-0.5-0.3
	c-0.7-0.4,0.4,0-0.5-0.3c-0.1,0.7-0.3,1.4-0.5,2.1c-0.4,1.7,0.1,0,0.1,1.9c0.3,0,0.7-0.1,1-0.2c0,0.4,0.1,0.8,0.2,1.2l0.4,0.7
	c-0.7,0.2-0.5,0.2-1-0.2c0,1.3,0.4,0.6,0.9,1.1l0.2,0.2l0.1,0.1v0.1c0.1,0.5,0.1,1,0.1,1.6c-0.2,1.4-0.2-0.1-0.6,1.2l0.4,1.4
	c-0.6,0-0.4,0-0.8,0.2c0.5,0.7,0.3,0.4,0.3,1.1c0,0.6,0,1.1-0.1,1.7c-0.2-0.2-0.3-0.4-0.4-0.6l-0.1,0.3c-0.1,0.2-0.1,0.4-0.1,0.6
	c0.7,0.2,0.7,0.3,0.8,1l0.2,1.2c0,0.2-0.1,1-0.1,1v0.1l-0.1,0.4v0.1l-0.1,2.8c-1-0.3-0.2-0.3-1.2-0.6c1,1.8,1.3,1.3,1.4,2
	c0.1,0.7-0.1,0.6-0.4,0.8c-0.5-0.3-0.5-0.2-0.6-1H6.9c-0.1,0.7-0.3,0.4,0.1,0.9c0.6,1,1.4,0.5,1.5,3.1c-0.4,0.1-0.2-0.1-0.4,0.2v0.6
	c-0.4,1.5-0.1,1.3-0.6,2c0.8,0.4,0.5-0.1,1,0.6c-0.1,0.2-0.2,0.4-0.4,0.6c-0.2,0.3-0.1,0.2-0.2,0.6c0.8,0.2,0.6,0.1,0.6,1H8.1
	c0,0.1,0,0.3,0,0.4c0.1,0.4,0.1,0.2,0.2,0.4c0.1,1,0.9,1.7,0,2.1c-0.9,0.5,0.2,0-0.2,0.1c-1.1,0.2,0.5-0.4-0.3,0
	c0.3,0.5,0.2,0.2,0.2,1c0.5,0.2,0.2,0.1,0.8,0c-0.1,0.6,0,0.2-0.1,0.4c-0.3,0.4-0.8,0.6-1.3,0.6l-0.3,1.2c-0.2,0.4-0.1-0.2,0,0.3
	s0-0.3,0.1,0.4c0.2,1.3-0.5,0.7,0.5,2.7l0.7-0.5l0.1,0.1c-0.1,1.4-0.3,2.8-0.6,4.2c-0.1-0.2-0.1,0-0.2-0.4c0-0.2,0-0.4,0-0.6
	l-0.4,0.4l-0.2,0.2c-0.5,1.1,0.2,2,0.2,3c-0.1,1.5-0.4-0.4-0.4,1.3c0,0.6,0.3,0.9,0.4,1.6c-0.5,0.1-0.5,0.3-0.8,0.6
	c0.1-0.5,0.2-0.9,0.2-1.4H6.3c0,0.5-0.1,1.1-0.2,1.6c1.5,0,1-0.3,2-0.6c0,0.9,0.5,4.3,0.3,5.5c-0.4,1.7,0.4,0.2,0,1.8
	c-0.3,1.3,0,1-0.1,2.4s-0.6,1.5-0.6,3.2c0.8,0.3,0-0.2,0.8,0.2c-0.1,0.4,0,0.9,0.1,1.3c0.5,1.2,0.8,2.5,0.7,3.8
	c-0.2-0.1-1-0.8-0.7,0.5l0.5,2c-0.2,0.1-0.3,0.2-0.5,0.3l-0.1,0.1l-0.1,0.1l-0.1,0.1L8,390.5c0,0.6,0,0.2,0.2,0.8
	c-0.6,0.2-0.1-0.1-0.6,0.4c0.1,0.4-0.1,0.2,0.5,0.4h0.1l-0.3,4.1c0,0,0.1,0.7,0.1,0.9c0.3,0.1-0.1,0.2,0.3,0c0.4-0.2,0,0,0.4-0.2
	c0,1-0.2,0.6,0.4,1c0.2-0.7,0.1-0.5,0.6-0.8c0,1,0.2,1.4,0.2,2.6v2.8l0.8,0.2c-0.2,0.8,0,1.2-0.6,1.6c0-1.7-0.4-0.9-0.4-2.6
	l-0.2,1.7c-0.7,0.4-0.5,0.8,0,2.3c0.2,0.7,0.2,0.2,0.3,1.1l-0.4,5.3c-0.4-0.3-0.2-0.2-0.8-0.4c0-1.4-0.3-1.4,0.6-1.2v-1.8
	c-1.1-0.4-0.1-0.7-1-1.4c-0.1,1.8-0.2,3.6-0.1,5.4v2.4c0.1,0.9,0,1.8-0.1,2.7c0.6-0.3,0.5,0,1.6,0l0.2-4l0.4,0.7
	c0.4,0.5-0.1,0.1,0.2,0.1h0.1c0.1,1.1,0.2,2.1,0.2,3.2H206V-1H10.9c0.2,0.3,0.2,0.7,0,1c-0.3,0.6-0.3,0.4-0.8,0
	c0,1.1,0.1,1.4-0.8,1.6c0.8-1.4,0-0.6,0-2.4H8.7c-0.2,1.6-0.8-0.6-0.8,2C9.2,1.7,8.3,2.4,9.3,2C9.1,2.6,9,2.5,9,2.7
	c0,0.6,0-0.3,0.3,0.5C9.1,3.9,9,4.7,9.1,5.4C8,5.7,8.6,6,7.9,7.4C7.3,7.6,7.8,7.3,7.3,7.8c0.1,0.5,0,0.3,0.5,0.7l0.1,0.2l0.7,0.6
	c0.9,1.2-0.4,2.9,0.1,4c-0.6-0.2-0.6-0.4-0.6-1.2H7.6c-0.1,1.4-0.2-0.2-0.6,1.2c0.5,0.2-0.1-0.1,0.8-0.2L8,14.3
	c-1.4-0.1-1.3-0.6-1.8,1.3v0.1l-0.4,2.5c0,0,0.2,0.9,0.3,1l0.5,0.7l0.6,0.7c0.7,1.3,1,2.8,0.9,4.3c0,0.6,0,1.3,0.1,1.9H7.7
	c0.3,0.4,0.4,0.4,0.5,0.9S8,28.3,7.9,28.6c-0.6,0.7-0.3,0.1-0.4,1.1C8,30.3,7.6,30,8.7,30.3c0.2,2.4,0.3-0.5-0.2,2c0,0.3,0,0.7,0,1
	c-0.4,0.2-0.4-0.1-0.8,0.4l0.8,0.2c0,2.1-0.7,1.4,0.4,2.6c0.5,0.8,0.8,1.8,0.8,2.8c-0.7,0-0.6-0.5-1.2,1.8c-0.7-0.2-0.3-0.3-1-0.6
	c-0.1,0.7-0.3,1.4-0.5,2.1c-0.4,1.7,0.1,0,0.1,1.9c0.3,0,0.7-0.1,1-0.2c0,0.4,0.1,0.8,0.2,1.2h0.4c-0.1,1.1-0.4,0.8-1,0.4
	c0,0.4-0.1,0.4,0.1,0.7C8,46.9,8,46.7,8.2,46.8s0.3,0,0.6,0.5c0.8,1.5-0.4,3-0.4,3l0.4,2.4c-0.6,0-0.4,0-0.8,0.2l0.3,0.8v0.1
	c0.1,0.7,0,1.4-0.1,2c-0.2-0.2-0.3-0.4-0.4-0.6l-0.1,0.1l-0.1,0.1c-0.1,0.2-0.1,0.4-0.1,0.5c1.1,0.3,0.6,0.7,0.8,1.7L8,61.7
	c-0.1,0.6,0-0.6,0,0.2c0,0.1,0,0.2,0,0.3c0.1,0.3,0-0.1,0.2,0.5c-1-0.3-0.2-0.3-1.2-0.6c0.2,0.5,0.6,1,1,1.4
	c0.4,0.4,0.3,0.1,0.4,0.6C8.5,64.7,8.3,64.7,8,65c-0.5-0.4-0.5-0.2-0.6-1H7c-0.4,2,1.5,0.2,1.6,3.8c-0.3,0.1-0.3,0-0.5,0.3v0.3
	L8,69.1v0.1c-0.1,1,0.1,0.5-0.4,1.2c0.8,0.4,0.5-0.1,1,0.6c-0.1,0.2-0.2,0.4-0.4,0.6C8,71.9,8.1,71.8,8,72.2c0.8,0.2,0.6,0.1,0.6,1
	L8.4,74c0.1,1,0.9,1.6,0,2.1s0.2,0-0.2,0.1c-1.1,0.3,0.5-0.3-0.3,0c0.3,0.5,0.2,0.2,0.2,1c0.5,0.2,0.2,0.1,0.8,0c-0.1,1,0.5,0-1,1
	c0-0.5-0.1-0.3-0.1-0.5l-0.1-0.3c-0.4-1.4,0.2-0.7-0.5-1.3C7,76.8,7,77.4,7,78.1c0.5,0.2,0.1,0.2,0.6,0v0.7v0.1l-0.2,0.4
	c-0.2,0.4,0-0.2,0.1,0.7C7.7,81.3,7,80.7,8,82.7c0.5-0.1,0.5-0.3,0.8-0.6c-0.1,1.4-0.3,2.8-0.6,4.2c-0.1-0.2-0.1,0-0.2-0.4
	c0-0.2,0-0.4,0-0.6l-0.4,0.4l-0.2,0.2c-0.5,1.1,0.2,2,0.2,3c-0.1,1.5-0.4-0.4-0.4,1.4c0,0.6,0.3,0.9,0.4,1.6l-0.8,0.6
	C6.9,92,7,91.6,7,91.1H6.5c0,0.5-0.1,1.1-0.2,1.6c1.5,0,1-0.3,2-0.6c0,0.5,0,1.1,0.2,1.6c0.2,1.1,0.2,2.3,0,3.4c0,0.9,0.1,0,0.2,0.7
	c0,0.4,0,0.3-0.1,0.6c-0.3,1.3,0,1-0.1,2.4s-0.6,1.5-0.6,3.2c0.8,0.4,0-0.1,0.8,0.2c-0.1,0.4,0,0.9,0.1,1.3l0.2,0.4l-0.3,0.3
	c0.4,1.1,0.5,2.2,0.5,3.3c-0.6-0.1-0.3-0.2-0.8,0c0.1,0.9,0.4,0.5,0.4,1.1l0.2,1.1c-0.4,0.2-0.6,0.5-0.7,0.9l-0.1,0.1
	c-0.4,0.9-0.2,0.7,0,1.6c-0.6,0.3-0.1-0.1-0.6,0.4c0.2,0.6-0.1,0,0.2,0.3l0.4,0.1l0.1,0.7l-0.1,1.7H7.7c0,0,0,0-0.1,0v0.8
	c0,0,0,0,0.1,0s0.1,0,0.2,0.1c0.2,0,0-0.1,0.3,0.1c-0.7,1-0.2,0.2-0.2,1.6c0.3,0.1-0.1,0.2,0.3,0c0.4-0.2,0,0,0.4-0.2
	c0,0.8-0.1,0.5,0.2,1c0.6-0.5,0.2-0.3,0.8-0.8c-0.2,1.1,0.6,2.7,0.1,4.3l-0.3,1.5c-0.7-0.1-0.1,0-0.5-0.1s0.2,0-0.5-0.3
	c-0.1,0.7,0,0.6-0.4,1c0-1.1,0.4-5-0.4-5.9L8,132.5c0.1,0.8,0,1.8,0,2.6c0,0.3,0.1,0.8,0.1,1L8,139.5l-0.1-0.1l-0.5-0.5
	c-0.1,0.9-0.1,1.7,0,2.6c0.2,0.9,0.3,1.9,0.2,2.8c0.5-0.2,0.1-0.2,0.6,0c-0.3-1.4-0.5-2.8-0.4-4.2v-0.2l0,0c0.3,0,0.8,0.9,0.9,1.2
	l0.7,2.5c0.1,0.6,0.1,1.2,0,1.8c0.5,0.1-0.3,0.2,0.2-0.1s-0.2-0.2,0.2-0.1c0.3,0.6,0.2,0.4,0.2,1.2c-0.1,0.1-0.2,0.1-0.3,0.1H9.6
	H9.5H9.4c0.2,0.8,0.3,0.3,0.3,1c0,0.3-0.2,0.8-0.3,1.3c-0.2,1.2,0.1,0.5,0.2,1.6c0,0.3,0,0.5,0,0.8h-1c0.6,0.9,1,0.8,1.2,2.8
	c-0.7,0.1-0.7,0.1-0.8,0.8c0.8-0.2,1.2-1.1,1.4,1.2c-0.6,0.4-0.5,0.6-1.4,0.8v-1.6c-0.9,0.2-0.8,0.8-0.5,1.5v0.1
	c0.1,0.3,0.1,0.6,0.1,0.9c1-0.5,0.8-0.2,2.2-0.2c0,1.3,1.1,2.4,0.3,3.3l-0.7,0.3c-0.1,1.3,0,2.6,0.2,3.8c-0.8-0.2-0.6-0.4-1.2-0.8
	c-0.2,0.9-0.3,1.4,1,1.4c0.1,1,0.2,0.5,0.1,1.5c-0.1,0.6-0.5,1.4-0.3,2c0.3,1-0.1-0.4,0.1,0.3c0,0.1,0.1,0.2,0.2,0.4
	c0.2,0.5,0.3,1,0.4,1.5c0,0,0-0.1,0.1-0.1c0.3-0.1-0.1,0,0.1-0.3c0.2-0.3-0.1-0.2,0.4-0.4c0.2,0.4,0.4,0.7,0.5,1.1
	c0.3,1.2-0.3,1,0.7,1.1l0.2,3.6c-0.3,1.4-0.3,0.6-0.5,0.7c-0.5,0.3-0.4,0-1.1,0.3c1,1.6,0.3,0.6,0.2,2.6s-0.2,1.2-0.4,1.1l-0.1-0.1
	l-0.7-0.3c0.1,1.4,0.1-0.2,0.3,0.6l-0.2,0.7c0,0.2,0,0.5,0,0.8l0.1,0.2c0.1,0.4,0.1-0.5,0.2,0.6l0.3-0.7l0.1-0.1
	c0.1,1,0.2,0.5,0.1,1.7c-0.2,2.1,0.7,1.4-0.1,5c-0.2,0.4-0.2,0.9-0.2,1.4c-0.1,0.9-0.2,0.6-0.4,1.4c-1.1-0.1-1-0.6-1.2-1.4
	c-0.3-0.9-0.5-1.9-0.4-2.8c-0.1,0.2-0.1,0-0.2,0.5c-0.1,0.5,0,0.1,0,0.6c0.1,1.5-0.1,3,0.4,3.8s0.1-0.2,0.3,0.7h0.8v-0.8
	c0.6,0.4,0.1,0,0.3,0.4c0.5,1.3,0.3,6.1,0.3,7.7h0.7c0,1.1,0.2,2.2,0.4,3.2c-1.4-0.4,0-0.8-1-2.2c0,0.5,0,1-0.1,1.5s0.1,0.5-0.5,0.7
	c-0.3,0.5-0.5,0.5-0.2,1c0.4,0.1,0.3,0,0.6,0.2l-0.1,0.9c-0.4,1.8,0.8,0.8-0.4,4.4c-0.2,0.7-0.1-0.1-0.3,0.7l0.4,0.6
	c-0.3,0.4-0.4,0.3-0.4,1c0,0.5,0.1,0.5,0.2,1.2c0.1,1.8,0,1.5-0.6,2.4c1-0.2,0.3-0.1,0.6,0l0.1,3.7c0,1.4-0.4-0.3-0.2,1.1
	s1,0.2,0.2,1.9c-0.7,1.5,0.3,0.4,0.4,2.2c-1.5,0-1.3-1.1-2.6-1.2c0.1,0.4,1.8,2.6,2.4,2.8c0,1.6-0.2,0.3,0.1,1.9
	c0.2,0.9-0.2,0.8-0.7,1.5c0.5,0.6,0.9,1.2,1.1,1.9c0.3,1.4-0.5,2,0.9,2.1c-0.4,1-0.1-0.2-0.4,0.8c0.9,0.4,0.8-0.1,0.8,1.2
	c-0.4-0.3-1-0.8-1.6-0.1c-0.3,0.3-0.3,0.5-0.1,0.7c0.4,0.4-0.1,0.1,0.3,0.1l0.4-0.2c-0.2,0.9-0.8,1.1-0.9,1.7
	c-0.1,0.8,0,1.7,0.1,2.5h-0.1h-0.1c-0.3,0,0.3-0.2-0.3,0c-0.2,0.1-0.3,0-0.4,0.7c0.6,0.3,0.7,0.1,1.3,0.3c0.4,0.1,0.5,0.4,0.9,0.7
	c-0.4,0.4-0.6,1-0.6,1.6l-0.3-0.3c-0.3-0.3-0.1-0.1-0.3-0.3c0.2,1,0,0.6,0,1.8c0.3,0,0.7-0.1,1-0.2c0,1.5,0.3,1.1,0.4,2.2
	c-0.8,0-0.6,0.1-1.2-0.2c0,1.1-0.2,1.7,0.4,2.2c0-0.5-0.1-0.9-0.2-1.4c1.4,0.4,0.2,1,0.7,2.7c0.4,1,0.4,2.1,0.1,3.1
	c-1.2,0.3-0.5,0.1-1.6,0c0.1,0.3,0.2,0.6,0.4,0.9c0.3,0.8,0.1,0.7,0.1,0.9c0.1,1.4,0.3,0.4,1.1,0.7c-0.1,1-0.2,0.3-0.8,1.2
	c-0.6,0.9,0.1,0.4-1,1c0.3-1.2,0-0.4-0.2-1.6c0-0.7,0-1.5,0-2.2v-4.4H9.3c0,1.4-0.3,1.3-0.4,2.4L8.7,257c-0.1,0.8-0.5,1.2,0,2.1
	c0.1,0.2,0-0.6,0.2,0.4c0,0.2,0,0.5,0,0.8c-0.1,0-0.4-0.1-0.4-0.2c-0.5-0.1,0-0.2-0.4,0c0.3,0.5,0.2,0.2,0.2,1
	c-0.6,0.5,0,0.7,0.1,0.9c0.4,0.6,0.3-0.1,0.2,0.9s-0.3,6.1,0.3,6.5c0,0,0,0,0.1,0h0.1L9,269.5l0.1,0.2l0.1,0.3c0-2,0.4-2.6,0.4-6.1
	c0.7,0.2,1.2,0.9,1.2,1.6c0,1.2-0.6,0.2-0.2,2.2c-1.2,0-0.6-0.1-0.8,0.4c0.5,0.2,0.5,0.1,1-0.2l0.1,3c0,0.4,0,0.8,0,1.1
	c0,0.1,0.1,0,0,0.5s-0.1,0.3-0.1,0.4c-0.2,0.8,0,0.4,0,0.9c0.1,0.3,0,0.6-0.2,0.8c-0.4,0.5,0.1,0.4-0.7-0.1c0,1.1,0.1,1.4-0.8,1.6
	c0.4-0.8,0.4-0.5,0.2-1.2v-0.1l-0.1-0.5c-0.2-0.6,0.1-0.4-0.4-0.6s0.2-0.2-0.2,0.2c-1,1.1-0.8,0.4-0.8,1.8c1.3,0.4,0.4,1.2,1.4,0.8
	c-0.2,0.6-0.3,0.5-0.3,0.8c0,0.6,0-0.3,0.3,0.5C9,278.5,8.9,279.3,9,280c-0.8,0.2-1,0.9-1,2H7.9l-0.7,2.7l1.3,1.2
	c0.8,1-0.1,2.8-0.1,3.8c-0.6-0.4-0.4,0-0.4-1H7.7c-0.1,1.4-0.2-0.2-0.6,1.2c0.5,0.2-0.1-0.1,0.8-0.2l0.2,1.2c-0.8,0-1.6-0.9-1.9,2
	c-0.5,4.3,0.5,2.3,1.3,4.6l0.1,0.5c1.1,3.5,0.4,1.5,0.7,5.4H7.7c0.3,0.4,0.4,0.4,0.5,0.9c0,0.3,0,0.1,0,0.4c0,0.1-0.1,0.2-0.1,0.3
	L7.8,305.3z"/>
<path class="st0" d="M10.1,205.6c0-0.8,0.1-0.9,0.2-1.8c0.1-2.3,0.3,0.4,0.4-1.4h-0.4c-0.1-3,0.5,0.1-0.2-3.4
	c-0.1-0.6-0.3-1.2-0.3-1.8c0-0.8,0.6-1-0.3-1.6c-0.1,0.9-0.3,0.7-0.1,1.8c0,0.6,0,1.1,0.1,1.6h0.4c-0.2,0.7-0.2,0.3-0.4,0.9
	c0,0.4,0,0.8,0,1.1c-0.3,0.2-0.3,0-0.4,0.5v0.2v0.9c0.1,0,0.1-0.1,0.8,0L10.1,205.6z"/>
<path class="st0" d="M3.6,391.7c0.5-1.1,0.4-2.4-0.3-3.4l-0.4-0.6c-0.2,0.8-0.3,1.6-0.4,2.4C2.4,391.1,2.9,391.4,3.6,391.7z"/>
<path class="st0" d="M3.6,115.1c0.6-1.3,0.4-1.3-0.1-2.8L2.8,111c-0.2,0.8-0.3,1.6-0.4,2.4C2.4,114.5,2.9,114.8,3.6,115.1z"/>
<path class="st0" d="M3.2,375.7c1.5-0.4-0.3-1,1.2-1.4v-0.8l-0.8,0.1C2.5,373.9,3.4,374.8,3.2,375.7z"/>
<path class="st0" d="M3.2,99.2c1.5-0.4-0.3-1,1.2-1.4V97C4.1,97,3,96.9,3,97.8S3.4,98,3.2,99.2z"/>
<path class="st0" d="M9.4,250.6c0-0.9,0.2-0.7,0.2-1.4c-0.1-0.5-0.1-1.1-0.2-1.6H9C8.8,250,8.5,250,9.4,250.6z"/>
<path class="st0" d="M7.2,354c0.4-1.3,0,0.7,0.4-0.6c-0.5-0.2-0.3,0.1-0.4-0.4c0-0.1,0-0.9,0-1H6.8c-0.2,0.7-0.2,1.3-0.2,2
	C7.1,354.2,6.7,354.2,7.2,354z"/>
<path class="st0" d="M5.4,401.6c0.3-0.5,0.2-0.7,0.2-1.6c0-0.6-0.1-0.4-0.4-0.6C5,399.9,4.7,401.6,5.4,401.6z"/>
<path class="st0" d="M5.4,125.1c0.3-0.5,0.2-0.7,0.2-1.6c0-0.6-0.1-0.4-0.4-0.6C5,123.3,4.7,124.9,5.4,125.1z"/>
<path class="st0" d="M2.4,108.3h0.2l0.2-1.6c-0.8-0.3-0.3,0.1-0.2-1.2H2.2C2.2,106.7,2.4,107.1,2.4,108.3z"/>
<path class="st0" d="M2.4,384.8h0.2l0.2-1.6c-0.8-0.3-0.3,0.1-0.2-1.2H2.2C2.2,383.3,2.4,383.7,2.4,384.8z"/>
<path class="st0" d="M2.6,105.2v-2.4c-0.6,0.4-0.4,0-0.4,1c0,0.4,0,1,0,1.4H2.6z"/>
<path class="st0" d="M2.6,381.8v-2.4c-0.6,0.4-0.4,0-0.4,1c0,0.4,0,1,0,1.4H2.6z"/>
<path class="st0" d="M3,279.2c-1,0.7-1,1.1-1.6,2.2c0.7-0.2,0.6-0.2,0.9-0.9C2.6,280.1,2.8,279.6,3,279.2z"/>
<path class="st0" d="M3,2.7C2,3.4,2,3.8,1.4,4.9C2.1,4.7,2,4.7,2.3,4C2.6,3.6,2.8,3.1,3,2.7z"/>
<path class="st0" d="M11.1,189.2h-0.4l-0.4-0.2c-0.3,1.1-0.6,0.9,0.4,1.4C10.9,189.7,11,189.8,11.1,189.2z"/>
<path class="st0" d="M6.6,105.4c0.2-0.9,0.5-1.1-0.4-1.4C6.1,104.4,5.6,105.4,6.6,105.4z"/>
<path class="st0" d="M6.6,382c0.2-0.9,0.5-1.2-0.4-1.4C6.1,381,5.6,382,6.6,382z"/>
<path class="st0" d="M5.4,86.7l0.2-2H5.2c0,1.1-0.2,1.1-0.2,2H5.4z"/>
<path class="st0" d="M4.2,90.4L4.2,90.4l-0.6,0.7c-0.3,0.5-0.2,1.1,0.1,1.5C4,91.9,4.2,91.2,4.2,90.4z"/>
<path class="st0" d="M4.2,366L4.2,366L4,366.1l-0.4,0.8c-0.2,1,0.2,1.1,0.2,1.2C4,367.5,4.2,366.7,4.2,366z"/>
<path class="st0" d="M2.6,101.2c0-2.8,0.4-2.9-0.4-3.8L2.6,101.2z"/>
<path class="st0" d="M2.6,377.7c0-1.5,0.2-2.9-0.1-3.5c-0.4-0.6-0.1-0.1-0.3-0.3L2.6,377.7z"/>
<path class="st0" d="M8.6,163.6c0-1.2-0.2-1.5-0.2-2.6H8.2C8.2,162,8,163.1,8.6,163.6z"/>
<path class="st0" d="M7.8,162.2c0-0.9-0.2-1.1-0.2-2.2H7.4v2.2H7.8z"/>
<path class="st0" d="M12.1,175.6c0-0.8,0.1-0.8-0.2-1.4c-0.3,0.2-0.4,0-0.4,0.6S11.8,175.5,12.1,175.6z"/>
<path class="st0" d="M8.8,179c0-0.8,0.2-0.5,0.2-1.4c0-0.6-0.1-0.4-0.4-0.6v2H8.8z"/>
<path class="st0" d="M3.8,372.7c0.1-0.4,0.2-0.8,0.2-1.2c-0.6,0.4-0.6,0.3-0.6,1.2H3.8z"/>
<path class="st0" d="M3.8,96.1C3.9,95.7,4,95.3,4,94.9c-0.6,0.4-0.6,0.3-0.6,1.2H3.8z"/>
<path class="st0" d="M4.6,100.8c0.1-0.4-0.1-0.9-0.4-1.2c-0.3,0.2-0.2,0.1-0.6,0.2L4.6,100.8z"/>
<path class="st0" d="M4.6,377.3c0.1-0.4-0.1-0.9-0.4-1.2c-0.2,0.1-0.4,0.2-0.6,0.2L4.6,377.3z"/>
<path class="st0" d="M6.2,365.2v-1.6c-0.1,0.2-0.1,0.1-0.3,0.3C5.7,364.1,5.7,365.1,6.2,365.2z"/>
<path class="st0" d="M6.2,89.6V88c-0.1,0.1-0.1,0-0.3,0.3S5.7,89.6,6.2,89.6z"/>
<path class="st0" d="M9.6,210.4c0-1.3,0.4-1.4-0.2-1.8v1.8H9.6z"/>
<polygon class="st0" points="4.2,90.4 4.6,90.7 4.6,89.4 4.2,89.4 "/>
<polygon class="st0" points="4.2,366 4.6,366.2 4.6,365 4.2,365 "/>
<path class="st0" d="M9.4,274.7c0-1,0.2-0.8-0.4-1.2v1.2H9.4z"/>
<path class="st0" d="M7.4,12c-0.1-0.7-0.1-0.7-0.8-0.8C6.8,11.9,6.7,11.8,7.4,12z"/>
<path class="st0" d="M7.4,288.5c-0.1-0.7-0.1-0.7-0.8-0.8C6.8,288.4,6.7,288.3,7.4,288.5z"/>
<path class="st0" d="M3.8,102.8c-0.1-0.8,0.1-0.6-0.6-0.8v0.8H3.8z"/>
<path class="st0" d="M3.8,379.4c-0.1-0.8,0.1-0.6-0.6-0.8v0.8H3.8z"/>
<path class="st0" d="M6.2,356.8c0-0.6-0.1-0.4-0.4-0.6v1.5C6.2,357.1,6.2,357.3,6.2,356.8z"/>
<path class="st0" d="M6.2,81.3c0-0.6-0.1-0.4-0.4-0.6v1.4c0.1-0.2,0.1-0.1,0.3-0.3S6.2,82.1,6.2,81.3z"/>
<path class="st0" d="M7.4,69.4c-0.1-0.5-0.1-0.5-0.2-1H6.4L7.4,69.4z"/>
<path class="st0" d="M7.4,344.9c-0.1-0.5-0.1-0.5-0.2-1H6.4L7.4,344.9z"/>
<path class="st0" d="M8,4.7c0.6-0.5,0.6-0.5,0.4-1.2L8.1,3.9L8,4C8,4.1,7.8,4.5,8,4.7z"/>
<polygon class="st0" points="4.8,59.1 4.8,58.3 4.4,58.3 4.2,59.1 "/>
<path class="st0" d="M4,345.1l0.2-0.4c0-0.6-0.1-0.4-0.4-0.6C3.7,344.5,3.4,345,4,345.1z"/>
<path class="st0" d="M4,69.6l0.2-0.4c0-0.6-0.1-0.4-0.4-0.6C3.7,68.9,3.4,69.5,4,69.6z"/>
<rect x="4" y="381" class="st0" width="0.4" height="1"/>
<rect x="4" y="104.4" class="st0" width="0.4" height="1"/>
<rect x="10.7" y="187.2" class="st0" width="0.2" height="2"/>
<rect x="5.2" y="360.3" class="st0" width="0.4" height="1"/>
<path class="st0" d="M8,281.3c0.6-0.4,0.6-0.5,0.4-1.2l-0.1,0.1l-0.4,0.7C7.9,281,7.9,281.2,8,281.3z"/>
<polygon class="st0" points="7.4,154.9 7.6,153.7 7.2,153.7 7.2,154.9 "/>
<path class="st0" d="M7.4,333.7c-0.1-0.8,0.1-0.6-0.6-0.8v0.8C7.2,333.6,7,333.5,7.4,333.7z"/>
<path class="st0" d="M3.2,96.7c-0.6-0.8-0.6,0.1-0.6-1H2.4v1H3.2z"/>
<path class="st0" d="M3.2,373.3c-0.6-0.8-0.6,0.1-0.6-1H2.4v1H3.2z"/>
<path class="st0" d="M9.2,200.5l-0.1-1.1c-0.1-0.3-0.1-0.2-0.3-0.3C8.8,199.7,8.7,200.4,9.2,200.5z"/>
<rect x="7" y="126.2" class="st0" width="0.2" height="1.8"/>
<path class="st0" d="M9.2,315.5v-1.2C9.1,314.4,8.3,315.4,9.2,315.5z"/>
<path class="st0" d="M5.6,95.4v-1H5.2C5.2,95,5.1,95.4,5.6,95.4z"/>
<path class="st0" d="M5.6,372.1v-1H5.2C5.2,371.6,5.1,372,5.6,372.1z"/>
<path class="st0" d="M4.2,182v-1c-0.6,0.4-0.4,0-0.4,1H4.2z"/>
<path class="st0" d="M10.7,301.1c0-0.4,0.1-0.3-0.4-0.8v1.2C10.5,301.4,10.7,301.4,10.7,301.1z"/>
<path class="st0" d="M10.7,24.5c0-0.5,0.1-0.3-0.4-0.8v1.2C10.5,24.8,10.7,24.8,10.7,24.5z"/>
<path class="st0" d="M7.4,58.1c-0.1-0.9,0.2-0.4-0.4-0.8c-0.1,0.2-0.2,0.5-0.2,0.8C7.2,58,7,57.9,7.4,58.1z"/>
<rect x="2.4" y="370.1" class="st0" width="0.2" height="1.6"/>
<rect x="2.4" y="93.5" class="st0" width="0.2" height="1.6"/>
<rect x="4.4" y="350.8" class="st0" width="0.4" height="0.8"/>
<rect x="4.4" y="75.2" class="st0" width="0.4" height="0.8"/>
<rect x="5" y="361.5" class="st0" width="0.4" height="0.8"/>
<rect x="10.9" y="176.2" class="st0" width="0.4" height="0.8"/>
<path class="st0" d="M4.4,85.1v-1C4.2,84.2,4,84.2,4,84.5S4.1,85.1,4.4,85.1z"/>
<path class="st0" d="M9.2,38.9v-1C9,38,8.8,38,8.8,38.3S8.9,38.8,9.2,38.9z"/>
<path class="st0" d="M4.4,360.7v-1c-0.2,0.1-0.4,0.2-0.4,0.4S4.1,360.7,4.4,360.7z"/>
<path class="st0" d="M3.2,78.4v-1c-0.1,0.1-0.1,0-0.3,0.3c-0.2,0.5-0.1,0.1-0.1,0.7H3.2z"/>
<path class="st0" d="M3.2,354v-1c-0.1,0.2-0.1,0-0.3,0.3c-0.2,0.5-0.1,0.1-0.1,0.7H3.2z"/>
<path class="st0" d="M8.4,388.7v-1c-0.1,0.2-0.1,0-0.3,0.3c-0.1,0.5,0,0.2-0.1,0.7H8.4z"/>
<path class="st0" d="M10.7,180.2h-0.4v1c0.1-0.1,0.1,0,0.3-0.3C10.8,180.4,10.7,180.8,10.7,180.2z"/>
<path class="st0" d="M4.8,333.9c-0.5,0.2-0.4,0-0.6,0.8C5.1,334.3,4.7,334.9,4.8,333.9z"/>
<rect x="9.4" y="271.6" class="st0" width="0.2" height="1.4"/>
<rect x="8.8" y="197.3" class="st0" width="0.2" height="1.4"/>
<path class="st0" d="M8.4,112.1v-1H8.2c0,0.3-0.1,0.7-0.2,1H8.4z"/>
<path class="st0" d="M7.4,316.9v-0.8H7C7.1,316.6,7,316.8,7.4,316.9z"/>
<path class="st0" d="M0.4,121.3c-0.1-0.9,0.2-0.4-0.4-0.8v0.8H0.4z"/>
<path class="st0" d="M0.4,397.9c-0.1-0.9,0.2-0.3-0.4-0.8v0.8H0.4z"/>
<path class="st0" d="M4.8,59.6H4.4v0.8C5,60,4.7,60.6,4.8,59.6z"/>
<path class="st0" d="M4.8,335.2H4.4v0.8C5,335.5,4.7,336.1,4.8,335.2z"/>
<path class="st0" d="M4.6,148.8v-0.6c-0.6,0.2-0.1-0.3-0.6,0.6H4.6z"/>
<path class="st0" d="M7,39.6c0.1,0.9-0.2,0.4,0.4,0.8C7.4,39.2,7.5,39.8,7,39.6z"/>
<rect x="5.6" y="358.1" class="st0" width="0.4" height="0.6"/>
<rect x="3.8" y="43" class="st0" width="0.4" height="0.6"/>
<rect x="5.6" y="82.5" class="st0" width="0.4" height="0.6"/>
<rect x="10.5" y="178.2" class="st0" width="0.2" height="1.2"/>
<path class="st0" d="M7.2,336.8c0.1-0.7,0.4-0.6-0.4-0.8l0.2,0.4C7.2,336.8,7,336.5,7.2,336.8z"/>
<path class="st0" d="M7.2,61.3c0.1-0.7,0.4-0.6-0.4-0.8c0,0.1,0.1,0.4,0.2,0.4C7.2,61.3,7,61,7.2,61.3z"/>
<path class="st0" d="M5,346.9c-0.6,0.4-0.3-0.1-0.4,0.8C5.2,347.2,4.9,347.8,5,346.9z"/>
<path class="st0" d="M6.2,173.3c-0.6,0.5-0.3-0.1-0.4,0.8C6.4,173.7,6.1,174.2,6.2,173.3z"/>
<path class="st0" d="M5,71.4c-0.6,0.5-0.3-0.1-0.4,0.8C5.2,71.7,4.9,72.3,5,71.4z"/>
<path class="st0" d="M6.4,382.4v0.8C7,382.8,7,382.8,6.4,382.4z"/>
<path class="st0" d="M6.4,105.8v0.8C7,106.2,7,106.2,6.4,105.8z"/>
<path class="st0" d="M7.6,60c0-0.3,0.1-0.2-0.1-0.5c-0.3-0.7-0.1-0.3-0.3-0.5C7.3,59.6,7.3,59.8,7.6,60z"/>
<rect x="10.1" y="195.5" class="st0" width="0.2" height="1"/>
<path class="st0" d="M8.6,316.5v-0.6H8.2C8.3,316.2,8.3,316.4,8.6,316.5z"/>
<path class="st0" d="M8.6,40v-0.6H8.2C8.3,39.7,8.3,39.9,8.6,40z"/>
<path class="st0" d="M4.2,320.2v-0.6H3.8C3.9,320,3.8,320.1,4.2,320.2z"/>
<path class="st0" d="M8.8,184.7c-0.6,0.2-0.4,0-0.6,0.6C9,184.9,8.6,185.4,8.8,184.7z"/>
<path class="st0" d="M9.9,206.6H9.4v0.8c0.1-0.2,0,0.1,0.2-0.4L9.9,206.6z"/>
<path class="st0" d="M5.2,363.3c-0.1-0.6,0-0.3-0.4-0.6v0.6H5.2z"/>
<path class="st0" d="M9.6,205.6c-0.1-0.6,0-0.3-0.4-0.6v0.6H9.6z"/>
<path class="st0" d="M5.2,87.7c-0.1-0.6,0-0.3-0.4-0.6v0.6H5.2z"/>
<path class="st0" d="M10.9,294.2v-0.6c-0.4,0.3-0.3,0-0.4,0.6H10.9z"/>
<path class="st0" d="M10.9,17.6V17c-0.4,0.3-0.3,0-0.4,0.6H10.9z"/>
<path class="st0" d="M7.6,335.4c-0.1-0.4,0.1,0-0.1-0.5c-0.1-0.1-0.2-0.2-0.3-0.3C7.3,335,7.2,335.3,7.6,335.4z"/>
<path class="st0" d="M8.4,31.5c-0.1-0.4,0.1,0-0.1-0.5c-0.1-0.3-0.1-0.2-0.3-0.3C8.1,31.1,8,31.4,8.4,31.5z"/>
<path class="st0" d="M8.4,308c-0.1-0.4,0.1,0-0.1-0.5c-0.1-0.1-0.2-0.2-0.3-0.3C8.1,307.6,8,307.9,8.4,308z"/>
<rect x="0.6" y="412.4" class="st0" width="0.2" height="0.8"/>
<rect x="8.4" y="125.1" class="st0" width="0.2" height="0.8"/>
<rect x="0.6" y="135.9" class="st0" width="0.2" height="0.8"/>
<rect x="8.4" y="401.7" class="st0" width="0.2" height="0.8"/>
<rect x="8.6" y="169.1" class="st0" width="0.2" height="0.8"/>
<rect x="3.2" y="90.9" class="st0" width="0.2" height="0.8"/>
<rect x="8" y="75.2" class="st0" width="0.2" height="0.8"/>
<rect x="8" y="350.8" class="st0" width="0.2" height="0.8"/>
<rect x="3.2" y="366.5" class="st0" width="0.2" height="0.8"/>
<rect x="9.2" y="174.4" class="st0" width="0.2" height="0.8"/>
<path class="st0" d="M6.6,284.7c-0.5-0.6,0.1-0.3-0.8-0.4c0.1,0.1,0,0.1,0.3,0.3C6.6,284.8,6.3,284.6,6.6,284.7z"/>
<path class="st0" d="M6.6,8.1C6.1,7.5,6.7,7.8,5.8,7.7c0.1,0.1,0,0.1,0.3,0.3C6.6,8.2,6.3,8,6.6,8.1z"/>
<path class="st0" d="M7,39.6C6.9,39,7,39.3,6.6,39C6.7,40,6.4,39.3,7,39.6z"/>
<path class="st0" d="M9.4,207.4c0,0.1-0.4-0.2-0.1,0.4c0.3,0.6-0.2,0,0.3,0.2C9.5,207.5,9.6,207.9,9.4,207.4z"/>
<path class="st0" d="M6.6,315.5v0.6C7.2,315.6,7.2,315.9,6.6,315.5z"/>
<path class="st0" d="M7.2,38.7v0.6C7.8,38.8,7.8,39.2,7.2,38.7z"/>
<path class="st0" d="M7.2,315.3v0.6C7.8,315.4,7.8,315.7,7.2,315.3z"/>
<path class="st0" d="M7.2,86.1l-0.4-0.4c0,1.1,0,0.3,0.2,0.6L7.2,86.1z"/>
<path class="st0" d="M7.2,361.7l-0.3-0.4c0,1.1,0,0.3,0.2,0.6L7.2,361.7z"/>
<path class="st0" d="M4.2,386.8c-0.1-0.6,0-0.3-0.4-0.6C3.9,386.6,3.8,386.8,4.2,386.8z"/>
<path class="st0" d="M6.8,76.2c-0.1-0.6,0-0.3-0.4-0.6C6.5,76,6.4,76.1,6.8,76.2z"/>
<path class="st0" d="M6.8,351.8c-0.1-0.6,0-0.3-0.4-0.6C6.5,351.6,6.4,351.7,6.8,351.8z"/>
<path class="st0" d="M4.2,110.3c-0.1-0.6,0-0.3-0.4-0.6C3.9,110.1,3.8,110.3,4.2,110.3z"/>
<rect x="11.9" y="176.6" class="st0" width="0.2" height="0.6"/>
<rect x="2.4" y="366" class="st0" width="0.2" height="0.6"/>
<rect x="9" y="186.8" class="st0" width="0.2" height="0.6"/>
<rect x="7.6" y="333.1" class="st0" width="0.2" height="0.6"/>
<rect x="5.2" y="407" class="st0" width="0.2" height="0.6"/>
<rect x="5.2" y="130.4" class="st0" width="0.2" height="0.6"/>
<rect x="2.4" y="90.5" class="st0" width="0.2" height="0.6"/>
<rect x="7.6" y="57.5" class="st0" width="0.2" height="0.6"/>
<rect x="10.7" y="295.4" class="st0" width="0.2" height="0.6"/>
<rect x="3.4" y="103.8" class="st0" width="0.2" height="0.6"/>
<rect x="3.4" y="380.4" class="st0" width="0.2" height="0.6"/>
<rect x="10.7" y="18.8" class="st0" width="0.2" height="0.6"/>
<rect x="0.2" y="5.9" class="st0" width="0.2" height="0.6"/>
<rect x="8" y="164.4" class="st0" width="0.2" height="0.6"/>
<rect x="0.2" y="282.5" class="st0" width="0.2" height="0.6"/>
<rect x="6.8" y="345.9" class="st0" width="0.2" height="0.6"/>
<rect x="9.2" y="251" class="st0" width="0.2" height="0.6"/>
<rect x="6.8" y="70.4" class="st0" width="0.2" height="0.6"/>
<path class="st0" d="M9.6,122.5l-0.4,0.6C9.8,122.9,9.6,123.5,9.6,122.5z"/>
<path class="st0" d="M5,0C4.4,0.2,4.7-0.4,4.6,0.6c0,0,0-0.1,0.1-0.1s0.1-0.1,0.1-0.1S4.9,0.1,5,0z"/>
<path class="st0" d="M4.8,231.5c-0.4,0.3-0.3,0-0.4,0.6C4.9,231.8,4.6,232.1,4.8,231.5z"/>
<path class="st0" d="M5,276.6c-0.6,0.2-0.3-0.4-0.4,0.6c0,0,0-0.1,0.1-0.1L5,276.6z"/>
<path class="st0" d="M4.4,107.7c0.2,0,0.4-0.4,0-0.3C4.3,107.4,3.9,107.8,4.4,107.7z"/>
<path class="st0" d="M4.4,384.2c0.2,0,0.4-0.4,0-0.3C4.3,384,3.9,384.3,4.4,384.2z"/>
<path class="st0" d="M6.6,78.4c-0.5,0.1-0.3-0.1-0.4,0.4C6.7,78.8,6.4,79,6.6,78.4z"/>
<path class="st0" d="M6.6,354c-0.5,0.1-0.3-0.1-0.4,0.4C6.7,354.3,6.4,354.5,6.6,354z"/>
<path class="st0" d="M7.8,328.4c0.2-0.2-0.3-0.7-0.1-0.2C7.7,328.2,7.5,328.9,7.8,328.4z"/>
<path class="st0" d="M9.6,184c0.2-0.2-0.3-0.7-0.1-0.2C9.5,183.8,9.3,184.5,9.6,184z"/>
<path class="st0" d="M9.6,204.2c0.2-0.2-0.3-0.7-0.1-0.2C9.5,204,9.3,204.6,9.6,204.2z"/>
<path class="st0" d="M7.8,35.7C8,35.5,7.5,35,7.7,35.5C7.7,35.4,7.5,36,7.8,35.7z"/>
<path class="st0" d="M7.4,303.9c0.2-0.2-0.3-0.7-0.1-0.2C7.3,303.7,7.1,304.3,7.4,303.9z"/>
<path class="st0" d="M8,343.1c0.2-0.2-0.3-0.7-0.1-0.2C7.9,342.8,7.7,343.4,8,343.1z"/>
<path class="st0" d="M6.2,400.5c0.2-0.2-0.3-0.7-0.1-0.2C6.1,400.2,5.9,400.8,6.2,400.5z"/>
<path class="st0" d="M8.6,189c0.2-0.2-0.3-0.7-0.1-0.2C8.5,188.7,8.3,189.3,8.6,189z"/>
<path class="st0" d="M8,67.5c0.2-0.2-0.3-0.7-0.1-0.2C7.9,67.2,7.7,67.8,8,67.5z"/>
<path class="st0" d="M7.4,27.3c0.2-0.2-0.3-0.7-0.1-0.2C7.3,27.1,7.1,27.7,7.4,27.3z"/>
<path class="st0" d="M6.8,111.5c0.2-0.2-0.3-0.7-0.1-0.2C6.7,111.3,6.5,111.9,6.8,111.5z"/>
<path class="st0" d="M6.8,388.1c0.2-0.2-0.3-0.7-0.1-0.2C6.7,387.9,6.5,388.5,6.8,388.1z"/>
<path class="st0" d="M6.2,73.4c0.2-0.2-0.3-0.7-0.1-0.2C6.1,73.2,5.9,73.7,6.2,73.4z"/>
<path class="st0" d="M8.4,177c0.2-0.2-0.3-0.7-0.1-0.2C8.3,176.8,8.1,177.3,8.4,177z"/>
<path class="st0" d="M7.8,340.3c0.2-0.2-0.3-0.8-0.1-0.3C7.7,340,7.5,340.6,7.8,340.3z"/>
<path class="st0" d="M7.8,52.9c0.2-0.2-0.3-0.7-0.1-0.2C7.7,52.7,7.5,53.3,7.8,52.9z"/>
<path class="st0" d="M10.9,185.6c0.2-0.2-0.3-0.7-0.1-0.2C10.8,185.3,10.6,185.9,10.9,185.6z"/>
<path class="st0" d="M7.8,312.3c0.2-0.2-0.3-0.7-0.1-0.2C7.7,312,7.5,312.6,7.8,312.3z"/>
<path class="st0" d="M7.8,64.7C8,64.5,7.5,64,7.7,64.5C7.7,64.4,7.5,65,7.8,64.7z"/>
<path class="st0" d="M8.4,160.6c0.2-0.2-0.3-0.7-0.1-0.2C8.3,160.4,8.1,160.9,8.4,160.6z"/>
<path class="st0" d="M9.9,211.8c0.2-0.2-0.3-0.7-0.1-0.2C9.8,211.6,9.5,212.2,9.9,211.8z"/>
<path class="st0" d="M6.2,349c0.2-0.2-0.3-0.7-0.1-0.2C6.1,348.8,5.9,349.3,6.2,349z"/>
<path class="st0" d="M6.2,123.9c0.2-0.2-0.3-0.7-0.1-0.2C6.1,123.6,5.9,124.2,6.2,123.9z"/>
<path class="st0" d="M7.4,150.8c0.2-0.2-0.3-0.7-0.1-0.2C7.3,150.6,7.1,151.2,7.4,150.8z"/>
<path class="st0" d="M8.8,175.6c0.2-0.2-0.3-0.7-0.1-0.2C8.7,175.4,8.5,176,8.8,175.6z"/>
<path class="st0" d="M8.2,32.1c0.2-0.2-0.3-0.7-0.1-0.2C8.1,31.8,7.9,32.4,8.2,32.1z"/>
<path class="st0" d="M12.5,177c0.2-0.2-0.3-0.7-0.1-0.2C12.4,176.8,12.2,177.3,12.5,177z"/>
<path class="st0" d="M8.2,145.7c0.2-0.2-0.3-0.7-0.1-0.2C8.1,145.5,7.9,146.2,8.2,145.7z"/>
<path class="st0" d="M8.2,308.6c0.2-0.2-0.3-0.7-0.1-0.2C8.1,308.3,7.9,308.9,8.2,308.6z"/>
<path class="st0" d="M7.8,152.3c0.2,0,0.5-0.4,0-0.3s0-0.5-0.1,0.1C7.7,152.3,7.4,152.3,7.8,152.3z"/>
<path class="st0" d="M6.8,33.8c0.2,0,0.5-0.4,0-0.3s0-0.5-0.1,0.1C6.7,33.9,6.4,33.8,6.8,33.8z"/>
<path class="st0" d="M6.8,310.5c0.2,0,0.5-0.4,0-0.3s0-0.5-0.1,0.1C6.7,310.5,6.4,310.5,6.8,310.5z"/>
<path class="st0" d="M8.6,403.1c0.2,0,0.5-0.4,0-0.3s0-0.5-0.1,0.1C8.5,403.1,8.2,403.1,8.6,403.1z"/>
<path class="st0" d="M7.6,93.7c0.1,0,0-0.2,0-0.2s0.5-0.4,0-0.1C7.6,93.3,7.2,93.7,7.6,93.7z"/>
<path class="st0" d="M7.4,98.4c0.1,0,0-0.2,0-0.2s0.5-0.4,0-0.1C7.4,98.1,7,98.4,7.4,98.4z"/>
<path class="st0" d="M8.2,45.6l-0.4-0.2c0.1,0.3-0.1,0.2,0.1,0.3S7.9,45.7,8.2,45.6z"/>
<path class="st0" d="M8.2,322.2L7.8,322c0.1,0.3-0.1,0.2,0.1,0.3C8.2,322.3,7.9,322.4,8.2,322.2z"/>
<path class="st0" d="M6.2,230.5c0.1,0,0-0.2,0-0.2s0.5-0.4-0.1-0.1l0,0C6.1,230.5,5.9,230.5,6.2,230.5z"/>
<path class="st0" d="M7.8,218.4c0.1,0,0-0.2,0-0.2s0.5-0.4,0-0.1l0,0v0.1C7.8,218.3,7.4,218.4,7.8,218.4z"/>
<path class="st0" d="M7.6,370.3c0.1,0,0-0.2,0-0.2s0.5-0.3,0-0.1v0.1C7.6,370.2,7.2,370.3,7.6,370.3z"/>
<path class="st0" d="M7.4,374.9c0.1,0,0-0.2,0-0.2s0.5-0.3,0-0.1v0.1C7.4,374.8,7,374.9,7.4,374.9z"/>
<polygon class="st0" points="8,347.3 8,347.1 7.8,347.3 "/>
<polygon class="st0" points="8,71.8 8,71.6 7.8,71.8 "/>
<polygon class="st0" points="11.1,189.2 11.3,189.2 11.2,188.9 "/>
<path class="st0" d="M2.4,367.3L2.4,367.3C2.5,367,2.9,367.5,2.4,367.3L2.4,367.3L2.4,367.3C2.4,367.1,2.4,367.1,2.4,367.3z"/>
<path class="st0" d="M9.2,411.2C9.2,411.2,9.1,411.1,9.2,411.2L9.2,411.2C9.2,411.1,9.2,411.2,9.2,411.2z"/>
<path class="st0" d="M9.6,186.6L9.6,186.6C9.6,186.5,9.6,186.6,9.6,186.6z"/>
<path class="st0" d="M6.6,143.5L6.6,143.5L6.6,143.5z"/>
<path class="st0" d="M10.7,181.6L10.7,181.6C10.7,181.6,10.7,181.7,10.7,181.6z"/>
<path class="st0" d="M7.2,125.1L7.2,125.1C7.2,125,7.2,125.1,7.2,125.1z"/>
<path class="st0" d="M6.8,186L6.8,186C6.8,185.9,6.8,186,6.8,186z"/>
<path class="st0" d="M9.2,162.6L9.2,162.6L9.2,162.6C9.1,162.5,9.2,162.6,9.2,162.6z"/>
<path class="st0" d="M7.4,151.8L7.4,151.8L7.4,151.8C7.3,151.8,7.4,151.9,7.4,151.8z"/>
<path class="st0" d="M6.8,151.8L6.8,151.8L6.8,151.8C6.7,151.8,6.8,151.9,6.8,151.8z"/>
<path class="st0" d="M6.8,365.3L6.8,365.3C6.8,365.3,6.8,365.4,6.8,365.3z"/>
<path class="st0" d="M9.6,181.4L9.6,181.4L9.6,181.4C9.6,181.4,9.6,181.5,9.6,181.4z"/>
<path class="st0" d="M9.6,189.6l0.2-0.4L9.6,189.6z"/>
<path class="st0" d="M9.6,189.6L9.4,190L9.6,189.6z"/>
<path class="st0" d="M7.4,29.6L7,29.8L7.4,29.6z"/>
</svg>
