<svg version="1.1" id="svg3667" xmlns="http://www.w3.org/2000/svg" x="0" y="0" viewBox="0 0 1013.3 543.2" xml:space="preserve"><style>.st0,.st1,.st2{fill:#e9d2a8;stroke:#fff}.st1,.st2{fill:#d89f4c}.st2{fill:#b9b9b9}.st4{fill:none;stroke:#c99e52;stroke-width:2}</style><path id="path3791" class="st0" d="M480.8 542.6l-2.7-1-1.7-2.7-2-4h-2l-4.3.3h-2.7l-4-.7-5.7 1-3 .3-.3-1.7.7-4.3 2.7-1.7 2.3-2 1-1.3-1.3-.3-.3-3-2.7-3.3-5-5.7 4.7 2.3h3.3l2.7-.3 4.7.3 5-2 2.3-.3 2.7-8 3.3-.3 2.7-2h2.3l.7 1.3 3-7.3 3-.7-.7-5.3 4.7-.3v-2l1.7-3 .3-3.7-.3-3 3.7-1.7 4.7-2 3.3 1.3 2.2-1.2 3.5.2 4.5 5.5 3.2.7 2 1.8-2.7.4.5 1.8-6.4 2.8-4.3-.1-2.4-1.1-1.3 1.8.2 3.9.8 3.5 3 1.5.8 1.3.8 1.9-1.6 1.3-1.7.6.1 3.1-2.3 2.1v2.1l-3.4 2.8-1 2.7-3.7 3.3-1.3 2.2-4.3 1.5-1.8-1.7-2.3 2.2-1.5 3.7 2.7 2.3.2 3.3 2.2.7 1.3 3.7-.2 2.3-2.2 1.2-1.7-.5-6 .2-2.7 3z"/><path id="path3793" class="st0" d="M450.7 513.5l-.2-2 2.3-3.3.3-3.7-2.8-.7-.8-5.7-1.2-2.5.7-2.3-1-1 .3-2.8 1.3-3.2 1.5-4.2 2 .8 2.3.3.7 1 2.3-.8 1.3-3.3 4.8-1.5 1.7-3.2 1-2 2.2-.2 2.3-.5 2.2.2 2.7.3 3 .8 4.3-.2 1.2.2 2-2 2-.5 2.5-4 1.8.2.7 2.3.8.2.7 2.8-.2 2.3 1.7.3 3.5-2.2 2.2-1.2 2-.3 1.2 1.2 3.2-.8.8.2-.3 2.2-2.2 1.2-3.3-1.3-8.3 3.7.3 3-.3 3-1.7 3.7v2l-4.7.3.7 5.3-3 .7-2.8 6.3-.8-.3h-2.3l-2.2 1.7-3.8.7-2.7 8-2.8.5-4.5 1.8-4.7-.3-6 .3-3.9-1.5z"/><path id="path3795" class="st0" d="M479.7 474.1l1.7-3 .2-2-.2-4.5-1.7-1.2-.7-.7-.2-1.2 3.7-.3.5-2.7 1.5-3.3 1.5.5.2-1.7 1.2.3 3.7-1.8.5 2-1 1.2 1.2 1.2-2 .3-2.3.5-.8 1-2-.2.3 1.5h1.7l1.7.3 1.5.8h3.7l2-.7.8.2 1.5 1.3 3-.8 1.5-.7 2.8.8.2 1.5.8 2.3.2 1 2.2-.2 2 2 .3 3.2-1 .8-3 1-1.8-1-2 .3-5.7 3.3-1.7-.3.3-1.8-.8-3.3-.8-.2-.6-2.1-2.1-.4-2.5 4.3-1.8.3-2 2h-1.6l-3.2.3-.9-.1z"/><path id="path3797" class="st0" d="M492 457l4.2-.1 2.1-1.3 2.3-1.6 1.3-1.3-2.4-1.4-1.6.7-1.3-.1-1.5-1.9-2.6.9-2.6-1 .3-.8 2.4-1.1 1.6-1.4.8-.6-1.1-1.4 1.6-1.9 2.9.1h3.4l3.2 1.4.8-.9-.3-2.9 2-1.3 1.9.1 1.7 1.2 3.1.9 3.2-.4 2.5-.3 3.6-.1 2.4-.5 2 .4 1.7 2.2 1.5 1.8 2.1-.1.4 1.2-1.4 2.1-2.5.8-3.1 1.8-3.2 2.1-3.9.4-4.2 3.8-2.3-1-3.3 2.1-3.8 1.7-.6 2.2-3.1-.8-4.3 1.5-1.9-1.5-.9-.1-1.8.7-3.3-.1-1.9-.7-3-.5-.6-1.3 1.9.1 1-1.2 3.9-.7.7.1z"/><path id="path3799" class="st0" d="M419.3 472.8l-.9-5.3-.3-1.8 1.3-2-1.6-.6-1-1.4.8-2.6-3-.3.3 1.3-1.4-1.1.3-3 .8-1.6 2 .3 2.5.4 2.4-.3 1.1-1.6-.1-1-2.3-1.6-1.4-1.8-.9-1.9-2.5.8-.8 1.3-.3 2.8-1.5-2.4.8-2.9 2.1-1.5 3.6-.8 2.5.3 2.1 1.1 1.4 2.5 1.5 1.4 2.9.3 2.5.1 1.4.1-.3-3.9 3-.8 1-1.3.8-.5.6-.9 1.8-.1 1.8 1.6.8 1.3 1.4.5 1.4 2 1.1 1.9 1 1.1 4.4.1 1.9 1.6 1.3 2 .6 1.5 1.6 2.9 1.1 1.6 2.5 2.1 3 1.5 2.8 2.1 2.5 1.8 2.4.8 2.8.5-.6 3.6-2.2-.2-3.3.5-1.3.2-3 5-4.5 1.6-1.3 3.3-2.3.8-.7-1-1.7.1-2.7-1.3-.7-5.8-3.3-.1-1.6-2.4-1.8-.3-1.5-2.5-1.4-.3-1.1.4-2.3-.3-.8-1.3-1.8-.3-.8-1.6-3.6-.1-2.1.9-2.3-.3-2.9 1.5-.6 2.3-3.4 1z"/><path id="path3801" class="st0" d="M429.5 448.9l-.6-22 10.8-2.3-.9 3.1-1.1 3.6.3 1.9.6 3.3 3 .5 1.6-.1 1.3 1.8 1.8-1 .5-.9 1.3.1.5-2.4 1 .3 3.8 2.9 4.8-.4 3.3 1.3 3.5-.6 2.9 2.8 1 5.1 1 2.4-.3 1.6-1.8 1.4 2.3 1.6 5.1.5 3 .8 1.1 1.4 2.4.9 1-2 1.1-3.1 2.1-2.5 3-.4 3.3-1.6 1 .8-2.8 1.9-.3.8 2.6 1 2.6-.9 1.5 1.9 1.3.1 1.6-.7 2.4 1.4-5.2 4-5.4.2-.8-1.1 1-1.2-.5-2-3.7 1.8-1.6-.7v1.9l-1.6-.3-1.1 3.3-.5 2.7-3.7.3.4 1.9 1.8 1.3.4 6.4-1.7 3-3-.8-2.7-.3.6-3.6-5.1-1.3-5.3-3.9-3-1.5-2.5-2.1-3.4-6-1.3-2-1.9-1.6-4.4-.1-3.3-4.6-1.3-.8-2.1-2.6-1.1-.5-1.4.3-1.4 1.4-1 1.3-3 .8.3 3.9-3.9-.3-.2-1.5z"/><path id="path3803" class="st1" d="M429.3 449.3l-2.5.1-1.5-1.4-1.4-2.5-2.6-1.5-2.7.3-1.7.2-1.7.8-1.8 1.1-.6 1.9-1-.8.3-1.7.8-2.3v-1l-3-.2-1-1.7h-1.5l-.3-1.7-.8-2.2-1.3-2.5-1.8-.5-.7-2.7 2.5.5 3 .5-.8-1.8 2.5-3.5.5 2.3 1-2h3.2l.7 1.3 3-.7-1.5 1.8-1 2.2.3 1.2 1.5-1.5 1.7-2.2 3.5.2-.5-3-1.5-1.5-2-1.2-.7-2.3-2.3-3-2-2.5h-4l-4.2-.3-2.8 1.7-2.8.8-1.7 1.7-1 2-1.7 1.5.3-2.5 2-2.7-1.2-2-3.2-2.7-1-1.2-3-3-1.7-2.8.3-2.3 1.2-4.3 1-6.5 5.2 3.7.8-2.5-.8-2.3 1.5-2 .3-2.5 2.8-.3 3.8-2.2.5-1.7 3 1-.5 2.2 2.2-1.5 2.3.2 2.7-.8 2.8.8 3.3 3.3.7 3.3 1.2-1.8 1.5-.3 2.2 1.5 2.2.3 2.2-2.5h3.5l1.8 1.2 3.8-1 1.5 2.5 2.8 1.5 2.8-1.7 2.8 1.3 4.2-5-2-1.3-3.8-.7-.3-2-1.8-1.2 3.8-1.7v-4l-.5-.8 2-.3 4 .5-2.2-3.5-1.2-1.5 2.3-1.2-2.7-1.3 1.2-2.7 2.8.7 6.8-1 3.2-.7 3 .3 4-3.7 7.2-.7 2.5-1.2 3.5-3.5 2.7 1 2.7.3 1.8.5.8 2.7 1.3 2.3-.5 3.2 2.2 1.7.7-1.7 3.2.5.2 1.5 2.3-.8.5 1 .3 2.5h4l1.8.3 1.8-2.3 2-.3 2.5-4.7 3-.2-1.5 2.7 5.3 6.5 5.8 5.8 3.5 7 1.3 3.7 3.3-3.8 1.8 1 .8 1.5 1.8 2.2 3.3-.2 3-1 2.7.3 1.7 3.8 1.2 1.8 2.5-.2 2.2 3 2.3-.3 2.5-1.3 1.3 2.5-.7 1.5-.3 3.3-2.5 1.2-2.8.7v5.5l-.8 3.5-3.7 1-2.3-.8-3-.3-2.5 3.8-2.2 5.2 1.3 3.5-1.3 1.2-4.5-.5-5.3 1.5 1.8 2.5-1.2 1.8 1 2.7v3.7l-.7 2-.2 2.3-2.9.1-2.9-3.6-1.7-.8-1 .2-10 1-1.8-.2-2.5-.5-1.7-1.2-1.9-.1-2 1.3.1 2.4-.7 1.4-2.8-1.2-2.3.2-4.3-.4-1.6 1.9 1.1 1.4-1.9 1.3-1-.8-2.5 1.3-3.8.7-2.1 2.5-2.1 5.1-2.4-.9-1.1-1.4-4-.9-3.7-.2-2.7-1.8 1.8-1.4.3-1.6-1-2.4-1-5.1-2.9-2.8-3.5.6-3.3-1.3-4.8.4-3.8-2.9 1.7-.8-1.2-3.2 2.3-.3 1.2-1.8-1.3-.8-1.8-3.3.3-2.8 1.3-2.5-.7-1.3-1.5.5-.2 1.2-1.8-1.2v1.2l-1.8-1.2-.2 2.5 2.5.7-2.7.7-1.8-.8-.2 2.5h-1.5l-1.3-.5-1.1 1.3-10.8 2.3 1.1 22.4z"/><path id="path3805" class="st0" d="M452.8 536l-1.8.7-4.3-1.8-4.8.5-6.8-2-1.8-.5-1-5.3-3-.8-1.3 1.3-3.3 1.3 1.3-2-5 2.3-3.3-2.5-4.8-1-2.5-3.5-4-.3-.5-4-2-3-1.8-3-2.3-.5-.3 1-2.5-2-1.5.3-2.5-2v-3.3l-2-1.8 1-3.5-4-4-3.3-.5-2.2-6.5.5-3.8 2-2.3v-4.1l-2-.5-2.2-2v-2.5l-2.3-3-1.3-3.8v-3l-.5-3 1.5-3 2.5.3 2.5 1.5 1.3 1.3 1.5 1.8 2 .3 1.8-1.8 2-1.8 1.3-1 1.8 1.5-1.3 1.3 1.8 1.3-1.8 2 1.8 1.3 1.5 1.8v2.3l1 2.3 2 .5 1.5-.5 2.3 1.3-.3 1.5 2.3 1 4.5 1.3 3.5-.8 3-1 1.5 1 1.3-.8-.5-3.6 3.5-.6.6-2.3 2.9-1.5 2.3.3 2.1-.9 3.6.1.8 1.6 1.8.3.8 1.3 3.4-.1 1.4.3 1.5 2.5 1.8.3 1.6 2.4 3.3.1.7 5.8-2.8 7.3-.3 2.8 1 1-.7 2.3 1 3.3 1 4.9 2.3.8.3 3.5-2 4.5.5 2.3 3.5 3.4 2.7 3.3.3 3 .3 1.7-3.6 2.6-2 2.5-.1 2.9.3 1.4z"/><path id="path3807_3_" class="st1" d="M388.8 463.3l-2.8-4.5-.7-2-.7-1.8-1.3-.5-2.5-2-.3-2.5 4.5 1.7 1.3-1.5-1.5-1.3-1.2-2.2 1.2-.3 3.8 1 2.7 2.5 1.8.7 2-2.2 3 3.2 1.3 2.7 3.2 1.7-3.2 2.7-.7 3.3-.5 2-1.7.5.5 4.1-3.3-3 1.6-2.4-1.2-.8.8-1.3-1.3-1.3-4.8 3.5"/><path id="path3809_1_" class="st0" d="M388.4 463.3l-.3.7-1.6-.5-1.5-1.8-2.1-1.6-1.7-1.2-1.3-.2-1.1.2-1.7-1.6-2-.5v-2.7l-.3-2-1.5-2 7.3-.2.3 2.5 2.5 2 1.3.5 1.3 3.8"/><path id="path3811" class="st1" d="M373.3 450.1l-2-.5-.7-2-3.2 1.3-1.8-.5-.7-3.8-1.3-2.3-3.3-1-2-1.8-1.5-1.7 3.7-.2h4.2l3.7 2 3.3 1 2.7.3 2.7 2.2 2.2-.2 3.3.3 1.8 2.8-.5.5 1.2 2.2 1.5 1.3-1.3 1.5-4-1.5-1.3-.5-6.7.6z"/><path id="path3813" class="st0" d="M379.3 472.5l-2.2.3-1.7-.5-2.8.8h-2.2l-3 2.7-2 2.2-.3 4-.3 3.5-.8 2.2-10.3 7 .5 1.2.2 4.2.8.2.2.8 7.7.8 16.7 13.8 6.8.3 5-4.3 4.6-.5-2.5-2 .1-2.8-2.1-2.2 1-3.5-4-4-3.3-.5-2.2-6.5.5-3.8 2-2.3-.4-3.8-1.6-.7-2.2-2v-2.5l-2.2-2.1z"/><path id="path3815" class="st0" d="M367.5 473.1l-1.3 1.5-4-.3-5.7 2-3.7-1.5-4.8 1.5-1.7-1.5-1.7.8v2.5l-3.3 3.2-1.5 2.2.8.2.5 4.2h2l.5 1.8-1.8 1.3-.3 2-.8 1-.3 3.2 1.8 1.2.7 1.3 2.2-.2 3-1.3 16-10.5.8-2.2.3-7 4.8-4.8-1.3-.5-1.2-.1z"/><path id="path3817" class="st0" d="M387.2 515.6l3.8.5 2 2 1-.5 1.3-2.3.7-1.5-1.8-1.2 1.5-.3 1.9-1.4-6.1.8-4.3 3.9z"/><path id="path3819" class="st0" d="M340.7 494l-2.2-.5.7-2.3 1-1.7 1-1.7h1.5l1 1.8-1.8 1.3-.3 2-.9 1.1z"/><path id="path3821" class="st0" d="M340.3 497.1l-.5 1.5-1.7-.2-.2 2.2-.3 2.5 1.2.8-.7 2.8-.7 7.5 6 2.2 2.3-3.3 2-.5 1.7-1.7v-1l1.2-.2v-.7l-3.8-3.5v-1.2l8.7-3.2-.3-1.2-.8-.2-.2-4.2-.5-1.2-8.7 4.8-2.2.2-.6-1-1.9-1.2z"/><path id="path3837" class="st0" d="M337.1 514.9l-.8-4.8-1.8-4.2.6-1.1.3-1.8.1-2.5 1.3-.9.2-2.4.8-1.8.8-2 2 .8-.3 3.3-.3 1.2-1.7.1-.7 4.5 1.1.8-.5 2.4-.7 8.2-.4.2z"/><path id="path3839" class="st0" d="M366 449l-2.5 2.6-1 .1-3.1 1.4-1.5-.4-2.5-.3-3.4 1.1-2.4-.4-2.4-.6-.5.4-2.9-1.5-1.6-.4-.8-1.9-2.8-.3-1.4-1.8-3 .4-7.9.1-1.9 2.1-2.5 1.3-.6 1.8-3.4-.1-5.8-.5-.9.3-2.8-1.5-2.4-1.8.1-2.3-3.8-.5-1.9 1.3-.3 2.5-1.1 2.6-1.5 1.1.4 1.3 3.1.1 1.5.1 2-2.5 2.5.3 2.4-.3 1.4-.1.8 1 .9.9.8.4-3 .5 1 1.6-2.1-.3-2.9-.1-1.8-.8h-3.3l-2 .4-.6 1.4.6 2.3-.5 1.5 2.1.1.9-.1-.4 2.3.9 1.4v1.8l-.8.8-1.3-1.1-.6 1.1.4 1.3 1.6.3 2 1-1.3 1.4 1.5.6.5 1.6-.8 1 2.1.4 2-.1-1.8 1.5 1.4 1.1.6-.9 1.8-.5.9 1.1 1.9 1.5 2.3.6 3.5-.4.4-2.5h2.3l2.8 1.1 1.9 1.5.9.9h5.1l2.1-1.4 2.3-2.1h2l.5 1 2-.3 1.5-2 .4 1.5-1.1 1.5.3 2.8 3.3-3.2v-2.5l1.7-.8 1.7 1.5 4.8-1.5 3.4 1.5 5.6-1.9 4.3.3 1.3-1.5 2.1.3 1.5-.4 1.9.1 2.9-.9 1.3.5 2.2-.3-1.6-3.8.1-3.8-.5-3 1.5-3-1.7-1.6-2-.5-.3-4.7-1.5-2-2-.5-.7-2-3.2 1.3-1.6.1z"/><path id="path3841" class="st1" d="M324.9 486.3l1.9-1.2h1.8l1.3-.9h2l3.1-1.9.4 1-2.7 2-.1 1.3.3 1-1.6.4-1.9-.1-1.2.4-1.1.5-1.3-.2-.4-1.3-.5-1z"/><path id="path3881" class="st1" d="M324 381.1l-3.9 1.1-1.8 3.4-.3 2.5-2.5-1.3-2.3-.5-1.6-.6-1.4.8-5.3-.8-2.8-.8h-2.9l-6.4-.6-3.3 1.6-1.3.9 1.3 3.4.8 2.9-.6 2-2.9 1.9-1.8 2.4-.5 1.6-2 .4-.8 4.8 2.5 3.8 1.5-1 3.3.9 3 .4 1.5.8 2.4-1.3 2.3-.3 3-1.6 2-1.1 1.6-.6 2.9 1.4 3.1.8 1.5 1.5 1.1 3 1.4 2 .1 4.3-1.9 1-1.4.4-.6 2.4-1.3.9-2.1.1v1.5l1.8 1.6 1.8-.9 1.5-.3 1.6-.5 2.5-1.1.3-1.8.1-1.4 3-1 2.9-.8 1.1-.3v2.6l1.4 1.3 2.5-.4 2.1.5.8.4-1.6 1.3-2.5 1.4.1.8 2.4 1.4.9.4v3.3l1 1.5 3.8-1.3 2.4-1.6 1.8-1.4 2.4-.3 1-.9-2-.4-2.5-.3h-1.5l-.4-1.3-1.1-1.7-1.3-.6-1-1h1.9l2.3-.5 2.3-2 3-.9 2.3-.6 2.4-1.1 2.3-1.8 3.5-.1-.8-2 2.8-1.5 1.6-1.8h2.3l2-2.8-1.7-3 1-4.6-2.3-.6-1-1.3-1.2.2-2.3-1.8-2.3-1-1.5-2-2.5 1.5-2.8-1.2-3.5.3-2.5-5.8-3-.2-.7-5-2-2.7-8.5.7z"/><path id="path3883" class="st0" d="M302.1 407.5l.6 1.1 1.3 2.1 1.9 1.6 1.5 3 .5 2.8-.1 4.9v.6l2.1-.1 1.3-.9.6-2.4 3.3-1.4-.1-4.3-1.4-2-1.1-3-1.5-1.5-2.8-.8-3.3-1.4-2.8 1.7z"/><path id="path3885" class="st0" d="M284.1 410.3l-.5 1.6-2.4 1.1-1.1 1.1-.8 1.9-1 3-2 1.6-3 .6 1.5 2.6 1.9 2.3 1.5.8.5 1.5 1.8 2.3 2 .5 1.5-.4-.4 1.8 1 1.6.5 1.4 5.8.8h3.8l1.9.3 4.5-1.6 1.6-1.3 2.5.9.8.3h1.1l.8 1.3 1.4.3 1.1-4.1.4-2 .8 1.5 1.9-1.1.6-2.1-.3-2.6-1.3.3-1.6.1-1.3.6-1.8-1.6v-7.8l-.8-2.3-1.1-2.8-1.9-1.6-1.9-3.3-3.9 1.9-2.3.3-2.4 1.3-1.5-.8-4.1-.5-2.1-.8-1.7 1.1z"/><path id="path3887" class="st0" d="M301.3 447.5l-1.9-.4-.4 2-1.9.9-3.1-.1-2.4-1-1.6-.4-2.5 1.4h-1.6l-.3-3.5-2-1.3-.5-1 .5-3.8 1.4-1.1-1.4-3 .4-2.6 1 1.9 2.8.4 5.1.4h1.6l1.9.3 3-.9 1.5-.8 1.6-1.3 2.9 1.3 1.5-.1.8 1.3 1.4.3.1 2.9-2.1.1-.6.6-.1 3-1.5 1-.8 1.1 1.8.1.6 1.9-2.9-.5-2.3.9z"/><g id="g7374"><path id="path3889" class="st0" d="M285 450.6l-2.8.8-1.1-.3-1.3 1.5-3.3.4-.6 3-1.5 2.3-.3 1.3-4 .5 1.5 2.9.9-1.6 1.1 2 1.4.8.4 1.5-1.3.9 1.8.3.9 1.6 2.1-.1 3.8.1 1.9 1.4h-1.9l-2.4-1-2.5.4-1.6 1.4-1.1-1.4-1.3-1.3-.6 1.5 1.3 1.1h.6l-.5 1.5 1.5.3.6-.8.3-.8 1.4 1.8.3 1.4.4 1.4.8 1.9.4-1.6 1.9 1.1.5 2s.9-2 1.3-1.5 1.8 2.3 1.8 1.8-.5-3.5-.5-3.5l-1.9-2.1 1.6-.6 1.1 1 1.1-.8-1.5-1.5 1.9-.4 2.3 1.4.4-2.5 1-1.4-.6-1.5-1.3-.9-2.5-.5-1.1-1-.1 1.5-1.4-.8.8-1.4-.1-1.8-.4-1.8-.9-1.5.6-3.8 1.4.8.8 2.3 1.6.6 1-2.1-.5-2 1.8.4 1.9-1.6.9 1 1.1-1.4 2.1 1.1 2-.1 1.5-1.1 1.1-2.6.3-2.5-1.4-.6-.4 2-1.9.9-3.1-.1-2.4-1-1.6-.4-2 1.5-2.1-.1-1.4.4z"/><path id="path3891" class="st0" d="M286.9 483.8l1.9 1.3h2l1.6 1.3h2.3l2.9-.1 2.4-1.1 1.9-1.1 1.6.1.6-1.4 1.5-1.8 1.1.5 1.3-2.1-1.1-.9-1.9 1.5-.4 1.3-1 1-1.6.5-.9 1.1-1.8.9-1.3.5-1.1-.6-1.9-.5-1.9-.1-1.1-.4-1.3-.8-1.4.5-2.1-.4-.3.8z"/></g><path id="path3893" class="st2" d="M297.2 462.8l1 1.1 1.3.8 1.1-1.1-1.4-1.4-2 .6z"/><path id="path3895" class="st2" d="M297.2 466.5l-.3 2.4 2 .5.6-1.6-1-1.5-1.3.2z"/><path id="path3897" class="st2" d="M293.7 458.8l-.4 1.8h1.8l.8-1.3-2.2-.5z"/><path id="path3899" class="st0" d="M276.6 453l-1.8-2.2.3-3 1-1.2.5-1.5 2.2-.2 2-1.5 1.5.7h.9l1.1 1.3 1.4.9.3 3.5-1 .8-2.3.5h-1.6l-1.8 1.7-2.7.2z"/><path id="path3901" class="st0" d="M270.8 459.5v-1l-1.2-1.7-.3-3.7.2-2.2.2-1.2.3-1.7-.3-.5.5-4.7h2.5l1.3 1.2 1.3 1.2-.2 2.5-.2 2 .3 1.7 1.3 1.5-.6 1.8v1.2l-1.1 2-.6 1.5-3.4.1z"/><path id="path3903" class="st1" d="M269.7 448.1l-1.3-1.1-2-1.6-.5-2.6.5-2.5 1.8-1.6 1-1.6.5-.5 1.3 1.1 2.3 2.1-1.1 3-1.9-.3-.6 5.6z"/><path id="path3905" class="st1" d="M270.3 435.9l-.6-3-.4-3.3-.1-2.6.3-1.5-1.4-2.6 2.4-1.4 2.8.1 2.9 4 2.1 1.3 1.1 2.1 1.1 1.6 2 .5 1.5-.4-.4 1.8.6 1.5-.5 2.3 1.4 3-1.4 2-.5 2.9-1.4-.1-1.4-.5-1.6 1.5-2.2.2-1.5 2.4.1-2.2-1.5-1.5-1.8-1 1.1-3-2.3-2.1-1.3-1.1.9-.9z"/><path id="path3907" class="st0" d="M263 441.3l-1.4.5v-2l-1.6-2.9-2.9-1.9-1-2.8-1.1-2.3-.8-1.6.5-1.4 2.1.9 1-.9 3.3.6 1.3.8 1.8-.5 1.6.4 2 1.6 1.6-.3.4 3.6.6 2.6-1.1 1.1-1.3 2.1-1.5 1.1-.5 2.5-1.3-.1-1.7-1.1z"/><path id="path3909" class="st0" d="M251.6 425.4l-3.1-.3-2.9.3-1 1.3-1 1 2.3 2.5.1-2.3 1-.6 2 1.5.6 1.4 1.1.4s-1.9 1.4-1.5 1.5c.7.4 1.4.8 2 1.3l-.4 1-.1.8 1.5 1.6 1.5 1.1.6 1.5 1.8-.8 1.6.3 1.3 1 .4 1.5.9.4 1.3.8 1.3.9 1.4 1 1.4 1 1 .1-1-2.3-.8-.5-1.8-1.4-1 .6-.4-2.1-1.6-2.9-2.9-1.9-2.9-6.6.5-1.4 2.1.9 1-.9 3.8.9.8.5 1.8-.5 1.3.3 2.4 1.8 1.6-.3-.1-2.6.3-1.5-1.4-2.6h-5.8l-3.9-3.4-1.8-.8-1.9 1.6-1 1.3-1.9 2.9-.5.7z"/><path id="path3911" class="st0" d="M261 409.1l-1.1.3-.5 2.3-1.8.4-1 3-1 1.6 1.1 2.1 1.8.4 3.9 3.8h5.8l2.4-1.4 2.8.1 3.1-1 2-1.6 1.8-4.9 1.3-1.5 2.3-1.1.8-1.6-2.5-3.8-1.5.3-5-.4-1.8 1.3-1.6.8-3.5.6-1.3 2-2.5.3-2.9-.1-1.1-1.9z"/><path id="path3913" class="st0" d="M245.1 425.1l-.4-1.8-1-2.1.8-2.5 2.1.4 2.1.4 2.9-1.3 1.6-1.1 2.4-.5 1.1 2.1-1.9 1.6-2.9 4.1-.4.9-2.5-.1-2.9.1-1-.2z"/><path id="path3915" class="st0" d="M259.8 409.4l-1-.9.4-1.8-.3-1.4-.3-1.4 1-1 3-.4 2.9-1.9.9-1.3.1-1.5 1.8 2.1 2.1-.9 1.8 1.4 1.9-.3h1.4l2.3-.4 1.4-.6 1.8 1.3 1.8 1.4-.8 4.1-1.5.3-2.8-.4h-2.3l-1.8 1.3-1.6.8-3.5.6-1.3 2-5.4.1-.8-1.3-1.2.1z"/><path id="path3917" class="st1" d="M288.7 386.8l-.4-1.8.5-3-1.6-.9.6-2 1.5-1.8.1-3.3-1.3-4.1 3.3-.8.6-1.6 3.1-1.9h1.1l1-4.1 4-3-.4-2.4 1.4-1.3 1.8-.9 2.5.1 1.1-2 1-1 .6.9 5.4.5 1.1 1.8 3.5-.5 1.3 6.3 1.5 5 2.3 2.3.2 2 2 2.1-.9 3-3.3-.2 1.5 6.5-3.9 1.1-1.8 3.4-.3 2.5-2.1-1.1-2.6-.6-1.6-.6-1.4.8-5.3-.8-2.4-.8-2.8.1-7.1-.8-3.8 2.9z"/><path id="path3919" class="st0" d="M306.5 337.9l-1.4 1.6-2.4-.4-2.3.5-4.5-3.4-4 .9-.9.1v-2.5h-1l-.6 1.6-1.5-1.9-1.1-1.9-1.4.6-.4 1.6-2 1.1-1.3.5-.6 1.5-.8-1.6-.6-1.8.8-1.4h1.6l.4-1.3-.8-1.3-1.5-.3.9-.8 2.4-.9 1.1 1.3-1.3 1.8-.1.9 1.3-.1 1.3-.1.9-.9-.4-1.4-.9-.5 1.4-1.6 1.4-1.5 1.8-.4 2.3-1.9.8.6 2.9.1 1.4-.9 1.9.8 2.6.5 2.3.4 2.2-.3.3 2.7-2.8 2.8 2.3 5.8.3 1.4z"/><path id="path3921" class="st0" d="M289.5 346.4l-3.3.3-1.1-2.6-1.8-2.1-1-1.5-3.9 1.9-.9 2.5-.3 2.4-1.1 2.3v3.3l4-2.5 9.9-.4 1.9.4 1.5-.5 1.6 1.8 3 1 3 3.8 1.4-1.3 1.8-.9 2.5.1 1.1-2 1-1-.5-1.1v-8.4l-.8-3.2-.9-.8-.9 1.6-2.9-.4-2.3.5-4.5-3.4-4.9 1-.4 6-.4 2.6-.8.6z"/><path id="path3923" class="st0" d="M275.8 354l.6 2 .4 2.1 1.1.5 1.5 1 2.6 1 2.8.5.4 2.4-.1 1.6 1.9 1.4.9 1.8.4 1.8 3.3-.8.6-1.6 3.1-1.9h1.1l1-4.1 4-3-.4-2.4-3-3.8-3-1-1.6-1.8-1.5.5-1.9-.4-9.4.5-4.5 2.4-.3 1.3z"/><path id="path3925" class="st0" d="M265.8 396.3l-3.1-.6.9-1.8-.8-.9-1.4.8-2.5-.4-.5 1.4-1.6-1.5.3-1.1-3.1-.1-2-.4-.8-1.3-.9-.8.1-2.9-1-2.3-.5-4.9-.3-1.3-1.3-1.8.1-1.6.1-1.3-1.5-2.6v-.8l.8-1 1.5.6-.5 1.1.4.9-.2-.9.8-2.1 2.5-1 3.1-.9 1.9-1.8 2.6-1.3 3.9-.5 2.3-.3 1.5 1.4h-1.4l.9 1.3 2.1 1 .9.1 2.6-2h2.6l2.5-.1 3.6 1.3 3.8.1 1-.9 1.8 1 .9 1.8.4 1.8 1.3 4.1-.1 3.3-1.5 1.8-.6 2 1.5 1.3-.4 2.3.4 2.1-.6.6 1.9 4.4.4 1.9-.6 1.5-2.5 1.8-2.1 2.5-.5 1.6-2.4.6-2.6-2.1h-1.1l-1.8.8-1.9-.1-2.6.5-1.8-1.4-2.1.9-1.8-2.1-1-1.7z"/><path id="path3927" class="st0" d="M257 404.3l-1.1-.1-1.5-.9-3.5-.5-.3 1.8-2.1 1.1-2.8-1-5-4.8-1-1.8.1-1.8-1.1-2.4 2.6-.3 2.6-1.5 2.1-1.3 1.3-.1.4-1.8.9.1 1.4 1.6.4-1.3 1.1 1.4.5.6 5.1.5-.3 1.1 1.6 1.5.5-1.4 2.5.4 1.4-.8.8.9-.5 1.9 2.8.5.8 1.8-.1 1.5-.9 1.3-2.9 1.9-3 .4-1 1-1.8.5z"/><path id="path3929" class="st0" d="M244.6 405.9l-3 2.8.5 2.1-.6 1-3-.3-2.6 1.1-1.3-.3-.8 1-1.9-.8-2 .3-1.1.3h-1.4v1.6l.8.6 1.1.5.9-.1 1.4.6-.1.8h1.8l2-.6 1.6-.5 1.1-.9 1.3.1.9 1v1.3l1.8.1 2 .5 1.1.6 3.8.8 3.3-1.5 1.3-.9 2-.4 1.4-1.8 1-3 1.8-.4.5-2.3-1-.9.4-1.8-.5-2.8-1.8.3-1.1-.1-1.5-.9-3.5-.5-.3 1.8-1.6 1.1-2.3-.6-2.4 1.1z"/><g id="g7393"><path id="path3931" class="st0" d="M252.6 458.5l-1.3.3-1.6-.9-.5-1.8-.9-1.1-1.5.6-1-1.5-.1-1.4-1.5-1-2.8-.1-2.3-1.3-2-2.3-1.5-1.3-1.6-1.3-1.4-1.6-2.4-2v-3.5l-.8-1.5-.9-1.4-1-1.1-.9.3-1.4-1.1-1.8-.3-1.8.5-.9 1.8-1.4-.6-.1-1.4-1.8-.1-1.4-.8-.4-3.4-.8-1.1 1.5-2.1-.3-3.5 3.4-1.3h.9l1.3-1.9 1.4 1.8 1.1 1.5.9-1.1-.4-1.6h3.1l1.3-.1 2.1-2 .4-.9h2l2.4-.9 1.1-.9h1.6l.9 1v1.3l1.8.1 2 .5 1.1.6-1.3 2.5 1.1 2.5.3 1.4h-1.4l-2.4.1-1 .8-.6.5h-1.8l.6 1.1.1 1.4-.6 1.6v1.4l.6 2 1.6 1.4 1.9 1.3 1.3.1.8 1.8.3 2.4 1 1.6.8 1.9 2.5 1.9s2 1.1 2.4 1.4c1 .4 2 .6 3.1.8l-.4 1.4.9 1.4 2.8.9 2.5 1.4 2.3 1.1 1.4 1.1 1.4 1.6.4 1.3-.9 1.5-1.5-1.3-1.4-1.3-1.1-.5-1.1-1.1-1.3.9-.9 2.1-.6 1.1 1.8 1.5 1 .8-.4 2.3-1.3.6-1.1.8.3 2.1-.4 1.4-1.3.6-1.6.5-.6-1.4-1.3.4.1 1.3-.8 1.6v1.8l.4 1.5-.9 1.1-2.1.5-1.5-2.4h-2.1l-1-1.3-1.5-.3-.6-1-2.3-.1-.5-1.9v-1.2l2-.1 1.5-.1 1.3.1.9.9h2l1.9-.4 1.8-.5h1.3l1.1-.6 1-1.1.8-1.3.6-.6-.4-1.5-.3-2-.6-.8-.3-2.1-.5-.7z"/><path id="path3933" class="st0" d="M225 451.9l-1.7 1.1-1.4 1.2-.8-.4-.8-.7.2 2.3.8.5.3 2.2v1.5l.6.2-.8 1.3v1.8l.8 2.1 1.1.6 1.5-1.3 1.7-.2 1-.8-.4-3.2V458l-.6-.7 1.2-.5-.1-1.4-.7-1.2.1-1.1-.7-.8-1.3-.4z"/></g><path id="path3935" class="st0" d="M217.2 422.7l-.6-.9-.3-2-1.3-.7-1.9.7-.4.6.9-2.3 1.7-2.8 1.2-1.7 1.8-1.2.8-.3 2.5.4 1 .2 1.5-1.1h2.3l1.3.2-.1 1.1-.2.9.1 1 1.4 1.5 1.4-.5 1.1.5.4 1.3-2.2 2.3h-4.2l.2 1.8-.9 1.1-1.7-2.4-1.1-.5-.8 1.5H220l-2.8 1.3z"/><path id="path3937" class="st0" d="M218.4 411.6l-.2-2.8.7-2.4 1.6-1.8 1.1-2.1-3.9-.3-2.1-.8-1.6-.4-.5-.9.2-2.8-.7-1.4-.4-1 1.3-2.2-1.3-1.3-.6-1 .3-1.8.4-1.8-.1-2.1-.1-1.2 1.7-.3 1.3-1 1-1.7.3-2v-1.8l.6-1-.4-1.1-1.5-.4-.3-.9 1.1-.9 1.1-.8 2.3-.1.5.6.5 1.3 1-.2-.2-1.6.3-1h1.3l1.4.4.5-.6-1.1-1.1.1-.9-.5-1.2-.6-.7 1.1-.5.6-.7-.9-1.1-.9-1.2.2-.8 3.1.1.9 1.6.8-.3.8.8-.3 1.2 1 .8 1.3.2 1 .4 1.3-.2.3 1-1.7 1.1.1 1.4 2.2-.8 1.4.2.8-1.9 2.2-.2 1-1.3 1-.3 1 1.1 1.2-.2-.7-1.5 1.8-.9 1.5 1.7-.3 1.1-2-.1v1l1.2.8 1.3-.3 1.7.7-.5 1.8 1.1 2.2.4.9-.4 2.6 1.5 1.8.6 5.6 1.1 3-.1 2.7-.4 1.3-1.6-1.6-.6-.2-.3 1.6-1.6.3-4.5 2.8-2.6.3 1.1 2.4-.1 1.8.7 1.6 5.3 4.9.5.6-1.7.7-3 2.8.5 2.1-.8 1.1-2.8-.4-2.6 1.1-1.3-.3-.8 1-2.1-.7-2.9.4-1.2-.1-.1-1.3-3.3-.2-1.9 1.1-3.7-.5-.4-1z"/><path id="path3945" class="st0" d="M215.2 373.3l-1.7 1-3.2-.2h-2.1l.2 1.8 2.2 1.7.3 2.3-2.2 2.2-1.2-2.2-.3-2.5-1-1.8-.8 1.5-.3 2.3v2l-1.5 1 .3 2.2 1.8.3-.3.8 1.3.8h1.7l1.2 1.5 2.4 2.2.6-3-.5-4.2 2.2.1 1.8-1.3.5-1.4.3-3.8.6-1-.4-1.1-1.5-.4-.4-.8z"/><path id="path3947" class="st0" d="M204 386.5l-2 .8-.8.5-1-.3-1.7 1.5-1.3.7 1 1.5 1.2.2.8 1.3 2.3.2 2 2.7.5 1.5 2.2-1.3.3 1.7 1.7 1.3 1.5 1.5.5-3 1.2-1.8 1.5-2.7-1.9-2.3-2.4-2.2-1.2-1.5h-1.7l-1.3-.8-1.4.5z"/><path id="path3949" class="st0" d="M213.8 400.5l-1.5-.2-1.7-.2.5-3 1.2-1.8 1.3 1.9.2 3.3z"/><path id="path3951" class="st2" d="M220.3 435.3c0 .8-.6 1.4-1.4 1.4-.8 0-1.4-.6-1.4-1.4s.6-1.4 1.4-1.4c.8 0 1.4.6 1.4 1.4 0-.1 0-.1 0 0z"/><g id="g10961"><path id="path3953" class="st0" d="M191.6 388.1h-3.3l-1.3-1.3 2.3-1.5 1.8-2.5 1.8-.3v-4.3l-2.8-2-2.8.3-.5 1.5-1.3-1.5.5-2.5-1-2-.3-2.3-2.5-3.5-3-2.8-1.5-1.8-.8-5-3-3.3-1.5.3H171l1.3-1.8 1.3-.3-.8-2.5 1.8-1.5 1-3.3 1.5-1.5-.8-2.5h-5.5l-3 .8-.5-2 1.8-2.3 2.5-2.3-.3-2.3-2.2.5-2 .7h-3.3l-1 .8v2.2l-1.8 1.3.2 1.8s-1.8.3-1.5 1c.3.9.4 1.9.5 2.8l-2.3-1.3-.3-1.5-1.8.2v-1.3l1.8-1 .7-3.3-1.7 1.2-2 1.2-.2 1.8.3 1.3 1.3 1.5-.2 1.3 1.2 1 1.2 1.5 1.3.7.5-1.8.5 1.3-.7 1.8s-1.3.5-1.2 1c.3.7.7 1.4 1.2 2l2-.3.8-1.2.2 1.7-1.5 1.7-.2 1.7-.3 2-1 3.5 3-2-.2-3.2 1.5 2.5.7 2.7-.7 1.2-.8 1.8.8 1.5 1.8-.5 1-1.3 2.2.7h1l-.3 1.8 1.3 2 .2 1.5 1.7-.3-.7 2.8v1.7l1.3 1.3-2.7.5h-2.8l-2.5-.8 1 2.2-1.8 1.7s-1.2 1.5-.7 1.3c.9-.1 1.8-.1 2.7 0l.2 2.2-2.2 2.3-2.7 1.5 1.3 2.3 2.2-1 1.7.3 1 .3 2.3 1 1.5-.5-2.2 1.2-2.7.3-.8 2.2-1.8 1.3-1.5 2.2-3.7 3h2.8l2-1.5 1.7-.7 2.8 1.2 1.5-2.8 1.7-.3h2.7l1.3.3 3-1.5h2l3.3.2 2.5-.2 2.8-1.8 2-1 .1-1.4z"/><path id="path3955" class="st0" d="M180.4 315l-1.8 1.3v2.2l-1.7 1.2 1.8 1-.2 1.5 1.8-3 .7-2.5-.6-1.7z"/><path id="path3957" class="st0" d="M172.4 328l-1.7.5.3 1.7 2.8-.2-1.4-2z"/><path id="path3959" class="st0" d="M156.4 360.8l-1.2.3-.8.2-.8 1.5-1.3 1.5h-1.5l.7 2.2 1.8 1.7 2.3-1.5.7-.7 1.3 1.5 2.5.8 1-1.5-.8-2.3v-1.7l-1.5-2h-2.4z"/></g><path id="path3961" class="st2" d="M165.2 367l-.7 2.5 2.7-2-.7-1.3-1.3.8z"/><path id="path3963" class="st0" d="M157.5 381.8v-1.9l1.6-2.8-.1-2-.8-2.3.1-2.8 1.7-1.8-2.5-.8-1.3-1.5-.7.7-2.3 1.5-2-2-.5-1.8h1.5l2.2-3-.4-1.7h-1.9l-1.4.8-2.4.5-1.1 1.5v2.1l1.8.3v1.4l-1 .6-.5 1-1.8-.3-1.5-.4-1.3.1-.5 2-1.3 2 .3 1.9 1 1 1.4.8 1.8.5-1.5 1.6-.6 2 2.6.1-4.3 1.1-.5 1.8-1.3.5 1.9.8-1.9 1.1 1.1 1.1 1.9-1.1-1.8 2.3 2.1-.6-1.1 1.8 3.1.4 1.8-1.3 2-2 1.5.5 2.8-2.1 1.1-.9 2.1.4.9-1.1z"/><path id="path3969" class="st0" d="M304.5 317.5l-2.8-.1h-4.3l-2.9.6-2 1.3-1.9 1.3-2.9 1-3 .6-3.5-1.3 1.5-2.1-1.5-1.3-2.5-1.6-1.8-.6.3-3 .9-1.3v-5.2l-.9-2.9-.3-1.8.1-1-.8-1.8.6-2.9 2.4-2.6.6-2 2.3-2.6 2.5-2.6 1.8-1.6 2.6-2.5.8-2 2-3.9 2.8-.5.3-.9-.5-2.5.3-2.6-1.6-2.3-1.8-1.5-1.5-1-1-3-.5-1.6.9-3.9-1.1-2.5-.1-3.4.9-2.6-1.1-1v-3.8l1.1-1.6-1.5-1.4-1.4-1.1-1-2.1-2.9-1.3-1.5-1.9-3.3-2.9-.9-1.3.9-4 1.8.3 1.5 2.5.8 2.8 1 2.3 3.6 1.3h2.3l1.3-2.1 1.5 1 2.1 1.4 2.1-1.5 1.4-3.1 1-2.8.1-2.3.9-3.8 2.8-3.5 2.6-.3 3-1.1 1.5 1.9 1.6 1.6 2.3.6-.6 2.9-1.1 2.8-.4 2.9-1.9 2.9v2.2l1.5 3.3 3.8 4 1.2 3.5.9 1-4.5 7.8 4.8 12.8-.8 1-.3 3.8.3 3.8 1.3 2.2.3 3.5 1.5 2.3-2.3 3.5 2 3.2 2.5 1 .7 3 1.2 1-.4 2.5-6.4 6-4.1 7.4-3.9 3.3-2.3 3.2-1 .6z"/><path id="path3971" class="st0" d="M275.3 228.6l-2.8.5v2.8l-.5 2 .5 2-2-.3-2.8-.5-2.3-1.3-1.3 2.3-.5 3.8-3 1-2.8 1.5-.8 4-1.5 2v2.8L253 256l-1.5 4-1.5 2.5-2.3.3-.8 8.5-2 4.3-1.3 3.3 3 2.5-1.5 2-4.8.3-1.5 3.5-.5 4-1.5 3.8 1.5 4.8-.3 4.3 1 4.5.5 2.5-.5 1.8.3 5.3-.8 4-2.6 3.6-.6 4.5-2.4-1.4.5 4.1.4 3.1.8 3.3 1.1 1.6.5 2.4.9 1.4 1.6 3.4 1.6 2.1-.1 2.1-1.4 1.6 1.1 2 1.3 2.1.9 1.4 3.6-.9.8-2.5 1.3-2.6 3.8-.3 2.3.1 1.4-4 .6-2.4.4-4 1.3-2.3-.3-3.3.1-2.5-.9-1.1 2.1-1.3 2.9-2 .5.6 1.5-2.3 2.1-2.1.1-1.5.5-2.5-.6-2.1-1.5-2.5-1.9-1h-1.3l-1.3-2.5-.8-2.3.3-1.6 1.3-3.6-.4-2 .4-3.1.1-1.8 1.3-1.1.5-2.5 1.4-.1 2.1-3.8 1.5-2 1.6-.5 1.4-2.1 3.3-.6 3.3-3.3.4-2.5 1.6-.6-1.8-2.4c-.1-.7-.2-1.4-.1-2.1.2-.3 2-2.3 2-2.3l-.9-2.8.4-1.8 1.6-.4.8-3.3 1.6-.9 1.1.8 2-.4 2.8-.3.6-.5.5-.1-1.5-4.6.9-3.9-1.5-2.3.3-3.6.9-2.6-1.1-1v-3.8l1.1-1.6-2.9-2.5-1-2.1-2.9-1.3-1.5-1.9-4.1-4.1-.9-.6z"/><path id="path3973" class="st0" d="M267.7 338.8l-2.5 1-2.1 1.8.4 4.1.6 1.5 2.5-4 .1-1.6 1-2.8z"/><path id="path3975" class="st2" d="M258.5 343.4l-1.6 3.4-.9 5.1 2.4-4.4.1-4.1z"/><path id="path3977" class="st0" d="M324.5 221.6l-3.3-.4-1.9 1.5-3.3-.7-1 2-2.8 1.7-1 3.3-1-.3.4-2.9 1.1-2.8.6-2.9-2.3-.6-3.1-3.5-3 1.1-2.6.3-2.8 3.5-.9 3.8-.1 2.3-2.4 5.9-2.1 1.5-3.6-2.4-.9 2.1h-2.6l-3.6-1.3-.9-2.8-1.5-3.1-1.4-1.9h-1.3l-.9 4-1.1-.6-2.8.5-.1 3.1-.4 1.6.5 2-4.8-.8-2.3-1.3-1 1.8-.8 4.3-5.8 2.5-.8 3.6-1.5 2v3.1l-2.5 4.8-1.5 4-1.5 2.5-2.3.3-.8 8.5-3.3 7.5 3 2.5-1.9 2.3-4.4.5-1.5 3-.5 4.4-1.5 3.4 1.5 4.8-.3 4.3 1.5 7-.5 1.8.3 5.3-.8 4-2.6 3.6-.6 4.5-4.4-2.3-.5-3.1-1.1 1.9-.3 2.5-3.3 1.9-2.4 2.6-2.9 3.5-2.9 1-3-.8-2.8-.6-2.1-2.9-2.1-2.1 2.8-1-.3-1.4 1-2.3-3.3 1.1-.5-3.1 3.9-1.4-1.4-1.1-.8-1.5-2.3 2.4 1.4-3.4-1-1.1-.1-1.4 1.3-1.9-2.4-.9.8-1.6 4.9-.4 1.4-.1-1.9-1.4-3.3.9-1.6-1.9 1.4-1.1-.4-2-.8-1.8 1.8-1.4 1.9.6-.4-2.1 2.4-1-2.6-.6 2.1-1.8 2-.9 1.8 1.1 2-.9-1.1-1.9.6-1.3 2.3-.3-1.4-1.1.9-1.4 2.5-.4 1.9-.1 1.3-1.8.5-1 1.8-.5 1.5 1 2.1-.3.5-1.5-2.5.4-.6-2.4.5-3.1 3-2.4 2.1-2.4 1.8-1.9-1.8-1.1 2.6-1.8 1.9-1.3-.4-1.5.4-3.3 1.4-1 .3-1.5-1.3-.9 2.3-2.5h2.3l-1.3-1.6.9-2.4.9-1.9 1.6-1.5.1-1.3 2-1.8 2.6-1-1.6-.6 1.3-2.8 2.1-.3-1.3-3 2.4-3.1 2.9-2-2.5-1.1-5.1 2-2.3.6-3.6 2.6-1.9 2.1 1.5-4.6 4.5-1 1.4-1.1 2.5-2.3.5-1.6-2.9.1 1.8-2.9 1.4-.4.3 2 1-1.5 1.6-1 .3 2.8 1.4-2.9 2.4 2.5 1.9-2.9 1.1-1.9-2.4.8 2.6-4.1 2-.8 1.3 3.3.9-2.9 2 1.6-.6-3.1-.1-3.4 2.9.1 1.3 2.5 2.1-3.8 1.5 4.8.6-4.6 1.5-.5 1.8-1 2.9 2.9-1-3.5-2.5-1.8 3.6-1 3.4 1.6 1.3 3.9v-5.8l2.1-1.1 1.1-2.6 2.5-1.5.1-2.6 3.1-.8 2.1 1.3-1.9 3-.1 4 2.5-2.6 3.8-5.3-.1 5.3s-.3 2.5-.1 2.1l1.9-3.8 1.9-3.1.4-2 3 1 1.5 1.3-2.6 2.9.3 3.5 1.8-5 2.1-1.1 1.9 1.8 2 1.4s2.1.6 1.8.9c-.3.3-.6.7-.8 1.1l3.1.6.8 1.3-.5 1.3-3.4 1.4-2.5.6-4.5-.4 3 1.1 2.4 1.4 1.3 1.1 1.8 1.1 2-.6 3.8-.6.3-1.4 3.3 1.3 1.6 1.5-.3 2.3-2-.1-1.6-.5z"/><path id="path3985" class="st0" d="M147.3 454.3l-.4 3.9-1 2.5-1 2.9-.1 2.8.9 1.1 1.8-.6-.5 2.5-.1 3.4-.9 1.9 2.9.3 2.8.3 2.5-1.3.3-3.9 1.5-1.4-1-1.5.5-3.8-1.5-2.5 1.8-.9.9-2.8.3-2.6-.1-3.1 2-1.1.5-1-1.3-1.3-.1-1.1-1.4-.3-1.6.6-4-.3-.4-1.8-2.8 2.5-.4 2.5.3 2.5-.4 1.6z"/><path id="path3991" d="M179.2 437.3l-1.3 2.3-3.8-.3-3.5-.5-2.8-.3-2.5.5-8.5-.5-3.8-.5-1.8-1-2.4.8-.5 1.1-3.8.5v2.4l1.3 1.3 1.3 1.6.3 2.6 2.9-2.1.4 1.8 4 .3 1.6-.6 1.4.3.1 1.1 1.3 1.3-.9 1.3-1.6.9.1 3.1-.3 2.6-.9 2.8-1.8.5 1.5 2.9-.5 3.8 1 1.5-1.5 1.4-.3 3.9c.9.1 1.7.5 2.3 1.1.8 1 1.8 2.4 1.8 2.4s-.4 2.1.9 2.6c.7.3 1.4.4 2.1.4l1.8-2.5h2.5l2-1.8 3-.1 1.6 1.3 1.9-.6 2.1-.1 2.3-3 1.9-1 1.8-.5 1.8-3.5 2.1-2.6-1.8-2.1.1-3.3 2.4-2.4 2.1-3.1.4-1.1 1.6-1.9 2.6-.3 2.8-1.9 2.6-1.8.5-2.3.3-1.8h-2.6l-3.1-.6-1.9-1.3-2-.3H186l-2.1-.3-3.7-1.2.3-1.5-1.3-1.7h0z" fill="#d4a455" stroke="#fff"/><path id="path3993" class="st0" d="M198.6 458.9c-.5.3-3.1 1.6-3.1 1.6l-.5 1c.6.1 1.2.3 1.8.5.4.2 1.8 1.1 1.8 1.1l1.9-2.1-1.1-.8-.8-1.3z"/><path id="path3995" class="st0" d="M201.4 458.8l2.1 1.3 1.1-1.4-1.9-1-1.3 1.1z"/><path id="path3997" class="st0" d="M191.4 463.1l-1.4 2 1.6 1.6 1.1-2.5-1.3-1.1z"/><g id="g10977"><path id="path4123" class="st1" d="M356.9 437.8l7.8-.2 3.7 2 6 1.3 2.7 2.2 5.5.2 1.8 2.8 4.5 1.2 2.7 2.5 1.8.7 2-2.2-2-4.2-2.8-4 1-3.5-1.5-.8-1.3-2.5-2.3-.8 2.5-2.8 2-5.3.8-2 2 2.3 1.7-1.6.3-2.5 2-2.7-1.2-2-7.2-6.8-1.7-2.8 2.5-13.2 5.2 3.7.8-2.5-.8-2.3 1.5-2 .1-3.3 3.1.4 3.8-2.2.5-1.7 3 1-.5 2.2 2.2-1.5 2.3.2 2.7-.8 2.8.8 3.3 3.3.7 3.3 1.6-2.6 1.1.4 2.2 1.5 2.2.3 2.2-2.5h3.5l1.8 1.2 3.8-1 1.5 2.5 2.8 1.5 2.2-1.7 3.5 1.3 4.2-5-2-1.3-2.9-.3-1.3-2.4-1.8-1.2 3.8-1.7-.5-4.8 6 .2-2.8-4.6 1.8-1.6-2.7-1.3 1.2-2.7 2.8.7 10-1.7 3 .3 4-3.7 7.2-.7 2.5-1.2 3.5-3.5 3.3 1.3 3.9.6 1.1 3.7 1.1 1.3-.5 3.2 2.2 1.7.7-1.7 2.6.5.8 1.5 2.3-.8.5 1 .3 2.5 5.8.3 1.8-2.3 2-.3 2.5-4.7 3-.2-1.5 2.7 6.4 7.8 4.8 4.5 3.8 8.3 1.1 2.4 3.3-3.8 1.8 1 2 3.7 4-.2 3-1 2.7.3 2.8 5.7 2.5-.2 2.2 3 2.3-.3 2.5-1.3 1.3 2.5-.7 1.5h4.5l1.8-2.3 3.8-.3 1.2-2.7 2.3.7 2.5-1.8 3.6-.6 2.3-2 1.7.3.5-1 2.2 2.2 5.7-.2 2.6 2.5 1.3 1 4-.3 6.7 1.7 2-.7.7-5-1.8-.8-.3-3.5 1.5-4.7 1.8 1.3 1.2-3.5 4.3 2.3 6.2 1.8.8 1.5 3.8.3-.6 3.3 1.7 3.3 3.9 1.2 2.4-.3 1.8-1.2 5.3.7 1.2.8 3.3-.2 3.4 3.2 4.3 1.8 4.5.9 5.5 1 4.7-1.3 4.6-2 1.8-2.3 1-2 3.5-.9 2.3.2 1.8 2.5.5 1.3 2.8-.7 3.4 1.1 4.4 2.6 2.1-2.3 1.8-1.8 1.8-.1-.1-2.9 1.9-4.4 3-3.5 1.2-4.3-1.8-2.3-1-.5 2.7-3.8 4.1-.5 4.1-.2 3.7-1.1 3.5 2 3.8 1.9.5-1 3.2 2.8 3.8 9.3 3.4 7.3v2.8l1.3 1.3 6.8 1.2 3.5 5.2 1.2-.3-.5 2.2 1.5 1.9v2.4l3.3 1.3 4.8-1.8 6.3-1.8 4.6-1.3-1.3 2.7-.5 3-1.5 1.7-.5 3.5-2.3 4.3-1.3 3.8-1.5 1.5.2 1.7-4.5-1.6-1.7.6-1.3 1.9-1.8.3 1.3 5-.7 4-.2 1.5-3.3 2.1 1.6 1.7.5-1.5 1.5.3 1.6-.9.8-2.1.3-1.4.5-.9.4 2.3 1.6-1 .8 1.3 2.4 1 1.9.8 2.3-1.5 2-.6 3-2.4 1.6-2.4 2.4-3.1h1s1.5-4.3 1.9-4.5 3.8-2.4 3.8-2.4l2.6-5 1.5-3 1.1-2.9 1.3-.9.8-2.4 2-2.4 1.6-2.3 1.5-2-.4-3.6 1.3-1.1-.2-3.3-.3-3.3 1.1-4.8.3-3 1.9-2 .9-1.8 1.1-.1.3 2.8 1.8 2.9-.1 4.3-.1 4.4.1 5.4-1.9 4.4 1.3.5.8 3.6-.9 2.3.1 4.1-1.1 2 .5 3.9 1.5 1.8.3-2.4.3-2.1 1.9-1.4c.7.4 1.4.8 2 1.4.2.4 1.8 2.3 1.8 2.3l.1-2.1-2-3.1-.9-2.1-2.5-2 .6-3 1-3.1.3-2.6 2.6-1.9h2.8l2.6 3.5 1.4-.6-1.8-2.1-2-3.4-1.6-4.8-.9-4.1-.6-3.3-.3-2.4-1.8-2.5.6-2.6.9.8-.5-5.8-.6-3.4-.8-1.9.4-1.1-.9-2.3-1.4.5-1.8.1 2.1 2-.1 2.1-2 1-1.9.9.8 2.3.5 1.6-.8 2.4-.4 1.5-.1 1.1h-1.4l-.6-1.5 1.3-.1-.8-2.6-.8-1 .8-.9.1-1.8-1.8-1.6-1.9-1.1-.9-1.4-2.3-1.9-.4-.9-1.8.9-2.6-1.4.1 2.9-.4 2.5-1.4-.3.5-2.6-1.9 1.3-.9 1.8H781l2-2.1-.8-1 .9-2h-2.5l-1.1 2.1-.3-1.9.3-2.1-1.6-1.1-3.1.8-2-1.3.8-2.4 2.5-1.5 2.4-2 2.6-2.9 2.9-2.1 2-3.8 3.6-4.1 2.5-2.1v-3h2.1l1.9-4 3.9-3 3.1-2.9 4.3-.4 5.9-.3 2.5-1.5 1.9-.5.9.8 1.5-.3 1.4-1.5 2.5.9 1.6.6 2.4-.6 1.8.6 1 .6 2.1-.5-.9-1.3 1.1-1 .3-2.4 2.6.8 3.6 1.8 3.5.2 1.8 1s3.5 1.5 3 1.5h-5.2l-.3 2 2.5 1.2 2.8-1.5 2.5.5 2-2.2 2.8 1.5 1.5-2.2 4 .5-2.7-3h-2.2l-.2-4.2 1.2 1.2 1.7-4.7 3.3-2.2 1.8-3 3.2-2-.3-2.8 6.8-2 3.8-.8.8 1.2 3.2-1.3-.8 4.3-1 1.5.3 3.2 2.2-1-1.2 3.3 2.8-1.7 2.8-2.3 4.2-3.7 2-1.7 1.2 1 .2-3.5.2-4.5 2.2-1.5 4.7-1 2.3 2.5-4.3.8-.7 4.2-1.2 2.8.2 2.5-1 1.8-.5 2.8-2.7.2-3.5 2.2-.2 2.5-6.5 5.8-2.8 4-4 4.8-3.3 4.5-2.7.7-2.5-.3v3.2l-1.3 3-3.8 4-.7 8.8v6.2l1 6.5 2 7.7.3 4.7.7 4.8 1 2-1.8 1.5-2.2 1-2.8 2.2-.8 2v2l-1.2 1.8-1.5 2.2-2 2.3-1.3 3.3-2.3 1.5-1 2.5-1.3 2.5-2.5 1.2-1.8 2.3-3.7 2.8-3 .8-2.2 2.8-2.5 2h-2.2l-2.3-.5-1.3 2.3-3.5 2.7-1 1.3-1.7-.3-1.8 2-.5 1.8 1.2-1 2.2-1.2.7-.7 2-1.7v1.8l2.3-2.2 2-1.7 2-1.3 2.3-.8 2-1.8.8 1 1.3-2 2.3-1.5.5-1.2 4.8-3.2 1.5-.2 1.5-1.8.5-1 1.5-2.5 1.7-.8-.2-1.5.8-.8.7-.8 1.3-2 .7-1.5 2-.7-.3-1.2 1.7-1.5 1.3-1.2-.7-1 1-2.8 2.8-.7 1-2.8.8-.8 1.2-1.3 1.5-1 2.3-1.7 1.5-1.7 1.5-1.8 2.3-4.8-.5-3.7v-1h2.3l2.2-1.2 2.2.8-.3-4.5-.3-1.7 3.5-4.3 2.3-.2 1.3.5 2.3-1.8-1-3-.7-3 1.3-3.3.2-2 3.2-1.7-1 3.3 2 1.2 1.5-3-1-1.8v-2h-2.2l1-4.8 1-1.8-2.7-1.8-2.2 1.2.3-3.8 2.2-3.7 1.3-3.3.8-2.8.8-3 1.2-2.2 2.8-1.7s-.5 1.8 0 1.3c.8-.6 1.8-1.1 2.7-1.5l.2 2.3 4.2-3.5 2.2-.8-.7 4.5 1.3-.5 3.5-4.2 3.7-1 3.8-.7 3 2.2 2.3 3.3 3.2-4.7 3.7-3 7.2-7.3 4.7-3.3 6.5-2.3 5.2-3.3 6.5 1 2.2 2.2 1-3.8-.7-3.8-2.5-4.5-2-2.3.8-4.8-.3-1.3-4.7-.7.2-4 4.8 1 2.7-.8 3.3-2 3.8-4.2-2.2-4.5-.7-2.7 3.7-.8 2.5-1.2-.8 3 1.5 4.2-2 1.2 5.2.3 2.5-1.2 3.2 1.5 2.5 3.8-.8.8 3.8 2.5 2.8-.5 1.5 2.8 1.7 2.7 3.7-1v-3.3l2.5-2.8 1.7-3.3-2.3-2.8 5.3 1.7 1.2-2 2-2 3.8-2.5-3.7-3.2-4.8-4.3-3.7-2.5-2.5.3-3.2-2.3h-3l.7 5.2-1.5-2-1.2-4-.7-4.5-3.5-2.2.5 2.3-3.2-2.7.2-2-4-2.3-6.2-4.2-.8-3-5.7-3-4.3-4.3-5.3-1.3-5-3.5-2.5-2.5-8.2.5h-6l-9-2-.3 4.3-1.3 1.7 3.8 3.3-.7 3.7-4.8 2.3-3-2.7-2.2-1-.3-4.2-2.3-2.5 3 1.3 2.7-1-.2-2.8-4.8-1.2v2.2l-1.7 1.7-3 1.3-.7 2.8-1.5-2-3.8-.3-4.8-.2-3.7-3.2-2.5 1.3-4 .3-2.5 2-3-1.2-4.2-2.5-2.7-.8 1.5-3 .5-2.8-1.7-4.2-2.7-3.8-5.7-1-6.3.3-10.2.5-3.7.2-2.8.2-.8-2.5-.7-3.8-3.8.2-2.8-2.7-2.3-1.7-3.8-.3 1.8-1.7 3.8.3-2.2-4.5-5.7-2.7-5.3.3-2.5 5.2-3.3 3.3-3.3 1.3-.3-2.7 1.7-2.2 3-3.7-.3 5 3.2-6.8-3.7 1-3.2 1-3.7-1 .3-3 5.5.8 3-.7-4.3-1.7-4.8-.8-6.2-1.5-4.3-.2-3.5-1.2-.3 3.8-1.7 2h-4.3l-2.2 2.8h4.5l-2.8 3.7 3 6.2-4.5.8-2-1.8-3.3 2.5-2.3-2.3h-3.2l-5.7-1.2-4 4.5-3.7-2.5-3.8-5.2-3.3 8.2-.7 4.5-2.3 2.2-3.5-3.2-5.2-3.5-.7-4.5-.7-4.3 1.3-4 .8-7-.5-5-5.5-6.8-6.5.3-6.8-3.2-7-1.7-1 6 .7 5.5-3.7.5-9.3-.8-4.5-1.2-2.7.8-1.5-4.3 2.5-1-6.7-1.7-9-1.8-4.3 1.8-4.3.2-1-4.8-1.3-1.5-1.5 4.2-4.2-1.7-.3-3.3-3.8 1.8-3.2-.3-.7 4.8 3.2 1-6 4.2-8 1-4.2 1.5 1.3-3.8 6-4.8 2.3-.8 4.3-5.2 3.3-4.8 7-4.5 2.8 1.8-4.3 3.3 2.7 3.8 3.5-1.2 3-4.5-4-1.2-3.5-2.8 2.3-2.7 4-3.3 2-4.3 1-3-2.8-2.7 2.3-1.3.2-3.3-2.3-4.2-.7-2.8-2.7 1.8-1.5-6.3-5.7-3-7.8-.8-5.8 1.2-1.2 2.7h-7.2l5.5-5.5 1.5-3.7-8.2-1.3-4.3.8 4.2-5.5 2.5-3.2-5.3-2-5.5-1-7.3 4.8-5.3 9.5 1.5 3.5 1.5 4.7-5.8-.7h-4.5l3 4.5-4.3.3-6.5 3.3-6 2 2.2-5.2-7 2s-9.3.7-8.8 1 5.5 2.5 5.5 2.5l-13 4.3-8.5 4.7-5 4.3-3.2-.2-.8 4.2-4 1.8 3.3 5.2s-3.3 2-2.8 2.7 7 6.2 7 6.2l-4.2 2-6 .8-6.3-.3-7 1.7-5.2 1.7-2 5.5 2.5 6.3-.7 3.7 4.7 3.8 2 1.3 1.7 3.7 2.5 1.8-.3 4.8.3 7.8-2.2-.8-2 1.2v-5.8l2.7-3.7.2-3-2.8-.7-2.2 1-4-3.5-5.8-5.2-4.5-1-4 2.8 1.8 2.8-2.3 1.7-3.2-2.5-3.3 1.8 4.7 7.2 5.7 1.7-1.3 4-4.2-2.8-4-.5-5-2.3 1-6.3s.3-5.2.3-5.7v-6.7l-2.7-2.8v2.8l.7 4-1.7 4.7-6 3.5-.8 5.5 4.8 7.3.7 5-2.7 6-.2 6.7 2 6 5.8-2.2h5.2l4 4.5.8 6 1 2.2-2.2 3.2 2.2 1.7 1.8 1.7-2.7.8-3.5-2.2 1.3-5.3-1.2-4-2.7-5-8.5 3-1.2 5.2 3.3 5.5-3.5 3.3-1.5 2.8-2.2 4-4.7 3.5.2 3.7-4.7-1.8-5-.3 3.3-2.3 3.5-2 3.2-4.8.8-3.5 2.8-2.2.2-5.2 2.3-4.3-5.2-5-.2-7 1.2-6-1.7-4.2 2.3-.8-.5-9-3.3-5-.5-2.8 1.8-7.8 1-5.7-.8-3.2-4.8-1.3-4.5.2 1.2-2.8 4.7-.8-2.2-3.2-2.7-1.7-3.2 3.7 2.3 2.5-1.2 2.5-2.3-.8-1.5 2.7-.8 3.3-1.3 5.3-1 4.8-2.3 5-4.8 4 1.2 2.5-3 1.8 1.2 1.8 2.3-1v7l.5 2.7-2.7 1.8.8 4.5 1.7-1.5 3 2.2.7-.5v4l2.5 4 1.3.2-.8 4.3-1.7 3.8-2.2-3.2-2.3-3.2s-1.5-2.5-2-2.5-3.8-.7-3.8-.7l-5-3.2-3.8-3.8-4-1.8-5-1.2-4.5-.2-2.2.7-1.3-4.2-6.2-5-.3 3 1.2 3.7 2.8 2.7 3.5.5v1.3l.7 3.3 1.8 3.5-.5 3.5-3.3.8-.5 3.8-2.8-.5v-3.9l-1.3-2.7-3.5 2.7-3.5 1-.2 2-4-.5-4.5.8-2 4.2-4.2-.5s-4.8-.7-3-1 4.2-2.5 4.2-2.5v-3.7l-4.8-.2-3.3 2 .5 3.8-3.8-1.8-3.8 3.3-8.8 3.8-2.3 3.5-2 5.7-2.8 2.5-5.8-1.7-1.8-4.2.7-4.2 2.7-.3 2.8-1.2-.8-2.7-1.5-1.8-1.8-2.7-5.7-.2-5.7-2 3.8 4.2.8 3.2-.8 4.3-1.5 3.3 2.3 2.8 1.3 2.8-.8 5 .3 5.7-3.8-4.5-4.3-1.8-1.7 2.3-4.2 3.2-4.5 2.8s-1.2 2-.8 2.5 2.3 5.8 2.3 5.8l2.2 3.2-2.5.7-4.5-2-5.3-1.3-4.3-3.2s-3.2 3.3-2.7 3.7 4.2 4.8 4.2 4.8l3-1 1.2 4.8-2.5.2-4.8-.3-4.2-3.7-3-1.8-2-4.7-.2-4.5.7-2.3.3-3.2-3.2-3-2.8-3-2.5-2.8-2.5.3v-3l.2-2.3 3.5 1.2 1.3 2.5 4 1.7 3.8 1.7 6.2 2.2 3.5 1.8 6.3 1.3 4.5-2.5 3.8-3.2 3.7-5.3-1-3.2-1.5-4-5-4.2-5-2.8-5.2-5.3-4.7-4.2-6.7-2.8-5.5-.2-3.8-1.2-2.7-3-3.3-.7-1.8 1.8-3.3-.7-1 2-2.8 1.7-1 3.3-1.5-.2-1.3 2.8v2.2l1.5 3.3 3.8 4 1.2 3.5 1.2.7-4.7 7.7 4.7 13.2-.8 1-.3 3.8.3 3.8 1.3 2.2.3 3.5 1.5 2.3-2.2 3.3 2 3.2 2.5 1 .7 3 1.2 1-.7 2.5-3.2 3-3 3-2.3 4-2 3.7-3.7 3-2.3 3.2 3.3-1.2.3 1.8 3.2 2.3 1.7-.2 2.2 2.5-3.8-.2-1.7.2-3 1.7-1.3 1.8.3 2.7-2.8 2.8 2 5.7 1.7 1.8.8 3.2.2 5-.2 3.3.7 1.8 6.2.7.8 1.8 3.5-.5 1.3 6.3 1.5 5 2.3 2.3.2 2 2.3 2-1.2 3.2-3.3-.2.7 2.7.8 3.8 2.8-.5 2.5-.2h3.2l2 2.7.7 5 3 .2 1.5 4 .7 1.7 3.5-.3 2.8 1.2 2.5-1.5 1.5 2 2.3 1 2.3 1.8 1.2-.2 1 1.3 2.7.2-.8 3-.5 1.7 1.7 3.3-1.7 2.7-2.7.2-1.8 1.8-2.5 1.5.8 2h3.7l-4 2.7-3.7.7 3.2 3.8-2.5.3-2.2 2.8-2.2 1-1 1 2.7 1.5 1.5 2.3 5.3 2.2c.6.2 1.2.5 1.8.8.5.3.2 3.5.2 3.5z"/><path id="path4125" class="st1" d="M966.8 197.3l-7.3 5 1 4.3 7.3-2 5.3.7 2-5.3-4.7-3.7-3.6 1z"/><path id="path4127" class="st1" d="M805.8 173l-10.7-1.3-5-.7 4-3.7.7-4.3-4.7-2.3 1.7-4.7h4.3l-.7 6.3 1.7 1.3 2.7-1 4.7 1.7 2.7 4 .3 5-1.7-.3z"/><path id="path4129" class="st1" d="M788.8 144.3l-1.7 4-5.7-4.7v-6.7l-2.3-3.3 3.7-5.7 2.7-5 5.7 3 1 5.7 2 2 2.7-1.3-.3-5 3.3-1 6.3 4.7 2.3 1.7 5 1 2 1.7-3.3 4-1.7 4-4-2v-5.7l-5-2.3 2.3 6.3 1 3 3.3 1.3-3.3 2-4.3-.3-3.3.3-5.7 2-.7-3.3-2-.4z"/><path id="path4131" class="st1" d="M819.8 134.3l2 5.3 1.7 4.3 6.7 4 6 1 2.7-3.3-3.7-4.7-4.7-1-3.7-2-7-3.6z"/><path id="path4133" class="st1" d="M599.8 9.1l-2.5 9.5-12 4.5-.5 8 4.5 7.5 2.5 3.5-5.5 2-6.5-2.5 3 8.5 5.5-1.5 4-3 1 2-5 7 5.5 4.5 2 5 5.5.5 3 5 8.5 1 5.5-4 6 2.5-4 9.5-1.5 9 5.5-2.5 11.5-.5 5.5-6 .5-6.5-6-6-4-3-1-5-4.5-1-1.5 7-.8 4-4.8-2-2-5.3.5-6 .8-5-1.3-5.5L614 42l-2.5 2-3.5-3.8-1.5-1.5-8 1.8-4 2.8v3l-2.3-2.3.3-2.3 2.3-1.3 3-2.5 2.8-2.7h4.8l1.5-1.3-.8-4.8 2.8-4.5-1.5-5-3.8-1.8-1.5-8-2.3-.7z"/><path id="path4135" class="st1" d="M478.5 109l-5.7 3-7 6.3-7.3 5-5-1-6.7 3.3-5.7 4.7-6.3 5.7-1 5-7 1.7.3 6.3v5.3l-3.7 3-3 6.7 3 2-3.7 4-.7 3-4.3 5-2.7 3.7 2 4-2 4.7-4.3-.7 1.3 6 3.7 3.3 1.3-1.7 3.7 4-1 2.7.7 3 5.7 1.3 4.3 1.3 4.7-1 2 1.7 1-2.3-4-2.7-2.3-4.3-2.3-7-.3-5-.3-8.3 4-3.7 1.7-5.7 2.3-6 1.3-5 2.3 1 1-5.3 1.3-4.3 2.7-.7 2.7 1.3 1.3-4.7 2.3-5 2.3-.7 5-5.3 4.7-2.3h3.3l5.7-4.7 7.3-3.7 4.7-2.3 1-3 2-2.7-1.7-2 1-3.3-3.7-2.7-1.9-.9z"/><path id="path4137" class="st1" d="M396.1 225l-3.7 3.7 1.3 4.7 6-1 3-4.7-3-2.7h-3.6z"/><path id="path4139" class="st1" d="M284.5 366.1l-4.1.1-3.6-1.3-3.9.1h-1.3l1.3-1.4-.8-1.4 2.8-.6.3 1.3 1.4-1.1-.4-2.3 1-.5-.4-1 1.9 1.3 2.8 1 3.5 1.1.3 2-.1 1.6-.7 1.1z"/><path id="path4141" class="st1" d="M463.5 5.6l-4 3.8-3.3 6.8 3 4.5 2.8-3 5.3-.5-2-5.8.5-5.5-2.3-.3z"/><path id="path4143" class="st1" d="M401.5 19.1l-1.8 4.3-4.5 2.8-2-4.8-10-.8-7 4.5s1 4 1.8 4 5.5 2.3 5.5 2.3l.5-6.8 3.3-1.5 4 2 2.5 1.5-5 1s-3 2-2 2c1.7.2 3.4.6 5 1l-1.5 2.8-5.3 2 3.3 4.5 3.8-1.3-.3 3.5 3.3-1.5s1.8-2.8 1.8-3.5-.3-3.2-.3-3.2l4.3.3 1.3-4.3 3.5-1.5 1.8-4-5.3.3s.8-3 1.5-3 3-1.5 3-1.5l-3 .3c-.2-.1-2.2-1.4-2.2-1.4z"/><path id="path4145" class="st1" d="M444 21.6l-1.3 4.8-1 7.8 7.5-.5s2.8-.3 2.3-1.8c-.9-2-1.9-4.1-3-6l3.3-2 1.3-3-4.3.5-4.8.2z"/><path id="path4147" class="st1" d="M420.9 14.9s-.3 2.8.5 3 4 .8 4 .8l2.8 3.3 4 1.8 2.8.8-1.8-3.5-5.5-2.8-.3-1.5-6.5-1.9z"/><path id="path4149" class="st1" d="M432.9.6l-2 2 4.3 3.3 3.3-1.8-2.8-2.5-2.8-1z"/><path id="path4151" class="st1" d="M429.4 5.9l-.5 2s-5.8.8-5 1.3c1.6.6 3.2 1.1 4.8 1.5l3.3-1.8s3.5 1 3 .3-1.8-2.8-1.8-2.8l-3.8-.5z"/><path id="path4153" class="st1" d="M428.9 33.6l-1.8 1.8s-.5 6.5.3 6.2 5 .3 4.8-.8-.3-2.2-.3-3.3v-2.7l-3-1.2z"/><path id="path4155" class="st1" d="M433.9 31.6s.3 3 .5 4c.5 1.6 1.1 3.2 1.8 4.7l1.8-4.5 1.5-1-3.5-2.5-2.1-.7z"/><path id="path4157" class="st1" d="M427.9 14.4c.8 1.2 1.7 2.3 2.8 3.3.8.5 3.5 2 3.5 2l1.3-2-3.3-3.3h-4.3z"/><path id="path4159" class="st1" d="M446.4 14.6l.3 2.5 3.5 2 1.8-3.5-2.5-1h-3.1z"/><path id="path4161" class="st1" d="M414.9 33.9l-1.5 2.5s-5.3 2.7-1.5 3 7.3.5 7.3.5l-.5-3.5-3.8-2.5z"/></g><g id="g7370"><path id="path4253" class="st0" d="M197.1 389.6l-2.5 1.3-2.3 1.2-1 3.3-.8 1.7-3.8 1.7-.2 2.2-1.5.5-3.2-.2h-1.3l-1.7-1.5h-2.2l.8 2.7.8 1.5.3 2.7-2.5.2-2.3-.2-2.2-1.5-2.3.2-2.8 1.5-2.7.3s-2.5 0-1.8.3 2.2 1 2.2 1l1.7 1-.8 1.2 2 1.3 1.7-.2 2.3 1.5 1 1 1.2-.2 1.8.2-.5 2.2 1.3 1.5.7 1.3 2.2 2 1.5 1.7-.2 1.2.5 2.2.5.8-1-.2-.5 2.5.3 3.2-.3 2.8-.3 1.8 1.3 1.7-.3 1.5 3.7 1.2 3.2.3 3-.2 2 .3 2 1.3 3.2.5h2.2l.7-2.2-.7-.7 1.3-1.8 1.2.2 2-1 1.7.8 2.2.8 1.7.3 2 .3 2.5-.3.5-1.3 2.2-1.2 1.3-1 2.5-1.7-1.4-1.4-1.4-.6-1.2-1-.1-2.9-.9-.8 1.6-2.5.2-3.4-.9-2.9-1.3-.7-1.9.7.8-2.7 2.5-3.6 2.4-1.4-.5-3.4.7-2.4 2.6-3.5-3.8-.7-3.2-1.2-2.2-.7h-1l-3.8-2.5-.3-2.2-2.2 1.3-1-2-1.5-2.2-2.3-.2-.8-1.3-1.2-.2-1.4-1.1z"/><path id="path4255" class="st0" d="M225.4 441.1l-.5 1.7h-1l-1.3 1.3-.5 1.8.8 1.7 1.3 2 1 1.2 1-2.5.5-1.8-.5-3.2v-1.5l-.8-.7z"/></g><path id="path4301" class="st1" d="M25.2 169.2l.2 1.5 1.2 2.4-.5 2.5-1.2-1.6-.8-1.8-1.8-.3-2.8-.3h-.8l.5 1.6 1.6 2.2v2.2l.5 2.5 2 .2.8 1.2-2.5-.3-.8.5.3 2.4-.5 2.6.1 3-.8 2-.9 2.9.7 2 .5 2.6.3 1.9-.5 2.6.3 1.8.8 1.8.7 2.2.5 1.5 2.4 1.9 1.2-.1 1.6.2-1.7.5.5.8-1.5.2 1.4 1.5 1.4 1.5-.4 1.4 1.8 2.6 1.9 1.6.2 1.9 1.6.8 2.2.7 1.7 1.5 1.5.9 1.6 1.2.9.7 1 2.2 5.8-.1 11.3 3.9h9.4l-.2-.9h4.5l1.8 1 1 1 2.6 1.8.9 3.3 2.6 1.4 1.6.7 2.2-2.6 2.8.3 1.2.9 3 4.9 1 1.2.8 2.8 6 2.4-.2-2-.2-2.8 1.9-2.2-.3-.7 1.9-1.6 1 .5 1.7-1.9 1-1.4h1.5l3.3-.7 2.4 1h1.8l.7-.8.8.5.1 1 2.4.8 2.2-.3 1.9.1-1.6-1.2-.1-.7 1-.5-.1-.5h-1.6l-1.8.3 1.2-1 .5-.7.5.5 3.3-.5.5.5h2.2l1.2-.3 1.8-.1 1.7.7 1-.1 1 1.5 2 .1 1.2-.9h1.2l2.2 1.9 1.2 1.4.3 1.8-.2 2.2.8 2.4 2.2 2.7 1.2 2.6.5 1 2.2-.5.5-2.5v-3.7l-1.2-3-.3-.8-.2-2.2-1.9-2.2-.3-2.7.1-2.2.9-2.5 1.7-1.4-.1-1 2-.3 2.9-3.3 1.4-1.2 1.5.2 1.4-2.6 1.9-1s1.5.2 1.6-.3c.5-1.1 1-2.2 1.6-3.3l-1.6-.9.9-.8.2-.5-.9-2.2-.9-1 1.2-1.2-.9-1.2-.2-2.2-.1-1.9.7-.5.5 2.8.3 1.4.8 1.2-.2 2 1.2-2.5.8-1.9.1-1.2-1.2-1.4-.1-.5.3-.3 1.8 1.2.5-1.4 1.2-1.2.2-1.4-.2-1.6.1-.8.2-1.2.9 1.2h.5l1.4-.2 1.4-.1 1.8-.5-.3-.7-1.8.1-1.7.5-.8.5-.1-.8.5-.7 1.5-.3 1.8-.3 1.2-.3 1-.7 2.4.5s1 .5 1.2.2c.2-.4.4-.8.5-1.2l-.8-.9-.3-1.4.2-2.2.2-1.8 1-1.4.2-.5.7.3 2.2-2.4h.8l1.8-.2.5-1.2h1.6l1.4-1.2-.5-.6-1.2-1.6-.7-.5.3-3.8-.3-3.5-2-.6-1.8.6-.9-.1-3.9 9.1-1.8.1-.8.7-9.6-.1-2.4 2.2-1.5.9-.7 1.9-.3 1-1.7 1.2h-1.9l-1.2-.5-1.6.2-2 .7.1 1-.1 1.8-1 .9-2 .5-3.2 1.6-2.4.8-2.2.1-1.4-1 .7-1.2.3-.3.5-1.2.9-.5 1.1-1.9-1-1.5-.2-2.4-1.5-.5-1.9 1.4.7-1.6 1.2-1.6-.5-1.5-.3-1.7-1.8-.7-1.6-1.4-1.9.8.1 1.5-1.2 1.4-.9-.5-1.8 1.9v2.2l.2 2.2 1 1.6-.1 3.3-2.2 2-1.6.1-.8-2.4-.8-1.7.3-2.2-.3-2.2.8-1.5.5-1.5.8-2.5-1.8 2 1-3.5 1.6-1.4 1.9-.1 1.5-.7h4.3l1.2-.3 1.5.2.7 1.2 2.8 1 .5-1.6-1.9.2-1.2-.1-1.8-1.4-1.2-.7-1.3-.9-1.3.4-1.2-.9-2.9.1-1.6 1-1.2-.8-1.5-.8-2.2-.1 2.2-3-2.5 1.2-2 1.6-2 1.2-1.8.2-.2-1.2-3.7.8 3.1-2.7 2.2-1.6 2.7-2.2-1.2-.2-3.7.1-1.7-.3-1.6-.3-1.6-1.1-1.7.1-3.3-.8-.9-1-.5-1.6-.8-.7.1.9-.8 1.2-79.3.1-.1.6z"/><path id="path3965" class="st0" d="M222.9 362.3l-.8-1.4.3-3.1-2.3-.3-.3-4.9.3-2.8 2-.4-.9-2.9 1.8-.9 2.8-.8 2.1-2.8 1.8-1.8 1.4-.1-.9 2.1.8 1-1 2.5-1.1.6 1 1.6-.3 3 2.8-.9-.6 2.4-3 .6s-.6 1-.5 1.4.3 2 .3 2l-1.3.3-.6.9 1.8.3 1.4-1.1 1 1.5 1.5.9-.1 1.9-2.4.9h-1.6l-.5-1.1-.3-2-.4-.5-.8.4-.3 1.3-.1 1 .3 1.3-3.3-.1z"/><path id="path3967" class="st0" d="M238.6 353.3l-2 .9-.4 2-1-1.5-1.6 1s-1 1.1-.5 1.5 1 2.6 1 2.6l1.4.3 1 1.4-1.3.4-2 .3.5 1.6 1.9.6.8-1.9.6-.8.6-1.4 1.6-.8-.6-1.6-.9-1.3.6-1.4 1-.1-.7-1.8z"/><path d="M319.1 220.3h6.7l-2.7 1.7 2.8 1.7h-6.8z"/><path d="M319.1 220.4h.6v9.2h-.6zM761 294.6h6.8l-2.7 1.7 2.7 1.7H761z"/><path d="M761 294.7h.6v9.2h-.6zM872.4 365.8h6.8l-2.7 1.6 2.7 1.8h-6.8z"/><path d="M872.4 365.9h.6v9.2h-.6zM758.1 426.6h6.8l-2.7 1.7 2.7 1.8h-6.8z"/><path d="M758.1 426.7h.6v9.2h-.6zM580.4 191.1h6.8l-2.8 1.7 2.8 1.7h-6.8z"/><path d="M580.4 191.2h.6v9.2h-.6zM580.4 346.6h6.8l-2.8 1.7 2.8 1.7h-6.8z"/><path d="M580.4 346.7h.6v9.2h-.6zM384.8 431.7h6.7l-2.7 1.7 2.8 1.7h-6.8z"/><path d="M384.8 431.8h.6v9.2h-.6zM378.7 424.6h6.7l-2.7 1.7 2.8 1.8h-6.8z"/><path d="M378.7 424.8h.6v9.2h-.6zM368.3 424.7h6.7l-2.7 1.7 2.8 1.7h-6.8z"/><path d="M368.3 424.8h.6v9.2h-.6zM523 427.4h6.8l-2.7 1.7 2.7 1.7H523z"/><path d="M523 427.5h.6v9.2h-.6zM476.2 439.3h6.8l-2.8 1.7 2.8 1.7h-6.8z"/><path d="M476.2 439.4h.6v9.2h-.6zM462 424.7h6.7l-2.7 1.7 2.8 1.7H462z"/><path d="M462 424.8h.6v9.2h-.6zM563.9 263.8h6.8l-2.7 1.6 2.7 1.8h-6.8z"/><path d="M563.9 263.9h.6v9.2h-.6zM547.1 262.5h6.7l-2.7 1.7 2.8 1.8h-6.8z"/><path d="M547.1 262.6h.6v9.2h-.6zM529.9 293.9h6.8l-2.7 1.7 2.7 1.8h-6.8z"/><path d="M529.9 294h.6v9.2h-.6zM506.6 294.7h6.7l-2.7 1.7 2.8 1.7h-6.8z"/><path d="M506.6 294.8h.6v9.2h-.6zM406.5 282.4h6.8l-2.8 1.7 2.8 1.7h-6.8z"/><path d="M406.5 282.5h.6v9.2h-.6zM422.8 291.7h6.7l-2.7 1.7 2.8 1.8h-6.8z"/><path d="M422.8 291.8h.6v9.2h-.6zM394.8 299.3h6.7l-2.7 1.7 2.8 1.8h-6.8z"/><path d="M394.8 299.5h.6v9.2h-.6zM357.1 341.6h6.7l-2.7 1.7 2.8 1.7h-6.8z"/><path d="M357.1 341.7h.6v9.2h-.6zM279.8 355.2h6.7l-2.7 1.7 2.8 1.8h-6.8z"/><path d="M279.8 355.3h.6v9.2h-.6zM169.6 452.9h6.8l-2.7 1.6 2.7 1.8h-6.8z"/><path d="M169.6 453h.6v9.2h-.6zM414.3 317.5h6.8l-2.7 1.7 2.7 1.7h-6.8z"/><path d="M414.3 317.6h.6v9.2h-.6zM433.8 310.3h6.8l-2.7 1.7 2.7 1.7h-6.8z"/><path d="M433.8 310.4h.6v9.2h-.6zM396.5 343h6.7l-2.7 1.7 2.8 1.7h-6.8z"/><path d="M396.5 343.1h.6v9.2h-.6zM374.7 312.9h6.8l-2.7 1.7 2.8 1.8h-6.9z"/><path d="M374.7 313h.6v9.2h-.6zM389.1 325.5h6.7l-2.7 1.7 2.8 1.7h-6.8z"/><path d="M389.1 325.6h.6v9.2h-.6zM422.8 337h6.7l-2.7 1.7 2.8 1.8h-6.8z"/><path d="M422.8 337.2h.6v9.2h-.6zM409.9 302.3h6.8l-2.8 1.6 2.8 1.8h-6.8z"/><path d="M409.9 302.4h.6v9.2h-.6zM448 288.8h6.7l-2.7 1.7 2.8 1.7H448z"/><path d="M448 288.9h.6v9.2h-.6zM454.8 320.4h6.7l-2.7 1.7 2.8 1.8h-6.8z"/><path d="M454.8 320.5h.6v9.2h-.6zM477.4 375.8h6.8l-2.7 1.7 2.7 1.7h-6.8z"/><path d="M477.4 375.9h.6v9.2h-.6zM503.8 355.3h6.7l-2.7 1.7 2.8 1.7h-6.8z"/><path d="M503.8 355.4h.6v9.2h-.6zM377.3 359.6h6.7l-2.7 1.7 2.8 1.7h-6.8z"/><path d="M377.3 359.7h.6v9.2h-.6zM462 341.8h6.8l-2.8 1.7 2.8 1.8H462z"/><path d="M462 342h.6v9.2h-.6zM360.5 358.7h6.7l-2.7 1.7 2.8 1.8h-6.8z"/><path d="M360.5 358.8h.6v9.2h-.6zM319.1 314.5h6.7l-2.7 1.7 2.8 1.8h-6.8z"/><path d="M319.1 314.6h.6v9.2h-.6zM374.7 340.6h6.8l-2.7 1.7 2.8 1.7h-6.9z"/><path d="M374.7 340.7h.6v9.2h-.6zM360.3 414.1h6.8l-2.7 1.7 2.7 1.7h-6.8z"/><path d="M360.3 414.2h.6v9.2h-.6zM377.8 406.9h6.7l-2.7 1.7 2.8 1.7h-6.8z"/><path d="M377.8 407h.6v9.2h-.6zM393.7 374.6h6.7l-2.7 1.7 2.8 1.7h-6.8z"/><path d="M393.7 374.7h.6v9.2h-.6zM356.8 381.1h6.7l-2.7 1.7 2.8 1.8h-6.8z"/><path d="M356.8 381.3h.6v9.2h-.6zM345 369.9h6.8l-2.8 1.7 2.8 1.7H345z"/><path d="M345 370h.6v9.2h-.6zM461.9 342.3h6.8l-2.8 1.6 2.8 1.8h-6.8z"/><path d="M461.9 342.4h.6v9.2h-.6zM334.1 351.3h6.8l-2.7 1.6 2.7 1.8h-6.8z"/><path d="M334.1 351.4h.6v9.2h-.6zM326.8 334.1h6.7l-2.7 1.7 2.8 1.7h-6.8z"/><path d="M326.8 334.2h.6v9.2h-.6zM348.4 325.1h6.8l-2.8 1.7 2.8 1.7h-6.8z"/><path d="M348.4 325.2h.6v9.2h-.6zM356.8 305.8h6.7l-2.7 1.6 2.8 1.8h-6.8z"/><path d="M356.8 305.9h.6v9.2h-.6zM337.7 302.8h6.7l-2.7 1.7 2.8 1.7h-6.8z"/><path d="M337.7 302.9h.6v9.2h-.6zM373.8 287.1h6.8l-2.7 1.7 2.8 1.7h-6.9z"/><path d="M373.8 287.2h.6v9.2h-.6zM420 363.4h6.7l-2.7 1.7 2.8 1.7H420z"/><path d="M420 363.5h.6v9.2h-.6zM519.4 251.2h6.8l-2.7 1.7 2.7 1.7h-6.8z"/><path d="M519.4 251.3h.6v9.2h-.6zM432.7 412.5h6.8l-2.7 1.7 2.8 1.7h-6.9z"/><path d="M432.7 412.6h.6v9.2h-.6zM412.6 427.9h6.8l-2.7 1.7 2.7 1.8h-6.8z"/><path d="M412.6 428.1h.6v9.2h-.6zM409.2 402.8h6.8l-2.7 1.7 2.7 1.8h-6.8z"/><path d="M409.2 403h.6v9.2h-.6zM767.8 425.4h6.7l-2.7 1.7 2.8 1.7h-6.8z"/><path d="M767.8 425.5h.6v9.2h-.6zM439.3 348.3h6.7l-2.7 1.7 2.8 1.7h-6.8z"/><path d="M439.3 348.4h.6v9.2h-.6zM439.3 366.9h6.7l-2.7 1.7 2.8 1.8h-6.8z"/><path d="M439.3 367.1h.6v9.2h-.6zM315.7 403.1h6.7l-2.7 1.7 2.8 1.8h-6.8z"/><path d="M315.7 403.3h.6v9.2h-.6zM343.4 387.7h6.7l-2.7 1.7 2.8 1.8h-6.8z"/><path d="M343.4 387.9h.6v9.2h-.6zM333.6 418.9h6.7l-2.7 1.7 2.8 1.8h-6.8z"/><path d="M333.6 419.1h.6v9.2h-.6zM330.2 476.6h6.7l-2.7 1.7 2.8 1.8h-6.8z"/><path d="M330.2 476.8h.6v9.2h-.6zM36.9 135.7l-2.9 3.1h-3.7l-2.9-3.1v-13.5l2.9-2.9H34l2.9 2.9v13.5zm-2.3-.9v-11.7l-1.5-1.5h-1.7l-1.5 1.5v11.7l1.6 1.7h1.7l1.4-1.7zM43 119.5v16.9h4.1v-2h2.3v4.3h-8.7v-16l1-.6v-.2h-2.3v-2.3l3.6-.1zM51 121.9v-2.3h7.5l2.9 2.9v13.3l-2.9 2.9h-6.1v-16l1-.6v-.2H51zm6.5 14.4l1.5-1.5v-11.4l-1.5-1.5h-2.8v14.4h2.8zM63.8 119.5h7l2.9 2.9v4.7l-1.4 1.7 1.9 1.9v5.1l-2.9 2.9h-6.1v-16l1-.6v-.2h-2.3l-.1-2.4zm6.1 8.3l1.4-1.6v-2.8l-1.5-1.5h-2.3v5.9h2.4zm-2.4 8.5h2.8l1.5-1.5v-3.1l-1.6-1.6h-2.7v6.2zM86.7 135.6l-2.9 3.1h-3.7l-2.9-3.1v-13.5l2.9-2.9h3.7l2.9 2.9v13.5zm-2.3-.9V123l-1.5-1.5h-1.7l-1.5 1.5v11.7l1.6 1.7H83l1.4-1.7zM94.9 128.7l1.5-5.1 1.4-4.1h2.5l-4.4 12.1v7.1h-2.3v-7.1l-3.4-9.2.8-.5v-.2h-2.5v-2.2h3.2l1.5 4.2 1.5 5.1.2-.1zM106.5 138.6v-2.1h2.1v-14.1l1-.6v-.2h-2.8v-2.1h6v2.1H111v14.9h2.1v2.1h-6.6zM114.3 119.5h4.5l2.2 6.8 2.1 8h.1l-.5-8.1v-6.7h2.3v19.1h-2.5l-3-9.4-1.7-6.3h-.1l.3 6.5v9.2h-2.3v-16l1-.6v-.2h-2.3l-.1-2.3zM135.7 119.4v15.3l1.5 1.6h1.5l1.5-1.6v-15.3h2.3v16.2l-2.7 3.1h-3.6l-2.8-3.1v-13.3l1-.6v-.2h-2.3v-2.1h3.6zM147.2 138.5h-2.3v-2.4h2.3v2.4zM151.8 134.7l1.5 1.6h1.7l1.5-1.6v-3l-6.9-4.8v-4.8l2.7-2.9h3.6l2.7 2.9v2.9h-2.3v-2l-1.4-1.5h-1.6l-1.4 1.5v2.7l6.9 4.8v5.2l-2.8 3h-3.7l-2.8-3v-3.5h2.3v2.5zM163.3 138.5H161v-2.4h2.3v2.4zM166.1 119.3h6l2.9 19.1h-2.3l-.7-5h-4l-.7 5H165l2.3-16 1-.6v-.2h-2l-.2-2.3zm4 2.3h-.5l-1.4 9.5h3.3l-1.4-9.5zM276.4 428.2h6.7l-2.7 1.7 2.8 1.8h-6.8z"/><path d="M276.4 428.4h.6v9.2h-.6zM306.9 365.4h6.7L311 367l2.6 1.8h-6.7z"/><path d="M306.9 365.5h.6v9.2h-.6zM369.9 435.8h6.7l-2.7 1.7 2.8 1.7h-6.8z"/><path d="M369.9 435.9h.6v9.2h-.6z"/><path class="st4" d="M8.2 87.6v206.3h130.6l55.1-53.8V87.6z"/><path class="st4" d="M187 81.2h14.4v14.3H187zM1 80.4h14.4v14.3H1zM1 286.7h14.4v14.4H1z"/><path d="M31 207.4h6.8l-2.8 1.7 2.8 1.7H31z"/><path d="M31 207.4h.6v9.2H31zM359 423.6h6.8l-2.8 1.7 2.9 1.7H359z"/><path d="M359 423.7h.6v9.2h-.6zM508.4 212.9h6.8l-2.8 1.7 2.8 1.7h-6.8z"/><path d="M508.4 213h.6v9.2h-.6zM526.5 233.8h6.8l-2.8 1.7 2.8 1.7h-6.8z"/><path d="M526.5 233.9h.6v9.2h-.6zM490.1 243.1h6.9l-2.9 1.7 2.9 1.7h-6.9z"/><path d="M490.1 243.2h.6v9.2h-.6zM384.2 381.5h6.8l-2.8 1.7 2.8 1.7h-6.8z"/><path d="M384.2 381.6h.6v9.2h-.6zM505.6 262.5h6.9l-2.9 1.7 2.9 1.7h-6.9z"/><path d="M505.6 262.6h.6v9.2h-.6zM490.1 265.9h6.9l-2.9 1.7 2.9 1.7h-6.9z"/><path d="M490.1 266h.6v9.2h-.6zM469.9 299.8h6.8l-2.8 1.7 2.8 1.7h-6.8z"/><path d="M469.9 299.9h.6v9.2h-.6zM477.4 307.3h6.8l-2.8 1.7 2.8 1.7h-6.8z"/><path d="M477.4 307.4h.6v9.2h-.6zM268.3 433.9h5l-2.1 1.2 2.1 1.3h-5z"/><path d="M268.3 433.9h.5v6.8h-.5z"/><path d="M268.3 438.3h5l-2.1 1.2 2.1 1.3h-5z"/><path d="M268.3 438.3h.5v6.8h-.5zM403.1 356.6h6.8l-2.8 1.7 2.8 1.7h-6.8z"/><path d="M403.1 356.7h.6v9.2h-.6zM489 285.8h6.8l-2.8 1.7 2.8 1.7H489z"/><path d="M489 285.9h.6v9.2h-.6zM398.5 447.6h6.7l-2.7 1.7 2.8 1.7h-6.8z"/><path d="M398.5 447.6h.6v9.2h-.6z"/><path id="path3807_5_" class="st1" d="M380.4 460s.4-.8 1.4-1.2l1.1 1.6 2.8-.2.8 4c-.1.5-1.3.8-1.4 1.3-4-2.1-4.7-5.5-4.7-5.5z"/><path id="path3807_1_" class="st1" d="M415.5 469.7l-18.6-1.8"/></svg>