<svg id="svg3667" xmlns="http://www.w3.org/2000/svg" viewBox="0 0 1013.33 543.17"><defs><style>.cls-1{fill:#e9d2a8;}.cls-1,.cls-2,.cls-3,.cls-4{stroke:#fff;}.cls-2{fill:#d89f4c;}.cls-3{fill:#b9b9b9;}.cls-4{fill:#d4a455;}.cls-5{fill:#fffefd;}.cls-6{fill:#fff;}.cls-7{fill:none;stroke:#c99e52;stroke-width:2px;}</style></defs><title>Монтажная область 1</title><path id="path3791" class="cls-1" d="M480.8,542.59l-2.7-1-1.7-2.7-2-4h-2l-4.3.3h-2.7l-4-.7-5.7,1-3,.3-.3-1.7.7-4.3,2.7-1.7,2.3-2,1-1.3-1.3-.3-.3-3-2.7-3.3-5-5.7,4.7,2.3h3.3l2.7-.3,4.7.3,5-2,2.3-.3,2.7-8,3.3-.3,2.7-2h2.3l.7,1.3,3-7.3,3-.7-.7-5.3,4.7-.3v-2l1.7-3,.3-3.7-.3-3,3.7-1.7,4.7-2,3.3,1.3,2.2-1.2,3.5.2,4.5,5.5,3.2.7,2,1.8-2.7.4.5,1.8-6.4,2.8-4.3-.1-2.4-1.1-1.3,1.8.2,3.9.8,3.5,3,1.5.8,1.3.8,1.9-1.6,1.3-1.7.6.1,3.1-2.3,2.1v2.1l-3.4,2.8-1,2.7-3.7,3.3-1.3,2.2-4.3,1.5-1.8-1.7-2.3,2.2-1.5,3.7,2.7,2.3.2,3.3,2.2.7,1.3,3.7-.2,2.3-2.2,1.2-1.7-.5-6,.2Z"/><path id="path3793" class="cls-1" d="M450.7,513.49l-.2-2,2.3-3.3.3-3.7-2.8-.7-.8-5.7-1.2-2.5.7-2.3-1-1,.3-2.8,1.3-3.2,1.5-4.2,2,.8,2.3.3.7,1,2.3-.8,1.3-3.3,4.8-1.5,1.7-3.2,1-2,2.2-.2,2.3-.5,2.2.2,2.7.3,3,.8,4.3-.2,1.2.2,2-2,2-.5,2.5-4,1.8.2.7,2.3.8.2.7,2.8-.2,2.3,1.7.3,3.5-2.2,2.2-1.2,2-.3,1.2,1.2,3.2-.8.8.2-.3,2.2-2.2,1.2-3.3-1.3-8.3,3.7.3,3-.3,3-1.7,3.7v2l-4.7.3.7,5.3-3,.7-2.8,6.3-.8-.3h-2.3l-2.2,1.7-3.8.7-2.7,8-2.8.5-4.5,1.8-4.7-.3-6,.3Z"/><path id="path3795" class="cls-1" d="M479.7,474.09l1.7-3,.2-2-.2-4.5-1.7-1.2-.7-.7-.2-1.2,3.7-.3.5-2.7,1.5-3.3,1.5.5.2-1.7,1.2.3,3.7-1.8.5,2-1,1.2,1.2,1.2-2,.3-2.3.5-.8,1-2-.2.3,1.5h1.7l1.7.3,1.5.8h3.7l2-.7.8.2,1.5,1.3,3-.8,1.5-.7,2.8.8.2,1.5.8,2.3.2,1,2.2-.2,2,2,.3,3.2-1,.8-3,1-1.8-1-2,.3-5.7,3.3-1.7-.3.3-1.8-.8-3.3-.8-.2-.6-2.1-2.1-.4-2.5,4.3-1.8.3-2,2h-1.6l-3.2.3-.9-.1Z"/><path id="path3797" class="cls-1" d="M492,457l4.2-.1,2.1-1.3,2.3-1.6,1.3-1.3-2.4-1.4-1.6.7-1.3-.1-1.5-1.9-2.6.9-2.6-1,.3-.8,2.4-1.1,1.6-1.4.8-.6-1.1-1.4,1.6-1.9,2.9.1h3.4l3.2,1.4.8-.9-.3-2.9,2-1.3,1.9.1,1.7,1.2,3.1.9,3.2-.4,2.5-.3,3.6-.1,2.4-.5,2,.4,1.7,2.2,1.5,1.8,2.1-.1.4,1.2-1.4,2.1-2.5.8-3.1,1.8-3.2,2.1-3.9.4-4.2,3.8-2.3-1-3.3,2.1-3.8,1.7-.6,2.2-3.1-.8-4.3,1.5-1.9-1.5-.9-.1-1.8.7-3.3-.1-1.9-.7-3-.5-.6-1.3,1.9.1,1-1.2,3.9-.7.7.1Z"/><path id="path3799" class="cls-1" d="M419.3,472.79l-.9-5.3-.3-1.8,1.3-2-1.6-.6-1-1.4.8-2.6-3-.3.3,1.3-1.4-1.1.3-3,.8-1.6,2,.3,2.5.4,2.4-.3,1.1-1.6-.1-1-2.3-1.6-1.4-1.8-.9-1.9-2.5.8-.8,1.3-.3,2.8-1.5-2.4.8-2.9,2.1-1.5,3.6-.8,2.5.3,2.1,1.1,1.4,2.5,1.5,1.4,2.9.3,2.5.1,1.4.1-.3-3.9,3-.8,1-1.3.8-.5.6-.9,1.8-.1,1.8,1.6.8,1.3,1.4.5,1.4,2,1.1,1.9,1,1.1,4.4.1,1.9,1.6,1.3,2,.6,1.5,1.6,2.9,1.1,1.6,2.5,2.1,3,1.5,2.8,2.1,2.5,1.8,2.4.8,2.8.5-.6,3.6-2.2-.2-3.3.5-1.3.2-3,5-4.5,1.6-1.3,3.3-2.3.8-.7-1-1.7.1-2.7-1.3-.7-5.8-3.3-.1-1.6-2.4-1.8-.3-1.5-2.5-1.4-.3-1.1.4-2.3-.3-.8-1.3-1.8-.3-.8-1.6-3.6-.1-2.1.9-2.3-.3-2.9,1.5-.6,2.3-3.4,1Z"/><path id="path3801" class="cls-1" d="M429.5,448.89l-.6-22,10.8-2.3-.9,3.1-1.1,3.6.3,1.9.6,3.3,3,.5,1.6-.1,1.3,1.8,1.8-1,.5-.9,1.3.1.5-2.4,1,.3,3.8,2.9,4.8-.4,3.3,1.3,3.5-.6,2.9,2.8,1,5.1,1,2.4-.3,1.6-1.8,1.4,2.3,1.6,5.1.5,3,.8,1.1,1.4,2.4.9,1-2,1.1-3.1,2.1-2.5,3-.4,3.3-1.6,1,.8-2.8,1.9-.3.8,2.6,1,2.6-.9,1.5,1.9,1.3.1,1.6-.7,2.4,1.4-5.2,4-5.4.2-.8-1.1,1-1.2-.5-2-3.7,1.8-1.6-.7v1.9l-1.6-.3-1.1,3.3-.5,2.7-3.7.3.4,1.9,1.8,1.3.4,6.4-1.7,3-3-.8-2.7-.3.6-3.6-5.1-1.3-5.3-3.9-3-1.5-2.5-2.1-3.4-6-1.3-2-1.9-1.6-4.4-.1-3.3-4.6-1.3-.8-2.1-2.6-1.1-.5-1.4.3-1.4,1.4-1,1.3-3,.8.3,3.9-3.9-.3Z"/><path id="path3803" class="cls-2" d="M429.3,449.29l-2.5.1-1.5-1.4-1.4-2.5-2.6-1.5-2.7.3-1.7.2-1.7.8-1.8,1.1-.6,1.9-1-.8.3-1.7.8-2.3v-1l-3-.2-1-1.7h-1.5l-.3-1.7-.8-2.2-1.3-2.5-1.8-.5-.7-2.7,2.5.5,3,.5-.8-1.8,2.5-3.5.5,2.3,1-2h3.2l.7,1.3,3-.7-1.5,1.8-1,2.2.3,1.2,1.5-1.5,1.7-2.2,3.5.2-.5-3-1.5-1.5-2-1.2-.7-2.3-2.3-3-2-2.5h-4l-4.2-.3-2.8,1.7-2.8.8-1.7,1.7-1,2-1.7,1.5.3-2.5,2-2.7-1.2-2-3.2-2.7-1-1.2-3-3-1.7-2.8.3-2.3,1.2-4.3,1-6.5,5.2,3.7.8-2.5-.8-2.3,1.5-2,.3-2.5,2.8-.3,3.8-2.2.5-1.7,3,1-.5,2.2,2.2-1.5,2.3.2,2.7-.8,2.8.8,3.3,3.3.7,3.3,1.2-1.8,1.5-.3,2.2,1.5,2.2.3,2.2-2.5h3.5l1.8,1.2,3.8-1,1.5,2.5,2.8,1.5,2.8-1.7,2.8,1.3,4.2-5-2-1.3-3.8-.7-.3-2-1.8-1.2,3.8-1.7v-4l-.5-.8,2-.3,4,.5-2.2-3.5-1.2-1.5,2.3-1.2-2.7-1.3,1.2-2.7,2.8.7,6.8-1,3.2-.7,3,.3,4-3.7,7.2-.7,2.5-1.2,3.5-3.5,2.7,1,2.7.3,1.8.5.8,2.7,1.3,2.3-.5,3.2,2.2,1.7.7-1.7,3.2.5.2,1.5,2.3-.8.5,1,.3,2.5h4l1.8.3,1.8-2.3,2-.3,2.5-4.7,3-.2-1.5,2.7,5.3,6.5,5.8,5.8,3.5,7,1.3,3.7,3.3-3.8,1.8,1,.8,1.5,1.8,2.2,3.3-.2,3-1,2.7.3,1.7,3.8,1.2,1.8,2.5-.2,2.2,3,2.3-.3,2.5-1.3,1.3,2.5-.7,1.5-.3,3.3-2.5,1.2-2.8.7v5.5l-.8,3.5-3.7,1-2.3-.8-3-.3-2.5,3.8-2.2,5.2,1.3,3.5-1.3,1.2-4.5-.5-5.3,1.5,1.8,2.5-1.2,1.8,1,2.7v3.7l-.7,2-.2,2.3-2.9.1-2.9-3.6-1.7-.8-1,.2-10,1-1.8-.2-2.5-.5-1.7-1.2-1.9-.1-2,1.3.1,2.4-.7,1.4-2.8-1.2-2.3.2-4.3-.4-1.6,1.9,1.1,1.4-1.9,1.3-1-.8-2.5,1.3-3.8.7-2.1,2.5-2.1,5.1-2.4-.9-1.1-1.4-4-.9-3.7-.2L467,451l1.8-1.4.3-1.6-1-2.4-1-5.1-2.9-2.8-3.5.6-3.3-1.3-4.8.4-3.8-2.9,1.7-.8-1.2-3.2,2.3-.3,1.2-1.8-1.3-.8-1.8-3.3.3-2.8,1.3-2.5-.7-1.3-1.5.5-.2,1.2-1.8-1.2v1.2l-1.8-1.2-.2,2.5,2.5.7-2.7.7-1.8-.8-.2,2.5h-1.5l-1.3-.5-1.1,1.3-10.8,2.3,1.1,22.4Z"/><path id="path3805" class="cls-1" d="M452.8,536l-1.8.7-4.3-1.8-4.8.5-6.8-2-1.8-.5-1-5.3-3-.8-1.3,1.3-3.3,1.3,1.3-2-5,2.3-3.3-2.5-4.8-1-2.5-3.5-4-.3-.5-4-2-3-1.8-3-2.3-.5-.3,1-2.5-2-1.5.3-2.5-2v-3.3l-2-1.8,1-3.5-4-4-3.3-.5-2.2-6.5.5-3.8,2-2.3v-4.1l-2-.5-2.2-2v-2.5l-2.3-3-1.3-3.8v-3l-.5-3,1.5-3,2.5.3,2.5,1.5,1.3,1.3,1.5,1.8,2,.3,1.8-1.8,2-1.8,1.3-1,1.8,1.5-1.3,1.3,1.8,1.3-1.8,2,1.8,1.3,1.5,1.8v2.3l1,2.3,2,.5,1.5-.5,2.3,1.3-.3,1.5,2.3,1,4.5,1.3,3.5-.8,3-1,1.5,1,1.3-.8-.5-3.6,3.5-.6.6-2.3,2.9-1.5,2.3.3,2.1-.9,3.6.1.8,1.6,1.8.3.8,1.3,3.4-.1,1.4.3,1.5,2.5,1.8.3,1.6,2.4,3.3.1.7,5.8-2.8,7.3-.3,2.8,1,1-.7,2.3,1,3.3,1,4.9,2.3.8.3,3.5-2,4.5.5,2.3,3.5,3.4,2.7,3.3.3,3,.3,1.7-3.6,2.6-2,2.5-.1,2.9Z"/><path id="path3807" class="cls-1" d="M388.8,463.29v-2.2s-.3-2.3.3-1.8,1.3,1.2,1.3,1.2l.3-2.2-1.2-1.5-2.2-1v2.3l-1.3.7-.7-2-.7-1.8-1.3-.5-2.5-2-.3-2.5,4.5,1.7,1.3-1.5-1.5-1.3-1.2-2.2,1.2-.3,3.8,1,2.7,2.5,1.8.7,2-2.2,3,3.2,1.3,2.7,3.2,1.7-3.2,2.7-.7,3.3-.5,2-1.7.5.5,4.1-3.3-3,1.6-2.4-1.2-.8.8-1.3-1.3-1.3-4.8,3.5Z"/><path id="path3809" class="cls-1" d="M378.8,458.89l-1.7-1.6-2-.5v-2.7l-.3-2-1.5-2,7.3-.2.3,2.5,2.5,2,1.3.5,1.3,3.8,1.3-.7v-2.3l2.2,1,1.2,1.5-.3,2.2-1.3-1.2-.3,4-.7.8-1.6-.5-1.5-1.8-2.1-1.6-1.7-1.2-1.3-.2-1.1.2Z"/><path id="path3811" class="cls-2" d="M373.3,450.09l-2-.5-.7-2-3.2,1.3-1.8-.5-.7-3.8-1.3-2.3-3.3-1-2-1.8-1.5-1.7,3.7-.2h4.2l3.7,2,3.3,1,2.7.3,2.7,2.2,2.2-.2,3.3.3,1.8,2.8-.5.5,1.2,2.2,1.5,1.3-1.3,1.5-4-1.5-1.3-.5-6.7.6Z"/><path id="path3813" class="cls-1" d="M379.3,472.49l-2.2.3-1.7-.5-2.8.8h-2.2l-3,2.7-2,2.2-.3,4-.3,3.5-.8,2.2-10.3,7,.5,1.2.2,4.2.8.2.2.8,7.7.8,16.7,13.8,6.8.3,5-4.3,4.6-.5-2.5-2,.1-2.8-2.1-2.2,1-3.5-4-4-3.3-.5-2.2-6.5.5-3.8,2-2.3-.4-3.8-1.6-.7-2.2-2v-2.5l-2.2-2.1Z"/><path id="path3815" class="cls-1" d="M367.5,473.09l-1.3,1.5-4-.3-5.7,2-3.7-1.5-4.8,1.5-1.7-1.5-1.7.8v2.5l-3.3,3.2-1.5,2.2.8.2.5,4.2h2l.5,1.8-1.8,1.3-.3,2-.8,1-.3,3.2,1.8,1.2.7,1.3,2.2-.2,3-1.3,16-10.5.8-2.2.3-7,4.8-4.8-1.3-.5-1.2-.1Z"/><path id="path3817" class="cls-1" d="M387.2,515.59l3.8.5,2,2,1-.5,1.3-2.3.7-1.5-1.8-1.2,1.5-.3,1.9-1.4-6.1.8Z"/><path id="path3819" class="cls-1" d="M340.7,494l-2.2-.5.7-2.3,1-1.7,1-1.7h1.5l1,1.8-1.8,1.3-.3,2Z"/><path id="path3821" class="cls-1" d="M340.3,497.09l-.5,1.5-1.7-.2-.2,2.2-.3,2.5,1.2.8-.7,2.8-.7,7.5,6,2.2,2.3-3.3,2-.5,1.7-1.7v-1l1.2-.2V509l-3.8-3.5v-1.2l8.7-3.2-.3-1.2-.8-.2-.2-4.2-.5-1.2-8.7,4.8-2.2.2-.6-1Z"/><path id="path3837" class="cls-1" d="M337.1,514.89l-.8-4.8-1.8-4.2.6-1.1.3-1.8.1-2.5,1.3-.9.2-2.4.8-1.8.8-2,2,.8-.3,3.3-.3,1.2-1.7.1-.7,4.5,1.1.8-.5,2.4-.7,8.2Z"/><path id="path3839" class="cls-1" d="M366,449l-2.5,2.6-1,.1-3.1,1.4-1.5-.4-2.5-.3-3.4,1.1-2.4-.4-2.4-.6-.5.4-2.9-1.5-1.6-.4-.8-1.9-2.8-.3-1.4-1.8-3,.4-7.9.1-1.9,2.1-2.5,1.3-.6,1.8-3.4-.1-5.8-.5-.9.3-2.8-1.5-2.4-1.8.1-2.3-3.8-.5-1.9,1.3-.3,2.5-1.1,2.6-1.5,1.1.4,1.3,3.1.1,1.5.1,2-2.5,2.5.3,2.4-.3,1.4-.1.8,1,.9.9.8.4-3,.5,1,1.6-2.1-.3-2.9-.1-1.8-.8h-3.3l-2,.4-.6,1.4.6,2.3-.5,1.5,2.1.1.9-.1-.4,2.3.9,1.4V467l-.8.8-1.3-1.1-.6,1.1.4,1.3,1.6.3,2,1-1.3,1.4,1.5.6.5,1.6-.8,1,2.1.4,2-.1-1.8,1.5,1.4,1.1.6-.9,1.8-.5.9,1.1,1.9,1.5,2.3.6,3.5-.4.4-2.5h2.3l2.8,1.1,1.9,1.5.9.9h5.1l2.1-1.4,2.3-2.1h2l.5,1,2-.3,1.5-2,.4,1.5-1.1,1.5.3,2.8,3.3-3.2v-2.5l1.7-.8,1.7,1.5,4.8-1.5,3.4,1.5,5.6-1.9,4.3.3,1.3-1.5,2.1.3,1.5-.4,1.9.1,2.9-.9,1.3.5,2.2-.3-1.6-3.8.1-3.8-.5-3,1.5-3-1.7-1.6-2-.5-.3-4.7-1.5-2-2-.5-.7-2-3.2,1.3Z"/><path id="path3841" class="cls-2" d="M324.9,486.29l1.9-1.2h1.8l1.3-.9h2l3.1-1.9.4,1-2.7,2-.1,1.3.3,1-1.6.4-1.9-.1-1.2.4-1.1.5-1.3-.2-.4-1.3Z"/><path id="path3881" class="cls-2" d="M324,381.09l-3.9,1.1-1.8,3.4-.3,2.5-2.5-1.3-2.3-.5-1.6-.6-1.4.8-5.3-.8-2.8-.8h-2.9l-6.4-.6-3.3,1.6-1.3.9,1.3,3.4.8,2.9-.6,2-2.9,1.9-1.8,2.4-.5,1.6-2,.4-.8,4.8,2.5,3.8,1.5-1,3.3.9,3,.4,1.5.8,2.4-1.3,2.3-.3,3-1.6,2-1.1,1.6-.6,2.9,1.4,3.1.8,1.5,1.5,1.1,3,1.4,2,.1,4.3-1.9,1-1.4.4L311,423l-1.3.9-2.1.1v1.5l1.8,1.6,1.8-.9,1.5-.3,1.6-.5,2.5-1.1.3-1.8.1-1.4,3-1,2.9-.8,1.1-.3v2.6l1.4,1.3,2.5-.4,2.1.5.8.4-1.6,1.3-2.5,1.4.1.8,2.4,1.4.9.4V432l1,1.5,3.8-1.3,2.4-1.6,1.8-1.4,2.4-.3,1-.9-2-.4-2.5-.3h-1.5l-.4-1.3-1.1-1.7-1.3-.6-1-1h1.9l2.3-.5,2.3-2,3-.9,2.3-.6,2.4-1.1,2.3-1.8,3.5-.1-.8-2,2.8-1.5,1.6-1.8h2.3l2-2.8-1.7-3,1-4.6-2.3-.6-1-1.3-1.2.2-2.3-1.8-2.3-1-1.5-2L347,395l-2.8-1.2-3.5.3-2.5-5.8-3-.2-.7-5-2-2.7Z"/><path id="path3883" class="cls-1" d="M302.1,407.49l.6,1.1,1.3,2.1,1.9,1.6,1.5,3,.5,2.8-.1,4.9v.6l2.1-.1,1.3-.9.6-2.4,3.3-1.4-.1-4.3-1.4-2-1.1-3L311,408l-2.8-.8-3.3-1.4Z"/><path id="path3885" class="cls-1" d="M284.1,410.29l-.5,1.6-2.4,1.1-1.1,1.1-.8,1.9-1,3-2,1.6-3,.6,1.5,2.6,1.9,2.3,1.5.8.5,1.5,1.8,2.3,2,.5,1.5-.4-.4,1.8,1,1.6.5,1.4,5.8.8h3.8l1.9.3,4.5-1.6,1.6-1.3,2.5.9.8.3h1.1l.8,1.3,1.4.3,1.1-4.1.4-2,.8,1.5,1.9-1.1.6-2.1-.3-2.6-1.3.3-1.6.1-1.3.6-1.8-1.6v-7.8l-.8-2.3-1.1-2.8-1.9-1.6-1.9-3.3-3.9,1.9-2.3.3-2.4,1.3-1.5-.8-4.1-.5-2.1-.8Z"/><path id="path3887" class="cls-1" d="M301.3,447.49l-1.9-.4-.4,2-1.9.9-3.1-.1-2.4-1-1.6-.4-2.5,1.4h-1.6l-.3-3.5-2-1.3-.5-1,.5-3.8,1.4-1.1-1.4-3,.4-2.6,1,1.9,2.8.4,5.1.4h1.6l1.9.3,3-.9,1.5-.8,1.6-1.3,2.9,1.3,1.5-.1.8,1.3,1.4.3.1,2.9-2.1.1-.6.6-.1,3-1.5,1-.8,1.1,1.8.1.6,1.9-2.9-.5Z"/><g id="g7374"><path id="path3889" class="cls-1" d="M285,450.58l-2.8.8-1.1-.3-1.3,1.5-3.3.4-.6,3-1.5,2.3-.3,1.3-4,.5,1.5,2.9.9-1.6,1.1,2,1.4.8.4,1.5-1.3.9,1.8.3.9,1.6,2.1-.1,3.8.1,1.9,1.4h-1.9l-2.4-1-2.5.4-1.6,1.4-1.1-1.4-1.3-1.3-.6,1.5,1.3,1.1h.6l-.5,1.5,1.5.3.6-.8.3-.8,1.4,1.8.3,1.4.4,1.4.8,1.9.4-1.6,1.9,1.1.5,2s.9-2,1.3-1.5,1.8,2.3,1.8,1.8-.5-3.5-.5-3.5l-1.9-2.1,1.6-.6,1.1,1,1.1-.8-1.5-1.5,1.9-.4,2.3,1.4.4-2.5,1-1.4-.6-1.5-1.3-.9-2.5-.5-1.1-1-.1,1.5-1.4-.8.8-1.4-.1-1.8-.4-1.8-.9-1.5.6-3.8,1.4.8.8,2.3,1.6.6,1-2.1-.5-2,1.8.4,1.9-1.6.9,1,1.1-1.4,2.1,1.1,2-.1,1.5-1.1,1.1-2.6.3-2.5-1.4-.6-.4,2-1.9.9-3.1-.1-2.4-1-1.6-.4-2,1.5-2.1-.1Z"/><path id="path3891" class="cls-1" d="M286.85,483.78l1.9,1.3h2l1.6,1.3h2.3l2.9-.1,2.4-1.1,1.9-1.1,1.6.1.6-1.4,1.5-1.8,1.1.5,1.3-2.1-1.1-.9-1.8,1.5-.4,1.3-1,1-1.6.5-.9,1.1-1.8.9-1.3.5-1.1-.6-1.9-.5-1.9-.1-1.1-.4-1.3-.8-1.4.5-2.1-.4Z"/></g><path id="path3893" class="cls-3" d="M297.2,462.79l1,1.1,1.3.8,1.1-1.1-1.4-1.4Z"/><path id="path3895" class="cls-3" d="M297.2,466.49l-.3,2.4,2,.5.6-1.6-1-1.5Z"/><path id="path3897" class="cls-3" d="M293.7,458.79l-.4,1.8h1.8l.8-1.3Z"/><path id="path3899" class="cls-1" d="M276.6,453l-1.8-2.2.3-3,1-1.2.5-1.5,2.2-.2,2-1.5,1.5.7h.9l1.1,1.3,1.4.9.3,3.5-1,.8-2.3.5h-1.6l-1.8,1.7Z"/><path id="path3901" class="cls-1" d="M270.8,459.49v-1l-1.2-1.7-.3-3.7.2-2.2.2-1.2.3-1.7-.3-.5.5-4.7h2.5L274,444l1.3,1.2-.2,2.5-.2,2,.3,1.7,1.3,1.5-.6,1.8v1.2l-1.1,2-.6,1.5Z"/><path id="path3903" class="cls-1" d="M269.7,448.09l-1.3-1.1-2-1.6-.5-2.6.5-2.5,1.8-1.6,1-1.6.5-.5,1.3,1.1,2.3,2.1-1.1,3-1.9-.3Z"/><path id="path3905" class="cls-2" d="M270.3,435.89l-.6-3-.4-3.3-.1-2.6.3-1.5-1.4-2.6,2.4-1.4,2.8.1,2.9,4,2.1,1.3,1.1,2.1,1.1,1.6,2,.5,1.5-.4-.4,1.8.6,1.5-.5,2.3,1.4,3-1.4,2-.5,2.9-1.4-.1-1.4-.5-1.6,1.5-2.2.2-1.5,2.4.1-2.2-1.5-1.5-1.8-1,1.1-3-2.3-2.1-1.3-1.1.9-.9Z"/><path id="path3907" class="cls-1" d="M263,441.29l-1.4.5v-2l-1.6-2.9-2.9-1.9-1-2.8-1.1-2.3-.8-1.6.5-1.4,2.1.9,1-.9,3.3.6,1.3.8,1.8-.5,1.6.4,2,1.6,1.6-.3.4,3.6.6,2.6-1.1,1.1-1.3,2.1-1.5,1.1-.5,2.5-1.3-.1Z"/><path id="path3909" class="cls-1" d="M251.6,425.39l-3.1-.3-2.9.3-1,1.3-1,1,2.3,2.5.1-2.3,1-.6,2,1.5.6,1.4,1.1.4s-1.9,1.4-1.5,1.5a13.69,13.69,0,0,1,2,1.3l-.4,1-.1.8,1.5,1.6,1.5,1.1.6,1.5,1.8-.8,1.6.3,1.3,1,.4,1.5.9.4,1.3.8,1.3.9,1.4,1,1.4,1,1,.1-1-2.3-.8-.5-1.8-1.4-1,.6-.4-2.1-1.6-2.9-2.9-1.9-2.9-6.6.5-1.4,2.1.9,1-.9,3.8.9.8.5,1.8-.5,1.3.3,2.4,1.8,1.6-.3-.1-2.6.3-1.5-1.4-2.6h-5.8l-3.9-3.4-1.8-.8-1.9,1.6-1,1.3-1.9,2.9Z"/><path id="path3911" class="cls-1" d="M261,409.09l-1.1.3-.5,2.3-1.8.4-1,3-1,1.6,1.1,2.1,1.8.4,3.9,3.8h5.8l2.4-1.4,2.8.1,3.1-1,2-1.6,1.8-4.9,1.3-1.5,2.3-1.1.8-1.6-2.5-3.8-1.5.3-5-.4-1.8,1.3-1.6.8-3.5.6-1.3,2-2.5.3-2.9-.1Z"/><path id="path3913" class="cls-1" d="M245.1,425.09l-.4-1.8-1-2.1.8-2.5,2.1.4,2.1.4,2.9-1.3,1.6-1.1,2.4-.5,1.1,2.1-1.9,1.6-2.9,4.1-.4.9-2.5-.1-2.9.1Z"/><path id="path3915" class="cls-1" d="M259.8,409.39l-1-.9.4-1.8-.3-1.4-.3-1.4,1-1,3-.4,2.9-1.9.9-1.3.1-1.5,1.8,2.1,2.1-.9,1.8,1.4,1.9-.3h1.4l2.3-.4,1.4-.6,1.8,1.3,1.8,1.4-.8,4.1-1.5.3-2.8-.4h-2.3l-1.8,1.3-1.6.8-3.5.6-1.3,2-5.4.1-.8-1.3Z"/><path id="path3917" class="cls-2" d="M288.7,386.79l-.4-1.8.5-3-1.6-.9.6-2,1.5-1.8.1-3.3-1.3-4.1,3.3-.8.6-1.6,3.1-1.9h1.1l1-4.1,4-3-.4-2.4,1.4-1.3,1.8-.9,2.5.1,1.1-2,1-1,.6.9,5.4.5,1.1,1.8,3.5-.5,1.3,6.3,1.5,5,2.3,2.3.2,2,2,2.1-.9,3-3.3-.2,1.5,6.5-3.9,1.1-1.8,3.4-.3,2.5-2.1-1.1-2.6-.6-1.6-.6-1.4.8-5.3-.8-2.4-.8-2.8.1-7.1-.8-3.8,2.9Z"/><path id="path3919" class="cls-1" d="M306.5,337.89l-1.4,1.6-2.4-.4-2.3.5-4.5-3.4-4,.9-.9.1v-2.5h-1l-.6,1.6-1.5-1.9-1.1-1.9-1.4.6-.4,1.6-2,1.1-1.3.5-.6,1.5-.8-1.6-.6-1.8.8-1.4h1.6l.4-1.3-.8-1.3-1.5-.3.9-.8,2.4-.9,1.1,1.3-1.3,1.8-.1.9,1.3-.1,1.3-.1.9-.9-.4-1.4-.9-.5,1.4-1.6,1.4-1.5,1.8-.4,2.3-1.9.8.6,2.9.1,1.4-.9,1.9.8,2.6.5,2.3.4,2.2-.3.3,2.7-2.8,2.8,2.3,5.8Z"/><path id="path3921" class="cls-1" d="M289.5,346.39l-3.3.3-1.1-2.6-1.8-2.1-1-1.5-3.9,1.9-.9,2.5-.3,2.4-1.1,2.3v3.3l4-2.5,9.9-.4,1.9.4,1.5-.5,1.6,1.8,3,1,3,3.8,1.4-1.3,1.8-.9,2.5.1,1.1-2,1-1-.5-1.1v-8.4l-.8-3.2-.9-.8-.9,1.6-2.9-.4-2.3.5-4.5-3.4-4.9,1-.4,6-.4,2.6Z"/><path id="path3923" class="cls-1" d="M275.8,354l.6,2,.4,2.1,1.1.5,1.5,1,2.6,1,2.8.5.4,2.4-.1,1.6,1.9,1.4.9,1.8.4,1.8,3.3-.8.6-1.6,3.1-1.9h1.1l1-4.1,4-3-.4-2.4-3-3.8-3-1-1.6-1.8-1.5.5-1.9-.4-9.4.5-4.5,2.4Z"/><path id="path3925" class="cls-1" d="M265.8,396.29l-3.1-.6.9-1.8-.8-.9-1.4.8-2.5-.4-.5,1.4-1.6-1.5.3-1.1-3.1-.1-2-.4-.8-1.3-.9-.8.1-2.9-1-2.3-.5-4.9-.3-1.3-1.3-1.8.1-1.6.1-1.3-1.5-2.6v-.8l.8-1,1.5.6-.5,1.1.4.9-.2-.9.8-2.1,2.5-1,3.1-.9,1.9-1.8,2.6-1.3,3.9-.5,2.3-.3,1.5,1.4h-1.4l.9,1.3,2.1,1,.9.1,2.6-2h2.6l2.5-.1,3.6,1.3,3.8.1,1-.9,1.8,1,.9,1.8.4,1.8,1.3,4.1-.1,3.3-1.5,1.8-.6,2,1.5,1.3-.4,2.3.4,2.1-.6.6,1.9,4.4.4,1.9L290,395l-2.5,1.8-2.1,2.5-.5,1.6-2.4.6-2.6-2.1h-1.1l-1.8.8-1.9-.1-2.6.5-1.8-1.4-2.1.9-1.8-2.1Z"/><path id="path3927" class="cls-1" d="M257,404.29l-1.1-.1-1.5-.9-3.5-.5-.3,1.8-2.1,1.1-2.8-1-5-4.8-1-1.8.1-1.8-1.1-2.4,2.6-.3,2.6-1.5,2.1-1.3,1.3-.1.4-1.8.9.1,1.4,1.6.4-1.3,1.1,1.4.5.6,5.1.5-.3,1.1,1.6,1.5.5-1.4,2.5.4,1.4-.8.8.9-.5,1.9,2.8.5.8,1.8-.1,1.5-.9,1.3-2.9,1.9-3,.4-1,1Z"/><path id="path3929" class="cls-1" d="M244.6,405.89l-3,2.8.5,2.1-.6,1-3-.3-2.6,1.1-1.3-.3-.8,1-1.9-.8-2,.3-1.1.3h-1.4v1.6l.8.6,1.1.5.9-.1,1.4.6-.1.8h1.8l2-.6,1.6-.5,1.1-.9,1.3.1.9,1v1.3l1.8.1,2,.5,1.1.6,3.8.8,3.3-1.5,1.3-.9,2-.4,1.4-1.8,1-3,1.8-.4.5-2.3-1-.9.4-1.8-.5-2.8-1.8.3-1.1-.1-1.5-.9-3.5-.5-.3,1.8-1.6,1.1-2.3-.6Z"/><g id="g7393"><path id="path3931" class="cls-1" d="M252.65,458.48l-1.3.3-1.6-.9-.5-1.8-.9-1.1-1.5.6-1-1.5-.1-1.4-1.5-1-2.8-.1-2.3-1.3-2-2.3-1.5-1.3-1.6-1.3-1.4-1.6-2.4-2v-3.5l-.8-1.5-.9-1.4-1-1.1-.9.3-1.4-1.1-1.8-.3-1.8.5-.9,1.8-1.4-.6-.1-1.4-1.8-.1-1.4-.8-.4-3.4-.8-1.1,1.5-2.1-.3-3.5,3.4-1.3h.9l1.3-1.9,1.4,1.8,1.1,1.5.9-1.1-.4-1.6h3.1l1.3-.1,2.1-2,.4-.9h2l2.4-.9,1.1-.9h1.6l.9,1v1.3l1.8.1,2,.5,1.1.6-1.3,2.5,1.1,2.5.3,1.4h-1.4l-2.4.1-1,.8-.6.5h-1.8l.6,1.1.1,1.4-.6,1.6v1.4l.6,2,1.6,1.4,1.9,1.3,1.3.1.8,1.8.3,2.4,1,1.6.8,1.9,2.5,1.9s2,1.1,2.4,1.4a18.33,18.33,0,0,0,3.1.8l-.4,1.4.9,1.4,2.8.9,2.5,1.4,2.3,1.1,1.4,1.1,1.4,1.6.4,1.3-.9,1.5-1.5-1.3-1.4-1.3-1.1-.5-1.1-1.1-1.3.9-.9,2.1-.6,1.1,1.8,1.5,1,.8-.4,2.3-1.3.6-1.1.8.3,2.1-.4,1.4-1.3.6-1.6.5-.6-1.4-1.3.4.1,1.3-.8,1.6v1.8l.4,1.5-.9,1.1-2.1.5-1.5-2.4h-2.1l-1-1.3-1.5-.3-.6-1-2.3-.1-.5-1.9v-1.2l2-.1,1.5-.1,1.3.1.9.9h2l1.9-.4,1.8-.5h1.3l1.1-.6,1-1.1.8-1.3.6-.6-.4-1.5-.3-2-.6-.8-.3-2.1Z"/><path id="path3933" class="cls-1" d="M225,451.88l-1.7,1.1-1.4,1.2-.8-.4-.8-.7.2,2.3.8.5.3,2.2v1.5l.6.2-.8,1.3v1.8l.8,2.1,1.1.6,1.5-1.3,1.7-.2,1-.8-.4-3.2V458l-.6-.7,1.2-.5-.1-1.4-.7-1.2.1-1.1-.7-.8-1.3-.4Z"/></g><path id="path3935" class="cls-1" d="M217.2,422.69l-.6-.9-.3-2-1.3-.7-1.9.7-.4.6.9-2.3,1.7-2.8,1.2-1.7,1.8-1.2.8-.3,2.5.4,1,.2,1.5-1.1h2.3l1.3.2-.1,1.1-.2.9.1,1,1.4,1.5,1.4-.5,1.1.5.4,1.3-2.2,2.3h-4.2l.2,1.8-.9,1.1-1.7-2.4-1.1-.5-.8,1.5H220Z"/><path id="path3937" class="cls-1" d="M218.4,411.59l-.2-2.8.7-2.4,1.6-1.8,1.1-2.1-3.9-.3-2.1-.8L214,401l-.5-.9.2-2.8-.7-1.4-.4-1,1.3-2.2-1.3-1.3-.6-1,.3-1.8.4-1.8-.1-2.1-.1-1.2,1.7-.3,1.3-1,1-1.7.3-2v-1.8l.6-1-.4-1.1-1.5-.4-.3-.9,1.1-.9,1.1-.8,2.3-.1.5.6.5,1.3,1-.2-.2-1.6.3-1h1.3l1.4.4.5-.6-1.1-1.1.1-.9-.5-1.2-.6-.7,1.1-.5.6-.7-.9-1.1-.9-1.2.2-.8,3.1.1.9,1.6.8-.3.8.8-.3,1.2,1,.8,1.3.2,1,.4,1.3-.2.3,1-1.7,1.1.1,1.4,2.2-.8,1.4.2.8-1.9,2.2-.2,1-1.3,1-.3,1,1.1,1.2-.2-.7-1.5,1.8-.9,1.5,1.7-.3,1.1-2-.1v1l1.2.8,1.3-.3,1.7.7-.5,1.8,1.1,2.2.4.9-.4,2.6,1.5,1.8.6,5.6,1.1,3-.1,2.7-.4,1.3-1.6-1.6-.6-.2-.3,1.6-1.6.3-4.5,2.8-2.6.3,1.1,2.4-.1,1.8.7,1.6,5.3,4.9.5.6-1.7.7-3,2.8.5,2.1-.8,1.1-2.8-.4-2.6,1.1-1.3-.3-.8,1-2.1-.7-2.9.4-1.2-.1-.1-1.3-3.3-.2-1.9,1.1-3.7-.5-.4-1Z"/><path id="path3945" class="cls-1" d="M215.2,373.29l-1.7,1-3.2-.2h-2.1l.2,1.8,2.2,1.7.3,2.3-2.2,2.2-1.2-2.2-.3-2.5-1-1.8-.8,1.5-.3,2.3v2l-1.5,1,.3,2.2,1.8.3-.3.8,1.3.8h1.7l1.2,1.5,2.4,2.2.6-3-.5-4.2,2.2.1,1.8-1.3.5-1.4.3-3.8.6-1-.4-1.1-1.5-.4-.4-.8Z"/><path id="path3947" class="cls-1" d="M204,386.49l-2,.8-.8.5-1-.3-1.7,1.5-1.3.7,1,1.5,1.2.2.8,1.3,2.3.2,2,2.7.5,1.5,2.2-1.3.3,1.7,1.7,1.3,1.5,1.5.5-3,1.2-1.8,1.5-2.7-1.9-2.3-2.4-2.2-1.2-1.5h-1.7l-1.3-.8-1.4.5Z"/><path id="path3949" class="cls-1" d="M213.8,400.49l-1.5-.2-1.7-.2.5-3,1.2-1.8,1.3,1.9Z"/><path id="path3951" class="cls-3" d="M220.3,435.29a1.4,1.4,0,1,1-1.4-1.4h0a1.37,1.37,0,0,1,1.4,1.34Z"/><g id="g10961"><path id="path3953" class="cls-1" d="M191.55,388.08h-3.3l-1.3-1.3,2.3-1.5,1.8-2.5,1.8-.3v-4.3l-2.8-2-2.8.3-.5,1.5-1.3-1.5.5-2.5-1-2-.3-2.3-2.5-3.5-3-2.8-1.5-1.8-.8-5-3-3.3-1.5.3h-1.3l1.3-1.8,1.3-.3-.8-2.5,1.8-1.5,1-3.3,1.5-1.5-.8-2.5h-5.5l-3,.8-.5-2,1.8-2.3,2.5-2.3-.3-2.3-2.2.5-2,.7h-3.3l-1,.8v2.2l-1.8,1.3.2,1.8s-1.8.3-1.5,1a15.5,15.5,0,0,1,.5,2.8l-2.3-1.3-.3-1.5-1.8.2v-1.3l1.8-1,.7-3.3-1.7,1.2-2,1.2-.2,1.8.3,1.3,1.3,1.5-.2,1.3,1.2,1,1.2,1.5,1.3.7.5-1.8.5,1.3-.7,1.8s-1.3.5-1.2,1a10.4,10.4,0,0,0,1.2,2l2-.3.8-1.2.2,1.7-1.5,1.7-.2,1.7-.3,2-1,3.5,3-2-.2-3.2,1.5,2.5.7,2.7-.7,1.2-.8,1.8.8,1.5,1.8-.5,1-1.3,2.2.7h1l-.3,1.8,1.3,2,.2,1.5,1.7-.3-.7,2.8v1.7l1.3,1.3-2.7.5h-2.8l-2.5-.8,1,2.2-1.8,1.7s-1.2,1.5-.7,1.3a12.19,12.19,0,0,1,2.7,0l.2,2.2-2.2,2.3-2.7,1.5,1.3,2.3,2.2-1,1.7.3,1,.3,2.3,1,1.5-.5-2.2,1.2-2.7.3-.8,2.2-1.8,1.3-1.5,2.2-3.7,3h2.8l2-1.5,1.7-.7,2.8,1.2,1.5-2.8,1.7-.3h2.7l1.3.3,3-1.5h2l3.3.2,2.5-.2,2.8-1.8,2-1v-1.4Z"/><path id="path3955" class="cls-1" d="M180.45,315l-1.8,1.3v2.2l-1.7,1.2,1.8,1-.2,1.5,1.8-3,.7-2.5Z"/><path id="path3957" class="cls-1" d="M172.45,328l-1.7.5.3,1.7,2.8-.2Z"/><path id="path3959" class="cls-1" d="M156.35,360.78l-1.2.3-.8.2-.8,1.5-1.3,1.5h-1.5l.7,2.2,1.8,1.7,2.3-1.5.7-.7,1.3,1.5,2.5.8,1-1.5-.8-2.3v-1.7l-1.5-2Z"/></g><path id="path3961" class="cls-3" d="M165.2,367l-.7,2.5,2.7-2-.7-1.3Z"/><path id="path3963" class="cls-1" d="M157.5,381.79v-1.9l1.6-2.8-.1-2-.8-2.3.1-2.8,1.7-1.8-2.5-.8-1.3-1.5-.7.7-2.3,1.5-2-2-.5-1.8h1.5l2.2-3-.4-1.7h-1.9l-1.4.8-2.4.5-1.1,1.5v2.1l1.8.3v1.4l-1,.6-.5,1-1.8-.3-1.5-.4-1.3.1-.5,2-1.3,2,.3,1.9,1,1,1.4.8,1.8.5-1.5,1.6-.6,2,2.6.1-4.3,1.1-.5,1.8-1.3.5,1.9.8-1.9,1.1,1.1,1.1,1.9-1.1-1.8,2.3,2.1-.6-1.1,1.8,3.1.4,1.8-1.3,2-2,1.5.5,2.8-2.1,1.1-.9,2.1.4.9-1.1Z"/><path id="path3969" class="cls-1" d="M304.5,317.49l-2.8-.1h-4.3l-2.9.6-2,1.3-1.9,1.3-2.9,1-3,.6-3.5-1.3,1.5-2.1-1.5-1.3-2.5-1.6-1.8-.6.3-3,.9-1.3v-5.2l-.9-2.9-.3-1.8.1-1-.8-1.8.6-2.9,2.4-2.6.6-2,2.3-2.6,2.5-2.6,1.8-1.6,2.6-2.5.8-2,2-3.9,2.8-.5.3-.9-.5-2.5.3-2.6-1.6-2.3-1.8-1.5-1.5-1-1-3-.5-1.6.9-3.9-1.1-2.5-.1-3.4.9-2.6-1.1-1v-3.8l1.1-1.6-1.5-1.4-1.4-1.1-1-2.1-2.9-1.3-1.5-1.9-3.3-2.9-.9-1.3.9-4,1.8.3,1.5,2.5.8,2.8,1,2.3,3.6,1.3h2.3l1.3-2.1,1.5,1,2.1,1.4,2.1-1.5,1.4-3.1,1-2.8.1-2.3.9-3.8,2.8-3.5,2.6-.3,3-1.1,1.5,1.9,1.6,1.6,2.3.6-.6,2.9-1.1,2.8-.4,2.9-1.9,2.9v2.2l1.5,3.3,3.8,4,1.2,3.5.9,1-4.5,7.8,4.8,12.8-.8,1-.3,3.8.3,3.8,1.3,2.2.3,3.5,1.5,2.3-2.3,3.5,2,3.2,2.5,1,.7,3,1.2,1-.4,2.5-6.4,6-4.1,7.4-3.9,3.3-2.3,3.2Z"/><path id="path3971" class="cls-1" d="M275.3,228.59l-2.8.5v2.8l-.5,2,.5,2-2-.3-2.8-.5-2.3-1.3-1.3,2.3-.5,3.8-3,1-2.8,1.5-.8,4-1.5,2v2.8L253,256l-1.5,4-1.5,2.5-2.3.3-.8,8.5-2,4.3-1.3,3.3,3,2.5-1.5,2-4.8.3-1.5,3.5-.5,4-1.5,3.8,1.5,4.8-.3,4.3,1,4.5.5,2.5-.5,1.8.3,5.3-.8,4-2.6,3.6-.6,4.5-2.4-1.4.5,4.1.4,3.1.8,3.3,1.1,1.6.5,2.4.9,1.4,1.6,3.4,1.6,2.1-.1,2.1-1.4,1.6,1.1,2,1.3,2.1.9,1.4,3.6-.9.8-2.5,1.3-2.6,3.8-.3,2.3.1,1.4-4,.6-2.4.4-4,1.3-2.3-.3-3.3.1-2.5-.9-1.1,2.1-1.3,2.9-2,.5.6,1.5-2.3,2.1-2.1.1-1.5.5-2.5-.6-2.1-1.5-2.5-1.9-1h-1.3l-1.3-2.5-.8-2.3.3-1.6,1.3-3.6-.4-2,.4-3.1.1-1.8,1.3-1.1.5-2.5,1.4-.1,2.1-3.8,1.5-2,1.6-.5,1.4-2.1,3.3-.6,3.3-3.3.4-2.5,1.6-.6-1.8-2.4a7,7,0,0,1-.1-2.1c.2-.3,2-2.3,2-2.3l-.9-2.8.4-1.8,1.6-.4.8-3.3,1.6-.9,1.1.8,2-.4,2.8-.3.6-.5.5-.1-1.5-4.6.9-3.9-1.5-2.3.3-3.6.9-2.6-1.1-1v-3.8l1.1-1.6-2.9-2.5-1-2.1-2.9-1.3-1.5-1.9-4.1-4.1Z"/><path id="path3973" class="cls-1" d="M267.7,338.79l-2.5,1-2.1,1.8.4,4.1.6,1.5,2.5-4,.1-1.6Z"/><path id="path3975" class="cls-3" d="M258.5,343.39l-1.6,3.4-.9,5.1,2.4-4.4Z"/><path id="path3977" class="cls-1" d="M324.5,221.59l-3.3-.4-1.9,1.5L316,222l-1,2-2.8,1.7-1,3.3-1-.3.4-2.9,1.1-2.8.6-2.9-2.3-.6-3.1-3.5-3,1.1-2.6.3-2.8,3.5-.9,3.8-.1,2.3-2.4,5.9-2.1,1.5-3.6-2.4-.9,2.1h-2.6l-3.6-1.3-.9-2.8-1.5-3.1-1.4-1.9h-1.3l-.9,4-1.1-.6-2.8.5-.1,3.1-.4,1.6.5,2-4.8-.8-2.3-1.3-1,1.8-.8,4.3-5.8,2.5-.8,3.6-1.5,2v3.1l-2.5,4.8-1.5,4-1.5,2.5-2.3.3-.8,8.5-3.3,7.5,3,2.5-1.9,2.3-4.4.5-1.5,3-.5,4.4-1.5,3.4,1.5,4.8-.3,4.3,1.5,7-.5,1.8.3,5.3-.8,4-2.6,3.6-.6,4.5-4.4-2.3-.5-3.1-1.1,1.9-.3,2.5-3.3,1.9-2.4,2.6-2.9,3.5-2.9,1-3-.8-2.8-.6-2.1-2.9-2.1-2.1,2.8-1-.3-1.4,1-2.3-3.3,1.1-.5-3.1,3.9-1.4-1.4-1.1-.8-1.5-2.3,2.4,1.4-3.4-1-1.1-.1-1.4,1.3-1.9-2.4-.9.8-1.6,4.9-.4,1.4-.1-1.9-1.4-3.3.9-1.6-1.9,1.4-1.1-.4-2-.8-1.8,1.8-1.4,1.9.6-.4-2.1,2.4-1-2.6-.6,2.1-1.8,2-.9,1.8,1.1,2-.9-1.1-1.9.6-1.3,2.3-.3-1.4-1.1.9-1.4,2.5-.4,1.9-.1,1.3-1.8.5-1,1.8-.5,1.5,1,2.1-.3.5-1.5-2.5.4-.6-2.4.5-3.1,3-2.4,2.1-2.4,1.8-1.9-1.8-1.1,2.6-1.8,1.9-1.3-.4-1.5.4-3.3,1.4-1,.3-1.5-1.3-.9,2.3-2.5h2.3l-1.3-1.6.9-2.4.9-1.9,1.6-1.5.1-1.3,2-1.8,2.6-1-1.6-.6,1.3-2.8,2.1-.3-1.3-3,2.4-3.1,2.9-2-2.5-1.1-5.1,2-2.3.6-3.6,2.6-1.9,2.1,1.5-4.6,4.5-1,1.4-1.1,2.5-2.3.5-1.6-2.9.1,1.8-2.9,1.4-.4.3,2,1-1.5,1.6-1,.3,2.8,1.4-2.9,2.4,2.5,1.9-2.9,1.1-1.9-2.4.8,2.6-4.1,2-.8,1.3,3.3.9-2.9,2,1.6-.6-3.1-.1-3.4,2.9.1,1.3,2.5,2.1-3.8,1.5,4.8.6-4.6,1.5-.5,1.8-1,2.9,2.9-1-3.5-2.5-1.8,3.6-1,3.4,1.6,1.3,3.9v-5.8l2.1-1.1,1.1-2.6,2.5-1.5.1-2.6,3.1-.8,2.1,1.3-1.9,3-.1,4,2.5-2.6,3.8-5.3-.1,5.3s-.3,2.5-.1,2.1l1.9-3.8,1.9-3.1.4-2,3,1,1.5,1.3-2.6,2.9.3,3.5,1.8-5L311,205l1.9,1.8,2,1.4s2.1.6,1.8.9a8.84,8.84,0,0,0-.8,1.1l3.1.6.8,1.3-.5,1.3-3.4,1.4-2.5.6-4.5-.4,3,1.1,2.4,1.4,1.3,1.1,1.8,1.1,2-.6,3.8-.6.3-1.4,3.3,1.3,1.6,1.5-.3,2.3-2-.1Z"/><path id="path3985" class="cls-1" d="M147.3,454.29l-.4,3.9-1,2.5-1,2.9-.1,2.8.9,1.1,1.8-.6-.5,2.5-.1,3.4-.9,1.9,2.9.3,2.8.3,2.5-1.3.3-3.9,1.5-1.4-1-1.5.5-3.8-1.5-2.5,1.8-.9.9-2.8.3-2.6-.1-3.1,2-1.1.5-1-1.3-1.3L158,447l-1.4-.3-1.6.6-4-.3-.4-1.8-2.8,2.5-.4,2.5.3,2.5Z"/><path id="path3991" class="cls-4" d="M179.2,437.29l-1.3,2.3-3.8-.3-3.5-.5-2.8-.3-2.5.5-8.5-.5L153,438l-1.8-1-2.4.8-.5,1.1-3.8.5v2.4l1.3,1.3,1.3,1.6.3,2.6,2.9-2.1.4,1.8,4,.3,1.6-.6,1.4.3.1,1.1,1.3,1.3-.9,1.3-1.6.9.1,3.1-.3,2.6-.9,2.8-1.8.5,1.5,2.9-.5,3.8,1,1.5-1.5,1.4-.3,3.9a3.55,3.55,0,0,1,2.3,1.1c.8,1,1.8,2.4,1.8,2.4s-.4,2.1.9,2.6a4.88,4.88,0,0,0,2.1.4l1.8-2.5h2.5l2-1.8,3-.1,1.6,1.3,1.9-.6,2.1-.1,2.3-3,1.9-1,1.8-.5,1.8-3.5,2.1-2.6-1.8-2.1.1-3.3,2.4-2.4,2.1-3.1.4-1.1,1.6-1.9,2.6-.3,2.8-1.9,2.6-1.8.5-2.3.3-1.8h-2.6l-3.1-.6-1.9-1.3-2-.3H186l-2.1-.3-3.7-1.2.3-1.5-1.3-1.7Z"/><path id="path3993" class="cls-1" d="M198.6,458.89c-.5.3-3.1,1.6-3.1,1.6l-.5,1a12.65,12.65,0,0,1,1.8.5c.4.2,1.8,1.1,1.8,1.1l1.9-2.1-1.1-.8Z"/><path id="path3995" class="cls-1" d="M201.4,458.79l2.1,1.3,1.1-1.4-1.9-1Z"/><path id="path3997" class="cls-1" d="M191.4,463.09l-1.4,2,1.6,1.6,1.1-2.5Z"/><g id="g10977"><path id="path4123" class="cls-2" d="M356.85,437.78l7.8-.2,3.7,2,6,1.3,2.7,2.2,5.5.2,1.8,2.8,4.5,1.2,2.7,2.5,1.8.7,2-2.2-2-4.2-2.8-4,1-3.5-1.5-.8-1.3-2.5-2.3-.8,2.5-2.8,2-5.3.8-2,2,2.3,1.7-1.6.3-2.5,2-2.7-1.2-2-7.2-6.8-1.7-2.8,2.5-13.2,5.2,3.7.8-2.5-.8-2.3,1.5-2,.1-3.3,3.1.4,3.8-2.2.5-1.7,3,1-.5,2.2,2.2-1.5,2.3.2,2.7-.8,2.8.8,3.3,3.3.7,3.3,1.6-2.6,1.1.4,2.2,1.5,2.2.3,2.2-2.5h3.5l1.8,1.2,3.8-1,1.5,2.5,2.8,1.5,2.2-1.7,3.5,1.3,4.2-5-2-1.3-2.9-.3-1.3-2.4-1.8-1.2,3.8-1.7-.5-4.8,6,.2-2.8-4.6,1.8-1.6-2.7-1.3,1.2-2.7,2.8.7,10-1.7,3,.3,4-3.7,7.2-.7,2.5-1.2,3.5-3.5,3.3,1.3,3.9.6,1.1,3.7,1.1,1.3-.5,3.2,2.2,1.7.7-1.7,2.6.5.8,1.5,2.3-.8.5,1,.3,2.5,5.8.3,1.8-2.3,2-.3,2.5-4.7,3-.2-1.5,2.7,6.4,7.8,4.8,4.5,3.8,8.3,1.1,2.4,3.3-3.8,1.8,1,2,3.7,4-.2,3-1,2.7.3,2.8,5.7,2.5-.2,2.2,3,2.3-.3,2.5-1.3,1.3,2.5-.7,1.5h4.5l1.8-2.3,3.8-.3,1.2-2.7,2.3.7,2.5-1.8,3.6-.6,2.3-2,1.7.3.5-1,2.2,2.2,5.7-.2,2.6,2.5,1.3,1,4-.3,6.7,1.7,2-.7.7-5-1.8-.8-.3-3.5,1.5-4.7,1.8,1.3,1.2-3.5,4.3,2.3,6.2,1.8.8,1.5,3.8.3-.6,3.3,1.7,3.3,3.9,1.2,2.4-.3,1.8-1.2,5.3.7,1.2.8,3.3-.2,3.4,3.2,4.3,1.8,4.5.9,5.5,1,4.7-1.3,4.6-2,1.8-2.3,1-2,3.5-.9,2.3.2,1.8,2.5.5,1.3,2.8-.7,3.4,1.1,4.4,2.6,2.1-2.3,1.8-1.8,1.8-.1-.1-2.9,1.9-4.4,3-3.5,1.2-4.3-1.8-2.3-1-.5,2.7-3.8,4.1-.5,4.1-.2,3.7-1.1,3.5,2,3.8,1.9.5-1,3.2,2.8,3.8,9.3,3.4,7.3v2.8l1.3,1.3,6.8,1.2,3.5,5.2,1.2-.3-.5,2.2,1.5,1.9v2.4l3.3,1.3,4.8-1.8,6.3-1.8,4.6-1.3-1.3,2.7-.5,3-1.5,1.7-.5,3.5-2.3,4.3-1.3,3.8-1.5,1.5.2,1.7-4.5-1.6-1.7.6-1.3,1.9-1.8.3,1.3,5-.7,4-.2,1.5-3.3,2.1,1.6,1.7.5-1.5,1.5.3,1.6-.9.8-2.1.3-1.4.5-.9.4,2.3,1.6-1,.8,1.3,2.4,1,1.9.8,2.3-1.5,2-.6,3-2.4,1.6-2.4,2.4-3.1h1s1.5-4.3,1.9-4.5,3.8-2.4,3.8-2.4l2.6-5,1.5-3,1.1-2.9,1.3-.9.8-2.4,2-2.4,1.6-2.3,1.5-2-.4-3.6,1.3-1.1-.1-3.3-.3-3.3,1.1-4.8.3-3,1.9-2,.9-1.8,1.1-.1.3,2.8,1.8,2.9-.1,4.3-.1,4.4.1,5.4-1.9,4.4,1.3.5.8,3.6-.9,2.3.1,4.1-1.1,2,.5,3.9,1.5,1.8.3-2.4.3-2.1,1.9-1.4a8.67,8.67,0,0,1,2,1.4c.2.4,1.8,2.3,1.8,2.3l.1-2.1-2-3.1-.9-2.1-2.5-2,.6-3,1-3.1.3-2.6,2.6-1.9h2.8l2.6,3.5,1.4-.6-1.8-2.1-2-3.4-1.6-4.8-.9-4.1-.6-3.3-.3-2.4-1.8-2.5.6-2.6.9.8-.5-5.8-.6-3.4-.8-1.9.4-1.1-.9-2.3-1.4.5-1.8.1,2.1,2-.1,2.1-2,1-1.9.9.8,2.3.5,1.6-.8,2.4-.4,1.5-.1,1.1h-1.4l-.6-1.5,1.3-.1-.8-2.6-.8-1,.8-.9.1-1.8-1.8-1.6-1.9-1.1-.9-1.4-2.3-1.9-.4-.9-1.8.9-2.6-1.4.1,2.9-.4,2.5-1.4-.3.5-2.6-1.9,1.3-.9,1.8h-2.5l2-2.08-.8-1,.9-2h-2.5l-1.1,2.1-.3-1.9.3-2.1-1.6-1.1-3.1.8-2-1.3.8-2.4,2.5-1.5,2.4-2,2.6-2.9,2.9-2.1,2-3.8,3.6-4.1,2.5-2.1v-3h2.1l1.9-4,3.9-3,3.1-2.9,4.3-.4,5.9-.3,2.5-1.5,1.9-.5.9.8,1.5-.3,1.4-1.5,2.5.9,1.6.6,2.4-.6,1.8.6,1,.6,2.1-.5-.9-1.3,1.1-1,.3-2.4,2.6.8,3.6,1.8,3.5.2,1.8,1s3.5,1.5,3,1.5h-5.2l-.3,2,2.5,1.2,2.8-1.5,2.5.5,2-2.2,2.8,1.5,1.5-2.2,4,.5-2.7-3h-2.2l-.2-4.2,1.2,1.2,1.7-4.7,3.3-2.2,1.8-3,3.2-2-.3-2.8,6.8-2,3.8-.8.8,1.2,3.2-1.3-.8,4.3-1,1.5.3,3.2,2.2-1-1.2,3.3,2.8-1.7,2.8-2.3,4.2-3.7,2-1.7,1.2,1,.2-3.5.2-4.5,2.2-1.5,4.7-1,2.3,2.5-4.3.8-.7,4.2-1.2,2.8.2,2.5-1,1.8-.5,2.8-2.7.2-3.5,2.2-.2,2.5-6.5,5.8-2.8,4-4,4.8-3.3,4.5-2.7.7-2.5-.3v3.2l-1.3,3-3.8,4-.7,8.8v6.2l1,6.5,2,7.7.3,4.7.7,4.8,1,2-1.8,1.5-2.2,1-2.8,2.2-.8,2v2l-1.2,1.8-1.5,2.2-2,2.3-1.3,3.3-2.3,1.5-1,2.5-1.3,2.5-2.5,1.2-1.8,2.3-3.7,2.8-3,.8-2.2,2.8-2.5,2h-2.2l-2.3-.5-1.3,2.3-3.5,2.7-1,1.3-1.7-.3-1.8,2-.5,1.8,1.2-1,2.2-1.2.7-.7,2-1.7v1.8l2.3-2.2,2-1.7,2-1.3,2.3-.8,2-1.8.8,1,1.3-2,2.3-1.5.5-1.2,4.8-3.2,1.5-.2,1.5-1.8.5-1,1.5-2.5,1.7-.8-.2-1.5.8-.8.7-.8,1.3-2,.7-1.5,2-.7-.3-1.2,1.7-1.5,1.3-1.2-.7-1,1-2.8,2.8-.7,1-2.8.8-.8,1.2-1.3,1.5-1,2.3-1.7,1.5-1.7,1.5-1.8,2.3-4.8-.5-3.7v-1h2.3l2.2-1.2,2.2.8-.3-4.5-.3-1.7,3.5-4.3,2.3-.2,1.3.5,2.3-1.8-1-3-.7-3,1.3-3.3.2-2,3.2-1.7-1,3.3,2,1.2,1.5-3-1-1.8v-2h-2.2l1-4.8,1-1.8-2.7-1.8-2.2,1.2.3-3.8,2.2-3.7,1.3-3.3.8-2.8.8-3,1.2-2.2,2.8-1.7s-.5,1.8,0,1.3a15.48,15.48,0,0,1,2.7-1.5l.2,2.3,4.2-3.5,2.2-.8-.7,4.5,1.3-.5,3.5-4.2,3.7-1,3.8-.7,3,2.2,2.3,3.3,3.2-4.7,3.7-3,7.2-7.3,4.7-3.3,6.5-2.3,5.2-3.3,6.5,1,2.2,2.2,1-3.8-.7-3.8-2.5-4.5-2-2.3.8-4.8-.3-1.3-4.7-.7.2-4,4.8,1,2.7-.8,3.3-2,3.8-4.2L968,265l-.7-2.7,3.7-.8,2.5-1.2-.8,3,1.5,4.2-2,1.2,5.2.3,2.5-1.2,3.2,1.5,2.5,3.8-.8.8,3.8,2.5,2.8-.5,1.5,2.8,1.7,2.7,3.7-1v-3.3l2.5-2.8,1.7-3.3-2.3-2.8,5.3,1.7,1.2-2,2-2,3.8-2.5-3.7-3.2-4.8-4.3-3.7-2.5-2.5.3-3.2-2.3h-3l.7,5.2-1.5-2-1.2-4-.7-4.5-3.5-2.2.5,2.3-3.2-2.7.2-2-4-2.3-6.2-4.2-.8-3-5.7-3-4.3-4.3-5.3-1.3-5-3.5-2.5-2.5-8.2.5h-6l-9-2-.3,4.3-1.3,1.7,3.8,3.3-.7,3.7-4.8,2.3-3-2.7-2.2-1-.3-4.2-2.3-2.5,3,1.3,2.7-1-.2-2.8-4.8-1.2v2.2l-1.7,1.7-3,1.3-.7,2.8-1.5-2-3.8-.3-4.8-.2-3.7-3.2-2.5,1.3-4,.3-2.5,2-3-1.2-4.2-2.5-2.7-.8,1.5-3,.5-2.8-1.7-4.2-2.7-3.8-5.7-1-6.3.3-10.2.5-3.7.2-2.8.2-.8-2.5-.7-3.8-3.8.2-2.8-2.7-2.3-1.7-3.8-.3,1.8-1.7,3.8.3-2.2-4.5-5.7-2.7-5.3.3L822,191l-3.3,3.3-3.3,1.3-.3-2.7,1.7-2.2,3-3.7-.3,5,3.2-6.8-3.7,1-3.2,1-3.7-1,.3-3,5.5.8,3-.7-4.3-1.7-4.8-.8-6.2-1.5-4.3-.2-3.5-1.2-.3,3.8-1.7,2h-4.3l-2.2,2.8h4.5l-2.8,3.7,3,6.2-4.5.8-2-1.8-3.3,2.5-2.3-2.3h-3.2l-5.7-1.2-4,4.5-3.7-2.5-3.8-5.2-3.3,8.2-.7,4.5-2.3,2.2-3.5-3.2-5.2-3.5-.7-4.5-.7-4.3,1.3-4,.8-7-.5-5-5.5-6.8-6.5.3-6.8-3.2-7-1.7-1,6,.7,5.5-3.7.5-9.3-.8-4.5-1.2-2.7.8-1.5-4.3,2.5-1-6.7-1.7-9-1.8-4.3,1.8-4.3.2-1-4.8-1.3-1.5-1.5,4.2-4.2-1.7-.3-3.3-3.8,1.8-3.2-.3-.7,4.8,3.2,1-6,4.2-8,1-4.2,1.5,1.3-3.8,6-4.8,2.3-.8,4.3-5.2,3.3-4.8,7-4.5,2.8,1.8-4.3,3.3,2.7,3.8,3.5-1.2,3-4.5-4-1.2-3.5-2.8,2.3-2.7,4-3.3,2-4.3,1-3-2.8-2.7,2.3-1.3.2-3.3-2.3-4.2-.7-2.8-2.7,1.8-1.5-6.3-5.7-3-7.8-.8-5.8,1.2-1.2,2.7h-7.2l5.5-5.5,1.5-3.7-8.2-1.3-4.3.8,4.2-5.5,2.5-3.2-5.3-2L635,96l-7.3,4.8-5.3,9.5,1.5,3.5,1.5,4.7-5.8-.7h-4.5l3,4.5-4.3.3-6.5,3.3-6,2,2.2-5.2-7,2s-9.3.7-8.8,1,5.5,2.5,5.5,2.5l-13,4.3-8.5,4.7-5,4.3-3.2-.2-.8,4.2-4,1.8,3.3,5.2s-3.3,2-2.8,2.7,7,6.2,7,6.2l-4.2,2-6,.8-6.3-.3-7,1.7-5.2,1.7-2,5.5,2.5,6.3-.7,3.7,4.7,3.8,2,1.3,1.7,3.7,2.5,1.8-.3,4.8.3,7.8-2.2-.8-2,1.2v-5.8l2.7-3.7.2-3-2.8-.7-2.2,1-4-3.5-5.8-5.2-4.5-1-4,2.8,1.8,2.8-2.3,1.7-3.2-2.5-3.3,1.8,4.7,7.2L527,200l-1.3,4-4.2-2.8-4-.5-5-2.3,1-6.3s.3-5.2.3-5.7v-6.7l-2.7-2.8v2.8l.7,4-1.7,4.7-6,3.5-.8,5.5,4.8,7.3.7,5-2.7,6-.2,6.7,2,6,5.8-2.2h5.2l4,4.5.8,6,1,2.2-2.2,3.2,2.2,1.7,1.8,1.7-2.7.8-3.5-2.2,1.3-5.3-1.2-4-2.7-5-8.5,3L508,238l3.3,5.5-3.5,3.3-1.5,2.8-2.2,4-4.7,3.5.2,3.7-4.7-1.8-5-.3,3.3-2.3,3.5-2,3.2-4.8.8-3.5,2.8-2.2.2-5.2,2.3-4.3-5.2-5-.2-7,1.2-6-1.7-4.2,2.3-.8-.5-9-3.3-5-.5-2.8,1.8-7.8,1-5.7-.8-3.2-4.8-1.3-4.5.2L492,174l4.7-.8-2.2-3.2-2.7-1.7-3.2,3.7,2.3,2.5-1.2,2.5-2.3-.8-1.5,2.7-.8,3.3-1.3,5.3-1,4.8-2.3,5-4.8,4,1.2,2.5-3,1.8,1.2,1.8,2.3-1v7l.5,2.7-2.7,1.8.8,4.5,1.7-1.5,3,2.2.7-.5v4l2.5,4,1.3.2-.8,4.3-1.7,3.8-2.2-3.2-2.3-3.2s-1.5-2.5-2-2.5-3.8-.7-3.8-.7l-5-3.2-3.8-3.8-4-1.8-5-1.2-4.5-.2-2.2.7-1.3-4.2-6.2-5-.3,3,1.2,3.7,2.8,2.7,3.5.5v1.3l.7,3.3,1.8,3.5-.5,3.5-3.3.8-.5,3.8-2.8-.5v-3.9l-1.3-2.7-3.5,2.7-3.5,1-.2,2-4-.5-4.5.8-2,4.2-4.2-.5s-4.8-.7-3-1,4.2-2.5,4.2-2.5v-3.7l-4.8-.2-3.3,2,.5,3.8-3.8-1.8-3.8,3.3L397,243l-2.3,3.5-2,5.7-2.8,2.5-5.8-1.7-1.8-4.2.7-4.2,2.7-.3,2.8-1.2-.8-2.7-1.5-1.8-1.8-2.7-5.7-.2-5.7-2,3.8,4.2.8,3.2-.8,4.3-1.5,3.3,2.3,2.8,1.3,2.8-.8,5,.3,5.7-3.8-4.5-4.3-1.8-1.7,2.3-4.2,3.2-4.5,2.8s-1.2,2-.8,2.5,2.3,5.8,2.3,5.8l2.2,3.2-2.5.7-4.5-2-5.3-1.3-4.3-3.2s-3.2,3.3-2.7,3.7,4.2,4.8,4.2,4.8l3-1,1.2,4.8-2.5.2-4.8-.3-4.2-3.7-3-1.8-2-4.7-.2-4.5.7-2.3.3-3.2-3.2-3-2.8-3-2.5-2.8-2.5.3v-3l.2-2.3,3.5,1.2,1.3,2.5,4,1.7,3.8,1.7,6.2,2.2,3.5,1.8,6.3,1.3,4.5-2.5,3.8-3.2,3.7-5.3-1-3.2-1.5-4-5-4.2-5-2.8-5.2-5.3-4.7-4.2-6.7-2.8-5.5-.2-3.8-1.2-2.7-3-3.3-.7-1.8,1.8-3.3-.7-1,2-2.8,1.7-1,3.3-1.5-.2-1.3,2.8v2.2l1.5,3.3,3.8,4,1.2,3.5,1.2.7-4.7,7.7,4.7,13.2-.8,1-.3,3.8.3,3.8,1.3,2.2.3,3.5,1.5,2.3-2.2,3.3,2,3.2,2.5,1,.7,3,1.2,1-.7,2.5-3.2,3-3,3-2.3,4-2,3.7-3.7,3-2.3,3.2,3.3-1.2.3,1.8,3.2,2.3,1.7-.2,2.2,2.5-3.8-.2-1.7.2-3,1.7-1.3,1.8.3,2.7-2.8,2.8,2,5.7,1.7,1.8.8,3.2.2,5-.2,3.3.7,1.8,6.2.7.8,1.8,3.5-.5,1.3,6.3,1.5,5,2.3,2.3.2,2,2.3,2-1.2,3.2-3.3-.2.7,2.7.8,3.8,2.8-.5,2.5-.2h3.2l2,2.7.7,5,3,.2,1.5,4,.7,1.7,3.5-.3,2.8,1.2,2.5-1.5,1.5,2,2.3,1,2.3,1.8,1.2-.2,1,1.3,2.7.2-.8,3-.5,1.7L362,407l-1.7,2.7-2.7.2-1.8,1.8-2.5,1.5.8,2h3.7l-4,2.7-3.7.7,3.2,3.8-2.5.3-2.2,2.8-2.2,1-1,1,2.7,1.5,1.5,2.3,5.3,2.2a17,17,0,0,1,1.8.8c.5.3.2,3.5.2,3.5Z"/><path id="path4125" class="cls-2" d="M966.85,197.28l-7.3,5,1,4.3,7.3-2,5.3.7,2-5.3-4.7-3.7Z"/><path id="path4127" class="cls-2" d="M805.85,173l-10.7-1.3-5-.7,4-3.7.7-4.3-4.7-2.3,1.7-4.7h4.3l-.7,6.3,1.7,1.3,2.7-1,4.7,1.7,2.7,4,.3,5Z"/><path id="path4129" class="cls-2" d="M788.85,144.28l-1.7,4-5.7-4.7v-6.7l-2.3-3.3,3.7-5.7,2.7-5,5.7,3,1,5.7,2,2,2.7-1.3-.3-5,3.3-1,6.3,4.7,2.3,1.7,5,1,2,1.7-3.3,4-1.7,4-4-2v-5.7l-5-2.3,2.3,6.3,1,3,3.3,1.3-3.3,2-4.3-.3-3.3.3-5.7,2-.7-3.3Z"/><path id="path4131" class="cls-2" d="M819.85,134.28l2,5.3,1.7,4.3,6.7,4,6,1,2.7-3.3-3.7-4.7-4.7-1-3.7-2Z"/><path id="path4133" class="cls-2" d="M599.85,9.08l-2.5,9.5-12,4.5-.5,8,4.5,7.5,2.5,3.5-5.5,2-6.5-2.5,3,8.5,5.5-1.5,4-3,1,2-5,7,5.5,4.5,2,5,5.5.5,3,5,8.5,1,5.5-4,6,2.5-4,9.5-1.5,9,5.5-2.5,11.5-.5,5.5-6,.5-6.5-6-6-4-3-1-5-4.5-1-1.5,7-.8,4-4.8-2-2-5.3.5-6,.8-5-1.3-5.5L614,42l-2.5,2L608,40.2l-1.5-1.5-8,1.8-4,2.8v3L592.2,44l.3-2.3,2.3-1.3,3-2.5,2.8-2.7h4.8l1.5-1.3-.8-4.8,2.8-4.5-1.5-5-3.8-1.8-1.5-8Z"/><path id="path4135" class="cls-2" d="M478.45,109l-5.7,3-7,6.3-7.3,5-5-1-6.7,3.3-5.7,4.7-6.3,5.7-1,5-7,1.7.3,6.3v5.3l-3.7,3-3,6.7,3,2-3.7,4-.7,3-4.3,5-2.7,3.7,2,4-2,4.7-4.3-.7,1.3,6,3.7,3.3,1.3-1.7,3.7,4-1,2.7.7,3,5.7,1.3,4.3,1.3,4.7-1,2,1.7,1-2.3-4-2.7-2.3-4.3-2.3-7-.3-5-.3-8.3,4-3.7,1.7-5.7,2.3-6,1.3-5,2.3,1,1-5.3,1.3-4.3,2.7-.7,2.7,1.3,1.3-4.7,2.3-5,2.3-.7,5-5.3,4.7-2.3h3.3l5.7-4.7,7.3-3.7,4.7-2.3,1-3,2-2.7-1.7-2,1-3.3-3.7-2.7-1.9-.9Z"/><path id="path4137" class="cls-2" d="M396.15,225l-3.7,3.7,1.3,4.7,6-1,3-4.7-3-2.7Z"/><path id="path4139" class="cls-2" d="M284.55,366.08l-4.1.1-3.6-1.3-3.9.1h-1.3l1.3-1.4-.8-1.4,2.8-.6.3,1.3,1.4-1.1-.4-2.3,1-.5-.4-1,1.9,1.3,2.8,1,3.5,1.1.3,2-.1,1.6Z"/><path id="path4141" class="cls-2" d="M463.55,5.58l-4,3.8-3.3,6.8,3,4.5,2.8-3,5.3-.5-2-5.8.5-5.5Z"/><path id="path4143" class="cls-2" d="M401.55,19.08l-1.8,4.3-4.5,2.8-2-4.8-10-.8-7,4.5s1,4,1.8,4,5.5,2.3,5.5,2.3l.5-6.8,3.3-1.5,4,2,2.5,1.5-5,1s-3,2-2,2a42.94,42.94,0,0,1,5,1l-1.5,2.8-5.3,2,3.3,4.5,3.8-1.3-.3,3.5,3.3-1.5s1.8-2.8,1.8-3.5-.3-3.2-.3-3.2l4.3.3,1.3-4.3,3.5-1.5,1.8-4-5.3.3s.8-3,1.5-3,3-1.5,3-1.5l-3,.3C403.55,20.38,401.55,19.08,401.55,19.08Z"/><path id="path4145" class="cls-2" d="M444.05,21.58l-1.3,4.8-1,7.8,7.5-.5s2.8-.3,2.3-1.8a65.81,65.81,0,0,0-3-6l3.3-2,1.3-3-4.3.5Z"/><path id="path4147" class="cls-2" d="M420.85,14.88s-.3,2.8.5,3,4,.8,4,.8l2.8,3.3,4,1.8,2.8.8-1.8-3.5-5.5-2.8-.3-1.5Z"/><path id="path4149" class="cls-2" d="M432.85.58l-2,2,4.3,3.3,3.3-1.8-2.8-2.5Z"/><path id="path4151" class="cls-2" d="M429.35,5.88l-.5,2s-5.8.8-5,1.3a36.56,36.56,0,0,0,4.8,1.5l3.3-1.8s3.5,1,3,.3-1.8-2.8-1.8-2.8Z"/><path id="path4153" class="cls-2" d="M428.85,33.58l-1.8,1.8s-.5,6.5.3,6.2,5,.3,4.8-.8a20.35,20.35,0,0,1-.3-3.3v-2.7Z"/><path id="path4155" class="cls-2" d="M433.85,31.58s.3,3,.5,4q.78,2.39,1.8,4.7l1.8-4.5,1.5-1-3.5-2.5Z"/><path id="path4157" class="cls-2" d="M427.85,14.38a19.64,19.64,0,0,0,2.8,3.3c.8.5,3.5,2,3.5,2l1.3-2-3.3-3.3Z"/><path id="path4159" class="cls-2" d="M446.35,14.58l.3,2.5,3.5,2,1.8-3.5-2.5-1Z"/><path id="path4161" class="cls-2" d="M414.85,33.88l-1.5,2.5s-5.3,2.7-1.5,3,7.3.5,7.3.5l-.5-3.5Z"/></g><g id="g7370"><path id="path4253" class="cls-1" d="M197.15,389.58l-2.5,1.3-2.3,1.2-1,3.3-.8,1.7-3.8,1.7-.2,2.2-1.5.5-3.2-.2h-1.3l-1.7-1.5h-2.2l.8,2.7.8,1.5.3,2.7-2.5.2-2.3-.2-2.2-1.5-2.3.2-2.8,1.5-2.7.3s-2.5,0-1.8.3,2.2,1,2.2,1l1.7,1-.8,1.2,2,1.3,1.7-.2,2.3,1.5,1,1,1.2-.2,1.8.2-.5,2.2,1.3,1.5.7,1.3,2.2,2,1.5,1.7-.2,1.2.5,2.2.5.8-1-.2-.5,2.5.3,3.2-.3,2.8-.3,1.8,1.3,1.7-.3,1.5,3.7,1.2,3.2.3,3-.2,2,.3,2,1.3,3.2.5h2.2l.7-2.2-.7-.7,1.3-1.8,1.2.2,2-1,1.7.8,2.2.8,1.7.3,2,.3,2.5-.3.5-1.3,2.2-1.2,1.3-1,2.5-1.7-1.4-1.4-1.4-.6-1.2-1-.1-2.9-.9-.8,1.6-2.5.2-3.4-.9-2.9-1.3-.7-1.9.7.8-2.7,2.5-3.6,2.4-1.4-.5-3.4.7-2.4,2.6-3.5-3.8-.7-3.2-1.2-2.2-.7h-1l-3.8-2.5-.3-2.2-2.2,1.3-1-2-1.5-2.2-2.3-.2-.8-1.3-1.2-.2-1.4-1.1Z"/><path id="path4255" class="cls-1" d="M225.35,441.08l-.5,1.7h-1l-1.3,1.3-.5,1.8.8,1.7,1.3,2,1,1.2,1-2.5.5-1.8-.5-3.2v-1.5Z"/></g><path id="path4301" class="cls-2" d="M25.2,169.19l.2,1.5,1.2,2.4-.5,2.5L24.9,174l-.8-1.8-1.8-.3-2.8-.3h-.8l.5,1.6,1.6,2.2v2.2l.5,2.5,2,.2.8,1.2-2.5-.3-.8.5.3,2.4-.5,2.6.1,3-.8,2-.9,2.9.7,2,.5,2.6.3,1.9-.5,2.6.3,1.8.8,1.8.7,2.2.5,1.5,2.4,1.9,1.2-.1,1.6.2-1.7.5.5.8-1.5.2,1.4,1.5,1.4,1.5-.4,1.4,1.8,2.6,1.9,1.6.2,1.9,1.6.8,2.2.7,1.7,1.5,1.5.9,1.6,1.2.9.7,1,2.2,5.8-.1,11.3,3.9h9.4l-.2-.9h4.5l1.8,1,1,1,2.6,1.8.9,3.3,2.6,1.4,1.6.7,2.2-2.6,2.8.3,1.2.9,3,4.9,1,1.2.8,2.8,6,2.4-.2-2-.2-2.8,1.9-2.2-.3-.7,1.9-1.6,1,.5,1.7-1.9,1-1.4h1.5l3.3-.7,2.4,1h1.8l.7-.8.8.5.1,1,2.4.8,2.2-.3,1.9.1-1.6-1.2-.1-.7,1-.5-.1-.5h-1.6l-1.8.3,1.2-1,.5-.7.5.5,3.3-.5.5.5h2.2l1.2-.3,1.8-.1,1.7.7,1-.1,1,1.5,2,.1,1.2-.9h1.2l2.2,1.9,1.2,1.4.3,1.8-.2,2.2.8,2.4,2.2,2.7,1.2,2.6.5,1,2.2-.5.5-2.5v-3.7l-1.2-3-.3-.8-.2-2.2-1.9-2.2-.3-2.7.1-2.2.9-2.5,1.7-1.4-.1-1,2-.3,2.9-3.3,1.4-1.2,1.5.2,1.4-2.6,1.9-1s1.5.2,1.6-.3a33.44,33.44,0,0,1,1.6-3.3l-1.6-.9.9-.8.2-.5-.9-2.2-.9-1,1.2-1.2-.9-1.2-.2-2.2-.1-1.9.7-.5.5,2.8.3,1.4.8,1.2-.2,2,1.2-2.5.8-1.9.1-1.2-1.2-1.4-.1-.5.3-.3,1.8,1.2.5-1.4,1.2-1.2.2-1.4-.2-1.6.1-.8.2-1.2.9,1.2h.5l1.4-.2,1.4-.1,1.8-.5-.3-.7-1.8.1-1.7.5-.8.5-.1-.8.5-.7,1.5-.3,1.8-.3,1.2-.3,1-.7,2.4.5s1,.5,1.2.2a7.81,7.81,0,0,0,.5-1.2l-.8-.9-.3-1.4.2-2.2.2-1.8,1-1.4.2-.5.7.3,2.2-2.4h.8l1.8-.2.5-1.2H187l1.4-1.2-.5-.6-1.2-1.6-.7-.5.3-3.8-.3-3.5-2-.6-1.8.6-.9-.1-3.9,9.1-1.8.1-.8.7-9.6-.1-2.4,2.2-1.5.9-.7,1.9-.3,1-1.7,1.2h-1.9l-1.2-.5-1.6.2-2,.7.1,1-.1,1.8-1,.9-2,.5-3.2,1.6-2.4.8-2.2.1-1.4-1,.7-1.2.3-.3.5-1.2.9-.5,1.1-1.9-1-1.5-.2-2.4-1.5-.5-1.9,1.4.7-1.6,1.2-1.6-.5-1.5-.3-1.7-1.8-.7-1.6-1.4-1.9.8.1,1.5-1.2,1.4-.9-.5-1.8,1.9v2.2l.2,2.2,1,1.6-.1,3.3-2.2,2-1.6.1-.8-2.4-.8-1.7.3-2.2-.3-2.2.8-1.5.5-1.5.8-2.5-1.8,2,1-3.5,1.6-1.4,1.9-.1,1.5-.7h4.3l1.2-.3,1.5.2.7,1.2,2.8,1,.5-1.6-1.9.2-1.2-.1-1.8-1.4-1.2-.7-1.3-.9-1.3.4-1.2-.9-2.9.1-1.6,1-1.2-.8-1.5-.8-2.2-.1,2.2-3-2.5,1.2-2,1.6-2,1.2-1.8.2-.2-1.2-3.7.8,3.1-2.7,2.2-1.6,2.7-2.2-1.2-.2-3.7.1-1.7-.3-1.6-.3-1.6-1.1-1.7.1-3.3-.8-.9-1-.5-1.6-.8-.7.1.9-.8,1.2-79.3.1-.1.6Z"/><path id="path3965" class="cls-1" d="M222.9,362.29l-.8-1.4.3-3.1-2.3-.3-.3-4.9.3-2.8,2-.4-.9-2.9,1.8-.9,2.8-.8,2.1-2.8,1.8-1.8,1.4-.1-.9,2.1.8,1-1,2.5-1.1.6,1,1.6-.3,3,2.8-.9-.6,2.4-3,.6s-.6,1-.5,1.4.3,2,.3,2l-1.3.3-.6.9,1.8.3,1.4-1.1,1,1.5,1.5.9-.1,1.9-2.4.9h-1.6l-.5-1.1-.3-2-.4-.5-.8.4-.3,1.3-.1,1,.3,1.3Z"/><path id="path3967" class="cls-1" d="M238.6,353.29l-2,.9-.4,2-1-1.5-1.6,1s-1,1.1-.5,1.5,1,2.6,1,2.6l1.4.3,1,1.4-1.3.4-2,.3.5,1.6,1.9.6.8-1.9.6-.8.6-1.4,1.6-.8-.6-1.6-.9-1.3.6-1.4,1-.1Z"/><path class="cls-5" d="M611.6,225.09h-2.2v2.4H607v-4.7h12.1v4.7h-2.4v-2.4h-2.4v19.7h-2.7v-19.7Z"/><path class="cls-5" d="M630.1,232.59v2.7h-5.3v6.8h6.7v2.7h-9.4v-22h9.1v2.7h-6.4v7.1Z"/><path class="cls-5" d="M645.6,226.09V234l-3.4,3.5H638v7.2h-2.7V222.8h6.9Zm-4.5,8.8,1.8-1.9v-5.7l-1.8-1.8h-3.2v9.4Z"/><path class="cls-5" d="M659.9,226.09V234l-3.4,3.5h-4.2v7.2h-2.7V222.8h6.9Zm-4.5,8.8,1.8-1.9v-5.7l-1.8-1.8h-3.2v9.4Z"/><path class="cls-5" d="M663.9,244.79v-22h2.7v7.8l-.4,9.2h.1l2.1-9.1,2.5-7.9h3.7v22h-2.7v-10.6l.5-7.9h-.1l-2,7.7-3.4,10.8Z"/><path class="cls-5" d="M680.9,225.09H677v-2.4h10.5v2.4h-3.9v19.7h-2.7v-19.7Z"/><path class="cls-5" d="M701,241.39l-3.3,3.5h-4.2l-3.3-3.5v-15.5l3.3-3.3h4.2l3.3,3.3Zm-2.6-1.1v-13.4l-1.8-1.8h-2l-1.8,1.8v13.4l1.8,1.9h1.9Z"/><path class="cls-5" d="M715.6,226.09V234l-3.4,3.5H708v7.2h-2.7V222.8h6.9Zm-4.5,8.8,1.8-1.9v-5.7l-1.8-1.8h-3.2v9.4Z"/><path class="cls-5" d="M719.5,244.79v-22h2.7v7.8l-.4,9.2h.1l2.1-9.1,2.5-7.9h3.7v22h-2.7v-10.6l.5-7.9h-.1l-2,7.7-3.4,10.8Z"/><path class="cls-5" d="M741.4,237.39H739l-3.4,7.4h-2.9l3.9-8.5-2.4-2.6V226l3.4-3.4h6.5v22h-2.7Zm0-11.9h-2.7l-1.8,1.8v5.4l1.8,2h2.7Z"/><path class="cls-5" d="M627.3,285.09l-5.3,5.7h-6.8l-5.3-5.7V260l5.3-5.3h6.7l5.3,5.3v25.1Zm-4.3-1.7v-21.7l-2.8-2.8H617l-2.8,2.8v21.7l2.9,3.1h3.2Z"/><path class="cls-5" d="M638.7,255.29v31.3h7.5v-3.8h4.4v7.9H634.5V261l1.8-1.1v-.4h-4.4v-4.2Z"/><path class="cls-5" d="M653.2,259.59v-4.3h13.9l5.3,5.3v24.7l-5.3,5.3H655.8v-29.7l1.8-1.1v-.4h-4.4Zm12,26.8,2.8-2.8v-21.2l-2.8-2.7H660v26.7Z"/><path class="cls-5" d="M676.8,255.29h13l5.3,5.3v8.7l-2.6,3.2L696,276v9.4l-5.3,5.3H679.4V261.1l1.8-1.1v-.4h-4.4v-4.3Zm11.4,15.3,2.5-2.9v-5.2l-2.7-2.7h-4.2v10.8Zm-4.5,15.7h5.2l2.7-2.7v-5.7l-3.1-2.9h-4.9v11.3Z"/><path class="cls-5" d="M719.2,285.09l-5.3,5.7h-6.8l-5.3-5.7V260l5.3-5.3h6.7l5.3,5.3v25.1Zm-4.3-1.7v-21.7l-2.8-2.8h-3.2l-2.8,2.8v21.7l2.9,3.1h3.2Z"/><path class="cls-5" d="M734.5,272.39l2.9-9.5,2.7-7.7h4.6l-8.1,22.4v13.2h-4.4v-13.2l-6.2-17.1,1.5-.9v-.4h-4.7v-4h5.9l2.7,7.8,2.8,9.4Z"/><rect class="cls-6" x="606.6" y="212.89" width="137.8" height="2.7"/><rect class="cls-6" x="610.1" y="298.89" width="137.8" height="2.7"/><polygon points="319.1 220.29 325.8 220.29 323.1 221.99 325.9 223.69 319.1 223.69 319.1 220.29"/><rect x="319.1" y="220.39" width="0.6" height="9.2"/><polygon points="761 294.59 767.8 294.59 765.1 296.29 767.8 297.99 761 297.99 761 294.59"/><rect x="761" y="294.69" width="0.6" height="9.2"/><polygon points="872.4 365.79 879.2 365.79 876.5 367.39 879.2 369.19 872.4 369.19 872.4 365.79"/><rect x="872.4" y="365.89" width="0.6" height="9.2"/><polygon points="758.1 426.59 764.9 426.59 762.2 428.29 764.9 430.09 758.1 430.09 758.1 426.59"/><rect x="758.1" y="426.69" width="0.6" height="9.2"/><polygon points="580.4 191.09 587.2 191.09 584.4 192.79 587.2 194.49 580.4 194.49 580.4 191.09"/><rect x="580.4" y="191.19" width="0.6" height="9.2"/><polygon points="580.4 346.59 587.2 346.59 584.4 348.29 587.2 349.99 580.4 349.99 580.4 346.59"/><rect x="580.4" y="346.69" width="0.6" height="9.2"/><polygon points="384.8 431.69 391.5 431.69 388.8 433.39 391.6 435.09 384.8 435.09 384.8 431.69"/><rect x="384.8" y="431.79" width="0.6" height="9.2"/><polygon points="378.7 424.59 385.4 424.59 382.7 426.29 385.5 428.09 378.7 428.09 378.7 424.59"/><rect x="378.7" y="424.79" width="0.6" height="9.2"/><polygon points="368.3 424.69 375 424.69 372.3 426.39 375.1 428.09 368.3 428.09 368.3 424.69"/><rect x="368.3" y="424.79" width="0.6" height="9.2"/><polygon points="523 427.39 529.8 427.39 527.1 429.09 529.8 430.79 523 430.79 523 427.39"/><rect x="523" y="427.49" width="0.6" height="9.2"/><polygon points="476.2 439.29 483 439.29 480.2 440.99 483 442.69 476.2 442.69 476.2 439.29"/><rect x="476.2" y="439.39" width="0.6" height="9.2"/><polygon points="462 424.69 468.7 424.69 466 426.39 468.8 428.09 462 428.09 462 424.69"/><rect x="462" y="424.79" width="0.6" height="9.2"/><polygon points="563.9 263.79 570.7 263.79 568 265.39 570.7 267.19 563.9 267.19 563.9 263.79"/><rect x="563.9" y="263.89" width="0.6" height="9.2"/><polygon points="547.1 262.49 553.8 262.49 551.1 264.19 553.9 265.99 547.1 265.99 547.1 262.49"/><rect x="547.1" y="262.59" width="0.6" height="9.2"/><polygon points="529.9 293.89 536.7 293.89 534 295.59 536.7 297.39 529.9 297.39 529.9 293.89"/><rect x="529.9" y="293.99" width="0.6" height="9.2"/><polygon points="506.6 294.69 513.3 294.69 510.6 296.39 513.4 298.09 506.6 298.09 506.6 294.69"/><rect x="506.6" y="294.79" width="0.6" height="9.2"/><polygon points="406.5 282.39 413.3 282.39 410.5 284.09 413.3 285.79 406.5 285.79 406.5 282.39"/><rect x="406.5" y="282.49" width="0.6" height="9.2"/><polygon points="422.8 291.69 429.5 291.69 426.8 293.39 429.6 295.19 422.8 295.19 422.8 291.69"/><rect x="422.8" y="291.79" width="0.6" height="9.2"/><polygon points="394.8 299.29 401.5 299.29 398.8 300.99 401.6 302.79 394.8 302.79 394.8 299.29"/><rect x="394.8" y="299.49" width="0.6" height="9.2"/><polygon points="357.1 341.59 363.8 341.59 361.1 343.29 363.9 344.99 357.1 344.99 357.1 341.59"/><rect x="357.1" y="341.69" width="0.6" height="9.2"/><polygon points="279.8 355.19 286.5 355.19 283.8 356.89 286.6 358.69 279.8 358.69 279.8 355.19"/><rect x="279.8" y="355.29" width="0.6" height="9.2"/><polygon points="169.6 452.89 176.4 452.89 173.7 454.49 176.4 456.29 169.6 456.29 169.6 452.89"/><rect x="169.6" y="452.99" width="0.6" height="9.2"/><polygon points="414.3 317.49 421.1 317.49 418.4 319.19 421.1 320.89 414.3 320.89 414.3 317.49"/><rect x="414.3" y="317.59" width="0.6" height="9.2"/><polygon points="433.8 310.29 440.6 310.29 437.9 311.99 440.6 313.69 433.8 313.69 433.8 310.29"/><rect x="433.8" y="310.39" width="0.6" height="9.2"/><polygon points="396.5 342.99 403.2 342.99 400.5 344.69 403.3 346.39 396.5 346.39 396.5 342.99"/><rect x="396.5" y="343.09" width="0.6" height="9.2"/><polygon points="374.7 312.89 381.5 312.89 378.8 314.59 381.6 316.39 374.7 316.39 374.7 312.89"/><rect x="374.7" y="312.99" width="0.6" height="9.2"/><polygon points="389.1 325.49 395.8 325.49 393.1 327.19 395.9 328.89 389.1 328.89 389.1 325.49"/><rect x="389.1" y="325.59" width="0.6" height="9.2"/><polygon points="422.8 336.99 429.5 336.99 426.8 338.69 429.6 340.49 422.8 340.49 422.8 336.99"/><rect x="422.8" y="337.19" width="0.6" height="9.2"/><polygon points="409.9 302.29 416.7 302.29 413.9 303.89 416.7 305.69 409.9 305.69 409.9 302.29"/><rect x="409.9" y="302.39" width="0.6" height="9.2"/><polygon points="448 288.79 454.7 288.79 452 290.49 454.8 292.19 448 292.19 448 288.79"/><rect x="448" y="288.89" width="0.6" height="9.2"/><polygon points="454.8 320.39 461.5 320.39 458.8 322.09 461.6 323.89 454.8 323.89 454.8 320.39"/><rect x="454.8" y="320.49" width="0.6" height="9.2"/><polygon points="477.4 375.79 484.2 375.79 481.5 377.49 484.2 379.19 477.4 379.19 477.4 375.79"/><rect x="477.4" y="375.89" width="0.6" height="9.2"/><polygon points="503.8 355.29 510.5 355.29 507.8 356.99 510.6 358.69 503.8 358.69 503.8 355.29"/><rect x="503.8" y="355.39" width="0.6" height="9.2"/><polygon points="377.3 359.59 384 359.59 381.3 361.29 384.1 362.99 377.3 362.99 377.3 359.59"/><rect x="377.3" y="359.69" width="0.6" height="9.2"/><polygon points="462 341.79 468.8 341.79 466 343.49 468.8 345.29 462 345.29 462 341.79"/><rect x="462" y="341.99" width="0.6" height="9.2"/><polygon points="360.5 358.69 367.2 358.69 364.5 360.39 367.3 362.19 360.5 362.19 360.5 358.69"/><rect x="360.5" y="358.79" width="0.6" height="9.2"/><polygon points="319.1 314.49 325.8 314.49 323.1 316.19 325.9 317.99 319.1 317.99 319.1 314.49"/><rect x="319.1" y="314.59" width="0.6" height="9.2"/><polygon points="374.7 340.59 381.5 340.59 378.8 342.29 381.6 343.99 374.7 343.99 374.7 340.59"/><rect x="374.7" y="340.69" width="0.6" height="9.2"/><polygon points="360.3 414.09 367.1 414.09 364.4 415.79 367.1 417.49 360.3 417.49 360.3 414.09"/><rect x="360.3" y="414.19" width="0.6" height="9.2"/><polygon points="377.8 406.89 384.5 406.89 381.8 408.59 384.6 410.29 377.8 410.29 377.8 406.89"/><rect x="377.8" y="406.99" width="0.6" height="9.2"/><polygon points="393.7 374.59 400.4 374.59 397.7 376.29 400.5 377.99 393.7 377.99 393.7 374.59"/><rect x="393.7" y="374.69" width="0.6" height="9.2"/><polygon points="356.8 381.09 363.5 381.09 360.8 382.79 363.6 384.59 356.8 384.59 356.8 381.09"/><rect x="356.8" y="381.29" width="0.6" height="9.2"/><polygon points="345 369.89 351.8 369.89 349 371.59 351.8 373.29 345 373.29 345 369.89"/><rect x="345" y="369.99" width="0.6" height="9.2"/><polygon points="461.9 342.29 468.7 342.29 465.9 343.89 468.7 345.69 461.9 345.69 461.9 342.29"/><rect x="461.9" y="342.39" width="0.6" height="9.2"/><polygon points="334.1 351.29 340.9 351.29 338.2 352.89 340.9 354.69 334.1 354.69 334.1 351.29"/><rect x="334.1" y="351.39" width="0.6" height="9.2"/><polygon points="326.8 334.09 333.5 334.09 330.8 335.79 333.6 337.49 326.8 337.49 326.8 334.09"/><rect x="326.8" y="334.19" width="0.6" height="9.2"/><polygon points="348.4 325.09 355.2 325.09 352.4 326.79 355.2 328.49 348.4 328.49 348.4 325.09"/><rect x="348.4" y="325.19" width="0.6" height="9.2"/><polygon points="356.8 305.79 363.5 305.79 360.8 307.39 363.6 309.19 356.8 309.19 356.8 305.79"/><rect x="356.8" y="305.89" width="0.6" height="9.2"/><polygon points="337.7 302.79 344.4 302.79 341.7 304.49 344.5 306.19 337.7 306.19 337.7 302.79"/><rect x="337.7" y="302.89" width="0.6" height="9.2"/><polygon points="373.8 287.09 380.6 287.09 377.9 288.79 380.7 290.49 373.8 290.49 373.8 287.09"/><rect x="373.8" y="287.19" width="0.6" height="9.2"/><polygon points="420 363.39 426.7 363.39 424 365.09 426.8 366.79 420 366.79 420 363.39"/><rect x="420" y="363.49" width="0.6" height="9.2"/><polygon points="519.4 251.19 526.2 251.19 523.5 252.89 526.2 254.59 519.4 254.59 519.4 251.19"/><rect x="519.4" y="251.29" width="0.6" height="9.2"/><polygon points="432.7 412.49 439.5 412.49 436.8 414.19 439.6 415.89 432.7 415.89 432.7 412.49"/><rect x="432.7" y="412.59" width="0.6" height="9.2"/><polygon points="412.6 427.89 419.4 427.89 416.7 429.59 419.4 431.39 412.6 431.39 412.6 427.89"/><rect x="412.6" y="428.09" width="0.6" height="9.2"/><polygon points="409.2 402.79 416 402.79 413.3 404.49 416 406.29 409.2 406.29 409.2 402.79"/><rect x="409.2" y="402.99" width="0.6" height="9.2"/><polygon points="767.8 425.39 774.5 425.39 771.8 427.09 774.6 428.79 767.8 428.79 767.8 425.39"/><rect x="767.8" y="425.49" width="0.6" height="9.2"/><polygon points="439.3 348.29 446 348.29 443.3 349.99 446.1 351.69 439.3 351.69 439.3 348.29"/><rect x="439.3" y="348.39" width="0.6" height="9.2"/><polygon points="439.3 366.89 446 366.89 443.3 368.59 446.1 370.39 439.3 370.39 439.3 366.89"/><rect x="439.3" y="367.09" width="0.6" height="9.2"/><polygon points="30.7 210.79 35.3 210.79 33.5 211.89 35.3 213.19 30.7 213.19 30.7 210.79"/><rect x="30.7" y="210.89" width="0.4" height="6.2"/><polygon points="315.7 403.09 322.4 403.09 319.7 404.79 322.5 406.59 315.7 406.59 315.7 403.09"/><rect x="315.7" y="403.29" width="0.6" height="9.2"/><polygon points="343.4 387.69 350.1 387.69 347.4 389.39 350.2 391.19 343.4 391.19 343.4 387.69"/><rect x="343.4" y="387.89" width="0.6" height="9.2"/><polygon points="333.6 418.89 340.3 418.89 337.6 420.59 340.4 422.39 333.6 422.39 333.6 418.89"/><rect x="333.6" y="419.09" width="0.6" height="9.2"/><polygon points="330.2 476.59 336.9 476.59 334.2 478.29 337 480.09 330.2 480.09 330.2 476.59"/><rect x="330.2" y="476.79" width="0.6" height="9.2"/><path d="M42.7,129.59l-2.9,3.1H36.1l-2.9-3.1v-13.5l2.9-2.9h3.7l2.9,2.9Zm-2.3-.9V117l-1.5-1.5H37.2L35.7,117v11.7l1.6,1.7H39Z"/><path d="M48.8,113.39v16.9h4.1v-2h2.3v4.3H46.5v-16l1-.6v-.2H45.2v-2.3Z"/><path d="M56.8,115.79v-2.3h7.5l2.9,2.9v13.3l-2.9,2.9H58.2v-16l1-.6v-.2Zm6.5,14.4,1.5-1.5v-11.4l-1.5-1.5H60.5v14.4Z"/><path d="M69.6,113.39h7l2.9,2.9V121l-1.4,1.7,1.9,1.9v5.1l-2.9,2.9H71v-16l1-.6v-.2H69.7Zm6.1,8.3,1.4-1.6v-2.8l-1.5-1.5H73.3v5.9Zm-2.4,8.5h2.8l1.5-1.5v-3.1L76,124H73.3Z"/><path d="M92.5,129.49l-2.9,3.1H85.9l-2.9-3.1V116l2.9-2.9h3.7l2.9,2.9Zm-2.3-.9v-11.7l-1.5-1.5H87l-1.5,1.5v11.7l1.6,1.7h1.7Z"/><path d="M100.7,122.59l1.5-5.1,1.4-4.1h2.5l-4.4,12.1v7.1H99.4v-7.1l-3.4-9.2.8-.5v-.2H94.3v-2.2h3.2l1.5,4.2,1.5,5.1Z"/><path d="M112.3,132.49v-2.1h2.1v-14.1l1-.6v-.2h-2.8v-2.1h6v2.1h-1.8v14.9h2.1v2.1Z"/><path d="M120.1,113.39h4.5l2.2,6.8,2.1,8h.1l-.5-8.1v-6.7h2.3v19.1h-2.5l-3-9.4-1.7-6.3h-.1l.3,6.5v9.2h-2.3v-16l1-.6v-.2h-2.3Z"/><path d="M141.5,113.29v15.3l1.5,1.6h1.5l1.5-1.6v-15.3h2.3v16.2l-2.7,3.1H142l-2.8-3.1v-13.3l1-.6v-.2h-2.3v-2.1Z"/><path d="M153,132.39h-2.3V130H153Z"/><path d="M157.6,128.59l1.5,1.6h1.7l1.5-1.6v-3l-6.9-4.8V116l2.7-2.9h3.6l2.7,2.9v2.9h-2.3v-2l-1.4-1.5h-1.6l-1.4,1.5v2.7l6.9,4.8v5.2l-2.8,3h-3.7l-2.8-3v-3.5h2.3Z"/><path d="M169.1,132.39h-2.3V130h2.3Z"/><path d="M171.9,113.19h6l2.9,19.1h-2.3l-.7-5h-4l-.7,5h-2.3l2.3-16,1-.6v-.2h-2Zm4,2.3h-.5L174,125h3.3Z"/><polygon points="276.4 428.19 283.1 428.19 280.4 429.89 283.2 431.69 276.4 431.69 276.4 428.19"/><rect x="276.4" y="428.39" width="0.6" height="9.2"/><polygon points="306.85 365.44 313.65 365.44 310.95 367.04 313.65 368.84 306.85 368.84 306.85 365.44"/><rect x="306.85" y="365.54" width="0.6" height="9.2"/><polygon points="369.9 435.81 376.6 435.81 373.9 437.51 376.7 439.21 369.9 439.21 369.9 435.81"/><rect x="369.9" y="435.91" width="0.6" height="9.2"/><polygon class="cls-7" points="8.18 87.59 8.18 293.89 138.8 293.89 193.93 240.08 193.93 87.59 8.18 87.59"/><rect class="cls-7" x="187.03" y="81.24" width="14.35" height="14.35"/><rect class="cls-7" x="1" y="80.41" width="14.35" height="14.35"/><rect class="cls-7" x="1" y="286.71" width="14.35" height="14.35"/></svg>