<?xml version="1.0" encoding="utf-8"?>
<!-- Generator: Adobe Illustrator 21.0.0, SVG Export Plug-In . SVG Version: 6.00 Build 0)  -->
<svg version="1.1" id="svg3667" xmlns="http://www.w3.org/2000/svg" xmlns:xlink="http://www.w3.org/1999/xlink" x="0px" y="0px"
	 viewBox="0 0 1013.3 543.2" style="enable-background:new 0 0 1013.3 543.2;" xml:space="preserve">
<style type="text/css">
	.st0{fill:#E9D2A8;stroke:#FFFFFF;}
	.st1{fill:#D89F4C;stroke:#FFFFFF;}
	.st2{fill:#B9B9B9;stroke:#FFFFFF;}
	.st3{fill:#D4A455;stroke:#FFFFFF;}
	.st4{fill:none;stroke:#C99E52;stroke-width:2;}
</style>
<title>Монтажная область 1</title>
<path id="path3791" class="st0" d="M480.8,542.6l-2.7-1l-1.7-2.7l-2-4h-2l-4.3,0.3h-2.7l-4-0.7l-5.7,1l-3,0.3l-0.3-1.7l0.7-4.3
	l2.7-1.7l2.3-2l1-1.3l-1.3-0.3l-0.3-3l-2.7-3.3l-5-5.7l4.7,2.3h3.3l2.7-0.3l4.7,0.3l5-2l2.3-0.3l2.7-8l3.3-0.3l2.7-2h2.3l0.7,1.3
	l3-7.3l3-0.7l-0.7-5.3l4.7-0.3v-2l1.7-3l0.3-3.7l-0.3-3l3.7-1.7l4.7-2l3.3,1.3l2.2-1.2l3.5,0.2l4.5,5.5l3.2,0.7l2,1.8l-2.7,0.4
	l0.5,1.8l-6.4,2.8l-4.3-0.1l-2.4-1.1l-1.3,1.8l0.2,3.9l0.8,3.5l3,1.5l0.8,1.3l0.8,1.9l-1.6,1.3l-1.7,0.6l0.1,3.1l-2.3,2.1v2.1
	l-3.4,2.8l-1,2.7l-3.7,3.3l-1.3,2.2l-4.3,1.5l-1.8-1.7l-2.3,2.2l-1.5,3.7l2.7,2.3l0.2,3.3l2.2,0.7l1.3,3.7l-0.2,2.3l-2.2,1.2
	l-1.7-0.5l-6,0.2L480.8,542.6z"/>
<path id="path3793" class="st0" d="M450.7,513.5l-0.2-2l2.3-3.3l0.3-3.7l-2.8-0.7l-0.8-5.7l-1.2-2.5l0.7-2.3l-1-1l0.3-2.8l1.3-3.2
	l1.5-4.2l2,0.8l2.3,0.3l0.7,1l2.3-0.8l1.3-3.3l4.8-1.5l1.7-3.2l1-2l2.2-0.2l2.3-0.5l2.2,0.2l2.7,0.3l3,0.8l4.3-0.2l1.2,0.2l2-2
	l2-0.5l2.5-4l1.8,0.2l0.7,2.3l0.8,0.2l0.7,2.8l-0.2,2.3l1.7,0.3l3.5-2.2l2.2-1.2l2-0.3l1.2,1.2l3.2-0.8l0.8,0.2l-0.3,2.2l-2.2,1.2
	l-3.3-1.3l-8.3,3.7l0.3,3l-0.3,3l-1.7,3.7v2l-4.7,0.3l0.7,5.3l-3,0.7l-2.8,6.3l-0.8-0.3h-2.3l-2.2,1.7l-3.8,0.7l-2.7,8l-2.8,0.5
	l-4.5,1.8l-4.7-0.3l-6,0.3L450.7,513.5z"/>
<path id="path3795" class="st0" d="M479.7,474.1l1.7-3l0.2-2l-0.2-4.5l-1.7-1.2l-0.7-0.7l-0.2-1.2l3.7-0.3l0.5-2.7l1.5-3.3l1.5,0.5
	l0.2-1.7l1.2,0.3l3.7-1.8l0.5,2l-1,1.2l1.2,1.2l-2,0.3l-2.3,0.5l-0.8,1l-2-0.2l0.3,1.5h1.7l1.7,0.3l1.5,0.8h3.7l2-0.7l0.8,0.2
	l1.5,1.3l3-0.8l1.5-0.7l2.8,0.8l0.2,1.5l0.8,2.3l0.2,1l2.2-0.2l2,2l0.3,3.2l-1,0.8l-3,1l-1.8-1l-2,0.3l-5.7,3.3l-1.7-0.3l0.3-1.8
	l-0.8-3.3l-0.8-0.2l-0.6-2.1l-2.1-0.4l-2.5,4.3l-1.8,0.3l-2,2h-1.6l-3.2,0.3L479.7,474.1L479.7,474.1z"/>
<path id="path3797" class="st0" d="M492,457l4.2-0.1l2.1-1.3l2.3-1.6l1.3-1.3l-2.4-1.4l-1.6,0.7l-1.3-0.1l-1.5-1.9l-2.6,0.9l-2.6-1
	l0.3-0.8l2.4-1.1l1.6-1.4l0.8-0.6l-1.1-1.4l1.6-1.9l2.9,0.1h3.4l3.2,1.4l0.8-0.9l-0.3-2.9l2-1.3l1.9,0.1l1.7,1.2l3.1,0.9l3.2-0.4
	l2.5-0.3l3.6-0.1l2.4-0.5l2,0.4l1.7,2.2l1.5,1.8l2.1-0.1l0.4,1.2l-1.4,2.1l-2.5,0.8l-3.1,1.8l-3.2,2.1l-3.9,0.4l-4.2,3.8l-2.3-1
	l-3.3,2.1l-3.8,1.7l-0.6,2.2l-3.1-0.8l-4.3,1.5l-1.9-1.5l-0.9-0.1l-1.8,0.7l-3.3-0.1l-1.9-0.7l-3-0.5l-0.6-1.3l1.9,0.1l1-1.2
	l3.9-0.7L492,457L492,457z"/>
<path id="path3799" class="st0" d="M419.3,472.8l-0.9-5.3l-0.3-1.8l1.3-2l-1.6-0.6l-1-1.4l0.8-2.6l-3-0.3l0.3,1.3l-1.4-1.1l0.3-3
	l0.8-1.6l2,0.3l2.5,0.4l2.4-0.3l1.1-1.6l-0.1-1l-2.3-1.6l-1.4-1.8l-0.9-1.9l-2.5,0.8l-0.8,1.3l-0.3,2.8l-1.5-2.4l0.8-2.9l2.1-1.5
	l3.6-0.8l2.5,0.3l2.1,1.1l1.4,2.5l1.5,1.4l2.9,0.3l2.5,0.1l1.4,0.1l-0.3-3.9l3-0.8l1-1.3l0.8-0.5l0.6-0.9l1.8-0.1l1.8,1.6l0.8,1.3
	l1.4,0.5l1.4,2l1.1,1.9l1,1.1l4.4,0.1l1.9,1.6l1.3,2l0.6,1.5l1.6,2.9l1.1,1.6l2.5,2.1l3,1.5l2.8,2.1l2.5,1.8l2.4,0.8l2.8,0.5
	l-0.6,3.6l-2.2-0.2l-3.3,0.5l-1.3,0.2l-3,5l-4.5,1.6l-1.3,3.3l-2.3,0.8l-0.7-1l-1.7,0.1l-2.7-1.3l-0.7-5.8l-3.3-0.1l-1.6-2.4
	l-1.8-0.3l-1.5-2.5l-1.4-0.3l-1.1,0.4l-2.3-0.3l-0.8-1.3l-1.8-0.3l-0.8-1.6l-3.6-0.1l-2.1,0.9l-2.3-0.3l-2.9,1.5l-0.6,2.3
	L419.3,472.8L419.3,472.8z"/>
<path id="path3801" class="st0" d="M429.5,448.9l-0.6-22l10.8-2.3l-0.9,3.1l-1.1,3.6l0.3,1.9l0.6,3.3l3,0.5l1.6-0.1l1.3,1.8l1.8-1
	l0.5-0.9l1.3,0.1l0.5-2.4l1,0.3l3.8,2.9l4.8-0.4l3.3,1.3l3.5-0.6l2.9,2.8l1,5.1l1,2.4l-0.3,1.6l-1.8,1.4l2.3,1.6l5.1,0.5l3,0.8
	l1.1,1.4l2.4,0.9l1-2l1.1-3.1l2.1-2.5l3-0.4l3.3-1.6l1,0.8l-2.8,1.9l-0.3,0.8l2.6,1l2.6-0.9l1.5,1.9l1.3,0.1l1.6-0.7l2.4,1.4l-5.2,4
	l-5.4,0.2l-0.8-1.1l1-1.2l-0.5-2l-3.7,1.8l-1.6-0.7v1.9l-1.6-0.3l-1.1,3.3l-0.5,2.7l-3.7,0.3l0.4,1.9l1.8,1.3l0.4,6.4l-1.7,3l-3-0.8
	l-2.7-0.3l0.6-3.6l-5.1-1.3l-5.3-3.9l-3-1.5l-2.5-2.1l-3.4-6l-1.3-2l-1.9-1.6l-4.4-0.1l-3.3-4.6l-1.3-0.8l-2.1-2.6l-1.1-0.5
	l-1.4,0.3l-1.4,1.4l-1,1.3l-3,0.8l0.3,3.9l-3.9-0.3L429.5,448.9z"/>
<path id="path3803" class="st1" d="M429.3,449.3l-2.5,0.1l-1.5-1.4l-1.4-2.5l-2.6-1.5l-2.7,0.3l-1.7,0.2l-1.7,0.8l-1.8,1.1l-0.6,1.9
	l-1-0.8l0.3-1.7l0.8-2.3v-1l-3-0.2l-1-1.7h-1.5l-0.3-1.7l-0.8-2.2l-1.3-2.5l-1.8-0.5l-0.7-2.7l2.5,0.5l3,0.5l-0.8-1.8l2.5-3.5
	l0.5,2.3l1-2h3.2l0.7,1.3l3-0.7l-1.5,1.8l-1,2.2l0.3,1.2l1.5-1.5l1.7-2.2l3.5,0.2l-0.5-3l-1.5-1.5l-2-1.2l-0.7-2.3l-2.3-3l-2-2.5h-4
	l-4.2-0.3l-2.8,1.7l-2.8,0.8l-1.7,1.7l-1,2l-1.7,1.5l0.3-2.5l2-2.7l-1.2-2l-3.2-2.7l-1-1.2l-3-3l-1.7-2.8l0.3-2.3l1.2-4.3l1-6.5
	l5.2,3.7l0.8-2.5l-0.8-2.3l1.5-2l0.3-2.5l2.8-0.3l3.8-2.2l0.5-1.7l3,1l-0.5,2.2l2.2-1.5l2.3,0.2l2.7-0.8l2.8,0.8l3.3,3.3l0.7,3.3
	l1.2-1.8l1.5-0.3l2.2,1.5l2.2,0.3l2.2-2.5h3.5l1.8,1.2l3.8-1l1.5,2.5l2.8,1.5l2.8-1.7l2.8,1.3l4.2-5l-2-1.3l-3.8-0.7l-0.3-2
	l-1.8-1.2l3.8-1.7v-4l-0.5-0.8l2-0.3l4,0.5l-2.2-3.5l-1.2-1.5l2.3-1.2l-2.7-1.3l1.2-2.7l2.8,0.7l6.8-1l3.2-0.7l3,0.3l4-3.7l7.2-0.7
	l2.5-1.2l3.5-3.5l2.7,1l2.7,0.3l1.8,0.5l0.8,2.7l1.3,2.3l-0.5,3.2l2.2,1.7l0.7-1.7l3.2,0.5l0.2,1.5l2.3-0.8l0.5,1l0.3,2.5h4l1.8,0.3
	l1.8-2.3l2-0.3l2.5-4.7l3-0.2l-1.5,2.7l5.3,6.5l5.8,5.8l3.5,7l1.3,3.7l3.3-3.8l1.8,1l0.8,1.5l1.8,2.2l3.3-0.2l3-1l2.7,0.3l1.7,3.8
	l1.2,1.8l2.5-0.2l2.2,3l2.3-0.3l2.5-1.3l1.3,2.5l-0.7,1.5l-0.3,3.3l-2.5,1.2l-2.8,0.7v5.5l-0.8,3.5l-3.7,1l-2.3-0.8l-3-0.3l-2.5,3.8
	l-2.2,5.2l1.3,3.5l-1.3,1.2l-4.5-0.5l-5.3,1.5l1.8,2.5l-1.2,1.8l1,2.7v3.7l-0.7,2l-0.2,2.3l-2.9,0.1l-2.9-3.6l-1.7-0.8l-1,0.2l-10,1
	l-1.8-0.2l-2.5-0.5l-1.7-1.2l-1.9-0.1l-2,1.3l0.1,2.4l-0.7,1.4l-2.8-1.2l-2.3,0.2l-4.3-0.4l-1.6,1.9l1.1,1.4l-1.9,1.3l-1-0.8
	l-2.5,1.3l-3.8,0.7l-2.1,2.5l-2.1,5.1l-2.4-0.9l-1.1-1.4l-4-0.9l-3.7-0.2L467,451l1.8-1.4l0.3-1.6l-1-2.4l-1-5.1l-2.9-2.8l-3.5,0.6
	l-3.3-1.3l-4.8,0.4l-3.8-2.9l1.7-0.8l-1.2-3.2l2.3-0.3l1.2-1.8l-1.3-0.8l-1.8-3.3l0.3-2.8l1.3-2.5l-0.7-1.3l-1.5,0.5l-0.2,1.2
	l-1.8-1.2v1.2l-1.8-1.2l-0.2,2.5l2.5,0.7l-2.7,0.7l-1.8-0.8l-0.2,2.5h-1.5l-1.3-0.5l-1.1,1.3l-10.8,2.3L429.3,449.3L429.3,449.3z"/>
<path id="path3805" class="st0" d="M452.8,536l-1.8,0.7l-4.3-1.8l-4.8,0.5l-6.8-2l-1.8-0.5l-1-5.3l-3-0.8l-1.3,1.3l-3.3,1.3l1.3-2
	l-5,2.3l-3.3-2.5l-4.8-1l-2.5-3.5l-4-0.3l-0.5-4l-2-3l-1.8-3l-2.3-0.5l-0.3,1l-2.5-2l-1.5,0.3l-2.5-2v-3.3l-2-1.8l1-3.5l-4-4
	l-3.3-0.5l-2.2-6.5l0.5-3.8l2-2.3v-4.1l-2-0.5l-2.2-2v-2.5l-2.3-3l-1.3-3.8v-3l-0.5-3l1.5-3l2.5,0.3l2.5,1.5l1.3,1.3l1.5,1.8l2,0.3
	l1.8-1.8l2-1.8l1.3-1l1.8,1.5l-1.3,1.3l1.8,1.3l-1.8,2l1.8,1.3l1.5,1.8v2.3l1,2.3l2,0.5l1.5-0.5l2.3,1.3l-0.3,1.5l2.3,1l4.5,1.3
	l3.5-0.8l3-1l1.5,1l1.3-0.8l-0.5-3.6l3.5-0.6l0.6-2.3l2.9-1.5l2.3,0.3l2.1-0.9l3.6,0.1l0.8,1.6l1.8,0.3l0.8,1.3l3.4-0.1l1.4,0.3
	l1.5,2.5l1.8,0.3l1.6,2.4l3.3,0.1l0.7,5.8l-2.8,7.3l-0.3,2.8l1,1l-0.7,2.3l1,3.3l1,4.9l2.3,0.8l0.3,3.5l-2,4.5l0.5,2.3l3.5,3.4
	l2.7,3.3l0.3,3l0.3,1.7l-3.6,2.6l-2,2.5l-0.1,2.9L452.8,536z"/>
<path id="path3807_3_" class="st1" d="M388.8,463.3l-2.8-4.5l-0.7-2l-0.7-1.8l-1.3-0.5l-2.5-2l-0.3-2.5l4.5,1.7l1.3-1.5l-1.5-1.3
	l-1.2-2.2l1.2-0.3l3.8,1l2.7,2.5l1.8,0.7l2-2.2l3,3.2l1.3,2.7l3.2,1.7l-3.2,2.7l-0.7,3.3l-0.5,2l-1.7,0.5l0.5,4.1l-3.3-3l1.6-2.4
	l-1.2-0.8l0.8-1.3l-1.3-1.3L388.8,463.3"/>
<path id="path3809_1_" class="st0" d="M388.4,463.3l-0.3,0.7l-1.6-0.5l-1.5-1.8l-2.1-1.6l-1.7-1.2l-1.3-0.2l-1.1,0.2l0,0l-1.7-1.6
	l-2-0.5v-2.7l-0.3-2l-1.5-2l7.3-0.2l0.3,2.5l2.5,2l1.3,0.5l1.3,3.8l0,0"/>
<path id="path3811" class="st1" d="M373.3,450.1l-2-0.5l-0.7-2l-3.2,1.3l-1.8-0.5l-0.7-3.8l-1.3-2.3l-3.3-1l-2-1.8l-1.5-1.7l3.7-0.2
	h4.2l3.7,2l3.3,1l2.7,0.3l2.7,2.2l2.2-0.2l3.3,0.3l1.8,2.8l-0.5,0.5l1.2,2.2l1.5,1.3l-1.3,1.5l-4-1.5l-1.3-0.5L373.3,450.1
	L373.3,450.1z"/>
<path id="path3813" class="st0" d="M379.3,472.5l-2.2,0.3l-1.7-0.5l-2.8,0.8h-2.2l-3,2.7l-2,2.2l-0.3,4l-0.3,3.5l-0.8,2.2l-10.3,7
	l0.5,1.2l0.2,4.2l0.8,0.2l0.2,0.8l7.7,0.8l16.7,13.8l6.8,0.3l5-4.3l4.6-0.5l-2.5-2l0.1-2.8l-2.1-2.2l1-3.5l-4-4l-3.3-0.5l-2.2-6.5
	l0.5-3.8l2-2.3l-0.4-3.8l-1.6-0.7l-2.2-2v-2.5L379.3,472.5L379.3,472.5z"/>
<path id="path3815" class="st0" d="M367.5,473.1l-1.3,1.5l-4-0.3l-5.7,2l-3.7-1.5l-4.8,1.5l-1.7-1.5l-1.7,0.8v2.5l-3.3,3.2l-1.5,2.2
	l0.8,0.2l0.5,4.2h2l0.5,1.8l-1.8,1.3l-0.3,2l-0.8,1l-0.3,3.2l1.8,1.2l0.7,1.3l2.2-0.2l3-1.3l16-10.5l0.8-2.2l0.3-7l4.8-4.8l-1.3-0.5
	L367.5,473.1L367.5,473.1z"/>
<path id="path3817" class="st0" d="M387.2,515.6l3.8,0.5l2,2l1-0.5l1.3-2.3l0.7-1.5l-1.8-1.2l1.5-0.3l1.9-1.4l-6.1,0.8L387.2,515.6z
	"/>
<path id="path3819" class="st0" d="M340.7,494l-2.2-0.5l0.7-2.3l1-1.7l1-1.7h1.5l1,1.8l-1.8,1.3l-0.3,2L340.7,494z"/>
<path id="path3821" class="st0" d="M340.3,497.1l-0.5,1.5l-1.7-0.2l-0.2,2.2l-0.3,2.5l1.2,0.8l-0.7,2.8l-0.7,7.5l6,2.2l2.3-3.3
	l2-0.5l1.7-1.7v-1l1.2-0.2V509l-3.8-3.5v-1.2l8.7-3.2l-0.3-1.2l-0.8-0.2l-0.2-4.2l-0.5-1.2l-8.7,4.8l-2.2,0.2l-0.6-1L340.3,497.1z"
	/>
<path id="path3837" class="st0" d="M337.1,514.9l-0.8-4.8l-1.8-4.2l0.6-1.1l0.3-1.8l0.1-2.5l1.3-0.9l0.2-2.4l0.8-1.8l0.8-2l2,0.8
	l-0.3,3.3l-0.3,1.2l-1.7,0.1l-0.7,4.5l1.1,0.8l-0.5,2.4l-0.7,8.2L337.1,514.9z"/>
<path id="path3839" class="st0" d="M366,449l-2.5,2.6l-1,0.1l-3.1,1.4l-1.5-0.4l-2.5-0.3l-3.4,1.1l-2.4-0.4l-2.4-0.6l-0.5,0.4
	l-2.9-1.5l-1.6-0.4l-0.8-1.9l-2.8-0.3l-1.4-1.8l-3,0.4l-7.9,0.1l-1.9,2.1l-2.5,1.3l-0.6,1.8l-3.4-0.1l-5.8-0.5l-0.9,0.3l-2.8-1.5
	l-2.4-1.8l0.1-2.3l-3.8-0.5l-1.9,1.3l-0.3,2.5l-1.1,2.6l-1.5,1.1l0.4,1.3l3.1,0.1l1.5,0.1l2-2.5l2.5,0.3l2.4-0.3l1.4-0.1l0.8,1
	l0.9,0.9l0.8,0.4l-3,0.5l1,1.6l-2.1-0.3l-2.9-0.1l-1.8-0.8h-3.3l-2,0.4l-0.6,1.4l0.6,2.3l-0.5,1.5l2.1,0.1l0.9-0.1l-0.4,2.3l0.9,1.4
	v1.8l-0.8,0.8l-1.3-1.1l-0.6,1.1l0.4,1.3l1.6,0.3l2,1l-1.3,1.4l1.5,0.6l0.5,1.6l-0.8,1l2.1,0.4l2-0.1l-1.8,1.5l1.4,1.1l0.6-0.9
	l1.8-0.5l0.9,1.1l1.9,1.5l2.3,0.6l3.5-0.4l0.4-2.5h2.3l2.8,1.1l1.9,1.5l0.9,0.9h5.1l2.1-1.4l2.3-2.1h2l0.5,1l2-0.3l1.5-2l0.4,1.5
	l-1.1,1.5l0.3,2.8l3.3-3.2v-2.5l1.7-0.8l1.7,1.5l4.8-1.5l3.4,1.5l5.6-1.9l4.3,0.3l1.3-1.5l2.1,0.3l1.5-0.4l1.9,0.1l2.9-0.9l1.3,0.5
	l2.2-0.3l-1.6-3.8l0.1-3.8l-0.5-3l1.5-3l-1.7-1.6l-2-0.5l-0.3-4.7l-1.5-2l-2-0.5l-0.7-2l-3.2,1.3L366,449z"/>
<path id="path3841" class="st1" d="M324.9,486.3l1.9-1.2h1.8l1.3-0.9h2l3.1-1.9l0.4,1l-2.7,2l-0.1,1.3l0.3,1l-1.6,0.4l-1.9-0.1
	l-1.2,0.4l-1.1,0.5l-1.3-0.2l-0.4-1.3L324.9,486.3z"/>
<path id="path3881" class="st1" d="M324,381.1l-3.9,1.1l-1.8,3.4l-0.3,2.5l-2.5-1.3l-2.3-0.5l-1.6-0.6l-1.4,0.8l-5.3-0.8l-2.8-0.8
	h-2.9l-6.4-0.6l-3.3,1.6l-1.3,0.9l1.3,3.4l0.8,2.9l-0.6,2l-2.9,1.9l-1.8,2.4l-0.5,1.6l-2,0.4l-0.8,4.8l2.5,3.8l1.5-1l3.3,0.9l3,0.4
	l1.5,0.8l2.4-1.3l2.3-0.3l3-1.6l2-1.1l1.6-0.6l2.9,1.4l3.1,0.8l1.5,1.5l1.1,3l1.4,2l0.1,4.3l-1.9,1l-1.4,0.4L311,423l-1.3,0.9
	l-2.1,0.1v1.5l1.8,1.6l1.8-0.9l1.5-0.3l1.6-0.5l2.5-1.1l0.3-1.8l0.1-1.4l3-1l2.9-0.8l1.1-0.3v2.6l1.4,1.3l2.5-0.4l2.1,0.5l0.8,0.4
	l-1.6,1.3l-2.5,1.4l0.1,0.8l2.4,1.4l0.9,0.4v3.3l1,1.5l3.8-1.3l2.4-1.6l1.8-1.4l2.4-0.3l1-0.9l-2-0.4l-2.5-0.3h-1.5l-0.4-1.3
	l-1.1-1.7l-1.3-0.6l-1-1h1.9l2.3-0.5l2.3-2l3-0.9l2.3-0.6l2.4-1.1l2.3-1.8l3.5-0.1l-0.8-2l2.8-1.5l1.6-1.8h2.3l2-2.8l-1.7-3l1-4.6
	l-2.3-0.6l-1-1.3l-1.2,0.2l-2.3-1.8l-2.3-1l-1.5-2L347,395l-2.8-1.2l-3.5,0.3l-2.5-5.8l-3-0.2l-0.7-5l-2-2.7L324,381.1z"/>
<path id="path3883" class="st0" d="M302.1,407.5l0.6,1.1l1.3,2.1l1.9,1.6l1.5,3l0.5,2.8l-0.1,4.9v0.6l2.1-0.1l1.3-0.9l0.6-2.4
	l3.3-1.4l-0.1-4.3l-1.4-2l-1.1-3L311,408l-2.8-0.8l-3.3-1.4L302.1,407.5z"/>
<path id="path3885" class="st0" d="M284.1,410.3l-0.5,1.6l-2.4,1.1l-1.1,1.1l-0.8,1.9l-1,3l-2,1.6l-3,0.6l1.5,2.6l1.9,2.3l1.5,0.8
	l0.5,1.5l1.8,2.3l2,0.5l1.5-0.4l-0.4,1.8l1,1.6l0.5,1.4l5.8,0.8h3.8l1.9,0.3l4.5-1.6l1.6-1.3l2.5,0.9l0.8,0.3h1.1l0.8,1.3l1.4,0.3
	l1.1-4.1l0.4-2l0.8,1.5l1.9-1.1l0.6-2.1l-0.3-2.6l-1.3,0.3l-1.6,0.1l-1.3,0.6l-1.8-1.6v-7.8l-0.8-2.3l-1.1-2.8l-1.9-1.6l-1.9-3.3
	l-3.9,1.9l-2.3,0.3l-2.4,1.3l-1.5-0.8l-4.1-0.5l-2.1-0.8L284.1,410.3z"/>
<path id="path3887" class="st0" d="M301.3,447.5l-1.9-0.4l-0.4,2l-1.9,0.9l-3.1-0.1l-2.4-1l-1.6-0.4l-2.5,1.4h-1.6l-0.3-3.5l-2-1.3
	l-0.5-1l0.5-3.8l1.4-1.1l-1.4-3l0.4-2.6l1,1.9l2.8,0.4l5.1,0.4h1.6l1.9,0.3l3-0.9l1.5-0.8l1.6-1.3l2.9,1.3l1.5-0.1l0.8,1.3l1.4,0.3
	l0.1,2.9l-2.1,0.1l-0.6,0.6l-0.1,3l-1.5,1l-0.8,1.1l1.8,0.1l0.6,1.9l-2.9-0.5L301.3,447.5z"/>
<g id="g7374">
	<path id="path3889" class="st0" d="M285,450.6l-2.8,0.8l-1.1-0.3l-1.3,1.5l-3.3,0.4l-0.6,3l-1.5,2.3l-0.3,1.3l-4,0.5l1.5,2.9
		l0.9-1.6l1.1,2l1.4,0.8l0.4,1.5l-1.3,0.9l1.8,0.3l0.9,1.6l2.1-0.1l3.8,0.1l1.9,1.4h-1.9l-2.4-1l-2.5,0.4l-1.6,1.4l-1.1-1.4
		l-1.3-1.3l-0.6,1.5l1.3,1.1h0.6l-0.5,1.5l1.5,0.3l0.6-0.8l0.3-0.8l1.4,1.8l0.3,1.4l0.4,1.4l0.8,1.9l0.4-1.6l1.9,1.1l0.5,2
		c0,0,0.9-2,1.3-1.5s1.8,2.3,1.8,1.8s-0.5-3.5-0.5-3.5l-1.9-2.1l1.6-0.6l1.1,1l1.1-0.8l-1.5-1.5l1.9-0.4l2.3,1.4l0.4-2.5l1-1.4
		l-0.6-1.5l-1.3-0.9l-2.5-0.5l-1.1-1l-0.1,1.5l-1.4-0.8l0.8-1.4l-0.1-1.8l-0.4-1.8l-0.9-1.5l0.6-3.8l1.4,0.8l0.8,2.3l1.6,0.6l1-2.1
		l-0.5-2l1.8,0.4l1.9-1.6l0.9,1l1.1-1.4l2.1,1.1l2-0.1l1.5-1.1l1.1-2.6l0.3-2.5l-1.4-0.6l-0.4,2l-1.9,0.9l-3.1-0.1l-2.4-1l-1.6-0.4
		l-2,1.5l-2.1-0.1L285,450.6z"/>
	<path id="path3891" class="st0" d="M286.9,483.8l1.9,1.3h2l1.6,1.3h2.3l2.9-0.1l2.4-1.1l1.9-1.1l1.6,0.1l0.6-1.4l1.5-1.8l1.1,0.5
		l1.3-2.1l-1.1-0.9L305,480l-0.4,1.3l-1,1l-1.6,0.5l-0.9,1.1l-1.8,0.9l-1.3,0.5l-1.1-0.6l-1.9-0.5l-1.9-0.1l-1.1-0.4l-1.3-0.8
		l-1.4,0.5l-2.1-0.4L286.9,483.8z"/>
</g>
<path id="path3893" class="st2" d="M297.2,462.8l1,1.1l1.3,0.8l1.1-1.1l-1.4-1.4L297.2,462.8z"/>
<path id="path3895" class="st2" d="M297.2,466.5l-0.3,2.4l2,0.5l0.6-1.6l-1-1.5L297.2,466.5z"/>
<path id="path3897" class="st2" d="M293.7,458.8l-0.4,1.8h1.8l0.8-1.3L293.7,458.8z"/>
<path id="path3899" class="st0" d="M276.6,453l-1.8-2.2l0.3-3l1-1.2l0.5-1.5l2.2-0.2l2-1.5l1.5,0.7h0.9l1.1,1.3l1.4,0.9l0.3,3.5
	l-1,0.8l-2.3,0.5h-1.6l-1.8,1.7L276.6,453z"/>
<path id="path3901" class="st0" d="M270.8,459.5v-1l-1.2-1.7l-0.3-3.7l0.2-2.2l0.2-1.2l0.3-1.7l-0.3-0.5l0.5-4.7h2.5l1.3,1.2
	l1.3,1.2l-0.2,2.5l-0.2,2l0.3,1.7l1.3,1.5l-0.6,1.8v1.2l-1.1,2l-0.6,1.5L270.8,459.5z"/>
<path id="path3903" class="st1" d="M269.7,448.1l-1.3-1.1l-2-1.6l-0.5-2.6l0.5-2.5l1.8-1.6l1-1.6l0.5-0.5l1.3,1.1l2.3,2.1l-1.1,3
	l-1.9-0.3L269.7,448.1z"/>
<path id="path3905" class="st1" d="M270.3,435.9l-0.6-3l-0.4-3.3l-0.1-2.6l0.3-1.5l-1.4-2.6l2.4-1.4l2.8,0.1l2.9,4l2.1,1.3l1.1,2.1
	l1.1,1.6l2,0.5l1.5-0.4l-0.4,1.8l0.6,1.5l-0.5,2.3l1.4,3l-1.4,2l-0.5,2.9l-1.4-0.1l-1.4-0.5l-1.6,1.5l-2.2,0.2l-1.5,2.4l0.1-2.2
	l-1.5-1.5l-1.8-1l1.1-3l-2.3-2.1l-1.3-1.1L270.3,435.9L270.3,435.9z"/>
<path id="path3907" class="st0" d="M263,441.3l-1.4,0.5v-2l-1.6-2.9l-2.9-1.9l-1-2.8l-1.1-2.3l-0.8-1.6l0.5-1.4l2.1,0.9l1-0.9
	l3.3,0.6l1.3,0.8l1.8-0.5l1.6,0.4l2,1.6l1.6-0.3l0.4,3.6l0.6,2.6l-1.1,1.1l-1.3,2.1l-1.5,1.1l-0.5,2.5l-1.3-0.1L263,441.3z"/>
<path id="path3909" class="st0" d="M251.6,425.4l-3.1-0.3l-2.9,0.3l-1,1.3l-1,1l2.3,2.5l0.1-2.3l1-0.6l2,1.5l0.6,1.4l1.1,0.4
	c0,0-1.9,1.4-1.5,1.5c0.7,0.4,1.4,0.8,2,1.3l-0.4,1l-0.1,0.8l1.5,1.6l1.5,1.1l0.6,1.5l1.8-0.8l1.6,0.3l1.3,1l0.4,1.5l0.9,0.4
	l1.3,0.8l1.3,0.9l1.4,1l1.4,1l1,0.1l-1-2.3l-0.8-0.5l-1.8-1.4l-1,0.6l-0.4-2.1l-1.6-2.9l-2.9-1.9l-2.9-6.6l0.5-1.4l2.1,0.9l1-0.9
	l3.8,0.9l0.8,0.5l1.8-0.5l1.3,0.3l2.4,1.8l1.6-0.3l-0.1-2.6l0.3-1.5l-1.4-2.6h-5.8l-3.9-3.4l-1.8-0.8l-1.9,1.6l-1,1.3l-1.9,2.9
	L251.6,425.4z"/>
<path id="path3911" class="st0" d="M261,409.1l-1.1,0.3l-0.5,2.3l-1.8,0.4l-1,3l-1,1.6l1.1,2.1l1.8,0.4l3.9,3.8h5.8l2.4-1.4l2.8,0.1
	l3.1-1l2-1.6l1.8-4.9l1.3-1.5l2.3-1.1l0.8-1.6l-2.5-3.8l-1.5,0.3l-5-0.4l-1.8,1.3l-1.6,0.8l-3.5,0.6l-1.3,2l-2.5,0.3l-2.9-0.1
	L261,409.1z"/>
<path id="path3913" class="st0" d="M245.1,425.1l-0.4-1.8l-1-2.1l0.8-2.5l2.1,0.4l2.1,0.4l2.9-1.3l1.6-1.1l2.4-0.5l1.1,2.1l-1.9,1.6
	l-2.9,4.1l-0.4,0.9l-2.5-0.1l-2.9,0.1L245.1,425.1z"/>
<path id="path3915" class="st0" d="M259.8,409.4l-1-0.9l0.4-1.8l-0.3-1.4l-0.3-1.4l1-1l3-0.4l2.9-1.9l0.9-1.3l0.1-1.5l1.8,2.1
	l2.1-0.9l1.8,1.4l1.9-0.3h1.4l2.3-0.4l1.4-0.6l1.8,1.3l1.8,1.4l-0.8,4.1l-1.5,0.3l-2.8-0.4h-2.3l-1.8,1.3l-1.6,0.8l-3.5,0.6l-1.3,2
	l-5.4,0.1l-0.8-1.3L259.8,409.4z"/>
<path id="path3917" class="st1" d="M288.7,386.8l-0.4-1.8l0.5-3l-1.6-0.9l0.6-2l1.5-1.8l0.1-3.3l-1.3-4.1l3.3-0.8l0.6-1.6l3.1-1.9
	h1.1l1-4.1l4-3l-0.4-2.4l1.4-1.3l1.8-0.9l2.5,0.1l1.1-2l1-1l0.6,0.9l5.4,0.5l1.1,1.8l3.5-0.5l1.3,6.3l1.5,5l2.3,2.3l0.2,2l2,2.1
	l-0.9,3l-3.3-0.2l1.5,6.5l-3.9,1.1l-1.8,3.4l-0.3,2.5l-2.1-1.1l-2.6-0.6l-1.6-0.6l-1.4,0.8l-5.3-0.8l-2.4-0.8l-2.8,0.1l-7.1-0.8
	L288.7,386.8L288.7,386.8z"/>
<path id="path3919" class="st0" d="M306.5,337.9l-1.4,1.6l-2.4-0.4l-2.3,0.5l-4.5-3.4l-4,0.9l-0.9,0.1v-2.5h-1l-0.6,1.6l-1.5-1.9
	l-1.1-1.9l-1.4,0.6l-0.4,1.6l-2,1.1l-1.3,0.5l-0.6,1.5l-0.8-1.6l-0.6-1.8l0.8-1.4h1.6l0.4-1.3l-0.8-1.3l-1.5-0.3l0.9-0.8l2.4-0.9
	l1.1,1.3l-1.3,1.8l-0.1,0.9l1.3-0.1l1.3-0.1l0.9-0.9l-0.4-1.4l-0.9-0.5l1.4-1.6l1.4-1.5l1.8-0.4l2.3-1.9l0.8,0.6l2.9,0.1l1.4-0.9
	l1.9,0.8l2.6,0.5l2.3,0.4l2.2-0.3l0.3,2.7l-2.8,2.8l2.3,5.8L306.5,337.9z"/>
<path id="path3921" class="st0" d="M289.5,346.4l-3.3,0.3l-1.1-2.6l-1.8-2.1l-1-1.5l-3.9,1.9l-0.9,2.5l-0.3,2.4l-1.1,2.3v3.3l4-2.5
	l9.9-0.4l1.9,0.4l1.5-0.5l1.6,1.8l3,1l3,3.8l1.4-1.3l1.8-0.9l2.5,0.1l1.1-2l1-1l-0.5-1.1v-8.4l-0.8-3.2l-0.9-0.8l-0.9,1.6l-2.9-0.4
	l-2.3,0.5l-4.5-3.4l-4.9,1l-0.4,6l-0.4,2.6L289.5,346.4z"/>
<path id="path3923" class="st0" d="M275.8,354l0.6,2l0.4,2.1l1.1,0.5l1.5,1l2.6,1l2.8,0.5l0.4,2.4l-0.1,1.6l1.9,1.4l0.9,1.8l0.4,1.8
	l3.3-0.8l0.6-1.6l3.1-1.9h1.1l1-4.1l4-3l-0.4-2.4l-3-3.8l-3-1l-1.6-1.8l-1.5,0.5l-1.9-0.4l-9.4,0.5l-4.5,2.4L275.8,354z"/>
<path id="path3925" class="st0" d="M265.8,396.3l-3.1-0.6l0.9-1.8l-0.8-0.9l-1.4,0.8l-2.5-0.4l-0.5,1.4l-1.6-1.5l0.3-1.1l-3.1-0.1
	l-2-0.4l-0.8-1.3l-0.9-0.8l0.1-2.9l-1-2.3l-0.5-4.9l-0.3-1.3l-1.3-1.8l0.1-1.6l0.1-1.3l-1.5-2.6v-0.8l0.8-1l1.5,0.6l-0.5,1.1
	l0.4,0.9l-0.2-0.9l0.8-2.1l2.5-1l3.1-0.9l1.9-1.8l2.6-1.3l3.9-0.5l2.3-0.3l1.5,1.4h-1.4l0.9,1.3l2.1,1l0.9,0.1l2.6-2h2.6l2.5-0.1
	l3.6,1.3l3.8,0.1l1-0.9l1.8,1l0.9,1.8l0.4,1.8l1.3,4.1l-0.1,3.3l-1.5,1.8l-0.6,2l1.5,1.3l-0.4,2.3l0.4,2.1l-0.6,0.6l1.9,4.4l0.4,1.9
	L290,395l-2.5,1.8l-2.1,2.5l-0.5,1.6l-2.4,0.6l-2.6-2.1h-1.1l-1.8,0.8l-1.9-0.1l-2.6,0.5l-1.8-1.4l-2.1,0.9l-1.8-2.1L265.8,396.3z"
	/>
<path id="path3927" class="st0" d="M257,404.3l-1.1-0.1l-1.5-0.9l-3.5-0.5l-0.3,1.8l-2.1,1.1l-2.8-1l-5-4.8l-1-1.8l0.1-1.8l-1.1-2.4
	l2.6-0.3l2.6-1.5l2.1-1.3l1.3-0.1l0.4-1.8l0.9,0.1l1.4,1.6l0.4-1.3l1.1,1.4l0.5,0.6l5.1,0.5l-0.3,1.1l1.6,1.5l0.5-1.4l2.5,0.4
	l1.4-0.8l0.8,0.9l-0.5,1.9l2.8,0.5l0.8,1.8l-0.1,1.5l-0.9,1.3l-2.9,1.9l-3,0.4l-1,1L257,404.3z"/>
<path id="path3929" class="st0" d="M244.6,405.9l-3,2.8l0.5,2.1l-0.6,1l-3-0.3l-2.6,1.1l-1.3-0.3l-0.8,1l-1.9-0.8l-2,0.3l-1.1,0.3
	h-1.4v1.6l0.8,0.6l1.1,0.5l0.9-0.1l1.4,0.6l-0.1,0.8h1.8l2-0.6l1.6-0.5l1.1-0.9l1.3,0.1l0.9,1v1.3l1.8,0.1l2,0.5l1.1,0.6l3.8,0.8
	l3.3-1.5l1.3-0.9l2-0.4l1.4-1.8l1-3l1.8-0.4l0.5-2.3l-1-0.9l0.4-1.8l-0.5-2.8l-1.8,0.3l-1.1-0.1l-1.5-0.9l-3.5-0.5l-0.3,1.8
	l-1.6,1.1l-2.3-0.6L244.6,405.9z"/>
<g id="g7393">
	<path id="path3931" class="st0" d="M252.6,458.5l-1.3,0.3l-1.6-0.9l-0.5-1.8l-0.9-1.1l-1.5,0.6l-1-1.5l-0.1-1.4l-1.5-1l-2.8-0.1
		l-2.3-1.3l-2-2.3l-1.5-1.3l-1.6-1.3l-1.4-1.6l-2.4-2v-3.5l-0.8-1.5l-0.9-1.4l-1-1.1l-0.9,0.3l-1.4-1.1l-1.8-0.3l-1.8,0.5l-0.9,1.8
		l-1.4-0.6l-0.1-1.4l-1.8-0.1l-1.4-0.8l-0.4-3.4l-0.8-1.1l1.5-2.1l-0.3-3.5l3.4-1.3h0.9l1.3-1.9l1.4,1.8l1.1,1.5l0.9-1.1l-0.4-1.6
		h3.1l1.3-0.1l2.1-2l0.4-0.9h2l2.4-0.9l1.1-0.9h1.6l0.9,1v1.3l1.8,0.1l2,0.5l1.1,0.6l-1.3,2.5l1.1,2.5l0.3,1.4h-1.4l-2.4,0.1l-1,0.8
		l-0.6,0.5h-1.8l0.6,1.1l0.1,1.4l-0.6,1.6v1.4l0.6,2l1.6,1.4l1.9,1.3l1.3,0.1l0.8,1.8l0.3,2.4l1,1.6l0.8,1.9l2.5,1.9
		c0,0,2,1.1,2.4,1.4c1,0.4,2,0.6,3.1,0.8l-0.4,1.4l0.9,1.4l2.8,0.9l2.5,1.4l2.3,1.1l1.4,1.1l1.4,1.6l0.4,1.3l-0.9,1.5l-1.5-1.3
		l-1.4-1.3l-1.1-0.5L259,456l-1.3,0.9l-0.9,2.1l-0.6,1.1l1.8,1.5l1,0.8l-0.4,2.3l-1.3,0.6l-1.1,0.8l0.3,2.1l-0.4,1.4l-1.3,0.6
		l-1.6,0.5l-0.6-1.4l-1.3,0.4l0.1,1.3l-0.8,1.6v1.8l0.4,1.5l-0.9,1.1l-2.1,0.5l-1.5-2.4h-2.1l-1-1.3l-1.5-0.3l-0.6-1l-2.3-0.1
		l-0.5-1.9v-1.2l2-0.1l1.5-0.1l1.3,0.1l0.9,0.9h2l1.9-0.4l1.8-0.5h1.3l1.1-0.6l1-1.1l0.8-1.3l0.6-0.6l-0.4-1.5l-0.3-2l-0.6-0.8
		l-0.3-2.1L252.6,458.5z"/>
	<path id="path3933" class="st0" d="M225,451.9l-1.7,1.1l-1.4,1.2l-0.8-0.4l-0.8-0.7l0.2,2.3l0.8,0.5l0.3,2.2v1.5l0.6,0.2l-0.8,1.3
		v1.8l0.8,2.1l1.1,0.6l1.5-1.3l1.7-0.2l1-0.8l-0.4-3.2V458l-0.6-0.7l1.2-0.5l-0.1-1.4l-0.7-1.2l0.1-1.1l-0.7-0.8L225,451.9
		L225,451.9z"/>
</g>
<path id="path3935" class="st0" d="M217.2,422.7l-0.6-0.9l-0.3-2l-1.3-0.7l-1.9,0.7l-0.4,0.6l0.9-2.3l1.7-2.8l1.2-1.7l1.8-1.2
	l0.8-0.3l2.5,0.4l1,0.2l1.5-1.1h2.3l1.3,0.2l-0.1,1.1l-0.2,0.9l0.1,1l1.4,1.5l1.4-0.5l1.1,0.5l0.4,1.3l-2.2,2.3h-4.2l0.2,1.8
	l-0.9,1.1l-1.7-2.4l-1.1-0.5l-0.8,1.5H220L217.2,422.7z"/>
<path id="path3937" class="st0" d="M218.4,411.6l-0.2-2.8l0.7-2.4l1.6-1.8l1.1-2.1l-3.9-0.3l-2.1-0.8L214,401l-0.5-0.9l0.2-2.8
	l-0.7-1.4l-0.4-1l1.3-2.2l-1.3-1.3l-0.6-1l0.3-1.8l0.4-1.8l-0.1-2.1l-0.1-1.2l1.7-0.3l1.3-1l1-1.7l0.3-2v-1.8l0.6-1l-0.4-1.1
	l-1.5-0.4l-0.3-0.9l1.1-0.9l1.1-0.8l2.3-0.1l0.5,0.6l0.5,1.3l1-0.2l-0.2-1.6l0.3-1h1.3l1.4,0.4l0.5-0.6l-1.1-1.1l0.1-0.9l-0.5-1.2
	l-0.6-0.7l1.1-0.5l0.6-0.7l-0.9-1.1l-0.9-1.2l0.2-0.8l3.1,0.1l0.9,1.6l0.8-0.3l0.8,0.8l-0.3,1.2l1,0.8l1.3,0.2l1,0.4l1.3-0.2l0.3,1
	l-1.7,1.1l0.1,1.4l2.2-0.8l1.4,0.2l0.8-1.9l2.2-0.2l1-1.3l1-0.3l1,1.1l1.2-0.2l-0.7-1.5l1.8-0.9l1.5,1.7l-0.3,1.1l-2-0.1v1l1.2,0.8
	l1.3-0.3l1.7,0.7l-0.5,1.8l1.1,2.2l0.4,0.9l-0.4,2.6l1.5,1.8l0.6,5.6l1.1,3l-0.1,2.7l-0.4,1.3l-1.6-1.6l-0.6-0.2l-0.3,1.6l-1.6,0.3
	l-4.5,2.8l-2.6,0.3l1.1,2.4l-0.1,1.8l0.7,1.6l5.3,4.9l0.5,0.6l-1.7,0.7l-3,2.8l0.5,2.1l-0.8,1.1l-2.8-0.4l-2.6,1.1l-1.3-0.3l-0.8,1
	l-2.1-0.7l-2.9,0.4l-1.2-0.1l-0.1-1.3l-3.3-0.2l-1.9,1.1l-3.7-0.5L218.4,411.6L218.4,411.6z"/>
<path id="path3945" class="st0" d="M215.2,373.3l-1.7,1l-3.2-0.2h-2.1l0.2,1.8l2.2,1.7l0.3,2.3l-2.2,2.2l-1.2-2.2l-0.3-2.5l-1-1.8
	l-0.8,1.5l-0.3,2.3v2l-1.5,1l0.3,2.2l1.8,0.3l-0.3,0.8l1.3,0.8h1.7l1.2,1.5l2.4,2.2l0.6-3l-0.5-4.2l2.2,0.1l1.8-1.3l0.5-1.4l0.3-3.8
	l0.6-1l-0.4-1.1l-1.5-0.4L215.2,373.3L215.2,373.3z"/>
<path id="path3947" class="st0" d="M204,386.5l-2,0.8l-0.8,0.5l-1-0.3l-1.7,1.5l-1.3,0.7l1,1.5l1.2,0.2l0.8,1.3l2.3,0.2l2,2.7
	l0.5,1.5l2.2-1.3l0.3,1.7l1.7,1.3l1.5,1.5l0.5-3l1.2-1.8l1.5-2.7l-1.9-2.3l-2.4-2.2l-1.2-1.5h-1.7l-1.3-0.8L204,386.5L204,386.5z"/>
<path id="path3949" class="st0" d="M213.8,400.5l-1.5-0.2l-1.7-0.2l0.5-3l1.2-1.8l1.3,1.9L213.8,400.5z"/>
<path id="path3951" class="st2" d="M220.3,435.3c0,0.8-0.6,1.4-1.4,1.4c-0.8,0-1.4-0.6-1.4-1.4s0.6-1.4,1.4-1.4l0,0l0,0
	C219.7,433.9,220.3,434.5,220.3,435.3C220.3,435.2,220.3,435.2,220.3,435.3L220.3,435.3z"/>
<g id="g10961">
	<path id="path3953" class="st0" d="M191.6,388.1h-3.3l-1.3-1.3l2.3-1.5l1.8-2.5l1.8-0.3v-4.3l-2.8-2l-2.8,0.3l-0.5,1.5l-1.3-1.5
		l0.5-2.5l-1-2l-0.3-2.3l-2.5-3.5l-3-2.8l-1.5-1.8l-0.8-5l-3-3.3l-1.5,0.3H171l1.3-1.8l1.3-0.3l-0.8-2.5l1.8-1.5l1-3.3l1.5-1.5
		l-0.8-2.5h-5.5l-3,0.8l-0.5-2l1.8-2.3l2.5-2.3l-0.3-2.3l-2.2,0.5l-2,0.7h-3.3l-1,0.8v2.2l-1.8,1.3l0.2,1.8c0,0-1.8,0.3-1.5,1
		c0.3,0.9,0.4,1.9,0.5,2.8l-2.3-1.3l-0.3-1.5l-1.8,0.2v-1.3l1.8-1l0.7-3.3l-1.7,1.2l-2,1.2l-0.2,1.8l0.3,1.3l1.3,1.5l-0.2,1.3l1.2,1
		l1.2,1.5l1.3,0.7l0.5-1.8l0.5,1.3l-0.7,1.8c0,0-1.3,0.5-1.2,1c0.3,0.7,0.7,1.4,1.2,2l2-0.3l0.8-1.2l0.2,1.7l-1.5,1.7l-0.2,1.7
		l-0.3,2l-1,3.5l3-2l-0.2-3.2l1.5,2.5l0.7,2.7l-0.7,1.2l-0.8,1.8l0.8,1.5l1.8-0.5l1-1.3l2.2,0.7h1l-0.3,1.8l1.3,2l0.2,1.5l1.7-0.3
		l-0.7,2.8v1.7l1.3,1.3l-2.7,0.5h-2.8l-2.5-0.8l1,2.2l-1.8,1.7c0,0-1.2,1.5-0.7,1.3c0.9-0.1,1.8-0.1,2.7,0l0.2,2.2l-2.2,2.3
		l-2.7,1.5l1.3,2.3l2.2-1l1.7,0.3l1,0.3l2.3,1l1.5-0.5l-2.2,1.2l-2.7,0.3l-0.8,2.2l-1.8,1.3l-1.5,2.2l-3.7,3h2.8l2-1.5l1.7-0.7
		l2.8,1.2l1.5-2.8l1.7-0.3h2.7l1.3,0.3l3-1.5h2l3.3,0.2l2.5-0.2l2.8-1.8l2-1L191.6,388.1L191.6,388.1z"/>
	<path id="path3955" class="st0" d="M180.4,315l-1.8,1.3v2.2l-1.7,1.2l1.8,1l-0.2,1.5l1.8-3l0.7-2.5L180.4,315z"/>
	<path id="path3957" class="st0" d="M172.4,328l-1.7,0.5l0.3,1.7l2.8-0.2L172.4,328z"/>
	<path id="path3959" class="st0" d="M156.4,360.8l-1.2,0.3l-0.8,0.2l-0.8,1.5l-1.3,1.5h-1.5l0.7,2.2l1.8,1.7l2.3-1.5l0.7-0.7
		l1.3,1.5l2.5,0.8l1-1.5l-0.8-2.3v-1.7l-1.5-2H156.4z"/>
</g>
<path id="path3961" class="st2" d="M165.2,367l-0.7,2.5l2.7-2l-0.7-1.3L165.2,367z"/>
<path id="path3963" class="st0" d="M157.5,381.8v-1.9l1.6-2.8l-0.1-2l-0.8-2.3l0.1-2.8l1.7-1.8l-2.5-0.8l-1.3-1.5l-0.7,0.7l-2.3,1.5
	l-2-2l-0.5-1.8h1.5l2.2-3l-0.4-1.7h-1.9l-1.4,0.8l-2.4,0.5l-1.1,1.5v2.1l1.8,0.3v1.4l-1,0.6l-0.5,1l-1.8-0.3l-1.5-0.4l-1.3,0.1
	l-0.5,2l-1.3,2l0.3,1.9l1,1l1.4,0.8l1.8,0.5l-1.5,1.6l-0.6,2l2.6,0.1l-4.3,1.1l-0.5,1.8l-1.3,0.5l1.9,0.8l-1.9,1.1l1.1,1.1l1.9-1.1
	l-1.8,2.3l2.1-0.6l-1.1,1.8l3.1,0.4l1.8-1.3l2-2l1.5,0.5l2.8-2.1l1.1-0.9l2.1,0.4L157.5,381.8L157.5,381.8z"/>
<path id="path3969" class="st0" d="M304.5,317.5l-2.8-0.1h-4.3l-2.9,0.6l-2,1.3l-1.9,1.3l-2.9,1l-3,0.6l-3.5-1.3l1.5-2.1l-1.5-1.3
	l-2.5-1.6l-1.8-0.6l0.3-3l0.9-1.3v-5.2l-0.9-2.9l-0.3-1.8l0.1-1l-0.8-1.8l0.6-2.9l2.4-2.6l0.6-2l2.3-2.6l2.5-2.6l1.8-1.6l2.6-2.5
	l0.8-2l2-3.9l2.8-0.5l0.3-0.9l-0.5-2.5l0.3-2.6l-1.6-2.3l-1.8-1.5l-1.5-1l-1-3l-0.5-1.6l0.9-3.9l-1.1-2.5l-0.1-3.4l0.9-2.6l-1.1-1
	v-3.8l1.1-1.6l-1.5-1.4l-1.4-1.1l-1-2.1l-2.9-1.3l-1.5-1.9l-3.3-2.9l-0.9-1.3l0.9-4l1.8,0.3l1.5,2.5l0.8,2.8l1,2.3l3.6,1.3h2.3
	l1.3-2.1l1.5,1l2.1,1.4l2.1-1.5l1.4-3.1l1-2.8l0.1-2.3l0.9-3.8l2.8-3.5l2.6-0.3l3-1.1l1.5,1.9l1.6,1.6l2.3,0.6l-0.6,2.9l-1.1,2.8
	l-0.4,2.9l-1.9,2.9v2.2l1.5,3.3l3.8,4l1.2,3.5l0.9,1l-4.5,7.8l4.8,12.8l-0.8,1l-0.3,3.8l0.3,3.8l1.3,2.2l0.3,3.5l1.5,2.3l-2.3,3.5
	l2,3.2l2.5,1l0.7,3l1.2,1l-0.4,2.5l-6.4,6l-4.1,7.4l-3.9,3.3l-2.3,3.2L304.5,317.5z"/>
<path id="path3971" class="st0" d="M275.3,228.6l-2.8,0.5v2.8l-0.5,2l0.5,2l-2-0.3l-2.8-0.5l-2.3-1.3l-1.3,2.3l-0.5,3.8l-3,1
	l-2.8,1.5l-0.8,4l-1.5,2v2.8L253,256l-1.5,4l-1.5,2.5l-2.3,0.3l-0.8,8.5l-2,4.3l-1.3,3.3l3,2.5l-1.5,2l-4.8,0.3l-1.5,3.5l-0.5,4
	l-1.5,3.8l1.5,4.8l-0.3,4.3l1,4.5l0.5,2.5l-0.5,1.8l0.3,5.3l-0.8,4l-2.6,3.6l-0.6,4.5l-2.4-1.4l0.5,4.1l0.4,3.1l0.8,3.3l1.1,1.6
	l0.5,2.4l0.9,1.4l1.6,3.4l1.6,2.1l-0.1,2.1l-1.4,1.6l1.1,2l1.3,2.1l0.9,1.4l3.6-0.9l0.8-2.5l1.3-2.6l3.8-0.3l2.3,0.1l1.4-4l0.6-2.4
	l0.4-4l1.3-2.3l-0.3-3.3l0.1-2.5l-0.9-1.1l2.1-1.3l2.9-2l0.5,0.6l1.5-2.3l2.1-2.1l0.1-1.5l0.5-2.5l-0.6-2.1l-1.5-2.5l-1.9-1h-1.3
	l-1.3-2.5l-0.8-2.3l0.3-1.6l1.3-3.6l-0.4-2l0.4-3.1l0.1-1.8l1.3-1.1l0.5-2.5l1.4-0.1l2.1-3.8l1.5-2l1.6-0.5l1.4-2.1l3.3-0.6l3.3-3.3
	l0.4-2.5l1.6-0.6l-1.8-2.4c-0.1-0.7-0.2-1.4-0.1-2.1c0.2-0.3,2-2.3,2-2.3l-0.9-2.8l0.4-1.8l1.6-0.4l0.8-3.3l1.6-0.9l1.1,0.8l2-0.4
	l2.8-0.3l0.6-0.5l0.5-0.1l-1.5-4.6l0.9-3.9l-1.5-2.3l0.3-3.6l0.9-2.6l-1.1-1v-3.8l1.1-1.6l-2.9-2.5l-1-2.1l-2.9-1.3l-1.5-1.9
	l-4.1-4.1L275.3,228.6z"/>
<path id="path3973" class="st0" d="M267.7,338.8l-2.5,1l-2.1,1.8l0.4,4.1l0.6,1.5l2.5-4l0.1-1.6L267.7,338.8z"/>
<path id="path3975" class="st2" d="M258.5,343.4l-1.6,3.4l-0.9,5.1l2.4-4.4L258.5,343.4z"/>
<path id="path3977" class="st0" d="M324.5,221.6l-3.3-0.4l-1.9,1.5L316,222l-1,2l-2.8,1.7l-1,3.3l-1-0.3l0.4-2.9l1.1-2.8l0.6-2.9
	l-2.3-0.6l-3.1-3.5l-3,1.1l-2.6,0.3l-2.8,3.5l-0.9,3.8l-0.1,2.3l-2.4,5.9l-2.1,1.5l-3.6-2.4l-0.9,2.1h-2.6l-3.6-1.3l-0.9-2.8
	l-1.5-3.1l-1.4-1.9h-1.3l-0.9,4l-1.1-0.6l-2.8,0.5l-0.1,3.1l-0.4,1.6l0.5,2l-4.8-0.8l-2.3-1.3l-1,1.8l-0.8,4.3l-5.8,2.5l-0.8,3.6
	l-1.5,2v3.1l-2.5,4.8l-1.5,4l-1.5,2.5l-2.3,0.3l-0.8,8.5l-3.3,7.5l3,2.5l-1.9,2.3l-4.4,0.5l-1.5,3l-0.5,4.4l-1.5,3.4l1.5,4.8
	l-0.3,4.3l1.5,7l-0.5,1.8l0.3,5.3l-0.8,4l-2.6,3.6l-0.6,4.5l-4.4-2.3l-0.5-3.1l-1.1,1.9l-0.3,2.5l-3.3,1.9l-2.4,2.6l-2.9,3.5l-2.9,1
	l-3-0.8l-2.8-0.6l-2.1-2.9l-2.1-2.1l2.8-1l-0.3-1.4l1-2.3l-3.3,1.1l-0.5-3.1l3.9-1.4l-1.4-1.1l-0.8-1.5l-2.3,2.4l1.4-3.4l-1-1.1
	l-0.1-1.4l1.3-1.9l-2.4-0.9l0.8-1.6l4.9-0.4l1.4-0.1l-1.9-1.4l-3.3,0.9l-1.6-1.9l1.4-1.1l-0.4-2l-0.8-1.8l1.8-1.4l1.9,0.6l-0.4-2.1
	l2.4-1l-2.6-0.6l2.1-1.8l2-0.9l1.8,1.1l2-0.9l-1.1-1.9l0.6-1.3l2.3-0.3l-1.4-1.1l0.9-1.4l2.5-0.4l1.9-0.1l1.3-1.8l0.5-1l1.8-0.5
	l1.5,1l2.1-0.3l0.5-1.5l-2.5,0.4l-0.6-2.4l0.5-3.1l3-2.4l2.1-2.4l1.8-1.9l-1.8-1.1l2.6-1.8l1.9-1.3l-0.4-1.5l0.4-3.3l1.4-1l0.3-1.5
	l-1.3-0.9l2.3-2.5h2.3l-1.3-1.6l0.9-2.4l0.9-1.9l1.6-1.5l0.1-1.3l2-1.8l2.6-1l-1.6-0.6l1.3-2.8l2.1-0.3l-1.3-3l2.4-3.1l2.9-2
	l-2.5-1.1l-5.1,2l-2.3,0.6l-3.6,2.6l-1.9,2.1l1.5-4.6l4.5-1l1.4-1.1l2.5-2.3l0.5-1.6l-2.9,0.1l1.8-2.9l1.4-0.4l0.3,2l1-1.5l1.6-1
	l0.3,2.8l1.4-2.9l2.4,2.5l1.9-2.9l1.1-1.9l-2.4,0.8l2.6-4.1l2-0.8l1.3,3.3l0.9-2.9l2,1.6l-0.6-3.1l-0.1-3.4l2.9,0.1l1.3,2.5l2.1-3.8
	l1.5,4.8l0.6-4.6l1.5-0.5l1.8-1l2.9,2.9l-1-3.5l-2.5-1.8l3.6-1l3.4,1.6l1.3,3.9v-5.8l2.1-1.1l1.1-2.6l2.5-1.5l0.1-2.6l3.1-0.8
	l2.1,1.3l-1.9,3l-0.1,4l2.5-2.6l3.8-5.3l-0.1,5.3c0,0-0.3,2.5-0.1,2.1l1.9-3.8l1.9-3.1l0.4-2l3,1l1.5,1.3l-2.6,2.9l0.3,3.5l1.8-5
	l2.1-1.1l1.9,1.8l2,1.4c0,0,2.1,0.6,1.8,0.9c-0.3,0.3-0.6,0.7-0.8,1.1l3.1,0.6l0.8,1.3l-0.5,1.3l-3.4,1.4l-2.5,0.6l-4.5-0.4l3,1.1
	l2.4,1.4l1.3,1.1l1.8,1.1l2-0.6l3.8-0.6l0.3-1.4l3.3,1.3l1.6,1.5l-0.3,2.3l-2-0.1L324.5,221.6z"/>
<path id="path3985" class="st0" d="M147.3,454.3l-0.4,3.9l-1,2.5l-1,2.9l-0.1,2.8l0.9,1.1l1.8-0.6l-0.5,2.5l-0.1,3.4l-0.9,1.9
	l2.9,0.3l2.8,0.3l2.5-1.3l0.3-3.9l1.5-1.4l-1-1.5l0.5-3.8l-1.5-2.5l1.8-0.9l0.9-2.8l0.3-2.6l-0.1-3.1l2-1.1l0.5-1l-1.3-1.3L158,447
	l-1.4-0.3l-1.6,0.6l-4-0.3l-0.4-1.8l-2.8,2.5l-0.4,2.5l0.3,2.5L147.3,454.3z"/>
<path id="path3991" class="st3" d="M179.2,437.3l-1.3,2.3l-3.8-0.3l-3.5-0.5l-2.8-0.3l-2.5,0.5l-8.5-0.5L153,438l-1.8-1l-2.4,0.8
	l-0.5,1.1l-3.8,0.5v2.4l1.3,1.3l1.3,1.6l0.3,2.6l2.9-2.1l0.4,1.8l4,0.3l1.6-0.6l1.4,0.3l0.1,1.1l1.3,1.3l-0.9,1.3l-1.6,0.9l0.1,3.1
	l-0.3,2.6l-0.9,2.8l-1.8,0.5l1.5,2.9l-0.5,3.8l1,1.5l-1.5,1.4l-0.3,3.9c0.9,0.1,1.7,0.5,2.3,1.1c0.8,1,1.8,2.4,1.8,2.4
	s-0.4,2.1,0.9,2.6c0.7,0.3,1.4,0.4,2.1,0.4l1.8-2.5h2.5l2-1.8l3-0.1l1.6,1.3l1.9-0.6l2.1-0.1l2.3-3l1.9-1l1.8-0.5l1.8-3.5l2.1-2.6
	l-1.8-2.1l0.1-3.3l2.4-2.4l2.1-3.1l0.4-1.1l1.6-1.9l2.6-0.3l2.8-1.9l2.6-1.8l0.5-2.3l0.3-1.8h-2.6l-3.1-0.6l-1.9-1.3l-2-0.3H186
	l-2.1-0.3l-3.7-1.2l0.3-1.5L179.2,437.3L179.2,437.3z"/>
<path id="path3993" class="st0" d="M198.6,458.9c-0.5,0.3-3.1,1.6-3.1,1.6l-0.5,1c0.6,0.1,1.2,0.3,1.8,0.5c0.4,0.2,1.8,1.1,1.8,1.1
	l1.9-2.1l-1.1-0.8L198.6,458.9z"/>
<path id="path3995" class="st0" d="M201.4,458.8l2.1,1.3l1.1-1.4l-1.9-1L201.4,458.8z"/>
<path id="path3997" class="st0" d="M191.4,463.1l-1.4,2l1.6,1.6l1.1-2.5L191.4,463.1z"/>
<g id="g10977">
	<path id="path4123" class="st1" d="M356.9,437.8l7.8-0.2l3.7,2l6,1.3l2.7,2.2l5.5,0.2l1.8,2.8l4.5,1.2l2.7,2.5l1.8,0.7l2-2.2
		l-2-4.2l-2.8-4l1-3.5l-1.5-0.8l-1.3-2.5l-2.3-0.8l2.5-2.8l2-5.3l0.8-2l2,2.3l1.7-1.6l0.3-2.5l2-2.7l-1.2-2l-7.2-6.8l-1.7-2.8
		l2.5-13.2l5.2,3.7l0.8-2.5l-0.8-2.3l1.5-2l0.1-3.3l3.1,0.4l3.8-2.2l0.5-1.7l3,1l-0.5,2.2l2.2-1.5l2.3,0.2l2.7-0.8l2.8,0.8l3.3,3.3
		l0.7,3.3l1.6-2.6l1.1,0.4l2.2,1.5l2.2,0.3l2.2-2.5h3.5l1.8,1.2l3.8-1l1.5,2.5l2.8,1.5l2.2-1.7l3.5,1.3l4.2-5l-2-1.3l-2.9-0.3
		l-1.3-2.4l-1.8-1.2l3.8-1.7l-0.5-4.8l6,0.2l-2.8-4.6l1.8-1.6l-2.7-1.3l1.2-2.7l2.8,0.7l10-1.7l3,0.3l4-3.7l7.2-0.7l2.5-1.2l3.5-3.5
		l3.3,1.3l3.9,0.6l1.1,3.7l1.1,1.3l-0.5,3.2l2.2,1.7l0.7-1.7l2.6,0.5l0.8,1.5l2.3-0.8l0.5,1l0.3,2.5l5.8,0.3l1.8-2.3l2-0.3l2.5-4.7
		l3-0.2l-1.5,2.7l6.4,7.8l4.8,4.5l3.8,8.3l1.1,2.4l3.3-3.8l1.8,1l2,3.7l4-0.2l3-1l2.7,0.3l2.8,5.7l2.5-0.2l2.2,3l2.3-0.3l2.5-1.3
		l1.3,2.5l-0.7,1.5h4.5l1.8-2.3l3.8-0.3l1.2-2.7l2.3,0.7l2.5-1.8l3.6-0.6l2.3-2l1.7,0.3l0.5-1l2.2,2.2l5.7-0.2l2.6,2.5l1.3,1l4-0.3
		l6.7,1.7l2-0.7l0.7-5l-1.8-0.8l-0.3-3.5l1.5-4.7l1.8,1.3l1.2-3.5l4.3,2.3l6.2,1.8l0.8,1.5l3.8,0.3l-0.6,3.3l1.7,3.3l3.9,1.2
		l2.4-0.3l1.8-1.2l5.3,0.7l1.2,0.8l3.3-0.2l3.4,3.2l4.3,1.8l4.5,0.9l5.5,1l4.7-1.3l4.6-2l1.8-2.3l1-2l3.5-0.9l2.3,0.2l1.8,2.5
		l0.5,1.3l2.8-0.7l3.4,1.1l4.4,2.6l2.1-2.3l1.8-1.8l1.8-0.1l-0.1-2.9l1.9-4.4l3-3.5l1.2-4.3l-1.8-2.3l-1-0.5l2.7-3.8l4.1-0.5
		l4.1-0.2l3.7-1.1l3.5,2l3.8,1.9l0.5-1l3.2,2.8l3.8,9.3l3.4,7.3v2.8l1.3,1.3l6.8,1.2l3.5,5.2l1.2-0.3l-0.5,2.2l1.5,1.9v2.4l3.3,1.3
		l4.8-1.8l6.3-1.8l4.6-1.3l-1.3,2.7l-0.5,3l-1.5,1.7l-0.5,3.5l-2.3,4.3l-1.3,3.8l-1.5,1.5l0.2,1.7l-4.5-1.6l-1.7,0.6l-1.3,1.9
		l-1.8,0.3l1.3,5l-0.7,4l-0.2,1.5l-3.3,2.1l1.6,1.7l0.5-1.5l1.5,0.3l1.6-0.9l0.8-2.1l0.3-1.4l0.5-0.9l0.4,2.3l1.6-1l0.8,1.3l2.4,1
		l1.9,0.8l2.3-1.5l2-0.6l3-2.4l1.6-2.4l2.4-3.1h1c0,0,1.5-4.3,1.9-4.5s3.8-2.4,3.8-2.4l2.6-5l1.5-3l1.1-2.9l1.3-0.9l0.8-2.4l2-2.4
		l1.6-2.3l1.5-2l-0.4-3.6l1.3-1.1L796,397l-0.3-3.3l1.1-4.8l0.3-3l1.9-2l0.9-1.8l1.1-0.1l0.3,2.8l1.8,2.9L803,392l-0.1,4.4l0.1,5.4
		l-1.9,4.4l1.3,0.5l0.8,3.6l-0.9,2.3l0.1,4.1l-1.1,2l0.5,3.9l1.5,1.8l0.3-2.4l0.3-2.1l1.9-1.4c0.7,0.4,1.4,0.8,2,1.4
		c0.2,0.4,1.8,2.3,1.8,2.3l0.1-2.1l-2-3.1l-0.9-2.1l-2.5-2l0.6-3l1-3.1l0.3-2.6l2.6-1.9h2.8l2.6,3.5l1.4-0.6l-1.8-2.1l-2-3.4
		l-1.6-4.8l-0.9-4.1l-0.6-3.3l-0.3-2.4l-1.8-2.5l0.6-2.6l0.9,0.8l-0.5-5.8l-0.6-3.4l-0.8-1.9l0.4-1.1l-0.9-2.3l-1.4,0.5l-1.8,0.1
		l2.1,2l-0.1,2.1l-2,1l-1.9,0.9l0.8,2.3l0.5,1.6l-0.8,2.4l-0.4,1.5l-0.1,1.1h-1.4l-0.6-1.5l1.3-0.1l-0.8-2.6l-0.8-1l0.8-0.9l0.1-1.8
		l-1.8-1.6l-1.9-1.1l-0.9-1.4l-2.3-1.9l-0.4-0.9l-1.8,0.9l-2.6-1.4l0.1,2.9l-0.4,2.5l-1.4-0.3l0.5-2.6l-1.9,1.3l-0.9,1.8H781l2-2.1
		l-0.8-1l0.9-2h-2.5l-1.1,2.1l-0.3-1.9l0.3-2.1l-1.6-1.1l-3.1,0.8l-2-1.3l0.8-2.4l2.5-1.5l2.4-2l2.6-2.9l2.9-2.1l2-3.8l3.6-4.1
		l2.5-2.1v-3h2.1l1.9-4l3.9-3l3.1-2.9l4.3-0.4l5.9-0.3l2.5-1.5l1.9-0.5l0.9,0.8l1.5-0.3l1.4-1.5l2.5,0.9l1.6,0.6l2.4-0.6l1.8,0.6
		l1,0.6l2.1-0.5l-0.9-1.3l1.1-1l0.3-2.4l2.6,0.8l3.6,1.8l3.5,0.2l1.8,1c0,0,3.5,1.5,3,1.5h-5.2l-0.3,2l2.5,1.2l2.8-1.5l2.5,0.5
		l2-2.2l2.8,1.5l1.5-2.2l4,0.5l-2.7-3h-2.2l-0.2-4.2l1.2,1.2l1.7-4.7l3.3-2.2l1.8-3l3.2-2l-0.3-2.8l6.8-2l3.8-0.8l0.8,1.2l3.2-1.3
		l-0.8,4.3l-1,1.5l0.3,3.2l2.2-1l-1.2,3.3l2.8-1.7l2.8-2.3l4.2-3.7l2-1.7l1.2,1l0.2-3.5l0.2-4.5l2.2-1.5l4.7-1l2.3,2.5l-4.3,0.8
		l-0.7,4.2l-1.2,2.8l0.2,2.5l-1,1.8l-0.5,2.8l-2.7,0.2l-3.5,2.2l-0.2,2.5l-6.5,5.8l-2.8,4l-4,4.8l-3.3,4.5l-2.7,0.7l-2.5-0.3v3.2
		l-1.3,3l-3.8,4l-0.7,8.8v6.2l1,6.5l2,7.7l0.3,4.7l0.7,4.8l1,2l-1.8,1.5l-2.2,1l-2.8,2.2l-0.8,2v2l-1.2,1.8l-1.5,2.2l-2,2.3
		l-1.3,3.3l-2.3,1.5l-1,2.5l-1.3,2.5l-2.5,1.2l-1.8,2.3l-3.7,2.8l-3,0.8l-2.2,2.8l-2.5,2h-2.2l-2.3-0.5l-1.3,2.3l-3.5,2.7l-1,1.3
		l-1.7-0.3l-1.8,2l-0.5,1.8l1.2-1l2.2-1.2l0.7-0.7l2-1.7v1.8l2.3-2.2l2-1.7l2-1.3l2.3-0.8l2-1.8l0.8,1l1.3-2l2.3-1.5l0.5-1.2
		l4.8-3.2l1.5-0.2l1.5-1.8l0.5-1l1.5-2.5l1.7-0.8l-0.2-1.5l0.8-0.8l0.7-0.8l1.3-2l0.7-1.5l2-0.7l-0.3-1.2l1.7-1.5l1.3-1.2l-0.7-1
		l1-2.8l2.8-0.7l1-2.8l0.8-0.8l1.2-1.3l1.5-1l2.3-1.7l1.5-1.7l1.5-1.8l2.3-4.8l-0.5-3.7v-1h2.3l2.2-1.2l2.2,0.8l-0.3-4.5l-0.3-1.7
		l3.5-4.3l2.3-0.2l1.3,0.5l2.3-1.8l-1-3l-0.7-3l1.3-3.3l0.2-2l3.2-1.7l-1,3.3l2,1.2l1.5-3l-1-1.8v-2h-2.2l1-4.8l1-1.8l-2.7-1.8
		l-2.2,1.2l0.3-3.8l2.2-3.7l1.3-3.3l0.8-2.8l0.8-3l1.2-2.2l2.8-1.7c0,0-0.5,1.8,0,1.3c0.8-0.6,1.8-1.1,2.7-1.5l0.2,2.3l4.2-3.5
		l2.2-0.8l-0.7,4.5l1.3-0.5l3.5-4.2l3.7-1l3.8-0.7l3,2.2l2.3,3.3l3.2-4.7l3.7-3l7.2-7.3l4.7-3.3l6.5-2.3l5.2-3.3l6.5,1l2.2,2.2
		l1-3.8l-0.7-3.8l-2.5-4.5l-2-2.3l0.8-4.8l-0.3-1.3l-4.7-0.7l0.2-4l4.8,1l2.7-0.8l3.3-2l3.8-4.2L968,265l-0.7-2.7l3.7-0.8l2.5-1.2
		l-0.8,3l1.5,4.2l-2,1.2l5.2,0.3l2.5-1.2l3.2,1.5l2.5,3.8l-0.8,0.8l3.8,2.5l2.8-0.5l1.5,2.8l1.7,2.7l3.7-1v-3.3l2.5-2.8l1.7-3.3
		l-2.3-2.8l5.3,1.7l1.2-2l2-2l3.8-2.5l-3.7-3.2l-4.8-4.3l-3.7-2.5l-2.5,0.3l-3.2-2.3h-3l0.7,5.2l-1.5-2l-1.2-4l-0.7-4.5l-3.5-2.2
		l0.5,2.3l-3.2-2.7l0.2-2l-4-2.3l-6.2-4.2l-0.8-3l-5.7-3l-4.3-4.3l-5.3-1.3l-5-3.5l-2.5-2.5l-8.2,0.5h-6l-9-2l-0.3,4.3l-1.3,1.7
		l3.8,3.3l-0.7,3.7l-4.8,2.3l-3-2.7l-2.2-1l-0.3-4.2l-2.3-2.5l3,1.3l2.7-1l-0.2-2.8l-4.8-1.2v2.2l-1.7,1.7l-3,1.3l-0.7,2.8l-1.5-2
		l-3.8-0.3l-4.8-0.2l-3.7-3.2l-2.5,1.3l-4,0.3l-2.5,2l-3-1.2l-4.2-2.5l-2.7-0.8l1.5-3l0.5-2.8l-1.7-4.2l-2.7-3.8l-5.7-1L863,204
		l-10.2,0.5l-3.7,0.2l-2.8,0.2l-0.8-2.5l-0.7-3.8l-3.8,0.2l-2.8-2.7l-2.3-1.7l-3.8-0.3l1.8-1.7l3.8,0.3l-2.2-4.5l-5.7-2.7l-5.3,0.3
		L822,191l-3.3,3.3l-3.3,1.3l-0.3-2.7l1.7-2.2l3-3.7l-0.3,5l3.2-6.8l-3.7,1l-3.2,1l-3.7-1l0.3-3l5.5,0.8l3-0.7l-4.3-1.7l-4.8-0.8
		l-6.2-1.5l-4.3-0.2l-3.5-1.2l-0.3,3.8l-1.7,2h-4.3l-2.2,2.8h4.5l-2.8,3.7l3,6.2l-4.5,0.8l-2-1.8l-3.3,2.5l-2.3-2.3h-3.2l-5.7-1.2
		l-4,4.5l-3.7-2.5l-3.8-5.2l-3.3,8.2l-0.7,4.5l-2.3,2.2l-3.5-3.2l-5.2-3.5l-0.7-4.5l-0.7-4.3l1.3-4l0.8-7l-0.5-5l-5.5-6.8l-6.5,0.3
		l-6.8-3.2l-7-1.7l-1,6l0.7,5.5l-3.7,0.5l-9.3-0.8l-4.5-1.2l-2.7,0.8l-1.5-4.3l2.5-1l-6.7-1.7l-9-1.8l-4.3,1.8l-4.3,0.2l-1-4.8
		l-1.3-1.5l-1.5,4.2l-4.2-1.7l-0.3-3.3l-3.8,1.8l-3.2-0.3l-0.7,4.8l3.2,1l-6,4.2l-8,1l-4.2,1.5l1.3-3.8l6-4.8l2.3-0.8l4.3-5.2
		l3.3-4.8l7-4.5l2.8,1.8l-4.3,3.3l2.7,3.8l3.5-1.2l3-4.5l-4-1.2l-3.5-2.8l2.3-2.7l4-3.3l2-4.3l1-3l-2.8-2.7l2.3-1.3l0.2-3.3
		l-2.3-4.2l-0.7-2.8l-2.7,1.8l-1.5-6.3l-5.7-3l-7.8-0.8l-5.8,1.2l-1.2,2.7h-7.2l5.5-5.5l1.5-3.7l-8.2-1.3l-4.3,0.8l4.2-5.5l2.5-3.2
		l-5.3-2l-5.5-1l-7.3,4.8l-5.3,9.5l1.5,3.5l1.5,4.7l-5.8-0.7h-4.5l3,4.5l-4.3,0.3l-6.5,3.3l-6,2l2.2-5.2l-7,2c0,0-9.3,0.7-8.8,1
		s5.5,2.5,5.5,2.5l-13,4.3l-8.5,4.7l-5,4.3l-3.2-0.2l-0.8,4.2l-4,1.8l3.3,5.2c0,0-3.3,2-2.8,2.7s7,6.2,7,6.2l-4.2,2l-6,0.8l-6.3-0.3
		l-7,1.7l-5.2,1.7l-2,5.5l2.5,6.3l-0.7,3.7l4.7,3.8l2,1.3l1.7,3.7l2.5,1.8l-0.3,4.8l0.3,7.8l-2.2-0.8l-2,1.2v-5.8l2.7-3.7l0.2-3
		l-2.8-0.7l-2.2,1l-4-3.5l-5.8-5.2l-4.5-1l-4,2.8l1.8,2.8l-2.3,1.7l-3.2-2.5l-3.3,1.8l4.7,7.2l5.7,1.7l-1.3,4l-4.2-2.8l-4-0.5
		l-5-2.3l1-6.3c0,0,0.3-5.2,0.3-5.7v-6.7l-2.7-2.8v2.8l0.7,4l-1.7,4.7l-6,3.5l-0.8,5.5l4.8,7.3l0.7,5l-2.7,6l-0.2,6.7l2,6l5.8-2.2
		h5.2l4,4.5l0.8,6l1,2.2l-2.2,3.2l2.2,1.7l1.8,1.7l-2.7,0.8l-3.5-2.2l1.3-5.3l-1.2-4l-2.7-5l-8.5,3L508,238l3.3,5.5l-3.5,3.3
		l-1.5,2.8l-2.2,4l-4.7,3.5l0.2,3.7l-4.7-1.8l-5-0.3l3.3-2.3l3.5-2l3.2-4.8l0.8-3.5l2.8-2.2l0.2-5.2l2.3-4.3l-5.2-5l-0.2-7l1.2-6
		l-1.7-4.2l2.3-0.8l-0.5-9l-3.3-5l-0.5-2.8l1.8-7.8l1-5.7l-0.8-3.2l-4.8-1.3l-4.5,0.2l1.2-2.8l4.7-0.8l-2.2-3.2l-2.7-1.7l-3.2,3.7
		l2.3,2.5l-1.2,2.5l-2.3-0.8l-1.5,2.7l-0.8,3.3l-1.3,5.3l-1,4.8l-2.3,5l-4.8,4l1.2,2.5l-3,1.8l1.2,1.8l2.3-1v7l0.5,2.7l-2.7,1.8
		l0.8,4.5l1.7-1.5l3,2.2l0.7-0.5v4l2.5,4l1.3,0.2l-0.8,4.3l-1.7,3.8l-2.2-3.2l-2.3-3.2c0,0-1.5-2.5-2-2.5s-3.8-0.7-3.8-0.7l-5-3.2
		l-3.8-3.8l-4-1.8l-5-1.2l-4.5-0.2l-2.2,0.7l-1.3-4.2l-6.2-5l-0.3,3l1.2,3.7l2.8,2.7l3.5,0.5v1.3l0.7,3.3l1.8,3.5l-0.5,3.5l-3.3,0.8
		l-0.5,3.8l-2.8-0.5v-3.9l-1.3-2.7l-3.5,2.7l-3.5,1l-0.2,2l-4-0.5l-4.5,0.8l-2,4.2l-4.2-0.5c0,0-4.8-0.7-3-1s4.2-2.5,4.2-2.5v-3.7
		l-4.8-0.2l-3.3,2l0.5,3.8l-3.8-1.8l-3.8,3.3L397,243l-2.3,3.5l-2,5.7l-2.8,2.5l-5.8-1.7l-1.8-4.2l0.7-4.2l2.7-0.3l2.8-1.2l-0.8-2.7
		l-1.5-1.8l-1.8-2.7l-5.7-0.2l-5.7-2l3.8,4.2l0.8,3.2l-0.8,4.3l-1.5,3.3l2.3,2.8l1.3,2.8l-0.8,5l0.3,5.7l-3.8-4.5l-4.3-1.8l-1.7,2.3
		l-4.2,3.2l-4.5,2.8c0,0-1.2,2-0.8,2.5s2.3,5.8,2.3,5.8l2.2,3.2l-2.5,0.7l-4.5-2l-5.3-1.3l-4.3-3.2c0,0-3.2,3.3-2.7,3.7
		s4.2,4.8,4.2,4.8l3-1l1.2,4.8l-2.5,0.2l-4.8-0.3l-4.2-3.7l-3-1.8l-2-4.7l-0.2-4.5l0.7-2.3l0.3-3.2l-3.2-3l-2.8-3l-2.5-2.8l-2.5,0.3
		v-3l0.2-2.3l3.5,1.2l1.3,2.5l4,1.7l3.8,1.7l6.2,2.2l3.5,1.8l6.3,1.3l4.5-2.5l3.8-3.2l3.7-5.3l-1-3.2l-1.5-4l-5-4.2l-5-2.8l-5.2-5.3
		l-4.7-4.2l-6.7-2.8l-5.5-0.2l-3.8-1.2l-2.7-3l-3.3-0.7l-1.8,1.8l-3.3-0.7l-1,2l-2.8,1.7l-1,3.3l-1.5-0.2l-1.3,2.8v2.2l1.5,3.3
		l3.8,4l1.2,3.5l1.2,0.7l-4.7,7.7l4.7,13.2l-0.8,1l-0.3,3.8l0.3,3.8l1.3,2.2l0.3,3.5l1.5,2.3l-2.2,3.3l2,3.2l2.5,1l0.7,3l1.2,1
		l-0.7,2.5l-3.2,3l-3,3l-2.3,4l-2,3.7l-3.7,3l-2.3,3.2l3.3-1.2l0.3,1.8l3.2,2.3l1.7-0.2l2.2,2.5l-3.8-0.2l-1.7,0.2l-3,1.7l-1.3,1.8
		l0.3,2.7l-2.8,2.8l2,5.7l1.7,1.8l0.8,3.2l0.2,5l-0.2,3.3l0.7,1.8l6.2,0.7l0.8,1.8l3.5-0.5l1.3,6.3l1.5,5l2.3,2.3l0.2,2l2.3,2
		l-1.2,3.2l-3.3-0.2l0.7,2.7l0.8,3.8l2.8-0.5l2.5-0.2h3.2l2,2.7l0.7,5l3,0.2l1.5,4l0.7,1.7l3.5-0.3l2.8,1.2l2.5-1.5l1.5,2l2.3,1
		l2.3,1.8l1.2-0.2l1,1.3l2.7,0.2l-0.8,3l-0.5,1.7l1.7,3.3l-1.7,2.7l-2.7,0.2l-1.8,1.8l-2.5,1.5l0.8,2h3.7l-4,2.7l-3.7,0.7l3.2,3.8
		l-2.5,0.3l-2.2,2.8l-2.2,1l-1,1l2.7,1.5l1.5,2.3l5.3,2.2c0.6,0.2,1.2,0.5,1.8,0.8C357.2,434.6,356.9,437.8,356.9,437.8L356.9,437.8
		z"/>
	<path id="path4125" class="st1" d="M966.8,197.3l-7.3,5l1,4.3l7.3-2l5.3,0.7l2-5.3l-4.7-3.7L966.8,197.3z"/>
	<path id="path4127" class="st1" d="M805.8,173l-10.7-1.3l-5-0.7l4-3.7l0.7-4.3l-4.7-2.3l1.7-4.7h4.3l-0.7,6.3l1.7,1.3l2.7-1
		l4.7,1.7l2.7,4l0.3,5L805.8,173z"/>
	<path id="path4129" class="st1" d="M788.8,144.3l-1.7,4l-5.7-4.7v-6.7l-2.3-3.3l3.7-5.7l2.7-5l5.7,3l1,5.7l2,2l2.7-1.3l-0.3-5
		l3.3-1l6.3,4.7l2.3,1.7l5,1l2,1.7l-3.3,4l-1.7,4l-4-2v-5.7l-5-2.3l2.3,6.3l1,3l3.3,1.3l-3.3,2l-4.3-0.3l-3.3,0.3l-5.7,2l-0.7-3.3
		L788.8,144.3z"/>
	<path id="path4131" class="st1" d="M819.8,134.3l2,5.3l1.7,4.3l6.7,4l6,1l2.7-3.3l-3.7-4.7l-4.7-1l-3.7-2L819.8,134.3z"/>
	<path id="path4133" class="st1" d="M599.8,9.1l-2.5,9.5l-12,4.5l-0.5,8l4.5,7.5l2.5,3.5l-5.5,2l-6.5-2.5l3,8.5l5.5-1.5l4-3l1,2
		l-5,7l5.5,4.5l2,5l5.5,0.5l3,5l8.5,1l5.5-4l6,2.5l-4,9.5l-1.5,9l5.5-2.5l11.5-0.5l5.5-6l0.5-6.5l-6-6l-4-3l-1-5l-4.5-1l-1.5,7
		l-0.8,4l-4.8-2l-2-5.3l0.5-6l0.8-5l-1.3-5.5L614,42l-2.5,2l-3.5-3.8l-1.5-1.5l-8,1.8l-4,2.8v3l-2.3-2.3l0.3-2.3l2.3-1.3l3-2.5
		l2.8-2.7h4.8l1.5-1.3l-0.8-4.8l2.8-4.5l-1.5-5l-3.8-1.8l-1.5-8L599.8,9.1z"/>
	<path id="path4135" class="st1" d="M478.5,109l-5.7,3l-7,6.3l-7.3,5l-5-1l-6.7,3.3l-5.7,4.7l-6.3,5.7l-1,5l-7,1.7l0.3,6.3v5.3
		l-3.7,3l-3,6.7l3,2l-3.7,4l-0.7,3l-4.3,5l-2.7,3.7l2,4l-2,4.7l-4.3-0.7l1.3,6l3.7,3.3l1.3-1.7l3.7,4l-1,2.7l0.7,3l5.7,1.3l4.3,1.3
		l4.7-1l2,1.7l1-2.3l-4-2.7l-2.3-4.3l-2.3-7l-0.3-5l-0.3-8.3l4-3.7l1.7-5.7l2.3-6l1.3-5l2.3,1l1-5.3l1.3-4.3l2.7-0.7l2.7,1.3
		l1.3-4.7l2.3-5l2.3-0.7l5-5.3l4.7-2.3h3.3l5.7-4.7l7.3-3.7l4.7-2.3l1-3l2-2.7l-1.7-2l1-3.3l-3.7-2.7L478.5,109L478.5,109z"/>
	<path id="path4137" class="st1" d="M396.1,225l-3.7,3.7l1.3,4.7l6-1l3-4.7l-3-2.7H396.1z"/>
	<path id="path4139" class="st1" d="M284.5,366.1l-4.1,0.1l-3.6-1.3l-3.9,0.1h-1.3l1.3-1.4l-0.8-1.4l2.8-0.6l0.3,1.3l1.4-1.1
		l-0.4-2.3l1-0.5l-0.4-1l1.9,1.3l2.8,1l3.5,1.1l0.3,2l-0.1,1.6L284.5,366.1z"/>
	<path id="path4141" class="st1" d="M463.5,5.6l-4,3.8l-3.3,6.8l3,4.5l2.8-3l5.3-0.5l-2-5.8l0.5-5.5L463.5,5.6z"/>
	<path id="path4143" class="st1" d="M401.5,19.1l-1.8,4.3l-4.5,2.8l-2-4.8l-10-0.8l-7,4.5c0,0,1,4,1.8,4s5.5,2.3,5.5,2.3l0.5-6.8
		l3.3-1.5l4,2l2.5,1.5l-5,1c0,0-3,2-2,2c1.7,0.2,3.4,0.6,5,1l-1.5,2.8l-5.3,2l3.3,4.5l3.8-1.3l-0.3,3.5l3.3-1.5c0,0,1.8-2.8,1.8-3.5
		s-0.3-3.2-0.3-3.2l4.3,0.3l1.3-4.3l3.5-1.5l1.8-4l-5.3,0.3c0,0,0.8-3,1.5-3s3-1.5,3-1.5l-3,0.3C403.5,20.4,401.5,19.1,401.5,19.1z"
		/>
	<path id="path4145" class="st1" d="M444,21.6l-1.3,4.8l-1,7.8l7.5-0.5c0,0,2.8-0.3,2.3-1.8c-0.9-2-1.9-4.1-3-6l3.3-2l1.3-3
		l-4.3,0.5L444,21.6z"/>
	<path id="path4147" class="st1" d="M420.9,14.9c0,0-0.3,2.8,0.5,3s4,0.8,4,0.8l2.8,3.3l4,1.8l2.8,0.8l-1.8-3.5l-5.5-2.8l-0.3-1.5
		L420.9,14.9z"/>
	<path id="path4149" class="st1" d="M432.9,0.6l-2,2l4.3,3.3l3.3-1.8l-2.8-2.5L432.9,0.6z"/>
	<path id="path4151" class="st1" d="M429.4,5.9l-0.5,2c0,0-5.8,0.8-5,1.3c1.6,0.6,3.2,1.1,4.8,1.5l3.3-1.8c0,0,3.5,1,3,0.3
		s-1.8-2.8-1.8-2.8L429.4,5.9z"/>
	<path id="path4153" class="st1" d="M428.9,33.6l-1.8,1.8c0,0-0.5,6.5,0.3,6.2s5,0.3,4.8-0.8s-0.3-2.2-0.3-3.3v-2.7L428.9,33.6z"/>
	<path id="path4155" class="st1" d="M433.9,31.6c0,0,0.3,3,0.5,4c0.5,1.6,1.1,3.2,1.8,4.7l1.8-4.5l1.5-1l-3.5-2.5L433.9,31.6z"/>
	<path id="path4157" class="st1" d="M427.9,14.4c0.8,1.2,1.7,2.3,2.8,3.3c0.8,0.5,3.5,2,3.5,2l1.3-2l-3.3-3.3
		C432.2,14.4,427.9,14.4,427.9,14.4z"/>
	<path id="path4159" class="st1" d="M446.4,14.6l0.3,2.5l3.5,2l1.8-3.5l-2.5-1H446.4z"/>
	<path id="path4161" class="st1" d="M414.9,33.9l-1.5,2.5c0,0-5.3,2.7-1.5,3s7.3,0.5,7.3,0.5l-0.5-3.5L414.9,33.9z"/>
</g>
<g id="g7370">
	<path id="path4253" class="st0" d="M197.1,389.6l-2.5,1.3l-2.3,1.2l-1,3.3l-0.8,1.7l-3.8,1.7l-0.2,2.2l-1.5,0.5l-3.2-0.2h-1.3
		l-1.7-1.5h-2.2l0.8,2.7l0.8,1.5l0.3,2.7l-2.5,0.2l-2.3-0.2l-2.2-1.5l-2.3,0.2l-2.8,1.5l-2.7,0.3c0,0-2.5,0-1.8,0.3s2.2,1,2.2,1
		l1.7,1l-0.8,1.2l2,1.3l1.7-0.2l2.3,1.5l1,1l1.2-0.2l1.8,0.2l-0.5,2.2l1.3,1.5l0.7,1.3l2.2,2l1.5,1.7l-0.2,1.2l0.5,2.2l0.5,0.8
		l-1-0.2l-0.5,2.5l0.3,3.2l-0.3,2.8l-0.3,1.8l1.3,1.7l-0.3,1.5l3.7,1.2l3.2,0.3l3-0.2l2,0.3l2,1.3l3.2,0.5h2.2l0.7-2.2l-0.7-0.7
		l1.3-1.8l1.2,0.2l2-1l1.7,0.8l2.2,0.8l1.7,0.3l2,0.3l2.5-0.3l0.5-1.3l2.2-1.2l1.3-1l2.5-1.7l-1.4-1.4l-1.4-0.6l-1.2-1l-0.1-2.9
		l-0.9-0.8l1.6-2.5l0.2-3.4l-0.9-2.9l-1.3-0.7l-1.9,0.7l0.8-2.7l2.5-3.6l2.4-1.4l-0.5-3.4l0.7-2.4l2.6-3.5l-3.8-0.7l-3.2-1.2
		l-2.2-0.7h-1l-3.8-2.5l-0.3-2.2l-2.2,1.3l-1-2l-1.5-2.2l-2.3-0.2l-0.8-1.3l-1.2-0.2L197.1,389.6L197.1,389.6z"/>
	<path id="path4255" class="st0" d="M225.4,441.1l-0.5,1.7h-1l-1.3,1.3l-0.5,1.8l0.8,1.7l1.3,2l1,1.2l1-2.5l0.5-1.8l-0.5-3.2v-1.5
		L225.4,441.1z"/>
</g>
<path id="path4301" class="st1" d="M25.2,169.2l0.2,1.5l1.2,2.4l-0.5,2.5l-1.2-1.6l-0.8-1.8l-1.8-0.3l-2.8-0.3h-0.8l0.5,1.6l1.6,2.2
	v2.2l0.5,2.5l2,0.2l0.8,1.2l-2.5-0.3l-0.8,0.5l0.3,2.4l-0.5,2.6l0.1,3l-0.8,2l-0.9,2.9l0.7,2l0.5,2.6l0.3,1.9l-0.5,2.6l0.3,1.8
	l0.8,1.8l0.7,2.2l0.5,1.5l2.4,1.9l1.2-0.1l1.6,0.2l-1.7,0.5l0.5,0.8l-1.5,0.2l1.4,1.5l1.4,1.5l-0.4,1.4l1.8,2.6l1.9,1.6l0.2,1.9
	l1.6,0.8l2.2,0.7l1.7,1.5l1.5,0.9l1.6,1.2l0.9,0.7l1,2.2l5.8-0.1l11.3,3.9h9.4l-0.2-0.9h4.5l1.8,1l1,1l2.6,1.8l0.9,3.3l2.6,1.4
	l1.6,0.7l2.2-2.6l2.8,0.3l1.2,0.9l3,4.9l1,1.2l0.8,2.8l6,2.4l-0.2-2l-0.2-2.8l1.9-2.2l-0.3-0.7l1.9-1.6l1,0.5l1.7-1.9l1-1.4h1.5
	l3.3-0.7l2.4,1h1.8l0.7-0.8l0.8,0.5l0.1,1l2.4,0.8l2.2-0.3l1.9,0.1l-1.6-1.2l-0.1-0.7l1-0.5l-0.1-0.5h-1.6l-1.8,0.3l1.2-1l0.5-0.7
	l0.5,0.5l3.3-0.5l0.5,0.5h2.2l1.2-0.3l1.8-0.1l1.7,0.7l1-0.1l1,1.5l2,0.1l1.2-0.9h1.2l2.2,1.9l1.2,1.4l0.3,1.8l-0.2,2.2l0.8,2.4
	l2.2,2.7l1.2,2.6l0.5,1l2.2-0.5l0.5-2.5v-3.7l-1.2-3l-0.3-0.8l-0.2-2.2l-1.9-2.2l-0.3-2.7l0.1-2.2l0.9-2.5l1.7-1.4l-0.1-1l2-0.3
	l2.9-3.3l1.4-1.2l1.5,0.2l1.4-2.6l1.9-1c0,0,1.5,0.2,1.6-0.3c0.5-1.1,1-2.2,1.6-3.3l-1.6-0.9l0.9-0.8l0.2-0.5l-0.9-2.2l-0.9-1
	l1.2-1.2l-0.9-1.2l-0.2-2.2l-0.1-1.9l0.7-0.5l0.5,2.8l0.3,1.4l0.8,1.2l-0.2,2l1.2-2.5l0.8-1.9l0.1-1.2l-1.2-1.4l-0.1-0.5l0.3-0.3
	l1.8,1.2l0.5-1.4l1.2-1.2l0.2-1.4l-0.2-1.6l0.1-0.8l0.2-1.2l0.9,1.2h0.5l1.4-0.2l1.4-0.1l1.8-0.5l-0.3-0.7l-1.8,0.1l-1.7,0.5
	l-0.8,0.5l-0.1-0.8l0.5-0.7l1.5-0.3l1.8-0.3l1.2-0.3l1-0.7l2.4,0.5c0,0,1,0.5,1.2,0.2c0.2-0.4,0.4-0.8,0.5-1.2l-0.8-0.9l-0.3-1.4
	l0.2-2.2l0.2-1.8l1-1.4l0.2-0.5l0.7,0.3l2.2-2.4h0.8l1.8-0.2l0.5-1.2h1.6l1.4-1.2l-0.5-0.6l-1.2-1.6l-0.7-0.5l0.3-3.8l-0.3-3.5
	l-2-0.6l-1.8,0.6l-0.9-0.1l-3.9,9.1l-1.8,0.1l-0.8,0.7l-9.6-0.1l-2.4,2.2l-1.5,0.9l-0.7,1.9l-0.3,1l-1.7,1.2h-1.9l-1.2-0.5l-1.6,0.2
	l-2,0.7l0.1,1l-0.1,1.8l-1,0.9l-2,0.5l-3.2,1.6l-2.4,0.8l-2.2,0.1l-1.4-1l0.7-1.2l0.3-0.3l0.5-1.2l0.9-0.5l1.1-1.9l-1-1.5l-0.2-2.4
	l-1.5-0.5l-1.9,1.4l0.7-1.6l1.2-1.6l-0.5-1.5l-0.3-1.7l-1.8-0.7l-1.6-1.4l-1.9,0.8l0.1,1.5l-1.2,1.4l-0.9-0.5l-1.8,1.9v2.2l0.2,2.2
	l1,1.6l-0.1,3.3l-2.2,2l-1.6,0.1l-0.8-2.4l-0.8-1.7l0.3-2.2l-0.3-2.2l0.8-1.5l0.5-1.5l0.8-2.5l-1.8,2l1-3.5l1.6-1.4l1.9-0.1l1.5-0.7
	h4.3l1.2-0.3l1.5,0.2l0.7,1.2l2.8,1l0.5-1.6l-1.9,0.2l-1.2-0.1l-1.8-1.4l-1.2-0.7l-1.3-0.9l-1.3,0.4l-1.2-0.9l-2.9,0.1l-1.6,1
	l-1.2-0.8l-1.5-0.8l-2.2-0.1l2.2-3l-2.5,1.2l-2,1.6l-2,1.2l-1.8,0.2l-0.2-1.2l-3.7,0.8l3.1-2.7l2.2-1.6l2.7-2.2l-1.2-0.2l-3.7,0.1
	l-1.7-0.3l-1.6-0.3l-1.6-1.1l-1.7,0.1l-3.3-0.8l-0.9-1l-0.5-1.6l-0.8-0.7l0.1,0.9l-0.8,1.2l-79.3,0.1L25.2,169.2L25.2,169.2z"/>
<path id="path3965" class="st0" d="M222.9,362.3l-0.8-1.4l0.3-3.1l-2.3-0.3l-0.3-4.9l0.3-2.8l2-0.4l-0.9-2.9l1.8-0.9l2.8-0.8
	l2.1-2.8l1.8-1.8l1.4-0.1l-0.9,2.1l0.8,1l-1,2.5l-1.1,0.6l1,1.6l-0.3,3l2.8-0.9l-0.6,2.4l-3,0.6c0,0-0.6,1-0.5,1.4s0.3,2,0.3,2
	l-1.3,0.3l-0.6,0.9l1.8,0.3l1.4-1.1l1,1.5l1.5,0.9l-0.1,1.9l-2.4,0.9h-1.6l-0.5-1.1l-0.3-2l-0.4-0.5l-0.8,0.4l-0.3,1.3l-0.1,1
	l0.3,1.3L222.9,362.3z"/>
<path id="path3967" class="st0" d="M238.6,353.3l-2,0.9l-0.4,2l-1-1.5l-1.6,1c0,0-1,1.1-0.5,1.5s1,2.6,1,2.6l1.4,0.3l1,1.4l-1.3,0.4
	l-2,0.3l0.5,1.6l1.9,0.6l0.8-1.9l0.6-0.8l0.6-1.4l1.6-0.8l-0.6-1.6l-0.9-1.3l0.6-1.4l1-0.1L238.6,353.3z"/>
<polygon points="319.1,220.3 325.8,220.3 323.1,222 325.9,223.7 319.1,223.7 "/>
<rect x="319.1" y="220.4" width="0.6" height="9.2"/>
<polygon points="761,294.6 767.8,294.6 765.1,296.3 767.8,298 761,298 "/>
<rect x="761" y="294.7" width="0.6" height="9.2"/>
<polygon points="872.4,365.8 879.2,365.8 876.5,367.4 879.2,369.2 872.4,369.2 "/>
<rect x="872.4" y="365.9" width="0.6" height="9.2"/>
<polygon points="758.1,426.6 764.9,426.6 762.2,428.3 764.9,430.1 758.1,430.1 "/>
<rect x="758.1" y="426.7" width="0.6" height="9.2"/>
<polygon points="580.4,191.1 587.2,191.1 584.4,192.8 587.2,194.5 580.4,194.5 "/>
<rect x="580.4" y="191.2" width="0.6" height="9.2"/>
<polygon points="580.4,346.6 587.2,346.6 584.4,348.3 587.2,350 580.4,350 "/>
<rect x="580.4" y="346.7" width="0.6" height="9.2"/>
<polygon points="384.8,431.7 391.5,431.7 388.8,433.4 391.6,435.1 384.8,435.1 "/>
<rect x="384.8" y="431.8" width="0.6" height="9.2"/>
<polygon points="378.7,424.6 385.4,424.6 382.7,426.3 385.5,428.1 378.7,428.1 "/>
<rect x="378.7" y="424.8" width="0.6" height="9.2"/>
<polygon points="368.3,424.7 375,424.7 372.3,426.4 375.1,428.1 368.3,428.1 "/>
<rect x="368.3" y="424.8" width="0.6" height="9.2"/>
<polygon points="523,427.4 529.8,427.4 527.1,429.1 529.8,430.8 523,430.8 "/>
<rect x="523" y="427.5" width="0.6" height="9.2"/>
<polygon points="476.2,439.3 483,439.3 480.2,441 483,442.7 476.2,442.7 "/>
<rect x="476.2" y="439.4" width="0.6" height="9.2"/>
<polygon points="462,424.7 468.7,424.7 466,426.4 468.8,428.1 462,428.1 "/>
<rect x="462" y="424.8" width="0.6" height="9.2"/>
<polygon points="563.9,263.8 570.7,263.8 568,265.4 570.7,267.2 563.9,267.2 "/>
<rect x="563.9" y="263.9" width="0.6" height="9.2"/>
<polygon points="547.1,262.5 553.8,262.5 551.1,264.2 553.9,266 547.1,266 "/>
<rect x="547.1" y="262.6" width="0.6" height="9.2"/>
<polygon points="529.9,293.9 536.7,293.9 534,295.6 536.7,297.4 529.9,297.4 "/>
<rect x="529.9" y="294" width="0.6" height="9.2"/>
<polygon points="506.6,294.7 513.3,294.7 510.6,296.4 513.4,298.1 506.6,298.1 "/>
<rect x="506.6" y="294.8" width="0.6" height="9.2"/>
<polygon points="406.5,282.4 413.3,282.4 410.5,284.1 413.3,285.8 406.5,285.8 "/>
<rect x="406.5" y="282.5" width="0.6" height="9.2"/>
<polygon points="422.8,291.7 429.5,291.7 426.8,293.4 429.6,295.2 422.8,295.2 "/>
<rect x="422.8" y="291.8" width="0.6" height="9.2"/>
<polygon points="394.8,299.3 401.5,299.3 398.8,301 401.6,302.8 394.8,302.8 "/>
<rect x="394.8" y="299.5" width="0.6" height="9.2"/>
<polygon points="357.1,341.6 363.8,341.6 361.1,343.3 363.9,345 357.1,345 "/>
<rect x="357.1" y="341.7" width="0.6" height="9.2"/>
<polygon points="279.8,355.2 286.5,355.2 283.8,356.9 286.6,358.7 279.8,358.7 "/>
<rect x="279.8" y="355.3" width="0.6" height="9.2"/>
<polygon points="169.6,452.9 176.4,452.9 173.7,454.5 176.4,456.3 169.6,456.3 "/>
<rect x="169.6" y="453" width="0.6" height="9.2"/>
<polygon points="414.3,317.5 421.1,317.5 418.4,319.2 421.1,320.9 414.3,320.9 "/>
<rect x="414.3" y="317.6" width="0.6" height="9.2"/>
<polygon points="433.8,310.3 440.6,310.3 437.9,312 440.6,313.7 433.8,313.7 "/>
<rect x="433.8" y="310.4" width="0.6" height="9.2"/>
<polygon points="396.5,343 403.2,343 400.5,344.7 403.3,346.4 396.5,346.4 "/>
<rect x="396.5" y="343.1" width="0.6" height="9.2"/>
<polygon points="374.7,312.9 381.5,312.9 378.8,314.6 381.6,316.4 374.7,316.4 "/>
<rect x="374.7" y="313" width="0.6" height="9.2"/>
<polygon points="389.1,325.5 395.8,325.5 393.1,327.2 395.9,328.9 389.1,328.9 "/>
<rect x="389.1" y="325.6" width="0.6" height="9.2"/>
<polygon points="422.8,337 429.5,337 426.8,338.7 429.6,340.5 422.8,340.5 "/>
<rect x="422.8" y="337.2" width="0.6" height="9.2"/>
<polygon points="409.9,302.3 416.7,302.3 413.9,303.9 416.7,305.7 409.9,305.7 "/>
<rect x="409.9" y="302.4" width="0.6" height="9.2"/>
<polygon points="448,288.8 454.7,288.8 452,290.5 454.8,292.2 448,292.2 "/>
<rect x="448" y="288.9" width="0.6" height="9.2"/>
<polygon points="454.8,320.4 461.5,320.4 458.8,322.1 461.6,323.9 454.8,323.9 "/>
<rect x="454.8" y="320.5" width="0.6" height="9.2"/>
<polygon points="477.4,375.8 484.2,375.8 481.5,377.5 484.2,379.2 477.4,379.2 "/>
<rect x="477.4" y="375.9" width="0.6" height="9.2"/>
<polygon points="503.8,355.3 510.5,355.3 507.8,357 510.6,358.7 503.8,358.7 "/>
<rect x="503.8" y="355.4" width="0.6" height="9.2"/>
<polygon points="377.3,359.6 384,359.6 381.3,361.3 384.1,363 377.3,363 "/>
<rect x="377.3" y="359.7" width="0.6" height="9.2"/>
<polygon points="462,341.8 468.8,341.8 466,343.5 468.8,345.3 462,345.3 "/>
<rect x="462" y="342" width="0.6" height="9.2"/>
<polygon points="360.5,358.7 367.2,358.7 364.5,360.4 367.3,362.2 360.5,362.2 "/>
<rect x="360.5" y="358.8" width="0.6" height="9.2"/>
<polygon points="319.1,314.5 325.8,314.5 323.1,316.2 325.9,318 319.1,318 "/>
<rect x="319.1" y="314.6" width="0.6" height="9.2"/>
<polygon points="374.7,340.6 381.5,340.6 378.8,342.3 381.6,344 374.7,344 "/>
<rect x="374.7" y="340.7" width="0.6" height="9.2"/>
<polygon points="360.3,414.1 367.1,414.1 364.4,415.8 367.1,417.5 360.3,417.5 "/>
<rect x="360.3" y="414.2" width="0.6" height="9.2"/>
<polygon points="377.8,406.9 384.5,406.9 381.8,408.6 384.6,410.3 377.8,410.3 "/>
<rect x="377.8" y="407" width="0.6" height="9.2"/>
<polygon points="393.7,374.6 400.4,374.6 397.7,376.3 400.5,378 393.7,378 "/>
<rect x="393.7" y="374.7" width="0.6" height="9.2"/>
<polygon points="356.8,381.1 363.5,381.1 360.8,382.8 363.6,384.6 356.8,384.6 "/>
<rect x="356.8" y="381.3" width="0.6" height="9.2"/>
<polygon points="345,369.9 351.8,369.9 349,371.6 351.8,373.3 345,373.3 "/>
<rect x="345" y="370" width="0.6" height="9.2"/>
<polygon points="461.9,342.3 468.7,342.3 465.9,343.9 468.7,345.7 461.9,345.7 "/>
<rect x="461.9" y="342.4" width="0.6" height="9.2"/>
<polygon points="334.1,351.3 340.9,351.3 338.2,352.9 340.9,354.7 334.1,354.7 "/>
<rect x="334.1" y="351.4" width="0.6" height="9.2"/>
<polygon points="326.8,334.1 333.5,334.1 330.8,335.8 333.6,337.5 326.8,337.5 "/>
<rect x="326.8" y="334.2" width="0.6" height="9.2"/>
<polygon points="348.4,325.1 355.2,325.1 352.4,326.8 355.2,328.5 348.4,328.5 "/>
<rect x="348.4" y="325.2" width="0.6" height="9.2"/>
<polygon points="356.8,305.8 363.5,305.8 360.8,307.4 363.6,309.2 356.8,309.2 "/>
<rect x="356.8" y="305.9" width="0.6" height="9.2"/>
<polygon points="337.7,302.8 344.4,302.8 341.7,304.5 344.5,306.2 337.7,306.2 "/>
<rect x="337.7" y="302.9" width="0.6" height="9.2"/>
<polygon points="373.8,287.1 380.6,287.1 377.9,288.8 380.7,290.5 373.8,290.5 "/>
<rect x="373.8" y="287.2" width="0.6" height="9.2"/>
<polygon points="420,363.4 426.7,363.4 424,365.1 426.8,366.8 420,366.8 "/>
<rect x="420" y="363.5" width="0.6" height="9.2"/>
<polygon points="519.4,251.2 526.2,251.2 523.5,252.9 526.2,254.6 519.4,254.6 "/>
<rect x="519.4" y="251.3" width="0.6" height="9.2"/>
<polygon points="432.7,412.5 439.5,412.5 436.8,414.2 439.6,415.9 432.7,415.9 "/>
<rect x="432.7" y="412.6" width="0.6" height="9.2"/>
<polygon points="412.6,427.9 419.4,427.9 416.7,429.6 419.4,431.4 412.6,431.4 "/>
<rect x="412.6" y="428.1" width="0.6" height="9.2"/>
<polygon points="409.2,402.8 416,402.8 413.3,404.5 416,406.3 409.2,406.3 "/>
<rect x="409.2" y="403" width="0.6" height="9.2"/>
<polygon points="767.8,425.4 774.5,425.4 771.8,427.1 774.6,428.8 767.8,428.8 "/>
<rect x="767.8" y="425.5" width="0.6" height="9.2"/>
<polygon points="439.3,348.3 446,348.3 443.3,350 446.1,351.7 439.3,351.7 "/>
<rect x="439.3" y="348.4" width="0.6" height="9.2"/>
<polygon points="439.3,366.9 446,366.9 443.3,368.6 446.1,370.4 439.3,370.4 "/>
<rect x="439.3" y="367.1" width="0.6" height="9.2"/>
<polygon points="315.7,403.1 322.4,403.1 319.7,404.8 322.5,406.6 315.7,406.6 "/>
<rect x="315.7" y="403.3" width="0.6" height="9.2"/>
<polygon points="343.4,387.7 350.1,387.7 347.4,389.4 350.2,391.2 343.4,391.2 "/>
<rect x="343.4" y="387.9" width="0.6" height="9.2"/>
<polygon points="333.6,418.9 340.3,418.9 337.6,420.6 340.4,422.4 333.6,422.4 "/>
<rect x="333.6" y="419.1" width="0.6" height="9.2"/>
<polygon points="330.2,476.6 336.9,476.6 334.2,478.3 337,480.1 330.2,480.1 "/>
<rect x="330.2" y="476.8" width="0.6" height="9.2"/>
<path d="M36.9,135.7l-2.9,3.1h-3.7l-2.9-3.1v-13.5l2.9-2.9H34l2.9,2.9V135.7z M34.6,134.8v-11.7l-1.5-1.5h-1.7l-1.5,1.5v11.7
	l1.6,1.7h1.7L34.6,134.8z"/>
<path d="M43,119.5v16.9h4.1v-2h2.3v4.3h-8.7v-16l1-0.6v-0.2h-2.3v-2.3L43,119.5z"/>
<path d="M51,121.9v-2.3h7.5l2.9,2.9v13.3l-2.9,2.9h-6.1v-16l1-0.6v-0.2H51z M57.5,136.3l1.5-1.5v-11.4l-1.5-1.5h-2.8v14.4H57.5z"/>
<path d="M63.8,119.5h7l2.9,2.9v4.7l-1.4,1.7l1.9,1.9v5.1l-2.9,2.9h-6.1v-16l1-0.6v-0.2h-2.3L63.8,119.5z M69.9,127.8l1.4-1.6v-2.8
	l-1.5-1.5h-2.3v5.9H69.9z M67.5,136.3h2.8l1.5-1.5v-3.1l-1.6-1.6h-2.7L67.5,136.3z"/>
<path d="M86.7,135.6l-2.9,3.1h-3.7l-2.9-3.1v-13.5l2.9-2.9h3.7l2.9,2.9V135.6z M84.4,134.7V123l-1.5-1.5h-1.7l-1.5,1.5v11.7l1.6,1.7
	H83L84.4,134.7z"/>
<path d="M94.9,128.7l1.5-5.1l1.4-4.1h2.5l-4.4,12.1v7.1h-2.3v-7.1l-3.4-9.2l0.8-0.5v-0.2h-2.5v-2.2h3.2l1.5,4.2l1.5,5.1L94.9,128.7z
	"/>
<path d="M106.5,138.6v-2.1h2.1v-14.1l1-0.6v-0.2h-2.8v-2.1h6v2.1H111v14.9h2.1v2.1H106.5z"/>
<path d="M114.3,119.5h4.5l2.2,6.8l2.1,8h0.1l-0.5-8.1v-6.7h2.3v19.1h-2.5l-3-9.4l-1.7-6.3h-0.1l0.3,6.5v9.2h-2.3v-16l1-0.6v-0.2
	h-2.3L114.3,119.5z"/>
<path d="M135.7,119.4v15.3l1.5,1.6h1.5l1.5-1.6v-15.3h2.3v16.2l-2.7,3.1h-3.6l-2.8-3.1v-13.3l1-0.6v-0.2h-2.3v-2.1
	C132.1,119.4,135.7,119.4,135.7,119.4z"/>
<path d="M147.2,138.5h-2.3v-2.4h2.3V138.5z"/>
<path d="M151.8,134.7l1.5,1.6h1.7l1.5-1.6v-3l-6.9-4.8v-4.8l2.7-2.9h3.6l2.7,2.9v2.9h-2.3v-2l-1.4-1.5h-1.6l-1.4,1.5v2.7l6.9,4.8
	v5.2l-2.8,3h-3.7l-2.8-3v-3.5h2.3V134.7z"/>
<path d="M163.3,138.5H161v-2.4h2.3V138.5z"/>
<path d="M166.1,119.3h6l2.9,19.1h-2.3l-0.7-5h-4l-0.7,5H165l2.3-16l1-0.6v-0.2h-2L166.1,119.3z M170.1,121.6h-0.5l-1.4,9.5h3.3
	L170.1,121.6z"/>
<polygon points="276.4,428.2 283.1,428.2 280.4,429.9 283.2,431.7 276.4,431.7 "/>
<rect x="276.4" y="428.4" width="0.6" height="9.2"/>
<polygon points="306.9,365.4 313.6,365.4 311,367 313.6,368.8 306.9,368.8 "/>
<rect x="306.9" y="365.5" width="0.6" height="9.2"/>
<polygon points="369.9,435.8 376.6,435.8 373.9,437.5 376.7,439.2 369.9,439.2 "/>
<rect x="369.9" y="435.9" width="0.6" height="9.2"/>
<polygon class="st4" points="8.2,87.6 8.2,293.9 138.8,293.9 193.9,240.1 193.9,87.6 "/>
<rect x="187" y="81.2" class="st4" width="14.4" height="14.3"/>
<rect x="1" y="80.4" class="st4" width="14.4" height="14.3"/>
<rect x="1" y="286.7" class="st4" width="14.4" height="14.4"/>
<polygon points="31,207.4 37.8,207.4 35,209.1 37.8,210.8 31,210.8 "/>
<rect x="31" y="207.4" width="0.6" height="9.2"/>
<polygon points="359,423.6 365.8,423.6 363,425.3 365.9,427 359,427 "/>
<rect x="359" y="423.7" width="0.6" height="9.2"/>
<polygon points="508.4,212.9 515.2,212.9 512.4,214.6 515.2,216.3 508.4,216.3 "/>
<rect x="508.4" y="213" width="0.6" height="9.2"/>
<polygon points="526.5,233.8 533.3,233.8 530.5,235.5 533.3,237.2 526.5,237.2 "/>
<rect x="526.5" y="233.9" width="0.6" height="9.2"/>
<polygon points="490.1,243.1 497,243.1 494.1,244.8 497,246.5 490.1,246.5 "/>
<rect x="490.1" y="243.2" width="0.6" height="9.2"/>
<polygon points="384.2,381.5 391,381.5 388.2,383.2 391,384.9 384.2,384.9 "/>
<rect x="384.2" y="381.6" width="0.6" height="9.2"/>
<polygon points="505.6,262.5 512.5,262.5 509.6,264.2 512.5,265.9 505.6,265.9 "/>
<rect x="505.6" y="262.6" width="0.6" height="9.2"/>
<polygon points="490.1,265.9 497,265.9 494.1,267.6 497,269.3 490.1,269.3 "/>
<rect x="490.1" y="266" width="0.6" height="9.2"/>
<polygon points="469.9,299.8 476.7,299.8 473.9,301.5 476.7,303.2 469.9,303.2 "/>
<rect x="469.9" y="299.9" width="0.6" height="9.2"/>
<polygon points="477.4,307.3 484.2,307.3 481.4,309 484.2,310.7 477.4,310.7 "/>
<rect x="477.4" y="307.4" width="0.6" height="9.2"/>
<polygon points="268.3,433.9 273.3,433.9 271.2,435.1 273.3,436.4 268.3,436.4 "/>
<rect x="268.3" y="433.9" width="0.5" height="6.8"/>
<polygon points="268.3,438.3 273.3,438.3 271.2,439.5 273.3,440.8 268.3,440.8 "/>
<rect x="268.3" y="438.3" width="0.5" height="6.8"/>
<polygon points="403.1,356.6 409.9,356.6 407.1,358.3 409.9,360 403.1,360 "/>
<rect x="403.1" y="356.7" width="0.6" height="9.2"/>
<polygon points="489,285.8 495.8,285.8 493,287.5 495.8,289.2 489,289.2 "/>
<rect x="489" y="285.9" width="0.6" height="9.2"/>
<polygon points="398.5,447.6 405.2,447.6 402.5,449.3 405.3,451 398.5,451 "/>
<rect x="398.5" y="447.6" width="0.6" height="9.2"/>
<path id="path3807_5_" class="st1" d="M380.4,460c0,0,0.4-0.8,1.4-1.2l1.1,1.6l2.8-0.2l0.8,4c-0.1,0.5-1.3,0.8-1.4,1.3
	C381.1,463.4,380.4,460,380.4,460z"/>
<path id="path3807_1_" class="st1" d="M415.5,469.7l-18.6-1.8"/>
</svg>
