<svg width="1940" height="87" viewBox="0 0 1940 87" fill="none" xmlns="http://www.w3.org/2000/svg">
<path d="M222.132 21.5429C221.397 20.7143 220.662 19.8857 219.683 19.3333C220.417 23.7524 219.928 17.6762 218.703 23.7524C212.824 24.3048 219.683 24.581 213.803 23.2H211.354V22.9238C210.864 21.2667 211.599 22.0952 210.374 21.2667L209.639 23.4762C208.414 23.4762 207.19 23.2 206.21 22.9238C202.29 22.9238 206.21 25.6857 196.411 26.7905C196.411 24.8571 197.391 25.1333 192.002 23.4762C192.247 22.3714 192.247 22.9238 192.737 22.0952C193.717 20.1619 192.737 23.2 193.472 20.7143C191.757 20.4381 190.042 19.8857 188.327 19.3333C184.163 18.2286 188.327 19.6095 183.673 19.6095C183.673 20.4381 183.918 21.5429 184.163 22.3714C183.183 22.3714 182.203 22.6476 181.224 22.9238L179.509 24.0286C179.019 22.0952 179.019 22.6476 179.999 21.2667C176.814 21.2667 178.529 22.3714 177.304 23.7524L176.569 24.581H176.324C175.1 24.8571 173.875 24.8571 172.405 24.8571C168.976 24.3048 172.65 24.3048 169.465 23.2L166.036 24.3048C166.036 22.6476 166.036 23.2 165.546 22.0952C163.831 23.4762 164.566 22.9238 162.851 22.9238C161.382 22.9238 160.157 22.9238 158.687 22.6476C159.177 22.0952 159.667 21.819 160.157 21.5429L159.422 21.2667C158.932 20.9905 158.442 20.9905 157.952 20.9905C157.462 22.9238 157.217 22.9238 155.503 23.2L152.563 23.7524C152.073 23.7524 150.113 23.4762 150.113 23.4762H149.869L148.889 23.2H148.644L141.785 22.9238C142.52 20.1619 142.52 22.3714 143.255 19.6095C138.845 22.3714 140.07 23.2 138.355 23.4762C136.641 23.7524 136.886 23.2 136.396 22.3714C137.13 20.9905 136.886 20.9905 138.845 20.7143V19.0571C137.13 18.781 137.865 18.2286 136.641 19.3333C134.191 20.9905 135.416 23.2 129.047 23.4762C128.802 22.3714 129.292 22.9238 128.557 22.3714H127.087C123.413 21.2667 123.903 22.0952 122.188 20.7143C121.208 22.9238 122.433 22.0952 120.718 23.4762C120.228 23.2 119.738 22.9238 119.248 22.3714C118.513 21.819 118.758 22.0952 117.779 21.819C117.289 24.0286 117.534 23.4762 115.329 23.4762V22.3714H114.349C113.369 22.6476 113.859 22.6476 113.369 22.9238C110.92 23.2 109.205 25.4095 108.225 22.9238C107 20.4381 108.225 23.4762 107.98 22.3714C107.49 19.3333 108.96 23.7524 107.98 21.5429C106.755 22.3714 107.49 22.0952 105.53 22.0952C105.041 23.4762 105.285 22.6476 105.53 24.3048C104.061 24.0286 105.041 24.3048 104.551 24.0286C103.571 23.2 103.081 21.819 103.081 20.4381L100.141 19.6095C99.1615 19.0571 100.631 19.3333 99.4064 19.6095C98.1816 19.8857 100.141 19.6095 98.4266 19.8857C95.2421 20.4381 96.7118 18.5048 91.8126 21.2667L93.0374 23.2L92.7924 23.4762C89.363 23.2 85.9335 22.6476 82.5041 21.819C82.994 21.5429 82.5041 21.5429 83.4839 21.2667H84.9537L83.4839 19.6095C80.7893 18.2286 78.5847 20.1619 76.1351 20.1619C72.4606 19.8857 77.1149 19.0571 72.9506 19.0571C71.4808 19.0571 70.7459 19.8857 69.0312 20.1619C68.7862 18.781 68.2963 18.781 67.5614 17.9524C68.7862 18.2286 69.7661 18.5048 70.9909 18.5048V17.4C69.7661 17.4 68.2963 17.1238 67.0715 16.8476C67.0715 20.9905 67.8064 19.6095 68.5413 22.3714C66.3366 22.3714 60.4575 23.7524 57.518 23.2C53.3536 22.0952 57.0281 24.3048 53.1087 23.2C49.9242 22.3714 50.6591 23.2 47.2296 22.9238C43.8001 22.6476 43.5552 21.2667 39.3908 21.2667C38.6559 23.4762 39.8807 21.2667 38.9009 23.4762C37.9211 23.2 36.6962 23.4762 35.7164 23.7524C32.7769 25.1333 29.5924 25.9619 26.4079 25.6857C26.6528 25.1333 28.3676 22.9238 25.1831 23.7524L20.2838 25.1333C20.0389 24.581 19.7939 24.3048 19.5489 23.7524L18.8141 22.9238L15.8745 22.0952C14.4047 22.0952 15.3846 22.0952 13.9148 22.6476C13.4249 20.9905 14.1598 22.3714 12.935 20.9905C11.9551 21.2667 12.4451 20.7143 11.9551 22.3714V22.6476L1.91171 21.819C1.91171 21.819 0.196972 22.0952 -0.29295 22.0952C-0.53791 22.9238 -0.782871 21.819 -0.29295 22.9238L0.196972 24.0286C-2.25264 24.0286 -1.2728 23.4762 -2.25264 25.1333C-0.537914 25.6857 -1.02784 25.4095 -0.29295 26.7905C-2.74257 26.7905 -3.72241 27.3429 -6.66195 27.3429H-13.5209L-14.0108 29.5524C-15.9705 29 -16.9503 29.5524 -17.9302 27.8952C-13.7658 27.8952 -15.7255 26.7905 -11.5612 26.7905L-15.7255 26.2381C-16.7054 24.3048 -17.6852 24.8571 -21.3596 26.2381C-23.0744 26.7905 -21.8496 26.7905 -24.0542 27.0667L-37.0372 25.9619C-36.3023 24.8571 -36.5473 25.4095 -36.0573 23.7524C-32.6279 23.7524 -32.6279 22.9238 -33.1178 25.4095H-28.7085C-27.7286 22.3714 -26.9938 25.1333 -25.279 22.6476C-29.6883 22.3714 -34.0977 22.0952 -38.507 22.3714H-44.386C-46.5907 22.6476 -48.7953 22.3714 -51 22.0952C-50.2651 23.7524 -51 23.4762 -51 26.5143L-41.2015 27.0667L-42.9163 28.1714C-44.1411 29.2762 -43.1612 27.8952 -43.1612 28.7238V29C-45.8558 29.2762 -48.3054 29.5524 -51 29.5524L-51 87H970V30.1048C969.265 30.6571 968.285 30.6571 967.55 30.1048C966.081 29.2762 966.57 29.2762 967.55 27.8952C964.856 27.8952 964.121 28.1714 963.631 25.6857C967.06 27.8952 965.101 25.6857 969.51 25.6857V24.0286C965.591 23.4762 970.98 21.819 964.611 21.819C963.386 25.4095 961.671 22.9238 962.651 25.6857C961.181 25.1333 961.426 24.8571 960.936 24.8571C959.467 24.8571 961.671 24.8571 959.712 25.6857C957.997 25.1333 956.037 24.8571 954.322 25.1333C953.588 22.0952 952.853 23.7524 949.423 21.819C948.933 20.1619 949.668 21.5429 948.443 20.1619C947.219 20.4381 947.708 20.1619 946.729 21.5429L946.239 21.819L944.769 23.7524C941.829 26.2381 937.665 22.6476 934.97 24.0286C935.46 22.3714 935.95 22.3714 937.91 22.3714V20.9905C934.481 20.7143 938.4 20.4381 934.97 19.3333C934.48 20.7143 935.215 19.0571 935.46 21.5429L932.521 22.0952C932.766 18.2286 933.991 18.5048 929.336 17.1238H929.091L922.967 16.019C922.967 16.019 920.763 16.5714 920.518 16.8476L918.803 18.2286L917.088 19.8857C913.904 21.819 910.229 22.6476 906.555 22.3714C905.085 22.3714 903.37 22.3714 901.901 22.6476V21.2667C900.921 22.0952 900.921 22.3714 899.696 22.6476C898.471 22.9238 898.226 22.0952 897.491 21.819C895.777 20.1619 897.246 20.9905 894.797 20.7143C893.327 22.0952 894.062 20.9905 893.327 24.0286C887.448 24.581 894.552 24.8571 888.428 23.4762H885.978C885.488 22.3714 886.223 22.3714 884.998 21.2667L884.508 23.4762C879.364 23.4762 881.079 21.5429 878.139 24.581C876.18 25.9619 873.73 26.7905 871.28 26.7905C871.28 24.8571 872.505 25.1333 866.871 23.4762C867.361 21.5429 867.606 22.6476 868.341 20.7143C866.626 20.4381 864.911 19.8857 863.197 19.3333C859.032 18.2286 863.197 19.6095 858.542 19.6095C858.542 20.4381 858.787 21.5429 859.032 22.3714C858.052 22.3714 857.073 22.6476 856.093 22.9238V24.0286C853.398 23.7524 854.133 22.9238 855.113 21.2667C854.133 21.2667 854.133 20.9905 853.398 21.5429C852.663 22.0952 853.153 22.0952 852.908 22.6476C852.663 23.2 852.908 23.4762 851.683 24.3048C848.009 26.5143 844.335 23.2 844.335 23.2L840.905 24.3048C840.905 22.6476 840.905 23.2 840.415 22.0952L838.456 22.9238H838.211C836.496 23.2 834.781 22.9238 833.311 22.6476C833.801 22.0952 834.291 21.819 834.781 21.5429L834.291 20.9905C833.801 20.7143 833.311 20.7143 833.066 20.7143C832.332 23.7524 831.352 22.3714 828.902 22.9238L818.859 22.0952C817.389 21.819 820.328 22.0952 818.369 22.0952H817.634C816.899 22.3714 817.879 22.0952 816.409 22.6476C817.144 19.8857 817.144 22.0952 817.879 19.3333C816.654 19.8857 815.429 20.9905 814.449 22.0952C813.469 23.2 814.204 22.9238 812.98 23.2C811.51 23.4762 811.51 22.9238 810.775 22.0952C811.755 20.7143 811.265 20.7143 813.225 20.4381V19.3333C808.325 18.2286 812.735 23.4762 803.916 23.7524C803.671 22.9238 803.916 22.9238 803.181 22.3714H802.446L800.732 22.0952H800.487C798.037 21.819 799.262 22.3714 797.547 20.9905C796.567 23.2 797.792 22.3714 796.077 23.7524C795.587 23.4762 795.097 23.2 794.607 22.6476C793.873 22.0952 794.118 22.3714 793.138 22.0952C792.648 24.3048 792.893 23.7524 790.688 23.7524L788.728 23.2C786.279 23.4762 784.809 25.6857 783.584 23.2C782.359 20.7143 783.584 23.7524 783.339 22.6476C782.604 19.6095 784.074 24.0286 783.339 21.819C782.114 22.6476 782.849 22.3714 780.89 22.3714C780.4 23.7524 780.645 22.9238 780.89 24.581C778.44 24.3048 780.89 25.9619 778.44 21.819C779.665 21.819 779.175 21.5429 779.665 21.5429L780.4 21.2667C783.829 20.1619 782.114 21.819 783.584 19.8857C781.869 19.3333 780.4 19.3333 778.685 19.3333C778.195 20.7143 778.195 19.6095 778.685 20.9905H776.725L775.745 20.4381C774.766 19.8857 776.235 20.4381 774.031 20.7143C770.846 21.2667 772.316 19.3333 767.417 22.0952C767.662 23.4762 768.152 23.4762 768.886 24.3048C765.457 24.0286 762.028 23.4762 758.598 22.6476C759.088 22.3714 758.598 22.3714 759.578 22.0952H761.048L759.578 20.4381C756.883 19.0571 754.679 20.9905 752.229 20.9905C748.555 20.7143 753.209 19.8857 748.8 19.8857C747.33 19.8857 746.595 20.7143 744.88 20.9905L743.411 18.781C744.635 19.0571 745.615 19.3333 746.84 19.3333V17.9524C745.615 17.9524 744.145 17.6762 742.921 17.4C742.921 21.5429 743.655 20.1619 744.39 22.9238C743.166 22.9238 741.696 22.9238 740.471 23.4762C737.776 24.0286 734.837 24.0286 732.142 23.4762C729.938 23.4762 732.142 23.7524 730.427 24.0286C729.448 24.0286 729.693 24.0286 728.958 23.7524C725.773 22.9238 726.508 23.7524 723.079 23.4762C719.649 23.2 719.404 21.819 715.24 21.819C714.26 24.0286 715.485 21.819 714.75 24.0286C713.77 23.7524 712.545 24.0286 711.565 24.3048L710.586 24.8571L709.851 24.0286C707.156 25.1333 704.462 25.4095 701.767 25.4095C702.012 23.7524 702.257 24.581 701.767 23.2C699.562 23.4762 700.542 24.3048 699.072 24.3048L696.378 24.8571C695.888 23.7524 695.153 23.2 694.173 22.9238L693.928 22.6476C691.724 21.5429 692.214 22.0952 690.009 22.6476C689.274 20.9905 690.254 22.3714 689.029 20.9905C687.559 21.5429 689.029 20.7143 688.294 21.5429L688.049 22.6476L686.334 22.9238L682.17 22.6476V20.9905H680.21V21.2667C680.21 21.5429 680.21 21.5429 679.965 21.819C679.965 22.3714 680.21 21.819 679.72 22.6476C677.271 20.7143 679.231 22.0952 675.801 22.0952C675.556 22.9238 675.311 21.819 675.801 22.9238L676.291 24.0286C674.331 24.0286 675.066 23.7524 673.841 24.581C675.066 26.2381 674.576 25.1333 675.801 26.7905C673.107 26.2381 669.187 28.4476 665.268 27.0667L661.593 26.2381C661.838 24.3048 661.593 25.9619 661.838 24.8571C662.083 23.7524 661.838 25.4095 662.573 23.4762C660.858 23.2 661.103 23.4762 660.124 22.3714C662.818 22.3714 672.372 23.4762 674.576 21.2667L645.426 22.0952C643.466 22.3714 641.017 22.0952 639.057 22.0952C638.322 22.0952 637.097 22.3714 636.607 22.3714L628.279 22.0952L629.748 20.4381C627.544 20.1619 625.584 20.1619 623.379 20.4381C621.175 20.9905 618.725 21.2667 616.52 20.9905C617.01 22.3714 617.01 21.2667 616.52 22.6476C619.95 21.819 623.379 21.2667 626.809 21.5429H627.299C627.299 22.3714 625.094 23.7524 624.359 24.0286L618.235 25.9619C616.765 26.2381 615.296 26.2381 613.826 25.9619C613.581 27.3429 613.336 25.1333 614.071 26.5143C614.806 27.8952 614.561 25.9619 614.316 27.0667C612.846 27.8952 613.336 27.619 611.376 27.619C611.131 27.3429 611.131 27.0667 611.131 26.7905V25.9619C609.172 26.5143 610.396 26.7905 608.682 26.7905C607.947 26.7905 606.722 26.2381 605.497 25.9619C602.558 25.4095 604.272 26.2381 601.578 26.5143H599.618V23.7524C597.413 25.4095 597.658 26.5143 592.759 27.0667C592.514 25.1333 592.514 25.1333 590.799 24.8571C591.289 27.0667 593.494 28.1714 587.86 28.7238C586.88 27.0667 586.39 27.3429 585.9 24.8571H589.82C589.33 22.3714 587.86 22.6476 586.145 23.4762H585.9C585.165 23.7524 584.43 23.7524 583.695 23.7524C584.92 26.5143 584.185 25.9619 584.185 29.8286C581.001 29.8286 578.306 32.8667 576.102 30.6571L575.367 28.7238C572.182 28.4476 568.998 28.7238 566.058 29.2762C566.548 27.0667 567.038 27.619 568.018 25.9619C565.813 25.4095 564.589 25.1333 564.589 28.7238C562.139 29 563.364 29.2762 560.914 29C559.444 28.7238 557.485 27.619 556.015 28.1714C553.565 29 556.995 27.8952 555.28 28.4476C555.035 28.4476 554.79 28.7238 554.3 29C553.075 29.5524 551.85 29.8286 550.626 30.1048C550.626 30.1048 550.871 30.1048 550.871 30.381C551.116 31.2095 550.871 30.1048 551.606 30.6571C552.34 31.2095 552.095 30.381 552.585 31.7619C551.606 32.3143 550.871 32.8667 549.891 33.1429C546.951 33.9714 547.441 32.3143 547.196 35.0762L538.378 35.6286C534.948 34.8 536.908 34.8 536.663 34.2476C535.928 32.8667 536.663 33.1429 535.928 31.2095C532.009 33.9714 534.458 32.0381 529.559 31.7619C524.66 31.4857 526.62 31.2095 526.864 30.6571L527.109 30.381L527.844 28.4476C524.415 28.7238 528.334 28.7238 526.375 29.2762L524.66 28.7238H522.7L522.21 29C521.23 29.2762 523.435 29.2762 520.74 29.5524L522.455 30.381L522.7 30.6571C520.25 30.9333 521.475 31.2095 518.536 30.9333C513.392 30.381 515.106 32.8667 506.288 30.6571C505.308 30.1048 504.083 30.1048 502.858 30.1048C500.654 29.8286 501.388 29.5524 499.429 29C499.674 25.9619 500.898 26.2381 502.858 25.6857C505.063 24.8571 507.512 24.3048 509.717 24.581C509.227 24.3048 509.717 24.3048 508.492 24.0286C507.268 23.7524 508.247 24.0286 507.023 24.0286C503.348 24.3048 499.674 23.7524 497.714 25.1333C495.754 26.5143 498.204 25.4095 495.999 25.9619V28.1714H497.959C496.979 29.8286 497.959 28.4476 496.979 29C493.795 30.381 482.036 29.8286 478.117 29.8286V31.7619C475.422 31.7619 472.728 32.3143 470.278 32.8667C471.258 29 472.238 32.8667 475.667 30.1048C474.443 30.1048 473.218 30.1048 471.993 29.8286C470.768 29.5524 470.768 30.1048 470.278 28.4476C469.053 27.619 469.053 27.0667 467.829 27.8952C467.584 29 467.829 28.7238 467.339 29.5524L465.134 29.2762C460.725 28.1714 463.174 31.4857 454.356 28.1714C452.641 27.619 454.601 27.8952 452.641 27.3429L451.171 28.4476C450.191 27.619 450.436 27.3429 448.722 27.3429C447.497 27.3429 447.497 27.619 445.782 27.8952C441.373 28.1714 442.108 27.8952 439.903 26.2381C440.393 29 440.148 27.0667 439.903 27.8952L430.839 28.1714C427.41 28.1714 431.574 27.0667 428.145 27.619C424.715 28.1714 427.655 30.381 423.491 28.1714C419.816 26.2381 422.511 29 418.101 29.2762C418.101 25.1333 420.796 25.6857 421.041 22.0952C420.061 22.3714 414.672 27.0667 414.182 28.7238C410.263 28.7238 413.447 28.1714 409.528 29C407.323 29.5524 407.568 28.4476 405.853 27.0667C404.384 28.4476 402.914 29.5524 401.199 30.1048C397.77 30.9333 396.3 28.7238 396.055 32.5905C393.605 31.4857 396.545 32.3143 394.095 31.4857C393.115 33.9714 394.34 33.6952 391.156 33.6952C391.891 32.5905 393.115 30.9333 391.401 29.2762C390.666 28.4476 390.176 28.4476 389.686 29C388.706 30.1048 389.441 28.7238 389.441 29.8286L389.931 30.9333C387.726 30.381 387.236 28.7238 385.767 28.4476C383.807 28.1714 381.602 28.4476 379.642 28.7238V28.1714C379.642 27.3429 380.132 29 379.642 27.3429C379.398 26.7905 379.642 26.5143 377.928 26.2381C377.193 27.8952 377.683 28.1714 377.193 29.8286C376.948 30.9333 376.213 31.2095 375.478 32.3143C374.498 31.2095 373.029 30.6571 371.559 30.6571L373.029 29C370.579 29.5524 371.559 29 368.619 29C368.619 29.8286 368.864 30.9333 369.109 31.7619C365.435 31.7619 366.415 32.5905 363.72 32.8667C363.72 30.6571 363.475 31.2095 364.21 29.5524C361.515 29.5524 360.046 29 358.821 30.6571C360.046 30.6571 361.025 30.381 362.25 30.1048C361.27 33.9714 359.801 30.6571 355.636 32.0381C353.187 33.1429 350.492 33.1429 348.042 32.3143C347.308 29 347.797 30.9333 348.042 27.8952C347.308 28.1714 346.573 28.4476 345.838 29C343.878 29.8286 344.123 29.2762 343.633 29.2762C340.204 29.5524 342.653 30.1048 341.918 32.3143C339.469 32.0381 341.184 31.7619 338.979 30.1048C336.774 28.4476 337.999 30.381 336.529 27.3429C339.469 28.1714 337.509 27.3429 340.449 26.7905H356.616V25.6857C353.187 25.6857 353.432 24.8571 350.737 24.581L340.449 24.0286C338.489 23.7524 337.509 22.6476 335.304 24.0286C334.815 24.3048 336.774 24.0286 334.325 24.581H332.365C332.365 24.3048 332.61 23.4762 332.855 23.4762C333.1 22.0952 333.345 23.4762 332.855 22.3714C331.63 23.2 332.365 22.9238 330.405 22.9238C329.18 21.2667 328.69 22.9238 328.201 23.2C326.731 24.3048 328.446 24.0286 325.996 23.7524C323.546 23.4762 311.053 22.9238 310.073 24.581V25.1333L309.828 24.8571L309.339 25.1333L308.604 25.4095C313.503 25.4095 314.973 26.5143 323.546 26.5143C323.056 28.4476 321.342 29.8286 319.627 29.8286C316.687 29.8286 319.137 28.1714 314.238 29.2762C314.238 25.9619 314.483 27.619 313.258 27.0667C312.768 28.4476 313.013 28.4476 313.748 29.8286L306.399 30.1048H303.704C303.459 30.1048 303.704 30.381 302.48 30.1048C301.255 29.8286 301.745 29.8286 301.5 29.8286C299.54 29.2762 300.52 29.8286 299.295 29.8286C298.56 30.1048 297.825 29.8286 297.335 29.2762C296.111 28.1714 296.356 29.5524 297.58 27.3429C294.886 27.3429 294.151 27.619 293.661 25.1333C295.621 26.2381 294.886 26.2381 296.601 25.6857H296.845L298.07 25.4095C299.54 24.8571 299.05 25.6857 299.54 24.3048C300.03 22.9238 300.03 24.8571 299.05 23.7524C296.356 20.9905 298.07 21.5429 294.641 21.5429C293.661 25.1333 291.701 22.6476 292.681 25.4095C291.211 24.8571 291.456 24.581 290.721 24.581C289.252 24.581 291.456 24.581 289.497 25.4095C287.782 24.8571 285.822 24.581 284.107 24.8571C283.618 22.6476 281.903 22.0952 279.208 22.0952V21.819L272.594 19.8857L269.655 23.4762C267.205 25.6857 262.796 23.2 260.346 23.2C261.326 21.5429 260.346 22.0952 262.796 22.0952V21.2667C259.366 20.9905 263.286 20.7143 259.856 19.6095C259.366 20.9905 260.101 19.3333 260.346 21.819L257.407 22.3714C257.407 20.1619 259.611 17.9524 252.507 17.1238C241.974 15.7429 246.873 18.5048 241.239 20.7143L240.014 20.9905C231.441 24.0286 236.34 22.0952 226.786 22.9238V21.2667C225.807 22.0952 225.807 22.3714 224.582 22.6476H223.602C223.357 22.6476 223.112 22.3714 222.867 22.3714L222.132 21.5429Z" fill="white"/>
<path d="M466.359 27.8952C468.319 27.8952 468.564 28.1714 470.768 28.4476C476.402 28.7238 469.788 29.2762 474.198 29.5524V28.4476C481.547 28.1714 473.953 29.8286 482.526 27.8952C483.996 27.619 485.466 27.0667 486.936 27.0667C488.895 27.0667 489.385 28.7238 490.855 26.2381C488.65 25.9619 489.14 25.4095 486.446 25.9619C484.976 25.9619 483.751 25.9619 482.526 26.2381V27.3429C480.812 26.7905 481.791 26.7905 480.322 26.2381H477.627C477.137 25.4095 477.627 25.4095 476.402 25.1333H473.708C473.708 25.4095 473.953 25.4095 473.708 27.3429L466.359 27.8952ZM12.935 9.94286C15.6296 11.3238 18.8141 11.0476 21.2637 9.11429L22.7334 8.00952C20.7738 7.45714 18.8141 7.18095 16.8544 6.90476C14.4047 6.62857 13.6699 8.00952 12.935 9.94286ZM688.049 9.94286C691.234 11.6 691.234 11.0476 694.908 9.66667L698.093 7.73333C696.133 7.18095 694.173 6.90476 692.213 6.62857C689.519 6.62857 688.784 8.00952 688.049 9.94286ZM52.1288 8.8381C53.1087 12.981 54.5785 8.00952 55.5583 12.1524H57.518L57.273 9.94286C56.5381 6.90476 54.3335 9.39048 52.1288 8.8381ZM726.998 8.8381C727.978 12.981 729.448 8.00952 730.427 12.1524H732.387C732.387 11.3238 732.632 8.28571 730.427 8.28571C728.223 8.28571 729.938 9.39048 726.998 8.8381ZM356.126 25.9619C358.331 25.9619 357.841 26.5143 359.556 26.5143C360.78 26.2381 362.25 26.2381 363.475 25.9619V24.8571C357.596 24.3048 357.596 23.4762 356.126 25.9619ZM102.836 19.8857C106.02 20.9905 101.121 19.8857 104.306 20.9905C104.796 19.6095 104.061 20.1619 105.285 19.8857H107.735V18.781C106.02 18.2286 104.551 18.2286 102.836 18.2286C102.346 19.6095 102.346 18.5048 102.836 19.8857ZM-11.3162 14.9143C-10.0914 15.7429 -9.60149 15.4667 -7.39684 15.4667C-5.92707 15.4667 -6.41699 15.1905 -5.92707 14.3619C-7.15187 13.8095 -11.3162 12.981 -11.3162 14.9143ZM663.553 14.9143C664.778 15.7429 665.268 15.4667 667.472 15.4667C668.942 15.4667 668.452 15.1905 668.942 14.3619C667.962 13.8095 664.043 12.981 663.553 14.9143ZM704.707 6.62857V7.18095L708.626 7.73333C709.361 5.52381 708.381 6.90476 711.565 7.18095V6.07619C708.626 6.07619 707.646 6.62857 704.707 6.62857ZM29.8373 6.62857V7.18095L33.7567 7.73333C34.4916 5.52381 33.5117 6.90476 36.6963 7.18095V6.07619C33.5117 6.07619 32.5319 6.62857 29.8373 6.62857ZM712.3 7.18095H718.179C717.2 5.52381 718.179 6.07619 715.73 6.07619H712.3V7.18095ZM37.1862 7.18095H43.0652C42.0854 5.52381 43.0652 6.07619 40.6156 6.07619H37.1862V7.18095ZM286.067 8.28571C284.352 5.52381 283.373 5.52381 280.678 3.86667C281.168 5.8 281.168 5.52381 282.883 6.35238C283.863 7.18095 285.087 7.73333 286.067 8.28571ZM960.936 8.28571C959.222 5.52381 958.242 5.52381 955.547 3.86667C956.037 5.8 956.037 5.52381 957.752 6.35238C958.732 7.18095 959.956 7.73333 960.936 8.28571ZM506.533 30.6571V29.5524L507.022 28.4476C504.328 27.619 504.818 26.7905 503.593 29.5524C505.308 30.1048 505.063 30.381 506.533 30.6571ZM711.81 18.2286C714.015 18.781 714.505 19.6095 715.24 17.1238C714.26 16.8476 711.81 15.4667 711.81 18.2286ZM36.6963 18.2286C38.9009 18.781 39.6358 19.6095 40.1257 17.1238C39.1459 16.8476 36.6963 15.4667 36.6963 18.2286ZM757.618 14.9143L762.517 15.4667V14.3619C759.823 14.3619 759.823 13.8095 757.618 13.8095V14.9143ZM748.555 11.6L748.31 11.3238L746.84 9.94286C745.615 9.11429 744.145 9.39048 743.166 10.219C744.88 11.0476 746.595 11.6 748.555 11.6ZM73.4405 11.6L73.1955 11.0476L71.2358 9.94286C68.7862 9.39048 68.5413 10.4952 68.2963 10.4952C69.7661 11.0476 71.7258 11.6 73.4405 11.6ZM722.099 7.18095C728.958 7.18095 729.203 8.28571 731.407 6.07619L722.099 7.18095ZM47.2296 7.18095C50.904 7.18095 54.3335 7.73333 55.8033 6.90476C57.273 5.8 56.0482 6.62857 56.5381 6.07619L47.2296 7.18095ZM569.243 23.7524C572.182 23.7524 572.917 23.2 575.612 23.2V22.6476C573.162 22.6476 570.468 22.0952 569.243 23.7524ZM572.672 21.5429C574.877 21.5429 575.367 20.9905 578.061 20.9905V20.4381H572.672V21.5429ZM539.847 33.419C541.807 33.419 541.807 33.6952 543.277 32.8667C542.787 32.0381 543.277 31.7619 541.807 31.7619C540.337 31.7619 540.092 32.5905 539.847 33.419ZM531.519 24.3048C533.478 24.3048 532.743 24.8571 534.948 24.8571C536.418 24.8571 535.928 24.581 536.418 23.7524H531.519V24.3048ZM59.4777 10.4952C60.4575 10.7714 61.4374 11.0476 62.4172 11.0476C61.4374 9.39048 61.6823 9.39048 59.4777 9.39048V10.4952ZM734.592 10.4952C735.572 10.7714 736.552 11.0476 737.531 11.0476C736.552 9.39048 736.797 9.39048 734.592 9.39048V10.4952ZM723.079 12.7048C724.058 12.981 725.283 12.4286 726.018 11.6C725.528 10.7714 725.773 11.0476 725.528 9.94286L723.079 12.7048ZM48.2094 12.7048C49.1893 12.981 50.4141 12.4286 51.149 11.6C50.904 11.0476 50.6591 10.4952 50.6591 9.94286L48.2094 12.7048ZM75.4002 17.1238H79.3196C78.8296 16.8476 79.0746 16.8476 78.5847 16.2952C78.0947 15.7429 75.6452 15.7429 75.4002 17.1238ZM750.514 17.1238H754.434C754.189 16.8476 754.434 16.8476 753.699 16.2952C752.964 15.7429 750.514 15.7429 750.514 17.1238ZM454.601 26.5143C457.785 26.5143 458.03 27.619 459.01 25.9619H454.601V26.5143ZM748.555 11.6L747.82 12.7048H751.004V11.6H748.555ZM73.4405 11.6L72.9506 12.7048H75.8901V11.6H73.4405ZM297.09 25.9619C299.54 25.9619 299.05 26.5143 300.03 24.8571H297.09V25.9619ZM938.155 20.4381C939.87 20.1619 939.87 20.1619 940.115 18.2286C938.4 18.781 938.645 18.5048 938.155 20.4381ZM263.286 20.4381C265 20.1619 265 20.1619 265.245 18.2286C263.531 18.781 263.776 18.5048 263.286 20.4381ZM718.179 10.4952C720.139 10.219 719.649 10.7714 720.139 8.8381H718.179V10.4952ZM43.0652 10.4952C45.0249 10.219 44.535 10.7714 45.0249 8.8381H43.0652V10.4952ZM95.977 17.1238C97.4467 17.1238 96.9568 16.8476 97.4467 16.019H93.7723C95.2421 17.1238 94.7522 17.1238 95.977 17.1238ZM770.846 17.1238C772.316 17.1238 771.826 16.8476 772.316 16.019H768.886C769.376 16.2952 769.131 16.2952 769.621 16.8476C770.111 17.4 768.886 17.1238 770.846 17.1238ZM799.997 20.4381L802.446 19.8857V17.6762L799.997 20.4381ZM125.127 20.4381L127.577 19.8857V17.6762L125.127 20.4381ZM956.037 22.0952C957.262 23.7524 957.262 23.7524 958.977 23.2L957.997 22.3714L957.752 22.0952C957.507 22.0952 956.527 21.5429 956.037 22.0952ZM825.228 13.2571H827.187V12.1524L825.228 11.6V13.2571ZM124.637 11.0476L125.617 11.6C127.087 11.6 126.597 11.3238 127.087 10.4952C126.107 10.219 124.882 9.39048 124.637 11.0476ZM799.507 11.0476L800.487 11.6C801.956 11.6 801.466 11.3238 801.956 10.4952C801.221 10.219 799.752 9.39048 799.507 11.0476ZM36.6963 11.0476H39.1459V12.1524H36.6963V11.0476ZM711.81 11.0476H714.26V12.1524H711.81V11.0476Z" fill="white"/>
<path d="M506.533 29.5524H511.432V30.1048H506.533V29.5524ZM84.9537 14.3619H87.4033V15.4667H84.9537V14.3619ZM280.923 22.0952C281.903 23.7524 282.148 23.7524 283.863 23.2L283.618 22.9238L281.903 21.819C281.658 21.819 281.168 21.819 280.923 22.0952ZM590.554 20.4381L593.494 20.9905V19.8857H590.554V20.4381ZM152.563 20.4381C154.523 20.1619 154.033 20.7143 154.523 18.781H152.563C152.808 19.8857 153.053 19.3333 152.563 20.4381ZM733.122 8.8381C735.082 7.18095 732.877 7.18095 735.572 7.18095V6.62857H733.122V8.8381ZM58.0079 8.8381C59.9676 7.18095 57.7629 7.18095 60.4575 7.18095V6.62857H58.0079V8.8381ZM478.852 25.4095L481.547 25.1333C482.281 24.8571 482.036 24.8571 482.281 24.3048C480.812 24.3048 479.097 24.0286 478.852 25.4095ZM656.449 19.3333H660.858V19.8857H656.449V19.3333ZM197.146 25.4095H200.086C199.841 25.1333 197.391 22.9238 197.146 25.4095ZM736.307 15.4667H738.756V14.3619C737.286 14.3619 736.307 14.0857 736.307 15.4667ZM60.9474 15.4667H63.3971V14.3619C62.1722 14.3619 61.1924 14.0857 60.9474 15.4667ZM524.17 11.6H526.619C525.64 9.94286 526.62 10.4952 524.17 10.4952V11.6ZM232.421 29.5524C233.4 29.5524 233.155 29.8286 234.38 28.4476H231.441C231.686 29 231.686 29.5524 232.421 29.5524ZM907.535 29.5524C908.76 29.5524 908.27 29.8286 909.494 28.4476H906.555C906.8 29 906.8 29.5524 907.535 29.5524ZM827.677 20.4381C829.882 20.1619 828.657 20.9905 829.637 19.3333C829.147 19.0571 828.412 18.781 827.677 18.781C827.922 19.8857 828.167 19.3333 827.677 20.4381ZM61.9273 6.62857H65.8467V7.18095H61.9273V6.62857ZM737.042 6.62857H740.961V7.18095H737.042V6.62857ZM108.715 12.1524H110.675V13.2571H108.715V12.1524ZM783.829 12.1524H785.789V13.2571H783.829V12.1524ZM82.5041 13.8095H84.4638V14.9143H82.5041V13.8095ZM536.418 30.1048H538.378V31.2095H536.418V30.1048ZM761.538 12.1524H763.987C763.742 11.6 763.742 11.0476 763.007 11.0476C762.273 11.0476 761.538 11.3238 761.538 12.1524ZM872.26 25.4095H874.71C874.465 24.8571 874.465 24.3048 873.73 24.3048C872.995 24.3048 872.505 24.581 872.26 25.4095ZM86.4234 12.1524H88.8731C88.6281 11.6 88.3831 11.0476 87.8932 11.0476C87.4033 11.0476 86.4234 11.3238 86.4234 12.1524ZM777.95 8.8381H780.4C780.155 8.5619 780.4 8.5619 779.665 8.00952C778.44 7.45714 779.42 7.73333 777.95 7.73333V8.8381ZM102.836 8.8381H105.285C104.796 8.5619 105.285 8.5619 104.551 8.00952C103.326 7.45714 104.306 7.73333 102.836 7.73333V8.8381ZM20.2838 23.2H22.7334C22.2435 22.9238 22.7334 22.9238 21.9986 22.3714C20.7738 22.0952 21.5086 22.3714 20.2838 22.0952V23.2ZM528.579 29.5524V28.4476H526.13C526.374 28.7238 526.13 28.7238 526.864 29.2762C528.089 29.8286 527.109 29.5524 528.579 29.5524ZM152.073 13.2571C151.583 11.8762 152.073 12.1524 150.113 11.6C151.093 14.0857 149.624 12.981 152.073 13.2571ZM301.255 25.9619H304.684V26.5143H301.255V25.9619ZM483.261 24.3048H486.691V24.8571H483.261V24.3048ZM695.398 23.2H697.848V22.6476C697.113 22.6476 696.133 22.3714 695.398 22.0952V23.2ZM193.717 20.4381H195.676V19.3333C194.452 19.6095 193.962 19.3333 193.717 20.4381ZM672.862 1.10476C675.066 0.828571 673.841 1.65714 674.821 0H672.862V1.10476ZM-2.25264 1.10476C-0.0479889 0.828571 -1.51776 1.65714 -0.29295 0H-2.25264V1.10476ZM824.003 13.2571V12.1524H822.043C823.023 13.8095 821.553 12.981 824.003 13.2571ZM148.889 13.2571V12.1524H146.929C148.154 13.8095 146.684 12.981 148.889 13.2571ZM605.497 12.7048H606.967C606.477 11.0476 607.702 12.4286 605.497 11.0476V12.7048ZM870.546 19.3333C868.341 19.6095 869.566 18.781 868.586 20.4381C871.525 20.4381 870.056 20.7143 870.546 19.3333ZM91.3227 15.4667H92.7924V16.5714H91.3227V15.4667ZM860.747 10.4952H862.217V11.6H860.747V10.4952ZM766.437 15.4667H767.907V16.5714H766.437V15.4667ZM530.539 29H533.478V29.5524H530.539V29ZM144.969 19.8857C146.684 20.1619 146.439 20.9905 146.929 18.781L145.949 19.3333C144.969 19.8857 145.704 19.3333 144.969 19.8857ZM819.839 19.8857C821.553 20.1619 821.308 20.9905 821.798 18.781C821.553 18.781 820.818 19.0571 820.818 19.3333C819.838 19.8857 820.573 19.3333 819.839 19.8857ZM120.228 13.8095C119.248 12.1524 120.473 12.981 118.268 12.7048C119.493 14.3619 118.024 13.5333 120.228 13.8095ZM545.482 17.1238C544.257 15.4667 545.727 16.2952 543.522 16.019C544.502 17.6762 543.277 16.8476 545.482 17.1238ZM795.097 13.8095C793.873 12.1524 795.342 12.981 793.138 12.7048C794.362 14.3619 792.893 13.5333 795.097 13.8095ZM35.7164 17.6762H33.7567C34.7365 19.3333 34.7366 19.3333 35.7164 17.6762ZM710.831 17.6762H708.871C709.851 19.3333 709.851 19.3333 710.831 17.6762ZM823.023 20.9905C823.758 20.9905 823.513 21.2667 824.248 20.7143C825.963 19.8857 824.983 20.4381 825.473 19.8857C824.003 20.1619 823.513 20.1619 823.023 20.9905ZM488.65 27.8952H491.1V28.4476H488.65V27.8952ZM194.696 23.7524H196.166V22.6476C195.431 22.9238 194.941 22.9238 194.696 23.7524ZM869.566 23.7524H871.035V22.6476C870.301 22.9238 869.811 22.9238 869.566 23.7524ZM185.633 11.6H187.103V10.4952C186.123 10.7714 185.878 10.4952 185.633 11.6ZM517.556 24.3048C517.066 22.6476 517.556 23.2 516.086 22.6476C517.066 24.8571 515.841 23.7524 517.556 24.3048ZM463.909 27.3429V25.9619H461.95C462.44 26.2381 461.705 25.9619 462.929 26.5143L463.909 27.3429ZM80.0545 14.3619C81.5242 14.0857 80.7893 14.3619 81.5242 13.2571H80.0545V14.3619ZM466.359 26.5143C467.829 26.2381 467.094 26.5143 467.829 25.4095H466.359V26.5143ZM755.169 14.3619C756.638 14.0857 755.904 14.3619 756.638 13.2571H755.169V14.3619ZM249.323 30.1048H250.793C250.058 29 250.793 29.2762 249.323 29V30.1048ZM924.437 30.1048H925.907C925.172 29 925.907 29.2762 924.437 29V30.1048ZM148.399 20.9905C149.379 20.7143 148.399 21.2667 149.624 20.7143L150.358 19.8857C149.379 20.1619 148.644 19.8857 148.399 20.9905ZM890.387 23.2C891.367 22.9238 890.387 23.4762 891.612 22.9238C892.347 22.6476 892.102 22.6476 892.347 22.0952C891.367 22.3714 890.632 22.0952 890.387 23.2ZM215.518 23.2C216.498 22.9238 215.518 23.4762 216.743 22.9238L217.478 22.0952C216.498 22.3714 215.763 22.0952 215.518 23.2ZM-39.7318 1.65714H-37.7721V2.20952H-39.7318V1.65714ZM661.593 23.2H663.553V23.7524H661.593V23.2ZM635.137 1.65714H637.097V2.20952H635.137V1.65714ZM-13.5209 23.2H-11.5612V23.7524H-13.5209V23.2ZM553.81 23.7524H555.77V24.3048H553.81V23.7524ZM745.37 8.8381H747.33V9.39048H745.37V8.8381ZM783.829 22.0952H785.789V22.6476H783.829V22.0952ZM108.715 22.0952H110.675V22.6476H108.715V22.0952ZM70.256 8.8381H72.2157V9.39048H70.256V8.8381ZM540.827 25.4095H542.787V25.9619H540.827V25.4095ZM272.594 18.2286C274.064 16.8476 273.329 18.5048 273.574 16.019C273.329 16.2952 273.329 16.019 272.839 16.8476C272.349 18.2286 272.839 17.4 272.594 18.2286ZM947.708 18.2286C949.178 16.8476 948.443 18.5048 948.688 16.019C948.443 16.2952 948.443 16.019 947.953 16.8476C947.464 18.2286 947.953 17.4 947.708 18.2286ZM870.546 19.3333C872.015 19.0571 871.28 19.3333 872.015 18.2286C869.566 18.5048 871.28 17.6762 870.546 19.3333Z" fill="white"/>
<path d="M461.95 25.9619C461.705 25.9619 462.44 24.8571 460.97 25.6857C459.5 26.5143 460.97 25.1333 460.48 26.5143C461.705 26.2381 460.725 26.5143 461.95 25.9619ZM197.146 18.2286H195.676C196.901 19.8857 196.166 19.8857 197.146 18.2286ZM872.75 19.8857H871.28C872.505 21.5429 871.525 21.5429 872.75 19.8857ZM197.636 19.8857H196.166C197.391 21.5429 196.656 21.5429 197.636 19.8857ZM759.088 19.8857L760.068 18.781C757.373 18.781 759.333 18.781 758.598 19.3333L759.088 19.8857ZM83.9738 19.8857L84.9537 19.0571C82.2591 19.0571 84.2188 19.0571 83.4839 19.6095L83.9738 19.8857ZM24.9381 11.6C26.4079 11.3238 25.673 11.6 26.4079 10.4952C25.428 10.7714 24.9381 10.4952 24.9381 11.6ZM783.339 18.781C784.809 18.5048 784.074 18.781 784.809 17.6762C783.829 17.9524 783.584 17.6762 783.339 18.781ZM108.225 18.781C109.695 18.5048 108.96 18.781 109.695 17.6762C108.715 17.9524 108.47 17.6762 108.225 18.781ZM699.807 11.6C701.277 11.3238 700.542 11.6 701.277 10.4952C700.297 10.7714 699.807 10.4952 699.807 11.6ZM535.928 32.8667H537.398V33.419H535.928V32.8667ZM71.9707 6.62857H73.4405V7.18095H71.9707V6.62857ZM510.942 24.8571H512.412V25.4095H510.942V24.8571ZM152.563 20.9905H154.033V21.5429H152.563V20.9905ZM-26.0139 14.3619H-24.5441V14.9143H-26.0139V14.3619ZM649.1 14.3619H650.57V14.9143H649.1V14.3619ZM746.84 6.62857H748.31V7.18095H746.84V6.62857ZM827.677 20.9905H829.147V21.5429H827.677V20.9905ZM244.914 29.5524H246.383V30.1048H244.914V29.5524ZM714.26 9.39048H715.73V9.94286H714.26V9.39048ZM39.1459 9.39048H40.6156V9.94286H39.1459V9.39048ZM920.028 29.5524H921.498V30.1048H920.028V29.5524ZM951.628 0.552381H953.098V1.10476H951.628V0.552381ZM565.813 22.0952H567.283V22.6476H565.813V22.0952ZM276.514 0.552381H277.983V1.10476H276.514V0.552381ZM121.208 18.781H122.678V19.3333H121.208V18.781ZM353.677 25.4095H355.146V25.9619H353.677V25.4095ZM796.077 18.781H797.547V19.3333H796.077V18.781ZM669.922 26.5143L668.452 25.4095C668.942 27.0667 667.472 26.5143 669.922 26.5143ZM967.55 13.8095C967.06 12.1524 968.53 12.981 966.081 12.7048C966.081 12.7048 966.326 12.7048 966.326 12.981C966.326 13.2571 966.57 13.2571 966.57 13.2571C966.57 13.2571 967.305 13.5333 967.55 13.8095ZM402.914 13.2571C402.179 12.1524 402.914 12.4286 401.444 12.1524C402.179 13.5333 401.444 12.7048 402.914 13.2571ZM292.436 13.8095C291.946 12.1524 293.416 12.981 290.966 12.7048C290.966 12.7048 291.211 12.7048 291.211 12.981L292.436 13.8095ZM706.176 12.1524C706.176 12.7048 707.156 13.2571 706.911 12.1524C706.911 11.8762 705.931 10.7714 706.176 12.1524ZM31.3071 12.1524C31.3071 12.7048 32.2869 13.2571 32.042 12.1524C31.797 11.8762 31.0621 10.7714 31.3071 12.1524ZM777.95 18.2286C777.705 16.8476 778.195 17.4 776.97 17.1238C776.97 18.5048 776.48 17.6762 777.95 18.2286ZM102.836 18.2286C102.591 16.8476 103.081 17.4 101.856 17.1238C102.101 18.5048 101.611 17.6762 102.836 18.2286ZM165.546 21.5429C166.036 22.0952 167.261 20.7143 166.036 21.2667C166.036 21.2667 164.321 20.7143 165.546 21.5429ZM519.271 26.5143C519.761 27.0667 520.985 25.6857 519.76 26.2381C519.76 26.2381 518.046 25.6857 519.271 26.5143ZM469.788 26.5143C470.278 27.0667 471.503 25.6857 470.278 26.2381C470.278 26.2381 468.809 25.6857 469.788 26.5143ZM880.099 21.5429C880.589 22.0952 881.814 20.7143 880.589 21.2667C880.834 21.2667 879.364 20.7143 880.099 21.5429ZM225.562 20.4381C226.052 20.9905 227.276 19.6095 226.052 20.1619C226.052 20.1619 224.582 19.6095 225.562 20.4381ZM129.537 22.0952C130.027 22.6476 131.251 21.2667 130.027 21.819C130.272 21.819 128.802 21.2667 129.537 22.0952ZM-8.62165 17.1238C-8.13173 17.6762 -6.90691 16.2952 -8.13172 16.8476C-7.88676 16.8476 -9.35653 16.2952 -8.62165 17.1238ZM507.023 23.7524C507.512 24.3048 508.737 22.9238 507.512 23.4762C507.757 23.4762 506.288 22.9238 507.023 23.7524ZM804.651 22.0952C805.141 22.6476 806.366 21.2667 805.141 21.819C805.386 21.819 803.916 21.2667 804.651 22.0952ZM900.676 20.4381C901.166 20.9905 902.391 19.6095 901.166 20.1619C901.166 20.1619 899.696 19.6095 900.676 20.4381ZM696.868 18.781C697.358 19.3333 698.582 17.9524 697.358 18.5048C697.358 18.5048 695.888 17.9524 696.868 18.781ZM21.7536 18.781C22.2435 19.3333 23.4683 17.9524 22.2435 18.5048C22.2435 18.5048 20.7738 17.9524 21.7536 18.781ZM790.198 17.1238C790.688 17.6762 791.913 16.2952 790.688 16.8476C790.688 16.8476 789.463 16.2952 790.198 17.1238ZM536.418 23.2C536.908 23.7524 538.133 22.3714 536.908 22.9238C536.908 22.9238 535.683 22.3714 536.418 23.2ZM136.396 21.5429C136.886 22.0952 138.355 20.7143 137.13 21.2667C137.13 21.2667 135.661 20.7143 136.396 21.5429ZM840.415 21.5429C840.905 22.0952 842.13 20.7143 840.905 21.2667C840.905 21.2667 839.435 20.7143 840.415 21.5429ZM515.351 30.1048C515.841 30.6571 517.066 29.2762 515.841 29.8286C516.086 29.8286 514.616 29.2762 515.351 30.1048ZM204.985 21.5429C205.475 22.0952 206.7 20.7143 205.475 21.2667C205.72 21.2667 204.25 20.7143 204.985 21.5429ZM811.51 21.5429C812 22.0952 813.225 20.7143 812 21.2667C812.245 21.2667 810.775 20.7143 811.51 21.5429ZM576.592 23.2C577.082 23.7524 578.306 22.3714 577.082 22.9238C577.082 22.9238 575.857 22.3714 576.592 23.2ZM451.171 27.3429C451.661 27.8952 452.886 26.5143 451.661 27.0667C451.661 27.0667 450.191 26.2381 451.171 27.3429ZM115.084 17.1238C115.574 17.6762 116.799 16.2952 115.574 16.8476C115.574 16.8476 114.349 16.2952 115.084 17.1238ZM666.492 17.1238C666.982 17.6762 668.207 16.2952 666.982 16.8476C667.227 16.8476 665.758 16.2952 666.492 17.1238ZM600.598 20.4381C601.088 20.9905 602.313 19.6095 601.088 20.1619C601.088 20.1619 599.618 19.6095 600.598 20.4381ZM539.847 24.3048C540.337 24.8571 541.562 23.4762 540.337 24.0286C540.337 24.0286 538.868 23.4762 539.847 24.3048ZM888.918 22.6476C889.408 23.2 890.632 21.819 889.408 22.3714C889.652 22.3714 888.183 21.819 888.918 22.6476ZM536.418 34.5238C536.908 35.0762 538.133 33.6952 536.908 34.2476C536.908 34.2476 535.683 33.6952 536.418 34.5238ZM613.091 22.6476C613.581 23.2 614.806 21.819 613.581 22.3714C613.581 22.3714 611.866 21.819 613.091 22.6476ZM214.048 22.6476C214.538 23.2 215.763 21.819 214.538 22.3714C214.783 22.3714 213.314 21.819 214.048 22.6476ZM596.923 21.5429C596.923 22.0952 597.903 22.9238 597.658 21.5429C597.413 20.1619 598.883 21.5429 597.413 21.2667C596.923 21.2667 596.923 20.4381 596.923 21.5429ZM884.753 18.781C884.753 19.3333 885.733 20.1619 885.488 18.781C885.243 17.4 886.713 18.781 885.243 18.5048C884.508 18.5048 884.753 17.6762 884.753 18.781ZM209.394 18.781C209.394 19.3333 210.374 20.1619 210.129 18.781C209.884 17.4 211.354 18.781 209.884 18.5048C209.394 18.5048 209.394 17.6762 209.394 18.781ZM-14.9906 23.7524C-14.9906 24.3048 -14.0108 25.1333 -14.2558 23.7524C-14.5007 22.3714 -13.031 23.7524 -14.5007 23.4762C-14.9906 23.4762 -14.9906 22.6476 -14.9906 23.7524ZM740.471 20.9905C740.471 21.2667 740.961 20.9905 740.961 20.9905C740.961 20.9905 741.941 22.3714 741.206 20.9905C741.451 20.9905 740.471 19.8857 740.471 20.9905ZM728.958 20.4381C728.958 20.7143 729.448 20.4381 729.448 20.4381C729.448 20.4381 730.427 21.819 729.693 20.4381C729.693 20.4381 728.958 19.3333 728.958 20.4381ZM855.848 22.6476L856.338 21.5429C855.603 21.819 855.848 21.2667 855.603 21.819C855.358 22.3714 855.603 21.819 855.848 22.6476ZM180.734 22.6476L181.224 21.5429C180.489 21.819 180.734 21.2667 180.489 21.819C180.489 22.6476 180.244 21.819 180.734 22.6476ZM405.363 17.1238C405.363 17.4 405.853 17.1238 405.853 17.1238C405.853 17.1238 406.833 18.5048 406.098 16.8476C405.363 16.8476 405.363 16.2952 405.363 17.1238ZM435.004 21.5429C435.004 21.819 435.494 21.5429 435.494 21.5429C435.494 21.5429 436.474 22.9238 435.739 21.5429H435.494C435.249 21.5429 435.004 20.4381 435.004 21.5429ZM65.3568 20.9905C65.3568 21.2667 65.8467 20.9905 65.8467 20.9905C65.8467 20.9905 66.5816 22.3714 66.0916 20.9905H65.8467C65.6017 20.9905 65.3568 19.8857 65.3568 20.9905ZM54.0885 20.4381C54.0885 20.7143 54.5784 20.4381 54.5784 20.4381C54.5784 20.4381 55.3133 21.819 54.8234 20.4381H54.5784C54.3335 20.4381 54.0885 19.3333 54.0885 20.4381ZM119.248 22.0952H119.738L119.248 21.5429V22.0952ZM794.117 22.0952H794.607L794.117 21.5429V22.0952ZM506.533 30.6571V31.2095L507.268 30.9333L506.533 30.6571ZM70.256 6.62857C69.7661 8.00952 70.9909 6.90476 70.256 6.62857C70.7459 6.62857 70.7459 6.62857 70.256 6.62857ZM598.148 20.4381C597.903 20.4381 598.148 20.1619 598.148 20.4381V20.4381ZM598.148 18.781C597.903 18.781 598.148 18.5048 598.148 18.781V18.781Z" fill="white"/>
<path d="M1243.13 21.5429C1242.4 20.7143 1241.66 19.8857 1240.68 19.3333C1241.42 23.7524 1240.93 17.6762 1239.7 23.7524C1233.82 24.3048 1240.68 24.581 1234.8 23.2H1232.35V22.9238C1231.86 21.2667 1232.6 22.0952 1231.37 21.2667L1230.64 23.4762C1229.41 23.4762 1228.19 23.2 1227.21 22.9238C1223.29 22.9238 1227.21 25.6857 1217.41 26.7905C1217.41 24.8571 1218.39 25.1333 1213 23.4762C1213.25 22.3714 1213.25 22.9238 1213.74 22.0952C1214.72 20.1619 1213.74 23.2 1214.47 20.7143C1212.76 20.4381 1211.04 19.8857 1209.33 19.3333C1205.16 18.2286 1209.33 19.6095 1204.67 19.6095C1204.67 20.4381 1204.92 21.5429 1205.16 22.3714C1204.18 22.3714 1203.2 22.6476 1202.22 22.9238L1200.51 24.0286C1200.02 22.0952 1200.02 22.6476 1201 21.2667C1197.81 21.2667 1199.53 22.3714 1198.3 23.7524L1197.57 24.581H1197.32C1196.1 24.8571 1194.87 24.8571 1193.4 24.8571C1189.98 24.3048 1193.65 24.3048 1190.47 23.2L1187.04 24.3048C1187.04 22.6476 1187.04 23.2 1186.55 22.0952C1184.83 23.4762 1185.57 22.9238 1183.85 22.9238C1182.38 22.9238 1181.16 22.9238 1179.69 22.6476C1180.18 22.0952 1180.67 21.819 1181.16 21.5429L1180.42 21.2667C1179.93 20.9905 1179.44 20.9905 1178.95 20.9905C1178.46 22.9238 1178.22 22.9238 1176.5 23.2L1173.56 23.7524C1173.07 23.7524 1171.11 23.4762 1171.11 23.4762H1170.87L1169.89 23.2H1169.64L1162.78 22.9238C1163.52 20.1619 1163.52 22.3714 1164.25 19.6095C1159.85 22.3714 1161.07 23.2 1159.36 23.4762C1157.64 23.7524 1157.89 23.2 1157.4 22.3714C1158.13 20.9905 1157.89 20.9905 1159.85 20.7143V19.0571C1158.13 18.781 1158.87 18.2286 1157.64 19.3333C1155.19 20.9905 1156.42 23.2 1150.05 23.4762C1149.8 22.3714 1150.29 22.9238 1149.56 22.3714H1148.09C1144.41 21.2667 1144.9 22.0952 1143.19 20.7143C1142.21 22.9238 1143.43 22.0952 1141.72 23.4762C1141.23 23.2 1140.74 22.9238 1140.25 22.3714C1139.51 21.819 1139.76 22.0952 1138.78 21.819C1138.29 24.0286 1138.53 23.4762 1136.33 23.4762V22.3714H1135.35C1134.37 22.6476 1134.86 22.6476 1134.37 22.9238C1131.92 23.2 1130.2 25.4095 1129.23 22.9238C1128 20.4381 1129.23 23.4762 1128.98 22.3714C1128.49 19.3333 1129.96 23.7524 1128.98 21.5429C1127.76 22.3714 1128.49 22.0952 1126.53 22.0952C1126.04 23.4762 1126.29 22.6476 1126.53 24.3048C1125.06 24.0286 1126.04 24.3048 1125.55 24.0286C1124.57 23.2 1124.08 21.819 1124.08 20.4381L1121.14 19.6095C1120.16 19.0571 1121.63 19.3333 1120.41 19.6095C1119.18 19.8857 1121.14 19.6095 1119.43 19.8857C1116.24 20.4381 1117.71 18.5048 1112.81 21.2667L1114.04 23.2L1113.79 23.4762C1110.36 23.2 1106.93 22.6476 1103.5 21.819C1103.99 21.5429 1103.5 21.5429 1104.48 21.2667H1105.95L1104.48 19.6095C1101.79 18.2286 1099.58 20.1619 1097.14 20.1619C1093.46 19.8857 1098.11 19.0571 1093.95 19.0571C1092.48 19.0571 1091.75 19.8857 1090.03 20.1619C1089.79 18.781 1089.3 18.781 1088.56 17.9524C1089.79 18.2286 1090.77 18.5048 1091.99 18.5048V17.4C1090.77 17.4 1089.3 17.1238 1088.07 16.8476C1088.07 20.9905 1088.81 19.6095 1089.54 22.3714C1087.34 22.3714 1081.46 23.7524 1078.52 23.2C1074.35 22.0952 1078.03 24.3048 1074.11 23.2C1070.92 22.3714 1071.66 23.2 1068.23 22.9238C1064.8 22.6476 1064.56 21.2667 1060.39 21.2667C1059.66 23.4762 1060.88 21.2667 1059.9 23.4762C1058.92 23.2 1057.7 23.4762 1056.72 23.7524C1053.78 25.1333 1050.59 25.9619 1047.41 25.6857C1047.65 25.1333 1049.37 22.9238 1046.18 23.7524L1041.28 25.1333C1041.04 24.581 1040.79 24.3048 1040.55 23.7524L1039.81 22.9238L1036.87 22.0952C1035.4 22.0952 1036.38 22.0952 1034.91 22.6476C1034.42 20.9905 1035.16 22.3714 1033.93 20.9905C1032.96 21.2667 1033.44 20.7143 1032.96 22.3714V22.6476L1022.91 21.819C1022.91 21.819 1021.2 22.0952 1020.71 22.0952C1020.46 22.9238 1020.22 21.819 1020.71 22.9238L1021.2 24.0286C1018.75 24.0286 1019.73 23.4762 1018.75 25.1333C1020.46 25.6857 1019.97 25.4095 1020.71 26.7905C1018.26 26.7905 1017.28 27.3429 1014.34 27.3429H1007.48L1006.99 29.5524C1005.03 29 1004.05 29.5524 1003.07 27.8952C1007.23 27.8952 1005.27 26.7905 1009.44 26.7905L1005.27 26.2381C1004.29 24.3048 1003.31 24.8571 999.64 26.2381C997.926 26.7905 999.151 26.7905 996.946 27.0667L983.963 25.9619C984.698 24.8571 984.453 25.4095 984.943 23.7524C988.372 23.7524 988.372 22.9238 987.882 25.4095H992.292C993.271 22.3714 994.006 25.1333 995.721 22.6476C991.312 22.3714 986.902 22.0952 982.493 22.3714H976.614C974.409 22.6476 972.205 22.3714 970 22.0952C970.735 23.7524 970 23.4762 970 26.5143L979.798 27.0667L978.084 28.1714C976.859 29.2762 977.839 27.8952 977.839 28.7238V29C975.144 29.2762 972.695 29.5524 970 29.5524V87H1991V30.1048C1990.27 30.6571 1989.29 30.6571 1988.55 30.1048C1987.08 29.2762 1987.57 29.2762 1988.55 27.8952C1985.86 27.8952 1985.12 28.1714 1984.63 25.6857C1988.06 27.8952 1986.1 25.6857 1990.51 25.6857V24.0286C1986.59 23.4762 1991.98 21.819 1985.61 21.819C1984.39 25.4095 1982.67 22.9238 1983.65 25.6857C1982.18 25.1333 1982.43 24.8571 1981.94 24.8571C1980.47 24.8571 1982.67 24.8571 1980.71 25.6857C1979 25.1333 1977.04 24.8571 1975.32 25.1333C1974.59 22.0952 1973.85 23.7524 1970.42 21.819C1969.93 20.1619 1970.67 21.5429 1969.44 20.1619C1968.22 20.4381 1968.71 20.1619 1967.73 21.5429L1967.24 21.819L1965.77 23.7524C1962.83 26.2381 1958.67 22.6476 1955.97 24.0286C1956.46 22.3714 1956.95 22.3714 1958.91 22.3714V20.9905C1955.48 20.7143 1959.4 20.4381 1955.97 19.3333C1955.48 20.7143 1956.22 19.0571 1956.46 21.5429L1953.52 22.0952C1953.77 18.2286 1954.99 18.5048 1950.34 17.1238H1950.09L1943.97 16.019C1943.97 16.019 1941.76 16.5714 1941.52 16.8476L1939.8 18.2286L1938.09 19.8857C1934.9 21.819 1931.23 22.6476 1927.55 22.3714C1926.09 22.3714 1924.37 22.3714 1922.9 22.6476V21.2667C1921.92 22.0952 1921.92 22.3714 1920.7 22.6476C1919.47 22.9238 1919.23 22.0952 1918.49 21.819C1916.78 20.1619 1918.25 20.9905 1915.8 20.7143C1914.33 22.0952 1915.06 20.9905 1914.33 24.0286C1908.45 24.581 1915.55 24.8571 1909.43 23.4762H1906.98C1906.49 22.3714 1907.22 22.3714 1906 21.2667L1905.51 23.4762C1900.36 23.4762 1902.08 21.5429 1899.14 24.581C1897.18 25.9619 1894.73 26.7905 1892.28 26.7905C1892.28 24.8571 1893.51 25.1333 1887.87 23.4762C1888.36 21.5429 1888.61 22.6476 1889.34 20.7143C1887.63 20.4381 1885.91 19.8857 1884.2 19.3333C1880.03 18.2286 1884.2 19.6095 1879.54 19.6095C1879.54 20.4381 1879.79 21.5429 1880.03 22.3714C1879.05 22.3714 1878.07 22.6476 1877.09 22.9238V24.0286C1874.4 23.7524 1875.13 22.9238 1876.11 21.2667C1875.13 21.2667 1875.13 20.9905 1874.4 21.5429C1873.66 22.0952 1874.15 22.0952 1873.91 22.6476C1873.66 23.2 1873.91 23.4762 1872.68 24.3048C1869.01 26.5143 1865.33 23.2 1865.33 23.2L1861.91 24.3048C1861.91 22.6476 1861.91 23.2 1861.42 22.0952L1859.46 22.9238H1859.21C1857.5 23.2 1855.78 22.9238 1854.31 22.6476C1854.8 22.0952 1855.29 21.819 1855.78 21.5429L1855.29 20.9905C1854.8 20.7143 1854.31 20.7143 1854.07 20.7143C1853.33 23.7524 1852.35 22.3714 1849.9 22.9238L1839.86 22.0952C1838.39 21.819 1841.33 22.0952 1839.37 22.0952H1838.63C1837.9 22.3714 1838.88 22.0952 1837.41 22.6476C1838.14 19.8857 1838.14 22.0952 1838.88 19.3333C1837.65 19.8857 1836.43 20.9905 1835.45 22.0952C1834.47 23.2 1835.2 22.9238 1833.98 23.2C1832.51 23.4762 1832.51 22.9238 1831.77 22.0952C1832.75 20.7143 1832.26 20.7143 1834.22 20.4381V19.3333C1829.33 18.2286 1833.73 23.4762 1824.92 23.7524C1824.67 22.9238 1824.92 22.9238 1824.18 22.3714H1823.45L1821.73 22.0952H1821.49C1819.04 21.819 1820.26 22.3714 1818.55 20.9905C1817.57 23.2 1818.79 22.3714 1817.08 23.7524C1816.59 23.4762 1816.1 23.2 1815.61 22.6476C1814.87 22.0952 1815.12 22.3714 1814.14 22.0952C1813.65 24.3048 1813.89 23.7524 1811.69 23.7524L1809.73 23.2C1807.28 23.4762 1805.81 25.6857 1804.58 23.2C1803.36 20.7143 1804.58 23.7524 1804.34 22.6476C1803.6 19.6095 1805.07 24.0286 1804.34 21.819C1803.11 22.6476 1803.85 22.3714 1801.89 22.3714C1801.4 23.7524 1801.64 22.9238 1801.89 24.581C1799.44 24.3048 1801.89 25.9619 1799.44 21.819C1800.66 21.819 1800.17 21.5429 1800.66 21.5429L1801.4 21.2667C1804.83 20.1619 1803.11 21.819 1804.58 19.8857C1802.87 19.3333 1801.4 19.3333 1799.68 19.3333C1799.2 20.7143 1799.2 19.6095 1799.68 20.9905H1797.73L1796.75 20.4381C1795.77 19.8857 1797.24 20.4381 1795.03 20.7143C1791.85 21.2667 1793.32 19.3333 1788.42 22.0952C1788.66 23.4762 1789.15 23.4762 1789.89 24.3048C1786.46 24.0286 1783.03 23.4762 1779.6 22.6476C1780.09 22.3714 1779.6 22.3714 1780.58 22.0952H1782.05L1780.58 20.4381C1777.88 19.0571 1775.68 20.9905 1773.23 20.9905C1769.55 20.7143 1774.21 19.8857 1769.8 19.8857C1768.33 19.8857 1767.59 20.7143 1765.88 20.9905L1764.41 18.781C1765.64 19.0571 1766.62 19.3333 1767.84 19.3333V17.9524C1766.62 17.9524 1765.15 17.6762 1763.92 17.4C1763.92 21.5429 1764.66 20.1619 1765.39 22.9238C1764.17 22.9238 1762.7 22.9238 1761.47 23.4762C1758.78 24.0286 1755.84 24.0286 1753.14 23.4762C1750.94 23.4762 1753.14 23.7524 1751.43 24.0286C1750.45 24.0286 1750.69 24.0286 1749.96 23.7524C1746.77 22.9238 1747.51 23.7524 1744.08 23.4762C1740.65 23.2 1740.4 21.819 1736.24 21.819C1735.26 24.0286 1736.48 21.819 1735.75 24.0286C1734.77 23.7524 1733.55 24.0286 1732.57 24.3048L1731.59 24.8571L1730.85 24.0286C1728.16 25.1333 1725.46 25.4095 1722.77 25.4095C1723.01 23.7524 1723.26 24.581 1722.77 23.2C1720.56 23.4762 1721.54 24.3048 1720.07 24.3048L1717.38 24.8571C1716.89 23.7524 1716.15 23.2 1715.17 22.9238L1714.93 22.6476C1712.72 21.5429 1713.21 22.0952 1711.01 22.6476C1710.27 20.9905 1711.25 22.3714 1710.03 20.9905C1708.56 21.5429 1710.03 20.7143 1709.29 21.5429L1709.05 22.6476L1707.33 22.9238L1703.17 22.6476V20.9905H1701.21V21.2667C1701.21 21.5429 1701.21 21.5429 1700.97 21.819C1700.97 22.3714 1701.21 21.819 1700.72 22.6476C1698.27 20.7143 1700.23 22.0952 1696.8 22.0952C1696.56 22.9238 1696.31 21.819 1696.8 22.9238L1697.29 24.0286C1695.33 24.0286 1696.07 23.7524 1694.84 24.581C1696.07 26.2381 1695.58 25.1333 1696.8 26.7905C1694.11 26.2381 1690.19 28.4476 1686.27 27.0667L1682.59 26.2381C1682.84 24.3048 1682.59 25.9619 1682.84 24.8571C1683.08 23.7524 1682.84 25.4095 1683.57 23.4762C1681.86 23.2 1682.1 23.4762 1681.12 22.3714C1683.82 22.3714 1693.37 23.4762 1695.58 21.2667L1666.43 22.0952C1664.47 22.3714 1662.02 22.0952 1660.06 22.0952C1659.32 22.0952 1658.1 22.3714 1657.61 22.3714L1649.28 22.0952L1650.75 20.4381C1648.54 20.1619 1646.58 20.1619 1644.38 20.4381C1642.17 20.9905 1639.73 21.2667 1637.52 20.9905C1638.01 22.3714 1638.01 21.2667 1637.52 22.6476C1640.95 21.819 1644.38 21.2667 1647.81 21.5429H1648.3C1648.3 22.3714 1646.09 23.7524 1645.36 24.0286L1639.24 25.9619C1637.77 26.2381 1636.3 26.2381 1634.83 25.9619C1634.58 27.3429 1634.34 25.1333 1635.07 26.5143C1635.81 27.8952 1635.56 25.9619 1635.32 27.0667C1633.85 27.8952 1634.34 27.619 1632.38 27.619C1632.13 27.3429 1632.13 27.0667 1632.13 26.7905V25.9619C1630.17 26.5143 1631.4 26.7905 1629.68 26.7905C1628.95 26.7905 1627.72 26.2381 1626.5 25.9619C1623.56 25.4095 1625.27 26.2381 1622.58 26.5143H1620.62V23.7524C1618.41 25.4095 1618.66 26.5143 1613.76 27.0667C1613.51 25.1333 1613.51 25.1333 1611.8 24.8571C1612.29 27.0667 1614.49 28.1714 1608.86 28.7238C1607.88 27.0667 1607.39 27.3429 1606.9 24.8571H1610.82C1610.33 22.3714 1608.86 22.6476 1607.15 23.4762H1606.9C1606.17 23.7524 1605.43 23.7524 1604.7 23.7524C1605.92 26.5143 1605.19 25.9619 1605.19 29.8286C1602 29.8286 1599.31 32.8667 1597.1 30.6571L1596.37 28.7238C1593.18 28.4476 1590 28.7238 1587.06 29.2762C1587.55 27.0667 1588.04 27.619 1589.02 25.9619C1586.81 25.4095 1585.59 25.1333 1585.59 28.7238C1583.14 29 1584.36 29.2762 1581.91 29C1580.44 28.7238 1578.48 27.619 1577.01 28.1714C1574.57 29 1577.99 27.8952 1576.28 28.4476C1576.03 28.4476 1575.79 28.7238 1575.3 29C1574.08 29.5524 1572.85 29.8286 1571.63 30.1048C1571.63 30.1048 1571.87 30.1048 1571.87 30.381C1572.12 31.2095 1571.87 30.1048 1572.61 30.6571C1573.34 31.2095 1573.1 30.381 1573.59 31.7619C1572.61 32.3143 1571.87 32.8667 1570.89 33.1429C1567.95 33.9714 1568.44 32.3143 1568.2 35.0762L1559.38 35.6286C1555.95 34.8 1557.91 34.8 1557.66 34.2476C1556.93 32.8667 1557.66 33.1429 1556.93 31.2095C1553.01 33.9714 1555.46 32.0381 1550.56 31.7619C1545.66 31.4857 1547.62 31.2095 1547.86 30.6571L1548.11 30.381L1548.84 28.4476C1545.41 28.7238 1549.33 28.7238 1547.37 29.2762L1545.66 28.7238H1543.7L1543.21 29C1542.23 29.2762 1544.43 29.2762 1541.74 29.5524L1543.46 30.381L1543.7 30.6571C1541.25 30.9333 1542.48 31.2095 1539.54 30.9333C1534.39 30.381 1536.11 32.8667 1527.29 30.6571C1526.31 30.1048 1525.08 30.1048 1523.86 30.1048C1521.65 29.8286 1522.39 29.5524 1520.43 29C1520.67 25.9619 1521.9 26.2381 1523.86 25.6857C1526.06 24.8571 1528.51 24.3048 1530.72 24.581C1530.23 24.3048 1530.72 24.3048 1529.49 24.0286C1528.27 23.7524 1529.25 24.0286 1528.02 24.0286C1524.35 24.3048 1520.67 23.7524 1518.71 25.1333C1516.75 26.5143 1519.2 25.4095 1517 25.9619V28.1714H1518.96C1517.98 29.8286 1518.96 28.4476 1517.98 29C1514.79 30.381 1503.04 29.8286 1499.12 29.8286V31.7619C1496.42 31.7619 1493.73 32.3143 1491.28 32.8667C1492.26 29 1493.24 32.8667 1496.67 30.1048C1495.44 30.1048 1494.22 30.1048 1492.99 29.8286C1491.77 29.5524 1491.77 30.1048 1491.28 28.4476C1490.05 27.619 1490.05 27.0667 1488.83 27.8952C1488.58 29 1488.83 28.7238 1488.34 29.5524L1486.13 29.2762C1481.72 28.1714 1484.17 31.4857 1475.36 28.1714C1473.64 27.619 1475.6 27.8952 1473.64 27.3429L1472.17 28.4476C1471.19 27.619 1471.44 27.3429 1469.72 27.3429C1468.5 27.3429 1468.5 27.619 1466.78 27.8952C1462.37 28.1714 1463.11 27.8952 1460.9 26.2381C1461.39 29 1461.15 27.0667 1460.9 27.8952L1451.84 28.1714C1448.41 28.1714 1452.57 27.0667 1449.14 27.619C1445.72 28.1714 1448.65 30.381 1444.49 28.1714C1440.82 26.2381 1443.51 29 1439.1 29.2762C1439.1 25.1333 1441.8 25.6857 1442.04 22.0952C1441.06 22.3714 1435.67 27.0667 1435.18 28.7238C1431.26 28.7238 1434.45 28.1714 1430.53 29C1428.32 29.5524 1428.57 28.4476 1426.85 27.0667C1425.38 28.4476 1423.91 29.5524 1422.2 30.1048C1418.77 30.9333 1417.3 28.7238 1417.05 32.5905C1414.61 31.4857 1417.54 32.3143 1415.1 31.4857C1414.12 33.9714 1415.34 33.6952 1412.16 33.6952C1412.89 32.5905 1414.12 30.9333 1412.4 29.2762C1411.67 28.4476 1411.18 28.4476 1410.69 29C1409.71 30.1048 1410.44 28.7238 1410.44 29.8286L1410.93 30.9333C1408.73 30.381 1408.24 28.7238 1406.77 28.4476C1404.81 28.1714 1402.6 28.4476 1400.64 28.7238V28.1714C1400.64 27.3429 1401.13 29 1400.64 27.3429C1400.4 26.7905 1400.64 26.5143 1398.93 26.2381C1398.19 27.8952 1398.68 28.1714 1398.19 29.8286C1397.95 30.9333 1397.21 31.2095 1396.48 32.3143C1395.5 31.2095 1394.03 30.6571 1392.56 30.6571L1394.03 29C1391.58 29.5524 1392.56 29 1389.62 29C1389.62 29.8286 1389.86 30.9333 1390.11 31.7619C1386.43 31.7619 1387.41 32.5905 1384.72 32.8667C1384.72 30.6571 1384.48 31.2095 1385.21 29.5524C1382.52 29.5524 1381.05 29 1379.82 30.6571C1381.05 30.6571 1382.03 30.381 1383.25 30.1048C1382.27 33.9714 1380.8 30.6571 1376.64 32.0381C1374.19 33.1429 1371.49 33.1429 1369.04 32.3143C1368.31 29 1368.8 30.9333 1369.04 27.8952C1368.31 28.1714 1367.57 28.4476 1366.84 29C1364.88 29.8286 1365.12 29.2762 1364.63 29.2762C1361.2 29.5524 1363.65 30.1048 1362.92 32.3143C1360.47 32.0381 1362.18 31.7619 1359.98 30.1048C1357.77 28.4476 1359 30.381 1357.53 27.3429C1360.47 28.1714 1358.51 27.3429 1361.45 26.7905H1377.62V25.6857C1374.19 25.6857 1374.43 24.8571 1371.74 24.581L1361.45 24.0286C1359.49 23.7524 1358.51 22.6476 1356.3 24.0286C1355.81 24.3048 1357.77 24.0286 1355.32 24.581H1353.36C1353.36 24.3048 1353.61 23.4762 1353.85 23.4762C1354.1 22.0952 1354.34 23.4762 1353.85 22.3714C1352.63 23.2 1353.36 22.9238 1351.41 22.9238C1350.18 21.2667 1349.69 22.9238 1349.2 23.2C1347.73 24.3048 1349.45 24.0286 1347 23.7524C1344.55 23.4762 1332.05 22.9238 1331.07 24.581V25.1333L1330.83 24.8571L1330.34 25.1333L1329.6 25.4095C1334.5 25.4095 1335.97 26.5143 1344.55 26.5143C1344.06 28.4476 1342.34 29.8286 1340.63 29.8286C1337.69 29.8286 1340.14 28.1714 1335.24 29.2762C1335.24 25.9619 1335.48 27.619 1334.26 27.0667C1333.77 28.4476 1334.01 28.4476 1334.75 29.8286L1327.4 30.1048H1324.7C1324.46 30.1048 1324.7 30.381 1323.48 30.1048C1322.25 29.8286 1322.74 29.8286 1322.5 29.8286C1320.54 29.2762 1321.52 29.8286 1320.3 29.8286C1319.56 30.1048 1318.83 29.8286 1318.34 29.2762C1317.11 28.1714 1317.36 29.5524 1318.58 27.3429C1315.89 27.3429 1315.15 27.619 1314.66 25.1333C1316.62 26.2381 1315.89 26.2381 1317.6 25.6857H1317.85L1319.07 25.4095C1320.54 24.8571 1320.05 25.6857 1320.54 24.3048C1321.03 22.9238 1321.03 24.8571 1320.05 23.7524C1317.36 20.9905 1319.07 21.5429 1315.64 21.5429C1314.66 25.1333 1312.7 22.6476 1313.68 25.4095C1312.21 24.8571 1312.46 24.581 1311.72 24.581C1310.25 24.581 1312.46 24.581 1310.5 25.4095C1308.78 24.8571 1306.82 24.581 1305.11 24.8571C1304.62 22.6476 1302.9 22.0952 1300.21 22.0952V21.819L1293.59 19.8857L1290.65 23.4762C1288.21 25.6857 1283.8 23.2 1281.35 23.2C1282.33 21.5429 1281.35 22.0952 1283.8 22.0952V21.2667C1280.37 20.9905 1284.29 20.7143 1280.86 19.6095C1280.37 20.9905 1281.1 19.3333 1281.35 21.819L1278.41 22.3714C1278.41 20.1619 1280.61 17.9524 1273.51 17.1238C1262.97 15.7429 1267.87 18.5048 1262.24 20.7143L1261.01 20.9905C1252.44 24.0286 1257.34 22.0952 1247.79 22.9238V21.2667C1246.81 22.0952 1246.81 22.3714 1245.58 22.6476H1244.6C1244.36 22.6476 1244.11 22.3714 1243.87 22.3714L1243.13 21.5429Z" fill="white"/>
<path d="M1487.36 27.8952C1489.32 27.8952 1489.56 28.1714 1491.77 28.4476C1497.4 28.7238 1490.79 29.2762 1495.2 29.5524V28.4476C1502.55 28.1714 1494.95 29.8286 1503.53 27.8952C1505 27.619 1506.47 27.0667 1507.94 27.0667C1509.9 27.0667 1510.39 28.7238 1511.86 26.2381C1509.65 25.9619 1510.14 25.4095 1507.45 25.9619C1505.98 25.9619 1504.75 25.9619 1503.53 26.2381V27.3429C1501.81 26.7905 1502.79 26.7905 1501.32 26.2381H1498.63C1498.14 25.4095 1498.63 25.4095 1497.4 25.1333H1494.71C1494.71 25.4095 1494.95 25.4095 1494.71 27.3429L1487.36 27.8952ZM1033.93 9.94286C1036.63 11.3238 1039.81 11.0476 1042.26 9.11429L1043.73 8.00952C1041.77 7.45714 1039.81 7.18095 1037.85 6.90476C1035.4 6.62857 1034.67 8.00952 1033.93 9.94286ZM1709.05 9.94286C1712.23 11.6 1712.23 11.0476 1715.91 9.66667L1719.09 7.73333C1717.13 7.18095 1715.17 6.90476 1713.21 6.62857C1710.52 6.62857 1709.78 8.00952 1709.05 9.94286ZM1073.13 8.8381C1074.11 12.981 1075.58 8.00952 1076.56 12.1524H1078.52L1078.27 9.94286C1077.54 6.90476 1075.33 9.39048 1073.13 8.8381ZM1748 8.8381C1748.98 12.981 1750.45 8.00952 1751.43 12.1524H1753.39C1753.39 11.3238 1753.63 8.28571 1751.43 8.28571C1749.22 8.28571 1750.94 9.39048 1748 8.8381ZM1377.13 25.9619C1379.33 25.9619 1378.84 26.5143 1380.56 26.5143C1381.78 26.2381 1383.25 26.2381 1384.47 25.9619V24.8571C1378.6 24.3048 1378.6 23.4762 1377.13 25.9619ZM1123.84 19.8857C1127.02 20.9905 1122.12 19.8857 1125.31 20.9905C1125.8 19.6095 1125.06 20.1619 1126.29 19.8857H1128.74V18.781C1127.02 18.2286 1125.55 18.2286 1123.84 18.2286C1123.35 19.6095 1123.35 18.5048 1123.84 19.8857ZM1009.68 14.9143C1010.91 15.7429 1011.4 15.4667 1013.6 15.4667C1015.07 15.4667 1014.58 15.1905 1015.07 14.3619C1013.85 13.8095 1009.68 12.981 1009.68 14.9143ZM1684.55 14.9143C1685.78 15.7429 1686.27 15.4667 1688.47 15.4667C1689.94 15.4667 1689.45 15.1905 1689.94 14.3619C1688.96 13.8095 1685.04 12.981 1684.55 14.9143ZM1725.71 6.62857V7.18095L1729.63 7.73333C1730.36 5.52381 1729.38 6.90476 1732.57 7.18095V6.07619C1729.63 6.07619 1728.65 6.62857 1725.71 6.62857ZM1050.84 6.62857V7.18095L1054.76 7.73333C1055.49 5.52381 1054.51 6.90476 1057.7 7.18095V6.07619C1054.51 6.07619 1053.53 6.62857 1050.84 6.62857ZM1733.3 7.18095H1739.18C1738.2 5.52381 1739.18 6.07619 1736.73 6.07619H1733.3V7.18095ZM1058.19 7.18095H1064.07C1063.09 5.52381 1064.07 6.07619 1061.62 6.07619H1058.19V7.18095ZM1307.07 8.28571C1305.35 5.52381 1304.37 5.52381 1301.68 3.86667C1302.17 5.8 1302.17 5.52381 1303.88 6.35238C1304.86 7.18095 1306.09 7.73333 1307.07 8.28571ZM1981.94 8.28571C1980.22 5.52381 1979.24 5.52381 1976.55 3.86667C1977.04 5.8 1977.04 5.52381 1978.75 6.35238C1979.73 7.18095 1980.96 7.73333 1981.94 8.28571ZM1527.53 30.6571V29.5524L1528.02 28.4476C1525.33 27.619 1525.82 26.7905 1524.59 29.5524C1526.31 30.1048 1526.06 30.381 1527.53 30.6571ZM1732.81 18.2286C1735.02 18.781 1735.51 19.6095 1736.24 17.1238C1735.26 16.8476 1732.81 15.4667 1732.81 18.2286ZM1057.7 18.2286C1059.9 18.781 1060.64 19.6095 1061.13 17.1238C1060.15 16.8476 1057.7 15.4667 1057.7 18.2286ZM1778.62 14.9143L1783.52 15.4667V14.3619C1780.82 14.3619 1780.82 13.8095 1778.62 13.8095V14.9143ZM1769.55 11.6L1769.31 11.3238L1767.84 9.94286C1766.62 9.11429 1765.15 9.39048 1764.17 10.219C1765.88 11.0476 1767.59 11.6 1769.55 11.6ZM1094.44 11.6L1094.2 11.0476L1092.24 9.94286C1089.79 9.39048 1089.54 10.4952 1089.3 10.4952C1090.77 11.0476 1092.73 11.6 1094.44 11.6ZM1743.1 7.18095C1749.96 7.18095 1750.2 8.28571 1752.41 6.07619L1743.1 7.18095ZM1068.23 7.18095C1071.9 7.18095 1075.33 7.73333 1076.8 6.90476C1078.27 5.8 1077.05 6.62857 1077.54 6.07619L1068.23 7.18095ZM1590.24 23.7524C1593.18 23.7524 1593.92 23.2 1596.61 23.2V22.6476C1594.16 22.6476 1591.47 22.0952 1590.24 23.7524ZM1593.67 21.5429C1595.88 21.5429 1596.37 20.9905 1599.06 20.9905V20.4381H1593.67V21.5429ZM1560.85 33.419C1562.81 33.419 1562.81 33.6952 1564.28 32.8667C1563.79 32.0381 1564.28 31.7619 1562.81 31.7619C1561.34 31.7619 1561.09 32.5905 1560.85 33.419ZM1552.52 24.3048C1554.48 24.3048 1553.74 24.8571 1555.95 24.8571C1557.42 24.8571 1556.93 24.581 1557.42 23.7524H1552.52V24.3048ZM1080.48 10.4952C1081.46 10.7714 1082.44 11.0476 1083.42 11.0476C1082.44 9.39048 1082.68 9.39048 1080.48 9.39048V10.4952ZM1755.59 10.4952C1756.57 10.7714 1757.55 11.0476 1758.53 11.0476C1757.55 9.39048 1757.8 9.39048 1755.59 9.39048V10.4952ZM1744.08 12.7048C1745.06 12.981 1746.28 12.4286 1747.02 11.6C1746.53 10.7714 1746.77 11.0476 1746.53 9.94286L1744.08 12.7048ZM1069.21 12.7048C1070.19 12.981 1071.41 12.4286 1072.15 11.6C1071.9 11.0476 1071.66 10.4952 1071.66 9.94286L1069.21 12.7048ZM1096.4 17.1238H1100.32C1099.83 16.8476 1100.07 16.8476 1099.58 16.2952C1099.09 15.7429 1096.65 15.7429 1096.4 17.1238ZM1771.51 17.1238H1775.43C1775.19 16.8476 1775.43 16.8476 1774.7 16.2952C1773.96 15.7429 1771.51 15.7429 1771.51 17.1238ZM1475.6 26.5143C1478.79 26.5143 1479.03 27.619 1480.01 25.9619H1475.6V26.5143ZM1769.55 11.6L1768.82 12.7048H1772V11.6H1769.55ZM1094.44 11.6L1093.95 12.7048H1096.89V11.6H1094.44ZM1318.09 25.9619C1320.54 25.9619 1320.05 26.5143 1321.03 24.8571H1318.09V25.9619ZM1959.15 20.4381C1960.87 20.1619 1960.87 20.1619 1961.11 18.2286C1959.4 18.781 1959.64 18.5048 1959.15 20.4381ZM1284.29 20.4381C1286 20.1619 1286 20.1619 1286.25 18.2286C1284.53 18.781 1284.78 18.5048 1284.29 20.4381ZM1739.18 10.4952C1741.14 10.219 1740.65 10.7714 1741.14 8.8381H1739.18V10.4952ZM1064.07 10.4952C1066.03 10.219 1065.54 10.7714 1066.02 8.8381H1064.07V10.4952ZM1116.98 17.1238C1118.45 17.1238 1117.96 16.8476 1118.45 16.019H1114.77C1116.24 17.1238 1115.75 17.1238 1116.98 17.1238ZM1791.85 17.1238C1793.32 17.1238 1792.83 16.8476 1793.32 16.019H1789.89C1790.38 16.2952 1790.13 16.2952 1790.62 16.8476C1791.11 17.4 1789.89 17.1238 1791.85 17.1238ZM1821 20.4381L1823.45 19.8857V17.6762L1821 20.4381ZM1146.13 20.4381L1148.58 19.8857V17.6762L1146.13 20.4381ZM1977.04 22.0952C1978.26 23.7524 1978.26 23.7524 1979.98 23.2L1979 22.3714L1978.75 22.0952C1978.51 22.0952 1977.53 21.5429 1977.04 22.0952ZM1846.23 13.2571H1848.19V12.1524L1846.23 11.6V13.2571ZM1145.64 11.0476L1146.62 11.6C1148.09 11.6 1147.6 11.3238 1148.09 10.4952C1147.11 10.219 1145.88 9.39048 1145.64 11.0476ZM1820.51 11.0476L1821.49 11.6C1822.96 11.6 1822.47 11.3238 1822.96 10.4952C1822.22 10.219 1820.75 9.39048 1820.51 11.0476ZM1057.7 11.0476H1060.15V12.1524H1057.7V11.0476ZM1732.81 11.0476H1735.26V12.1524H1732.81V11.0476Z" fill="white"/>
<path d="M1527.53 29.5524H1532.43V30.1048H1527.53V29.5524ZM1105.95 14.3619H1108.4V15.4667H1105.95V14.3619ZM1301.92 22.0952C1302.9 23.7524 1303.15 23.7524 1304.86 23.2L1304.62 22.9238L1302.9 21.819C1302.66 21.819 1302.17 21.819 1301.92 22.0952ZM1611.55 20.4381L1614.49 20.9905V19.8857H1611.55V20.4381ZM1173.56 20.4381C1175.52 20.1619 1175.03 20.7143 1175.52 18.781H1173.56C1173.81 19.8857 1174.05 19.3333 1173.56 20.4381ZM1754.12 8.8381C1756.08 7.18095 1753.88 7.18095 1756.57 7.18095V6.62857H1754.12V8.8381ZM1079.01 8.8381C1080.97 7.18095 1078.76 7.18095 1081.46 7.18095V6.62857H1079.01V8.8381ZM1499.85 25.4095L1502.55 25.1333C1503.28 24.8571 1503.04 24.8571 1503.28 24.3048C1501.81 24.3048 1500.1 24.0286 1499.85 25.4095ZM1677.45 19.3333H1681.86V19.8857H1677.45V19.3333ZM1218.15 25.4095H1221.09C1220.84 25.1333 1218.39 22.9238 1218.15 25.4095ZM1757.31 15.4667H1759.76V14.3619C1758.29 14.3619 1757.31 14.0857 1757.31 15.4667ZM1081.95 15.4667H1084.4V14.3619C1083.17 14.3619 1082.19 14.0857 1081.95 15.4667ZM1545.17 11.6H1547.62C1546.64 9.94286 1547.62 10.4952 1545.17 10.4952V11.6ZM1253.42 29.5524C1254.4 29.5524 1254.16 29.8286 1255.38 28.4476H1252.44C1252.69 29 1252.69 29.5524 1253.42 29.5524ZM1928.53 29.5524C1929.76 29.5524 1929.27 29.8286 1930.49 28.4476H1927.55C1927.8 29 1927.8 29.5524 1928.53 29.5524ZM1848.68 20.4381C1850.88 20.1619 1849.66 20.9905 1850.64 19.3333C1850.15 19.0571 1849.41 18.781 1848.68 18.781C1848.92 19.8857 1849.17 19.3333 1848.68 20.4381ZM1082.93 6.62857H1086.85V7.18095H1082.93V6.62857ZM1758.04 6.62857H1761.96V7.18095H1758.04V6.62857ZM1129.71 12.1524H1131.67V13.2571H1129.71V12.1524ZM1804.83 12.1524H1806.79V13.2571H1804.83V12.1524ZM1103.5 13.8095H1105.46V14.9143H1103.5V13.8095ZM1557.42 30.1048H1559.38V31.2095H1557.42V30.1048ZM1782.54 12.1524H1784.99C1784.74 11.6 1784.74 11.0476 1784.01 11.0476C1783.27 11.0476 1782.54 11.3238 1782.54 12.1524ZM1893.26 25.4095H1895.71C1895.46 24.8571 1895.46 24.3048 1894.73 24.3048C1894 24.3048 1893.51 24.581 1893.26 25.4095ZM1107.42 12.1524H1109.87C1109.63 11.6 1109.38 11.0476 1108.89 11.0476C1108.4 11.0476 1107.42 11.3238 1107.42 12.1524ZM1798.95 8.8381H1801.4C1801.15 8.5619 1801.4 8.5619 1800.66 8.00952C1799.44 7.45714 1800.42 7.73333 1798.95 7.73333V8.8381ZM1123.84 8.8381H1126.29C1125.8 8.5619 1126.29 8.5619 1125.55 8.00952C1124.33 7.45714 1125.31 7.73333 1123.84 7.73333V8.8381ZM1041.28 23.2H1043.73C1043.24 22.9238 1043.73 22.9238 1043 22.3714C1041.77 22.0952 1042.51 22.3714 1041.28 22.0952V23.2ZM1549.58 29.5524V28.4476H1547.13C1547.37 28.7238 1547.13 28.7238 1547.86 29.2762C1549.09 29.8286 1548.11 29.5524 1549.58 29.5524ZM1173.07 13.2571C1172.58 11.8762 1173.07 12.1524 1171.11 11.6C1172.09 14.0857 1170.62 12.981 1173.07 13.2571ZM1322.25 25.9619H1325.68V26.5143H1322.25V25.9619ZM1504.26 24.3048H1507.69V24.8571H1504.26V24.3048ZM1716.4 23.2H1718.85V22.6476C1718.11 22.6476 1717.13 22.3714 1716.4 22.0952V23.2ZM1214.72 20.4381H1216.68V19.3333C1215.45 19.6095 1214.96 19.3333 1214.72 20.4381ZM1693.86 1.10476C1696.07 0.828571 1694.84 1.65714 1695.82 0H1693.86V1.10476ZM1018.75 1.10476C1020.95 0.828571 1019.48 1.65714 1020.71 0H1018.75V1.10476ZM1845 13.2571V12.1524H1843.04C1844.02 13.8095 1842.55 12.981 1845 13.2571ZM1169.89 13.2571V12.1524H1167.93C1169.15 13.8095 1167.68 12.981 1169.89 13.2571ZM1626.5 12.7048H1627.97C1627.48 11.0476 1628.7 12.4286 1626.5 11.0476V12.7048ZM1891.55 19.3333C1889.34 19.6095 1890.57 18.781 1889.59 20.4381C1892.53 20.4381 1891.06 20.7143 1891.55 19.3333ZM1112.32 15.4667H1113.79V16.5714H1112.32V15.4667ZM1881.75 10.4952H1883.22V11.6H1881.75V10.4952ZM1787.44 15.4667H1788.91V16.5714H1787.44V15.4667ZM1551.54 29H1554.48V29.5524H1551.54V29ZM1165.97 19.8857C1167.68 20.1619 1167.44 20.9905 1167.93 18.781L1166.95 19.3333C1165.97 19.8857 1166.7 19.3333 1165.97 19.8857ZM1840.84 19.8857C1842.55 20.1619 1842.31 20.9905 1842.8 18.781C1842.55 18.781 1841.82 19.0571 1841.82 19.3333C1840.84 19.8857 1841.57 19.3333 1840.84 19.8857ZM1141.23 13.8095C1140.25 12.1524 1141.47 12.981 1139.27 12.7048C1140.49 14.3619 1139.02 13.5333 1141.23 13.8095ZM1566.48 17.1238C1565.26 15.4667 1566.73 16.2952 1564.52 16.019C1565.5 17.6762 1564.28 16.8476 1566.48 17.1238ZM1816.1 13.8095C1814.87 12.1524 1816.34 12.981 1814.14 12.7048C1815.36 14.3619 1813.89 13.5333 1816.1 13.8095ZM1056.72 17.6762H1054.76C1055.74 19.3333 1055.74 19.3333 1056.72 17.6762ZM1731.83 17.6762H1729.87C1730.85 19.3333 1730.85 19.3333 1731.83 17.6762ZM1844.02 20.9905C1844.76 20.9905 1844.51 21.2667 1845.25 20.7143C1846.96 19.8857 1845.98 20.4381 1846.47 19.8857C1845 20.1619 1844.51 20.1619 1844.02 20.9905ZM1509.65 27.8952H1512.1V28.4476H1509.65V27.8952ZM1215.7 23.7524H1217.17V22.6476C1216.43 22.9238 1215.94 22.9238 1215.7 23.7524ZM1890.57 23.7524H1892.04V22.6476C1891.3 22.9238 1890.81 22.9238 1890.57 23.7524ZM1206.63 11.6H1208.1V10.4952C1207.12 10.7714 1206.88 10.4952 1206.63 11.6ZM1538.56 24.3048C1538.07 22.6476 1538.56 23.2 1537.09 22.6476C1538.07 24.8571 1536.84 23.7524 1538.56 24.3048ZM1484.91 27.3429V25.9619H1482.95C1483.44 26.2381 1482.7 25.9619 1483.93 26.5143L1484.91 27.3429ZM1101.05 14.3619C1102.52 14.0857 1101.79 14.3619 1102.52 13.2571H1101.05V14.3619ZM1487.36 26.5143C1488.83 26.2381 1488.09 26.5143 1488.83 25.4095H1487.36V26.5143ZM1776.17 14.3619C1777.64 14.0857 1776.9 14.3619 1777.64 13.2571H1776.17V14.3619ZM1270.32 30.1048H1271.79C1271.06 29 1271.79 29.2762 1270.32 29V30.1048ZM1945.44 30.1048H1946.91C1946.17 29 1946.91 29.2762 1945.44 29V30.1048ZM1169.4 20.9905C1170.38 20.7143 1169.4 21.2667 1170.62 20.7143L1171.36 19.8857C1170.38 20.1619 1169.64 19.8857 1169.4 20.9905ZM1911.39 23.2C1912.37 22.9238 1911.39 23.4762 1912.61 22.9238C1913.35 22.6476 1913.1 22.6476 1913.35 22.0952C1912.37 22.3714 1911.63 22.0952 1911.39 23.2ZM1236.52 23.2C1237.5 22.9238 1236.52 23.4762 1237.74 22.9238L1238.48 22.0952C1237.5 22.3714 1236.76 22.0952 1236.52 23.2ZM981.268 1.65714H983.228V2.20952H981.268V1.65714ZM1682.59 23.2H1684.55V23.7524H1682.59V23.2ZM1656.14 1.65714H1658.1V2.20952H1656.14V1.65714ZM1007.48 23.2H1009.44V23.7524H1007.48V23.2ZM1574.81 23.7524H1576.77V24.3048H1574.81V23.7524ZM1766.37 8.8381H1768.33V9.39048H1766.37V8.8381ZM1804.83 22.0952H1806.79V22.6476H1804.83V22.0952ZM1129.71 22.0952H1131.67V22.6476H1129.71V22.0952ZM1091.26 8.8381H1093.22V9.39048H1091.26V8.8381ZM1561.83 25.4095H1563.79V25.9619H1561.83V25.4095ZM1293.59 18.2286C1295.06 16.8476 1294.33 18.5048 1294.57 16.019C1294.33 16.2952 1294.33 16.019 1293.84 16.8476C1293.35 18.2286 1293.84 17.4 1293.59 18.2286ZM1968.71 18.2286C1970.18 16.8476 1969.44 18.5048 1969.69 16.019C1969.44 16.2952 1969.44 16.019 1968.95 16.8476C1968.46 18.2286 1968.95 17.4 1968.71 18.2286ZM1891.55 19.3333C1893.02 19.0571 1892.28 19.3333 1893.02 18.2286C1890.57 18.5048 1892.28 17.6762 1891.55 19.3333Z" fill="white"/>
<path d="M1482.95 25.9619C1482.7 25.9619 1483.44 24.8571 1481.97 25.6857C1480.5 26.5143 1481.97 25.1333 1481.48 26.5143C1482.7 26.2381 1481.72 26.5143 1482.95 25.9619ZM1218.15 18.2286H1216.68C1217.9 19.8857 1217.17 19.8857 1218.15 18.2286ZM1893.75 19.8857H1892.28C1893.51 21.5429 1892.53 21.5429 1893.75 19.8857ZM1218.64 19.8857H1217.17C1218.39 21.5429 1217.66 21.5429 1218.64 19.8857ZM1780.09 19.8857L1781.07 18.781C1778.37 18.781 1780.33 18.781 1779.6 19.3333L1780.09 19.8857ZM1104.97 19.8857L1105.95 19.0571C1103.26 19.0571 1105.22 19.0571 1104.48 19.6095L1104.97 19.8857ZM1045.94 11.6C1047.41 11.3238 1046.67 11.6 1047.41 10.4952C1046.43 10.7714 1045.94 10.4952 1045.94 11.6ZM1804.34 18.781C1805.81 18.5048 1805.07 18.781 1805.81 17.6762C1804.83 17.9524 1804.58 17.6762 1804.34 18.781ZM1129.23 18.781C1130.69 18.5048 1129.96 18.781 1130.69 17.6762C1129.71 17.9524 1129.47 17.6762 1129.23 18.781ZM1720.81 11.6C1722.28 11.3238 1721.54 11.6 1722.28 10.4952C1721.3 10.7714 1720.81 10.4952 1720.81 11.6ZM1556.93 32.8667H1558.4V33.419H1556.93V32.8667ZM1092.97 6.62857H1094.44V7.18095H1092.97V6.62857ZM1531.94 24.8571H1533.41V25.4095H1531.94V24.8571ZM1173.56 20.9905H1175.03V21.5429H1173.56V20.9905ZM994.986 14.3619H996.456V14.9143H994.986V14.3619ZM1670.1 14.3619H1671.57V14.9143H1670.1V14.3619ZM1767.84 6.62857H1769.31V7.18095H1767.84V6.62857ZM1848.68 20.9905H1850.15V21.5429H1848.68V20.9905ZM1265.91 29.5524H1267.38V30.1048H1265.91V29.5524ZM1735.26 9.39048H1736.73V9.94286H1735.26V9.39048ZM1060.15 9.39048H1061.62V9.94286H1060.15V9.39048ZM1941.03 29.5524H1942.5V30.1048H1941.03V29.5524ZM1972.63 0.552381H1974.1V1.10476H1972.63V0.552381ZM1586.81 22.0952H1588.28V22.6476H1586.81V22.0952ZM1297.51 0.552381H1298.98V1.10476H1297.51V0.552381ZM1142.21 18.781H1143.68V19.3333H1142.21V18.781ZM1374.68 25.4095H1376.15V25.9619H1374.68V25.4095ZM1817.08 18.781H1818.55V19.3333H1817.08V18.781ZM1690.92 26.5143L1689.45 25.4095C1689.94 27.0667 1688.47 26.5143 1690.92 26.5143ZM1988.55 13.8095C1988.06 12.1524 1989.53 12.981 1987.08 12.7048C1987.08 12.7048 1987.33 12.7048 1987.33 12.981C1987.33 13.2571 1987.57 13.2571 1987.57 13.2571C1987.57 13.2571 1988.31 13.5333 1988.55 13.8095ZM1423.91 13.2571C1423.18 12.1524 1423.91 12.4286 1422.44 12.1524C1423.18 13.5333 1422.44 12.7048 1423.91 13.2571ZM1313.44 13.8095C1312.95 12.1524 1314.42 12.981 1311.97 12.7048C1311.97 12.7048 1312.21 12.7048 1312.21 12.981L1313.44 13.8095ZM1727.18 12.1524C1727.18 12.7048 1728.16 13.2571 1727.91 12.1524C1727.91 11.8762 1726.93 10.7714 1727.18 12.1524ZM1052.31 12.1524C1052.31 12.7048 1053.29 13.2571 1053.04 12.1524C1052.8 11.8762 1052.06 10.7714 1052.31 12.1524ZM1798.95 18.2286C1798.71 16.8476 1799.2 17.4 1797.97 17.1238C1797.97 18.5048 1797.48 17.6762 1798.95 18.2286ZM1123.84 18.2286C1123.59 16.8476 1124.08 17.4 1122.86 17.1238C1123.1 18.5048 1122.61 17.6762 1123.84 18.2286ZM1186.55 21.5429C1187.04 22.0952 1188.26 20.7143 1187.04 21.2667C1187.04 21.2667 1185.32 20.7143 1186.55 21.5429ZM1540.27 26.5143C1540.76 27.0667 1541.99 25.6857 1540.76 26.2381C1540.76 26.2381 1539.05 25.6857 1540.27 26.5143ZM1490.79 26.5143C1491.28 27.0667 1492.5 25.6857 1491.28 26.2381C1491.28 26.2381 1489.81 25.6857 1490.79 26.5143ZM1901.1 21.5429C1901.59 22.0952 1902.81 20.7143 1901.59 21.2667C1901.83 21.2667 1900.36 20.7143 1901.1 21.5429ZM1246.56 20.4381C1247.05 20.9905 1248.28 19.6095 1247.05 20.1619C1247.05 20.1619 1245.58 19.6095 1246.56 20.4381ZM1150.54 22.0952C1151.03 22.6476 1152.25 21.2667 1151.03 21.819C1151.27 21.819 1149.8 21.2667 1150.54 22.0952ZM1012.38 17.1238C1012.87 17.6762 1014.09 16.2952 1012.87 16.8476C1013.11 16.8476 1011.64 16.2952 1012.38 17.1238ZM1528.02 23.7524C1528.51 24.3048 1529.74 22.9238 1528.51 23.4762C1528.76 23.4762 1527.29 22.9238 1528.02 23.7524ZM1825.65 22.0952C1826.14 22.6476 1827.37 21.2667 1826.14 21.819C1826.39 21.819 1824.92 21.2667 1825.65 22.0952ZM1921.68 20.4381C1922.17 20.9905 1923.39 19.6095 1922.17 20.1619C1922.17 20.1619 1920.7 19.6095 1921.68 20.4381ZM1717.87 18.781C1718.36 19.3333 1719.58 17.9524 1718.36 18.5048C1718.36 18.5048 1716.89 17.9524 1717.87 18.781ZM1042.75 18.781C1043.24 19.3333 1044.47 17.9524 1043.24 18.5048C1043.24 18.5048 1041.77 17.9524 1042.75 18.781ZM1811.2 17.1238C1811.69 17.6762 1812.91 16.2952 1811.69 16.8476C1811.69 16.8476 1810.46 16.2952 1811.2 17.1238ZM1557.42 23.2C1557.91 23.7524 1559.13 22.3714 1557.91 22.9238C1557.91 22.9238 1556.68 22.3714 1557.42 23.2ZM1157.4 21.5429C1157.89 22.0952 1159.36 20.7143 1158.13 21.2667C1158.13 21.2667 1156.66 20.7143 1157.4 21.5429ZM1861.42 21.5429C1861.91 22.0952 1863.13 20.7143 1861.91 21.2667C1861.91 21.2667 1860.44 20.7143 1861.42 21.5429ZM1536.35 30.1048C1536.84 30.6571 1538.07 29.2762 1536.84 29.8286C1537.09 29.8286 1535.62 29.2762 1536.35 30.1048ZM1225.98 21.5429C1226.47 22.0952 1227.7 20.7143 1226.47 21.2667C1226.72 21.2667 1225.25 20.7143 1225.98 21.5429ZM1832.51 21.5429C1833 22.0952 1834.22 20.7143 1833 21.2667C1833.24 21.2667 1831.77 20.7143 1832.51 21.5429ZM1597.59 23.2C1598.08 23.7524 1599.31 22.3714 1598.08 22.9238C1598.08 22.9238 1596.86 22.3714 1597.59 23.2ZM1472.17 27.3429C1472.66 27.8952 1473.89 26.5143 1472.66 27.0667C1472.66 27.0667 1471.19 26.2381 1472.17 27.3429ZM1136.08 17.1238C1136.57 17.6762 1137.8 16.2952 1136.57 16.8476C1136.57 16.8476 1135.35 16.2952 1136.08 17.1238ZM1687.49 17.1238C1687.98 17.6762 1689.21 16.2952 1687.98 16.8476C1688.23 16.8476 1686.76 16.2952 1687.49 17.1238ZM1621.6 20.4381C1622.09 20.9905 1623.31 19.6095 1622.09 20.1619C1622.09 20.1619 1620.62 19.6095 1621.6 20.4381ZM1560.85 24.3048C1561.34 24.8571 1562.56 23.4762 1561.34 24.0286C1561.34 24.0286 1559.87 23.4762 1560.85 24.3048ZM1909.92 22.6476C1910.41 23.2 1911.63 21.819 1910.41 22.3714C1910.65 22.3714 1909.18 21.819 1909.92 22.6476ZM1557.42 34.5238C1557.91 35.0762 1559.13 33.6952 1557.91 34.2476C1557.91 34.2476 1556.68 33.6952 1557.42 34.5238ZM1634.09 22.6476C1634.58 23.2 1635.81 21.819 1634.58 22.3714C1634.58 22.3714 1632.87 21.819 1634.09 22.6476ZM1235.05 22.6476C1235.54 23.2 1236.76 21.819 1235.54 22.3714C1235.78 22.3714 1234.31 21.819 1235.05 22.6476ZM1617.92 21.5429C1617.92 22.0952 1618.9 22.9238 1618.66 21.5429C1618.41 20.1619 1619.88 21.5429 1618.41 21.2667C1617.92 21.2667 1617.92 20.4381 1617.92 21.5429ZM1905.75 18.781C1905.75 19.3333 1906.73 20.1619 1906.49 18.781C1906.24 17.4 1907.71 18.781 1906.24 18.5048C1905.51 18.5048 1905.75 17.6762 1905.75 18.781ZM1230.39 18.781C1230.39 19.3333 1231.37 20.1619 1231.13 18.781C1230.88 17.4 1232.35 18.781 1230.88 18.5048C1230.39 18.5048 1230.39 17.6762 1230.39 18.781ZM1006.01 23.7524C1006.01 24.3048 1006.99 25.1333 1006.74 23.7524C1006.5 22.3714 1007.97 23.7524 1006.5 23.4762C1006.01 23.4762 1006.01 22.6476 1006.01 23.7524ZM1761.47 20.9905C1761.47 21.2667 1761.96 20.9905 1761.96 20.9905C1761.96 20.9905 1762.94 22.3714 1762.21 20.9905C1762.45 20.9905 1761.47 19.8857 1761.47 20.9905ZM1749.96 20.4381C1749.96 20.7143 1750.45 20.4381 1750.45 20.4381C1750.45 20.4381 1751.43 21.819 1750.69 20.4381C1750.69 20.4381 1749.96 19.3333 1749.96 20.4381ZM1876.85 22.6476L1877.34 21.5429C1876.6 21.819 1876.85 21.2667 1876.6 21.819C1876.36 22.3714 1876.6 21.819 1876.85 22.6476ZM1201.73 22.6476L1202.22 21.5429C1201.49 21.819 1201.73 21.2667 1201.49 21.819C1201.49 22.6476 1201.24 21.819 1201.73 22.6476ZM1426.36 17.1238C1426.36 17.4 1426.85 17.1238 1426.85 17.1238C1426.85 17.1238 1427.83 18.5048 1427.1 16.8476C1426.36 16.8476 1426.36 16.2952 1426.36 17.1238ZM1456 21.5429C1456 21.819 1456.49 21.5429 1456.49 21.5429C1456.49 21.5429 1457.47 22.9238 1456.74 21.5429H1456.49C1456.25 21.5429 1456 20.4381 1456 21.5429ZM1086.36 20.9905C1086.36 21.2667 1086.85 20.9905 1086.85 20.9905C1086.85 20.9905 1087.58 22.3714 1087.09 20.9905H1086.85C1086.6 20.9905 1086.36 19.8857 1086.36 20.9905ZM1075.09 20.4381C1075.09 20.7143 1075.58 20.4381 1075.58 20.4381C1075.58 20.4381 1076.31 21.819 1075.82 20.4381H1075.58C1075.33 20.4381 1075.09 19.3333 1075.09 20.4381ZM1140.25 22.0952H1140.74L1140.25 21.5429V22.0952ZM1815.12 22.0952H1815.61L1815.12 21.5429V22.0952ZM1527.53 30.6571V31.2095L1528.27 30.9333L1527.53 30.6571ZM1091.26 6.62857C1090.77 8.00952 1091.99 6.90476 1091.26 6.62857C1091.75 6.62857 1091.75 6.62857 1091.26 6.62857ZM1619.15 20.4381C1618.9 20.4381 1619.15 20.1619 1619.15 20.4381V20.4381ZM1619.15 18.781C1618.9 18.781 1619.15 18.5048 1619.15 18.781V18.781Z" fill="white"/>
</svg>
