<?xml version="1.0" encoding="UTF-8"?>
<!DOCTYPE svg PUBLIC "-//W3C//DTD SVG 1.1//EN" "http://www.w3.org/Graphics/SVG/1.1/DTD/svg11.dtd">
<!-- Creator: CorelDRAW X7 -->
<svg xmlns="http://www.w3.org/2000/svg" xml:space="preserve" width="1240px" height="666px" version="1.1" style="shape-rendering:geometricPrecision; text-rendering:geometricPrecision; image-rendering:optimizeQuality; fill-rule:evenodd; clip-rule:evenodd"
viewBox="0 0 1240 666"
 xmlns:xlink="http://www.w3.org/1999/xlink">
 <defs>
  <style type="text/css">
   <![CDATA[
    .fil0 {fill:white}
   ]]>
  </style>
 </defs>
 <g id="Слой_x0020_1">
  <metadata id="CorelCorpID_0Corel-Layer"/>
  <path class="fil0" d="M887 53l4 0 9 20 15 0 -11 -22c2,-1 3,-2 5,-4 2,-3 4,-6 3,-10 0,-10 -7,-17 -17,-17l-21 0 0 53 13 0 0 -20zm0 -21l7 0c3,0 5,2 5,5 0,0 0,0 0,0 0,3 -2,6 -5,6 0,0 0,0 0,0l-7 0 0 -11z"/>
  <path class="fil0" d="M1076 62c-2,0 -5,-1 -8,-2 -1,0 -2,-1 -3,-2l-9 8c2,2 5,4 7,5 4,1 8,2 12,2 14,0 22,-6 22,-17 0,-9 -5,-14 -15,-15l-6 -1c-3,-1 -5,-2 -5,-4 0,-3 3,-5 8,-5 2,0 4,0 5,1 2,0 3,1 3,2l0 0 9 -8c-2,-2 -4,-3 -7,-4 -3,-2 -7,-2 -11,-2 -12,0 -19,6 -19,17 0,8 4,13 14,15l6 1c3,0 5,1 5,4 0,3 -3,5 -8,5z"/>
  <polygon class="fil0" points="1118,52 1131,52 1131,73 1144,73 1144,20 1131,20 1131,41 1118,41 1118,20 1105,20 1105,73 1118,73 "/>
  <path class="fil0" d="M961 57c0,-5 -2,-8 -7,-11l0 0c4,-3 6,-7 6,-11 0,-9 -7,-15 -17,-15l-22 0 0 53 23 0c10,0 17,-6 17,-16zm-27 -25l8 0c3,0 5,2 5,4 0,3 -2,5 -5,5l-8 0 0 -9zm9 29l-9 0 0 -9 9 0c2,0 5,2 5,4 0,0 0,0 0,1 0,2 -2,4 -4,4 -1,0 -1,0 -1,0z"/>
  <path class="fil0" d="M1187 67c6,-5 6,-13 6,-20l0 0 0 -5c0,-8 -2,-13 -6,-16 -3,-4 -9,-6 -14,-6 -6,-1 -11,2 -15,6 -4,4 -5,8 -5,19l0 3c0,7 0,14 5,19 8,8 21,8 29,0zm-21 -23c0,-4 0,-8 2,-10 1,-2 3,-3 5,-3 2,0 4,1 5,3 1,2 2,5 2,10l0 4c0,7 -1,10 -2,12 -1,1 -3,2 -5,2 -2,0 -4,-1 -5,-2 -2,-2 -2,-5 -2,-12l0 -4z"/>
  <path class="fil0" d="M837 65l16 0 2 8 14 0 -19 -53 -10 0 -19 53 13 0 3 -8zm8 -25l4 14 -9 0 5 -14z"/>
  <path class="fil0" d="M1026 53l5 0 9 20 15 0 -11 -22c2,-1 3,-2 5,-4 2,-3 3,-6 3,-10 0,-10 -7,-17 -18,-17l-20 0 0 53 12 0 0 -20zm0 -21l8 0c3,0 5,2 5,5 0,0 0,0 0,0 0,3 -2,6 -5,6 0,0 0,0 0,0l-8 0 0 -11z"/>
  <polygon class="fil0" points="1005,61 982,61 982,52 1002,52 1002,41 982,41 982,32 1005,32 1005,20 969,20 969,73 1005,73 "/>
  <polygon class="fil0" points="337,224 338,224 338,0 290,12 290,217 "/>
  <path class="fil0" d="M753 316c-59,-15 -29,41 -53,-8l21 -4 -717 -110 -4 117 468 63 1 -67 155 16c-32,42 -236,124 -278,141l-283 104c-8,2 -11,3 -17,10 -20,21 -27,65 13,84 5,2 10,4 16,4 82,1 324,-130 391,-167 38,-20 238,-149 266,-145 45,7 75,25 125,25l12 -22 -16 -21c-16,-1 -88,3 -100,-20zm-661 314c0,0 -1,0 -1,0 -9,0 -17,-8 -17,-17 0,-10 8,-17 17,-17 0,0 0,0 0,0 10,0 17,8 17,17 0,9 -7,17 -16,17zm570 -270c0,0 0,0 0,0 -10,0 -18,-8 -18,-18 0,-9 8,-17 18,-17 0,0 0,0 0,0 9,1 17,8 17,18 0,9 -8,17 -17,17z"/>
  <path class="fil0" d="M937 88l0 0c-9,-2 -18,-3 -27,-3 -8,0 -16,1 -24,3 -19,4 -36,13 -48,27 -18,20 -28,46 -28,78 0,32 9,59 27,78 17,20 42,30 73,30 31,0 55,-10 73,-29 18,-20 27,-46 27,-79 0,-34 -9,-60 -26,-79 -13,-14 -29,-23 -47,-26zm9 155c-8,12 -21,19 -36,18 -33,0 -49,-23 -49,-68l0 0c0,-22 4,-38 13,-50 9,-12 21,-18 36,-18 33,0 50,22 50,68 0,21 -5,38 -14,50z"/>
  <path class="fil0" d="M1222 20l-21 0 0 53 13 0 0 -19 8 0c11,0 18,-7 18,-17 0,-10 -7,-17 -18,-17zm0 23c0,0 0,0 0,0l-8 0 0 -11 8 0c3,0 5,2 5,5 0,0 0,0 0,0 0,3 -2,6 -5,6z"/>
  <path class="fil0" d="M1116 233l-57 -144 -50 0 65 161c9,24 14,41 15,54 0,3 0,6 -1,8 -2,4 -4,7 -7,10 -3,3 -8,8 -18,11 -5,1 -11,2 -17,2 -4,0 -8,0 -13,0l-19 22 19 21 0 0c70,3 91,-41 91,-41l0 -1 1 -1 93 -246 -50 0 -52 144z"/>
  <polygon class="fil0" points="600,264 600,264 "/>
  <path class="fil0" d="M811 46c0,0 0,0 0,0 0,0 0,0 0,0l0 0z"/>
  <path class="fil0" d="M737 285l13 2c6,-4 13,-10 17,-13 19,-15 29,-35 29,-61 0,-39 -18,-64 -53,-76 24,-13 36,-31 36,-54 0,-23 -8,-41 -25,-54 -17,-13 -40,-19 -69,-19 -16,0 -43,1 -81,3l-4 251 29 5 108 16zm7 -78c0,17 -6,30 -16,38 -10,7 -26,11 -49,11 -6,0 -14,-1 -24,-1l0 -94 0 0c12,0 20,-1 25,-1 24,0 40,4 49,11 10,8 15,19 15,36zm-60 -155c30,0 45,11 45,33 0,25 -17,37 -50,37 -8,0 -17,0 -24,-1l0 -68 0 0c11,-1 20,-1 29,-1z"/>
  <path class="fil0" d="M787 73l14 0c10,0 16,-6 16,-16 0,-5 -2,-8 -6,-11 0,0 0,0 0,0l0 0c0,0 0,0 0,0 4,-3 6,-7 6,-11 0,-9 -7,-15 -17,-15l-22 0 0 24c1,1 2,3 2,4 4,8 6,16 7,25zm4 -41l8 0c3,0 5,2 5,4 0,3 -2,5 -5,5l-8 0 0 -9zm0 20l8 0c3,0 5,1 5,4 0,0 0,0 0,1 0,2 -2,4 -5,4l-8 0 0 -9 0 0z"/>
  <polygon class="fil0" points="753,316 753,316 "/>
  <path class="fil0" d="M58 139c2,-24 7,-43 17,-59 13,-17 30,-26 52,-26 49,0 74,34 74,101 0,18 -2,34 -6,48l52 8c4,-18 7,-37 6,-56 0,-46 -10,-81 -32,-107 -22,-25 -53,-38 -94,-39 -37,0 -67,13 -89,41 -20,25 -31,55 -33,90l0 11 0 1 0 0c0,1 0,1 0,2l-1 20 53 8c-1,-10 0,-31 1,-43z"/>
  <path class="fil0" d="M379 231l59 9c-2,-2 -3,-5 -5,-7 -5,-10 -8,-23 -8,-38 0,-22 6,-39 16,-51 11,-12 26,-18 45,-18 11,0 22,4 32,13l0 113 49 7 0 -259 -49 12 0 83c-13,-7 -28,-10 -43,-10 -28,0 -52,10 -71,31 -19,21 -29,47 -29,80 0,11 1,21 3,31l1 4z"/>
 </g>
</svg>
