<?xml version="1.0" encoding="utf-8"?>
<!-- Generator: Adobe Illustrator 21.0.0, SVG Export Plug-In . SVG Version: 6.00 Build 0)  -->
<svg version="1.1" id="Layer_1" xmlns="http://www.w3.org/2000/svg" xmlns:xlink="http://www.w3.org/1999/xlink" x="0px" y="0px"
	 viewBox="0 0 863 476.4" style="enable-background:new 0 0 863 476.4;" xml:space="preserve">
<style type="text/css">
	.st0{fill:#D6A354;}
</style>
<path class="st0" d="M14.4,206.1L0,228.2l13.6,21c49.9-3.8,78.4-24,122.7-34.4c27.6-6.1,236.8,107.3,276.2,124.4
	c69.6,31.8,320.9,144,402.6,136.8c6-0.5,10.8-2.8,15.7-5.2c38.4-22,28.1-65.3,6.6-84.7c-6.5-6.5-9.6-7.3-17.7-8.7l-290.1-82.2
	c-43.2-13.8-252.8-80-287.9-119.5L395,148l6.1,66.7L863,116.4L850.1,0L143.5,164.1l21.2,2.4c-20.2,50.7,5.5-7.4-52.2,12
	C102.3,202.4,30.2,203.9,14.4,206.1z M778.2,425.7c-0.7-9,5.7-17.5,15.7-18.2l0,0c9-0.7,17.5,5.7,18.2,15.7
	c0.7,9-6.7,17.6-15.7,18.2l-1,0.1C786.5,442.1,778.9,434.7,778.2,425.7z M188.4,199.8c-0.8-10,6.7-17.6,15.6-19.2l0,0
	c10-0.8,18.6,6.6,19.2,15.6c0.8,10-6.6,18.6-16.6,19.3l0,0C197.7,216.2,189.1,208.8,188.4,199.8z"/>
</svg>
