<svg id="Слой_1" data-name="Слой 1" xmlns="http://www.w3.org/2000/svg" viewBox="0 0 496.9 1944.68"><defs><style>.cls-1{opacity:0.1;}</style></defs><title>Монтажная область 1</title><g class="cls-1"><path d="M360.29,355.38a10,10,0,0,0-14-1.74l-7.52,5.85-13.33-17.11a31.39,31.39,0,0,0-36.58-47l-14.05-18a43.49,43.49,0,0,0-52-66.79l-14.05-18a31.4,31.4,0,0,0-36.58-47l-13.33-17.12,7.51-5.85A10,10,0,1,0,154,106.84l-30.81,24a10,10,0,0,0,12.29,15.78l7.52-5.86,13.33,17.12a31.39,31.39,0,0,0,36.58,47l14.05,18a43.49,43.49,0,0,0,52,66.79l14.05,18a31.4,31.4,0,0,0,36.58,47L323,371.78l-7.52,5.86a10,10,0,1,0,12.29,15.77l30.82-24A10,10,0,0,0,360.29,355.38ZM173.54,182.22a11.42,11.42,0,0,1,2-16h0a11.4,11.4,0,0,1,14,18h0A11.42,11.42,0,0,1,173.54,182.22Zm48.8,82.35a23.5,23.5,0,1,1,33,4.1A23.53,23.53,0,0,1,222.34,264.57Zm67.89,67.48a11.42,11.42,0,0,1,2-16h0a11.4,11.4,0,1,1-2,16Z"/><path d="M431.72,379.7l-23.63-30.33a4.9,4.9,0,1,1,7.73-6l11.34,14.55a10,10,0,0,0,14,1.75L471,336.45a28,28,0,0,0,4.89-39.3l-223-286.37A28,28,0,0,0,213.53,5.9L183.74,29.1a10,10,0,0,0-1.74,14l11.34,14.56a4.9,4.9,0,1,1-7.73,6L162,33.38a10,10,0,0,0-14-1.75L53.11,105.49a10,10,0,0,0-1.74,14L75,149.86a4.9,4.9,0,1,1-7.73,6L55.93,141.33a10,10,0,0,0-14-1.75L10.78,163.81a28,28,0,0,0-4.88,39.3l223,286.36a28,28,0,0,0,39.3,4.89l31.11-24.23a10,10,0,0,0,1.74-14l-11.34-14.55a4.9,4.9,0,1,1,7.73-6l23.63,30.33a10,10,0,0,0,14,1.75L430,393.74A10,10,0,0,0,431.72,379.7Zm-101,66-17.49-22.44A24.9,24.9,0,1,0,274,453.83l5.19,6.66-5.86,4.57-58.07-74.55a10,10,0,1,0-15.77,12.29l58.06,74.55L256,478.58a8,8,0,0,1-11.23-1.4l-223-286.36a8,8,0,0,1,1.39-11.23l1.58-1.23L131.87,316a10,10,0,1,0,15.78-12.29L40.43,166.07l5.86-4.57,5.2,6.67a24.9,24.9,0,1,0,39.29-30.6L73.29,115.13l79.05-61.58L169.83,76a24.9,24.9,0,0,0,39.28-30.6l-5.19-6.67,6.91-5.38L256.6,92.12a10,10,0,0,0,15.78-12.29L226.65,21.12a8,8,0,0,1,10.4,1.95l223,286.37a8,8,0,0,1-.65,10.56L293.89,107.44a10,10,0,0,0-15.78,12.29L443.7,332.34l-6.9,5.38-5.2-6.67a24.9,24.9,0,0,0-39.28,30.6L409.8,384.1l-79.05,61.57Z"/><path d="M193.74,362.9l-24.58-31.56a10,10,0,0,0-15.78,12.29L178,375.19a10,10,0,1,0,15.78-12.29Z"/></g><g class="cls-1"><path d="M80.69,1120.78a38.94,38.94,0,0,0,29.91,6.74,39.61,39.61,0,0,0,26.05-17.12A769.2,769.2,0,0,1,239.9,987.13,8.44,8.44,0,0,0,228.14,975a786.15,786.15,0,0,0-105.52,126,22.84,22.84,0,0,1-15,9.89,22.2,22.2,0,0,1-17.06-3.84A22.51,22.51,0,0,1,84,1077.64c16-28.11,52.16-83.66,115.24-139.87s137.38-99.72,221.3-129.67c.28-.07.57-.13.85-.23,13.63-4.86,27.88-9.45,42.34-13.67a6.6,6.6,0,0,0,1-.35l6.66-1.91a6.63,6.63,0,0,1,5.43.84,7,7,0,0,1,3.13,4.81,6.89,6.89,0,0,1-4,7.37c-35.31,15.7-127.72,61.41-222.74,146.63a8.44,8.44,0,0,0,11.27,12.57,899,899,0,0,1,118.85-89.83l-13.58,38.48c-21.64-2.67-44.23,12.78-53,37.73l-68.86,195c-9.34,26.47,1.35,54.47,23.83,62.4l36.23,12.8a8.45,8.45,0,0,0,10.77-5.15L334.44,1171a8.44,8.44,0,0,0-15.92-5.62L305.59,1202l-28.27-10c-13.71-4.84-19.78-23.17-13.53-40.87l68.86-195c6.84-19.38,24.68-30.81,39.76-25.48a8.45,8.45,0,0,0,10.77-5.15l23-65c8.39-5,16.78-9.75,25.09-14.31L329.78,1133.54a8.44,8.44,0,1,0,15.91,5.62L453.25,834.49c12.1-6.13,22.14-10.8,29.58-14.11a23.8,23.8,0,0,0-8.53-45.52l3.27-9.26a26.33,26.33,0,0,0-49.65-17.52L412,793.24C202.21,869,103.49,1009.17,69.34,1069.31A39.35,39.35,0,0,0,80.69,1120.78ZM443.84,753.7A9.45,9.45,0,0,1,461.66,760l-6.76,19.15q-11.46,3.4-22.53,7.06Z"/></g><path class="cls-1" d="M254.8,1894.53l60.51-44.31,13.3,18.15a7.5,7.5,0,0,0,10.48,1.62l24.2-17.72a7.5,7.5,0,0,0,1.62-10.48L238.77,1669.52l12.64-9.25a43.56,43.56,0,0,0,55.83,3.73l94.42-69.13A43.57,43.57,0,0,0,415,1540.51l24.34-17.81a17.53,17.53,0,0,0,5.09-22.33l25.56-18.71a7.5,7.5,0,0,0-8.86-12.11l-25.56,18.72a17.51,17.51,0,0,0-22.82-1.88l-24.33,17.82a43.57,43.57,0,0,0-55.84-3.74l-94.41,69.14a43.55,43.55,0,0,0-13.3,54.35l-12.63,9.25-16.84-23a7.5,7.5,0,0,0-10.48-1.62l-6.05,4.43-8.87-12.1,6.06-4.43a7.52,7.52,0,0,0,1.62-10.49l-10.2-13.92a22.5,22.5,0,1,0-36.3,26.59l10.19,13.92a7.5,7.5,0,0,0,10.48,1.62l6-4.43,8.86,12.1-6.05,4.43A7.5,7.5,0,0,0,159,1636.8l25.7,35.1L94,1738.36a7.52,7.52,0,0,0-1.62,10.49l139.44,190.42a7.5,7.5,0,0,0,10.48,1.62l24.2-17.73a7.49,7.49,0,0,0,1.62-10.48ZM155.33,1581l5.76,7.86-12.1,8.87-5.76-7.87a7.5,7.5,0,1,1,12.1-8.86Zm193,263.64-12.1,8.86L175.58,1634l12.1-8.86,160.7,219.47Zm-50-192.7a28.52,28.52,0,0,1-39.83-6.16l-17.73-24.2a28.53,28.53,0,0,1,6.16-39.83l94.41-69.14a28.55,28.55,0,0,1,39.84,6.16l17.72,24.2a28.55,28.55,0,0,1-6.16,39.84Zm132-141.31L406.62,1528l-8.86-12.1,23.8-17.43a2.54,2.54,0,0,1,3.5.54l5.9,8.07A2.52,2.52,0,0,1,430.42,1510.59ZM229.91,1657.42l-8.86-12.11,12.1-8.86,8.86,12.1ZM121,1737.17l130.57,178.32-12.1,8.86L108.89,1746ZM245.6,1755l8.86,12.1L194,1811.42l-43.14-58.9,60.52-44.31,25.4,34.69-42.36,31a7.5,7.5,0,0,0,8.87,12.1l42.36-31Zm-52-71,8.86,12.1L142,1740.41l-8.86-12.1Zm52.34,198.42-43.13-58.9,60.51-44.31,25.41,34.7-42.36,31a7.5,7.5,0,1,0,8.86,12.1l42.36-31,8.86,12.1Z"/></svg>