<svg width="1940" height="87" viewBox="0 0 1940 87" fill="none" xmlns="http://www.w3.org/2000/svg">
<path d="M1737.87 65.4571C1738.6 66.2857 1739.34 67.1143 1740.32 67.6667C1739.58 63.2476 1740.07 69.3238 1741.3 63.2476C1747.18 62.6952 1740.32 62.419 1746.2 63.8H1748.65V64.0762C1749.14 65.7333 1748.4 64.9048 1749.63 65.7333L1750.36 63.5238C1751.59 63.5238 1752.81 63.8 1753.79 64.0762C1757.71 64.0762 1753.79 61.3143 1763.59 60.2095C1763.59 62.1429 1762.61 61.8667 1768 63.5238C1767.75 64.6286 1767.75 64.0762 1767.26 64.9048C1766.28 66.8381 1767.26 63.8 1766.53 66.2857C1768.24 66.5619 1769.96 67.1143 1771.67 67.6667C1775.84 68.7714 1771.67 67.3905 1776.33 67.3905C1776.33 66.5619 1776.08 65.4571 1775.84 64.6286C1776.82 64.6286 1777.8 64.3524 1778.78 64.0762L1780.49 62.9714C1780.98 64.9048 1780.98 64.3524 1780 65.7333C1783.19 65.7333 1781.47 64.6286 1782.7 63.2476L1783.43 62.419H1783.68C1784.9 62.1429 1786.13 62.1429 1787.6 62.1429C1791.02 62.6952 1787.35 62.6952 1790.53 63.8L1793.96 62.6952C1793.96 64.3524 1793.96 63.8 1794.45 64.9048C1796.17 63.5238 1795.43 64.0762 1797.15 64.0762C1798.62 64.0762 1799.84 64.0762 1801.31 64.3524C1800.82 64.9048 1800.33 65.181 1799.84 65.4571L1800.58 65.7333C1801.07 66.0095 1801.56 66.0095 1802.05 66.0095C1802.54 64.0762 1802.78 64.0762 1804.5 63.8L1807.44 63.2476C1807.93 63.2476 1809.89 63.5238 1809.89 63.5238H1810.13L1811.11 63.8H1811.36L1818.22 64.0762C1817.48 66.8381 1817.48 64.6286 1816.75 67.3905C1821.15 64.6286 1819.93 63.8 1821.64 63.5238C1823.36 63.2476 1823.11 63.8 1823.6 64.6286C1822.87 66.0095 1823.11 66.0095 1821.15 66.2857V67.9429C1822.87 68.219 1822.13 68.7714 1823.36 67.6667C1825.81 66.0095 1824.58 63.8 1830.95 63.5238C1831.2 64.6286 1830.71 64.0762 1831.44 64.6286H1832.91C1836.59 65.7333 1836.1 64.9048 1837.81 66.2857C1838.79 64.0762 1837.57 64.9048 1839.28 63.5238C1839.77 63.8 1840.26 64.0762 1840.75 64.6286C1841.49 65.181 1841.24 64.9048 1842.22 65.181C1842.71 62.9714 1842.47 63.5238 1844.67 63.5238V64.6286H1845.65C1846.63 64.3524 1846.14 64.3524 1846.63 64.0762C1849.08 63.8 1850.8 61.5905 1851.77 64.0762C1853 66.5619 1851.77 63.5238 1852.02 64.6286C1852.51 67.6667 1851.04 63.2476 1852.02 65.4571C1853.24 64.6286 1852.51 64.9048 1854.47 64.9048C1854.96 63.5238 1854.71 64.3524 1854.47 62.6952C1855.94 62.9714 1854.96 62.6952 1855.45 62.9714C1856.43 63.8 1856.92 65.181 1856.92 66.5619L1859.86 67.3905C1860.84 67.9429 1859.37 67.6667 1860.59 67.3905C1861.82 67.1143 1859.86 67.3905 1861.57 67.1143C1864.76 66.5619 1863.29 68.4952 1868.19 65.7333L1866.96 63.8L1867.21 63.5238C1870.64 63.8 1874.07 64.3524 1877.5 65.181C1877.01 65.4571 1877.5 65.4571 1876.52 65.7333H1875.05L1876.52 67.3905C1879.21 68.7714 1881.42 66.8381 1883.86 66.8381C1887.54 67.1143 1882.89 67.9429 1887.05 67.9429C1888.52 67.9429 1889.25 67.1143 1890.97 66.8381C1891.21 68.219 1891.7 68.219 1892.44 69.0476C1891.21 68.7714 1890.23 68.4952 1889.01 68.4952V69.6C1890.23 69.6 1891.7 69.8762 1892.93 70.1524C1892.93 66.0095 1892.19 67.3905 1891.46 64.6286C1893.66 64.6286 1899.54 63.2476 1902.48 63.8C1906.65 64.9048 1902.97 62.6952 1906.89 63.8C1910.08 64.6286 1909.34 63.8 1912.77 64.0762C1916.2 64.3524 1916.44 65.7333 1920.61 65.7333C1921.34 63.5238 1920.12 65.7333 1921.1 63.5238C1922.08 63.8 1923.3 63.5238 1924.28 63.2476C1927.22 61.8667 1930.41 61.0381 1933.59 61.3143C1933.35 61.8667 1931.63 64.0762 1934.82 63.2476L1939.72 61.8667C1939.96 62.419 1940.21 62.6952 1940.45 63.2476L1941.19 64.0762L1944.13 64.9048C1945.6 64.9048 1944.62 64.9048 1946.09 64.3524C1946.58 66.0095 1945.84 64.6286 1947.07 66.0095C1948.04 65.7333 1947.55 66.2857 1948.04 64.6286V64.3524L1958.09 65.181C1958.09 65.181 1959.8 64.9048 1960.29 64.9048C1960.54 64.0762 1960.78 65.181 1960.29 64.0762L1959.8 62.9714C1962.25 62.9714 1961.27 63.5238 1962.25 61.8667C1960.54 61.3143 1961.03 61.5905 1960.29 60.2095C1962.74 60.2095 1963.72 59.6571 1966.66 59.6571H1973.52L1974.01 57.4476C1975.97 58 1976.95 57.4476 1977.93 59.1048C1973.77 59.1048 1975.73 60.2095 1971.56 60.2095L1975.73 60.7619C1976.71 62.6952 1977.69 62.1429 1981.36 60.7619C1983.07 60.2095 1981.85 60.2095 1984.05 59.9333L1997.04 61.0381C1996.3 62.1429 1996.55 61.5905 1996.06 63.2476C1992.63 63.2476 1992.63 64.0762 1993.12 61.5905H1988.71C1987.73 64.6286 1986.99 61.8667 1985.28 64.3524C1989.69 64.6286 1994.1 64.9048 1998.51 64.6286H2004.39C2006.59 64.3524 2008.8 64.6286 2011 64.9048C2010.27 63.2476 2011 63.5238 2011 60.4857L2001.2 59.9333L2002.92 58.8286C2004.14 57.7238 2003.16 59.1048 2003.16 58.2762V58C2005.86 57.7238 2008.31 57.4476 2011 57.4476L2011 0H990V56.8952C990.735 56.3429 991.715 56.3429 992.45 56.8952C993.919 57.7238 993.43 57.7238 992.45 59.1048C995.144 59.1048 995.879 58.8286 996.369 61.3143C992.94 59.1048 994.899 61.3143 990.49 61.3143V62.9714C994.409 63.5238 989.02 65.181 995.389 65.181C996.614 61.5905 998.329 64.0762 997.349 61.3143C998.819 61.8667 998.574 62.1429 999.064 62.1429C1000.53 62.1429 998.329 62.1429 1000.29 61.3143C1002 61.8667 1003.96 62.1429 1005.68 61.8667C1006.41 64.9048 1007.15 63.2476 1010.58 65.181C1011.07 66.8381 1010.33 65.4571 1011.56 66.8381C1012.78 66.5619 1012.29 66.8381 1013.27 65.4571L1013.76 65.181L1015.23 63.2476C1018.17 60.7619 1022.34 64.3524 1025.03 62.9714C1024.54 64.6286 1024.05 64.6286 1022.09 64.6286V66.0095C1025.52 66.2857 1021.6 66.5619 1025.03 67.6667C1025.52 66.2857 1024.78 67.9429 1024.54 65.4571L1027.48 64.9048C1027.23 68.7714 1026.01 68.4952 1030.66 69.8762H1030.91L1037.03 70.981C1037.03 70.981 1039.24 70.4286 1039.48 70.1524L1041.2 68.7714L1042.91 67.1143C1046.1 65.181 1049.77 64.3524 1053.45 64.6286C1054.91 64.6286 1056.63 64.6286 1058.1 64.3524V65.7333C1059.08 64.9048 1059.08 64.6286 1060.3 64.3524C1061.53 64.0762 1061.77 64.9048 1062.51 65.181C1064.22 66.8381 1062.75 66.0095 1065.2 66.2857C1066.67 64.9048 1065.94 66.0095 1066.67 62.9714C1072.55 62.419 1065.45 62.1429 1071.57 63.5238H1074.02C1074.51 64.6286 1073.78 64.6286 1075 65.7333L1075.49 63.5238C1080.64 63.5238 1078.92 65.4571 1081.86 62.419C1083.82 61.0381 1086.27 60.2095 1088.72 60.2095C1088.72 62.1429 1087.49 61.8667 1093.13 63.5238C1092.64 65.4571 1092.39 64.3524 1091.66 66.2857C1093.37 66.5619 1095.09 67.1143 1096.8 67.6667C1100.97 68.7714 1096.8 67.3905 1101.46 67.3905C1101.46 66.5619 1101.21 65.4571 1100.97 64.6286C1101.95 64.6286 1102.93 64.3524 1103.91 64.0762V62.9714C1106.6 63.2476 1105.87 64.0762 1104.89 65.7333C1105.87 65.7333 1105.87 66.0095 1106.6 65.4571C1107.34 64.9048 1106.85 64.9048 1107.09 64.3524C1107.34 63.8 1107.09 63.5238 1108.32 62.6952C1111.99 60.4857 1115.67 63.8 1115.67 63.8L1119.09 62.6952C1119.09 64.3524 1119.09 63.8 1119.58 64.9048L1121.54 64.0762H1121.79C1123.5 63.8 1125.22 64.0762 1126.69 64.3524C1126.2 64.9048 1125.71 65.181 1125.22 65.4571L1125.71 66.0095C1126.2 66.2857 1126.69 66.2857 1126.93 66.2857C1127.67 63.2476 1128.65 64.6286 1131.1 64.0762L1141.14 64.9048C1142.61 65.181 1139.67 64.9048 1141.63 64.9048H1142.37C1143.1 64.6286 1142.12 64.9048 1143.59 64.3524C1142.86 67.1143 1142.86 64.9048 1142.12 67.6667C1143.35 67.1143 1144.57 66.0095 1145.55 64.9048C1146.53 63.8 1145.8 64.0762 1147.02 63.8C1148.49 63.5238 1148.49 64.0762 1149.23 64.9048C1148.25 66.2857 1148.74 66.2857 1146.78 66.5619V67.6667C1151.67 68.7714 1147.27 63.5238 1156.08 63.2476C1156.33 64.0762 1156.08 64.0762 1156.82 64.6286H1157.55L1159.27 64.9048H1159.51C1161.96 65.181 1160.74 64.6286 1162.45 66.0095C1163.43 63.8 1162.21 64.6286 1163.92 63.2476C1164.41 63.5238 1164.9 63.8 1165.39 64.3524C1166.13 64.9048 1165.88 64.6286 1166.86 64.9048C1167.35 62.6952 1167.11 63.2476 1169.31 63.2476L1171.27 63.8C1173.72 63.5238 1175.19 61.3143 1176.42 63.8C1177.64 66.2857 1176.42 63.2476 1176.66 64.3524C1177.4 67.3905 1175.93 62.9714 1176.66 65.181C1177.89 64.3524 1177.15 64.6286 1179.11 64.6286C1179.6 63.2476 1179.36 64.0762 1179.11 62.419C1181.56 62.6952 1179.11 61.0381 1181.56 65.181C1180.34 65.181 1180.83 65.4571 1180.34 65.4571L1179.6 65.7333C1176.17 66.8381 1177.89 65.181 1176.42 67.1143C1178.13 67.6667 1179.6 67.6667 1181.32 67.6667C1181.8 66.2857 1181.8 67.3905 1181.32 66.0095H1183.27L1184.25 66.5619C1185.23 67.1143 1183.76 66.5619 1185.97 66.2857C1189.15 65.7333 1187.68 67.6667 1192.58 64.9048C1192.34 63.5238 1191.85 63.5238 1191.11 62.6952C1194.54 62.9714 1197.97 63.5238 1201.4 64.3524C1200.91 64.6286 1201.4 64.6286 1200.42 64.9048H1198.95L1200.42 66.5619C1203.12 67.9429 1205.32 66.0095 1207.77 66.0095C1211.45 66.2857 1206.79 67.1143 1211.2 67.1143C1212.67 67.1143 1213.41 66.2857 1215.12 66.0095L1216.59 68.219C1215.36 67.9429 1214.38 67.6667 1213.16 67.6667V69.0476C1214.38 69.0476 1215.85 69.3238 1217.08 69.6C1217.08 65.4571 1216.34 66.8381 1215.61 64.0762C1216.83 64.0762 1218.3 64.0762 1219.53 63.5238C1222.22 62.9714 1225.16 62.9714 1227.86 63.5238C1230.06 63.5238 1227.86 63.2476 1229.57 62.9714C1230.55 62.9714 1230.31 62.9714 1231.04 63.2476C1234.23 64.0762 1233.49 63.2476 1236.92 63.5238C1240.35 63.8 1240.6 65.181 1244.76 65.181C1245.74 62.9714 1244.52 65.181 1245.25 62.9714C1246.23 63.2476 1247.45 62.9714 1248.43 62.6952L1249.41 62.1429L1250.15 62.9714C1252.84 61.8667 1255.54 61.5905 1258.23 61.5905C1257.99 63.2476 1257.74 62.419 1258.23 63.8C1260.44 63.5238 1259.46 62.6952 1260.93 62.6952L1263.62 62.1429C1264.11 63.2476 1264.85 63.8 1265.83 64.0762L1266.07 64.3524C1268.28 65.4571 1267.79 64.9048 1269.99 64.3524C1270.73 66.0095 1269.75 64.6286 1270.97 66.0095C1272.44 65.4571 1270.97 66.2857 1271.71 65.4571L1271.95 64.3524L1273.67 64.0762L1277.83 64.3524V66.0095H1279.79V65.7333C1279.79 65.4571 1279.79 65.4571 1280.03 65.181C1280.03 64.6286 1279.79 65.181 1280.28 64.3524C1282.73 66.2857 1280.77 64.9048 1284.2 64.9048C1284.44 64.0762 1284.69 65.181 1284.2 64.0762L1283.71 62.9714C1285.67 62.9714 1284.93 63.2476 1286.16 62.419C1284.93 60.7619 1285.42 61.8667 1284.2 60.2095C1286.89 60.7619 1290.81 58.5524 1294.73 59.9333L1298.41 60.7619C1298.16 62.6952 1298.41 61.0381 1298.16 62.1429C1297.92 63.2476 1298.16 61.5905 1297.43 63.5238C1299.14 63.8 1298.9 63.5238 1299.88 64.6286C1297.18 64.6286 1287.63 63.5238 1285.42 65.7333L1314.57 64.9048C1316.53 64.6286 1318.98 64.9048 1320.94 64.9048C1321.68 64.9048 1322.9 64.6286 1323.39 64.6286L1331.72 64.9048L1330.25 66.5619C1332.46 66.8381 1334.42 66.8381 1336.62 66.5619C1338.83 66.0095 1341.28 65.7333 1343.48 66.0095C1342.99 64.6286 1342.99 65.7333 1343.48 64.3524C1340.05 65.181 1336.62 65.7333 1333.19 65.4571H1332.7C1332.7 64.6286 1334.91 63.2476 1335.64 62.9714L1341.76 61.0381C1343.23 60.7619 1344.7 60.7619 1346.17 61.0381C1346.42 59.6571 1346.66 61.8667 1345.93 60.4857C1345.19 59.1048 1345.44 61.0381 1345.68 59.9333C1347.15 59.1048 1346.66 59.381 1348.62 59.381C1348.87 59.6571 1348.87 59.9333 1348.87 60.2095V61.0381C1350.83 60.4857 1349.6 60.2095 1351.32 60.2095C1352.05 60.2095 1353.28 60.7619 1354.5 61.0381C1357.44 61.5905 1355.73 60.7619 1358.42 60.4857H1360.38V63.2476C1362.59 61.5905 1362.34 60.4857 1367.24 59.9333C1367.49 61.8667 1367.49 61.8667 1369.2 62.1429C1368.71 59.9333 1366.51 58.8286 1372.14 58.2762C1373.12 59.9333 1373.61 59.6571 1374.1 62.1429H1370.18C1370.67 64.6286 1372.14 64.3524 1373.85 63.5238H1374.1C1374.83 63.2476 1375.57 63.2476 1376.3 63.2476C1375.08 60.4857 1375.81 61.0381 1375.81 57.1714C1379 57.1714 1381.69 54.1333 1383.9 56.3429L1384.63 58.2762C1387.82 58.5524 1391 58.2762 1393.94 57.7238C1393.45 59.9333 1392.96 59.381 1391.98 61.0381C1394.19 61.5905 1395.41 61.8667 1395.41 58.2762C1397.86 58 1396.64 57.7238 1399.09 58C1400.56 58.2762 1402.52 59.381 1403.99 58.8286C1406.43 58 1403.01 59.1048 1404.72 58.5524C1404.96 58.5524 1405.21 58.2762 1405.7 58C1406.92 57.4476 1408.15 57.1714 1409.37 56.8952C1409.37 56.8952 1409.13 56.8952 1409.13 56.619C1408.88 55.7905 1409.13 56.8952 1408.39 56.3429C1407.66 55.7905 1407.9 56.619 1407.41 55.2381C1408.39 54.6857 1409.13 54.1333 1410.11 53.8571C1413.05 53.0286 1412.56 54.6857 1412.8 51.9238L1421.62 51.3714C1425.05 52.2 1423.09 52.2 1423.34 52.7524C1424.07 54.1333 1423.34 53.8571 1424.07 55.7905C1427.99 53.0286 1425.54 54.9619 1430.44 55.2381C1435.34 55.5143 1433.38 55.7905 1433.14 56.3429L1432.89 56.619L1432.16 58.5524C1435.59 58.2762 1431.67 58.2762 1433.63 57.7238L1435.34 58.2762H1437.3L1437.79 58C1438.77 57.7238 1436.57 57.7238 1439.26 57.4476L1437.54 56.619L1437.3 56.3429C1439.75 56.0667 1438.52 55.7905 1441.46 56.0667C1446.61 56.619 1444.89 54.1333 1453.71 56.3429C1454.69 56.8952 1455.92 56.8952 1457.14 56.8952C1459.35 57.1714 1458.61 57.4476 1460.57 58C1460.33 61.0381 1459.1 60.7619 1457.14 61.3143C1454.94 62.1429 1452.49 62.6952 1450.28 62.419C1450.77 62.6952 1450.28 62.6952 1451.51 62.9714C1452.73 63.2476 1451.75 62.9714 1452.98 62.9714C1456.65 62.6952 1460.33 63.2476 1462.29 61.8667C1464.25 60.4857 1461.8 61.5905 1464 61.0381V58.8286H1462.04C1463.02 57.1714 1462.04 58.5524 1463.02 58C1466.21 56.619 1477.96 57.1714 1481.88 57.1714V55.2381C1484.58 55.2381 1487.27 54.6857 1489.72 54.1333C1488.74 58 1487.76 54.1333 1484.33 56.8952C1485.56 56.8952 1486.78 56.8952 1488.01 57.1714C1489.23 57.4476 1489.23 56.8952 1489.72 58.5524C1490.95 59.381 1490.95 59.9333 1492.17 59.1048C1492.42 58 1492.17 58.2762 1492.66 57.4476L1494.87 57.7238C1499.28 58.8286 1496.83 55.5143 1505.64 58.8286C1507.36 59.381 1505.4 59.1048 1507.36 59.6571L1508.83 58.5524C1509.81 59.381 1509.56 59.6571 1511.28 59.6571C1512.5 59.6571 1512.5 59.381 1514.22 59.1048C1518.63 58.8286 1517.89 59.1048 1520.1 60.7619C1519.61 58 1519.85 59.9333 1520.1 59.1048L1529.16 58.8286C1532.59 58.8286 1528.43 59.9333 1531.86 59.381C1535.28 58.8286 1532.35 56.619 1536.51 58.8286C1540.18 60.7619 1537.49 58 1541.9 57.7238C1541.9 61.8667 1539.2 61.3143 1538.96 64.9048C1539.94 64.6286 1545.33 59.9333 1545.82 58.2762C1549.74 58.2762 1546.55 58.8286 1550.47 58C1552.68 57.4476 1552.43 58.5524 1554.15 59.9333C1555.62 58.5524 1557.09 57.4476 1558.8 56.8952C1562.23 56.0667 1563.7 58.2762 1563.95 54.4095C1566.39 55.5143 1563.46 54.6857 1565.9 55.5143C1566.88 53.0286 1565.66 53.3048 1568.84 53.3048C1568.11 54.4095 1566.88 56.0667 1568.6 57.7238C1569.33 58.5524 1569.82 58.5524 1570.31 58C1571.29 56.8952 1570.56 58.2762 1570.56 57.1714L1570.07 56.0667C1572.27 56.619 1572.76 58.2762 1574.23 58.5524C1576.19 58.8286 1578.4 58.5524 1580.36 58.2762V58.8286C1580.36 59.6571 1579.87 58 1580.36 59.6571C1580.6 60.2095 1580.36 60.4857 1582.07 60.7619C1582.81 59.1048 1582.32 58.8286 1582.81 57.1714C1583.05 56.0667 1583.79 55.7905 1584.52 54.6857C1585.5 55.7905 1586.97 56.3429 1588.44 56.3429L1586.97 58C1589.42 57.4476 1588.44 58 1591.38 58C1591.38 57.1714 1591.14 56.0667 1590.89 55.2381C1594.57 55.2381 1593.59 54.4095 1596.28 54.1333C1596.28 56.3429 1596.52 55.7905 1595.79 57.4476C1598.48 57.4476 1599.95 58 1601.18 56.3429C1599.95 56.3429 1598.97 56.619 1597.75 56.8952C1598.73 53.0286 1600.2 56.3429 1604.36 54.9619C1606.81 53.8571 1609.51 53.8571 1611.96 54.6857C1612.69 58 1612.2 56.0667 1611.96 59.1048C1612.69 58.8286 1613.43 58.5524 1614.16 58C1616.12 57.1714 1615.88 57.7238 1616.37 57.7238C1619.8 57.4476 1617.35 56.8952 1618.08 54.6857C1620.53 54.9619 1618.82 55.2381 1621.02 56.8952C1623.23 58.5524 1622 56.619 1623.47 59.6571C1620.53 58.8286 1622.49 59.6571 1619.55 60.2095H1603.38V61.3143C1606.81 61.3143 1606.57 62.1429 1609.26 62.419L1619.55 62.9714C1621.51 63.2476 1622.49 64.3524 1624.7 62.9714C1625.19 62.6952 1623.23 62.9714 1625.68 62.419H1627.64C1627.64 62.6952 1627.39 63.5238 1627.15 63.5238C1626.9 64.9048 1626.66 63.5238 1627.15 64.6286C1628.37 63.8 1627.64 64.0762 1629.59 64.0762C1630.82 65.7333 1631.31 64.0762 1631.8 63.8C1633.27 62.6952 1631.55 62.9714 1634 63.2476C1636.45 63.5238 1648.95 64.0762 1649.93 62.419V61.8667L1650.17 62.1429L1650.66 61.8667L1651.4 61.5905C1646.5 61.5905 1645.03 60.4857 1636.45 60.4857C1636.94 58.5524 1638.66 57.1714 1640.37 57.1714C1643.31 57.1714 1640.86 58.8286 1645.76 57.7238C1645.76 61.0381 1645.52 59.381 1646.74 59.9333C1647.23 58.5524 1646.99 58.5524 1646.25 57.1714L1653.6 56.8952H1656.3C1656.54 56.8952 1656.3 56.619 1657.52 56.8952C1658.75 57.1714 1658.26 57.1714 1658.5 57.1714C1660.46 57.7238 1659.48 57.1714 1660.7 57.1714C1661.44 56.8952 1662.17 57.1714 1662.66 57.7238C1663.89 58.8286 1663.64 57.4476 1662.42 59.6571C1665.11 59.6571 1665.85 59.381 1666.34 61.8667C1664.38 60.7619 1665.11 60.7619 1663.4 61.3143H1663.15L1661.93 61.5905C1660.46 62.1429 1660.95 61.3143 1660.46 62.6952C1659.97 64.0762 1659.97 62.1429 1660.95 63.2476C1663.64 66.0095 1661.93 65.4571 1665.36 65.4571C1666.34 61.8667 1668.3 64.3524 1667.32 61.5905C1668.79 62.1429 1668.54 62.419 1669.28 62.419C1670.75 62.419 1668.54 62.419 1670.5 61.5905C1672.22 62.1429 1674.18 62.419 1675.89 62.1429C1676.38 64.3524 1678.1 64.9048 1680.79 64.9048V65.181L1687.41 67.1143L1690.35 63.5238C1692.79 61.3143 1697.2 63.8 1699.65 63.8C1698.67 65.4571 1699.65 64.9048 1697.2 64.9048V65.7333C1700.63 66.0095 1696.71 66.2857 1700.14 67.3905C1700.63 66.0095 1699.9 67.6667 1699.65 65.181L1702.59 64.6286C1702.59 66.8381 1700.39 69.0476 1707.49 69.8762C1718.03 71.2571 1713.13 68.4952 1718.76 66.2857L1719.99 66.0095C1728.56 62.9714 1723.66 64.9048 1733.21 64.0762V65.7333C1734.19 64.9048 1734.19 64.6286 1735.42 64.3524H1736.4C1736.64 64.3524 1736.89 64.6286 1737.13 64.6286L1737.87 65.4571Z" fill="white"/>
<path d="M1493.64 59.1048C1491.68 59.1048 1491.44 58.8286 1489.23 58.5524C1483.6 58.2762 1490.21 57.7238 1485.8 57.4476V58.5524C1478.45 58.8286 1486.05 57.1714 1477.47 59.1048C1476 59.381 1474.53 59.9333 1473.06 59.9333C1471.1 59.9333 1470.61 58.2762 1469.14 60.7619C1471.35 61.0381 1470.86 61.5905 1473.55 61.0381C1475.02 61.0381 1476.25 61.0381 1477.47 60.7619V59.6571C1479.19 60.2095 1478.21 60.2095 1479.68 60.7619H1482.37C1482.86 61.5905 1482.37 61.5905 1483.6 61.8667H1486.29C1486.29 61.5905 1486.05 61.5905 1486.29 59.6571L1493.64 59.1048ZM1947.07 77.0571C1944.37 75.6762 1941.19 75.9524 1938.74 77.8857L1937.27 78.9905C1939.23 79.5429 1941.19 79.819 1943.15 80.0952C1945.6 80.3714 1946.33 78.9905 1947.07 77.0571ZM1271.95 77.0571C1268.77 75.4 1268.77 75.9524 1265.09 77.3333L1261.91 79.2667C1263.87 79.819 1265.83 80.0952 1267.79 80.3714C1270.48 80.3714 1271.22 78.9905 1271.95 77.0571ZM1907.87 78.1619C1906.89 74.019 1905.42 78.9905 1904.44 74.8476H1902.48L1902.73 77.0571C1903.46 80.0952 1905.67 77.6095 1907.87 78.1619ZM1233 78.1619C1232.02 74.019 1230.55 78.9905 1229.57 74.8476H1227.61C1227.61 75.6762 1227.37 78.7143 1229.57 78.7143C1231.78 78.7143 1230.06 77.6095 1233 78.1619ZM1603.87 61.0381C1601.67 61.0381 1602.16 60.4857 1600.44 60.4857C1599.22 60.7619 1597.75 60.7619 1596.52 61.0381V62.1429C1602.4 62.6952 1602.4 63.5238 1603.87 61.0381ZM1857.16 67.1143C1853.98 66.0095 1858.88 67.1143 1855.69 66.0095C1855.2 67.3905 1855.94 66.8381 1854.71 67.1143H1852.26V68.219C1853.98 68.7714 1855.45 68.7714 1857.16 68.7714C1857.65 67.3905 1857.65 68.4952 1857.16 67.1143ZM1971.32 72.0857C1970.09 71.2571 1969.6 71.5333 1967.4 71.5333C1965.93 71.5333 1966.42 71.8095 1965.93 72.6381C1967.15 73.1905 1971.32 74.019 1971.32 72.0857ZM1296.45 72.0857C1295.22 71.2571 1294.73 71.5333 1292.53 71.5333C1291.06 71.5333 1291.55 71.8095 1291.06 72.6381C1292.04 73.1905 1295.96 74.019 1296.45 72.0857ZM1255.29 80.3714V79.819L1251.37 79.2667C1250.64 81.4762 1251.62 80.0952 1248.43 79.819V80.9238C1251.37 80.9238 1252.35 80.3714 1255.29 80.3714ZM1930.16 80.3714V79.819L1926.24 79.2667C1925.51 81.4762 1926.49 80.0952 1923.3 79.819V80.9238C1926.49 80.9238 1927.47 80.3714 1930.16 80.3714ZM1247.7 79.819H1241.82C1242.8 81.4762 1241.82 80.9238 1244.27 80.9238H1247.7V79.819ZM1922.81 79.819H1916.93C1917.91 81.4762 1916.93 80.9238 1919.38 80.9238H1922.81V79.819ZM1673.93 78.7143C1675.65 81.4762 1676.63 81.4762 1679.32 83.1333C1678.83 81.2 1678.83 81.4762 1677.12 80.6476C1676.14 79.819 1674.91 79.2667 1673.93 78.7143ZM999.064 78.7143C1000.78 81.4762 1001.76 81.4762 1004.45 83.1333C1003.96 81.2 1003.96 81.4762 1002.25 80.6476C1001.27 79.819 1000.04 79.2667 999.064 78.7143ZM1453.47 56.3429V57.4476L1452.98 58.5524C1455.67 59.381 1455.18 60.2095 1456.41 57.4476C1454.69 56.8952 1454.94 56.619 1453.47 56.3429ZM1248.19 68.7714C1245.98 68.219 1245.49 67.3905 1244.76 69.8762C1245.74 70.1524 1248.19 71.5333 1248.19 68.7714ZM1923.3 68.7714C1921.1 68.219 1920.36 67.3905 1919.87 69.8762C1920.85 70.1524 1923.3 71.5333 1923.3 68.7714ZM1202.38 72.0857L1197.48 71.5333V72.6381C1200.18 72.6381 1200.18 73.1905 1202.38 73.1905V72.0857ZM1211.45 75.4L1211.69 75.6762L1213.16 77.0571C1214.38 77.8857 1215.85 77.6095 1216.83 76.781C1215.12 75.9524 1213.41 75.4 1211.45 75.4ZM1886.56 75.4L1886.8 75.9524L1888.76 77.0571C1891.21 77.6095 1891.46 76.5048 1891.7 76.5048C1890.23 75.9524 1888.27 75.4 1886.56 75.4ZM1237.9 79.819C1231.04 79.819 1230.8 78.7143 1228.59 80.9238L1237.9 79.819ZM1912.77 79.819C1909.1 79.819 1905.67 79.2667 1904.2 80.0952C1902.73 81.2 1903.95 80.3714 1903.46 80.9238L1912.77 79.819ZM1390.76 63.2476C1387.82 63.2476 1387.08 63.8 1384.39 63.8V64.3524C1386.84 64.3524 1389.53 64.9048 1390.76 63.2476ZM1387.33 65.4571C1385.12 65.4571 1384.63 66.0095 1381.94 66.0095V66.5619H1387.33V65.4571ZM1420.15 53.581C1418.19 53.581 1418.19 53.3048 1416.72 54.1333C1417.21 54.9619 1416.72 55.2381 1418.19 55.2381C1419.66 55.2381 1419.91 54.4095 1420.15 53.581ZM1428.48 62.6952C1426.52 62.6952 1427.26 62.1429 1425.05 62.1429C1423.58 62.1429 1424.07 62.419 1423.58 63.2476H1428.48V62.6952ZM1900.52 76.5048C1899.54 76.2286 1898.56 75.9524 1897.58 75.9524C1898.56 77.6095 1898.32 77.6095 1900.52 77.6095V76.5048ZM1225.41 76.5048C1224.43 76.2286 1223.45 75.9524 1222.47 75.9524C1223.45 77.6095 1223.2 77.6095 1225.41 77.6095V76.5048ZM1236.92 74.2952C1235.94 74.019 1234.72 74.5714 1233.98 75.4C1234.47 76.2286 1234.23 75.9524 1234.47 77.0571L1236.92 74.2952ZM1911.79 74.2952C1910.81 74.019 1909.59 74.5714 1908.85 75.4C1909.1 75.9524 1909.34 76.5048 1909.34 77.0571L1911.79 74.2952ZM1884.6 69.8762H1880.68C1881.17 70.1524 1880.93 70.1524 1881.42 70.7048C1881.91 71.2571 1884.35 71.2571 1884.6 69.8762ZM1209.49 69.8762H1205.57C1205.81 70.1524 1205.57 70.1524 1206.3 70.7048C1207.04 71.2571 1209.49 71.2571 1209.49 69.8762ZM1505.4 60.4857C1502.21 60.4857 1501.97 59.381 1500.99 61.0381H1505.4V60.4857ZM1211.45 75.4L1212.18 74.2952H1209V75.4H1211.45ZM1886.56 75.4L1887.05 74.2952H1884.11V75.4H1886.56ZM1662.91 61.0381C1660.46 61.0381 1660.95 60.4857 1659.97 62.1429H1662.91V61.0381ZM1021.85 66.5619C1020.13 66.8381 1020.13 66.8381 1019.89 68.7714C1021.6 68.219 1021.36 68.4952 1021.85 66.5619ZM1696.71 66.5619C1695 66.8381 1695 66.8381 1694.75 68.7714C1696.47 68.219 1696.22 68.4952 1696.71 66.5619ZM1241.82 76.5048C1239.86 76.781 1240.35 76.2286 1239.86 78.1619H1241.82V76.5048ZM1916.93 76.5048C1914.98 76.781 1915.46 76.2286 1914.98 78.1619H1916.93V76.5048ZM1864.02 69.8762C1862.55 69.8762 1863.04 70.1524 1862.55 70.981H1866.23C1864.76 69.8762 1865.25 69.8762 1864.02 69.8762ZM1189.15 69.8762C1187.68 69.8762 1188.17 70.1524 1187.68 70.981H1191.11C1190.62 70.7048 1190.87 70.7048 1190.38 70.1524C1189.89 69.6 1191.11 69.8762 1189.15 69.8762ZM1160 66.5619L1157.55 67.1143V69.3238L1160 66.5619ZM1834.87 66.5619L1832.42 67.1143V69.3238L1834.87 66.5619ZM1003.96 64.9048C1002.74 63.2476 1002.74 63.2476 1001.02 63.8L1002 64.6286L1002.25 64.9048C1002.49 64.9048 1003.47 65.4571 1003.96 64.9048ZM1134.77 73.7429H1132.81V74.8476L1134.77 75.4V73.7429ZM1835.36 75.9524L1834.38 75.4C1832.91 75.4 1833.4 75.6762 1832.91 76.5048C1833.89 76.781 1835.12 77.6095 1835.36 75.9524ZM1160.49 75.9524L1159.51 75.4C1158.04 75.4 1158.53 75.6762 1158.04 76.5048C1158.78 76.781 1160.25 77.6095 1160.49 75.9524ZM1923.3 75.9524H1920.85V74.8476H1923.3V75.9524ZM1248.19 75.9524H1245.74V74.8476H1248.19V75.9524Z" fill="white"/>
<path d="M1453.47 57.4476H1448.57V56.8952H1453.47V57.4476ZM1875.05 72.6381H1872.6V71.5333H1875.05V72.6381ZM1679.08 64.9048C1678.1 63.2476 1677.85 63.2476 1676.14 63.8L1676.38 64.0762L1678.1 65.181C1678.34 65.181 1678.83 65.181 1679.08 64.9048ZM1369.45 66.5619L1366.51 66.0095V67.1143H1369.45V66.5619ZM1807.44 66.5619C1805.48 66.8381 1805.97 66.2857 1805.48 68.219H1807.44C1807.19 67.1143 1806.95 67.6667 1807.44 66.5619ZM1226.88 78.1619C1224.92 79.819 1227.12 79.819 1224.43 79.819V80.3714H1226.88V78.1619ZM1901.99 78.1619C1900.03 79.819 1902.24 79.819 1899.54 79.819V80.3714H1901.99V78.1619ZM1481.15 61.5905L1478.45 61.8667C1477.72 62.1429 1477.96 62.1429 1477.72 62.6952C1479.19 62.6952 1480.9 62.9714 1481.15 61.5905ZM1303.55 67.6667H1299.14V67.1143H1303.55V67.6667ZM1762.85 61.5905H1759.91C1760.16 61.8667 1762.61 64.0762 1762.85 61.5905ZM1223.69 71.5333H1221.24V72.6381C1222.71 72.6381 1223.69 72.9143 1223.69 71.5333ZM1899.05 71.5333H1896.6V72.6381C1897.83 72.6381 1898.81 72.9143 1899.05 71.5333ZM1435.83 75.4H1433.38C1434.36 77.0571 1433.38 76.5048 1435.83 76.5048V75.4ZM1727.58 57.4476C1726.6 57.4476 1726.84 57.1714 1725.62 58.5524H1728.56C1728.31 58 1728.31 57.4476 1727.58 57.4476ZM1052.47 57.4476C1051.24 57.4476 1051.73 57.1714 1050.51 58.5524H1053.45C1053.2 58 1053.2 57.4476 1052.47 57.4476ZM1132.32 66.5619C1130.12 66.8381 1131.34 66.0095 1130.36 67.6667C1130.85 67.9429 1131.59 68.219 1132.32 68.219C1132.08 67.1143 1131.83 67.6667 1132.32 66.5619ZM1898.07 80.3714H1894.15V79.819H1898.07V80.3714ZM1222.96 80.3714H1219.04V79.819H1222.96V80.3714ZM1851.29 74.8476H1849.33V73.7429H1851.29V74.8476ZM1176.17 74.8476H1174.21V73.7429H1176.17V74.8476ZM1877.5 73.1905H1875.54V72.0857H1877.5V73.1905ZM1423.58 56.8952H1421.62V55.7905H1423.58V56.8952ZM1198.46 74.8476H1196.01C1196.26 75.4 1196.26 75.9524 1196.99 75.9524C1197.73 75.9524 1198.46 75.6762 1198.46 74.8476ZM1087.74 61.5905H1085.29C1085.54 62.1429 1085.54 62.6952 1086.27 62.6952C1087 62.6952 1087.49 62.419 1087.74 61.5905ZM1873.58 74.8476H1871.13C1871.37 75.4 1871.62 75.9524 1872.11 75.9524C1872.6 75.9524 1873.58 75.6762 1873.58 74.8476ZM1182.05 78.1619H1179.6C1179.85 78.4381 1179.6 78.4381 1180.34 78.9905C1181.56 79.5429 1180.58 79.2667 1182.05 79.2667V78.1619ZM1857.16 78.1619H1854.71C1855.2 78.4381 1854.71 78.4381 1855.45 78.9905C1856.67 79.5429 1855.69 79.2667 1857.16 79.2667V78.1619ZM1939.72 63.8H1937.27C1937.76 64.0762 1937.27 64.0762 1938 64.6286C1939.23 64.9048 1938.49 64.6286 1939.72 64.9048V63.8ZM1431.42 57.4476V58.5524H1433.87C1433.63 58.2762 1433.87 58.2762 1433.14 57.7238C1431.91 57.1714 1432.89 57.4476 1431.42 57.4476ZM1807.93 73.7429C1808.42 75.1238 1807.93 74.8476 1809.89 75.4C1808.91 72.9143 1810.38 74.019 1807.93 73.7429ZM1658.75 61.0381H1655.32V60.4857H1658.75V61.0381ZM1476.74 62.6952H1473.31V62.1429H1476.74V62.6952ZM1264.6 63.8H1262.15V64.3524C1262.89 64.3524 1263.87 64.6286 1264.6 64.9048V63.8ZM1766.28 66.5619H1764.32V67.6667C1765.55 67.3905 1766.04 67.6667 1766.28 66.5619ZM1287.14 85.8952C1284.93 86.1714 1286.16 85.3429 1285.18 87H1287.14V85.8952ZM1962.25 85.8952C1960.05 86.1714 1961.52 85.3429 1960.29 87H1962.25V85.8952ZM1136 73.7429V74.8476H1137.96C1136.98 73.1905 1138.45 74.019 1136 73.7429ZM1811.11 73.7429V74.8476H1813.07C1811.85 73.1905 1813.32 74.019 1811.11 73.7429ZM1354.5 74.2952H1353.03C1353.52 75.9524 1352.3 74.5714 1354.5 75.9524V74.2952ZM1089.45 67.6667C1091.66 67.3905 1090.43 68.219 1091.41 66.5619C1088.47 66.5619 1089.94 66.2857 1089.45 67.6667ZM1868.68 71.5333H1867.21V70.4286H1868.68V71.5333ZM1099.25 76.5048H1097.78V75.4H1099.25V76.5048ZM1193.56 71.5333H1192.09V70.4286H1193.56V71.5333ZM1429.46 58H1426.52V57.4476H1429.46V58ZM1815.03 67.1143C1813.32 66.8381 1813.56 66.0095 1813.07 68.219L1814.05 67.6667C1815.03 67.1143 1814.3 67.6667 1815.03 67.1143ZM1140.16 67.1143C1138.45 66.8381 1138.69 66.0095 1138.2 68.219C1138.45 68.219 1139.18 67.9429 1139.18 67.6667C1140.16 67.1143 1139.43 67.6667 1140.16 67.1143ZM1839.77 73.1905C1840.75 74.8476 1839.53 74.019 1841.73 74.2952C1840.51 72.6381 1841.98 73.4667 1839.77 73.1905ZM1414.52 69.8762C1415.74 71.5333 1414.27 70.7048 1416.48 70.981C1415.5 69.3238 1416.72 70.1524 1414.52 69.8762ZM1164.9 73.1905C1166.13 74.8476 1164.66 74.019 1166.86 74.2952C1165.64 72.6381 1167.11 73.4667 1164.9 73.1905ZM1924.28 69.3238H1926.24C1925.26 67.6667 1925.26 67.6667 1924.28 69.3238ZM1249.17 69.3238H1251.13C1250.15 67.6667 1250.15 67.6667 1249.17 69.3238ZM1136.98 66.0095C1136.24 66.0095 1136.49 65.7333 1135.75 66.2857C1134.04 67.1143 1135.02 66.5619 1134.53 67.1143C1136 66.8381 1136.49 66.8381 1136.98 66.0095ZM1471.35 59.1048H1468.9V58.5524H1471.35V59.1048ZM1765.3 63.2476H1763.83V64.3524C1764.57 64.0762 1765.06 64.0762 1765.3 63.2476ZM1090.43 63.2476H1088.96V64.3524C1089.7 64.0762 1090.19 64.0762 1090.43 63.2476ZM1774.37 75.4H1772.9V76.5048C1773.88 76.2286 1774.12 76.5048 1774.37 75.4ZM1442.44 62.6952C1442.93 64.3524 1442.44 63.8 1443.91 64.3524C1442.93 62.1429 1444.16 63.2476 1442.44 62.6952ZM1496.09 59.6571V61.0381H1498.05C1497.56 60.7619 1498.3 61.0381 1497.07 60.4857L1496.09 59.6571ZM1879.95 72.6381C1878.48 72.9143 1879.21 72.6381 1878.48 73.7429H1879.95V72.6381ZM1493.64 60.4857C1492.17 60.7619 1492.91 60.4857 1492.17 61.5905H1493.64V60.4857ZM1204.83 72.6381C1203.36 72.9143 1204.1 72.6381 1203.36 73.7429H1204.83V72.6381ZM1710.68 56.8952H1709.21C1709.94 58 1709.21 57.7238 1710.68 58V56.8952ZM1035.56 56.8952H1034.09C1034.83 58 1034.09 57.7238 1035.56 58V56.8952ZM1811.6 66.0095C1810.62 66.2857 1811.6 65.7333 1810.38 66.2857L1809.64 67.1143C1810.62 66.8381 1811.36 67.1143 1811.6 66.0095ZM1069.61 63.8C1068.63 64.0762 1069.61 63.5238 1068.39 64.0762C1067.65 64.3524 1067.9 64.3524 1067.65 64.9048C1068.63 64.6286 1069.37 64.9048 1069.61 63.8ZM1744.48 63.8C1743.5 64.0762 1744.48 63.5238 1743.26 64.0762L1742.52 64.9048C1743.5 64.6286 1744.24 64.9048 1744.48 63.8ZM1999.73 85.3429H1997.77V84.7905H1999.73V85.3429ZM1298.41 63.8H1296.45V63.2476H1298.41V63.8ZM1324.86 85.3429H1322.9V84.7905H1324.86V85.3429ZM1973.52 63.8H1971.56V63.2476H1973.52V63.8ZM1406.19 63.2476H1404.23V62.6952H1406.19V63.2476ZM1214.63 78.1619H1212.67V77.6095H1214.63V78.1619ZM1176.17 64.9048H1174.21V64.3524H1176.17V64.9048ZM1851.29 64.9048H1849.33V64.3524H1851.29V64.9048ZM1889.74 78.1619H1887.78V77.6095H1889.74V78.1619ZM1419.17 61.5905H1417.21V61.0381H1419.17V61.5905ZM1687.41 68.7714C1685.94 70.1524 1686.67 68.4952 1686.43 70.981C1686.67 70.7048 1686.67 70.981 1687.16 70.1524C1687.65 68.7714 1687.16 69.6 1687.41 68.7714ZM1012.29 68.7714C1010.82 70.1524 1011.56 68.4952 1011.31 70.981C1011.56 70.7048 1011.56 70.981 1012.05 70.1524C1012.54 68.7714 1012.05 69.6 1012.29 68.7714ZM1089.45 67.6667C1087.98 67.9429 1088.72 67.6667 1087.98 68.7714C1090.43 68.4952 1088.72 69.3238 1089.45 67.6667Z" fill="white"/>
<path d="M1498.05 61.0381C1498.3 61.0381 1497.56 62.1429 1499.03 61.3143C1500.5 60.4857 1499.03 61.8667 1499.52 60.4857C1498.3 60.7619 1499.28 60.4857 1498.05 61.0381ZM1762.85 68.7714H1764.32C1763.1 67.1143 1763.83 67.1143 1762.85 68.7714ZM1087.25 67.1143H1088.72C1087.49 65.4571 1088.47 65.4571 1087.25 67.1143ZM1762.36 67.1143H1763.83C1762.61 65.4571 1763.34 65.4571 1762.36 67.1143ZM1200.91 67.1143L1199.93 68.219C1202.63 68.219 1200.67 68.219 1201.4 67.6667L1200.91 67.1143ZM1876.03 67.1143L1875.05 67.9429C1877.74 67.9429 1875.78 67.9429 1876.52 67.3905L1876.03 67.1143ZM1935.06 75.4C1933.59 75.6762 1934.33 75.4 1933.59 76.5048C1934.57 76.2286 1935.06 76.5048 1935.06 75.4ZM1176.66 68.219C1175.19 68.4952 1175.93 68.219 1175.19 69.3238C1176.17 69.0476 1176.42 69.3238 1176.66 68.219ZM1851.77 68.219C1850.31 68.4952 1851.04 68.219 1850.31 69.3238C1851.29 69.0476 1851.53 69.3238 1851.77 68.219ZM1260.19 75.4C1258.72 75.6762 1259.46 75.4 1258.72 76.5048C1259.7 76.2286 1260.19 76.5048 1260.19 75.4ZM1424.07 54.1333H1422.6V53.581H1424.07V54.1333ZM1888.03 80.3714H1886.56V79.819H1888.03V80.3714ZM1449.06 62.1429H1447.59V61.5905H1449.06V62.1429ZM1807.44 66.0095H1805.97V65.4571H1807.44V66.0095ZM1986.01 72.6381H1984.54V72.0857H1986.01V72.6381ZM1310.9 72.6381H1309.43V72.0857H1310.9V72.6381ZM1213.16 80.3714H1211.69V79.819H1213.16V80.3714ZM1132.32 66.0095H1130.85V65.4571H1132.32V66.0095ZM1715.09 57.4476H1713.62V56.8952H1715.09V57.4476ZM1245.74 77.6095H1244.27V77.0571H1245.74V77.6095ZM1920.85 77.6095H1919.38V77.0571H1920.85V77.6095ZM1039.97 57.4476H1038.5V56.8952H1039.97V57.4476ZM1008.37 86.4476H1006.9V85.8952H1008.37V86.4476ZM1394.19 64.9048H1392.72V64.3524H1394.19V64.9048ZM1683.49 86.4476H1682.02V85.8952H1683.49V86.4476ZM1838.79 68.219H1837.32V67.6667H1838.79V68.219ZM1606.32 61.5905H1604.85V61.0381H1606.32V61.5905ZM1163.92 68.219H1162.45V67.6667H1163.92V68.219ZM1290.08 60.4857L1291.55 61.5905C1291.06 59.9333 1292.53 60.4857 1290.08 60.4857ZM992.45 73.1905C992.94 74.8476 991.47 74.019 993.919 74.2952C993.919 74.2952 993.674 74.2952 993.674 74.019C993.674 73.7429 993.43 73.7429 993.43 73.7429C993.43 73.7429 992.695 73.4667 992.45 73.1905ZM1557.09 73.7429C1557.82 74.8476 1557.09 74.5714 1558.56 74.8476C1557.82 73.4667 1558.56 74.2952 1557.09 73.7429ZM1667.56 73.1905C1668.05 74.8476 1666.58 74.019 1669.03 74.2952C1669.03 74.2952 1668.79 74.2952 1668.79 74.019L1667.56 73.1905ZM1253.82 74.8476C1253.82 74.2952 1252.84 73.7429 1253.09 74.8476C1253.09 75.1238 1254.07 76.2286 1253.82 74.8476ZM1928.69 74.8476C1928.69 74.2952 1927.71 73.7429 1927.96 74.8476C1928.2 75.1238 1928.94 76.2286 1928.69 74.8476ZM1182.05 68.7714C1182.29 70.1524 1181.8 69.6 1183.03 69.8762C1183.03 68.4952 1183.52 69.3238 1182.05 68.7714ZM1857.16 68.7714C1857.41 70.1524 1856.92 69.6 1858.14 69.8762C1857.9 68.4952 1858.39 69.3238 1857.16 68.7714ZM1794.45 65.4571C1793.96 64.9048 1792.74 66.2857 1793.96 65.7333C1793.96 65.7333 1795.68 66.2857 1794.45 65.4571ZM1440.73 60.4857C1440.24 59.9333 1439.01 61.3143 1440.24 60.7619C1440.24 60.7619 1441.95 61.3143 1440.73 60.4857ZM1490.21 60.4857C1489.72 59.9333 1488.5 61.3143 1489.72 60.7619C1489.72 60.7619 1491.19 61.3143 1490.21 60.4857ZM1079.9 65.4571C1079.41 64.9048 1078.19 66.2857 1079.41 65.7333C1079.17 65.7333 1080.64 66.2857 1079.9 65.4571ZM1734.44 66.5619C1733.95 66.0095 1732.72 67.3905 1733.95 66.8381C1733.95 66.8381 1735.42 67.3905 1734.44 66.5619ZM1830.46 64.9048C1829.97 64.3524 1828.75 65.7333 1829.97 65.181C1829.73 65.181 1831.2 65.7333 1830.46 64.9048ZM1968.62 69.8762C1968.13 69.3238 1966.91 70.7048 1968.13 70.1524C1967.89 70.1524 1969.36 70.7048 1968.62 69.8762ZM1452.98 63.2476C1452.49 62.6952 1451.26 64.0762 1452.49 63.5238C1452.24 63.5238 1453.71 64.0762 1452.98 63.2476ZM1155.35 64.9048C1154.86 64.3524 1153.63 65.7333 1154.86 65.181C1154.61 65.181 1156.08 65.7333 1155.35 64.9048ZM1059.32 66.5619C1058.83 66.0095 1057.61 67.3905 1058.83 66.8381C1058.83 66.8381 1060.3 67.3905 1059.32 66.5619ZM1263.13 68.219C1262.64 67.6667 1261.42 69.0476 1262.64 68.4952C1262.64 68.4952 1264.11 69.0476 1263.13 68.219ZM1938.25 68.219C1937.76 67.6667 1936.53 69.0476 1937.76 68.4952C1937.76 68.4952 1939.23 69.0476 1938.25 68.219ZM1169.8 69.8762C1169.31 69.3238 1168.09 70.7048 1169.31 70.1524C1169.31 70.1524 1170.54 70.7048 1169.8 69.8762ZM1423.58 63.8C1423.09 63.2476 1421.87 64.6286 1423.09 64.0762C1423.09 64.0762 1424.32 64.6286 1423.58 63.8ZM1823.6 65.4571C1823.11 64.9048 1821.64 66.2857 1822.87 65.7333C1822.87 65.7333 1824.34 66.2857 1823.6 65.4571ZM1119.58 65.4571C1119.09 64.9048 1117.87 66.2857 1119.09 65.7333C1119.09 65.7333 1120.56 66.2857 1119.58 65.4571ZM1444.65 56.8952C1444.16 56.3429 1442.93 57.7238 1444.16 57.1714C1443.91 57.1714 1445.38 57.7238 1444.65 56.8952ZM1755.02 65.4571C1754.53 64.9048 1753.3 66.2857 1754.53 65.7333C1754.28 65.7333 1755.75 66.2857 1755.02 65.4571ZM1148.49 65.4571C1148 64.9048 1146.78 66.2857 1148 65.7333C1147.76 65.7333 1149.23 66.2857 1148.49 65.4571ZM1383.41 63.8C1382.92 63.2476 1381.69 64.6286 1382.92 64.0762C1382.92 64.0762 1384.14 64.6286 1383.41 63.8ZM1508.83 59.6571C1508.34 59.1048 1507.11 60.4857 1508.34 59.9333C1508.34 59.9333 1509.81 60.7619 1508.83 59.6571ZM1844.92 69.8762C1844.43 69.3238 1843.2 70.7048 1844.43 70.1524C1844.43 70.1524 1845.65 70.7048 1844.92 69.8762ZM1293.51 69.8762C1293.02 69.3238 1291.79 70.7048 1293.02 70.1524C1292.77 70.1524 1294.24 70.7048 1293.51 69.8762ZM1359.4 66.5619C1358.91 66.0095 1357.69 67.3905 1358.91 66.8381C1358.91 66.8381 1360.38 67.3905 1359.4 66.5619ZM1420.15 62.6952C1419.66 62.1429 1418.44 63.5238 1419.66 62.9714C1419.66 62.9714 1421.13 63.5238 1420.15 62.6952ZM1071.08 64.3524C1070.59 63.8 1069.37 65.181 1070.59 64.6286C1070.35 64.6286 1071.82 65.181 1071.08 64.3524ZM1423.58 52.4762C1423.09 51.9238 1421.87 53.3048 1423.09 52.7524C1423.09 52.7524 1424.32 53.3048 1423.58 52.4762ZM1346.91 64.3524C1346.42 63.8 1345.19 65.181 1346.42 64.6286C1346.42 64.6286 1348.13 65.181 1346.91 64.3524ZM1745.95 64.3524C1745.46 63.8 1744.24 65.181 1745.46 64.6286C1745.22 64.6286 1746.69 65.181 1745.95 64.3524ZM1363.08 65.4571C1363.08 64.9048 1362.1 64.0762 1362.34 65.4571C1362.59 66.8381 1361.12 65.4571 1362.59 65.7333C1363.08 65.7333 1363.08 66.5619 1363.08 65.4571ZM1075.25 68.219C1075.25 67.6667 1074.27 66.8381 1074.51 68.219C1074.76 69.6 1073.29 68.219 1074.76 68.4952C1075.49 68.4952 1075.25 69.3238 1075.25 68.219ZM1750.61 68.219C1750.61 67.6667 1749.63 66.8381 1749.87 68.219C1750.12 69.6 1748.65 68.219 1750.12 68.4952C1750.61 68.4952 1750.61 69.3238 1750.61 68.219ZM1974.99 63.2476C1974.99 62.6952 1974.01 61.8667 1974.26 63.2476C1974.5 64.6286 1973.03 63.2476 1974.5 63.5238C1974.99 63.5238 1974.99 64.3524 1974.99 63.2476ZM1219.53 66.0095C1219.53 65.7333 1219.04 66.0095 1219.04 66.0095C1219.04 66.0095 1218.06 64.6286 1218.79 66.0095C1218.55 66.0095 1219.53 67.1143 1219.53 66.0095ZM1231.04 66.5619C1231.04 66.2857 1230.55 66.5619 1230.55 66.5619C1230.55 66.5619 1229.57 65.181 1230.31 66.5619C1230.31 66.5619 1231.04 67.6667 1231.04 66.5619ZM1104.15 64.3524L1103.66 65.4571C1104.4 65.181 1104.15 65.7333 1104.4 65.181C1104.64 64.6286 1104.4 65.181 1104.15 64.3524ZM1779.27 64.3524L1778.78 65.4571C1779.51 65.181 1779.27 65.7333 1779.51 65.181C1779.51 64.3524 1779.76 65.181 1779.27 64.3524ZM1554.64 69.8762C1554.64 69.6 1554.15 69.8762 1554.15 69.8762C1554.15 69.8762 1553.17 68.4952 1553.9 70.1524C1554.64 70.1524 1554.64 70.7048 1554.64 69.8762ZM1525 65.4571C1525 65.181 1524.51 65.4571 1524.51 65.4571C1524.51 65.4571 1523.53 64.0762 1524.26 65.4571H1524.51C1524.75 65.4571 1525 66.5619 1525 65.4571ZM1894.64 66.0095C1894.64 65.7333 1894.15 66.0095 1894.15 66.0095C1894.15 66.0095 1893.42 64.6286 1893.91 66.0095H1894.15C1894.4 66.0095 1894.64 67.1143 1894.64 66.0095ZM1905.91 66.5619C1905.91 66.2857 1905.42 66.5619 1905.42 66.5619C1905.42 66.5619 1904.69 65.181 1905.18 66.5619H1905.42C1905.67 66.5619 1905.91 67.6667 1905.91 66.5619ZM1840.75 64.9048H1840.26L1840.75 65.4571V64.9048ZM1165.88 64.9048H1165.39L1165.88 65.4571V64.9048ZM1453.47 56.3429V55.7905L1452.73 56.0667L1453.47 56.3429ZM1889.74 80.3714C1890.23 78.9905 1889.01 80.0952 1889.74 80.3714C1889.25 80.3714 1889.25 80.3714 1889.74 80.3714ZM1361.85 66.5619C1362.1 66.5619 1361.85 66.8381 1361.85 66.5619V66.5619ZM1361.85 68.219C1362.1 68.219 1361.85 68.4952 1361.85 68.219V68.219Z" fill="white"/>
<path d="M716.868 65.4571C717.603 66.2857 718.338 67.1143 719.317 67.6667C718.583 63.2476 719.072 69.3238 720.297 63.2476C726.176 62.6952 719.318 62.419 725.197 63.8H727.646V64.0762C728.136 65.7333 727.401 64.9048 728.626 65.7333L729.361 63.5238C730.586 63.5238 731.81 63.8 732.79 64.0762C736.71 64.0762 732.79 61.3143 742.589 60.2095C742.589 62.1429 741.609 61.8667 746.998 63.5238C746.753 64.6286 746.753 64.0762 746.263 64.9048C745.283 66.8381 746.263 63.8 745.528 66.2857C747.243 66.5619 748.958 67.1143 750.672 67.6667C754.837 68.7714 750.672 67.3905 755.327 67.3905C755.327 66.5619 755.082 65.4571 754.837 64.6286C755.817 64.6286 756.797 64.3524 757.776 64.0762L759.491 62.9714C759.981 64.9048 759.981 64.3524 759.001 65.7333C762.186 65.7333 760.471 64.6286 761.696 63.2476L762.431 62.419H762.676C763.901 62.1429 765.125 62.1429 766.595 62.1429C770.025 62.6952 766.35 62.6952 769.535 63.8L772.964 62.6952C772.964 64.3524 772.964 63.8 773.454 64.9048C775.169 63.5238 774.434 64.0762 776.149 64.0762C777.618 64.0762 778.843 64.0762 780.313 64.3524C779.823 64.9048 779.333 65.181 778.843 65.4571L779.578 65.7333C780.068 66.0095 780.558 66.0095 781.048 66.0095C781.538 64.0762 781.783 64.0762 783.497 63.8L786.437 63.2476C786.927 63.2476 788.886 63.5238 788.886 63.5238H789.131L790.111 63.8H790.356L797.215 64.0762C796.48 66.8381 796.48 64.6286 795.745 67.3905C800.155 64.6286 798.93 63.8 800.645 63.5238C802.359 63.2476 802.115 63.8 802.604 64.6286C801.87 66.0095 802.115 66.0095 800.155 66.2857V67.9429C801.87 68.219 801.135 68.7714 802.359 67.6667C804.809 66.0095 803.584 63.8 809.953 63.5238C810.198 64.6286 809.708 64.0762 810.443 64.6286H811.913C815.587 65.7333 815.097 64.9048 816.812 66.2857C817.792 64.0762 816.567 64.9048 818.282 63.5238C818.772 63.8 819.262 64.0762 819.752 64.6286C820.487 65.181 820.242 64.9048 821.221 65.181C821.711 62.9714 821.466 63.5238 823.671 63.5238V64.6286H824.651C825.631 64.3524 825.141 64.3524 825.631 64.0762C828.08 63.8 829.795 61.5905 830.775 64.0762C832 66.5619 830.775 63.5238 831.02 64.6286C831.51 67.6667 830.04 63.2476 831.02 65.4571C832.245 64.6286 831.51 64.9048 833.47 64.9048C833.959 63.5238 833.715 64.3524 833.47 62.6952C834.939 62.9714 833.959 62.6952 834.449 62.9714C835.429 63.8 835.919 65.181 835.919 66.5619L838.859 67.3905C839.839 67.9429 838.369 67.6667 839.594 67.3905C840.818 67.1143 838.859 67.3905 840.573 67.1143C843.758 66.5619 842.288 68.4952 847.187 65.7333L845.963 63.8L846.208 63.5238C849.637 63.8 853.067 64.3524 856.496 65.181C856.006 65.4571 856.496 65.4571 855.516 65.7333H854.046L855.516 67.3905C858.211 68.7714 860.415 66.8381 862.865 66.8381C866.539 67.1143 861.885 67.9429 866.049 67.9429C867.519 67.9429 868.254 67.1143 869.969 66.8381C870.214 68.219 870.704 68.219 871.439 69.0476C870.214 68.7714 869.234 68.4952 868.009 68.4952V69.6C869.234 69.6 870.704 69.8762 871.928 70.1524C871.928 66.0095 871.194 67.3905 870.459 64.6286C872.663 64.6286 878.542 63.2476 881.482 63.8C885.646 64.9048 881.972 62.6952 885.891 63.8C889.076 64.6286 888.341 63.8 891.77 64.0762C895.2 64.3524 895.445 65.7333 899.609 65.7333C900.344 63.5238 899.119 65.7333 900.099 63.5238C901.079 63.8 902.304 63.5238 903.284 63.2476C906.223 61.8667 909.408 61.0381 912.592 61.3143C912.347 61.8667 910.632 64.0762 913.817 63.2476L918.716 61.8667C918.961 62.419 919.206 62.6952 919.451 63.2476L920.186 64.0762L923.125 64.9048C924.595 64.9048 923.615 64.9048 925.085 64.3524C925.575 66.0095 924.84 64.6286 926.065 66.0095C927.045 65.7333 926.555 66.2857 927.045 64.6286V64.3524L937.088 65.181C937.088 65.181 938.803 64.9048 939.293 64.9048C939.538 64.0762 939.783 65.181 939.293 64.0762L938.803 62.9714C941.253 62.9714 940.273 63.5238 941.253 61.8667C939.538 61.3143 940.028 61.5905 939.293 60.2095C941.743 60.2095 942.722 59.6571 945.662 59.6571H952.521L953.011 57.4476C954.97 58 955.95 57.4476 956.93 59.1048C952.766 59.1048 954.725 60.2095 950.561 60.2095L954.726 60.7619C955.705 62.6952 956.685 62.1429 960.36 60.7619C962.074 60.2095 960.849 60.2095 963.054 59.9333L976.037 61.0381C975.302 62.1429 975.547 61.5905 975.057 63.2476C971.628 63.2476 971.628 64.0762 972.118 61.5905H967.708C966.729 64.6286 965.994 61.8667 964.279 64.3524C968.688 64.6286 973.098 64.9048 977.507 64.6286H983.386C985.591 64.3524 987.795 64.6286 990 64.9048C989.265 63.2476 990 63.5238 990 60.4857L980.202 59.9333L981.916 58.8286C983.141 57.7238 982.161 59.1048 982.161 58.2762V58C984.856 57.7238 987.305 57.4476 990 57.4476V0H-31V56.8952C-30.2651 56.3429 -29.2853 56.3429 -28.5504 56.8952C-27.0807 57.7238 -27.5706 57.7238 -28.5504 59.1048C-25.8558 59.1048 -25.1208 58.8286 -24.631 61.3143C-28.0604 59.1048 -26.1007 61.3143 -30.51 61.3143V62.9714C-26.5906 63.5238 -31.9799 65.181 -25.6108 65.181C-24.386 61.5905 -22.6713 64.0762 -23.6511 61.3143C-22.1814 61.8667 -22.4263 62.1429 -21.9364 62.1429C-20.4667 62.1429 -22.6713 62.1429 -20.7115 61.3143C-18.9968 61.8667 -17.0371 62.1429 -15.3224 61.8667C-14.5875 64.9048 -13.8525 63.2476 -10.4231 65.181C-9.93323 66.8381 -10.6682 65.4571 -9.44336 66.8381C-8.21851 66.5619 -8.7085 66.8381 -7.72864 65.4571L-7.23865 65.181L-5.76892 63.2476C-2.82935 60.7619 1.33496 64.3524 4.02954 62.9714C3.53967 64.6286 3.04968 64.6286 1.08997 64.6286V66.0095C4.51941 66.2857 0.600098 66.5619 4.02954 67.6667C4.51941 66.2857 3.78467 67.9429 3.53967 65.4571L6.47925 64.9048C6.23425 68.7714 5.0094 68.4952 9.6637 69.8762H9.90869L16.0327 70.981C16.0327 70.981 18.2373 70.4286 18.4823 70.1524L20.197 68.7714L21.9117 67.1143C25.0962 65.181 28.7708 64.3524 32.4452 64.6286C33.9149 64.6286 35.6296 64.6286 37.0994 64.3524V65.7333C38.0792 64.9048 38.0792 64.6286 39.3041 64.3524C40.5289 64.0762 40.7738 64.9048 41.5087 65.181C43.2234 66.8381 41.7537 66.0095 44.2032 66.2857C45.673 64.9048 44.9382 66.0095 45.6731 62.9714C51.5521 62.419 44.4482 62.1429 50.5723 63.5238H53.0219C53.5117 64.6286 52.7769 64.6286 54.0017 65.7333L54.4917 63.5238C59.6359 63.5238 57.921 65.4571 60.8606 62.419C62.8203 61.0381 65.27 60.2095 67.7196 60.2095C67.7196 62.1429 66.4948 61.8667 72.1289 63.5238C71.639 65.4571 71.3939 64.3524 70.6591 66.2857C72.3738 66.5619 74.0886 67.1143 75.8033 67.6667C79.9677 68.7714 75.8032 67.3905 80.4575 67.3905C80.4575 66.5619 80.2126 65.4571 79.9677 64.6286C80.9475 64.6286 81.9274 64.3524 82.9072 64.0762V62.9714C85.6018 63.2476 84.8669 64.0762 83.8871 65.7333C84.8669 65.7333 84.8669 66.0095 85.6018 65.4571C86.3367 64.9048 85.8467 64.9048 86.0917 64.3524C86.3367 63.8 86.0917 63.5238 87.3165 62.6952C90.991 60.4857 94.6654 63.8 94.6654 63.8L98.0948 62.6952C98.0948 64.3524 98.0948 63.8 98.5847 64.9048L100.544 64.0762H100.789C102.504 63.8 104.219 64.0762 105.689 64.3524C105.199 64.9048 104.709 65.181 104.219 65.4571L104.709 66.0095C105.199 66.2857 105.689 66.2857 105.934 66.2857C106.668 63.2476 107.648 64.6286 110.098 64.0762L120.141 64.9048C121.611 65.181 118.672 64.9048 120.631 64.9048H121.366C122.101 64.6286 121.121 64.9048 122.591 64.3524C121.856 67.1143 121.856 64.9048 121.121 67.6667C122.346 67.1143 123.571 66.0095 124.551 64.9048C125.531 63.8 124.796 64.0762 126.02 63.8C127.49 63.5238 127.49 64.0762 128.225 64.9048C127.245 66.2857 127.735 66.2857 125.775 66.5619V67.6667C130.675 68.7714 126.265 63.5238 135.084 63.2476C135.329 64.0762 135.084 64.0762 135.819 64.6286H136.554L138.269 64.9048H138.513C140.963 65.181 139.738 64.6286 141.453 66.0095C142.433 63.8 141.208 64.6286 142.923 63.2476C143.413 63.5238 143.903 63.8 144.393 64.3524C145.127 64.9048 144.882 64.6286 145.862 64.9048C146.352 62.6952 146.107 63.2476 148.312 63.2476L150.272 63.8C152.721 63.5238 154.191 61.3143 155.416 63.8C156.641 66.2857 155.416 63.2476 155.661 64.3524C156.396 67.3905 154.926 62.9714 155.661 65.181C156.886 64.3524 156.151 64.6286 158.11 64.6286C158.6 63.2476 158.355 64.0762 158.11 62.419C160.56 62.6952 158.11 61.0381 160.56 65.181C159.335 65.181 159.825 65.4571 159.335 65.4571L158.6 65.7333C155.171 66.8381 156.885 65.181 155.416 67.1143C157.13 67.6667 158.6 67.6667 160.315 67.6667C160.805 66.2857 160.805 67.3905 160.315 66.0095H162.275L163.255 66.5619C164.234 67.1143 162.765 66.5619 164.969 66.2857C168.154 65.7333 166.684 67.6667 171.583 64.9048C171.338 63.5238 170.848 63.5238 170.114 62.6952C173.543 62.9714 176.973 63.5238 180.402 64.3524C179.912 64.6286 180.402 64.6286 179.422 64.9048H177.952L179.422 66.5619C182.117 67.9429 184.321 66.0095 186.771 66.0095C190.445 66.2857 185.791 67.1143 190.2 67.1143C191.67 67.1143 192.405 66.2857 194.12 66.0095L195.589 68.219C194.365 67.9429 193.385 67.6667 192.16 67.6667V69.0476C193.385 69.0476 194.855 69.3238 196.079 69.6C196.079 65.4571 195.344 66.8381 194.61 64.0762C195.834 64.0762 197.304 64.0762 198.529 63.5238C201.224 62.9714 204.163 62.9714 206.858 63.5238C209.062 63.5238 206.858 63.2476 208.573 62.9714C209.552 62.9714 209.307 62.9714 210.042 63.2476C213.227 64.0762 212.492 63.2476 215.921 63.5238C219.351 63.8 219.596 65.181 223.76 65.181C224.74 62.9714 223.515 65.181 224.25 62.9714C225.23 63.2476 226.455 62.9714 227.434 62.6952L228.414 62.1429L229.149 62.9714C231.844 61.8667 234.538 61.5905 237.233 61.5905C236.988 63.2476 236.743 62.419 237.233 63.8C239.438 63.5238 238.458 62.6952 239.928 62.6952L242.622 62.1429C243.112 63.2476 243.847 63.8 244.827 64.0762L245.072 64.3524C247.276 65.4571 246.786 64.9048 248.991 64.3524C249.726 66.0095 248.746 64.6286 249.971 66.0095C251.441 65.4571 249.971 66.2857 250.706 65.4571L250.951 64.3524L252.666 64.0762L256.83 64.3524V66.0095H258.79V65.7333C258.79 65.4571 258.79 65.4571 259.035 65.181C259.035 64.6286 258.79 65.181 259.28 64.3524C261.729 66.2857 259.77 64.9048 263.199 64.9048C263.444 64.0762 263.689 65.181 263.199 64.0762L262.709 62.9714C264.669 62.9714 263.934 63.2476 265.159 62.419C263.934 60.7619 264.424 61.8667 263.199 60.2095C265.894 60.7619 269.813 58.5524 273.732 59.9333L277.407 60.7619C277.162 62.6952 277.407 61.0381 277.162 62.1429C276.917 63.2476 277.162 61.5905 276.427 63.5238C278.142 63.8 277.897 63.5238 278.876 64.6286C276.182 64.6286 266.628 63.5238 264.424 65.7333L293.574 64.9048C295.534 64.6286 297.983 64.9048 299.943 64.9048C300.678 64.9048 301.903 64.6286 302.393 64.6286L310.721 64.9048L309.252 66.5619C311.456 66.8381 313.416 66.8381 315.621 66.5619C317.825 66.0095 320.275 65.7333 322.48 66.0095C321.99 64.6286 321.99 65.7333 322.48 64.3524C319.05 65.181 315.621 65.7333 312.191 65.4571H311.701C311.701 64.6286 313.906 63.2476 314.641 62.9714L320.765 61.0381C322.235 60.7619 323.704 60.7619 325.174 61.0381C325.419 59.6571 325.664 61.8667 324.929 60.4857C324.194 59.1048 324.439 61.0381 324.684 59.9333C326.154 59.1048 325.664 59.381 327.624 59.381C327.869 59.6571 327.869 59.9333 327.869 60.2095V61.0381C329.828 60.4857 328.604 60.2095 330.318 60.2095C331.053 60.2095 332.278 60.7619 333.503 61.0381C336.443 61.5905 334.728 60.7619 337.422 60.4857H339.382V63.2476C341.587 61.5905 341.342 60.4857 346.241 59.9333C346.486 61.8667 346.486 61.8667 348.201 62.1429C347.711 59.9333 345.506 58.8286 351.14 58.2762C352.12 59.9333 352.61 59.6571 353.1 62.1429H349.18C349.67 64.6286 351.14 64.3524 352.855 63.5238H353.1C353.835 63.2476 354.57 63.2476 355.304 63.2476C354.08 60.4857 354.815 61.0381 354.815 57.1714C357.999 57.1714 360.694 54.1333 362.898 56.3429L363.633 58.2762C366.818 58.5524 370.002 58.2762 372.942 57.7238C372.452 59.9333 371.962 59.381 370.982 61.0381C373.187 61.5905 374.411 61.8667 374.411 58.2762C376.861 58 375.636 57.7238 378.086 58C379.556 58.2762 381.515 59.381 382.985 58.8286C385.435 58 382.005 59.1048 383.72 58.5524C383.965 58.5524 384.21 58.2762 384.7 58C385.925 57.4476 387.149 57.1714 388.374 56.8952C388.374 56.8952 388.129 56.8952 388.129 56.619C387.884 55.7905 388.129 56.8952 387.395 56.3429C386.66 55.7905 386.904 56.619 386.415 55.2381C387.394 54.6857 388.129 54.1333 389.109 53.8571C392.049 53.0286 391.559 54.6857 391.804 51.9238L400.622 51.3714C404.052 52.2 402.092 52.2 402.337 52.7524C403.072 54.1333 402.337 53.8571 403.072 55.7905C406.991 53.0286 404.542 54.9619 409.441 55.2381C414.34 55.5143 412.381 55.7905 412.136 56.3429L411.891 56.619L411.156 58.5524C414.585 58.2762 410.666 58.2762 412.625 57.7238L414.34 58.2762H416.3L416.79 58C417.77 57.7238 415.565 57.7238 418.26 57.4476L416.545 56.619L416.3 56.3429C418.75 56.0667 417.525 55.7905 420.464 56.0667C425.608 56.619 423.894 54.1333 432.712 56.3429C433.692 56.8952 434.917 56.8952 436.142 56.8952C438.347 57.1714 437.612 57.4476 439.571 58C439.326 61.0381 438.102 60.7619 436.142 61.3143C433.937 62.1429 431.488 62.6952 429.283 62.419C429.773 62.6952 429.283 62.6952 430.508 62.9714C431.733 63.2476 430.753 62.9714 431.977 62.9714C435.652 62.6952 439.326 63.2476 441.286 61.8667C443.246 60.4857 440.796 61.5905 443.001 61.0381V58.8286H441.041C442.021 57.1714 441.041 58.5524 442.021 58C445.205 56.619 456.964 57.1714 460.883 57.1714V55.2381C463.578 55.2381 466.272 54.6857 468.722 54.1333C467.742 58 466.762 54.1333 463.333 56.8952C464.557 56.8952 465.782 56.8952 467.007 57.1714C468.232 57.4476 468.232 56.8952 468.722 58.5524C469.947 59.381 469.947 59.9333 471.171 59.1048C471.416 58 471.171 58.2762 471.661 57.4476L473.866 57.7238C478.275 58.8286 475.826 55.5143 484.644 58.8286C486.359 59.381 484.399 59.1048 486.359 59.6571L487.829 58.5524C488.809 59.381 488.564 59.6571 490.278 59.6571C491.503 59.6571 491.503 59.381 493.218 59.1048C497.627 58.8286 496.892 59.1048 499.097 60.7619C498.607 58 498.852 59.9333 499.097 59.1048L508.161 58.8286C511.59 58.8286 507.426 59.9333 510.855 59.381C514.285 58.8286 511.345 56.619 515.509 58.8286C519.184 60.7619 516.489 58 520.899 57.7238C520.899 61.8667 518.204 61.3143 517.959 64.9048C518.939 64.6286 524.328 59.9333 524.818 58.2762C528.737 58.2762 525.553 58.8286 529.472 58C531.677 57.4476 531.432 58.5524 533.147 59.9333C534.616 58.5524 536.086 57.4476 537.801 56.8952C541.23 56.0667 542.7 58.2762 542.945 54.4095C545.395 55.5143 542.455 54.6857 544.905 55.5143C545.885 53.0286 544.66 53.3048 547.844 53.3048C547.109 54.4095 545.885 56.0667 547.599 57.7238C548.334 58.5524 548.824 58.5524 549.314 58C550.294 56.8952 549.559 58.2762 549.559 57.1714L549.069 56.0667C551.274 56.619 551.764 58.2762 553.234 58.5524C555.193 58.8286 557.398 58.5524 559.358 58.2762V58.8286C559.358 59.6571 558.868 58 559.358 59.6571C559.603 60.2095 559.358 60.4857 561.072 60.7619C561.807 59.1048 561.317 58.8286 561.807 57.1714C562.052 56.0667 562.787 55.7905 563.522 54.6857C564.502 55.7905 565.972 56.3429 567.441 56.3429L565.971 58C568.421 57.4476 567.441 58 570.381 58C570.381 57.1714 570.136 56.0667 569.891 55.2381C573.565 55.2381 572.585 54.4095 575.28 54.1333C575.28 56.3429 575.525 55.7905 574.79 57.4476C577.485 57.4476 578.954 58 580.179 56.3429C578.954 56.3429 577.975 56.619 576.75 56.8952C577.73 53.0286 579.199 56.3429 583.364 54.9619C585.813 53.8571 588.508 53.8571 590.958 54.6857C591.692 58 591.203 56.0667 590.958 59.1048C591.692 58.8286 592.427 58.5524 593.162 58C595.122 57.1714 594.877 57.7238 595.367 57.7238C598.796 57.4476 596.347 56.8952 597.082 54.6857C599.531 54.9619 597.816 55.2381 600.021 56.8952C602.226 58.5524 601.001 56.619 602.471 59.6571C599.531 58.8286 601.491 59.6571 598.551 60.2095H582.384V61.3143C585.813 61.3143 585.568 62.1429 588.263 62.419L598.551 62.9714C600.511 63.2476 601.491 64.3524 603.696 62.9714C604.185 62.6952 602.226 62.9714 604.675 62.419H606.635C606.635 62.6952 606.39 63.5238 606.145 63.5238C605.9 64.9048 605.655 63.5238 606.145 64.6286C607.37 63.8 606.635 64.0762 608.595 64.0762C609.82 65.7333 610.31 64.0762 610.799 63.8C612.269 62.6952 610.554 62.9714 613.004 63.2476C615.454 63.5238 627.947 64.0762 628.927 62.419V61.8667L629.172 62.1429L629.661 61.8667L630.396 61.5905C625.497 61.5905 624.027 60.4857 615.454 60.4857C615.944 58.5524 617.658 57.1714 619.373 57.1714C622.313 57.1714 619.863 58.8286 624.762 57.7238C624.762 61.0381 624.517 59.381 625.742 59.9333C626.232 58.5524 625.987 58.5524 625.252 57.1714L632.601 56.8952H635.296C635.541 56.8952 635.296 56.619 636.52 56.8952C637.745 57.1714 637.255 57.1714 637.5 57.1714C639.46 57.7238 638.48 57.1714 639.705 57.1714C640.44 56.8952 641.175 57.1714 641.665 57.7238C642.889 58.8286 642.645 57.4476 641.42 59.6571C644.114 59.6571 644.849 59.381 645.339 61.8667C643.379 60.7619 644.114 60.7619 642.399 61.3143H642.155L640.93 61.5905C639.46 62.1429 639.95 61.3143 639.46 62.6952C638.97 64.0762 638.97 62.1429 639.95 63.2476C642.644 66.0095 640.93 65.4571 644.359 65.4571C645.339 61.8667 647.299 64.3524 646.319 61.5905C647.789 62.1429 647.544 62.419 648.279 62.419C649.748 62.419 647.544 62.419 649.503 61.5905C651.218 62.1429 653.178 62.419 654.893 62.1429C655.382 64.3524 657.097 64.9048 659.792 64.9048V65.181L666.406 67.1143L669.345 63.5238C671.795 61.3143 676.204 63.8 678.654 63.8C677.674 65.4571 678.654 64.9048 676.204 64.9048V65.7333C679.634 66.0095 675.714 66.2857 679.144 67.3905C679.634 66.0095 678.899 67.6667 678.654 65.181L681.593 64.6286C681.593 66.8381 679.389 69.0476 686.493 69.8762C697.026 71.2571 692.127 68.4952 697.761 66.2857L698.986 66.0095C707.559 62.9714 702.66 64.9048 712.214 64.0762V65.7333C713.193 64.9048 713.193 64.6286 714.418 64.3524H715.398C715.643 64.3524 715.888 64.6286 716.133 64.6286L716.868 65.4571Z" fill="white"/>
<path d="M472.641 59.1048C470.681 59.1048 470.437 58.8286 468.232 58.5524C462.598 58.2762 469.212 57.7238 464.802 57.4476V58.5524C457.453 58.8286 465.047 57.1714 456.474 59.1048C455.004 59.381 453.534 59.9333 452.064 59.9333C450.105 59.9333 449.615 58.2762 448.145 60.7619C450.35 61.0381 449.86 61.5905 452.554 61.0381C454.024 61.0381 455.249 61.0381 456.474 60.7619V59.6571C458.188 60.2095 457.209 60.2095 458.678 60.7619H461.373C461.863 61.5905 461.373 61.5905 462.598 61.8667H465.292C465.292 61.5905 465.047 61.5905 465.292 59.6571L472.641 59.1048ZM926.065 77.0571C923.37 75.6762 920.186 75.9524 917.736 77.8857L916.267 78.9905C918.226 79.5429 920.186 79.819 922.146 80.0952C924.595 80.3714 925.33 78.9905 926.065 77.0571ZM250.951 77.0571C247.766 75.4 247.766 75.9524 244.092 77.3333L240.907 79.2667C242.867 79.819 244.827 80.0952 246.786 80.3714C249.481 80.3714 250.216 78.9905 250.951 77.0571ZM886.871 78.1619C885.891 74.019 884.422 78.9905 883.442 74.8476H881.482L881.727 77.0571C882.462 80.0952 884.667 77.6095 886.871 78.1619ZM212.002 78.1619C211.022 74.019 209.552 78.9905 208.573 74.8476H206.613C206.613 75.6762 206.368 78.7143 208.573 78.7143C210.777 78.7143 209.062 77.6095 212.002 78.1619ZM582.874 61.0381C580.669 61.0381 581.159 60.4857 579.444 60.4857C578.219 60.7619 576.75 60.7619 575.525 61.0381V62.1429C581.404 62.6952 581.404 63.5238 582.874 61.0381ZM836.164 67.1143C832.98 66.0095 837.879 67.1143 834.694 66.0095C834.204 67.3905 834.939 66.8381 833.714 67.1143H831.265V68.219C832.98 68.7714 834.449 68.7714 836.164 68.7714C836.654 67.3905 836.654 68.4952 836.164 67.1143ZM950.316 72.0857C949.091 71.2571 948.602 71.5333 946.397 71.5333C944.927 71.5333 945.417 71.8095 944.927 72.6381C946.152 73.1905 950.316 74.019 950.316 72.0857ZM275.447 72.0857C274.222 71.2571 273.732 71.5333 271.528 71.5333C270.058 71.5333 270.548 71.8095 270.058 72.6381C271.038 73.1905 274.957 74.019 275.447 72.0857ZM234.293 80.3714V79.819L230.374 79.2667C229.639 81.4762 230.619 80.0952 227.434 79.819V80.9238C230.374 80.9238 231.354 80.3714 234.293 80.3714ZM909.163 80.3714V79.819L905.243 79.2667C904.508 81.4762 905.488 80.0952 902.304 79.819V80.9238C905.488 80.9238 906.468 80.3714 909.163 80.3714ZM226.7 79.819H220.821C221.8 81.4762 220.821 80.9238 223.27 80.9238H226.7V79.819ZM901.814 79.819H895.935C896.915 81.4762 895.935 80.9238 898.384 80.9238H901.814V79.819ZM652.933 78.7143C654.648 81.4762 655.627 81.4762 658.322 83.1333C657.832 81.2 657.832 81.4762 656.117 80.6476C655.137 79.819 653.913 79.2667 652.933 78.7143ZM-21.9364 78.7143C-20.2217 81.4762 -19.2418 81.4762 -16.5472 83.1333C-17.0371 81.2 -17.0372 81.4762 -18.752 80.6476C-19.7318 79.819 -20.9565 79.2667 -21.9364 78.7143ZM432.467 56.3429V57.4476L431.978 58.5524C434.672 59.381 434.182 60.2095 435.407 57.4476C433.692 56.8952 433.937 56.619 432.467 56.3429ZM227.19 68.7714C224.985 68.219 224.495 67.3905 223.76 69.8762C224.74 70.1524 227.19 71.5333 227.19 68.7714ZM902.304 68.7714C900.099 68.219 899.364 67.3905 898.874 69.8762C899.854 70.1524 902.304 71.5333 902.304 68.7714ZM181.382 72.0857L176.483 71.5333V72.6381C179.177 72.6381 179.177 73.1905 181.382 73.1905V72.0857ZM190.445 75.4L190.69 75.6762L192.16 77.0571C193.385 77.8857 194.855 77.6095 195.834 76.781C194.12 75.9524 192.405 75.4 190.445 75.4ZM865.56 75.4L865.804 75.9524L867.764 77.0571C870.214 77.6095 870.459 76.5048 870.704 76.5048C869.234 75.9524 867.274 75.4 865.56 75.4ZM216.901 79.819C210.042 79.819 209.797 78.7143 207.593 80.9238L216.901 79.819ZM891.77 79.819C888.096 79.819 884.667 79.2667 883.197 80.0952C881.727 81.2 882.952 80.3714 882.462 80.9238L891.77 79.819ZM369.757 63.2476C366.818 63.2476 366.083 63.8 363.388 63.8V64.3524C365.838 64.3524 368.532 64.9048 369.757 63.2476ZM366.328 65.4571C364.123 65.4571 363.633 66.0095 360.939 66.0095V66.5619H366.328V65.4571ZM399.153 53.581C397.193 53.581 397.193 53.3048 395.723 54.1333C396.213 54.9619 395.723 55.2381 397.193 55.2381C398.663 55.2381 398.908 54.4095 399.153 53.581ZM407.481 62.6952C405.522 62.6952 406.257 62.1429 404.052 62.1429C402.582 62.1429 403.072 62.419 402.582 63.2476H407.481V62.6952ZM879.522 76.5048C878.542 76.2286 877.563 75.9524 876.583 75.9524C877.563 77.6095 877.318 77.6095 879.522 77.6095V76.5048ZM204.408 76.5048C203.428 76.2286 202.448 75.9524 201.469 75.9524C202.448 77.6095 202.203 77.6095 204.408 77.6095V76.5048ZM215.921 74.2952C214.942 74.019 213.717 74.5714 212.982 75.4C213.472 76.2286 213.227 75.9524 213.472 77.0571L215.921 74.2952ZM890.791 74.2952C889.811 74.019 888.586 74.5714 887.851 75.4C888.096 75.9524 888.341 76.5048 888.341 77.0571L890.791 74.2952ZM863.6 69.8762H859.68C860.17 70.1524 859.925 70.1524 860.415 70.7048C860.905 71.2571 863.355 71.2571 863.6 69.8762ZM188.486 69.8762H184.566C184.811 70.1524 184.566 70.1524 185.301 70.7048C186.036 71.2571 188.486 71.2571 188.486 69.8762ZM484.399 60.4857C481.215 60.4857 480.97 59.381 479.99 61.0381H484.399V60.4857ZM190.445 75.4L191.18 74.2952H187.996V75.4H190.445ZM865.56 75.4L866.049 74.2952H863.11V75.4H865.56ZM641.91 61.0381C639.46 61.0381 639.95 60.4857 638.97 62.1429H641.91V61.0381ZM0.845093 66.5619C-0.869629 66.8381 -0.869629 66.8381 -1.11462 68.7714C0.600098 68.219 0.355225 68.4952 0.845093 66.5619ZM675.714 66.5619C674 66.8381 674 66.8381 673.755 68.7714C675.469 68.219 675.224 68.4952 675.714 66.5619ZM220.821 76.5048C218.861 76.781 219.351 76.2286 218.861 78.1619H220.821V76.5048ZM895.935 76.5048C893.975 76.781 894.465 76.2286 893.975 78.1619H895.935V76.5048ZM843.023 69.8762C841.553 69.8762 842.043 70.1524 841.553 70.981H845.228C843.758 69.8762 844.248 69.8762 843.023 69.8762ZM168.154 69.8762C166.684 69.8762 167.174 70.1524 166.684 70.981H170.114C169.624 70.7048 169.869 70.7048 169.379 70.1524C168.889 69.6 170.114 69.8762 168.154 69.8762ZM139.003 66.5619L136.554 67.1143V69.3238L139.003 66.5619ZM813.873 66.5619L811.423 67.1143V69.3238L813.873 66.5619ZM-17.0371 64.9048C-18.262 63.2476 -18.262 63.2476 -19.9767 63.8L-18.9968 64.6286L-18.752 64.9048C-18.507 64.9048 -17.527 65.4571 -17.0371 64.9048ZM113.772 73.7429H111.813V74.8476L113.772 75.4V73.7429ZM814.363 75.9524L813.383 75.4C811.913 75.4 812.403 75.6762 811.913 76.5048C812.893 76.781 814.118 77.6095 814.363 75.9524ZM139.493 75.9524L138.513 75.4C137.044 75.4 137.534 75.6762 137.044 76.5048C137.779 76.781 139.248 77.6095 139.493 75.9524ZM902.304 75.9524H899.854V74.8476H902.304V75.9524ZM227.19 75.9524H224.74V74.8476H227.19V75.9524Z" fill="white"/>
<path d="M432.467 57.4476H427.568V56.8952H432.467V57.4476ZM854.046 72.6381H851.597V71.5333H854.046V72.6381ZM658.077 64.9048C657.097 63.2476 656.852 63.2476 655.137 63.8L655.382 64.0762L657.097 65.181C657.342 65.181 657.832 65.181 658.077 64.9048ZM348.446 66.5619L345.506 66.0095V67.1143H348.446V66.5619ZM786.437 66.5619C784.477 66.8381 784.967 66.2857 784.477 68.219H786.437C786.192 67.1143 785.947 67.6667 786.437 66.5619ZM205.878 78.1619C203.918 79.819 206.123 79.819 203.428 79.819V80.3714H205.878V78.1619ZM880.992 78.1619C879.032 79.819 881.237 79.819 878.542 79.819V80.3714H880.992V78.1619ZM460.148 61.5905L457.453 61.8667C456.719 62.1429 456.964 62.1429 456.719 62.6952C458.188 62.6952 459.903 62.9714 460.148 61.5905ZM282.551 67.6667H278.142V67.1143H282.551V67.6667ZM741.854 61.5905H738.914C739.159 61.8667 741.609 64.0762 741.854 61.5905ZM202.693 71.5333H200.244V72.6381C201.714 72.6381 202.693 72.9143 202.693 71.5333ZM878.053 71.5333H875.603V72.6381C876.828 72.6381 877.808 72.9143 878.053 71.5333ZM414.83 75.4H412.38C413.36 77.0571 412.381 76.5048 414.83 76.5048V75.4ZM706.579 57.4476C705.6 57.4476 705.845 57.1714 704.62 58.5524H707.559C707.314 58 707.314 57.4476 706.579 57.4476ZM31.4652 57.4476C30.2404 57.4476 30.7305 57.1714 29.5056 58.5524H32.4452C32.2002 58 32.2001 57.4476 31.4652 57.4476ZM111.323 66.5619C109.118 66.8381 110.343 66.0095 109.363 67.6667C109.853 67.9429 110.588 68.219 111.323 68.219C111.078 67.1143 110.833 67.6667 111.323 66.5619ZM877.073 80.3714H873.153V79.819H877.073V80.3714ZM201.958 80.3714H198.039V79.819H201.958V80.3714ZM830.285 74.8476H828.325V73.7429H830.285V74.8476ZM155.171 74.8476H153.211V73.7429H155.171V74.8476ZM856.496 73.1905H854.536V72.0857H856.496V73.1905ZM402.582 56.8952H400.622V55.7905H402.582V56.8952ZM177.462 74.8476H175.013C175.258 75.4 175.258 75.9524 175.993 75.9524C176.727 75.9524 177.462 75.6762 177.462 74.8476ZM66.7397 61.5905H64.2902C64.5352 62.1429 64.5352 62.6952 65.27 62.6952C66.0049 62.6952 66.4948 62.419 66.7397 61.5905ZM852.577 74.8476H850.127C850.372 75.4 850.617 75.9524 851.107 75.9524C851.597 75.9524 852.577 75.6762 852.577 74.8476ZM161.05 78.1619H158.6C158.845 78.4381 158.6 78.4381 159.335 78.9905C160.56 79.5429 159.58 79.2667 161.05 79.2667V78.1619ZM836.164 78.1619H833.714C834.204 78.4381 833.714 78.4381 834.449 78.9905C835.674 79.5429 834.694 79.2667 836.164 79.2667V78.1619ZM918.716 63.8H916.267C916.756 64.0762 916.267 64.0762 917.001 64.6286C918.226 64.9048 917.491 64.6286 918.716 64.9048V63.8ZM410.421 57.4476V58.5524H412.87C412.625 58.2762 412.87 58.2762 412.136 57.7238C410.911 57.1714 411.891 57.4476 410.421 57.4476ZM786.927 73.7429C787.417 75.1238 786.927 74.8476 788.886 75.4C787.907 72.9143 789.376 74.019 786.927 73.7429ZM637.745 61.0381H634.316V60.4857H637.745V61.0381ZM455.739 62.6952H452.309V62.1429H455.739V62.6952ZM243.602 63.8H241.152V64.3524C241.887 64.3524 242.867 64.6286 243.602 64.9048V63.8ZM745.283 66.5619H743.324V67.6667C744.549 67.3905 745.038 67.6667 745.283 66.5619ZM266.138 85.8952C263.934 86.1714 265.159 85.3429 264.179 87H266.138V85.8952ZM941.253 85.8952C939.048 86.1714 940.518 85.3429 939.293 87H941.253V85.8952ZM114.997 73.7429V74.8476H116.957C115.977 73.1905 117.447 74.019 114.997 73.7429ZM790.111 73.7429V74.8476H792.071C790.846 73.1905 792.316 74.019 790.111 73.7429ZM333.503 74.2952H332.033C332.523 75.9524 331.298 74.5714 333.503 75.9524V74.2952ZM68.4545 67.6667C70.6592 67.3905 69.4343 68.219 70.4142 66.5619C67.4746 66.5619 68.9443 66.2857 68.4545 67.6667ZM847.677 71.5333H846.208V70.4286H847.677V71.5333ZM78.2529 76.5048H76.7831V75.4H78.2529V76.5048ZM172.563 71.5333H171.093V70.4286H172.563V71.5333ZM408.461 58H405.522V57.4476H408.461V58ZM794.031 67.1143C792.316 66.8381 792.561 66.0095 792.071 68.219L793.051 67.6667C794.031 67.1143 793.296 67.6667 794.031 67.1143ZM119.161 67.1143C117.447 66.8381 117.692 66.0095 117.202 68.219C117.447 68.219 118.182 67.9429 118.182 67.6667C119.161 67.1143 118.427 67.6667 119.161 67.1143ZM818.772 73.1905C819.752 74.8476 818.527 74.019 820.732 74.2952C819.507 72.6381 820.977 73.4667 818.772 73.1905ZM393.519 69.8762C394.743 71.5333 393.273 70.7048 395.478 70.981C394.498 69.3238 395.723 70.1524 393.519 69.8762ZM143.903 73.1905C145.128 74.8476 143.658 74.019 145.862 74.2952C144.637 72.6381 146.107 73.4667 143.903 73.1905ZM903.284 69.3238H905.243C904.263 67.6667 904.263 67.6667 903.284 69.3238ZM228.169 69.3238H230.129C229.149 67.6667 229.149 67.6667 228.169 69.3238ZM115.977 66.0095C115.242 66.0095 115.487 65.7333 114.752 66.2857C113.037 67.1143 114.017 66.5619 113.527 67.1143C114.997 66.8381 115.487 66.8381 115.977 66.0095ZM450.35 59.1048H447.9V58.5524H450.35V59.1048ZM744.304 63.2476H742.834V64.3524C743.569 64.0762 744.059 64.0762 744.304 63.2476ZM69.4343 63.2476H67.9646V64.3524C68.6995 64.0762 69.1893 64.0762 69.4343 63.2476ZM753.367 75.4H751.897V76.5048C752.877 76.2286 753.122 76.5048 753.367 75.4ZM421.444 62.6952C421.934 64.3524 421.444 63.8 422.914 64.3524C421.934 62.1429 423.159 63.2476 421.444 62.6952ZM475.091 59.6571V61.0381H477.05C476.561 60.7619 477.295 61.0381 476.071 60.4857L475.091 59.6571ZM858.946 72.6381C857.476 72.9143 858.211 72.6381 857.476 73.7429H858.946V72.6381ZM472.641 60.4857C471.171 60.7619 471.906 60.4857 471.171 61.5905H472.641V60.4857ZM183.831 72.6381C182.362 72.9143 183.096 72.6381 182.362 73.7429H183.831V72.6381ZM689.677 56.8952H688.207C688.942 58 688.207 57.7238 689.677 58V56.8952ZM14.5629 56.8952H13.0931C13.828 58 13.0931 57.7238 14.5629 58V56.8952ZM790.601 66.0095C789.621 66.2857 790.601 65.7333 789.376 66.2857L788.642 67.1143C789.621 66.8381 790.356 67.1143 790.601 66.0095ZM48.6125 63.8C47.6327 64.0762 48.6125 63.5238 47.3877 64.0762C46.6528 64.3524 46.8978 64.3524 46.6528 64.9048C47.6327 64.6286 48.3676 64.9048 48.6125 63.8ZM723.482 63.8C722.502 64.0762 723.482 63.5238 722.257 64.0762L721.522 64.9048C722.502 64.6286 723.237 64.9048 723.482 63.8ZM978.732 85.3429H976.772V84.7905H978.732V85.3429ZM277.407 63.8H275.447V63.2476H277.407V63.8ZM303.863 85.3429H301.903V84.7905H303.863V85.3429ZM952.521 63.8H950.561V63.2476H952.521V63.8ZM385.19 63.2476H383.23V62.6952H385.19V63.2476ZM193.63 78.1619H191.67V77.6095H193.63V78.1619ZM155.171 64.9048H153.211V64.3524H155.171V64.9048ZM830.285 64.9048H828.325V64.3524H830.285V64.9048ZM868.744 78.1619H866.784V77.6095H868.744V78.1619ZM398.173 61.5905H396.213V61.0381H398.173V61.5905ZM666.406 68.7714C664.936 70.1524 665.671 68.4952 665.426 70.981C665.671 70.7048 665.671 70.981 666.161 70.1524C666.651 68.7714 666.161 69.6 666.406 68.7714ZM-8.7085 68.7714C-10.1782 70.1524 -9.44324 68.4952 -9.68823 70.981C-9.44324 70.7048 -9.44336 70.981 -8.95349 70.1524C-8.46362 68.7714 -8.95349 69.6 -8.7085 68.7714ZM68.4545 67.6667C66.9847 67.9429 67.7195 67.6667 66.9846 68.7714C69.4342 68.4952 67.7196 69.3238 68.4545 67.6667Z" fill="white"/>
<path d="M477.05 61.0381C477.295 61.0381 476.561 62.1429 478.03 61.3143C479.5 60.4857 478.03 61.8667 478.52 60.4857C477.295 60.7619 478.275 60.4857 477.05 61.0381ZM741.854 68.7714H743.324C742.099 67.1143 742.834 67.1143 741.854 68.7714ZM66.2498 67.1143H67.7196C66.4948 65.4571 67.4746 65.4571 66.2498 67.1143ZM741.364 67.1143H742.834C741.609 65.4571 742.344 65.4571 741.364 67.1143ZM179.912 67.1143L178.932 68.219C181.627 68.219 179.667 68.219 180.402 67.6667L179.912 67.1143ZM855.026 67.1143L854.046 67.9429C856.741 67.9429 854.781 67.9429 855.516 67.3905L855.026 67.1143ZM914.062 75.4C912.592 75.6762 913.327 75.4 912.592 76.5048C913.572 76.2286 914.062 76.5048 914.062 75.4ZM155.661 68.219C154.191 68.4952 154.926 68.219 154.191 69.3238C155.171 69.0476 155.416 69.3238 155.661 68.219ZM830.775 68.219C829.305 68.4952 830.04 68.219 829.305 69.3238C830.285 69.0476 830.53 69.3238 830.775 68.219ZM239.193 75.4C237.723 75.6762 238.458 75.4 237.723 76.5048C238.703 76.2286 239.193 76.5048 239.193 75.4ZM403.072 54.1333H401.602V53.581H403.072V54.1333ZM867.029 80.3714H865.56V79.819H867.029V80.3714ZM428.058 62.1429H426.588V61.5905H428.058V62.1429ZM786.437 66.0095H784.967V65.4571H786.437V66.0095ZM965.014 72.6381H963.544V72.0857H965.014V72.6381ZM289.9 72.6381H288.43V72.0857H289.9V72.6381ZM192.16 80.3714H190.69V79.819H192.16V80.3714ZM111.323 66.0095H109.853V65.4571H111.323V66.0095ZM694.086 57.4476H692.617V56.8952H694.086V57.4476ZM224.74 77.6095H223.27V77.0571H224.74V77.6095ZM899.854 77.6095H898.384V77.0571H899.854V77.6095ZM18.9723 57.4476H17.5024V56.8952H18.9723V57.4476ZM-12.6278 86.4476H-14.0975V85.8952H-12.6278V86.4476ZM373.187 64.9048H371.717V64.3524H373.187V64.9048ZM662.486 86.4476H661.017V85.8952H662.486V86.4476ZM817.792 68.219H816.322V67.6667H817.792V68.219ZM585.323 61.5905H583.854V61.0381H585.323V61.5905ZM142.923 68.219H141.453V67.6667H142.923V68.219ZM269.078 60.4857L270.548 61.5905C270.058 59.9333 271.528 60.4857 269.078 60.4857ZM-28.5504 73.1905C-28.0605 74.8476 -29.5302 74.019 -27.0806 74.2952C-27.0806 74.2952 -27.3256 74.2952 -27.3256 74.019C-27.3256 73.7429 -27.5704 73.7429 -27.5704 73.7429C-27.5704 73.7429 -28.3054 73.4667 -28.5504 73.1905ZM536.086 73.7429C536.821 74.8476 536.086 74.5714 537.556 74.8476C536.821 73.4667 537.556 74.2952 536.086 73.7429ZM646.564 73.1905C647.054 74.8476 645.584 74.019 648.034 74.2952C648.034 74.2952 647.789 74.2952 647.789 74.019L646.564 73.1905ZM232.824 74.8476C232.824 74.2952 231.844 73.7429 232.089 74.8476C232.089 75.1238 233.069 76.2286 232.824 74.8476ZM907.693 74.8476C907.693 74.2952 906.713 73.7429 906.958 74.8476C907.203 75.1238 907.938 76.2286 907.693 74.8476ZM161.05 68.7714C161.295 70.1524 160.805 69.6 162.03 69.8762C162.03 68.4952 162.52 69.3238 161.05 68.7714ZM836.164 68.7714C836.409 70.1524 835.919 69.6 837.144 69.8762C836.899 68.4952 837.389 69.3238 836.164 68.7714ZM773.454 65.4571C772.964 64.9048 771.739 66.2857 772.964 65.7333C772.964 65.7333 774.679 66.2857 773.454 65.4571ZM419.729 60.4857C419.24 59.9333 418.015 61.3143 419.24 60.7619C419.24 60.7619 420.954 61.3143 419.729 60.4857ZM469.212 60.4857C468.722 59.9333 467.497 61.3143 468.722 60.7619C468.722 60.7619 470.192 61.3143 469.212 60.4857ZM58.901 65.4571C58.4111 64.9048 57.1862 66.2857 58.411 65.7333C58.166 65.7333 59.6359 66.2857 58.901 65.4571ZM713.438 66.5619C712.948 66.0095 711.724 67.3905 712.948 66.8381C712.948 66.8381 714.418 67.3905 713.438 66.5619ZM809.463 64.9048C808.973 64.3524 807.749 65.7333 808.973 65.181C808.728 65.181 810.198 65.7333 809.463 64.9048ZM947.622 69.8762C947.132 69.3238 945.907 70.7048 947.132 70.1524C946.887 70.1524 948.357 70.7048 947.622 69.8762ZM431.977 63.2476C431.488 62.6952 430.263 64.0762 431.488 63.5238C431.243 63.5238 432.712 64.0762 431.977 63.2476ZM134.349 64.9048C133.859 64.3524 132.634 65.7333 133.859 65.181C133.614 65.181 135.084 65.7333 134.349 64.9048ZM38.3242 66.5619C37.8344 66.0095 36.6094 67.3905 37.8342 66.8381C37.8342 66.8381 39.3041 67.3905 38.3242 66.5619ZM242.132 68.219C241.642 67.6667 240.417 69.0476 241.642 68.4952C241.642 68.4952 243.112 69.0476 242.132 68.219ZM917.246 68.219C916.757 67.6667 915.532 69.0476 916.756 68.4952C916.756 68.4952 918.226 69.0476 917.246 68.219ZM148.802 69.8762C148.312 69.3238 147.087 70.7048 148.312 70.1524C148.312 70.1524 149.537 70.7048 148.802 69.8762ZM402.582 63.8C402.092 63.2476 400.867 64.6286 402.092 64.0762C402.092 64.0762 403.317 64.6286 402.582 63.8ZM802.604 65.4571C802.115 64.9048 800.645 66.2857 801.87 65.7333C801.87 65.7333 803.339 66.2857 802.604 65.4571ZM98.5847 65.4571C98.0948 64.9048 96.87 66.2857 98.0948 65.7333C98.0948 65.7333 99.5646 66.2857 98.5847 65.4571ZM423.649 56.8952C423.159 56.3429 421.934 57.7238 423.159 57.1714C422.914 57.1714 424.384 57.7238 423.649 56.8952ZM734.015 65.4571C733.525 64.9048 732.3 66.2857 733.525 65.7333C733.28 65.7333 734.75 66.2857 734.015 65.4571ZM127.49 65.4571C127 64.9048 125.775 66.2857 127 65.7333C126.755 65.7333 128.225 66.2857 127.49 65.4571ZM362.408 63.8C361.918 63.2476 360.694 64.6286 361.918 64.0762C361.918 64.0762 363.143 64.6286 362.408 63.8ZM487.829 59.6571C487.339 59.1048 486.114 60.4857 487.339 59.9333C487.339 59.9333 488.809 60.7619 487.829 59.6571ZM823.916 69.8762C823.426 69.3238 822.201 70.7048 823.426 70.1524C823.426 70.1524 824.651 70.7048 823.916 69.8762ZM272.507 69.8762C272.018 69.3238 270.793 70.7048 272.018 70.1524C271.773 70.1524 273.242 70.7048 272.507 69.8762ZM338.402 66.5619C337.912 66.0095 336.687 67.3905 337.912 66.8381C337.912 66.8381 339.382 67.3905 338.402 66.5619ZM399.153 62.6952C398.663 62.1429 397.438 63.5238 398.663 62.9714C398.663 62.9714 400.132 63.5238 399.153 62.6952ZM50.0823 64.3524C49.5924 63.8 48.3676 65.181 49.5924 64.6286C49.3474 64.6286 50.8171 65.181 50.0823 64.3524ZM402.582 52.4762C402.092 51.9238 400.867 53.3048 402.092 52.7524C402.092 52.7524 403.317 53.3048 402.582 52.4762ZM325.909 64.3524C325.419 63.8 324.194 65.181 325.419 64.6286C325.419 64.6286 327.134 65.181 325.909 64.3524ZM724.952 64.3524C724.462 63.8 723.237 65.181 724.462 64.6286C724.217 64.6286 725.686 65.181 724.952 64.3524ZM342.077 65.4571C342.077 64.9048 341.097 64.0762 341.342 65.4571C341.587 66.8381 340.117 65.4571 341.587 65.7333C342.077 65.7333 342.077 66.5619 342.077 65.4571ZM54.2467 68.219C54.2467 67.6667 53.2667 66.8381 53.5117 68.219C53.7567 69.6 52.287 68.219 53.7567 68.4952C54.4916 68.4952 54.2467 69.3238 54.2467 68.219ZM729.606 68.219C729.606 67.6667 728.626 66.8381 728.871 68.219C729.116 69.6 727.646 68.219 729.116 68.4952C729.606 68.4952 729.606 69.3238 729.606 68.219ZM953.991 63.2476C953.991 62.6952 953.011 61.8667 953.256 63.2476C953.501 64.6286 952.031 63.2476 953.501 63.5238C953.991 63.5238 953.991 64.3524 953.991 63.2476ZM198.529 66.0095C198.529 65.7333 198.039 66.0095 198.039 66.0095C198.039 66.0095 197.059 64.6286 197.794 66.0095C197.549 66.0095 198.529 67.1143 198.529 66.0095ZM210.042 66.5619C210.042 66.2857 209.552 66.5619 209.552 66.5619C209.552 66.5619 208.573 65.181 209.307 66.5619C209.307 66.5619 210.042 67.6667 210.042 66.5619ZM83.1521 64.3524L82.6622 65.4571C83.3971 65.181 83.1521 65.7333 83.3971 65.181C83.6421 64.6286 83.3971 65.181 83.1521 64.3524ZM758.266 64.3524L757.776 65.4571C758.511 65.181 758.266 65.7333 758.511 65.181C758.511 64.3524 758.756 65.181 758.266 64.3524ZM533.637 69.8762C533.637 69.6 533.147 69.8762 533.147 69.8762C533.147 69.8762 532.167 68.4952 532.902 70.1524C533.636 70.1524 533.637 70.7048 533.637 69.8762ZM503.996 65.4571C503.996 65.181 503.506 65.4571 503.506 65.4571C503.506 65.4571 502.526 64.0762 503.261 65.4571H503.506C503.751 65.4571 503.996 66.5619 503.996 65.4571ZM873.643 66.0095C873.643 65.7333 873.153 66.0095 873.153 66.0095C873.153 66.0095 872.418 64.6286 872.908 66.0095H873.153C873.398 66.0095 873.643 67.1143 873.643 66.0095ZM884.911 66.5619C884.911 66.2857 884.422 66.5619 884.422 66.5619C884.422 66.5619 883.687 65.181 884.177 66.5619H884.422C884.667 66.5619 884.911 67.6667 884.911 66.5619ZM819.752 64.9048H819.262L819.752 65.4571V64.9048ZM144.882 64.9048H144.393L144.882 65.4571V64.9048ZM432.467 56.3429V55.7905L431.733 56.0667L432.467 56.3429ZM868.744 80.3714C869.234 78.9905 868.009 80.0952 868.744 80.3714C868.254 80.3714 868.254 80.3714 868.744 80.3714ZM340.852 66.5619C341.097 66.5619 340.852 66.8381 340.852 66.5619V66.5619ZM340.852 68.219C341.097 68.219 340.852 68.4952 340.852 68.219V68.219Z" fill="white"/>
</svg>
