<?xml version="1.0" encoding="utf-8"?>
<!-- Generator: Adobe Illustrator 21.0.0, SVG Export Plug-In . SVG Version: 6.00 Build 0)  -->
<svg version="1.1" id="Слой_1" xmlns="http://www.w3.org/2000/svg" xmlns:xlink="http://www.w3.org/1999/xlink" x="0px" y="0px"
	 viewBox="0 0 412.5 105" style="enable-background:new 0 0 412.5 105;" xml:space="preserve" preserveAspectRatio="xMidYMin">
<style type="text/css">
	.st0{fill:#FFFFFF;}
</style>
<title>Монтажная область 3</title>
<path class="st0" d="M304.2,97.7c0.3,0.3,0.6,0.6,1,0.8c-0.3-1.6-0.1,0.6,0.4-1.6c2.4-0.2-0.4-0.3,2,0.2c0.3,0,0.7,0,1,0v0.1
	c0.2,0.6-0.1,0.3,0.4,0.6l0.3-0.8c0.5,0,1,0.1,1.4,0.2c1.6,0,0-1,4-1.4c0,0.7-0.4,0.6,1.8,1.2c-0.1,0.4-0.1,0.2-0.3,0.5
	c-0.4,0.7,0-0.4-0.3,0.5c0.7,0.1,1.4,0.3,2.1,0.5c1.7,0.4,0-0.1,1.9-0.1c0-0.3-0.1-0.7-0.2-1c0.4,0,0.8-0.1,1.2-0.2l0.7-0.4
	c0.2,0.7,0.2,0.5-0.2,1c1.3,0,0.6-0.4,1.1-0.9l0.2-0.2l0.1-0.1h0.1c0.5-0.1,1-0.1,1.6-0.1c1.4,0.2-0.1,0.2,1.2,0.6l1.4-0.4
	c0,0.6,0,0.4,0.2,0.8c0.7-0.5,0.4-0.3,1.1-0.3c0.6,0,1.1,0,1.7,0.1c-0.2,0.2-0.4,0.3-0.6,0.4l0.3,0.1c0.2,0.1,0.4,0.1,0.6,0.1
	c0.2-0.7,0.3-0.7,1-0.8l1.2-0.2c0.2,0,1,0.1,1,0.1h0.1l0.4,0.1h0.1l2.8,0.1c-0.3,1-0.3,0.2-0.6,1.2c1.8-1,1.3-1.3,2-1.4
	c0.7-0.1,0.6,0.1,0.8,0.4c-0.3,0.5-0.2,0.5-1,0.6v0.6c0.7,0.1,0.4,0.3,0.9-0.1c1-0.6,0.5-1.4,3.1-1.5c0.1,0.4-0.1,0.2,0.2,0.4h0.6
	c1.5,0.4,1.3,0.1,2,0.6c0.4-0.8-0.1-0.5,0.6-1c0.2,0.1,0.4,0.2,0.6,0.4c0.3,0.2,0.2,0.1,0.6,0.2c0.2-0.8,0.1-0.6,1-0.6v0.4
	c0.1,0,0.3,0,0.4,0c0.4-0.1,0.2-0.1,0.4-0.2c1-0.1,1.7-0.9,2.1,0c0.5,0.9,0-0.2,0.1,0.2c0.2,1.1-0.4-0.5,0,0.3
	c0.5-0.3,0.2-0.2,1-0.2c0.2-0.5,0.1-0.2,0-0.8c0.6,0.1,0.2,0,0.4,0.1c0.4,0.3,0.6,0.8,0.6,1.3l1.2,0.3c0.4,0.2-0.2,0.1,0.3,0
	s-0.3,0,0.4-0.1c1.3-0.2,0.7,0.5,2.7-0.5l-0.5-0.7L357,97c1.4,0.1,2.8,0.3,4.2,0.6c-0.2,0.1,0,0.1-0.4,0.2c-0.2,0-0.4,0-0.6,0
	l0.4,0.4l0.2,0.2c1.1,0.5,2-0.2,3-0.2c1.5,0.1-0.4,0.4,1.3,0.4c0.6,0,0.9-0.3,1.6-0.4c0.1,0.5,0.3,0.5,0.6,0.8
	c-0.5-0.1-0.9-0.2-1.4-0.2v0.4c0.5,0,1.1,0.1,1.6,0.2c0-1.5-0.3-1-0.6-2c0.9,0,3.3-0.5,4.5-0.3c1.7,0.4,0.2-0.4,1.8,0
	c1.3,0.3,1,0,2.4,0.1c1.4,0.1,1.5,0.6,3.2,0.6c0.3-0.8-0.2,0,0.2-0.8c0.4,0.1,0.9,0,1.3-0.1c1.2-0.5,2.5-0.8,3.8-0.7
	c-0.1,0.2-0.8,1,0.5,0.7l2-0.5c0.1,0.2,0.2,0.3,0.3,0.5L387,97l0.1,0.1l0.1,0.1l1.2,0.3c0.6,0,0.2,0,0.8-0.2
	c0.2,0.6-0.1,0.1,0.4,0.6c0.4-0.1,0.2,0.1,0.4-0.5v-0.1l4.1,0.3c0,0,0.7-0.1,0.9-0.1c0.1-0.3,0.2,0.1,0-0.3c-0.2-0.4,0,0-0.2-0.4
	c1,0,0.6,0.2,1-0.4c-0.7-0.2-0.5-0.1-0.8-0.6c1,0,1.4-0.2,2.6-0.2h2.8l0.2-0.8c0.8,0.2,1.2,0,1.6,0.6c-1.7,0-0.9,0.4-2.6,0.4
	l1.7,0.2c0.4,0.7,0.8,0.5,2.3,0c0.7-0.2,0.2-0.2,1.1-0.3l5.3,0.4c-0.3,0.4-0.2,0.2-0.4,0.8c-1.4,0-1.4,0.3-1.2-0.6h-1.8
	c-0.4,1.1-0.7,0.1-1.4,1c1.8,0.1,3.6,0.2,5.4,0.1h3.4c0.9-0.1,1.8,0,2.7,0.1c-0.3-0.6,0-0.5,0-1.6l-4-0.2l0.7-0.4
	c0.5-0.4,0.1,0.1,0.1-0.2V95c1.1-0.1,2.1-0.2,3.2-0.2V-0.5l-418.8,0v95.1c0.3-0.2,0.7-0.2,1,0c0.6,0.3,0.4,0.3,0,0.8
	c1.1,0,1.4-0.1,1.6,0.8c-1.4-0.8-0.6,0-2.4,0v0.6c1.6,0.2-0.6,0.8,2,0.8c0.5-1.3,1.2-0.4,0.8-1.4c0.6,0.2,0.5,0.3,0.7,0.3
	c0.6,0-0.3,0,0.5-0.3c0.7,0.2,1.5,0.3,2.2,0.2c0.3,1.1,1.6,0.5,3,1.2c0.2,0.6-0.1,0.1,0.4,0.6c0.5-0.1,0.3,0,0.7-0.5l0.2-0.1
	l0.6-0.7c1.2-0.9,2.9,0.4,4-0.1c-0.2,0.6-0.4,0.6-1.2,0.6v0.5c1.4,0.1-0.2,0.2,1.2,0.6c0.2-0.5-0.1,0.1-0.2-0.8l1.2-0.2
	c-0.1,1.4-0.6,1.3,1.3,1.8h0.1l2.5,0.4c0,0,0.9-0.2,1-0.3l0.7-0.5l0.7-0.6c1.3-0.7,2.8-1,4.3-0.9c0.6,0,1.3,0,1.9-0.1v0.5
	c0.4-0.3,0.4-0.4,0.9-0.5c0.5-0.1,0.6,0.2,0.9,0.3c0.7,0.6,0.1,0.3,1.1,0.4c0.6-0.5,0.3-0.1,0.6-1.2c2.4-0.2-0.5-0.3,2,0.2
	c0.3,0,0.7,0,1,0c0.2,0.4-0.1,0.4,0.4,0.8l0.2-0.8c2.1,0,1.4,0.7,2.6-0.4c0.8-0.5,1.8-0.8,2.8-0.8c0,0.7-0.5,0.6,1.8,1.2
	c-0.2,0.7-0.3,0.3-0.6,1c0.7,0.1,1.4,0.3,2.1,0.5c1.7,0.4,0-0.1,1.9-0.1c0-0.3-0.1-0.7-0.2-1c0.4,0,0.8-0.1,1.2-0.2v-0.4
	c1.1,0.1,0.8,0.4,0.4,1c0.4,0,0.4,0.1,0.7-0.1c0.3-0.2,0.1-0.2,0.2-0.4c0.1-0.2,0-0.3,0.5-0.6c1.5-0.8,3,0.4,3,0.4l1.4-0.4
	c0,0.6,0,0.4,0.2,0.8l0.8-0.3h0.1c0.7-0.1,1.4,0,2,0.1c-0.2,0.2-0.4,0.3-0.6,0.4l0.1,0.1l0.1,0.1c0.2,0.1,0.4,0.1,0.5,0.1
	c0.3-1.1,0.7-0.6,1.7-0.8l4.1,0.3c0.6,0.1-0.6,0,0.2,0c0.1,0,0.2,0,0.3,0c0.3-0.1-0.1,0,0.5-0.2c-0.3,1-0.3,0.2-0.6,1.2
	c0.5-0.2,1-0.6,1.4-1s0.1-0.3,0.6-0.4c0.6-0.1,0.6,0.1,0.9,0.4c-0.4,0.5-0.2,0.5-1,0.6v0.4c2,0.4,0.2-1.5,3.8-1.6
	c0.1,0.3,0,0.3,0.3,0.5h0.3l0.7,0.1h0.1c1,0.1,0.5-0.1,1.2,0.4c0.4-0.8-0.1-0.5,0.6-1c0.2,0.1,0.4,0.2,0.6,0.4
	c0.3,0.2,0.2,0.1,0.6,0.2c0.2-0.8,0.1-0.6,1-0.6l0.8,0.2c1-0.1,1.6-0.9,2.1,0s0-0.2,0.1,0.2c0.3,1.1-0.3-0.5,0,0.3
	c0.5-0.3,0.2-0.2,1-0.2c0.2-0.5,0.1-0.2,0-0.8c1,0.1,0-0.5,1,1c-0.5,0-0.3,0.1-0.5,0.1l-0.3,0.1c-1.4,0.4-0.7-0.2-1.3,0.5
	c0.7,0.2,1.3,0.2,2,0.2c0.2-0.5,0.2-0.1,0-0.6h0.7h0.1l0.4,0.2c0.4,0.2-0.2,0,0.7-0.1c1.3-0.2,0.7,0.5,2.7-0.5
	C81.5,97,81.3,97,81,96.7c1.4,0.1,2.8,0.3,4.2,0.6c-0.2,0.1,0,0.1-0.4,0.2c-0.2,0-0.4,0-0.6,0l0.4,0.4l0.2,0.2c1.1,0.5,2-0.2,3-0.2
	c1.5,0.1-0.4,0.4,1.4,0.4c0.6,0,0.9-0.3,1.6-0.4l0.6,0.8c-0.5-0.1-0.9-0.2-1.4-0.2V99c0.5,0,1.1,0.1,1.6,0.2c0-1.5-0.3-1-0.6-2
	c0.5,0,1.1,0,1.6-0.2c1.1-0.2,2.3-0.2,3.4,0c0.9,0,0-0.1,0.7-0.2c0.4,0,0.3,0,0.6,0.1c1.3,0.3,1,0,2.4,0.1s1.5,0.6,3.2,0.6
	c0.4-0.8-0.1,0,0.2-0.8c0.4,0.1,0.9,0,1.3-0.1l0.4-0.2l0.3,0.3c1.1-0.4,2.2-0.5,3.3-0.5c-0.1,0.6-0.2,0.3,0,0.8
	c0.9-0.1,0.5-0.4,1.1-0.4l1.1-0.2c0.2,0.4,0.5,0.6,0.9,0.7l0.1,0.1c0.9,0.4,0.7,0.2,1.6,0c0.3,0.6-0.1,0.1,0.4,0.6
	c0.6-0.2,0,0.1,0.3-0.2l0.1-0.4l0.7-0.1l1.7,0.1v0.5c0,0,0,0,0,0.1h0.8c0,0,0,0,0-0.1c0-0.1,0-0.1,0.1-0.2c0-0.2-0.1,0,0.1-0.3
	c1,0.7,0.2,0.2,1.6,0.2c0.1-0.3,0.2,0.1,0-0.3s0,0-0.2-0.4c0.8,0,0.5,0.1,1-0.2c-0.5-0.6-0.3-0.2-0.8-0.8c1.1,0.2,2.7-0.6,4.3-0.1
	l1.5,0.3c-0.1,0.7,0,0.1-0.1,0.5s0-0.2-0.3,0.5c0.7,0.1,0.6,0,1,0.4c-1.1,0-5-0.4-5.9,0.4l11.9-0.3c0.8-0.1,1.8,0,2.6,0
	c0.3,0,0.8-0.1,1-0.1l3.4,0.1l-0.1,0.1l-0.5,0.5c0.9,0.1,1.7,0.1,2.6,0c0.9-0.2,1.9-0.3,2.8-0.2c-0.2-0.5-0.2-0.1,0-0.6
	c-1.4,0.3-2.8,0.5-4.2,0.4h-0.2l0,0c0-0.3,0.9-0.8,1.2-0.9l2.5-0.7c0.6-0.1,1.2-0.1,1.8,0c0.1-0.5,0.2,0.3-0.1-0.2
	c-0.3-0.5-0.2,0.2-0.1-0.2c0.6-0.3,0.4-0.2,1.2-0.2c0.1,0.1,0.1,0.2,0.1,0.3v0.1V96v0.1c0.8-0.2,0.3-0.3,1-0.3
	c0.3,0,0.8,0.2,1.3,0.3c1.2,0.2,0.5-0.1,1.6-0.2c0.3,0,0.5,0,0.8,0v1c0.9-0.6,0.8-1,2.8-1.2c0.1,0.7,0.1,0.7,0.8,0.8
	c-0.2-0.8-1.1-1.2,1.2-1.4c0.4,0.6,0.6,0.5,0.8,1.4h-1.6c0.2,0.9,0.8,0.8,1.5,0.5h0.1c0.3-0.1,0.6-0.1,0.9-0.1
	c-0.5-1-0.2-0.8-0.2-2.2c1.3,0,2.4-1.1,3.3-0.3l0.3,0.7c1.3,0.1,2.6,0,3.8-0.2c-0.2,0.8-0.4,0.6-0.8,1.2c0.9,0.2,1.4,0.3,1.4-1
	c1-0.1,0.5-0.2,1.5-0.1c0.6,0.1,1.4,0.5,2,0.3c1-0.3-0.4,0.1,0.3-0.1c0.1,0,0.2-0.1,0.4-0.2c0.5-0.2,1-0.3,1.5-0.4
	c0,0-0.1,0-0.1-0.1c-0.1-0.3,0,0.1-0.3-0.1c-0.3-0.2-0.2,0.1-0.4-0.4c0.4-0.2,0.7-0.4,1.1-0.5c1.2-0.3,1,0.3,1.1-0.7l3.6-0.2
	c1.4,0.3,0.6,0.3,0.7,0.5c0.3,0.5,0,0.4,0.3,1.1c1.6-1,0.6-0.3,2.6-0.2s1.2,0.2,1.1,0.4l-0.1,0.1l-0.3,0.7c1.4-0.1-0.2-0.1,0.6-0.3
	l0.7,0.2c0.2,0,0.5,0,0.8,0l0.2-0.1c0.4-0.1-0.5-0.1,0.6-0.2l-0.7-0.3l-0.1-0.1c1-0.1,0.5-0.2,1.7-0.1c2.1,0.2,1.4-0.7,5,0.1
	c0.4,0.2,0.9,0.2,1.4,0.2c0.9,0.1,0.6,0.2,1.4,0.4c-0.1,1.1-0.6,1-1.4,1.2c-0.9,0.3-1.9,0.5-2.8,0.4c0.2,0.1,0,0.1,0.5,0.2
	c0.5,0.1,0.1,0,0.6,0c1.5-0.1,3,0.1,3.8-0.4s-0.2-0.1,0.7-0.3v-0.8h-0.8c0.4-0.6,0-0.1,0.4-0.3c1.3-0.5,6.1-0.3,7.7-0.3V94
	c1.1,0,2.2-0.2,3.2-0.4c-0.4,1.4-0.8,0-2.2,1c0.5,0,1,0,1.5,0.1c0.5,0.1,0.5-0.1,0.7,0.5c0.5,0.3,0.5,0.5,1,0.2
	c0.1-0.4,0-0.3,0.2-0.6l0.9,0.1c1.8,0.4,0.8-0.8,4.4,0.4c0.7,0.2-0.1,0.1,0.7,0.3l0.6-0.4c0.4,0.3,0.3,0.4,1,0.4
	c0.5,0,0.5-0.1,1.2-0.2c1.8-0.1,1.5,0,2.4,0.6c-0.2-1-0.1-0.3,0-0.6l3.7-0.1c1.4,0-0.3,0.4,1.1,0.2s0.2-1,1.9-0.2
	c1.5,0.7,0.4-0.3,2.2-0.4c0,1.5-1.1,1.3-1.2,2.6c0.4-0.1,2.6-1.8,2.8-2.4c1.6,0,0.3,0.2,1.9-0.1c0.9-0.2,0.8,0.2,1.5,0.7
	c0.6-0.5,1.2-0.9,1.9-1.1c1.4-0.3,2,0.5,2.1-0.9c1,0.4-0.2,0.1,0.8,0.4c0.4-0.9-0.1-0.8,1.2-0.8c-0.3,0.4-0.8,1-0.1,1.6
	c0.3,0.3,0.5,0.3,0.7,0.1c0.4-0.4,0.1,0.1,0.1-0.3l-0.2-0.4c0.9,0.2,1.1,0.8,1.7,0.9c0.8,0.1,1.7,0,2.5-0.1v0.1v0.1
	c0,0.3-0.2-0.3,0,0.3c0.1,0.2,0,0.3,0.7,0.4c0.3-0.6,0.1-0.7,0.3-1.3c0.1-0.4,0.4-0.5,0.7-0.9c0.4,0.4,1,0.6,1.6,0.6l-0.3,0.3
	c-0.3,0.3-0.1,0.1-0.3,0.3c1-0.2,0.6,0,1.8,0c0-0.3-0.1-0.7-0.2-1c1.5,0,1.1-0.3,2.2-0.4c0,0.8,0.1,0.6-0.2,1.2
	c1.1,0,1.7,0.2,2.2-0.4c-0.5,0-0.9,0.1-1.4,0.2c0.4-1.4,1-0.2,2.7-0.7c1-0.4,2.1-0.4,3.1-0.1c0.3,1.2,0.1,0.5,0,1.6
	c0.3-0.1,0.6-0.2,0.9-0.4c0.8-0.3,0.7-0.1,0.9-0.1c1.4-0.1,0.4-0.3,0.7-1.1c1,0.1,0.3,0.2,1.2,0.8c0.9,0.6,0.4-0.1,1,1
	c-1.2-0.3-0.4,0-1.6,0.2c-0.7,0-1.5,0-2.2,0h-4.4v0.4c1.4,0,1.3,0.3,2.4,0.4l4.2,0.2c0.8,0.1,1.2,0.5,2.1,0c0.2-0.1-0.6,0,0.4-0.2
	c0.2,0,0.5,0,0.8,0c0,0.1-0.1,0.4-0.2,0.4c-0.1,0.5-0.2,0,0,0.4c0.5-0.3,0.2-0.2,1-0.2c0.5,0.6,0.7,0,0.9-0.1
	c0.6-0.4-0.1-0.3,0.9-0.2c1,0.1,6.1,0.3,6.5-0.3c0,0,0,0,0-0.1v-0.1l0.1,0.1l0.2-0.1l0.3-0.1c-2,0-2.6-0.4-6.1-0.4
	c0.2-0.7,0.9-1.2,1.6-1.2c1.2,0,0.2,0.6,2.2,0.2c0,1.2-0.1,0.6,0.4,0.8c0.2-0.5,0.1-0.5-0.2-1l3-0.1c0.4,0,0.8,0,1.1,0
	c0.1,0,0-0.1,0.5,0s0.3,0.1,0.4,0.1c0.8,0.2,0.4,0,0.9,0c0.3-0.1,0.6,0,0.8,0.2c0.5,0.4,0.4-0.1-0.1,0.7c1.1,0,1.4-0.1,1.6,0.8
	c-0.8-0.4-0.5-0.4-1.2-0.2h-0.1l-0.5,0.1c-0.6,0.2-0.4-0.1-0.6,0.4s-0.2-0.2,0.2,0.2c1.1,1,0.4,0.8,1.8,0.8c0.4-1.3,1.2-0.4,0.8-1.4
	c0.6,0.2,0.5,0.3,0.8,0.3c0.6,0-0.3,0,0.5-0.3c0.7,0.2,1.5,0.3,2.2,0.2c0.2,0.8,0.9,1,2,1v0.1l2.7,0.7l1.2-1.3
	c1-0.8,2.8,0.1,3.8,0.1c-0.4,0.6,0,0.4-1,0.4v0.3c1.4,0.1-0.2,0.2,1.2,0.6c0.2-0.5-0.1,0.1-0.2-0.8l1.2-0.2c0,0.8-0.9,1.6,2,1.9
	c4.3,0.5,2.3-0.5,4.6-1.3l0.5-0.1c3.5-1.1,1.5-0.4,5.4-0.7v0.6c0.4-0.3,0.4-0.4,0.9-0.5c0.3,0,0.1,0,0.4,0c0.1,0,0.2,0.1,0.3,0.1
	L304.2,97.7z"/>
<path class="st0" d="M204.5,95.4c-0.8,0-0.9-0.1-1.8-0.2c-2.3-0.1,0.4-0.3-1.4-0.4v0.4c-3,0.1,0.1-0.5-3.4,0.2
	c-0.6,0.1-1.2,0.3-1.8,0.3c-0.8,0-1-0.6-1.6,0.3c0.9,0.1,0.7,0.3,1.8,0.1c0.6,0,1.1,0,1.6-0.1v-0.4c0.7,0.2,0.3,0.2,0.9,0.4
	c0.4,0,0.8,0,1.1,0c0.2,0.3,0,0.3,0.5,0.4h0.2h0.9c0-0.1-0.1-0.1,0-0.8L204.5,95.4z"/>
<path class="st0" d="M389.6,101.9c-1.1-0.5-2.4-0.4-3.4,0.3l-0.6,0.4c0.8,0.2,1.6,0.3,2.4,0.4C389,103.1,389.3,102.6,389.6,101.9z"
	/>
<path class="st0" d="M114,101.9c-1.3-0.6-1.3-0.4-2.8,0.1l-1.3,0.7c0.8,0.2,1.6,0.3,2.4,0.4C113.4,103.1,113.7,102.6,114,101.9z"/>
<path class="st0" d="M373.6,102.3c-0.4-1.5-1,0.3-1.4-1.2h-0.8l0.1,0.8C371.8,103,372.7,102.1,373.6,102.3z"/>
<path class="st0" d="M98.1,102.3c-0.4-1.5-1,0.3-1.4-1.2h-0.8c0,0.3-0.1,1.4,0.8,1.4S96.9,102.1,98.1,102.3z"/>
<path class="st0" d="M249.5,96.1c-0.9,0-0.7-0.2-1.4-0.2c-0.5,0.1-1.1,0.1-1.6,0.2v0.4C248.9,96.7,248.9,97,249.5,96.1z"/>
<path class="st0" d="M352.9,98.3c-1.3-0.4,0.7,0-0.6-0.4c-0.2,0.5,0.1,0.3-0.4,0.4c-0.1,0-0.9,0-1,0v0.4c0.7,0.2,1.3,0.2,2,0.2
	C353.1,98.4,353.1,98.8,352.9,98.3z"/>
<path class="st0" d="M399.5,100.1c-0.5-0.3-0.7-0.2-1.6-0.2c-0.6,0-0.4,0.1-0.6,0.4C397.8,100.5,399.5,100.8,399.5,100.1z"/>
<path class="st0" d="M124,100.1c-0.5-0.3-0.7-0.2-1.6-0.2c-0.6,0-0.4,0.1-0.6,0.4C122.2,100.5,123.8,100.8,124,100.1z"/>
<path class="st0" d="M107.2,103.1v-0.2l-1.6-0.2c-0.3,0.8,0.1,0.3-1.2,0.2v0.4C105.6,103.3,106,103.1,107.2,103.1z"/>
<path class="st0" d="M382.7,103.1v-0.2l-1.6-0.2c-0.3,0.8,0.1,0.3-1.2,0.2v0.4C381.2,103.3,381.6,103.1,382.7,103.1z"/>
<path class="st0" d="M104.1,102.9h-2.4c0.4,0.6,0,0.4,1,0.4c0.4,0,1,0,1.4,0V102.9z"/>
<path class="st0" d="M379.7,102.9h-2.4c0.4,0.6,0,0.4,1,0.4c0.4,0,1,0,1.4,0V102.9z"/>
<path class="st0" d="M278.1,102.5c0.7,1,1.1,1,2.2,1.6c-0.2-0.7-0.2-0.6-0.9-0.9C279,102.9,278.5,102.7,278.1,102.5z"/>
<path class="st0" d="M1.6,102.5c0.7,1,1.1,1,2.2,1.6c-0.2-0.7-0.2-0.6-0.9-0.9C2.5,102.9,2,102.7,1.6,102.5z"/>
<path class="st0" d="M188.1,94.4v0.4l-0.2,0.4c1.1,0.3,0.9,0.6,1.4-0.4C188.6,94.6,188.7,94.5,188.1,94.4z"/>
<path class="st0" d="M104.3,98.9c-0.9-0.2-1.1-0.5-1.4,0.4C103.3,99.4,104.3,99.9,104.3,98.9z"/>
<path class="st0" d="M379.9,98.9c-0.9-0.2-1.2-0.5-1.4,0.4C378.9,99.4,379.9,99.9,379.9,98.9z"/>
<path class="st0" d="M85.6,100.1l-2-0.2v0.4c1.1,0,1.1,0.2,2,0.2V100.1z"/>
<path class="st0" d="M89.3,101.3l0.1,0.1l0.6,0.5c0.5,0.3,1.1,0.2,1.5-0.1C90.8,101.5,90.1,101.3,89.3,101.3z"/>
<path class="st0" d="M364.9,101.3L364.9,101.3l0.1,0.2l0.8,0.4c1,0.2,1.1-0.2,1.2-0.2C366.4,101.5,365.6,101.3,364.9,101.3z"/>
<path class="st0" d="M100.1,102.9c-2.8,0-2.9-0.4-3.8,0.4L100.1,102.9z"/>
<path class="st0" d="M375.6,102.9c-1.5,0-2.9-0.2-3.5,0.1c-0.6,0.4-0.1,0.1-0.3,0.3L375.6,102.9z"/>
<path class="st0" d="M162.5,96.9c-1.2,0-1.5,0.2-2.6,0.2v0.2C160.9,97.3,162,97.5,162.5,96.9z"/>
<path class="st0" d="M161.1,97.7c-0.9,0-1.1,0.2-2.2,0.2v0.2h2.2V97.7z"/>
<path class="st0" d="M174.5,93.4c-0.8,0-0.8-0.1-1.4,0.2c0.2,0.3,0,0.4,0.6,0.4S174.4,93.7,174.5,93.4z"/>
<path class="st0" d="M177.9,96.7c-0.8,0-0.5-0.2-1.4-0.2c-0.6,0-0.4,0.1-0.6,0.4h2V96.7z"/>
<path class="st0" d="M370.6,101.7c-0.4-0.1-0.8-0.2-1.2-0.2c0.4,0.6,0.3,0.6,1.2,0.6V101.7z"/>
<path class="st0" d="M95,101.7c-0.4-0.1-0.8-0.2-1.2-0.2c0.4,0.6,0.3,0.6,1.2,0.6V101.7z"/>
<path class="st0" d="M99.7,100.9c-0.4-0.1-0.9,0.1-1.2,0.4c0.2,0.3,0.1,0.2,0.2,0.6L99.7,100.9z"/>
<path class="st0" d="M375.2,100.9c-0.4-0.1-0.9,0.1-1.2,0.4c0.1,0.2,0.2,0.4,0.2,0.6L375.2,100.9z"/>
<path class="st0" d="M364.1,99.3h-1.6c0.2,0.1,0.1,0.1,0.3,0.3C363,99.8,364,99.8,364.1,99.3z"/>
<path class="st0" d="M88.5,99.3h-1.6c0.1,0.1,0,0.1,0.3,0.3C87.5,99.8,88.5,99.8,88.5,99.3z"/>
<path class="st0" d="M209.3,95.9c-1.3,0-1.4-0.4-1.8,0.2h1.8V95.9z"/>
<polygon class="st0" points="89.3,101.3 89.6,100.9 88.3,100.9 88.3,101.3 "/>
<polygon class="st0" points="364.9,101.3 365.1,100.9 363.9,100.9 363.9,101.3 "/>
<path class="st0" d="M273.6,96.1c-1,0-0.8-0.2-1.2,0.4h1.2V96.1z"/>
<path class="st0" d="M11.9,98.1c-0.7,0.1-0.7,0.1-0.8,0.8C11.8,98.7,11.7,98.8,11.9,98.1z"/>
<path class="st0" d="M287.4,98.1c-0.7,0.1-0.7,0.1-0.8,0.8C287.3,98.7,287.2,98.8,287.4,98.1z"/>
<path class="st0" d="M101.7,101.7c-0.8,0.1-0.6-0.1-0.8,0.6h0.8V101.7z"/>
<path class="st0" d="M377.3,101.7c-0.8,0.1-0.6-0.1-0.8,0.6h0.8V101.7z"/>
<path class="st0" d="M355.7,99.3c-0.6,0-0.4,0.1-0.6,0.4h1.5C356,99.3,356.2,99.3,355.7,99.3z"/>
<path class="st0" d="M80.2,99.3c-0.6,0-0.4,0.1-0.6,0.4H81c-0.2-0.1-0.1-0.1-0.3-0.3C80.5,99.2,81,99.3,80.2,99.3z"/>
<path class="st0" d="M68.3,98.1c-0.5,0.1-0.5,0.1-1,0.2v0.8L68.3,98.1z"/>
<path class="st0" d="M343.8,98.1c-0.5,0.1-0.5,0.1-1,0.2v0.8L343.8,98.1z"/>
<path class="st0" d="M3.6,97.5c-0.5-0.6-0.5-0.6-1.2-0.4l0.4,0.3l0.1,0.1C3,97.5,3.4,97.7,3.6,97.5z"/>
<polygon class="st0" points="58,100.7 57.2,100.7 57.2,101.1 58,101.3 "/>
<path class="st0" d="M344,101.5l-0.4-0.2c-0.6,0-0.4,0.1-0.6,0.4C343.4,101.8,343.9,102.1,344,101.5z"/>
<path class="st0" d="M68.5,101.5l-0.4-0.2c-0.6,0-0.4,0.1-0.6,0.4C67.8,101.8,68.4,102.1,68.5,101.5z"/>
<rect x="378.9" y="101.1" class="st0" width="1" height="0.4"/>
<rect x="103.3" y="101.1" class="st0" width="1" height="0.4"/>
<rect x="186.1" y="94.6" class="st0" width="2" height="0.2"/>
<rect x="359.2" y="99.9" class="st0" width="1" height="0.4"/>
<path class="st0" d="M280.2,97.5c-0.4-0.6-0.5-0.6-1.2-0.4l0.1,0.1l0.7,0.4C279.9,97.6,280.1,97.6,280.2,97.5z"/>
<polygon class="st0" points="153.8,98.1 152.6,97.9 152.6,98.3 153.8,98.3 "/>
<path class="st0" d="M332.6,98.1c-0.8,0.1-0.6-0.1-0.8,0.6h0.8C332.5,98.3,332.4,98.5,332.6,98.1z"/>
<path class="st0" d="M95.6,102.3c-0.8,0.6,0.1,0.6-1,0.6v0.2h1V102.3z"/>
<path class="st0" d="M371.2,102.3c-0.8,0.6,0.1,0.6-1,0.6v0.2h1V102.3z"/>
<path class="st0" d="M199.4,96.3l-1.1,0.1c-0.3,0.1-0.2,0.1-0.3,0.3C198.6,96.7,199.3,96.8,199.4,96.3z"/>
<rect x="125.1" y="98.3" class="st0" width="1.8" height="0.2"/>
<path class="st0" d="M314.4,96.3h-1.2C313.3,96.4,314.3,97.2,314.4,96.3z"/>
<path class="st0" d="M94.3,99.9h-1v0.4C93.9,100.3,94.3,100.4,94.3,99.9z"/>
<path class="st0" d="M370,99.9h-1v0.4C369.5,100.3,369.9,100.4,370,99.9z"/>
<path class="st0" d="M180.9,101.3h-1c0.4,0.6,0,0.4,1,0.4V101.3z"/>
<path class="st0" d="M300,94.8c-0.4,0-0.3-0.1-0.8,0.4h1.2C300.3,95,300.3,94.8,300,94.8z"/>
<path class="st0" d="M24.4,94.8c-0.5,0-0.3-0.1-0.8,0.4h1.2C24.7,95,24.7,94.8,24.4,94.8z"/>
<path class="st0" d="M57,98.1c-0.9,0.1-0.4-0.2-0.8,0.4c0.2,0.1,0.5,0.2,0.8,0.2C56.9,98.3,56.8,98.5,57,98.1z"/>
<rect x="368" y="102.9" class="st0" width="1.6" height="0.2"/>
<rect x="92.4" y="102.9" class="st0" width="1.6" height="0.2"/>
<rect x="349.7" y="100.7" class="st0" width="0.8" height="0.4"/>
<rect x="74.1" y="100.7" class="st0" width="0.8" height="0.4"/>
<rect x="360.4" y="100.1" class="st0" width="0.8" height="0.4"/>
<rect x="175.1" y="94.2" class="st0" width="0.8" height="0.4"/>
<path class="st0" d="M84,101.1h-1c0.1,0.2,0.1,0.4,0.4,0.4C83.7,101.5,84,101.4,84,101.1z"/>
<path class="st0" d="M38.8,96.3h-1c0.1,0.2,0.1,0.4,0.4,0.4S38.7,96.6,38.8,96.3z"/>
<path class="st0" d="M359.6,101.1h-1c0.1,0.2,0.2,0.4,0.4,0.4C359.2,101.5,359.6,101.4,359.6,101.1z"/>
<path class="st0" d="M77.3,102.3h-1c0.1,0.1,0,0.1,0.3,0.3c0.5,0.2,0.1,0.1,0.7,0.1V102.3z"/>
<path class="st0" d="M352.9,102.3h-1c0.2,0.1,0,0.1,0.3,0.3c0.5,0.2,0.1,0.1,0.7,0.1V102.3z"/>
<path class="st0" d="M386.6,97.1h-1c0.2,0.1,0,0.1,0.3,0.3c0.5,0.1,0.2,0,0.7,0.1V97.1z"/>
<path class="st0" d="M179.1,94.8v0.4h1c-0.1-0.1,0-0.1-0.3-0.3C179.3,94.7,179.7,94.8,179.1,94.8z"/>
<path class="st0" d="M332.8,100.7c0.2,0.5,0,0.4,0.8,0.6C333.2,100.4,333.8,100.8,332.8,100.7z"/>
<rect x="270.5" y="95.9" class="st0" width="1.4" height="0.2"/>
<rect x="196.2" y="96.5" class="st0" width="1.4" height="0.2"/>
<path class="st0" d="M111,97.1h-1v0.2c0.3,0,0.7,0.1,1,0.2V97.1z"/>
<path class="st0" d="M315.8,98.1H315v0.4C315.5,98.4,315.7,98.5,315.8,98.1z"/>
<path class="st0" d="M120.2,105.1c-0.9,0.1-0.4-0.2-0.8,0.4h0.8V105.1z"/>
<path class="st0" d="M395.8,105.1c-0.9,0.1-0.3-0.2-0.8,0.4h0.8V105.1z"/>
<path class="st0" d="M58.5,100.7v0.4h0.8C58.9,100.5,59.5,100.8,58.5,100.7z"/>
<path class="st0" d="M334.1,100.7v0.4h0.8C334.4,100.5,335,100.8,334.1,100.7z"/>
<path class="st0" d="M147.7,100.9h-0.6c0.2,0.6-0.3,0.1,0.6,0.6V100.9z"/>
<path class="st0" d="M39.5,98.5c0.9-0.1,0.4,0.2,0.8-0.4C39.1,98.1,39.7,98,39.5,98.5z"/>
<rect x="357" y="99.5" class="st0" width="0.6" height="0.4"/>
<rect x="42.9" y="101.3" class="st0" width="0.6" height="0.4"/>
<rect x="81.4" y="99.5" class="st0" width="0.6" height="0.4"/>
<rect x="177.1" y="94.8" class="st0" width="1.2" height="0.2"/>
<path class="st0" d="M335.7,98.3c-0.7-0.1-0.6-0.4-0.8,0.4l0.4-0.2C335.7,98.3,335.4,98.5,335.7,98.3z"/>
<path class="st0" d="M60.2,98.3c-0.7-0.1-0.6-0.4-0.8,0.4c0.1,0,0.4-0.1,0.4-0.2C60.2,98.3,59.9,98.5,60.2,98.3z"/>
<path class="st0" d="M345.8,100.5c0.4,0.6-0.1,0.3,0.8,0.4C346.1,100.3,346.7,100.6,345.8,100.5z"/>
<path class="st0" d="M172.2,99.3c0.5,0.6-0.1,0.3,0.8,0.4C172.6,99.1,173.1,99.4,172.2,99.3z"/>
<path class="st0" d="M70.3,100.5c0.5,0.6-0.1,0.3,0.8,0.4C70.6,100.3,71.2,100.6,70.3,100.5z"/>
<path class="st0" d="M380.3,99.1h0.8C380.7,98.5,380.7,98.5,380.3,99.1z"/>
<path class="st0" d="M104.7,99.1h0.8C105.1,98.5,105.1,98.5,104.7,99.1z"/>
<path class="st0" d="M58.9,97.9c-0.3,0-0.2-0.1-0.5,0.1c-0.7,0.3-0.3,0.1-0.5,0.3C58.5,98.2,58.7,98.2,58.9,97.9z"/>
<rect x="194.4" y="95.2" class="st0" width="1" height="0.2"/>
<path class="st0" d="M315.4,96.9h-0.6v0.4C315.1,97.2,315.3,97.2,315.4,96.9z"/>
<path class="st0" d="M39.9,96.9h-0.6v0.4C39.6,97.2,39.8,97.2,39.9,96.9z"/>
<path class="st0" d="M319.1,101.3h-0.6v0.4C318.9,101.6,319,101.7,319.1,101.3z"/>
<path class="st0" d="M183.6,96.7c0.2,0.6,0,0.4,0.6,0.6C183.8,96.5,184.3,96.9,183.6,96.7z"/>
<path class="st0" d="M205.5,95.6v0.5h0.8c-0.2-0.1,0.1,0-0.4-0.2L205.5,95.6z"/>
<path class="st0" d="M362.2,100.3c-0.6,0.1-0.3,0-0.6,0.4h0.6V100.3z"/>
<path class="st0" d="M204.5,95.9c-0.6,0.1-0.3,0-0.6,0.4h0.6V95.9z"/>
<path class="st0" d="M86.6,100.3c-0.6,0.1-0.3,0-0.6,0.4h0.6V100.3z"/>
<path class="st0" d="M293.1,94.6h-0.6c0.3,0.4,0,0.3,0.6,0.4V94.6z"/>
<path class="st0" d="M17.5,94.6h-0.6c0.3,0.4,0,0.3,0.6,0.4V94.6z"/>
<path class="st0" d="M334.3,97.9c-0.4,0.1,0-0.1-0.5,0.1c-0.1,0.1-0.2,0.2-0.3,0.3C333.9,98.2,334.2,98.3,334.3,97.9z"/>
<path class="st0" d="M31.4,97.1c-0.4,0.1,0-0.1-0.5,0.1c-0.3,0.1-0.2,0.1-0.3,0.3C31,97.4,31.3,97.5,31.4,97.1z"/>
<path class="st0" d="M306.9,97.1c-0.4,0.1,0-0.1-0.5,0.1c-0.1,0.1-0.2,0.2-0.3,0.3C306.5,97.4,306.8,97.5,306.9,97.1z"/>
<rect x="410.3" y="104.7" class="st0" width="1.8" height="0.2"/>
<rect x="124" y="96.9" class="st0" width="0.8" height="0.2"/>
<rect x="134.8" y="104.7" class="st0" width="0.8" height="0.2"/>
<rect x="399.6" y="96.9" class="st0" width="0.8" height="0.2"/>
<rect x="168" y="96.7" class="st0" width="0.8" height="0.2"/>
<rect x="89.8" y="102.1" class="st0" width="0.8" height="0.2"/>
<rect x="74.1" y="97.3" class="st0" width="0.8" height="0.2"/>
<rect x="349.7" y="97.3" class="st0" width="0.8" height="0.2"/>
<rect x="365.4" y="102.1" class="st0" width="0.8" height="0.2"/>
<rect x="173.3" y="96.1" class="st0" width="0.8" height="0.2"/>
<path class="st0" d="M283.6,98.9c-0.6,0.5-0.3-0.1-0.4,0.8c0.1-0.1,0.1,0,0.3-0.3C283.7,98.9,283.5,99.2,283.6,98.9z"/>
<path class="st0" d="M8,98.9c-0.6,0.5-0.3-0.1-0.4,0.8c0.1-0.1,0.1,0,0.3-0.3C8.1,98.9,7.9,99.2,8,98.9z"/>
<path class="st0" d="M39.5,98.5c-0.6,0.1-0.3,0-0.6,0.4C39.9,98.8,39.2,99.1,39.5,98.5z"/>
<path class="st0" d="M206.3,96.1c0.1,0-0.2,0.4,0.4,0.1c0.6-0.3,0,0.2,0.2-0.3C206.4,96,206.8,95.9,206.3,96.1z"/>
<path class="st0" d="M314.4,98.9h0.6C314.5,98.3,314.8,98.3,314.4,98.9z"/>
<path class="st0" d="M38.6,98.3h0.6C38.7,97.7,39.1,97.7,38.6,98.3z"/>
<path class="st0" d="M314.2,98.3h0.6C314.3,97.7,314.6,97.7,314.2,98.3z"/>
<path class="st0" d="M85,98.3l-0.4,0.4c1.1,0,0.3,0,0.6-0.2L85,98.3z"/>
<path class="st0" d="M360.6,98.3l-0.4,0.3c1.1,0,0.3,0,0.6-0.2L360.6,98.3z"/>
<path class="st0" d="M384.7,101.3c-0.6,0.1-0.3,0-0.6,0.4C384.5,101.6,384.7,101.7,384.7,101.3z"/>
<path class="st0" d="M75.1,98.7c-0.6,0.1-0.3,0-0.6,0.4C74.9,99,75,99.1,75.1,98.7z"/>
<path class="st0" d="M350.7,98.7c-0.6,0.1-0.3,0-0.6,0.4C350.5,99,350.6,99.1,350.7,98.7z"/>
<path class="st0" d="M109.2,101.3c-0.6,0.1-0.3,0-0.6,0.4C109,101.6,109.2,101.7,109.2,101.3z"/>
<rect x="175.5" y="93.4" class="st0" width="0.6" height="0.2"/>
<rect x="364.9" y="102.9" class="st0" width="0.6" height="0.2"/>
<rect x="185.7" y="96.3" class="st0" width="0.6" height="0.2"/>
<rect x="332" y="97.7" class="st0" width="0.6" height="0.2"/>
<rect x="404.9" y="100.1" class="st0" width="0.6" height="0.2"/>
<rect x="129.3" y="100.1" class="st0" width="0.6" height="0.2"/>
<rect x="89.4" y="102.9" class="st0" width="0.6" height="0.2"/>
<rect x="56.4" y="97.7" class="st0" width="0.6" height="0.2"/>
<rect x="294.3" y="94.6" class="st0" width="0.6" height="0.2"/>
<rect x="102.7" y="101.9" class="st0" width="0.6" height="0.2"/>
<rect x="378.3" y="101.9" class="st0" width="0.6" height="0.2"/>
<rect x="18.7" y="94.6" class="st0" width="0.6" height="0.2"/>
<rect x="4.8" y="105.1" class="st0" width="1.6" height="0.2"/>
<rect x="163.3" y="97.3" class="st0" width="0.6" height="0.2"/>
<rect x="281.4" y="105.1" class="st0" width="0.6" height="0.2"/>
<rect x="344.8" y="98.5" class="st0" width="0.6" height="0.2"/>
<rect x="249.9" y="96.1" class="st0" width="0.6" height="0.2"/>
<rect x="69.3" y="98.5" class="st0" width="0.6" height="0.2"/>
<path class="st0" d="M121.4,95.9l0.6,0.4C121.8,95.7,122.4,95.9,121.4,95.9z"/>
<path class="st0" d="M-1.1,100.5c0.2,0.6-0.4,0.3,0.6,0.4c0,0-0.1,0-0.1-0.1c0-0.1-0.1-0.1-0.1-0.1S-1,100.6-1.1,100.5z"/>
<path class="st0" d="M230.4,100.7c0.3,0.4,0,0.3,0.6,0.4C230.7,100.6,231,100.9,230.4,100.7z"/>
<path class="st0" d="M275.5,100.5c0.2,0.6-0.4,0.3,0.6,0.4c0,0-0.1,0-0.1-0.1L275.5,100.5z"/>
<path class="st0" d="M106.6,101.1c0-0.2-0.4-0.4-0.3,0C106.3,101.2,106.7,101.6,106.6,101.1z"/>
<path class="st0" d="M382.1,101.1c0-0.2-0.4-0.4-0.3,0C381.9,101.2,382.2,101.6,382.1,101.1z"/>
<path class="st0" d="M77.3,98.9c0.1,0.5-0.1,0.3,0.4,0.4C77.7,98.8,77.9,99.1,77.3,98.9z"/>
<path class="st0" d="M352.9,98.9c0.1,0.5-0.1,0.3,0.4,0.4C353.2,98.8,353.4,99.1,352.9,98.9z"/>
<path class="st0" d="M327.3,97.7c-0.2-0.2-0.7,0.3-0.2,0.1C327.1,97.8,327.8,98,327.3,97.7z"/>
<path class="st0" d="M182.9,95.9c-0.2-0.2-0.7,0.3-0.2,0.1C182.7,96,183.4,96.2,182.9,95.9z"/>
<path class="st0" d="M203.1,95.9c-0.2-0.2-0.7,0.3-0.2,0.1C202.9,96,203.5,96.2,203.1,95.9z"/>
<path class="st0" d="M35.6,97.7c-0.2-0.2-0.7,0.3-0.2,0.1C35.3,97.8,35.9,98,35.6,97.7z"/>
<path class="st0" d="M302.8,98.1c-0.2-0.2-0.7,0.3-0.2,0.1C302.6,98.2,303.2,98.4,302.8,98.1z"/>
<path class="st0" d="M342,97.5c-0.2-0.2-0.7,0.3-0.2,0.1C341.7,97.6,342.3,97.8,342,97.5z"/>
<path class="st0" d="M398.4,99.3c-0.2-0.2-0.7,0.3-0.2,0.1C398.1,99.4,398.7,99.6,398.4,99.3z"/>
<path class="st0" d="M187.9,96.9c-0.2-0.2-0.7,0.3-0.2,0.1C187.6,97,188.2,97.2,187.9,96.9z"/>
<path class="st0" d="M66.4,97.5c-0.2-0.2-0.7,0.3-0.2,0.1C66.1,97.6,66.7,97.8,66.4,97.5z"/>
<path class="st0" d="M27.2,98.1c-0.2-0.2-0.7,0.3-0.2,0.1C27,98.2,27.6,98.4,27.2,98.1z"/>
<path class="st0" d="M110.4,98.7c-0.2-0.2-0.7,0.3-0.2,0.1C110.2,98.8,110.8,99,110.4,98.7z"/>
<path class="st0" d="M386,98.7c-0.2-0.2-0.7,0.3-0.2,0.1C385.8,98.8,386.4,99,386,98.7z"/>
<path class="st0" d="M72.3,99.3c-0.2-0.2-0.7,0.3-0.2,0.1C72.1,99.4,72.6,99.6,72.3,99.3z"/>
<path class="st0" d="M175.9,97.1c-0.2-0.2-0.7,0.3-0.2,0.1C175.7,97.2,176.2,97.4,175.9,97.1z"/>
<path class="st0" d="M339.2,97.7c-0.2-0.2-0.8,0.3-0.3,0.1C338.9,97.8,339.5,98,339.2,97.7z"/>
<path class="st0" d="M51.8,97.7c-0.2-0.2-0.7,0.3-0.2,0.1C51.6,97.8,52.2,98,51.8,97.7z"/>
<path class="st0" d="M184.5,94.6c-0.2-0.2-0.7,0.3-0.2,0.1C184.2,94.7,184.8,94.9,184.5,94.6z"/>
<path class="st0" d="M311.2,97.7c-0.2-0.2-0.7,0.3-0.2,0.1C310.9,97.8,311.5,98,311.2,97.7z"/>
<path class="st0" d="M63.6,97.7c-0.2-0.2-0.7,0.3-0.2,0.1C63.3,97.8,63.9,98,63.6,97.7z"/>
<path class="st0" d="M159.5,97.1c-0.2-0.2-0.7,0.3-0.2,0.1C159.3,97.2,159.8,97.4,159.5,97.1z"/>
<path class="st0" d="M210.7,95.6c-0.2-0.2-0.7,0.3-0.2,0.1C210.5,95.7,211.1,96,210.7,95.6z"/>
<path class="st0" d="M347.9,99.3c-0.2-0.2-0.7,0.3-0.2,0.1C347.7,99.4,348.2,99.6,347.9,99.3z"/>
<path class="st0" d="M122.8,99.3c-0.2-0.2-0.7,0.3-0.2,0.1C122.5,99.4,123.1,99.6,122.8,99.3z"/>
<path class="st0" d="M149.7,98.1c-0.2-0.2-0.7,0.3-0.2,0.1C149.5,98.2,150.1,98.4,149.7,98.1z"/>
<path class="st0" d="M174.5,96.7c-0.2-0.2-0.7,0.3-0.2,0.1C174.3,96.8,174.9,97,174.5,96.7z"/>
<path class="st0" d="M32,97.3c-0.2-0.2-0.7,0.3-0.2,0.1C31.7,97.4,32.3,97.6,32,97.3z"/>
<path class="st0" d="M175.9,93c-0.2-0.2-0.7,0.3-0.2,0.1C175.7,93.1,176.2,93.3,175.9,93z"/>
<path class="st0" d="M144.6,97.3c-0.2-0.2-0.7,0.3-0.2,0.1C144.4,97.4,145.1,97.6,144.6,97.3z"/>
<path class="st0" d="M307.5,97.3c-0.2-0.2-0.7,0.3-0.2,0.1C307.2,97.4,307.8,97.6,307.5,97.3z"/>
<path class="st0" d="M151.2,97.7c0-0.2-0.4-0.5-0.3,0s-0.5,0,0.1,0.1C151.2,97.8,151.2,98.1,151.2,97.7z"/>
<path class="st0" d="M33.7,98.7c0-0.2-0.4-0.5-0.3,0s-0.5,0,0.1,0.1C33.8,98.8,33.7,99.1,33.7,98.7z"/>
<path class="st0" d="M309.4,98.7c0-0.2-0.4-0.5-0.3,0s-0.5,0,0.1,0.1C309.4,98.8,309.4,99.1,309.4,98.7z"/>
<path class="st0" d="M401,96.9c0-0.2-0.4-0.5-0.3,0s-0.5,0,0.1,0.1C401,97,401,97.3,401,96.9z"/>
<path class="st0" d="M92.6,97.9c0-0.1-0.2,0-0.2,0s-0.4-0.5-0.1,0C92.2,97.9,92.6,98.3,92.6,97.9z"/>
<path class="st0" d="M97.3,98.1c0-0.1-0.2,0-0.2,0s-0.4-0.5-0.1,0C97,98.1,97.3,98.5,97.3,98.1z"/>
<path class="st0" d="M45.5,97.3l-0.2,0.4c0.3-0.1,0.2,0.1,0.3-0.1C45.7,97.4,45.6,97.6,45.5,97.3z"/>
<path class="st0" d="M321.1,97.3l-0.2,0.4c0.3-0.1,0.2,0.1,0.3-0.1C321.2,97.3,321.3,97.6,321.1,97.3z"/>
<path class="st0" d="M229.4,99.3c0-0.1-0.2,0-0.2,0s-0.4-0.5-0.1,0.1l0,0C229.4,99.4,229.4,99.6,229.4,99.3z"/>
<path class="st0" d="M217.3,97.7c0-0.1-0.2,0-0.2,0s-0.4-0.5-0.1,0l0,0h0.1C217.2,97.7,217.3,98.1,217.3,97.7z"/>
<path class="st0" d="M368.2,97.9c0-0.1-0.2,0-0.2,0s-0.3-0.5-0.1,0h0.1C368.1,97.9,368.2,98.3,368.2,97.9z"/>
<path class="st0" d="M372.8,98.1c0-0.1-0.2,0-0.2,0s-0.3-0.5-0.1,0h0.1C372.7,98.1,372.8,98.5,372.8,98.1z"/>
<polygon class="st0" points="346.2,97.5 346,97.5 346.2,97.7 "/>
<polygon class="st0" points="70.7,97.5 70.5,97.5 70.7,97.7 "/>
<polygon class="st0" points="188.1,94.4 188.1,94.2 187.8,94.3 "/>
<path class="st0" d="M366.2,103.1L366.2,103.1C365.9,103,366.4,102.6,366.2,103.1L366.2,103.1L366.2,103.1
	C366,103.1,366,103.1,366.2,103.1z"/>
<path class="st0" d="M409.1,96.3C409.1,96.3,409,96.4,409.1,96.3L409.1,96.3C409,96.3,409.1,96.3,409.1,96.3z"/>
<path class="st0" d="M185.5,95.9L185.5,95.9C185.4,95.9,185.5,95.9,185.5,95.9z"/>
<path class="st0" d="M142.4,98.9L142.4,98.9L142.4,98.9z"/>
<path class="st0" d="M180.5,94.8L180.5,94.8C180.5,94.8,180.6,94.8,180.5,94.8z"/>
<path class="st0" d="M124,98.3L124,98.3C123.9,98.3,124,98.3,124,98.3z"/>
<path class="st0" d="M184.9,98.7L184.9,98.7C184.8,98.7,184.9,98.7,184.9,98.7z"/>
<path class="st0" d="M161.5,96.3L161.5,96.3L161.5,96.3C161.4,96.4,161.5,96.3,161.5,96.3z"/>
<path class="st0" d="M150.7,98.1L150.7,98.1L150.7,98.1C150.7,98.2,150.8,98.1,150.7,98.1z"/>
<path class="st0" d="M150.7,98.7L150.7,98.7L150.7,98.7C150.7,98.8,150.8,98.7,150.7,98.7z"/>
<path class="st0" d="M364.2,98.7L364.2,98.7C364.2,98.7,364.3,98.7,364.2,98.7z"/>
<path class="st0" d="M180.3,95.9L180.3,95.9L180.3,95.9C180.3,95.9,180.4,95.9,180.3,95.9z"/>
<path class="st0" d="M188.5,95.9l-0.4-0.2L188.5,95.9z"/>
<path class="st0" d="M188.5,95.9l0.4,0.2L188.5,95.9z"/>
<path class="st0" d="M29.5,98.1l0.2,0.4L29.5,98.1z"/>
</svg>
