<?xml version="1.0" encoding="utf-8"?>
<!-- Generator: Adobe Illustrator 21.0.0, SVG Export Plug-In . SVG Version: 6.00 Build 0)  -->
<svg version="1.1" id="Слой_1" xmlns="http://www.w3.org/2000/svg" xmlns:xlink="http://www.w3.org/1999/xlink" x="0px" y="0px"
	 viewBox="0 0 106 418.8" style="enable-background:new 0 0 106 418.8;" xml:space="preserve">
<style type="text/css">
	.st0{fill:#FFFFFF;}
</style>
<title>Монтажная область 3</title>
<path class="st0" d="M11.8,308.7c-0.3,0.3-0.6,0.6-0.8,1c1.6-0.3-0.6-0.1,1.6,0.4c0.2,2.5,0.3-0.4-0.2,2c0,0.3,0,0.7,0,1h-0.1
	c-0.6,0.2-0.3-0.1-0.6,0.4l0.8,0.3c0,0.5-0.1,1-0.2,1.4c0,1.6,1,0,1.4,4.1c-0.7,0-0.6-0.4-1.2,1.8c-0.4-0.1-0.2-0.1-0.5-0.3
	c-0.7-0.4,0.4,0-0.5-0.3c-0.1,0.7-0.3,1.4-0.5,2.2c-0.4,1.7,0.1,0,0.1,1.9c0.3,0,0.7-0.1,1-0.2c0,0.4,0.1,0.8,0.2,1.2l0.4,0.7
	c-0.7,0.2-0.5,0.2-1-0.2c0,1.3,0.4,0.6,0.9,1.1l0.2,0.2l0.1,0.1v0.1c0.1,0.5,0.1,1,0.1,1.6c-0.2,1.4-0.2-0.1-0.6,1.2l0.4,1.4
	c-0.6,0-0.4,0-0.8,0.2c0.5,0.7,0.3,0.4,0.3,1.1c0,0.6,0,1.1-0.1,1.7c-0.2-0.2-0.3-0.4-0.4-0.6l-0.1,0.3c-0.1,0.2-0.1,0.4-0.1,0.6
	c0.7,0.2,0.7,0.3,0.8,1l0.2,1.2c0,0.2-0.1,1-0.1,1v0.1l-0.1,0.4v0.1l-0.1,2.9c-1-0.3-0.2-0.3-1.2-0.6c1,1.8,1.3,1.3,1.4,2
	c0.1,0.7-0.1,0.6-0.4,0.8c-0.5-0.3-0.5-0.2-0.6-1h-0.6c-0.1,0.7-0.3,0.4,0.1,0.9c0.6,1,1.4,0.5,1.5,3.2c-0.4,0.1-0.2-0.1-0.4,0.2
	v0.6c-0.4,1.5-0.1,1.3-0.6,2c0.8,0.4,0.5-0.1,1,0.6c-0.1,0.2-0.2,0.4-0.4,0.6c-0.2,0.3-0.1,0.2-0.2,0.6c0.8,0.2,0.6,0.1,0.6,1h-0.4
	c0,0.1,0,0.3,0,0.4c0.1,0.4,0.1,0.2,0.2,0.4c0.1,1,0.9,1.7,0,2.2c-0.9,0.5,0.2,0-0.2,0.1c-1.1,0.2,0.5-0.4-0.3,0
	c0.3,0.5,0.2,0.2,0.2,1c0.5,0.2,0.2,0.1,0.8,0c-0.1,0.6,0,0.2-0.1,0.4c-0.3,0.4-0.8,0.6-1.3,0.6l-0.3,1.2c-0.2,0.4-0.1-0.2,0,0.3
	s0-0.3,0.1,0.4c0.2,1.3-0.5,0.7,0.5,2.8l0.7-0.5l0.1,0.1c-0.1,1.4-0.3,2.9-0.6,4.3c-0.1-0.2-0.1,0-0.2-0.4c0-0.2,0-0.4,0-0.6
	l-0.4,0.4l-0.2,0.2c-0.5,1.1,0.2,2,0.2,3.1c-0.1,1.5-0.4-0.4-0.4,1.3c0,0.6,0.3,0.9,0.4,1.6c-0.5,0.1-0.5,0.3-0.8,0.6
	c0.1-0.5,0.2-0.9,0.2-1.4h-0.4c0,0.5-0.1,1.1-0.2,1.6c1.5,0,1-0.3,2-0.6c0,0.9,0.5,3.4,0.3,4.6c-0.4,1.7,0.4,0.2,0,1.8
	c-0.3,1.3,0,1-0.1,2.5c-0.1,1.4-0.6,1.5-0.6,3.3c0.8,0.3,0-0.2,0.8,0.2c-0.1,0.4,0,0.9,0.1,1.3c0.5,1.2,0.8,2.6,0.7,3.9
	c-0.2-0.1-1-0.8-0.7,0.5l0.5,2c-0.2,0.1-0.3,0.2-0.5,0.3l-0.1,0.1l-0.1,0.1l-0.1,0.1l-0.3,1.2c0,0.6,0,0.2,0.2,0.8
	c-0.6,0.2-0.1-0.1-0.6,0.4c0.1,0.4-0.1,0.2,0.5,0.4h0.1l-0.3,4.2c0,0,0.1,0.7,0.1,0.9c0.3,0.1-0.1,0.2,0.3,0c0.4-0.2,0,0,0.4-0.2
	c0,1-0.2,0.6,0.4,1c0.2-0.7,0.1-0.5,0.6-0.8c0,1,0.2,1.4,0.2,2.7v2.9l0.8,0.2c-0.2,0.8,0,1.2-0.6,1.6c0-1.7-0.4-0.9-0.4-2.7
	l-0.2,1.7c-0.7,0.4-0.5,0.8,0,2.4c0.2,0.7,0.2,0.2,0.3,1.1l-0.4,5.4c-0.4-0.3-0.2-0.2-0.8-0.4c0-1.4-0.3-1.4,0.6-1.2v-1.8
	c-1.1-0.4-0.1-0.7-1-1.4c-0.1,1.8-0.2,3.7-0.1,5.5v3.5c0.1,0.9,0,1.8-0.1,2.8c0.6-0.3,0.5,0,1.6,0l0.2-4.1l0.4,0.7
	c0.4,0.5-0.1,0.1,0.2,0.1h0.1c0.1,1.1,0.2,2.2,0.2,3.3H110v-429H14.9c0.2,0.3,0.2,0.7,0,1c-0.3,0.6-0.3,0.4-0.8,0
	c0,1.1,0.1,1.4-0.8,1.6c0.8-1.4,0-0.6,0-2.5h-0.6c-0.2,1.6-0.8-0.6-0.8,2c1.3,0.5,0.4,1.2,1.4,0.8C13.1-1.4,13-1.5,13-1.3
	c0,0.6,0-0.3,0.3,0.5c-0.2,0.7-0.3,1.5-0.2,2.3c-1.1,0.3-0.5,1.6-1.2,3.1c-0.6,0.2-0.1-0.1-0.6,0.4c0.1,0.5,0,0.3,0.5,0.7l0.1,0.2
	l0.7,0.6c0.9,1.2-0.4,3,0.1,4.1c-0.6-0.2-0.6-0.4-0.6-1.2h-0.5c-0.1,1.4-0.2-0.2-0.6,1.2c0.5,0.2-0.1-0.1,0.8-0.2l0.2,1.2
	c-1.4-0.1-1.3-0.6-1.8,1.3V13l-0.4,2.6c0,0,0.2,0.9,0.3,1l0.5,0.7l0.6,0.7c0.7,1.3,1,2.9,0.9,4.4c0,0.6,0,1.3,0.1,1.9h-0.5
	c0.3,0.4,0.4,0.4,0.5,0.9c0.1,0.5-0.2,0.6-0.3,0.9c-0.6,0.7-0.3,0.1-0.4,1.1c0.5,0.6,0.1,0.3,1.2,0.6c0.2,2.5,0.3-0.5-0.2,2
	c0,0.3,0,0.7,0,1c-0.4,0.2-0.4-0.1-0.8,0.4l0.8,0.2c0,2.2-0.7,1.4,0.4,2.7c0.5,0.8,0.8,1.8,0.8,2.9c-0.7,0-0.6-0.5-1.2,1.8
	c-0.7-0.2-0.3-0.3-1-0.6c-0.1,0.7-0.3,1.4-0.5,2.2c-0.4,1.7,0.1,0,0.1,1.9c0.3,0,0.7-0.1,1-0.2c0,0.4,0.1,0.8,0.2,1.2h0.4
	c-0.1,1.1-0.4,0.8-1,0.4c0,0.4-0.1,0.4,0.1,0.7c0.2,0.3,0.2,0.1,0.4,0.2c0.2,0.1,0.3,0,0.6,0.5c0.8,1.5-0.4,3.1-0.4,3.1l0.4,1.4
	c-0.6,0-0.4,0-0.8,0.2l0.3,0.8V51c0.1,0.7,0,1.4-0.1,2c-0.2-0.2-0.3-0.4-0.4-0.6l-0.1,0.1l-0.1,0.1c-0.1,0.2-0.1,0.4-0.1,0.5
	c1.1,0.3,0.6,0.7,0.8,1.7L12,59.1c-0.1,0.6,0-0.6,0,0.2c0,0.1,0,0.2,0,0.3c0.1,0.3,0-0.1,0.2,0.5c-1-0.3-0.2-0.3-1.2-0.6
	c0.2,0.5,0.6,1,1,1.4c0.4,0.4,0.3,0.1,0.4,0.6c0.1,0.6-0.1,0.6-0.4,0.9c-0.5-0.4-0.5-0.2-0.6-1H11c-0.4,2,1.5,0.2,1.6,3.9
	c-0.3,0.1-0.3,0-0.5,0.3V66L12,66.7v0.1c-0.1,1,0.1,0.5-0.4,1.2c0.8,0.4,0.5-0.1,1,0.6c-0.1,0.2-0.2,0.4-0.4,0.6
	c-0.2,0.3-0.1,0.2-0.2,0.6c0.8,0.2,0.6,0.1,0.6,1l-0.2,0.8c0.1,1,0.9,1.6,0,2.2s0.2,0-0.2,0.1c-1.1,0.3,0.5-0.3-0.3,0
	c0.3,0.5,0.2,0.2,0.2,1c0.5,0.2,0.2,0.1,0.8,0c-0.1,1,0.5,0-1,1c0-0.5-0.1-0.3-0.1-0.5l-0.1-0.3c-0.4-1.4,0.2-0.7-0.5-1.3
	c-0.2,0.7-0.2,1.3-0.2,2c0.5,0.2,0.1,0.2,0.6,0v0.7v0.1l-0.2,0.4c-0.2,0.4,0-0.2,0.1,0.7c0.2,1.3-0.5,0.7,0.5,2.8
	c0.5-0.1,0.5-0.3,0.8-0.6c-0.1,1.4-0.3,2.9-0.6,4.3c-0.1-0.2-0.1,0-0.2-0.4c0-0.2,0-0.4,0-0.6l-0.4,0.4l-0.2,0.2
	c-0.5,1.1,0.2,2,0.2,3.1c-0.1,1.5-0.4-0.4-0.4,1.4c0,0.6,0.3,0.9,0.4,1.6l-0.8,0.6c0.1-0.5,0.2-0.9,0.2-1.4h-0.5
	c0,0.5-0.1,1.1-0.2,1.6c1.5,0,1-0.3,2-0.6c0,0.5,0,1.1,0.2,1.6c0.2,1.1,0.2,2.4,0,3.5c0,0.9,0.1,0,0.2,0.7c0,0.4,0,0.3-0.1,0.6
	c-0.3,1.3,0,1-0.1,2.5s-0.6,1.5-0.6,3.3c0.8,0.4,0-0.1,0.8,0.2c-0.1,0.4,0,0.9,0.1,1.3l0.2,0.4l-0.3,0.3c0.4,1.1,0.5,2.3,0.5,3.4
	c-0.6-0.1-0.3-0.2-0.8,0c0.1,0.9,0.4,0.5,0.4,1.1l0.2,1.1c-0.4,0.2-0.6,0.5-0.7,0.9l-0.1,0.1c-0.4,0.9-0.2,0.7,0,1.6
	c-0.6,0.3-0.1-0.1-0.6,0.4c0.2,0.6-0.1,0,0.2,0.3l0.4,0.1l0.1,0.7l-0.1,1.7h-0.5c0,0,0,0-0.1,0v0.8c0,0,0,0,0.1,0s0.1,0,0.2,0.1
	c0.2,0,0-0.1,0.3,0.1c-0.7,1-0.2,0.2-0.2,1.6c0.3,0.1-0.1,0.2,0.3,0c0.4-0.2,0,0,0.4-0.2c0,0.8-0.1,0.5,0.2,1
	c0.6-0.5,0.2-0.3,0.8-0.8c-0.2,1.1,0.6,2.8,0.1,4.4l-0.3,1.5c-0.7-0.1-0.1,0-0.5-0.1c-0.4-0.1,0.2,0-0.5-0.3c-0.1,0.7,0,0.6-0.4,1
	c0-1.1,0.4-5.1-0.4-6l0.3,12.2c0.1,0.8,0,1.8,0,2.7c0,0.3,0.1,0.8,0.1,1l-0.1,3.5l-0.1-0.1l-0.5-0.5c-0.1,0.9-0.1,1.7,0,2.7
	c0.2,0.9,0.3,1.9,0.2,2.9c0.5-0.2,0.1-0.2,0.6,0c-0.3-1.4-0.5-2.9-0.4-4.3v-0.2l0,0c0.3,0,0.8,0.9,0.9,1.2l0.7,2.6
	c0.1,0.6,0.1,1.2,0,1.8c0.5,0.1-0.3,0.2,0.2-0.1s-0.2-0.2,0.2-0.1c0.3,0.6,0.2,0.4,0.2,1.2c-0.1,0.1-0.2,0.1-0.3,0.1h-0.1h-0.1h-0.1
	c0.2,0.8,0.3,0.3,0.3,1c0,0.3-0.2,0.8-0.3,1.3c-0.2,1.2,0.1,0.5,0.2,1.6c0,0.3,0,0.5,0,0.8h-1c0.6,0.9,1,0.8,1.2,2.9
	c-0.7,0.1-0.7,0.1-0.8,0.8c0.8-0.2,1.2-1.1,1.4,1.2c-0.6,0.4-0.5,0.6-1.4,0.8v-1.6c-0.9,0.2-0.8,0.8-0.5,1.5v0.1
	c0.1,0.3,0.1,0.6,0.1,0.9c1-0.5,0.8-0.2,2.2-0.2c0,1.3,1.1,2.5,0.3,3.4l-0.7,0.3c-0.1,1.3,0,2.7,0.2,3.9c-0.8-0.2-0.6-0.4-1.2-0.8
	c-0.2,0.9-0.3,1.4,1,1.4c0.1,1,0.2,0.5,0.1,1.5c-0.1,0.6-0.5,1.4-0.3,2c0.3,1-0.1-0.4,0.1,0.3c0,0.1,0.1,0.2,0.2,0.4
	c0.2,0.5,0.3,1,0.4,1.5c0,0,0-0.1,0.1-0.1c0.3-0.1-0.1,0,0.1-0.3s-0.1-0.2,0.4-0.4c0.2,0.4,0.4,0.7,0.5,1.1c0.3,1.2-0.3,1,0.7,1.1
	l0.2,3.7c-0.3,1.4-0.3,0.6-0.5,0.7c-0.5,0.3-0.4,0-1.1,0.3c1,1.6,0.3,0.6,0.2,2.7s-0.2,1.2-0.4,1.1l-0.1-0.1l-0.7-0.3
	c0.1,1.4,0.1-0.2,0.3,0.6l-0.2,0.7c0,0.2,0,0.5,0,0.8l0.1,0.2c0.1,0.4,0.1-0.5,0.2,0.6l0.3-0.7l0.1-0.1c0.1,1,0.2,0.5,0.1,1.7
	c-0.2,2.2,0.7,1.4-0.1,5.1c-0.2,0.4-0.2,0.9-0.2,1.4c-0.1,0.9-0.2,0.6-0.4,1.4c-1.1-0.1-1-0.6-1.2-1.4c-0.3-0.9-0.5-1.9-0.4-2.9
	c-0.1,0.2-0.1,0-0.2,0.5s0,0.1,0,0.6c0.1,1.5-0.1,3.1,0.4,3.9s0.1-0.2,0.3,0.7h0.8v-0.8c0.6,0.4,0.1,0,0.3,0.4
	c0.5,1.3,0.3,6.2,0.3,7.9h0.7c0,1.1,0.2,2.3,0.4,3.3c-1.4-0.4,0-0.8-1-2.3c0,0.5,0,1-0.1,1.5c-0.1,0.5,0.1,0.5-0.5,0.7
	c-0.3,0.5-0.5,0.5-0.2,1c0.4,0.1,0.3,0,0.6,0.2l-0.1,0.9c-0.4,1.8,0.8,0.8-0.4,4.5c-0.2,0.7-0.1-0.1-0.3,0.7l0.4,0.6
	c-0.3,0.4-0.4,0.3-0.4,1c0,0.5,0.1,0.5,0.2,1.2c0.1,1.8,0,1.5-0.6,2.5c1-0.2,0.3-0.1,0.6,0l0.1,3.8c0,1.4-0.4-0.3-0.2,1.1
	c0.2,1.4,1,0.2,0.2,1.9c-0.7,1.5,0.3,0.4,0.4,2.3c-1.5,0-1.3-1.1-2.6-1.2c0.1,0.4,1.8,2.7,2.4,2.9c0,1.6-0.2,0.3,0.1,1.9
	c0.2,0.9-0.2,0.8-0.7,1.5c0.5,0.6,0.9,1.2,1.1,1.9c0.3,1.4-0.5,2,0.9,2.2c-0.4,1-0.1-0.2-0.4,0.8c0.9,0.4,0.8-0.1,0.8,1.2
	c-0.4-0.3-1-0.8-1.6-0.1c-0.3,0.3-0.3,0.5-0.1,0.7c0.4,0.4-0.1,0.1,0.3,0.1l0.4-0.2c-0.2,0.9-0.8,1.1-0.9,1.7
	c-0.1,0.8,0,1.7,0.1,2.6h-0.1h-0.1c-0.3,0,0.3-0.2-0.3,0c-0.2,0.1-0.3,0-0.4,0.7c0.6,0.3,0.7,0.1,1.3,0.3c0.4,0.1,0.5,0.4,0.9,0.7
	c-0.4,0.4-0.6,1-0.6,1.6l-0.3-0.3c-0.3-0.3-0.1-0.1-0.3-0.3c0.2,1,0,0.6,0,1.8c0.3,0,0.7-0.1,1-0.2c0,1.5,0.3,1.1,0.4,2.3
	c-0.8,0-0.6,0.1-1.2-0.2c0,1.1-0.2,1.7,0.4,2.3c0-0.5-0.1-0.9-0.2-1.4c1.4,0.4,0.2,1,0.7,2.8c0.4,1,0.4,2.2,0.1,3.2
	c-1.2,0.3-0.5,0.1-1.6,0c0.1,0.3,0.2,0.6,0.4,0.9c0.3,0.8,0.1,0.7,0.1,0.9c0.1,1.4,0.3,0.4,1.1,0.7c-0.1,1-0.2,0.3-0.8,1.2
	c-0.6,0.9,0.1,0.4-1,1c0.3-1.2,0-0.4-0.2-1.6c0-0.7,0-1.5,0-2.3v-4.5h-0.4c0,1.4-0.3,1.3-0.4,2.5l-0.2,4.3c-0.1,0.8-0.5,1.2,0,2.2
	c0.1,0.2,0-0.6,0.2,0.4c0,0.2,0,0.5,0,0.8c-0.1,0-0.4-0.1-0.4-0.2c-0.5-0.1,0-0.2-0.4,0c0.3,0.5,0.2,0.2,0.2,1
	c-0.6,0.5,0,0.7,0.1,0.9c0.4,0.6,0.3-0.1,0.2,0.9c-0.1,1-0.3,6.2,0.3,6.7c0,0,0,0,0.1,0h0.1L13,272l0.1,0.2l0.1,0.3
	c0-2,0.4-2.7,0.4-6.2c0.7,0.2,1.2,0.9,1.2,1.6c0,1.2-0.6,0.2-0.2,2.3c-1.2,0-0.6-0.1-0.8,0.4c0.5,0.2,0.5,0.1,1-0.2l0.1,3.1
	c0,0.4,0,0.8,0,1.1c0,0.1,0.1,0,0,0.5s-0.1,0.3-0.1,0.4c-0.2,0.8,0,0.4,0,0.9c0.1,0.3,0,0.6-0.2,0.8c-0.4,0.5,0.1,0.4-0.7-0.1
	c0,1.1,0.1,1.4-0.8,1.6c0.4-0.8,0.4-0.5,0.2-1.2v-0.1l-0.1-0.5c-0.2-0.6,0.1-0.4-0.4-0.6s0.2-0.2-0.2,0.2c-1,1.1-0.8,0.4-0.8,1.8
	c1.3,0.4,0.4,1.2,1.4,0.8c-0.2,0.6-0.3,0.5-0.3,0.8c0,0.6,0-0.3,0.3,0.5c-0.2,0.7-0.3,1.5-0.2,2.3c-0.8,0.2-1,0.9-1,2h-0.1l-0.7,2.8
	l1.3,1.2c0.8,1-0.1,2.9-0.1,3.9c-0.6-0.4-0.4,0-0.4-1h-0.3c-0.1,1.4-0.2-0.2-0.6,1.2c0.5,0.2-0.1-0.1,0.8-0.2l0.2,1.2
	c-0.8,0-1.6-0.9-1.9,2c-0.5,4.4,0.5,2.4,1.3,4.7l0.1,0.5c1.1,3.6,0.4,1.5,0.7,5.5h-0.6c0.3,0.4,0.4,0.4,0.5,0.9c0,0.3,0,0.1,0,0.4
	c0,0.1-0.1,0.2-0.1,0.3L11.8,308.7z"/>
<path class="st0" d="M14.1,206.5c0-0.8,0.1-0.9,0.2-1.8c0.1-2.4,0.3,0.4,0.4-1.4h-0.4c-0.1-3.1,0.5,0.1-0.2-3.5
	c-0.1-0.6-0.3-1.2-0.3-1.8c0-0.8,0.6-1-0.3-1.6c-0.1,0.9-0.3,0.7-0.1,1.8c0,0.6,0,1.1,0.1,1.6h0.4c-0.2,0.7-0.2,0.3-0.4,0.9
	c0,0.4,0,0.8,0,1.1c-0.3,0.2-0.3,0-0.4,0.5v0.2v0.9c0.1,0,0.1-0.1,0.8,0L14.1,206.5z"/>
<path class="st0" d="M7.6,396.1c0.5-1.1,0.4-2.5-0.3-3.5L6.9,392c-0.2,0.8-0.3,1.6-0.4,2.5C6.4,395.5,6.9,395.8,7.6,396.1z"/>
<path class="st0" d="M7.6,113.8c0.6-1.3,0.4-1.3-0.1-2.9l-0.7-1.3c-0.2,0.8-0.3,1.6-0.4,2.5C6.4,113.2,6.9,113.5,7.6,113.8z"/>
<path class="st0" d="M7.2,379.8c1.5-0.4-0.3-1,1.2-1.4v-0.8l-0.8,0.1C6.5,377.9,7.4,378.8,7.2,379.8z"/>
<path class="st0" d="M7.2,97.5c1.5-0.4-0.3-1,1.2-1.4v-0.8c-0.3,0-1.4-0.1-1.4,0.8S7.4,96.3,7.2,97.5z"/>
<path class="st0" d="M13.4,252.6c0-0.9,0.2-0.7,0.2-1.4c-0.1-0.5-0.1-1.1-0.2-1.6H13C12.8,252,12.5,252,13.4,252.6z"/>
<path class="st0" d="M11.2,358.5c0.4-1.3,0,0.7,0.4-0.6c-0.5-0.2-0.3,0.1-0.4-0.4c0-0.1,0-0.9,0-1h-0.4c-0.2,0.7-0.2,1.3-0.2,2
	C11.1,358.8,10.7,358.8,11.2,358.5z"/>
<path class="st0" d="M9.4,406.3c0.3-0.5,0.2-0.7,0.2-1.6c0-0.6-0.1-0.4-0.4-0.6C9,404.5,8.7,406.3,9.4,406.3z"/>
<path class="st0" d="M9.4,124.1c0.3-0.5,0.2-0.7,0.2-1.6c0-0.6-0.1-0.4-0.4-0.6C9,122.2,8.7,123.9,9.4,124.1z"/>
<path class="st0" d="M6.4,106.9h0.2l0.2-1.6c-0.8-0.3-0.3,0.1-0.2-1.2H6.2C6.2,105.2,6.4,105.6,6.4,106.9z"/>
<path class="st0" d="M6.4,389.1h0.2l0.2-1.6c-0.8-0.3-0.3,0.1-0.2-1.2H6.2C6.2,387.5,6.4,387.9,6.4,389.1z"/>
<path class="st0" d="M6.6,103.7v-2.5c-0.6,0.4-0.4,0-0.4,1c0,0.4,0,1,0,1.4H6.6z"/>
<path class="st0" d="M6.6,386v-2.5c-0.6,0.4-0.4,0-0.4,1c0,0.4,0,1,0,1.4H6.6z"/>
<path class="st0" d="M7,281.9c-1,0.7-1,1.1-1.6,2.3c0.7-0.2,0.6-0.2,0.9-0.9C6.6,282.8,6.8,282.3,7,281.9z"/>
<path class="st0" d="M7-1.3C6-0.6,6-0.2,5.4,0.9C6.1,0.7,6,0.7,6.3,0C6.6-0.4,6.8-0.9,7-1.3z"/>
<path class="st0" d="M15.1,189.7h-0.4l-0.4-0.2c-0.3,1.1-0.6,0.9,0.4,1.4C14.9,190.2,15,190.3,15.1,189.7z"/>
<path class="st0" d="M10.6,103.9c0.2-0.9,0.5-1.1-0.4-1.4C10.1,102.9,9.6,103.9,10.6,103.9z"/>
<path class="st0" d="M10.6,386.2c0.2-0.9,0.5-1.2-0.4-1.4C10.1,385.2,9.6,386.2,10.6,386.2z"/>
<path class="st0" d="M9.4,84.7l0.2-2H9.2c0,1.1-0.2,1.1-0.2,2H9.4z"/>
<path class="st0" d="M8.2,88.5l-0.1,0.1l-0.5,0.6c-0.3,0.5-0.2,1.1,0.1,1.5C8,90.1,8.2,89.3,8.2,88.5z"/>
<path class="st0" d="M8.2,370.8L8.2,370.8L8,370.9l-0.4,0.8c-0.2,1,0.2,1.1,0.2,1.2C8,372.4,8.2,371.6,8.2,370.8z"/>
<path class="st0" d="M6.6,99.6c0-2.9,0.4-3-0.4-3.9L6.6,99.6z"/>
<path class="st0" d="M6.6,381.8c0-1.5,0.2-3-0.1-3.6c-0.4-0.6-0.1-0.1-0.3-0.3L6.6,381.8z"/>
<path class="st0" d="M12.6,163.5c0-1.2-0.2-1.5-0.2-2.7h-0.2C12.2,161.9,12,163,12.6,163.5z"/>
<path class="st0" d="M11.8,162.1c0-0.9-0.2-1.1-0.2-2.3h-0.2v2.3H11.8z"/>
<path class="st0" d="M16.1,175.8c0-0.8,0.1-0.8-0.2-1.4c-0.3,0.2-0.4,0-0.4,0.6C15.5,175.6,15.8,175.7,16.1,175.8z"/>
<path class="st0" d="M12.8,179.3c0-0.8,0.2-0.5,0.2-1.4c0-0.6-0.1-0.4-0.4-0.6v2H12.8z"/>
<path class="st0" d="M7.8,376.7c0.1-0.4,0.2-0.8,0.2-1.2c-0.6,0.4-0.6,0.3-0.6,1.2H7.8z"/>
<path class="st0" d="M7.8,94.4C7.9,94,8,93.5,8,93.1c-0.6,0.4-0.6,0.3-0.6,1.2H7.8z"/>
<path class="st0" d="M8.6,99.2c0.1-0.4-0.1-0.9-0.4-1.2c-0.3,0.2-0.2,0.1-0.6,0.2L8.6,99.2z"/>
<path class="st0" d="M8.6,381.4c0.1-0.4-0.1-0.9-0.4-1.2c-0.2,0.1-0.4,0.2-0.6,0.2L8.6,381.4z"/>
<path class="st0" d="M10.2,370v-1.6c-0.1,0.2-0.1,0.1-0.3,0.3C9.7,368.9,9.7,369.9,10.2,370z"/>
<path class="st0" d="M10.2,87.7v-1.6c-0.1,0.1-0.1,0-0.3,0.3C9.7,86.7,9.7,87.7,10.2,87.7z"/>
<path class="st0" d="M13.6,211.4c0-1.3,0.4-1.4-0.2-1.8v1.8H13.6z"/>
<polygon class="st0" points="8.2,88.5 8.6,88.8 8.6,87.5 8.2,87.5 "/>
<polygon class="st0" points="8.2,370.8 8.6,371 8.6,369.8 8.2,369.8 "/>
<path class="st0" d="M13.4,277.3c0-1,0.2-0.8-0.4-1.2v1.2H13.4z"/>
<path class="st0" d="M11.4,9.2c-0.1-0.7-0.1-0.7-0.8-0.8C10.8,9.1,10.7,9,11.4,9.2z"/>
<path class="st0" d="M11.4,291.5c-0.1-0.7-0.1-0.7-0.8-0.8C10.8,291.3,10.7,291.2,11.4,291.5z"/>
<path class="st0" d="M7.8,101.2c-0.1-0.8,0.1-0.6-0.6-0.8v0.8H7.8z"/>
<path class="st0" d="M7.8,383.5c-0.1-0.8,0.1-0.6-0.6-0.8v0.8H7.8z"/>
<path class="st0" d="M10.2,361.4c0-0.6-0.1-0.4-0.4-0.6v1.5C10.2,361.7,10.2,361.9,10.2,361.4z"/>
<path class="st0" d="M10.2,79.2c0-0.6-0.1-0.4-0.4-0.6V80c0.1-0.2,0.1-0.1,0.3-0.3S10.2,80,10.2,79.2z"/>
<path class="st0" d="M11.4,67c-0.1-0.5-0.1-0.5-0.2-1h-0.8L11.4,67z"/>
<path class="st0" d="M11.4,349.2c-0.1-0.5-0.1-0.5-0.2-1h-0.8L11.4,349.2z"/>
<path class="st0" d="M12,0.7c0.6-0.5,0.6-0.5,0.4-1.2l-0.3,0.4L12,0C12,0.1,11.8,0.5,12,0.7z"/>
<polygon class="st0" points="8.8,56.5 8.8,55.6 8.4,55.6 8.2,56.5 "/>
<path class="st0" d="M8,349.4l0.2-0.4c0-0.6-0.1-0.4-0.4-0.6C7.7,348.8,7.4,349.3,8,349.4z"/>
<path class="st0" d="M8,67.2l0.2-0.4c0-0.6-0.1-0.4-0.4-0.6C7.7,66.5,7.4,67.1,8,67.2z"/>
<rect x="8" y="385.2" class="st0" width="0.4" height="1"/>
<rect x="8" y="102.9" class="st0" width="0.4" height="1"/>
<rect x="14.7" y="187.7" class="st0" width="0.2" height="2"/>
<rect x="9.2" y="365" class="st0" width="0.4" height="1"/>
<path class="st0" d="M12,284.1c0.6-0.4,0.6-0.5,0.4-1.2l-0.1,0.1l-0.4,0.7C11.9,283.8,11.9,284,12,284.1z"/>
<polygon class="st0" points="11.4,154.6 11.6,153.4 11.2,153.4 11.2,154.6 "/>
<path class="st0" d="M11.4,337.8c-0.1-0.8,0.1-0.6-0.6-0.8v0.8C11.2,337.6,11,337.5,11.4,337.8z"/>
<path class="st0" d="M7.2,95c-0.6-0.8-0.6,0.1-0.6-1H6.4v1H7.2z"/>
<path class="st0" d="M7.2,377.3c-0.6-0.8-0.6,0.1-0.6-1H6.4v1H7.2z"/>
<path class="st0" d="M13.2,201.3l-0.1-1.1c-0.1-0.3-0.1-0.2-0.3-0.3C12.8,200.5,12.7,201.2,13.2,201.3z"/>
<rect x="11" y="125.2" class="st0" width="0.2" height="1.8"/>
<path class="st0" d="M13.2,319.1v-1.2C13.1,318,12.3,319,13.2,319.1z"/>
<path class="st0" d="M9.6,93.6v-1H9.2C9.2,93.2,9.1,93.6,9.6,93.6z"/>
<path class="st0" d="M9.6,376.1v-1H9.2C9.2,375.6,9.1,376,9.6,376.1z"/>
<path class="st0" d="M8.2,182.4v-1c-0.6,0.4-0.4,0-0.4,1H8.2z"/>
<path class="st0" d="M14.7,304.4c0-0.4,0.1-0.3-0.4-0.8v1.2C14.5,304.7,14.7,304.7,14.7,304.4z"/>
<path class="st0" d="M14.7,22c0-0.5,0.1-0.3-0.4-0.8v1.2C14.5,22.4,14.7,22.4,14.7,22z"/>
<path class="st0" d="M11.4,55.4c-0.1-0.9,0.2-0.4-0.4-0.8c-0.1,0.2-0.2,0.5-0.2,0.8C11.2,55.3,11,55.2,11.4,55.4z"/>
<rect x="6.4" y="374" class="st0" width="0.2" height="1.6"/>
<rect x="6.4" y="91.7" class="st0" width="0.2" height="1.6"/>
<rect x="8.4" y="355.3" class="st0" width="0.4" height="0.8"/>
<rect x="8.4" y="73" class="st0" width="0.4" height="0.8"/>
<rect x="9" y="366.2" class="st0" width="0.4" height="0.8"/>
<rect x="14.9" y="176.4" class="st0" width="0.4" height="0.8"/>
<path class="st0" d="M8.4,83.1v-1C8.2,82.2,8,82.2,8,82.5C8,82.8,8.1,83.1,8.4,83.1z"/>
<path class="st0" d="M13.2,36.8v-1c-0.2,0.1-0.4,0.1-0.4,0.4C12.8,36.5,12.9,36.7,13.2,36.8z"/>
<path class="st0" d="M8.4,365.4v-1c-0.2,0.1-0.4,0.2-0.4,0.4S8.1,365.4,8.4,365.4z"/>
<path class="st0" d="M7.2,76.2v-1c-0.1,0.1-0.1,0-0.3,0.3c-0.2,0.5-0.1,0.1-0.1,0.7H7.2z"/>
<path class="st0" d="M7.2,358.5v-1c-0.1,0.2-0.1,0-0.3,0.3c-0.2,0.5-0.1,0.1-0.1,0.7H7.2z"/>
<path class="st0" d="M12.4,393.1v-1c-0.1,0.2-0.1,0-0.3,0.3c-0.1,0.5,0,0.2-0.1,0.7H12.4z"/>
<path class="st0" d="M14.7,180.5h-0.4v1c0.1-0.1,0.1,0,0.3-0.3C14.8,180.7,14.7,181.1,14.7,180.5z"/>
<path class="st0" d="M8.8,338c-0.5,0.2-0.4,0-0.6,0.8C9.1,338.4,8.7,339,8.8,338z"/>
<rect x="13.4" y="274.1" class="st0" width="0.2" height="1.4"/>
<rect x="12.8" y="198" class="st0" width="0.2" height="1.4"/>
<path class="st0" d="M12.4,110.8v-1h-0.2c0,0.3-0.1,0.7-0.2,1H12.4z"/>
<path class="st0" d="M11.4,320.5v-0.8H11C11.1,320.2,11,320.4,11.4,320.5z"/>
<path class="st0" d="M4.4,120.2c-0.1-0.9,0.2-0.4-0.4-0.8v0.8H4.4z"/>
<path class="st0" d="M4.4,402.5c-0.1-0.9,0.2-0.3-0.4-0.8v0.8H4.4z"/>
<path class="st0" d="M8.8,57H8.4v0.8C9,57.4,8.7,58,8.8,57z"/>
<path class="st0" d="M8.8,339.3H8.4v0.8C9,339.6,8.7,340.2,8.8,339.3z"/>
<path class="st0" d="M8.6,148.3v-0.6c-0.6,0.2-0.1-0.3-0.6,0.6H8.6z"/>
<path class="st0" d="M11,37.5c0.1,0.9-0.2,0.4,0.4,0.8C11.4,37.1,11.5,37.7,11,37.5z"/>
<rect x="9.6" y="362.7" class="st0" width="0.4" height="0.6"/>
<rect x="7.8" y="41" class="st0" width="0.4" height="0.6"/>
<rect x="9.6" y="80.4" class="st0" width="0.4" height="0.6"/>
<rect x="14.5" y="178.5" class="st0" width="0.2" height="1.2"/>
<path class="st0" d="M11.2,340.9c0.1-0.7,0.4-0.6-0.4-0.8l0.2,0.4C11.2,340.9,11,340.6,11.2,340.9z"/>
<path class="st0" d="M11.2,58.7c0.1-0.7,0.4-0.6-0.4-0.8c0,0.1,0.1,0.4,0.2,0.4C11.2,58.7,11,58.4,11.2,58.7z"/>
<path class="st0" d="M9,351.3c-0.6,0.4-0.3-0.1-0.4,0.8C9.2,351.6,8.9,352.2,9,351.3z"/>
<path class="st0" d="M10.2,173.4c-0.6,0.5-0.3-0.1-0.4,0.8C10.4,173.9,10.1,174.4,10.2,173.4z"/>
<path class="st0" d="M9,69.1c-0.6,0.5-0.3-0.1-0.4,0.8C9.2,69.4,8.9,70,9,69.1z"/>
<path class="st0" d="M10.4,386.6v0.8C11,387,11,387,10.4,386.6z"/>
<path class="st0" d="M10.4,104.3v0.8C11,104.7,11,104.7,10.4,104.3z"/>
<path class="st0" d="M11.6,57.4c0-0.3,0.1-0.2-0.1-0.5c-0.3-0.7-0.1-0.3-0.3-0.5C11.3,57,11.3,57.2,11.6,57.4z"/>
<rect x="14.1" y="196.2" class="st0" width="0.2" height="1"/>
<path class="st0" d="M12.6,320.1v-0.6h-0.4C12.3,319.8,12.3,320,12.6,320.1z"/>
<path class="st0" d="M12.6,37.9v-0.6h-0.4C12.3,37.6,12.3,37.8,12.6,37.9z"/>
<path class="st0" d="M8.2,323.9v-0.6H7.8C7.9,323.7,7.8,323.8,8.2,323.9z"/>
<path class="st0" d="M12.8,185.1c-0.6,0.2-0.4,0-0.6,0.6C13,185.3,12.6,185.8,12.8,185.1z"/>
<path class="st0" d="M13.9,207.6h-0.5v0.8c0.1-0.2,0,0.1,0.2-0.4L13.9,207.6z"/>
<path class="st0" d="M9.2,368.1c-0.1-0.6,0-0.3-0.4-0.6v0.6H9.2z"/>
<path class="st0" d="M13.6,206.5c-0.1-0.6,0-0.3-0.4-0.6v0.6H13.6z"/>
<path class="st0" d="M9.2,85.8c-0.1-0.6,0-0.3-0.4-0.6v0.6H9.2z"/>
<path class="st0" d="M14.9,297.3v-0.6c-0.4,0.3-0.3,0-0.4,0.6H14.9z"/>
<path class="st0" d="M14.9,15v-0.6c-0.4,0.3-0.3,0-0.4,0.6H14.9z"/>
<path class="st0" d="M11.6,339.5c-0.1-0.4,0.1,0-0.1-0.5c-0.1-0.1-0.2-0.2-0.3-0.3C11.3,339.1,11.2,339.4,11.6,339.5z"/>
<path class="st0" d="M12.4,29.2c-0.1-0.4,0.1,0-0.1-0.5c-0.1-0.3-0.1-0.2-0.3-0.3C12.1,28.8,12,29.1,12.4,29.2z"/>
<path class="st0" d="M12.4,311.4c-0.1-0.4,0.1,0-0.1-0.5c-0.1-0.1-0.2-0.2-0.3-0.3C12.1,311,12,311.3,12.4,311.4z"/>
<rect x="4.6" y="417.3" class="st0" width="0.2" height="1.8"/>
<rect x="12.4" y="124.1" class="st0" width="0.2" height="0.8"/>
<rect x="4.6" y="135.1" class="st0" width="0.2" height="0.8"/>
<rect x="12.4" y="406.4" class="st0" width="0.2" height="0.8"/>
<rect x="12.6" y="169.1" class="st0" width="0.2" height="0.8"/>
<rect x="7.2" y="89" class="st0" width="0.2" height="0.8"/>
<rect x="12" y="73" class="st0" width="0.2" height="0.8"/>
<rect x="12" y="355.3" class="st0" width="0.2" height="0.8"/>
<rect x="7.2" y="371.4" class="st0" width="0.2" height="0.8"/>
<rect x="13.2" y="174.6" class="st0" width="0.2" height="0.8"/>
<path class="st0" d="M10.6,287.6c-0.5-0.6,0.1-0.3-0.8-0.4c0.1,0.1,0,0.1,0.3,0.3C10.6,287.7,10.3,287.5,10.6,287.6z"/>
<path class="st0" d="M10.6,5.2c-0.5-0.6,0.1-0.3-0.8-0.4c0.1,0.1,0,0.1,0.3,0.3C10.6,5.3,10.3,5.1,10.6,5.2z"/>
<path class="st0" d="M11,37.5c-0.1-0.6,0-0.3-0.4-0.6C10.7,37.9,10.4,37.2,11,37.5z"/>
<path class="st0" d="M13.4,208.4c0,0.1-0.4-0.2-0.1,0.4c0.3,0.6-0.2,0,0.3,0.2C13.5,208.5,13.6,208.9,13.4,208.4z"/>
<path class="st0" d="M10.6,319.1v0.6C11.2,319.2,11.2,319.5,10.6,319.1z"/>
<path class="st0" d="M11.2,36.6v0.6C11.8,36.7,11.8,37.1,11.2,36.6z"/>
<path class="st0" d="M11.2,318.9v0.6C11.8,319,11.8,319.3,11.2,318.9z"/>
<path class="st0" d="M11.2,84.1l-0.4-0.4c0,1.1,0,0.3,0.2,0.6L11.2,84.1z"/>
<path class="st0" d="M11.2,366.4l-0.3-0.4c0,1.1,0,0.3,0.2,0.6L11.2,366.4z"/>
<path class="st0" d="M8.2,391.1c-0.1-0.6,0-0.3-0.4-0.6C7.9,390.9,7.8,391.1,8.2,391.1z"/>
<path class="st0" d="M10.8,74c-0.1-0.6,0-0.3-0.4-0.6C10.5,73.8,10.4,73.9,10.8,74z"/>
<path class="st0" d="M10.8,356.3c-0.1-0.6,0-0.3-0.4-0.6C10.5,356.1,10.4,356.2,10.8,356.3z"/>
<path class="st0" d="M8.2,108.9c-0.1-0.6,0-0.3-0.4-0.6C7.9,108.7,7.8,108.9,8.2,108.9z"/>
<rect x="15.9" y="176.8" class="st0" width="0.2" height="0.6"/>
<rect x="6.4" y="370.8" class="st0" width="0.2" height="0.6"/>
<rect x="13" y="187.3" class="st0" width="0.2" height="0.6"/>
<rect x="11.6" y="337.1" class="st0" width="0.2" height="0.6"/>
<rect x="9.2" y="411.8" class="st0" width="0.2" height="0.6"/>
<rect x="9.2" y="129.5" class="st0" width="0.2" height="0.6"/>
<rect x="6.4" y="88.6" class="st0" width="0.2" height="0.6"/>
<rect x="11.6" y="54.8" class="st0" width="0.2" height="0.6"/>
<rect x="14.7" y="298.5" class="st0" width="0.2" height="0.6"/>
<rect x="7.4" y="102.3" class="st0" width="0.2" height="0.6"/>
<rect x="7.4" y="384.6" class="st0" width="0.2" height="0.6"/>
<rect x="14.7" y="16.2" class="st0" width="0.2" height="0.6"/>
<rect x="4.2" y="2" class="st0" width="0.2" height="1.6"/>
<rect x="12" y="164.3" class="st0" width="0.2" height="0.6"/>
<rect x="4.2" y="285.3" class="st0" width="0.2" height="0.6"/>
<rect x="10.8" y="350.2" class="st0" width="0.2" height="0.6"/>
<rect x="13.2" y="253" class="st0" width="0.2" height="0.6"/>
<rect x="10.8" y="68" class="st0" width="0.2" height="0.6"/>
<path class="st0" d="M13.6,121.4l-0.4,0.6C13.8,121.8,13.6,122.4,13.6,121.4z"/>
<path class="st0" d="M9-4.1C8.4-3.9,8.7-4.5,8.6-3.5c0,0,0-0.1,0.1-0.1s0.1-0.1,0.1-0.1S8.9-4,9-4.1z"/>
<path class="st0" d="M8.8,233.1c-0.4,0.3-0.3,0-0.4,0.6C8.9,233.4,8.6,233.7,8.8,233.1z"/>
<path class="st0" d="M9,279.3c-0.6,0.2-0.3-0.4-0.4,0.6c0,0,0-0.1,0.1-0.1L9,279.3z"/>
<path class="st0" d="M8.4,106.2c0.2,0,0.4-0.4,0-0.3C8.3,105.9,7.9,106.3,8.4,106.2z"/>
<path class="st0" d="M8.4,388.5c0.2,0,0.4-0.4,0-0.3C8.3,388.3,7.9,388.6,8.4,388.5z"/>
<path class="st0" d="M10.6,76.2c-0.5,0.1-0.3-0.1-0.4,0.4C10.7,76.6,10.4,76.8,10.6,76.2z"/>
<path class="st0" d="M10.6,358.5c-0.5,0.1-0.3-0.1-0.4,0.4C10.7,358.9,10.4,359.1,10.6,358.5z"/>
<path class="st0" d="M11.8,332.3c0.2-0.2-0.3-0.7-0.1-0.2C11.7,332.1,11.5,332.8,11.8,332.3z"/>
<path class="st0" d="M13.6,184.4c0.2-0.2-0.3-0.7-0.1-0.2C13.5,184.2,13.3,184.9,13.6,184.4z"/>
<path class="st0" d="M13.6,205.1c0.2-0.2-0.3-0.7-0.1-0.2C13.5,204.9,13.3,205.5,13.6,205.1z"/>
<path class="st0" d="M11.8,33.5c0.2-0.2-0.3-0.7-0.1-0.2C11.7,33.2,11.5,33.8,11.8,33.5z"/>
<path class="st0" d="M11.4,307.2c0.2-0.2-0.3-0.7-0.1-0.2C11.3,307,11.1,307.6,11.4,307.2z"/>
<path class="st0" d="M12,347.4c0.2-0.2-0.3-0.7-0.1-0.2C11.9,347.1,11.7,347.7,12,347.4z"/>
<path class="st0" d="M10.2,405.2c0.2-0.2-0.3-0.7-0.1-0.2C10.1,404.8,9.9,405.5,10.2,405.2z"/>
<path class="st0" d="M12.6,189.5c0.2-0.2-0.3-0.7-0.1-0.2C12.5,189.2,12.3,189.8,12.6,189.5z"/>
<path class="st0" d="M12,65.1c0.2-0.2-0.3-0.7-0.1-0.2C11.9,64.8,11.7,65.4,12,65.1z"/>
<path class="st0" d="M11.4,24.9c0.2-0.2-0.3-0.7-0.1-0.2C11.3,24.7,11.1,25.3,11.4,24.9z"/>
<path class="st0" d="M10.8,110.1c0.2-0.2-0.3-0.7-0.1-0.2C10.7,109.9,10.5,110.5,10.8,110.1z"/>
<path class="st0" d="M10.8,392.5c0.2-0.2-0.3-0.7-0.1-0.2C10.7,392.2,10.5,392.9,10.8,392.5z"/>
<path class="st0" d="M10.2,71.1c0.2-0.2-0.3-0.7-0.1-0.2C10.1,70.9,9.9,71.4,10.2,71.1z"/>
<path class="st0" d="M12.4,177.2c0.2-0.2-0.3-0.7-0.1-0.2C12.3,177,12.1,177.5,12.4,177.2z"/>
<path class="st0" d="M11.8,344.5c0.2-0.2-0.3-0.8-0.1-0.3C11.7,344.2,11.5,344.8,11.8,344.5z"/>
<path class="st0" d="M11.8,50.1c0.2-0.2-0.3-0.7-0.1-0.2C11.7,49.9,11.5,50.5,11.8,50.1z"/>
<path class="st0" d="M14.9,186c0.2-0.2-0.3-0.7-0.1-0.2C14.8,185.7,14.6,186.4,14.9,186z"/>
<path class="st0" d="M11.8,315.8c0.2-0.2-0.3-0.7-0.1-0.2C11.7,315.5,11.5,316.1,11.8,315.8z"/>
<path class="st0" d="M11.8,62.2c0.2-0.2-0.3-0.7-0.1-0.2C11.7,61.9,11.5,62.5,11.8,62.2z"/>
<path class="st0" d="M12.4,160.4c0.2-0.2-0.3-0.7-0.1-0.2C12.3,160.2,12.1,160.7,12.4,160.4z"/>
<path class="st0" d="M13.9,212.9c0.2-0.2-0.3-0.7-0.1-0.2C13.8,212.7,13.5,213.3,13.9,212.9z"/>
<path class="st0" d="M10.2,353.4c0.2-0.2-0.3-0.7-0.1-0.2C10.1,353.2,9.9,353.7,10.2,353.4z"/>
<path class="st0" d="M10.2,122.8c0.2-0.2-0.3-0.7-0.1-0.2C10.1,122.5,9.9,123.1,10.2,122.8z"/>
<path class="st0" d="M11.4,150.4c0.2-0.2-0.3-0.7-0.1-0.2C11.3,150.2,11.1,150.8,11.4,150.4z"/>
<path class="st0" d="M12.8,175.8c0.2-0.2-0.3-0.7-0.1-0.2C12.7,175.6,12.5,176.2,12.8,175.8z"/>
<path class="st0" d="M12.2,29.8c0.2-0.2-0.3-0.7-0.1-0.2C12.1,29.5,11.9,30.1,12.2,29.8z"/>
<path class="st0" d="M16.5,177.2c0.2-0.2-0.3-0.7-0.1-0.2C16.4,177,16.2,177.5,16.5,177.2z"/>
<path class="st0" d="M12.2,145.2c0.2-0.2-0.3-0.7-0.1-0.2C12.1,145,11.9,145.7,12.2,145.2z"/>
<path class="st0" d="M12.2,312c0.2-0.2-0.3-0.7-0.1-0.2C12.1,311.7,11.9,312.3,12.2,312z"/>
<path class="st0" d="M11.8,151.9c0.2,0,0.5-0.4,0-0.3c-0.5,0.1,0-0.5-0.1,0.1C11.7,151.9,11.4,151.9,11.8,151.9z"/>
<path class="st0" d="M10.8,31.6c0.2,0,0.5-0.4,0-0.3s0-0.5-0.1,0.1C10.7,31.7,10.4,31.6,10.8,31.6z"/>
<path class="st0" d="M10.8,314c0.2,0,0.5-0.4,0-0.3s0-0.5-0.1,0.1C10.7,314,10.4,314,10.8,314z"/>
<path class="st0" d="M12.6,407.8c0.2,0,0.5-0.4,0-0.3s0-0.5-0.1,0.1C12.5,407.8,12.2,407.8,12.6,407.8z"/>
<path class="st0" d="M11.6,91.9c0.1,0,0-0.2,0-0.2s0.5-0.4,0-0.1C11.6,91.5,11.2,91.9,11.6,91.9z"/>
<path class="st0" d="M11.4,96.7c0.1,0,0-0.2,0-0.2s0.5-0.4,0-0.1C11.4,96.4,11,96.7,11.4,96.7z"/>
<path class="st0" d="M12.2,43.7l-0.4-0.2c0.1,0.3-0.1,0.2,0.1,0.3C12.1,43.9,11.9,43.8,12.2,43.7z"/>
<path class="st0" d="M12.2,326l-0.4-0.2c0.1,0.3-0.1,0.2,0.1,0.3C12.2,326.1,11.9,326.2,12.2,326z"/>
<path class="st0" d="M10.2,232c0.1,0,0-0.2,0-0.2s0.5-0.4-0.1-0.1l0,0C10.1,232,9.9,232,10.2,232z"/>
<path class="st0" d="M11.8,219.6c0.1,0,0-0.2,0-0.2s0.5-0.4,0-0.1l0,0v0.1C11.8,219.5,11.4,219.6,11.8,219.6z"/>
<path class="st0" d="M11.6,374.2c0.1,0,0-0.2,0-0.2s0.5-0.3,0-0.1v0.1C11.6,374.1,11.2,374.2,11.6,374.2z"/>
<path class="st0" d="M11.4,378.9c0.1,0,0-0.2,0-0.2s0.5-0.3,0-0.1v0.1C11.4,378.8,11,378.9,11.4,378.9z"/>
<polygon class="st0" points="12,351.7 12,351.5 11.8,351.7 "/>
<polygon class="st0" points="12,69.5 12,69.3 11.8,69.5 "/>
<polygon class="st0" points="15.1,189.7 15.3,189.7 15.2,189.4 "/>
<path class="st0" d="M6.4,372.2L6.4,372.2C6.5,371.9,6.9,372.4,6.4,372.2L6.4,372.2L6.4,372.2C6.4,372,6.4,372,6.4,372.2z"/>
<path class="st0" d="M13.2,416.1C13.2,416.1,13.1,416,13.2,416.1L13.2,416.1C13.2,416,13.2,416.1,13.2,416.1z"/>
<path class="st0" d="M13.6,187.1L13.6,187.1C13.6,187,13.6,187.1,13.6,187.1z"/>
<path class="st0" d="M10.6,142.9L10.6,142.9L10.6,142.9z"/>
<path class="st0" d="M14.7,181.9L14.7,181.9C14.7,181.9,14.7,182,14.7,181.9z"/>
<path class="st0" d="M11.2,124.1L11.2,124.1C11.2,124,11.2,124.1,11.2,124.1z"/>
<path class="st0" d="M10.8,186.5L10.8,186.5C10.8,186.4,10.8,186.5,10.8,186.5z"/>
<path class="st0" d="M13.2,162.5L13.2,162.5L13.2,162.5C13.1,162.4,13.2,162.5,13.2,162.5z"/>
<path class="st0" d="M11.4,151.4L11.4,151.4L11.4,151.4C11.3,151.4,11.4,151.5,11.4,151.4z"/>
<path class="st0" d="M10.8,151.4L10.8,151.4L10.8,151.4C10.7,151.4,10.8,151.5,10.8,151.4z"/>
<path class="st0" d="M10.8,370.1L10.8,370.1C10.8,370.1,10.8,370.2,10.8,370.1z"/>
<path class="st0" d="M13.6,181.7L13.6,181.7L13.6,181.7C13.6,181.7,13.6,181.8,13.6,181.7z"/>
<path class="st0" d="M13.6,190.1l0.2-0.4L13.6,190.1z"/>
<path class="st0" d="M13.6,190.1l-0.2,0.4L13.6,190.1z"/>
<path class="st0" d="M11.4,27.3L11,27.5L11.4,27.3z"/>
</svg>
