<?xml version="1.0" encoding="utf-8"?>
<!-- Generator: Adobe Illustrator 21.0.0, SVG Export Plug-In . SVG Version: 6.00 Build 0)  -->
<svg version="1.1" id="Слой_1" xmlns="http://www.w3.org/2000/svg" xmlns:xlink="http://www.w3.org/1999/xlink" x="0px" y="0px"
	 viewBox="0 0 412.5 49.1" style="enable-background:new 0 0 412.5 49.1;" xml:space="preserve">
<style type="text/css">
	.st0{fill:#FFFFFF;}
</style>
<title>Монтажная область 3</title>
<path class="st0" d="M110.4,7.8c-0.3-0.3-0.6-0.6-1-0.8c0.3,1.6,0.1-0.6-0.4,1.6c-2.4,0.2,0.4,0.3-2-0.2c-0.3,0-0.7,0-1,0V8.3
	c-0.2-0.6,0.1-0.3-0.4-0.6l-0.2,0.8c-0.5,0-1-0.1-1.4-0.2c-1.6,0,0,1-4,1.4c0-0.7,0.4-0.6-1.8-1.2c0.1-0.4,0.1-0.2,0.3-0.5
	c0.4-0.7,0,0.4,0.3-0.5c-0.7-0.1-1.4-0.3-2.1-0.5c-1.7-0.4,0,0.1-1.9,0.1c0,0.3,0.1,0.7,0.2,1c-0.4,0-0.8,0.1-1.2,0.2l-0.6,0.4
	c-0.2-0.7-0.2-0.5,0.2-1c-1.3,0-0.6,0.4-1.1,0.9l-0.2,0.2l-0.1,0.1l-0.1,0c-0.5,0.1-1,0.1-1.6,0.1c-1.4-0.2,0.1-0.2-1.2-0.6
	l-1.4,0.4c0-0.6,0-0.4-0.2-0.8c-0.7,0.5-0.4,0.3-1.1,0.3c-0.6,0-1.1,0-1.7-0.1c0.2-0.2,0.4-0.3,0.6-0.4l-0.3-0.1
	c-0.2-0.1-0.4-0.1-0.6-0.1c-0.2,0.7-0.3,0.7-1,0.8l-1.2,0.2c-0.2,0-1-0.1-1-0.1h-0.1l-0.4-0.1h-0.1l-2.8-0.1c0.3-1,0.3-0.2,0.6-1.2
	c-1.8,1-1.3,1.3-2,1.4s-0.6-0.1-0.8-0.4c0.3-0.5,0.2-0.5,1-0.6V6.9c-0.7-0.1-0.4-0.3-0.9,0.1c-0.8,0.6-0.3,1.4-2.9,1.5
	c-0.1-0.4,0.1-0.2-0.2-0.4H72c-1.5-0.4-1.3-0.1-2-0.6c-0.4,0.8,0.1,0.5-0.6,1c-0.2-0.1-0.4-0.2-0.6-0.4c-0.3-0.2-0.2-0.1-0.6-0.2
	c-0.2,0.8-0.1,0.6-1,0.6V8.1c-0.1,0-0.3,0-0.4,0c-0.4,0.1-0.2,0.1-0.4,0.2c-1,0.1-1.7,0.9-2.1,0c-0.5-0.9,0,0.2-0.1-0.2
	c-0.2-1.1,0.4,0.5,0-0.3c-0.5,0.3-0.2,0.2-1,0.2c-0.2,0.5-0.1,0.2,0,0.8c-0.6-0.1-0.2,0-0.4-0.1c-0.4-0.3-0.6-0.8-0.6-1.3L61,7.1
	c-0.4-0.2,0.2-0.1-0.3,0s0.3,0-0.4,0.1c-1.3,0.2-0.7-0.5-2.7,0.5l0.5,0.7c0,0,0.1,0.1,0.1,0.1c-1.4-0.1-2.8-0.3-4.2-0.6
	c0.2-0.1,0-0.1,0.4-0.2c0.2,0,0.4,0,0.6,0l-0.4-0.4l-0.2-0.2c-1.1-0.5-2,0.2-3,0.2c-1.5-0.1,0.4-0.4-1.3-0.4c-0.6,0-0.9,0.3-1.6,0.4
	c-0.1-0.5-0.3-0.5-0.6-0.8c0.5,0.1,0.9,0.2,1.4,0.2V6.3c-0.5,0-1.1-0.1-1.6-0.2c0,1.5,0.3,1,0.6,2c-0.9,0-3.3,0.5-4.5,0.3
	c-1.7-0.4-0.2,0.4-1.8,0c-1.3-0.3-1,0-2.4-0.1s-1.5-0.6-3.2-0.6c-0.3,0.8,0.2,0-0.2,0.8c-0.4-0.1-0.9,0-1.3,0.1
	c-1.2,0.5-2.5,0.8-3.8,0.7c0.1-0.2,0.8-1-0.5-0.7l-1.7,0.5c-0.1-0.2-0.2-0.3-0.3-0.5l-0.1-0.1l-0.1-0.1l-0.1-0.1L27.1,8
	c-0.6,0-0.2,0-0.8,0.2c-0.2-0.6,0.1-0.1-0.4-0.6c-0.4,0.1-0.2-0.1-0.4,0.5c0,0,0,0.1,0,0.1l-4.1-0.3c0,0-0.7,0.1-0.9,0.1
	c-0.1,0.3-0.2-0.1,0,0.3s0,0,0.2,0.4c-1,0-0.6-0.2-1,0.4c0.7,0.2,0.5,0.1,0.8,0.6c-1,0-1.4,0.2-2.6,0.2h-2.8l-0.2,0.8
	c-0.8-0.2-1.2,0-1.6-0.6c1.7,0,0.9-0.4,2.6-0.4l-1.6-0.2c-0.4-0.7-0.8-0.5-2.3,0c-0.7,0.2-0.2,0.2-1.1,0.3L5.7,9.4
	C6,9,5.9,9.2,6.1,8.6c1.4,0,1.4-0.3,1.2,0.6h1.8c0.4-1.1,0.7-0.1,1.4-1C8.7,8.1,6.9,8,5.1,8.1L2.7,8.1C1.8,8.2,0.9,8.1,0,8
	c0.3,0.6,0,0.5,0,1.6l4,0.2l-0.7,0.4c-0.5,0.4-0.1-0.1-0.1,0.2v0.1c-1.1,0.1-2.1,0.2-3.2,0.2v40.3h412.5V10.8c-0.3,0.2-0.7,0.2-1,0
	c-0.6-0.3-0.4-0.3,0-0.8c-1.1,0-1.4,0.1-1.6-0.8c1.4,0.8,0.6,0,2.4,0V8.7c-1.6-0.2,0.6-0.8-2-0.8c-0.5,1.3-1.2,0.4-0.8,1.4
	c-0.6-0.2-0.5-0.3-0.7-0.3c-0.6,0,0.3,0-0.5,0.3c-0.7-0.2-1.5-0.3-2.2-0.2c-0.3-1.1-0.6-0.5-2-1.2c-0.2-0.6,0.1-0.1-0.4-0.6
	c-0.5,0.1-0.3,0-0.7,0.5l-0.1,0.1l-0.6,0.7c-1.2,0.9-2.9-0.4-4,0.1c0.2-0.6,0.4-0.6,1.2-0.6V7.6c-1.4-0.1,0.2-0.2-1.2-0.6
	c-0.2,0.5,0.1-0.1,0.2,0.8l-1.2,0.2c0.1-1.4,0.6-1.3-1.3-1.8h-0.1l-2.5-0.4c0,0-0.9,0.2-1,0.3l-0.7,0.5L391,7.2
	c-1.3,0.7-2.8,1-4.3,0.9c-0.6,0-1.3,0-1.9,0.1V7.7c-0.4,0.3-0.4,0.4-0.9,0.5s-0.6-0.2-0.9-0.3c-0.5-0.6,0.1-0.3-0.8-0.4
	c-0.6,0.5-0.3,0.1-0.6,1.2c-2.4,0.2,0.5,0.3-2-0.2c-0.3,0-0.7,0-1,0c-0.2-0.4,0.1-0.4-0.4-0.8L378,8.5c-2.1,0-1.4-0.7-2.6,0.4
	c-0.8,0.5-1.8,0.8-2.8,0.8c0-0.7,0.5-0.6-1.8-1.2c0.2-0.7,0.3-0.3,0.6-1c-0.7-0.1-1.4-0.3-2.1-0.5c-1.7-0.4,0,0.1-1.9,0.1
	c0,0.3,0.1,0.7,0.2,1c-0.4,0-0.8,0.1-1.2,0.2v0.4c-1.1-0.1-0.8-0.4-0.4-1c-0.4,0-0.4-0.1-0.7,0.1s-0.1,0.2-0.2,0.4s0,0.3-0.5,0.6
	c-1.5,0.8-3-0.4-3-0.4l-1.4,0.4c0-0.6,0-0.4-0.2-0.8l-0.6,0.3h-0.1c-0.7,0.1-1.4,0-2-0.1c0.2-0.2,0.4-0.3,0.6-0.4
	c0,0-0.1-0.1-0.1-0.1s-0.1-0.1-0.1-0.1c-0.2-0.1-0.4-0.1-0.5-0.1c-0.3,1.1-0.7,0.6-1.7,0.8L351.4,8c-0.6-0.1,0.6,0-0.2,0
	c-0.1,0-0.2,0-0.3,0c-0.3,0.1,0.1,0-0.5,0.2c0.3-1,0.3-0.2,0.6-1.2c-0.5,0.2-1,0.6-1.4,1c-0.4,0.4-0.1,0.3-0.6,0.4s-0.5-0.1-0.8-0.4
	c0.4-0.5,0.2-0.5,1-0.6V7c-2-0.4-0.2,1.5-3.8,1.6c-0.1-0.3,0-0.3-0.3-0.5l-0.3,0L344.1,8h-0.1c-1-0.1-0.5,0.1-1.2-0.4
	c-0.4,0.8,0.1,0.5-0.6,1c-0.2-0.1-0.4-0.2-0.6-0.4c-0.3-0.2-0.2-0.1-0.6-0.2c-0.2,0.8-0.1,0.6-1,0.6l-0.8-0.2c-1,0.1-1.6,0.9-2.1,0
	s0,0.2-0.1-0.2c-0.3-1.1,0.3,0.5,0-0.3c-0.5,0.3-0.2,0.2-1,0.2c-0.2,0.5-0.1,0.2,0,0.8c-1-0.1,0,0.5-1-1c0.5,0,0.3-0.1,0.5-0.1
	l0.3-0.1c1.4-0.4,0.7,0.2,1.3-0.5c-0.7-0.2-1.3-0.2-2-0.2c-0.2,0.5-0.2,0.1,0,0.6l-0.7,0h-0.1l-0.4-0.2c-0.4-0.2,0.2,0-0.7,0.1
	c-1.3,0.2-0.7-0.5-2.7,0.5c0.1,0.5,0.3,0.5,0.6,0.8c-1.4-0.1-2.8-0.3-4.2-0.6c0.2-0.1,0-0.1,0.4-0.2c0.2,0,0.4,0,0.6,0l-0.4-0.4
	l-0.2-0.2c-1.1-0.5-2,0.2-3,0.2c-1.5-0.1,0.4-0.4-1.4-0.4c-0.6,0-0.9,0.3-1.6,0.4l-0.6-0.8c0.5,0.1,0.9,0.2,1.4,0.2V6.5
	c-0.5,0-1.1-0.1-1.6-0.2c0,1.5,0.3,1,0.6,2c-0.5,0-1.1,0-1.6,0.2c-1.1,0.2-2.3,0.2-3.4,0c-0.9,0,0,0.1-0.7,0.2c-0.4,0-0.3,0-0.6-0.1
	c-1.3-0.3-1,0-2.4-0.1s-1.5-0.6-3.2-0.6c-0.4,0.8,0.1,0-0.2,0.8c-0.4-0.1-0.9,0-1.3,0.1L307.3,9l-0.3-0.3c-1.1,0.4-2.2,0.5-3.3,0.5
	c0.1-0.6,0.2-0.3,0-0.8c-0.9,0.1-0.5,0.4-1.1,0.4L301.5,9c-0.2-0.4-0.5-0.6-0.9-0.7l-0.1-0.1c-0.9-0.4-0.7-0.2-1.6,0
	c-0.3-0.6,0.1-0.1-0.4-0.6c-0.6,0.2,0-0.1-0.3,0.2l-0.1,0.4l-0.7,0.1l-1.7-0.1V7.7c0,0,0,0,0-0.1h-0.8c0,0,0,0,0,0.1
	c0,0.1,0,0.1-0.1,0.2c0,0.2,0.1,0-0.1,0.3c-1-0.7-0.2-0.2-1.6-0.2c-0.1,0.3-0.2-0.1,0,0.3s0,0,0.2,0.4c-0.8,0-0.5-0.1-1,0.2
	c0.5,0.6,0.3,0.2,0.8,0.8c-1.1-0.2-2.7,0.6-4.3,0.1l-1.5-0.3c0.1-0.7,0-0.1,0.1-0.5s0,0.2,0.3-0.5c-0.7-0.1-0.6,0-1-0.4
	c1.1,0,4.9,0.4,5.8-0.4L280.7,8c-0.8,0.1-1.8,0-2.6,0c-0.3,0-0.8,0.1-1,0.1L273.7,8c0,0,0.1-0.1,0.1-0.1l0.5-0.5
	c-0.9-0.1-1.7-0.1-2.6,0c-0.9,0.2-1.9,0.3-2.8,0.2c0.2,0.5,0.2,0.1,0,0.6c1.4-0.3,2.8-0.5,4.2-0.4h0.2c0,0,0,0,0,0
	c0,0.3-0.9,0.8-1.2,0.9l-2.5,0.7c-0.6,0.1-1.2,0.1-1.8,0c-0.1,0.5-0.2-0.3,0.1,0.2s0.2-0.2,0.1,0.2c-0.6,0.3-0.4,0.2-1.2,0.2
	c-0.1-0.1-0.1-0.2-0.1-0.3c0,0,0-0.1,0-0.1V9.5V9.4c-0.8,0.2-0.3,0.3-1,0.3c-0.3,0-0.8-0.2-1.3-0.3c-1.2-0.2-0.5,0.1-1.6,0.2
	c-0.3,0-0.5,0-0.8,0v-1c-0.9,0.6-0.8,1-2.8,1.2c-0.1-0.7-0.1-0.7-0.8-0.8c0.2,0.8,1.1,1.2-1.2,1.4c-0.4-0.6-0.6-0.5-0.8-1.4h1.6
	c-0.2-0.9-0.8-0.8-1.5-0.5l-0.1,0c-0.3,0.1-0.6,0.1-0.9,0.1c0.5,1,0.2,0.8,0.2,2.2c-1.3,0-2.4,1.1-3.3,0.3l-0.3-0.7
	c-1.3-0.1-2.6,0-3.8,0.2c0.2-0.8,0.4-0.6,0.8-1.2c-0.9-0.2-1.4-0.3-1.4,1c-1,0.1-0.5,0.2-1.5,0.1c-0.6-0.1-1.4-0.5-2-0.3
	c-1,0.3,0.4-0.1-0.3,0.1c-0.1,0-0.2,0.1-0.4,0.2c-0.5,0.2-1,0.3-1.5,0.4c0,0,0.1,0,0.1,0.1c0.1,0.3,0-0.1,0.3,0.1s0.2-0.1,0.4,0.4
	c-0.4,0.2-0.7,0.4-1.1,0.5c-1.2,0.3-1-0.3-1.1,0.7l-3.6,0.2c-1.4-0.3-0.6-0.3-0.7-0.5c-0.3-0.5,0-0.4-0.3-1.1
	c-1.6,1-0.6,0.3-2.6,0.2s-1.2-0.2-1.1-0.4l0.1-0.1l0.3-0.7c-1.4,0.1,0.2,0.1-0.6,0.3l-0.7-0.2c-0.2,0-0.5,0-0.8,0l-0.2,0.1
	c-0.4,0.1,0.5,0.1-0.6,0.2l0.7,0.3l0.1,0.1c-1,0.1-0.5,0.2-1.7,0.1c-2.1-0.2-1.4,0.7-4.9-0.1c-0.4-0.2-0.9-0.2-1.4-0.2
	c-0.9-0.1-0.6-0.2-1.4-0.4c0.1-1.1,0.6-1,1.4-1.2c0.9-0.3,1.9-0.5,2.8-0.4c-0.2-0.1,0-0.1-0.5-0.2s-0.1,0-0.6,0
	c-1.5,0.1-3-0.1-3.8,0.4s0.2,0.1-0.7,0.3v0.8h0.8c-0.4,0.6,0,0.1-0.4,0.3c-1.3,0.5-6,0.3-7.6,0.3v0.6c-1.1,0-2.2,0.2-3.2,0.4
	c0.4-1.4,0.8,0,2.2-1c-0.5,0-1,0-1.5-0.1c-0.5-0.1-0.5,0.1-0.7-0.5c-0.5-0.3-0.5-0.5-1-0.2c-0.1,0.4,0,0.3-0.2,0.6l-0.9-0.1
	c-1.8-0.4-0.8,0.8-4.4-0.4c-0.7-0.2,0.1-0.1-0.7-0.3l-0.6,0.4c-0.4-0.3-0.3-0.4-1-0.4c-0.5,0-0.5,0.1-1.2,0.2
	c-1.8,0.1-1.5,0-2.4-0.6c0.2,1,0.1,0.3,0,0.6l-3.7,0.1c-1.4,0,0.3-0.4-1.1-0.2s-0.2,1-1.9,0.2c-1.5-0.7-0.4,0.3-2.2,0.4
	c0-1.5,1.1-1.3,1.2-2.6c-0.4,0.1-2.6,1.8-2.8,2.4c-1.6,0-0.3-0.2-1.9,0.1c-0.9,0.2-0.8-0.2-1.5-0.7c-0.6,0.5-1.2,0.9-1.9,1.1
	c-1.4,0.3-2-0.5-2.1,0.9c-1-0.4,0.2-0.1-0.8-0.4c-0.4,0.9,0.1,0.8-1.2,0.8c0.3-0.4,0.8-1,0.1-1.6c-0.3-0.3-0.5-0.3-0.7-0.1
	c-0.4,0.4-0.1-0.1-0.1,0.3l0.2,0.4c-0.9-0.2-1.1-0.8-1.7-0.9c-0.8-0.1-1.7,0-2.5,0.1c0,0,0-0.1,0-0.1s0-0.1,0-0.1
	c0-0.3,0.2,0.3,0-0.3c-0.1-0.2,0-0.3-0.7-0.4c-0.3,0.6-0.1,0.7-0.3,1.3c-0.1,0.4-0.4,0.5-0.7,0.9c-0.4-0.4-1-0.6-1.6-0.6l0.3-0.3
	c0.3-0.3,0.1-0.1,0.3-0.3c-1,0.2-0.6,0-1.8,0c0,0.3,0.1,0.7,0.2,1c-1.5,0-1.1,0.3-2.2,0.4c0-0.8-0.1-0.6,0.2-1.2
	c-1.1,0-1.7-0.2-2.2,0.4c0.5,0,0.9-0.1,1.4-0.2c-0.4,1.4-1,0.2-2.7,0.7c-1,0.4-2.1,0.4-3.1,0.1c-0.3-1.2-0.1-0.5,0-1.6
	c-0.3,0.1-0.6,0.2-0.9,0.4c-0.8,0.3-0.7,0.1-0.9,0.1c-1.4,0.1-0.4,0.3-0.7,1.1c-1-0.1-0.3-0.2-1.2-0.8s-0.4,0.1-1-1
	c1.2,0.3,0.4,0,1.6-0.2c0.7,0,1.5,0,2.2,0h4.4V9.3c-1.4,0-1.3-0.3-2.4-0.4l-4.2-0.2c-0.8-0.1-1.2-0.5-2.1,0c-0.2,0.1,0.6,0-0.4,0.2
	c-0.2,0-0.5,0-0.8,0c0-0.1,0.1-0.4,0.2-0.4c0.1-0.5,0.2,0,0-0.4c-0.5,0.3-0.2,0.2-1,0.2c-0.5-0.6-0.7,0-0.9,0.1
	c-0.6,0.4,0.1,0.3-0.9,0.2s-6-0.3-6.4,0.3c0,0,0,0,0,0.1v0.1L144,9l-0.2,0.1l-0.3,0.1c2,0,2.6,0.4,6,0.4c-0.2,0.7-0.9,1.2-1.6,1.2
	c-1.2,0-0.2-0.6-2.2-0.2c0-1.2,0.1-0.6-0.4-0.8c-0.2,0.5-0.1,0.5,0.2,1l-3,0.1c-0.4,0-0.8,0-1.1,0c-0.1,0,0,0.1-0.5,0
	s-0.3-0.1-0.4-0.1c-0.8-0.2-0.4,0-0.9,0c-0.3,0.1-0.6,0-0.8-0.2c-0.5-0.4-0.4,0.1,0.1-0.7c-1.1,0-1.4,0.1-1.6-0.8
	c0.8,0.4,0.5,0.4,1.2,0.2h0.1l0.5-0.1c0.6-0.2,0.4,0.1,0.6-0.4s0.2,0.2-0.2-0.2c-1.1-1-0.4-0.8-1.8-0.8c-0.4,1.3-1.2,0.4-0.8,1.4
	c-0.6-0.2-0.5-0.3-0.8-0.3c-0.6,0,0.3,0-0.5,0.3c-0.7-0.2-1.5-0.3-2.2-0.2c-0.2-0.8-0.9-1-2-1c0,0,0-0.1,0-0.1l-0.6-0.7l-1.2,1.3
	c-1,0.8-2.8-0.1-3.8-0.1c0.4-0.6,0-0.4,1-0.4V7.7c-1.4-0.1,0.2-0.2-1.2-0.6c-0.2,0.5,0.1-0.1,0.2,0.8l-1.2,0.2c0-0.8,0.9-1.6-2-1.9
	c-4.3-0.5-2.3,0.5-4.6,1.3l-0.5,0.1C114,8.7,116,8,112.2,8.3V7.7c-0.4,0.3-0.4,0.4-0.9,0.5c-0.3,0-0.1,0-0.4,0
	c-0.1,0-0.2-0.1-0.3-0.1L110.4,7.8z"/>
<path class="st0" d="M209.1,10c0.8,0,0.9,0.1,1.8,0.2c2.3,0.1-0.4,0.3,1.4,0.4v-0.4c3-0.1-0.1,0.5,3.4-0.2c0.6-0.1,1.2-0.3,1.8-0.3
	c0.8,0,1,0.6,1.6-0.3c-0.9-0.1-0.7-0.3-1.8-0.1c-0.6,0-1.1,0-1.6,0.1v0.4c-0.7-0.2-0.3-0.2-0.9-0.4c-0.4,0-0.8,0-1.1,0
	c-0.2-0.3,0-0.3-0.5-0.4H213h-0.9c0,0.1,0.1,0.1,0,0.8L209.1,10z"/>
<path class="st0" d="M25.9,3.6C27,4.1,28.3,4,29.3,3.3l0.6-0.4c-0.8-0.2-1.6-0.3-2.4-0.4C26.5,2.4,26.2,2.9,25.9,3.6z"/>
<path class="st0" d="M298.6,3.6c1.3,0.6,1.3,0.4,2.8-0.1l1.3-0.7c-0.8-0.2-1.6-0.3-2.4-0.4C299.2,2.4,298.9,2.9,298.6,3.6z"/>
<path class="st0" d="M41.7,3.2c0.4,1.5,1-0.3,1.4,1.2h0.8l-0.1-0.8C43.5,2.5,42.6,3.4,41.7,3.2z"/>
<path class="st0" d="M314.4,3.2c0.4,1.5,1-0.3,1.4,1.2h0.8c0-0.3,0.1-1.4-0.8-1.4S315.6,3.4,314.4,3.2z"/>
<path class="st0" d="M164.5,9.4c0.9,0,0.7,0.2,1.4,0.2c0.5-0.1,1.1-0.1,1.6-0.2V9C165.1,8.8,165.1,8.5,164.5,9.4z"/>
<path class="st0" d="M62.2,7.2c1.3,0.4-0.7,0,0.6,0.4c0.2-0.5-0.1-0.3,0.4-0.4c0.1,0,0.9,0,1,0V6.8c-0.7-0.2-1.3-0.2-2-0.2
	C62,7.1,62,6.7,62.2,7.2z"/>
<path class="st0" d="M16.1,5.4c0.5,0.3,0.7,0.2,1.6,0.2c0.6,0,0.4-0.1,0.6-0.4C17.8,5,16.1,4.7,16.1,5.4z"/>
<path class="st0" d="M288.7,5.4c0.5,0.3,0.7,0.2,1.6,0.2c0.6,0,0.4-0.1,0.6-0.4C290.5,5,288.9,4.7,288.7,5.4z"/>
<path class="st0" d="M305.4,2.4v0.2l1.6,0.2c0.3-0.8-0.1-0.3,1.2-0.2V2.2C306.9,2.2,306.5,2.4,305.4,2.4z"/>
<path class="st0" d="M32.7,2.4v0.2l1.6,0.2c0.3-0.8-0.1-0.3,1.2-0.2V2.2C34.2,2.2,33.8,2.4,32.7,2.4z"/>
<path class="st0" d="M308.4,2.6h2.4c-0.4-0.6,0-0.4-1-0.4c-0.4,0-1,0-1.4,0L308.4,2.6z"/>
<path class="st0" d="M35.7,2.6h2.4c-0.4-0.6,0-0.4-1-0.4c-0.4,0-1,0-1.4,0L35.7,2.6z"/>
<path class="st0" d="M136.2,3c-0.7-1-1.1-1-2.2-1.6c0.2,0.7,0.2,0.6,0.9,0.9C135.3,2.6,135.8,2.8,136.2,3z"/>
<path class="st0" d="M408.9,3c-0.7-1-1.1-1-2.2-1.6c0.2,0.7,0.2,0.6,0.9,0.9C408,2.6,408.5,2.8,408.9,3z"/>
<path class="st0" d="M225.3,11v-0.4l0.2-0.4c-1.1-0.3-0.9-0.6-1.4,0.4C224.8,10.8,224.7,10.9,225.3,11z"/>
<path class="st0" d="M308.2,6.6c0.9,0.2,1.1,0.5,1.4-0.4C309.2,6.1,308.2,5.6,308.2,6.6z"/>
<path class="st0" d="M35.5,6.6c0.9,0.2,1.2,0.5,1.4-0.4C36.5,6.1,35.5,5.6,35.5,6.6z"/>
<path class="st0" d="M326.7,5.4l2,0.2V5.2c-1.1,0-1.1-0.2-2-0.2V5.4z"/>
<path class="st0" d="M323.1,4.2c0,0-0.1-0.1-0.1-0.1l-0.6-0.5c-0.5-0.3-1.1-0.2-1.5,0.1C321.6,4,322.3,4.2,323.1,4.2z"/>
<path class="st0" d="M50.3,4.2c0,0-0.1-0.1-0.1-0.1S50.2,4,50.2,4l-0.8-0.4c-1-0.2-1.1,0.2-1.2,0.2C48.9,4,49.6,4.2,50.3,4.2z"/>
<path class="st0" d="M312.4,2.6c2.8,0,2.9,0.4,3.8-0.4L312.4,2.6z"/>
<path class="st0" d="M39.7,2.6c1.5,0,2.9,0.2,3.5-0.1c0.6-0.4,0.1-0.1,0.3-0.3L39.7,2.6z"/>
<path class="st0" d="M250.6,8.6c1.2,0,1.5-0.2,2.6-0.2V8.2C252.2,8.2,251.1,8,250.6,8.6z"/>
<path class="st0" d="M252,7.8c0.9,0,1.1-0.2,2.2-0.2V7.4H252V7.8z"/>
<path class="st0" d="M238.8,12c0.8,0,0.8,0.1,1.4-0.2c-0.2-0.3,0-0.4-0.6-0.4S238.9,11.7,238.8,12z"/>
<path class="st0" d="M235.4,8.8c0.8,0,0.5,0.2,1.4,0.2c0.6,0,0.4-0.1,0.6-0.4h-2L235.4,8.8z"/>
<path class="st0" d="M44.7,3.8C45.1,3.9,45.5,4,45.9,4c-0.4-0.6-0.3-0.6-1.2-0.6V3.8z"/>
<path class="st0" d="M317.4,3.8c0.4,0.1,0.8,0.2,1.2,0.2c-0.4-0.6-0.3-0.6-1.2-0.6V3.8z"/>
<path class="st0" d="M312.8,4.6c0.4,0.1,0.9-0.1,1.2-0.4c-0.2-0.3-0.1-0.2-0.2-0.6L312.8,4.6z"/>
<path class="st0" d="M40.1,4.6c0.4,0.1,0.9-0.1,1.2-0.4c-0.1-0.2-0.2-0.4-0.2-0.6L40.1,4.6z"/>
<path class="st0" d="M51.1,6.2h1.6c-0.2-0.1-0.1-0.1-0.3-0.3S51.2,5.7,51.1,6.2z"/>
<path class="st0" d="M323.9,6.2h1.6c-0.1-0.1,0-0.1-0.3-0.3S323.9,5.7,323.9,6.2z"/>
<path class="st0" d="M204.3,9.6c1.3,0,1.4,0.4,1.8-0.2h-1.8V9.6z"/>
<polygon class="st0" points="323.1,4.2 322.8,4.6 324.1,4.6 324.1,4.2 "/>
<polygon class="st0" points="50.3,4.2 50.1,4.6 51.3,4.6 51.3,4.2 "/>
<path class="st0" d="M140.7,9.4c1,0,0.8,0.2,1.2-0.4h-1.2V9.4z"/>
<path class="st0" d="M399.7,7.4c0.7-0.1,0.7-0.1,0.8-0.8C399.8,6.8,399.9,6.7,399.7,7.4z"/>
<path class="st0" d="M127,7.4c0.7-0.1,0.7-0.1,0.8-0.8C127.1,6.8,127.2,6.7,127,7.4z"/>
<path class="st0" d="M310.8,3.8c0.8-0.1,0.6,0.1,0.8-0.6h-0.8V3.8z"/>
<path class="st0" d="M38.1,3.8c0.8-0.1,0.6,0.1,0.8-0.6h-0.8V3.8z"/>
<path class="st0" d="M59.4,6.2c0.6,0,0.4-0.1,0.6-0.4h-1.4C59.1,6.2,58.9,6.2,59.4,6.2z"/>
<path class="st0" d="M332.1,6.2c0.6,0,0.4-0.1,0.6-0.4h-1.4c0.2,0.1,0.1,0.1,0.3,0.3S331.3,6.2,332.1,6.2z"/>
<path class="st0" d="M343.9,7.4c0.5-0.1,0.5-0.1,1-0.2V6.4L343.9,7.4z"/>
<path class="st0" d="M71.2,7.4c0.5-0.1,0.5-0.1,1-0.2V6.4L71.2,7.4z"/>
<path class="st0" d="M406.9,8c0.5,0.6,0.5,0.6,1.2,0.4l-0.4-0.3l-0.1-0.1C407.5,8,407.1,7.8,406.9,8z"/>
<polygon class="st0" points="354,4.8 354.8,4.8 354.8,4.4 354,4.2 "/>
<path class="st0" d="M71,4c0,0,0.4,0.2,0.4,0.2c0.6,0,0.4-0.1,0.6-0.4C71.6,3.7,71.1,3.4,71,4z"/>
<path class="st0" d="M343.7,4c0,0,0.4,0.2,0.4,0.2c0.6,0,0.4-0.1,0.6-0.4C344.3,3.7,343.8,3.4,343.7,4z"/>
<rect x="35.5" y="4" class="st0" width="1" height="0.4"/>
<rect x="308.2" y="4" class="st0" width="1" height="0.4"/>
<rect x="225.3" y="10.6" class="st0" width="2" height="0.2"/>
<rect x="55" y="5.2" class="st0" width="1" height="0.4"/>
<path class="st0" d="M134.2,8c0.4,0.6,0.5,0.6,1.2,0.4c0,0-0.1-0.1-0.1-0.1l-0.7-0.4C134.5,7.9,134.3,7.9,134.2,8z"/>
<polygon class="st0" points="259.2,7.4 260.4,7.6 260.4,7.2 259.2,7.2 "/>
<path class="st0" d="M82.3,7.4c0.8-0.1,0.6,0.1,0.8-0.6h-0.8C82.4,7.2,82.5,7,82.3,7.4z"/>
<path class="st0" d="M316.8,3.2c0.8-0.6-0.1-0.6,1-0.6V2.4h-1V3.2z"/>
<path class="st0" d="M44.1,3.2c0.8-0.6-0.1-0.6,1-0.6V2.4h-1V3.2z"/>
<path class="st0" d="M214.1,9.2l1.1-0.1c0.3-0.1,0.2-0.1,0.3-0.3C214.9,8.8,214.2,8.7,214.1,9.2z"/>
<rect x="285.9" y="7" class="st0" width="1.8" height="0.2"/>
<path class="st0" d="M100.3,9.2h1.2C101.4,9.1,100.4,8.3,100.3,9.2z"/>
<path class="st0" d="M318.1,5.6h1V5.2C318.5,5.2,318.1,5.1,318.1,5.6z"/>
<path class="st0" d="M45.3,5.6h1V5.2C45.8,5.2,45.4,5.1,45.3,5.6z"/>
<path class="st0" d="M232.4,4.2h1c-0.4-0.6,0-0.4-1-0.4V4.2z"/>
<path class="st0" d="M114.6,10.6c0.4,0,0.3,0.1,0.8-0.4h-1.2C114.3,10.4,114.3,10.6,114.6,10.6z"/>
<path class="st0" d="M387.3,10.6c0.5,0,0.3,0.1,0.8-0.4h-1.2C387,10.4,387,10.6,387.3,10.6z"/>
<path class="st0" d="M355,7.4c0.9-0.1,0.4,0.2,0.8-0.4c-0.2-0.1-0.5-0.2-0.8-0.2C355.1,7.2,355.2,7,355,7.4z"/>
<rect x="45.7" y="2.4" class="st0" width="1.6" height="0.2"/>
<rect x="318.4" y="2.4" class="st0" width="1.6" height="0.2"/>
<rect x="64.6" y="4.4" class="st0" width="0.8" height="0.4"/>
<rect x="337.3" y="4.4" class="st0" width="0.8" height="0.4"/>
<rect x="54" y="5" class="st0" width="0.8" height="0.4"/>
<rect x="237.4" y="10.8" class="st0" width="0.8" height="0.4"/>
<path class="st0" d="M328.3,4.4h1c-0.1-0.2-0.1-0.4-0.4-0.4S328.3,4.1,328.3,4.4z"/>
<path class="st0" d="M373,9.2h1c-0.1-0.2-0.1-0.4-0.4-0.4S373.1,8.9,373,9.2z"/>
<path class="st0" d="M55.6,4.4h1C56.5,4.2,56.4,4,56.2,4S55.6,4.1,55.6,4.4z"/>
<path class="st0" d="M334.9,3.2h1c-0.1-0.1,0-0.1-0.3-0.3c-0.5-0.2-0.1-0.1-0.7-0.1V3.2z"/>
<path class="st0" d="M62.2,3.2h1c-0.2-0.1,0-0.1-0.3-0.3c-0.5-0.2-0.1-0.1-0.7-0.1V3.2z"/>
<path class="st0" d="M28.9,8.4h1c-0.2-0.1,0-0.1-0.3-0.3C29.1,8,29.4,8.1,28.9,8V8.4z"/>
<path class="st0" d="M234.2,10.6v-0.4h-1c0.1,0.1,0,0.1,0.3,0.3C234,10.7,233.6,10.6,234.2,10.6z"/>
<path class="st0" d="M82.1,4.8c-0.2-0.5,0-0.4-0.8-0.6C81.7,5.1,81.1,4.7,82.1,4.8z"/>
<rect x="142.4" y="9.4" class="st0" width="1.4" height="0.2"/>
<rect x="215.9" y="8.8" class="st0" width="1.4" height="0.2"/>
<path class="st0" d="M301.6,8.4h1V8.2c-0.3,0-0.7-0.1-1-0.2V8.4z"/>
<path class="st0" d="M98.9,7.4h0.8V7C99.2,7.1,99,7,98.9,7.4z"/>
<path class="st0" d="M292.5,0.4c0.9-0.1,0.4,0.2,0.8-0.4h-0.8V0.4z"/>
<path class="st0" d="M19.8,0.4c0.9-0.1,0.3,0.2,0.8-0.4h-0.8V0.4z"/>
<path class="st0" d="M353.6,4.8V4.4h-0.8C353.2,5,352.6,4.7,353.6,4.8z"/>
<path class="st0" d="M80.8,4.8V4.4h-0.8C80.5,5,79.9,4.7,80.8,4.8z"/>
<path class="st0" d="M265.3,4.6h0.6c-0.2-0.6,0.3-0.1-0.6-0.6V4.6z"/>
<path class="st0" d="M372.4,7c-0.9,0.1-0.4-0.2-0.8,0.4C372.8,7.4,372.2,7.5,372.4,7z"/>
<rect x="57.6" y="5.6" class="st0" width="0.6" height="0.4"/>
<rect x="368.4" y="3.8" class="st0" width="0.6" height="0.4"/>
<rect x="330.3" y="5.6" class="st0" width="0.6" height="0.4"/>
<rect x="235" y="10.4" class="st0" width="1.2" height="0.2"/>
<path class="st0" d="M79.2,7.2c0.7,0.1,0.6,0.4,0.8-0.4L79.6,7C79.2,7.2,79.5,7,79.2,7.2z"/>
<path class="st0" d="M351.9,7.2c0.7,0.1,0.6,0.4,0.8-0.4c-0.1,0-0.4,0.1-0.4,0.2C351.9,7.2,352.2,7,351.9,7.2z"/>
<path class="st0" d="M69.2,5c-0.4-0.6,0.1-0.3-0.8-0.4C68.9,5.2,68.3,4.9,69.2,5z"/>
<path class="st0" d="M241,6.2c-0.5-0.6,0.1-0.3-0.8-0.4C240.6,6.4,240.1,6.1,241,6.2z"/>
<path class="st0" d="M341.9,5c-0.5-0.6,0.1-0.3-0.8-0.4C341.6,5.2,341,4.9,341.9,5z"/>
<path class="st0" d="M35.1,6.4h-0.8C34.7,7,34.7,7,35.1,6.4z"/>
<path class="st0" d="M307.8,6.4H307C307.4,7,307.4,7,307.8,6.4z"/>
<path class="st0" d="M353.2,7.6c0.3,0,0.2,0.1,0.5-0.1c0.7-0.3,0.3-0.1,0.5-0.3C353.6,7.3,353.4,7.3,353.2,7.6z"/>
<rect x="218.1" y="10" class="st0" width="1" height="0.2"/>
<path class="st0" d="M99.3,8.6h0.6V8.2C99.6,8.3,99.4,8.3,99.3,8.6z"/>
<path class="st0" d="M372,8.6h0.6V8.2C372.3,8.3,372.1,8.3,372,8.6z"/>
<path class="st0" d="M95.7,4.2h0.6V3.8C95.9,3.9,95.8,3.8,95.7,4.2z"/>
<path class="st0" d="M229.8,8.8c-0.2-0.6,0-0.4-0.6-0.6C229.6,9,229.1,8.6,229.8,8.8z"/>
<path class="st0" d="M208.1,9.8V9.4h-0.8c0.2,0.1-0.1,0,0.4,0.2L208.1,9.8z"/>
<path class="st0" d="M53,5.2c0.6-0.1,0.3,0,0.6-0.4H53V5.2z"/>
<path class="st0" d="M209.1,9.6c0.6-0.1,0.3,0,0.6-0.4h-0.6V9.6z"/>
<path class="st0" d="M325.7,5.2c0.6-0.1,0.3,0,0.6-0.4h-0.6V5.2z"/>
<path class="st0" d="M121.4,10.8h0.6c-0.3-0.4,0-0.3-0.6-0.4V10.8z"/>
<path class="st0" d="M394.1,10.8h0.6c-0.3-0.4,0-0.3-0.6-0.4V10.8z"/>
<path class="st0" d="M80.6,7.6c0.4-0.1,0,0.1,0.5-0.1c0.1-0.1,0.2-0.2,0.3-0.3C81,7.3,80.7,7.2,80.6,7.6z"/>
<path class="st0" d="M380.4,8.4c0.4-0.1,0,0.1,0.5-0.1c0.3-0.1,0.2-0.1,0.3-0.3C380.8,8.1,380.5,8,380.4,8.4z"/>
<path class="st0" d="M107.7,8.4c0.4-0.1,0,0.1,0.5-0.1c0.1-0.1,0.2-0.2,0.3-0.3C108.1,8.1,107.8,8,107.7,8.4z"/>
<rect x="4.6" y="0.6" class="st0" width="0.8" height="0.2"/>
<rect x="287.9" y="8.4" class="st0" width="0.8" height="0.2"/>
<rect x="277.3" y="0.6" class="st0" width="0.8" height="0.2"/>
<rect x="15.2" y="8.4" class="st0" width="0.8" height="0.2"/>
<rect x="244.4" y="8.6" class="st0" width="0.8" height="0.2"/>
<rect x="321.8" y="3.2" class="st0" width="0.8" height="0.2"/>
<rect x="337.3" y="8" class="st0" width="0.8" height="0.2"/>
<rect x="64.6" y="8" class="st0" width="0.8" height="0.2"/>
<rect x="49.1" y="3.2" class="st0" width="0.8" height="0.2"/>
<rect x="239.2" y="9.2" class="st0" width="0.8" height="0.2"/>
<path class="st0" d="M130.8,6.6c0.6-0.5,0.3,0.1,0.4-0.8c-0.1,0.1-0.1,0-0.3,0.3C130.7,6.6,130.9,6.3,130.8,6.6z"/>
<path class="st0" d="M403.5,6.6c0.6-0.5,0.3,0.1,0.4-0.8c-0.1,0.1-0.1,0-0.3,0.3C403.4,6.6,403.6,6.3,403.5,6.6z"/>
<path class="st0" d="M372.4,7c0.6-0.1,0.3,0,0.6-0.4C372,6.7,372.7,6.4,372.4,7z"/>
<path class="st0" d="M207.3,9.4c-0.1,0,0.2-0.4-0.4-0.1s0-0.2-0.2,0.3C207.2,9.5,206.8,9.6,207.3,9.4z"/>
<path class="st0" d="M100.3,6.6h-0.6C100.2,7.2,99.9,7.2,100.3,6.6z"/>
<path class="st0" d="M373.2,7.2h-0.6C373.1,7.8,372.8,7.8,373.2,7.2z"/>
<path class="st0" d="M100.5,7.2h-0.6C100.4,7.8,100.1,7.8,100.5,7.2z"/>
<path class="st0" d="M327.3,7.2l0.4-0.4c-1.1,0-0.3,0-0.6,0.2L327.3,7.2z"/>
<path class="st0" d="M54.6,7.2L55,6.9c-1.1,0-0.3,0-0.6,0.2L54.6,7.2z"/>
<path class="st0" d="M30.7,4.2c0.6-0.1,0.3,0,0.6-0.4C30.9,3.9,30.7,3.8,30.7,4.2z"/>
<path class="st0" d="M337.1,6.8c0.6-0.1,0.3,0,0.6-0.4C337.3,6.5,337.2,6.4,337.1,6.8z"/>
<path class="st0" d="M64.4,6.8c0.6-0.1,0.3,0,0.6-0.4C64.6,6.5,64.5,6.4,64.4,6.8z"/>
<path class="st0" d="M303.4,4.2c0.6-0.1,0.3,0,0.6-0.4C303.6,3.9,303.4,3.8,303.4,4.2z"/>
<rect x="237.2" y="11.8" class="st0" width="0.6" height="0.2"/>
<rect x="49.7" y="2.4" class="st0" width="0.6" height="0.2"/>
<rect x="227.1" y="9" class="st0" width="0.6" height="0.2"/>
<rect x="82.3" y="7.6" class="st0" width="0.6" height="0.2"/>
<rect x="10.2" y="5.2" class="st0" width="0.6" height="0.2"/>
<rect x="282.9" y="5.2" class="st0" width="0.6" height="0.2"/>
<rect x="322.4" y="2.4" class="st0" width="0.6" height="0.2"/>
<rect x="355" y="7.6" class="st0" width="0.6" height="0.2"/>
<rect x="119.6" y="10.6" class="st0" width="0.6" height="0.2"/>
<rect x="309.2" y="3.4" class="st0" width="0.6" height="0.2"/>
<rect x="36.5" y="3.4" class="st0" width="0.6" height="0.2"/>
<rect x="392.3" y="10.6" class="st0" width="0.6" height="0.2"/>
<rect x="405.1" y="0.2" class="st0" width="0.6" height="0.2"/>
<rect x="249.2" y="8" class="st0" width="0.6" height="0.2"/>
<rect x="132.4" y="0.2" class="st0" width="0.6" height="0.2"/>
<rect x="69.6" y="6.8" class="st0" width="0.6" height="0.2"/>
<rect x="163.5" y="9.2" class="st0" width="0.6" height="0.2"/>
<rect x="342.3" y="6.8" class="st0" width="0.6" height="0.2"/>
<path class="st0" d="M291.3,9.6l-0.6-0.4C290.9,9.7,290.3,9.6,291.3,9.6z"/>
<path class="st0" d="M411.5,5c-0.2-0.6,0.4-0.3-0.6-0.4c0,0,0.1,0,0.1,0.1s0.1,0.1,0.1,0.1S411.4,4.9,411.5,5z"/>
<path class="st0" d="M183.4,4.8c-0.3-0.4,0-0.3-0.6-0.4C183.1,4.9,182.8,4.6,183.4,4.8z"/>
<path class="st0" d="M138.8,5c-0.2-0.6,0.4-0.3-0.6-0.4c0,0,0.1,0,0.1,0.1L138.8,5z"/>
<path class="st0" d="M306,4.4c0,0.2,0.4,0.4,0.3,0C306.2,4.3,305.9,3.9,306,4.4z"/>
<path class="st0" d="M33.3,4.4c0,0.2,0.4,0.4,0.3,0C33.5,4.3,33.2,3.9,33.3,4.4z"/>
<path class="st0" d="M334.9,6.6c-0.1-0.5,0.1-0.3-0.4-0.4C334.6,6.7,334.4,6.4,334.9,6.6z"/>
<path class="st0" d="M62.2,6.6c-0.1-0.5,0.1-0.3-0.4-0.4C61.9,6.7,61.7,6.4,62.2,6.6z"/>
<path class="st0" d="M87.5,7.8c0.2,0.2,0.7-0.3,0.2-0.1C87.7,7.7,87.1,7.5,87.5,7.8z"/>
<path class="st0" d="M230.4,9.6c0.2,0.2,0.7-0.3,0.2-0.1C230.6,9.5,230,9.3,230.4,9.6z"/>
<path class="st0" d="M210.5,9.6c0.2,0.2,0.7-0.3,0.2-0.1C210.7,9.5,210.1,9.3,210.5,9.6z"/>
<path class="st0" d="M376.2,7.8c0.2,0.2,0.7-0.3,0.2-0.1C376.5,7.7,375.9,7.5,376.2,7.8z"/>
<path class="st0" d="M111.8,7.4c0.2,0.2,0.7-0.3,0.2-0.1C112,7.3,111.4,7.1,111.8,7.4z"/>
<path class="st0" d="M73,8c0.2,0.2,0.7-0.3,0.2-0.1C73.3,7.9,72.7,7.7,73,8z"/>
<path class="st0" d="M17.2,6.2c0.2,0.2,0.7-0.3,0.2-0.1C17.5,6.1,16.9,5.9,17.2,6.2z"/>
<path class="st0" d="M225.5,8.6c0.2,0.2,0.7-0.3,0.2-0.1C225.8,8.5,225.2,8.3,225.5,8.6z"/>
<path class="st0" d="M345.7,8c0.2,0.2,0.7-0.3,0.2-0.1C346,7.9,345.4,7.7,345.7,8z"/>
<path class="st0" d="M384.5,7.4c0.2,0.2,0.7-0.3,0.2-0.1C384.7,7.3,384.1,7.1,384.5,7.4z"/>
<path class="st0" d="M302.2,6.8c0.2,0.2,0.7-0.3,0.2-0.1C302.4,6.7,301.8,6.5,302.2,6.8z"/>
<path class="st0" d="M29.5,6.8c0.2,0.2,0.7-0.3,0.2-0.1C29.7,6.7,29.1,6.5,29.5,6.8z"/>
<path class="st0" d="M339.9,6.2c0.2,0.2,0.7-0.3,0.2-0.1C340.1,6.1,339.6,5.9,339.9,6.2z"/>
<path class="st0" d="M237.4,8.4c0.2,0.2,0.7-0.3,0.2-0.1C237.6,8.3,237.1,8.1,237.4,8.4z"/>
<path class="st0" d="M75.8,7.8C76,8,76.6,7.5,76.1,7.7C76.1,7.7,75.5,7.5,75.8,7.8z"/>
<path class="st0" d="M360.2,7.8c0.2,0.2,0.7-0.3,0.2-0.1C360.4,7.7,359.8,7.5,360.2,7.8z"/>
<path class="st0" d="M228.9,10.8c0.2,0.2,0.7-0.3,0.2-0.1C229.2,10.7,228.6,10.5,228.9,10.8z"/>
<path class="st0" d="M103.5,7.8c0.2,0.2,0.7-0.3,0.2-0.1C103.8,7.7,103.2,7.5,103.5,7.8z"/>
<path class="st0" d="M348.5,7.8c0.2,0.2,0.7-0.3,0.2-0.1C348.8,7.7,348.2,7.5,348.5,7.8z"/>
<path class="st0" d="M253.6,8.4c0.2,0.2,0.7-0.3,0.2-0.1C253.8,8.3,253.3,8.1,253.6,8.4z"/>
<path class="st0" d="M202.9,9.8c0.2,0.2,0.7-0.3,0.2-0.1C203.1,9.7,202.5,9.5,202.9,9.8z"/>
<path class="st0" d="M67.2,6.2c0.2,0.2,0.7-0.3,0.2-0.1C67.4,6.1,66.9,5.9,67.2,6.2z"/>
<path class="st0" d="M289.9,6.2c0.2,0.2,0.7-0.3,0.2-0.1C290.2,6.1,289.6,5.9,289.9,6.2z"/>
<path class="st0" d="M263.3,7.4c0.2,0.2,0.7-0.3,0.2-0.1C263.5,7.3,262.9,7.1,263.3,7.4z"/>
<path class="st0" d="M238.8,8.8c0.2,0.2,0.7-0.3,0.2-0.1C239,8.7,238.4,8.5,238.8,8.8z"/>
<path class="st0" d="M379.8,8.2c0.2,0.2,0.7-0.3,0.2-0.1C380.1,8.1,379.5,7.9,379.8,8.2z"/>
<path class="st0" d="M237.4,12.4c0.2,0.2,0.7-0.3,0.2-0.1C237.6,12.3,237.1,12.1,237.4,12.4z"/>
<path class="st0" d="M268.3,8.2c0.2,0.2,0.7-0.3,0.2-0.1C268.5,8.1,267.9,7.9,268.3,8.2z"/>
<path class="st0" d="M107.1,8.2c0.2,0.2,0.7-0.3,0.2-0.1C107.4,8.1,106.8,7.9,107.1,8.2z"/>
<path class="st0" d="M261.8,7.8c0,0.2,0.4,0.5,0.3,0s0.5,0-0.1-0.1C261.8,7.7,261.8,7.4,261.8,7.8z"/>
<path class="st0" d="M378.1,6.8c0,0.2,0.4,0.5,0.3,0s0.5,0-0.1-0.1C378,6.7,378.1,6.4,378.1,6.8z"/>
<path class="st0" d="M105.3,6.8c0,0.2,0.4,0.5,0.3,0c-0.1-0.5,0.5,0-0.1-0.1C105.3,6.7,105.3,6.4,105.3,6.8z"/>
<path class="st0" d="M14.6,8.6c0,0.2,0.4,0.5,0.3,0s0.5,0-0.1-0.1C14.6,8.5,14.6,8.2,14.6,8.6z"/>
<path class="st0" d="M319.8,7.6c0,0.1,0.2,0,0.2,0s0.4,0.5,0.1,0C320.2,7.6,319.8,7.2,319.8,7.6z"/>
<path class="st0" d="M315.2,7.4c0,0.1,0.2,0,0.2,0s0.4,0.5,0.1,0C315.5,7.4,315.2,7,315.2,7.4z"/>
<path class="st0" d="M366.4,8.2l0.2-0.4c-0.3,0.1-0.2-0.1-0.3,0.1S366.3,7.9,366.4,8.2z"/>
<path class="st0" d="M93.7,8.2l0.2-0.4c-0.3,0.1-0.2-0.1-0.3,0.1C93.6,8.2,93.5,7.9,93.7,8.2z"/>
<path class="st0" d="M184.4,6.2c0,0.1,0.2,0,0.2,0s0.4,0.5,0.1-0.1l0,0C184.4,6.1,184.4,5.9,184.4,6.2z"/>
<path class="st0" d="M196.4,7.8c0,0.1,0.2,0,0.2,0s0.4,0.5,0.1,0l0,0h-0.1C196.5,7.8,196.4,7.4,196.4,7.8z"/>
<path class="st0" d="M47.1,7.6c0,0.1,0.2,0,0.2,0s0.3,0.5,0.1,0h-0.1C47.2,7.6,47.1,7.2,47.1,7.6z"/>
<path class="st0" d="M42.5,7.4c0,0.1,0.2,0,0.2,0s0.3,0.5,0.1,0l-0.1,0C42.6,7.4,42.5,7,42.5,7.4z"/>
<polygon class="st0" points="68.8,8 69,8 68.8,7.8 "/>
<polygon class="st0" points="341.5,8 341.7,8 341.5,7.8 "/>
<polygon class="st0" points="225.3,11 225.3,11.2 225.6,11.1 "/>
<path class="st0" d="M49.1,2.4L49.1,2.4C49.3,2.5,48.9,2.9,49.1,2.4L49.1,2.4L49.1,2.4C49.2,2.4,49.2,2.4,49.1,2.4z"/>
<path class="st0" d="M6.6,9.2C6.6,9.2,6.7,9.1,6.6,9.2L6.6,9.2C6.7,9.2,6.6,9.2,6.6,9.2z"/>
<path class="st0" d="M227.9,9.6L227.9,9.6C228,9.6,227.9,9.6,227.9,9.6z"/>
<path class="st0" d="M270.5,6.6L270.5,6.6C270.5,6.6,270.5,6.6,270.5,6.6z"/>
<path class="st0" d="M232.8,10.6L232.8,10.6C232.8,10.6,232.7,10.6,232.8,10.6z"/>
<path class="st0" d="M288.7,7.2L288.7,7.2C288.8,7.2,288.7,7.2,288.7,7.2z"/>
<path class="st0" d="M228.5,6.8L228.5,6.8C228.6,6.8,228.5,6.8,228.5,6.8z"/>
<path class="st0" d="M251.6,9.2L251.6,9.2L251.6,9.2C251.7,9.1,251.6,9.2,251.6,9.2z"/>
<path class="st0" d="M262.3,7.4L262.3,7.4L262.3,7.4C262.3,7.3,262.2,7.4,262.3,7.4z"/>
<path class="st0" d="M262.3,6.8L262.3,6.8L262.3,6.8C262.3,6.7,262.2,6.8,262.3,6.8z"/>
<path class="st0" d="M51,6.8L51,6.8C51,6.8,50.9,6.8,51,6.8z"/>
<path class="st0" d="M233,9.6L233,9.6L233,9.6C233,9.6,232.9,9.6,233,9.6z"/>
<path class="st0" d="M224.9,9.6l0.4,0.2L224.9,9.6z"/>
<path class="st0" d="M224.9,9.6l-0.4-0.2L224.9,9.6z"/>
<path class="st0" d="M382.3,7.4L382.1,7L382.3,7.4z"/>
</svg>
