<?xml version="1.0" encoding="utf-8"?>
<!-- Generator: Adobe Illustrator 21.0.0, SVG Export Plug-In . SVG Version: 6.00 Build 0)  -->
<svg version="1.1" id="Layer_1" xmlns="http://www.w3.org/2000/svg" xmlns:xlink="http://www.w3.org/1999/xlink" x="0px" y="0px"
	 viewBox="0 0 256.6 133" style="enable-background:new 0 0 256.6 133;" xml:space="preserve">
<style type="text/css">
	.st0{enable-background:new    ;}
	.st1{fill:#F0D8B4;}
	.st2{fill:#D6A354;}
</style>
<g class="st0">
	<g class="st0">
		<g>
			<path class="st1" d="M214.1,103.8c1-0.7,2.2-1.2,3.1-1.8c3.6-2.2,6.8-4.8,9.4-7.9c6.4-7.7,8.2-19.2,3.2-28
				c-9.3-16.4-22.8-5-16.5,2.9c2.6,3.3,6.2,2.6,9.5,10c2.7,5.8,1.5,10.9-1.7,15.2c-2.1,2.9-6.6,7.1-10.9,8.6c0,0,0,0.1-0.1,0.1
				c0,0,0,0.1-0.1,0.1l0,1.1c0,4-0.1,17.7-0.1,28.5h4.1C214.1,121,214.1,106,214.1,103.8z"/>
			<path class="st1" d="M219.3,106.2c0.2-0.6,2-1.1,2.5-1.4c5.4-2.7,11.3-8.6,14.8-13.2c2.7-3.6,12.1-16.5,5.6-21.7
				c-2-1.6-9.5-2.7-8.8,4.9c1.2,13.9-6.4,22.9-18,29.3v28.7h3.9V106.2z"/>
			<path class="st1" d="M224.7,107.3c4-1,17.7-11.4,20.3-14.5c0.6-0.7,1-1,1.8-1.7c0.7-0.6,1-1.2,1.6-1.8c7-7.4-0.5-12.4-4.1-8.2
				c-0.6,0.7-1.8,3.4-2.4,4.5c-0.9,1.5-1.8,2.8-2.7,4.2c-1.6,2.3-4.4,5.6-6.4,7.6c-3.1,3.1-8,7.4-11.9,8.8v26.7h3.9V107.3z"/>
			<path class="st1" d="M230.6,109c4.5-0.6,12.5-5.9,15.5-8c2.1-1.5,8.5-6.2,9.2-8.7c0.4-1.6-0.9-3.1-2-3.6c-3-1.4-4.8,2.4-6.9,4.3
				c-4.6,4.1-11.3,9.4-16.6,12.6c-0.6,0.3-3.4,1.7-3.6,2.3v24.8h4.5V109z"/>
			<path class="st1" d="M205.5,78.3c-3.8,0.6-7,4.1-6.3,8.6c1.6,9.6,16.4,7.4,14.8-2.6C213.4,80.8,209.9,77.6,205.5,78.3z"/>
		</g>
		<g>
			<path d="M150.5,62.5c2.3,4.8,16.9,4.2,19.8,3.3l3.2,3.9l-2.5,4c-10,1.1-15.8-2.3-24.8-3.7c-5.4-0.9-45.2,24.7-52.6,28.8
				c-13.9,7.6-65,35.5-79.2,32.8c-10.6-3.6-7.9-15-2.5-18.5l57.9-21.2c8.3-3.4,48.8-19.6,55.1-27.9l-30.8-3.2L94,74L0,61.3l1.1-23.7
				l142.3,23.1c-0.7,0-1.8,0.1-3.5,0.3C144.7,70.8,138.7,59.6,150.5,62.5z M132.3,64.5c1.9,0,3.4,1.6,3.4,3.4c0,1.9-1.5,3.4-3.4,3.4
				c-1.9,0-3.4-1.6-3.4-3.4C128.9,65.9,130.5,64.4,132.3,64.5z M19.4,118c1.9,0,3.4,1.6,3.4,3.4c0,1.9-1.5,3.4-3.4,3.4
				c-1.9,0-3.4-1.6-3.4-3.4C16,119.4,17.6,117.9,19.4,118z"/>
			<path d="M2.4,30.2c0-8,2.2-14.8,6.6-20.3c4.4-5.6,10.3-8.3,17.6-8.3C34.7,1.5,40.9,4,45.1,9c4.3,5,6.4,12.1,6.4,21.1
				c0,4.1-0.4,7.8-1.4,11.1L40,39.8c0.8-2.7,1.2-5.9,1.2-9.6c0-13.2-4.9-19.8-14.6-19.8c-4.5,0-7.9,1.8-10.3,5.4
				c-2.4,3.6-3.6,8.4-3.6,14.4c0,2.1,0.1,4,0.3,5.8L2.5,34.5C2.4,33.1,2.4,31.7,2.4,30.2z M58.7,2.3L68.3,0v43.8l-9.6-1.4V2.3z
				 M76.2,45c-0.4-1.9-0.5-3.9-0.5-6.1c0-6.5,1.9-11.8,5.7-15.9c3.8-4.1,8.5-6.1,14.2-6.1c3.1,0,6,0.6,8.5,1.9V2.3l9.6-2.3v50.3
				l-9.6-1.4V27.5c-2.1-1.6-4.2-2.4-6.4-2.4c-3.9,0-6.8,1.2-8.9,3.5c-2.1,2.3-3.1,5.7-3.1,10.1c0,3.3,0.6,5.9,1.8,7.9L76.2,45z
				 M121,51.3V2.5c7.6-0.4,12.9-0.5,16-0.5c5.8,0,10.4,1.2,13.7,3.8c3.3,2.5,5,6.1,5,10.7c0,4.5-2.4,8-7.1,10.6
				c7,2.4,10.5,7.5,10.5,15.1c0,5.1-1.9,9.2-5.8,12.2c-1,0.8-2,1.4-3.1,2L121,51.3z M131,10.5V24c1.5,0.1,3.2,0.2,4.8,0.2
				c6.5,0,9.8-2.5,9.8-7.4c0-4.3-3-6.5-8.9-6.5C135.1,10.3,133.2,10.4,131,10.5z M131,31.8v18.6c2,0.2,3.7,0.3,4.9,0.3
				c4.4,0,7.7-0.8,9.7-2.3c2-1.5,3-4,3-7.5c0-3.2-0.9-5.5-2.8-7c-1.9-1.5-5.1-2.2-9.8-2.2C135,31.7,133.4,31.8,131,31.8z
				 M161.8,38.1c0-6.3,1.8-11.4,5.4-15.4c3.6-3.9,8.4-5.9,14.4-5.9c6.2,0,11.1,1.9,14.5,5.7c3.4,3.8,5.2,9,5.2,15.6
				c0,6.5-1.8,11.8-5.3,15.6c-3.5,3.9-8.3,5.8-14.4,5.8c-6.3,0-11.1-2-14.6-5.9C163.5,49.8,161.8,44.6,161.8,38.1z M171.8,38.1
				c0,9.1,3.3,13.6,9.8,13.6c3,0,5.4-1.2,7.1-3.5c1.7-2.3,2.6-5.7,2.6-10.1c0-8.9-3.2-13.4-9.7-13.4c-3,0-5.4,1.2-7.1,3.5
				C172.7,30.6,171.8,33.9,171.8,38.1z M224.3,65.4c-1,2.7-3.2,5-6.6,6.8c-2.7,1.5-5.8,2.3-9.2,2.6c-0.8,0.1-1.7,0.1-2.5,0.1
				l-3.7-4.3l3.7-4.2c0.9,0,1.8,0,2.5-0.1c5.7-0.4,8.6-2.2,8.6-5.5c0-2.5-1-6.2-3.1-11.3l-12.9-31.9h10l11.3,28.5l10.2-28.5h10
				L224.3,65.4z"/>
			<path d="M161.9,9.1c0.8-0.6,1.1-1.2,1.1-2.1c0-1.8-1.3-2.9-3.3-2.9h-4.3v5.1c0.9,1.5,1.5,3.3,1.8,5.3h2.8c2,0,3.2-1.2,3.2-3.1
				C163.2,10.3,162.8,9.7,161.9,9.1z M158,8V6.3h1.6c0.6,0,0.9,0.3,0.9,0.9c0,0.5-0.3,0.8-0.9,0.8H158z M158,12.1v-1.8h1.7
				c0.6,0,0.9,0.3,0.9,0.9c0,0.6-0.3,0.9-0.9,0.9H158z M173.4,14.4L169.6,4h-2l-3.8,10.4h2.7l0.5-1.6h3.2l0.5,1.6H173.4z
				 M169.5,10.7h-1.8l0.9-2.8L169.5,10.7z M182.6,14.4l-2.2-4.3c0.5-0.3,0.7-0.4,0.9-0.7c0.5-0.6,0.8-1.2,0.8-2
				c0-1.9-1.5-3.3-3.6-3.3h-4.1v10.4h2.5v-3.9h0.9l1.8,3.9H182.6z M176.9,8.4V6.3h1.5c0.6,0,1.1,0.5,1.1,1.1s-0.5,1.1-1.1,1.1H176.9
				z M190.3,9.1c0.8-0.6,1.1-1.2,1.1-2.1c0-1.8-1.3-2.9-3.3-2.9h-4.3v10.4h4.5c2,0,3.2-1.2,3.2-3.1C191.6,10.3,191.2,9.7,190.3,9.1z
				 M186.3,8V6.3h1.6c0.6,0,0.9,0.3,0.9,0.9c0,0.5-0.3,0.8-0.9,0.8H186.3z M186.3,12.1v-1.8h1.7c0.6,0,0.9,0.3,0.9,0.9
				c0,0.6-0.4,0.9-0.9,0.9H186.3z M200.3,14.4v-2.3h-4.5v-1.8h3.9V8h-3.9V6.3h4.5V4h-7.1v10.4H200.3z M210.3,14.4l-2.2-4.3
				c0.5-0.3,0.7-0.4,0.9-0.7c0.5-0.6,0.8-1.2,0.8-2c0-1.9-1.5-3.3-3.6-3.3H202v10.4h2.6v-3.9h0.9l1.8,3.9H210.3z M204.6,8.4V6.3h1.4
				c0.6,0,1.1,0.5,1.1,1.1s-0.5,1.1-1.1,1.1H204.6z M216.7,6.8l1.6-1.6c-0.6-0.5-0.8-0.6-1.3-0.9c-0.6-0.2-1.3-0.4-2.1-0.4
				c-2.4,0-3.9,1.3-3.9,3.3c0,1.7,0.9,2.7,2.8,3l1.3,0.2c0.6,0.1,0.9,0.3,0.9,0.9c0,0.6-0.5,0.9-1.5,0.9c-0.6,0-1.2-0.1-1.6-0.3
				c-0.3-0.1-0.4-0.2-0.7-0.4l-1.6,1.6c0.6,0.5,0.9,0.7,1.4,0.9c0.7,0.3,1.5,0.4,2.4,0.4c2.6,0,4.2-1.3,4.2-3.3
				c0-1.9-0.9-2.8-2.8-3.1l-1.3-0.2c-0.6-0.1-0.9-0.4-0.9-0.8c0-0.6,0.5-0.9,1.4-0.9c0.4,0,0.8,0,1.1,0.2
				C216.3,6.4,216.4,6.5,216.7,6.8z M227.9,14.4V4h-2.5v4h-2.7V4h-2.5v10.4h2.5v-4.1h2.7v4.1H227.9z M237.5,9.2V8.3
				c0-1.5-0.3-2.4-1-3.2c-0.8-0.8-1.7-1.2-2.9-1.2s-2.1,0.4-2.9,1.2c-0.8,0.8-1.1,1.7-1.1,3.8v0.7c0,1.3,0,2.7,1.1,3.8
				c0.8,0.8,1.7,1.2,2.9,1.2c1.2,0,2.1-0.4,2.9-1.2C237.6,12.2,237.5,10.7,237.5,9.2z M232.5,6.7c0.2-0.3,0.6-0.5,1-0.5
				s0.8,0.2,1,0.5c0.3,0.4,0.4,1.1,0.4,2.1v0.7c0,1.3-0.1,1.9-0.4,2.3c-0.2,0.3-0.6,0.5-1,0.5c-0.4,0-0.8-0.2-1-0.5
				c-0.3-0.3-0.4-0.9-0.4-2.3V8.8C232.2,7.8,232.3,7,232.5,6.7z M239.2,4v10.4h2.5v-3.7h1.6c2.1,0,3.5-1.4,3.5-3.3S245.4,4,243.3,4
				H239.2z M241.8,8.4V6.3h1.5c0.6,0,1.1,0.5,1.1,1.1s-0.5,1.1-1.1,1.1H241.8z"/>
		</g>
		<g>
			<path class="st2" d="M215.4,102.6c1-0.7,2.2-1.2,3.1-1.8c3.6-2.2,6.8-4.8,9.4-7.9c6.4-7.7,8.2-19.1,3.2-28
				c-9.3-16.4-22.8-5-16.5,2.9c2.6,3.3,6.2,2.6,9.5,10c2.7,5.8,1.5,10.9-1.7,15.2c-2.1,2.9-6.6,7.1-10.9,8.6c0,0-0.1,0.1-0.1,0.1
				c0,0,0,0.1-0.1,0.1l0,1.1c0,4-0.1,17.7-0.1,28.5h4.1C215.4,119.8,215.3,104.7,215.4,102.6z"/>
			<path class="st2" d="M220.6,104.9c0.2-0.6,2-1.1,2.5-1.4c5.4-2.7,11.3-8.6,14.7-13.2c2.7-3.6,12.2-16.5,5.6-21.7
				c-2.1-1.6-9.5-2.7-8.8,5c1.2,13.9-6.4,22.9-18,29.3v28.7h3.9V104.9z"/>
			<path class="st2" d="M225.9,106c4-1,17.7-11.4,20.3-14.5c0.6-0.7,1-1,1.8-1.7c0.7-0.6,1-1.2,1.6-1.9c7-7.4-0.5-12.4-4.1-8.1
				c-0.6,0.7-1.8,3.4-2.4,4.5c-0.9,1.5-1.8,2.8-2.7,4.2c-1.6,2.3-4.4,5.6-6.4,7.6c-3.1,3.1-7.9,7.4-11.9,8.8l0,26.7h3.9V106z"/>
			<path class="st2" d="M231.9,107.7c4.4-0.6,12.5-5.9,15.5-8c2.1-1.5,8.5-6.2,9.1-8.7c0.4-1.6-0.9-3.1-2-3.6
				c-3-1.4-4.8,2.4-6.9,4.3c-4.6,4.1-11.3,9.4-16.7,12.6c-0.6,0.3-3.4,1.7-3.6,2.3v24.8h4.5V107.7z"/>
			<path class="st2" d="M206.8,77c-3.8,0.6-7,4.1-6.2,8.6c1.6,9.6,16.4,7.4,14.7-2.5C214.7,79.5,211.2,76.3,206.8,77z"/>
		</g>
	</g>
</g>
</svg>
