<svg version="1.1" id="Layer_1" xmlns="http://www.w3.org/2000/svg" x="0" y="0" viewBox="0 0 251 133.2" xml:space="preserve"><style>.st0{fill:#f0d8b4}.st1{fill:#d6a354}</style><g id="Слой_x0020_1"><g id="_960350304"><path d="M150.6 62.6c2.4 4.7 16.9 4.2 19.8 3.2l3.2 3.9-2.4 4c-10 1.1-15.8-2.3-24.8-3.7-5.5-.8-45.3 24.8-52.7 28.8-13.8 7.6-65.1 35.4-79.2 32.9-10.6-3.5-7.9-15-2.6-18.5L70 92c8.4-3.4 48.8-19.6 55.1-27.9l-30.8-3.2-.2 13.2-94-12.7 1.1-23.7 142.4 23c-.8.2-1.8.2-3.5.3 4.7 9.9-1.2-1.4 10.5 1.6zm-18.2 1.8c1.9.2 3.5 1.6 3.5 3.5 0 1.8-1.6 3.4-3.5 3.4-1.8 0-3.4-1.6-3.4-3.5.1-1.8 1.7-3.4 3.4-3.4zM19.6 118c1.8 0 3.4 1.6 3.4 3.4 0 1.9-1.6 3.4-3.4 3.4-1.9 0-3.4-1.4-3.4-3.4s1.4-3.4 3.4-3.4zM2.5 30.1c0-7.9 2.1-14.8 6.6-20.3 4.3-5.6 10.1-8.4 17.6-8.4C34.7 1.4 41 4 45.3 9c4.2 5 6.3 12.1 6.3 21.1 0 4.2-.3 7.9-1.3 11.1L40 39.8c.8-2.7 1.3-6 1.3-9.7 0-13.2-4.8-19.6-14.7-19.6-4.5 0-7.9 1.8-10.3 5.3-2.3 3.5-3.5 8.4-3.5 14.3 0 2.1.2 4 .3 6L2.6 34.5c-.1-1.3-.1-2.8-.1-4.4zM58.8 2.3L68.5 0v43.8l-9.7-1.3V2.3zm17.4 42.6c-.3-1.8-.5-3.9-.5-6 0-6.6 1.9-11.9 5.6-15.9 3.9-4.2 8.5-6.1 14.2-6.1 3.2 0 6.1.6 8.7 1.9V2.3l9.5-2.3v50.4l-9.5-1.4V27.5c-2.1-1.6-4.2-2.4-6.4-2.4-3.9 0-6.9 1.1-9 3.4-2.1 2.4-3.1 5.8-3.1 10.1 0 3.2.6 6 1.8 7.9l-11.3-1.6zm45 6.5V2.6c7.6-.5 12.9-.6 15.9-.6 5.8 0 10.5 1.3 13.7 3.9 3.4 2.4 5 6 5 10.6 0 4.5-2.4 8.1-7.1 10.6 6.9 2.4 10.5 7.4 10.5 15.1 0 5-1.9 9.2-5.8 12.1-1 .8-1.9 1.4-3.1 2.1l-29.1-5zm10-40.9V24c1.6.2 3.2.2 4.8.2 6.6 0 9.8-2.4 9.8-7.2 0-4.3-3.1-6.6-8.9-6.6-1.6-.1-3.5-.1-5.7.1zm0 21.4v18.5c1.9.2 3.7.3 4.8.3 4.5 0 7.7-.8 9.8-2.3 1.9-1.4 2.9-4 2.9-7.6 0-3.2-.8-5.5-2.7-6.9s-5.2-2.3-9.8-2.3c-1 .1-2.6.1-5 .3zm30.9 6.3c0-6.3 1.8-11.4 5.3-15.3 3.7-4 8.5-6 14.5-6 6.1 0 11 1.9 14.5 5.6 3.4 3.9 5.2 9 5.2 15.6s-1.8 11.8-5.3 15.6c-3.5 3.9-8.2 5.8-14.3 5.8-6.3 0-11.1-1.9-14.7-5.8-3.6-3.8-5.2-9.1-5.2-15.5zm10 0c0 9 3.2 13.5 9.8 13.5 2.9 0 5.3-1.1 7.1-3.5 1.8-2.3 2.6-5.6 2.6-10 0-9-3.2-13.4-9.7-13.4-3.1 0-5.5 1.1-7.2 3.5-1.8 2.3-2.6 5.7-2.6 9.9zm52.5 27.2c-1 2.7-3.2 5.2-6.6 6.9-2.7 1.4-5.8 2.3-9.2 2.6-.8 0-1.8.2-2.6.2l-3.7-4.3 3.7-4.2c1 0 1.8 0 2.6-.2 5.6-.3 8.5-2.3 8.5-5.5 0-2.4-1-6.1-3.1-11.3l-12.9-31.9h10L222.6 46l10.1-28.3h10l-18.1 47.7zM162.1 9c.8-.5 1.1-1.1 1.1-2.1 0-1.8-1.3-2.9-3.2-2.9h-4.3v5.2c1 1.4 1.4 3.2 1.8 5.3h2.7c1.9 0 3.2-1.3 3.2-3.1 0-1.1-.4-1.7-1.3-2.4zm-3.9-.9V6.3h1.6c.5 0 .8.3.8.8 0 .6-.3 1-.8 1h-1.6zm0 4v-1.8h1.6c.6 0 1 .3 1 1 0 .5-.3.8-1 .8h-1.6zm15.3 2.4L169.8 4h-1.9L164 14.5h2.7l.5-1.6h3.2l.5 1.6h2.6zm-3.7-3.7h-1.9l1-2.9.9 2.9zm13.1 3.7l-2.3-4.3c.5-.3.6-.5.8-.8.6-.5.8-1.1.8-1.9 0-1.9-1.4-3.4-3.5-3.4h-4.2v10.5h2.6v-3.9h1l1.8 3.9h3zm-5.8-6.1V6.3h1.4c.6 0 1.1.5 1.1 1.1 0 .5-.5 1-1.1 1h-1.4zm13.3.6c.8-.5 1.3-1.1 1.3-2.1 0-1.8-1.3-2.9-3.4-2.9H184v10.5h4.5c2.1 0 3.2-1.3 3.2-3.1 0-1.1-.3-1.7-1.3-2.4zm-3.8-.9V6.3h1.6c.6 0 1 .3 1 .8 0 .6-.3 1-1 1h-1.6zm0 4v-1.8h1.8c.5 0 1 .3 1 1 0 .5-.5.8-1 .8h-1.8zm14 2.4v-2.4h-4.5v-1.8h3.9V8.1h-3.9V6.3h4.5V4h-7.1v10.5h7.1zm10 0l-2.3-4.3c.5-.3.6-.5 1-.8.5-.5.6-1.1.6-1.9 0-1.9-1.4-3.4-3.5-3.4h-4v10.5h2.6v-3.9h.8l1.8 3.9h3zm-5.7-6.1V6.3h1.4c.6 0 1 .5 1 1.1 0 .5-.3 1-1 1h-1.4zM217 6.8l1.6-1.6c-.6-.5-.8-.6-1.3-.8-.6-.3-1.4-.5-2.1-.5-2.4 0-4 1.3-4 3.4 0 1.8 1 2.7 2.9 3.1l1.3.2c.5 0 .8.3.8.8 0 .6-.5 1-1.4 1-.6 0-1.1-.2-1.6-.3-.3-.2-.5-.2-.8-.5l-1.6 1.8c.6.5 1 .6 1.4.8.6.3 1.4.5 2.4.5 2.6 0 4.2-1.3 4.2-3.4 0-1.8-1-2.7-2.9-3.1l-1.3-.2c-.5 0-.8-.3-.8-.8 0-.6.5-1 1.4-1 .5 0 .8.2 1.1.2.2 0 .4.2.7.4zm11.1 7.7V4h-2.4v4H223V4h-2.6v10.5h2.6v-4.2h2.7v4.2h2.4zm9.7-5.3v-.8c0-1.6-.3-2.6-1-3.2-.8-.8-1.8-1.3-3.1-1.3-1.1 0-2.1.5-2.9 1.3-.8.8-1 1.6-1 3.7v.6c0 1.3 0 2.7 1 3.9.8.8 1.8 1.1 3.1 1.1 1.1 0 2.1-.3 2.9-1.1 1-1.2 1-2.6 1-4.2zm-5-2.6c.3-.2.6-.3 1.1-.3.3 0 .6.2 1 .3.3.5.3 1.1.3 2.3v.6c0 1.3 0 1.9-.3 2.3-.3.3-.6.5-1 .5-.5 0-.8-.2-1.1-.5-.3-.3-.3-1-.3-2.3v-.6c0-1.2 0-1.8.3-2.3zm6.7-2.6v10.5h2.6v-3.7h1.4c2.1 0 3.5-1.4 3.5-3.4S245.7 4 243.6 4h-4.1zm2.6 4.4V6.3h1.4c.5 0 1 .5 1 1.1 0 .5-.5 1-1 1h-1.4z"/><path class="st0" d="M206.5 119.3l1.8 5.3h5.4l-4.5 3.3 1.8 5.3-4.5-3.2-4.5 3.2 1.8-5.3-4.5-3.3h5.6zM206.5 104.2l1.8 5.3h5.4l-4.5 3.2 1.8 5.3-4.5-3.2-4.5 3.2 1.8-5.3-4.5-3.2h5.6zM206.5 89.2l1.8 5.2h5.4l-4.5 3.2 1.8 5.3-4.5-3.2-4.5 3.2 1.8-5.3-4.5-3.2h5.6z"/><g><path class="st0" d="M218.1 132.9h31.6v-5.7h-32.4zM216.2 121.1h33.5v-5.6h-34.2zM214.4 109.3h35.3v-5.6h-36.1v.2zM213.1 97.4h36.6V92h-37.4v.1z"/></g><g><path class="st1" d="M207.8 118l1.8 5.4h5.4l-4.5 3.2 1.8 5.3-4.5-3.2-4.5 3.2 1.8-5.3-4.6-3.2h5.7zM207.8 102.9l1.8 5.3h5.4l-4.5 3.2 1.8 5.4-4.5-3.3-4.5 3.3 1.8-5.4-4.6-3.2h5.7zM207.8 87.9l1.8 5.2h5.4l-4.5 3.2 1.8 5.3-4.5-3.2-4.5 3.2 1.8-5.3-4.6-3.2h5.7z"/></g><g><path class="st1" d="M219.4 131.6H251v-5.7h-32.4zM217.5 119.8H251v-5.6h-34.2zM215.7 108.1H251v-5.7h-36.1v.2zM214.4 96.1H251v-5.4h-37.4v.1z"/></g></g></g></svg>