<?xml version="1.0" encoding="utf-8"?>
<!-- Generator: Adobe Illustrator 21.0.0, SVG Export Plug-In . SVG Version: 6.00 Build 0)  -->
<svg version="1.1" id="Layer_1" xmlns="http://www.w3.org/2000/svg" xmlns:xlink="http://www.w3.org/1999/xlink" x="0px" y="0px"
	 viewBox="0 0 286 133.1" style="enable-background:new 0 0 286 133.1;" xml:space="preserve">
<style type="text/css">
	.st0{fill:#F0D8B4;}
	.st1{fill:#D6A354;}
</style>
<g id="Слой_x0020_1">
	<g id="_960351104">
		<g>
			<polygon class="st0" points="230.9,22.5 233,28.9 239.8,28.9 234.3,32.9 236.4,39.4 230.9,35.4 225.4,39.4 227.6,32.9 
				222.1,28.9 228.8,28.9 			"/>
			<polygon class="st0" points="252.9,29.4 255,35.9 261.7,35.9 256.2,39.9 258.3,46.3 252.9,42.3 247.4,46.3 249.5,39.9 244,35.9 
				250.7,35.9 			"/>
			<polygon class="st0" points="270,45.5 272,51.9 278.8,51.9 273.4,55.9 275.4,62.4 270,58.4 264.4,62.4 266.6,55.9 261.1,51.9 
				267.9,51.9 			"/>
			<polygon class="st0" points="275.9,67.9 277.9,74.3 284.7,74.3 279.2,78.3 281.3,84.8 275.9,80.8 270.4,84.8 272.4,78.3 
				266.9,74.3 273.7,74.3 			"/>
			<polygon class="st0" points="270,90.9 272,97.3 278.8,97.3 273.4,101.3 275.4,107.8 270,103.8 264.4,107.8 266.6,101.3 
				261.1,97.3 267.9,97.3 			"/>
			<polygon class="st0" points="253.4,107.4 255.5,113.9 262.3,113.9 256.8,117.9 258.9,124.3 253.4,120.3 247.9,124.3 250,117.9 
				244.5,113.9 251.3,113.9 			"/>
		</g>
		<g>
			<path d="M150.7,62.6c2.4,4.8,16.9,4.2,19.8,3.3l3.2,3.9l-2.5,4c-10,1-15.8-2.3-24.8-3.7c-5.4-0.8-45.2,24.8-52.6,28.8
				c-13.9,7.6-65.1,35.5-79.3,32.8c-10.6-3.6-7.9-15-2.5-18.5l58-21.2c8.3-3.4,48.9-19.6,55.1-27.9l-30.8-3.3l-0.1,13.2L0,61.4
				l1.1-23.8l142.4,23.2c-0.7,0.1-1.8,0.1-3.4,0.3C144.8,70.9,138.9,59.6,150.7,62.6z M132.5,64.5c1.9,0,3.4,1.5,3.4,3.4
				c0,1.9-1.5,3.4-3.4,3.4c-1.9,0-3.4-1.6-3.4-3.4S130.6,64.5,132.5,64.5z M19.4,118.1c1.9,0,3.4,1.6,3.4,3.4s-1.6,3.4-3.4,3.4
				c-1.9-0.1-3.4-1.6-3.4-3.4C16.1,119.6,17.6,118.1,19.4,118.1z"/>
			<path d="M2.4,30.2c0-8,2.2-14.8,6.6-20.3c4.4-5.6,10.3-8.3,17.7-8.3c8.1,0,14.3,2.5,18.6,7.5c4.2,5,6.4,12.1,6.4,21.1
				c0,4.1-0.5,7.8-1.4,11.1L40,39.9c0.8-2.7,1.2-6,1.2-9.7c0-13.2-4.9-19.8-14.6-19.8c-4.5,0-7.9,1.8-10.3,5.4
				c-2.4,3.6-3.6,8.4-3.6,14.4c0,2.1,0.1,4,0.4,5.8L2.5,34.5C2.4,33.2,2.4,31.7,2.4,30.2z M58.8,2.3L68.4,0v43.9l-9.6-1.4V2.3z
				 M76.3,45c-0.4-1.8-0.5-3.9-0.5-6c0-6.5,1.9-11.8,5.7-15.9s8.5-6.2,14.2-6.2c3.1,0,6,0.7,8.6,1.9V2.3l9.6-2.3v50.4l-9.6-1.4V27.5
				c-2.1-1.6-4.2-2.5-6.4-2.5c-3.9,0-6.8,1.1-8.9,3.5c-2.1,2.4-3.1,5.7-3.1,10.1c0,3.3,0.6,5.9,1.8,7.9L76.3,45z M121.1,51.4V2.5
				c7.6-0.4,12.9-0.5,16-0.5c5.9,0,10.4,1.2,13.7,3.7c3.3,2.5,5,6.1,5,10.7c0,4.5-2.4,8-7.1,10.6c7,2.5,10.4,7.5,10.4,15.1
				c0,5.1-1.9,9.2-5.8,12.2c-1,0.8-2,1.4-3.1,2L121.1,51.4z M131.1,10.5V24c1.5,0.1,3.1,0.2,4.8,0.2c6.5,0,9.8-2.5,9.8-7.4
				c0-4.3-3-6.5-8.9-6.5C135.3,10.3,133.4,10.4,131.1,10.5z M131.1,31.9v18.6c2,0.2,3.7,0.3,4.9,0.3c4.5,0,7.7-0.8,9.7-2.3
				s3-4,3-7.5c0-3.2-0.9-5.6-2.8-7s-5.1-2.2-9.8-2.2C135.2,31.8,133.5,31.8,131.1,31.9z M162,38.2c0-6.3,1.8-11.4,5.4-15.3
				c3.6-4,8.5-6,14.4-6c6.3,0,11.1,1.9,14.6,5.7c3.4,3.8,5.2,9,5.2,15.6s-1.8,11.8-5.3,15.7c-3.5,3.9-8.3,5.8-14.5,5.8
				c-6.2,0-11.1-1.9-14.6-5.9C163.7,49.9,162,44.7,162,38.2z M172,38.2c0,9.1,3.3,13.6,9.8,13.6c3,0,5.4-1.2,7.1-3.6
				c1.8-2.4,2.7-5.7,2.7-10.1c0-8.9-3.3-13.4-9.8-13.4c-3,0-5.4,1.1-7.1,3.5C172.9,30.7,172,33.9,172,38.2z M224.5,65.5
				c-1,2.8-3.2,5.1-6.6,6.9c-2.7,1.4-5.8,2.3-9.2,2.6c-0.8,0.1-1.6,0.1-2.5,0.1l-3.7-4.3l3.7-4.2c0.9,0,1.8-0.1,2.5-0.1
				c5.7-0.4,8.6-2.2,8.6-5.5c0-2.5-1-6.2-3.1-11.3l-12.9-32h10l11.3,28.5l10.2-28.5h10L224.5,65.5z"/>
			<path d="M162.1,9.1c0.8-0.6,1.1-1.3,1.1-2.2c0-1.8-1.3-2.9-3.3-2.9h-4.3v5.1c1,1.6,1.5,3.3,1.8,5.3h2.8c2,0,3.3-1.2,3.3-3.1
				C163.4,10.3,163,9.7,162.1,9.1z M158.2,8V6.3h1.6c0.6,0,0.9,0.3,0.9,0.8c0,0.5-0.3,0.8-0.9,0.8H158.2z M158.2,12.1v-1.8h1.7
				c0.6,0,1,0.3,1,0.9c0,0.5-0.4,0.9-1,0.9H158.2z M173.6,14.4L169.8,4h-2L164,14.4h2.7l0.5-1.6h3.2l0.5,1.6H173.6z M169.7,10.8
				h-1.8l1-2.8L169.7,10.8z M182.8,14.4l-2.2-4.3c0.5-0.3,0.7-0.4,1-0.7c0.5-0.5,0.7-1.2,0.7-2c0-1.9-1.4-3.3-3.6-3.3h-4.1v10.4h2.5
				v-3.9h0.9l1.8,3.9H182.8z M177.1,8.4V6.3h1.4c0.7,0,1.1,0.4,1.1,1s-0.5,1-1.1,1H177.1z M190.5,9.1c0.8-0.6,1.1-1.3,1.1-2.2
				c0-1.8-1.3-2.9-3.3-2.9H184v10.4h4.5c1.9,0,3.3-1.2,3.3-3.1C191.8,10.3,191.4,9.7,190.5,9.1z M186.6,8V6.3h1.6c0.6,0,1,0.3,1,0.8
				c0,0.5-0.4,0.8-1,0.8H186.6z M186.6,12.1v-1.8h1.8c0.5,0,0.9,0.3,0.9,0.9c0,0.5-0.4,0.9-0.9,0.9H186.6z M200.6,14.4v-2.3H196
				v-1.8h3.9V8H196V6.3h4.5V4h-7.1v10.4H200.6z M210.5,14.4l-2.2-4.3c0.5-0.3,0.7-0.4,0.9-0.7c0.5-0.5,0.8-1.2,0.8-2
				c0-1.9-1.5-3.3-3.6-3.3h-4.1v10.4h2.5v-3.9h0.8l1.9,3.9H210.5z M204.9,8.4V6.3h1.4c0.7,0,1.1,0.4,1.1,1s-0.4,1-1.1,1H204.9z
				 M217,6.8l1.6-1.6c-0.5-0.5-0.8-0.7-1.3-0.9c-0.6-0.2-1.3-0.4-2.1-0.4c-2.4,0-3.9,1.3-3.9,3.3c0,1.8,1,2.7,2.8,3l1.3,0.2
				c0.6,0.1,0.8,0.4,0.8,0.9c0,0.6-0.5,1-1.4,1c-0.7,0-1.1-0.1-1.6-0.3c-0.3-0.1-0.4-0.2-0.7-0.4l-1.6,1.6c0.6,0.5,0.9,0.7,1.4,0.9
				c0.7,0.3,1.5,0.4,2.4,0.4c2.7,0,4.2-1.2,4.2-3.3c0-1.8-0.9-2.8-2.8-3.1l-1.3-0.2c-0.5-0.1-0.9-0.4-0.9-0.8c0-0.6,0.5-1,1.4-1
				c0.5,0,0.8,0.1,1.1,0.2C216.6,6.5,216.7,6.5,217,6.8z M228.2,14.4V4h-2.5v4h-2.7V4h-2.5v10.4h2.5v-4.1h2.7v4.1H228.2z M237.8,9.2
				V8.3c0-1.5-0.4-2.5-1.1-3.3c-0.7-0.8-1.7-1.1-2.9-1.1c-1.2,0-2.2,0.4-2.9,1.1c-0.8,0.9-1.1,1.8-1.1,3.8v0.7c0,1.3,0,2.7,1.1,3.8
				c0.8,0.8,1.7,1.1,2.9,1.1c1.2,0,2.2-0.4,2.9-1.1C237.9,12.2,237.8,10.8,237.8,9.2z M232.8,6.6c0.2-0.2,0.6-0.4,1-0.4
				s0.8,0.2,1,0.4c0.3,0.4,0.4,1.1,0.4,2.2v0.7c0,1.3-0.1,1.9-0.4,2.3c-0.2,0.3-0.6,0.5-1,0.5s-0.8-0.2-1-0.5
				c-0.2-0.4-0.4-1-0.4-2.3V8.8C232.4,7.8,232.6,7,232.8,6.6z M239.5,4v10.4h2.5v-3.7h1.6c2.1,0,3.6-1.4,3.6-3.3S245.7,4,243.6,4
				H239.5z M242,8.4V6.3h1.4c0.7,0,1.1,0.4,1.1,1s-0.5,1-1.1,1H242z"/>
		</g>
		<g>
			<polygon class="st1" points="232.3,21.2 234.3,27.7 241.1,27.7 235.6,31.6 237.7,38.1 232.3,34.1 226.7,38.1 228.8,31.6 
				223.3,27.7 230.1,27.7 			"/>
			<polygon class="st1" points="254.1,28.1 256.2,34.6 263.1,34.6 257.5,38.6 259.6,45 254.1,41.1 248.6,45 250.7,38.6 245.2,34.6 
				252.1,34.6 			"/>
			<polygon class="st1" points="271.3,44.1 273.4,50.6 280.1,50.6 274.6,54.6 276.7,61 271.3,57.1 265.8,61 267.8,54.6 262.3,50.6 
				269.2,50.6 			"/>
			<polygon class="st1" points="277.1,66.6 279.2,73.1 286,73.1 280.5,77 282.6,83.5 277.1,79.5 271.6,83.5 273.7,77 268.2,73.1 
				275,73.1 			"/>
			<polygon class="st1" points="271.3,89.6 273.4,96 280.1,96 274.6,100 276.7,106.5 271.3,102.5 265.8,106.5 267.8,100 262.3,96 
				269.2,96 			"/>
			<polygon class="st1" points="254.7,106.1 256.8,112.6 263.5,112.6 258.1,116.6 260.2,123 254.7,119.1 249.2,123 251.3,116.6 
				245.8,112.6 252.5,112.6 			"/>
		</g>
	</g>
</g>
</svg>
