<?xml version="1.0" encoding="utf-8"?>
<!-- Generator: Adobe Illustrator 21.0.0, SVG Export Plug-In . SVG Version: 6.00 Build 0)  -->
<svg version="1.1" id="Layer_1" xmlns="http://www.w3.org/2000/svg" xmlns:xlink="http://www.w3.org/1999/xlink" x="0px" y="0px"
	 viewBox="0 0 370.4 166.9" style="enable-background:new 0 0 370.4 166.9;" xml:space="preserve">
<style type="text/css">
	.st0{fill:#FFFFFF;}
</style>
<g>
	<path class="st0" d="M129.2,110.8c-1.3-5.2,2.2-7.2,2.7-8.6c0.9-2.5,6.2-10.9,8.4-12.4c1.8-1.2,0.8-0.1,1-1.5
		c0.4-3.4,2.9-3.4,5-6.1l0.3-0.4c0-0.1,0.1-0.1,0.2-0.2l0.5-0.5c1.7-1.7,3.1-2.5,5.6-4.8c2.6-2.3,18.4-12.8,22.1-13.7
		c-1.6,7.1-3.9,8.3-8.8,15.3c-6.7,9.6-20.3,23.8-29.3,30C134.8,109.5,132.5,112.3,129.2,110.8L129.2,110.8z M0,75.2v4.2
		c0.9,1.6,0.4,2.9,2.2,3.8c1.1,0.6,0.6,0,1.8,1C4.9,85,4.4,85,5.5,85.3C5,78.6,2.8,77,5.3,67.1c3.9-15,14.4-26.3,28-34.1
		c4.5-2.6,9.1-4.5,14.6-6.1l8.1-2.3c2.9-0.7,5.8-0.9,8.5-1.5c1.7-0.4,2.4-1,4.1-1.2c2.6-0.2,2.2-0.5,4.3-0.9c1.5-0.2,3.6,0,4.9-0.2
		c1.8-0.3-0.2-0.4,2.1-0.4c5.7-0.1,6.2,0.4,11.6,1.1c1.8,0.2,3.3,0.2,5,0.3c2.2,0.1,3.8-0.4,3.8-0.4c1.4,0.5,0.1,0.8,2.9,1.1
		c1.8,0.2,2.3,0,3.9-0.1c2,0,0.1,0,1.4,0.3c0.9,0.2,0.9,0.1,1.8,0.3c1.6,0.4,0.9,0.9,2.2-0.3c0.5,0.9-0.5-0.8,0.2,0.6l0.4,0.7
		c1.4-0.8,0.3-0.6,1.8-0.7c2.4,2.5,6.2,1.6,9.5,2.9c1.8,0.7,1.8,0,2.4,0.2c2.3,0.9-0.5-0.1,1.1,1.2c0.3,0.3,1.3,0.6,1.8,0.8
		c0.2-0.3,0.1-0.3,0.2-0.7l0.1-0.5c2,0.8,3.2,2.5,5.5,2.5c2.2,0,0.8,0,2.9,0.8c1,0.4,2,0.6,3,0.8c-0.8,3.4-3.1,6.2-4.9,8.8
		c-1.6,2.2-1.9,4.5-3.8,6.6c-1,1.1-0.7,0.5-0.7,2.5c-2.3,1.3-0.1,1.3-2.8,2.2c0.6,1.5,0,1.2-0.6,1.9l-1.9,2.6
		c-1,1.3-1.8,3.4-2.7,4.9c-0.4,0.7-0.3,0.6-0.9,1.2c-0.4,0.4-0.3,0.2-0.5,0.5l-0.7,1.1c-0.3,0.5-0.1,0.2-0.4,0.6
		c-0.3,0.3-0.5,0.6-0.8,0.9c-1,1.2-1.9,3-2.9,4.2l-4.4,1.3c-1.8,0.4-0.9,0.4-3.1,0.2c-3.8-0.3-6.5,1.3-9.7,1.6c-0.6,0-1.5,0-2,0.2
		c-1.6,0.5,0.2-0.1-1.1,0.7c-0.4,0.2-11.3,2.9-14.6,4.1c-5.2,1.9-5,1.6-10.6,4.3c-2.5,1.2-2.9,0-5.5,2.1l-6.6,4.5
		c-1.4,0.8-1.2,0.4-2,1.8c-1.2,2-1.9,2.6-3.3,3.8c0,5.6,3.5,10.2,7.1,5.8l-2.5-0.5c0.5-1.8,2.3-2.7,3.6-3.9c1.3-1.1,2.5-2.1,4.1-2.8
		c3.1-1.3,5.7-3.3,9.1-4.7c1.8-0.7,3.4-1.3,5.2-2c1.2-0.5,4-2,4.6-2.2c0.7-0.2,1.2,0.1,2.3-0.6c0.8-0.6,0.4-1,1.9-1.5
		c2.5-0.8,3.3,0.5,5-1.9c1.5,2.1,3.2-0.7,4.2-0.7c0,0,0.1,0,0.2,0c0,0,0.1,0,0.2,0h0.2c0.1,0,0.2,0,0.2,0c0.7,0,1.2-0.4,2-0.7
		c2.8-1.1,5.8-1.5,9.1-1.6c-0.9,3.2-5.1,6.1-7.2,8.7c-1.4,1.8-5.1,3.9-5.9,5.2c-0.8,1.4-0.8,1.2-2,2.5c-0.5,0.6-0.8,0.9-1.2,1.2
		c-0.6,0.4-0.5,0.2-1.3,0.7c-2.8,1.9-7.7,6.8-11.2,9.2c-0.6,0.4-0.7,0.6-1.1,1c-1.4,1.1-1.6,0.4-3.2,1.3c-1.3,0.7-1.6,1.4-2.6,1.9
		c-1.7,1-1.1,0-2.1,2c-2.3,0-6,2.2-8.2,3.3c-1.5,0.8-1.1,1.2-2.2,1.5l-2.9,1.1c-0.8,0.5-2,0.7-2.9,0.9c-10.5,3.2-1,2-17.8,4.3
		c-8.4,1.2-17.4-0.9-20.9-9.1c-1.6-3.7-1.7-9.2-0.6-13.1c2.1-7.8,7.7-11.4,12.9-16.7c-4.3,0.3-11.5,7.9-13.6,11.4
		c-3.3,5.5-4.2,14-1.1,20.2c6.3,12.9,24.4,12.8,36.4,8.8c9.2-3,13.8-4.9,21.2-10l8.1-4.4c2.2-0.9,7.7-5.8,11-7.7
		c5.2-3.1,10.4-5.9,14.7-10.2c2.4-2.4,2.8-5.1,6.4-6.2l-0.2-1.4c2-0.1,2.8-0.7,3.6-2c1.2-2,0.2-1.8,3.1-2.2c-0.2-1.9,0.4-1.9,1.5-3
		c2.9-2.9,4.6-1.7,11.1-2.5c5.4-0.7,10.8-1.7,16.5-1.4c-0.5,1.5-1.1,1.2-2.1,2.1c-0.7,0.6-1,1.3-2,2.1c-6.6,5.3-14.2,14-18.7,21.5
		c-2,3.3-4.6,7.2-3.1,11.9s4.2,7.4,9.6,4.7c10.9-5.5,16.4-13.9,23.8-23.8c-0.6,1.5-2.2,4.1-3.1,5.7c-3,5.4-10.3,20.6-9.3,26.4
		c0.2,1.3,2.4,5.3,3,6c2.2,2,4.6,0.9,6.2-0.9c1.3-1.3,3.1-2.5,3.7-4.5c-0.6,0.7-6.4,6.1-7.7,4.9c-1.3-2.7,0.7-11.3,1.7-13.8
		c0.3-0.7,0.7-2.4,1.1-3c0.4-0.7,0.2-0.2,0.3-0.4c0-0.1,0.2-0.1,0.4-0.4c0.2-0.4,0.4-0.8,0.6-1.1c1.7-3.5,1.9-3,3-5
		c1.2-2.2,1.2-3.2,2.6-5.3l10-13.9c8.1-11.3,6.2-8.8,14.6-17.6c1.5-1.5,2.7-2.2,4.4-3.6c4.2-3.6-3.9-6.4-6.6-7.1
		c-3.7-1-3.9,0.7-5.5,2.5c-1.6-0.8-3-3.2-5.3-3.5c-1.9-0.2-8.6,5-10.4,6.4c-2.2,1.7-6.4,7.4-9,8c-1.1,0.2-5.7-0.8-7.2-1
		c-5.1-0.6-11.3,0-16.5-0.4c0.6-2,2-2.9,3.2-4.3c1.2-1.4,1.9-2.8,3.2-4.4c1.2-1.5,2.9-2,4.2-3.5l6.4-8.5c2.5-3.7,6.6-10.3,8.2-14
		c2.8,1.1,1.5,0.8,5.2,1.1c1.9,0.1,2.6,1,4.7,1.5c3.7,0.7,6.6,1.4,10,2.2c4.3,1,16.5,2.6,21.6,2.7c12.5,0.4,31.1-6.2,33-15.7
		c-1.8,0.7-3.8,2.5-5.8,3.6c-8.8,4.7-21.7,5.1-31.5,3.5c-1.3-0.2-2.7-0.5-3.9-0.6c-2-0.3-2.4,0.3-3.6,0.2c-0.8,0-4.3-1.8-6.9-2
		c-3.4-0.3,0.1-0.2-3.2-1.2c-2.5-0.8-1.6,0-3,0.6c-0.9-0.8-2-1.1-3.4-1.3l-2.5-0.6c-2.3-0.7-2.3-0.5-3.4-0.4
		c-1.2,0.2-1.9-0.1-2.9-1.1c-0.5-3.4,4-9.3,0.7-12.8c-2-2.1-9.7-2.9-13.2-2.7c0,3.2,2.3,2.6,1.2,8c-0.5,2.2-1.6,4.9-2.8,6.5
		c-2.2-0.4-1.3-0.8-2.3-1.1c-0.6-0.2-1.9,0.2-2.9,0l-21.3-4.8c-2-0.1-3.8-0.3-5.8-0.7c-2-0.3-3.6-0.6-5.5-1c-2.9-0.6-3.6,0-6.3-0.5
		c-3.8-0.7-8.2-0.5-12.6-0.9c-7.7-0.7-30.5,2.9-35.1,4.8c-0.9,0.4-1.6,0.9-2.4,1.1c-3.1,0.8-4.4,0.7-7.7,2.3
		C30.4,30.2,27.2,32.2,17.1,40c-6.2,4.8-13,16-15.6,24.3C0.9,68.6,0.5,73.6,0,75.2L0,75.2z"/>
	<path class="st0" d="M299.5,67c0.5-4,7.5-11.9,9.8-14.7L331.2,25c13.3-16.4,16.1-13.2,8.9-2.9c-1.7,2.4-2.8,4.8-4.6,7.5
		c-0.9,1.3-1.6,2.4-2.4,3.9C329.2,41.5,304.4,66.5,299.5,67L299.5,67z M344.6,0.2c-0.5,0.9-5.7,4.4-7.2,6c-2.1,2.3-4.3,4.9-6.4,7.1
		l-4.8,5.6c-0.6,0.6-1,1-1.5,1.6c-10.1,12.3-19.5,25-29.3,37.6c-3.8,5-8.1,10.7-12.1,14.9c-3.2,3.3-9.3,11.3-13,13.7
		c-2.3,1.5-5.2,4.6-7.1,6.4c-5.3,5-15.6,16.4-22,18.6c0.5-2.7,1.8-6.5,2.9-8l1.3-1.9c0.7-0.9,0.8-1.8,1.2-2.6l0.1-0.1l0.5-0.8
		c0.4-0.5,0.2-0.2,0.6-0.6l2.3-3.2c0.8-1,0.8-2.2,1.5-3.3c1-1.6,1.8-0.9,2.7-2.9c1-2.3,2.7-4.4,4.1-6.6c0.8-1.2,1.3-2,2.5-3
		c1.1-1,1.4-1.8,2.6-2.9c2.1-1.8,3.8-3.1,5-5.7c0.6-1.2,1.7-2,2.6-3c3.1-3.1,10.9-5.1,1.5-9.8c-5.8-2.9-13.1,7-16.1,10.8
		c-2.7,3.4-6,6.5-8.9,9.8c-1.6,1.8-8.2,8.1-7.9,10.2c2.2-0.3,13-13.5,15.3-16c2-2.1,2.6-3.2,5.3-4.9c-6.3,9.1-12.9,17.9-18.6,27.6
		c-1.8,3-7.2,11.9-8,15.2c-0.9,3.5,1.4,6,3.9,7c3.5,1.4,5.8-1.7,7.4-3.3c3.6-3.7,8-7.4,12-11.2c2.1-2,3.7-4,5.9-5.9
		c2-1.8,3.2-3.9,5.3-6.1c1-1,1.9-1.7,3.4-2.5c4.9-2.9,13.7-16.9,19.7-20.5c-0.8,1.6-2.5,3.5-3.8,5.3c-4.6,6.7-13.8,21.6-16.7,28.3
		c-2.1,4.8-3.7,9.4,1.7,12.2c5.6,2.9,7.7,3.4,12.6-0.7c1.5-1.3,3.6-2.7,5-4l13.2-13.8c1.4-1.4,2.7-3.5,4.2-4.8
		c0.9-0.8,1.6-1.3,2.4-2.1c0.9-1,1.6-1.3,2.3-2.2c-2.3-0.8-3.3,1.1-4.9,2.4c-5.4,4.7-10.6,10-15.8,15c-1.1,1.1-2.7,2.8-3.9,3.7
		c-2.6,1.7-7.3,4.6-11.2,4.2c-0.6-2.6,0.4-2.9,0-4.9c-0.4-1.6,0.4-2.8,1.3-4.3l0.9-1.6c1.1-1.6,1-2.9,2.6-4.4
		c1.3-1.2,2.4-2.9,3.1-4.5c1.4-3.2,1.9-2.5,3.2-4.4c0.7-0.9,0.4-1.1,0.8-2.2c0.3-0.7,0.7-1.4,1.1-2c4.1-7.2,2.1-4.8,8.5-9.9
		c2.5-2,4.3-3.5,6.7-5.4c2.3-1.8,3.9-3.8,6.4-5.7s4.4-3.2,6.4-5.8c1.1-1.4,2.2-1.7,3.3-2.9c1.1-1.1,1.8-2.1,2.9-3.4
		c4.7-5.6,13.7-12.6,17.4-19c0.9-1.5,1.2-2.7,2.1-4.1c0.8-1.2,1.9-2.8,2.7-3.6c1.8-1.7,1.3-1.3,2.6-3.6c7-12,7.8-4,3.4-15.6
		c-0.8-2.2-1.6-2.2-2.4-3.2C347.3-0.1,346.5-0.1,344.6,0.2L344.6,0.2z"/>
	<path class="st0" d="M224.3,155.7c0.5,2.1,4.7,5.1,6.7,6.1c5.7,2.6,9,3.8,15.9,4.9c3.2,0.5,4.6-0.4,7.5,0.1
		c2.6,0.4,11.1-1.1,14-1.7c5.2-1.2,19.1-6.5,23.5-9.4c6.4-4.3,19.1-15.4,24.1-20.9c0.8-0.9,1-1.5,1.7-2.5c1.2-1.5,2.8-2.7,4.2-4.1
		c16.8-18.1,26-30.3,39.3-51.5c0.6-1,1-1.5,1.5-2.7c2.1-5.4,7.1-10.2,7.7-12.7c-1.2-1.4-0.7-1.4-3-1.6c-1.1-1.5,0.2-1-1.7-1.9
		c-0.9-0.4-1.8-0.8-2.4-0.8c-2.6,0.3-5,4.8-7.4,6.4c-3.1,2.2-4.5,3.7-6.2,7.6c-1,2.3-1.6,2.3-3.2,3.7c-1.3,1.2-1.8,2.4-3,4
		c-1.4,2-3.2,3.2-6.4,7.5c-1,1.4-1.9,2.6-2.9,4c-3,4.1-5.7,8.7-9,11.8c-2.1,2-7.1,8.4-10.6,10c0.3-1.5,0.8-2.6,1.2-4.1
		c1.8-5.8,0.6-1.7,2.5-5.5c1.5-3,2.5-6.7,3.9-8.6c1.9-2.8,1.2-1.4,2.2-2.6c1.9-2.2,0.1-3,3.7-6.4c1.3-1.2,1.6-3.2,3.4-4.6l6.2-6.3
		c1-1.3,0.9-2.2,1.8-3.4c2.3-3.4,7.3-5.3,7.8-7.2c0.1-2.7-2.4-5.6-4-6.5c-9.1-4.9-11.2,6.6-17.2,11c-1.3,0.9-2,1.3-2.9,2.3
		l-9.3,11.1c-2.3,2.8-6.3,5.9-6.7,8.5c2.3-0.7,4.6-3.9,6-5.4c1.8-1.9,3.8-3.6,5.6-5.5c2.2-2.2,8.4-9.5,11.7-10.5
		c-0.3,0.7-6.2,9.1-8.2,12.7c-1.2,2.2-2.7,4.1-4.1,6.3c-3.2,5.2-14,24.6-10.3,29.9c1.5,2.1,4.1,2.8,6.5-0.4c2.8-3.7,8.4-9,12.2-13.7
		c3.5-4.5,6.6-7.6,9.6-11.2c3.3-4,9.7-10.3,12.3-13.7c1.3-1.7,3-4.4,4.4-5.6c-1,6.4-6.6,14.3-9.5,18.9L326.6,117
		c-4.5,6.5-1.9,1.4-4.8,5.3c-0.5,0.7-0.9,0.9-1.6,1.8c-1.3,1.5-5.3,7.2-6.3,7.9s-0.4,0.1-1.2,0.5c-0.9,0.5-0.1-0.1-0.9,0.9l-5.6,4.8
		c-4.8,3.9-11.4,7.7-17.6,10.8c-3.2,1.6-6.3,3.2-9.5,4.7c-2.1,1.1-2.7,1.3-5.1,1.9c-2.5,0.6-3,0.8-5,1.9c-1.9,1.1-13.8,3.8-16.9,4.1
		l-6.5,0.6c-2.2,0.1-11-0.8-13-1.3C226.5,159.3,226.6,156.5,224.3,155.7L224.3,155.7z"/>
	<path class="st0" d="M177.3,104.3c0.3-1.2,1.3-1.7,2-3.1c2.8-5.7,3.4-4.3,4.4-6.4c0.6-1.3,0.9-2.4,1.6-3.6l4.8-5.9
		c1.7-1.9,3.2-3,5.2-5.2c1.7-1.9,3.1-3.9,4.9-5.9l4.6-5.8c2.5-2.4,1.6-2.5,2.3-3.2c0.5-0.6,0.1-0.2,0.9-0.5c2.5-1.1,6.1-4.8,6.7-7.5
		c0.3-1.6,0.9-3.3,0.2-4.6c-0.5-0.9-1.9-1.9-3.4-1.9c-3.2-0.1-5.3,2.3-6.7,3.8c-1.7,1.7-3.8,3.5-5.4,5.3c-3.3,3.8-1.8,3.9-4,6.4
		c-3.4,3.8-6.8,7-10.2,11c-1.8,2.1-4.9,4.7-7.8,8.1c-1.1,1.3-2.1,1.2-1.8,3.1c1.8-0.3,10-9.1,13.4-12l4.2-3.6
		c-0.2,2.3-18.6,29.2-21.3,33.3c-1.6,2.5-6.6,10.2-2.7,12.9c1.4-2.5,3.8-8.2,5.4-10.4c0.8-1.1,2-1.5,2.9-2.3l10.7-10.5
		c3.6-3.6,7-6.9,10.7-10.4l7.9-7.6c1.1-1.2,1.1-2,2.8-2.6c-0.5,1.8-3,4.7-4.1,6.4c-3.5,5.6-6.7,11.7-6.7,18.7c0,1.7-0.1,2.7,1.3,3.3
		c-1.4,1.8-3.1,2.7-3,6.2c1.5-0.4,1.4-0.9,2.3-2c4.3-5.2,12.9-14,17.1-19.3l11-12.6c-0.8,1.9-2.1,3.6-3.2,5.6
		c-3.3,6.1-5.8,12.2-7,19.4c-0.4,2.4-0.3,6.1-0.4,8.6c-0.1,2.7-0.2,1.9,0.9,3.6c0.8,1.3,0.3,1.7,1.7,2.4c1.4,0.8,6.2,0.8,8,0.5
		c2.3-0.4,4.2-1.9,4.9-3.9c-2.5,0.7-4.7,3.4-7.8,2.7c-2.7-0.5-2.3-5.1-2.2-8.2c0.1-4.3,2-4.1,2.3-8.6l2.5-7.8
		c0.5-1.3,4.4-6.5,6.2-9.8c0.9-1.7,1-1.6,2.3-2.9c1.7-1.8,3.1-4.5,4.7-6c1.6-1.5,4.5-3,5.6-4.7c-0.8-2-3.5-4.4-5.9-5.1
		c-3.7-1.1-5,1.4-6.5,3.8c-1.5,2.4-2.8,3.3-5.1,5.9c-1.4,1.6-4.6,4.3-5.4,5.6c-1.4,2.2-3.3,3.9-5.2,5.9l-15.3,17.4
		c0.3-3.1,6.6-13.3,8.5-15.9c0.8-1.1,1.3-1,2-2.1c1.7-2.5,1.1-2.7,4.8-7.3c4.1-5,1-9.4-3.8-6.3c-3,2-12.9,10.8-15.1,13.4
		c-0.8,0.9-1.4,0.9-2.3,1.9c-0.9,1.1-0.6,1.2-1.9,2.3c-3.8,3.3-6.8,7.3-9.7,10.4c-1.4,1.5-2.6,2.4-4,4L177.3,104.3L177.3,104.3z"/>
	<path class="st0" d="M284.4,53.9c1.3-5-1.5-3.4,2.4-8c0.9-1.1,1.2-2,2-3.2l4.9-5.8c0.8-1,2-1.8,2.7-2.8c0.9-1.2,1.2-1.9,2.2-2.9
		c2.2-2.2,1.7-2.4,1.7-3l-0.2-0.5c-3.3-0.6-14.5,10.8-16.8,13.3l-7.4,7.9c-1,0.9-1.4,1-0.2,2.3c0.4,0.4,1.6,1.1,2.4,1.4
		C279.5,52.8,283,54,284.4,53.9L284.4,53.9z"/>
</g>
</svg>
