<svg version="1.1" id="Layer_1" xmlns="http://www.w3.org/2000/svg" x="0" y="0" viewBox="0 0 425.2 250.7" xml:space="preserve"><style>.st1{fill:#d4a455}</style><g id="Слой_x0020_1"><g id="_1728996403824"><path d="M361.6 132.2l-6.5-7.6 6.5-7.3c1.6 0 3.1 0 4.5-.1 2.3-.2 4.3-.4 6.1-.9 3.3-1 5.2-2.5 6.3-3.6 1.1-1.1 1.6-2.1 2.1-3.4.5-1.3.6-1.6.5-3-.3-4.3-2.1-10.5-5.4-18.7l-22.7-56h17.6l19.8 50 18-50H426l-32.5 85.7-.2.5-.1.2c-.1-.1-7.3 15.1-31.6 14.2zM10.8 53.6c0-14.1 3.8-26 11.6-35.7 7.7-9.7 18-14.6 31-14.6 14.2 0 25.1 4.4 32.6 13.2 7.5 8.8 11.3 21.2 11.3 37.1 0 15.9-3.9 28.6-11.8 37.9-3.5 4.2-7.7 7.4-12.6 9.8-.7.1-1.3.2-2 .3-7.9 1.1-15.7 2.6-18.4 3.7-.2.1-.5.2-.7.3-13.2 0-23.4-4.7-30.4-13.9-7.1-9.3-10.6-22-10.6-38.1zm18.3 0c0 11.5 2 20.5 5.9 26.8 3.9 6.3 9.6 9.5 17.1 9.5 8.8 0 15.5-3.1 20.1-9.3 4.6-6.2 6.9-15.2 6.9-27 0-23.2-8.6-34.7-25.6-34.7-7.8 0-13.8 3.1-18 9.4-4.4 6.2-6.4 14.7-6.4 25.3zm79.3-48.9L125.3.6v81.3c0 8.9 2.7 14.2 8 15.9-1.9 3.6-4.8 5.9-8.6 6.9l-5.7-1.3h-.4c-.9 0-1.8-.1-2.8-.2-1-.1-1.9-.3-2.8-.4l-.6-.1c-2.7-2.6-4.1-7-4.1-13.3l.1-84.7zm78.3 99.2v-4.4c-1.4 1.5-3.8 2.9-7.1 4-3.3 1.2-6.8 1.7-10.3 1.7-2.3 0-4.5-.2-6.5-.5.4-2.3.3-4.6-1.6-6.7-1.1-1.2-3.4-2.1-6-2.6-3.1-.6-6.6-.8-8.8-.7l-1.7.1c-5.3-6.3-8-15-8-26 0-11.4 3.3-20.7 10-27.9 6.7-7.2 15-10.8 25-10.8 5.5 0 10.5 1.1 15 3.4V4.7L203.6.6v103.3h-16.9zm-27.7.1c-3.6-1-6.8-2.6-9.6-4.7-.1-.2-.2-.5-.3-.7 1.7.1 3.6.3 5.4.6 1.8.4 3.4.9 3.9 1.5.7.8.8 2 .6 3.3zm27.7-55.1c-3.6-2.9-7.4-4.3-11.3-4.3-6.8 0-12 2.1-15.6 6.2-3.6 4.1-5.5 10-5.5 17.7 0 15.1 7.3 22.6 21.8 22.6 1.6 0 3.6-.5 6-1.5s3.9-2 4.6-3V48.9zm58.6 55H215V5c13.3-.6 22.7-.9 28-.9 10.3 0 18.3 2.2 24.1 6.6 5.8 4.4 8.7 10.7 8.7 18.9 0 7.8-4.1 14-12.4 18.6 12.3 4.3 18.4 13.1 18.4 26.5 0 9-3.4 16.1-10.2 21.4-6.7 5.1-15.5 7.8-26.3 7.8zm-12.7-84.8v23.7c2.7.2 5.6.3 8.5.3 11.5 0 17.2-4.3 17.2-12.9 0-7.6-5.2-11.4-15.6-11.4-2.7-.1-6.1 0-10.1.3zm0 37.4v32.6c3.5.3 6.4.5 8.6.5 7.8 0 13.5-1.3 17-4s5.3-7.1 5.3-13.2c0-5.6-1.6-9.7-4.9-12.3-3.3-2.6-9-3.8-17.2-3.8-1.7 0-4.6.1-8.8.2zm52.8 11.1c0-11 3.2-20 9.5-27 6.4-6.9 14.8-10.4 25.2-10.4 11 0 19.5 3.3 25.6 10 6.1 6.7 9.1 15.8 9.1 27.4 0 6.6-1 12.4-3 17.5l-.5-.5-.4-.6-.7-.1c-1.1-.2-1.8-.3-2.6-.3s-1.6.1-2.6.3l-.9.1-.4.8c0 .1-1.3 1.1-2.7 2.1-1.6 1.3-3.4 2.6-4.3 3.6-.6.7-1.2 1.4-1.9 2.1-1.5 1.7-3.1 3.5-4.5 5l-.1.1-4.8 5.6-.6.6c-.3.3-.6.6-.9 1l-.4.5c-1 .1-2.1.1-3.2.1-11 0-19.5-3.4-25.6-10.3-6.2-7.1-9.3-16.2-9.3-27.6zm64.7 21.2c-1.2 2.3-2.7 4.4-4.5 6.3-.6.7-1.3 1.4-2 2-.6.1-1.2.3-1.8.6-1.1.6-2.7 1.9-4.7 3.9-2.4 1.2-5 2.2-7.9 2.8l3.8-4.3c1.6-1.6 3.1-3.4 4.6-5l1.8-2.1c.7-.7 2.3-2 3.8-3.1 1.2-.9 2.3-1.7 3-2.4.5-.1 1-.1 1.4-.1.4 0 .8 0 1.3.1l.5.5c.2.1.4.3.7.8zM303 67.6c0 15.9 5.7 23.9 17.2 23.9 5.3 0 9.4-2.1 12.5-6.2 3.1-4.1 4.6-10 4.6-17.7 0-15.7-5.7-23.6-17.1-23.6-5.3 0-9.4 2.1-12.5 6.2-3.1 4.2-4.7 10-4.7 17.4z" fill="#fff"/><path class="st1" d="M129.9 195.3c-1.3-5.2 2.2-7.2 2.7-8.6.9-2.5 6.2-10.9 8.4-12.4 1.8-1.2.8-.1 1-1.5.4-3.4 2.9-3.4 5-6.1l.3-.4c0-.1.1-.1.2-.2l.5-.5c1.7-1.7 3.1-2.5 5.6-4.8 2.6-2.3 18.4-12.8 22.1-13.7-1.6 7.1-3.9 8.3-8.8 15.3-6.7 9.6-20.3 23.8-29.3 30-2.1 1.6-4.4 4.4-7.7 2.9zM.7 159.7v4.2c.9 1.6.4 2.9 2.2 3.8 1.1.6.6 0 1.8 1 .9.8.4.8 1.5 1.1-.5-6.7-2.7-8.3-.2-18.2 3.9-15 14.4-26.3 28-34.1 4.5-2.6 9.1-4.5 14.6-6.1l8.1-2.3c2.9-.7 5.8-.9 8.5-1.5 1.7-.4 2.4-1 4.1-1.2 2.6-.2 2.2-.5 4.3-.9 1.5-.2 3.6 0 4.9-.2 1.8-.3-.2-.4 2.1-.4 5.7-.1 6.2.4 11.6 1.1 1.8.2 3.3.2 5 .3 2.2.1 3.8-.4 3.8-.4 1.4.5.1.8 2.9 1.1 1.8.2 2.3 0 3.9-.1 2 0 .1 0 1.4.3.9.2.9.1 1.8.3 1.6.4.9.9 2.2-.3.5.9-.5-.8.2.6l.4.7c1.4-.8.3-.6 1.8-.7 2.4 2.5 6.2 1.6 9.5 2.9 1.8.7 1.8 0 2.4.2 2.3.9-.5-.1 1.1 1.2.3.3 1.3.6 1.8.8.2-.3.1-.3.2-.7l.1-.5c2 .8 3.2 2.5 5.5 2.5 2.2 0 .8 0 2.9.8 1 .4 2 .6 3 .8-.8 3.4-3.1 6.2-4.9 8.8-1.6 2.2-1.9 4.5-3.8 6.6-1 1.1-.7.5-.7 2.5-2.3 1.3-.1 1.3-2.8 2.2.6 1.5 0 1.2-.6 1.9l-1.9 2.6c-1 1.3-1.8 3.4-2.7 4.9-.4.7-.3.6-.9 1.2-.4.4-.3.2-.5.5l-.7 1.1c-.3.5-.1.2-.4.6-.3.3-.5.6-.8.9-1 1.2-1.9 3-2.9 4.2l-4.4 1.3c-1.8.4-.9.4-3.1.2-3.8-.3-6.5 1.3-9.7 1.6-.6 0-1.5 0-2 .2-1.6.5.2-.1-1.1.7-.4.2-11.3 2.9-14.6 4.1-5.2 1.9-5 1.6-10.6 4.3-2.5 1.2-2.9 0-5.5 2.1l-6.6 4.5c-1.4.8-1.2.4-2 1.8-1.2 2-1.9 2.6-3.3 3.8 0 5.6 3.5 10.2 7.1 5.8l-2.5-.5c.5-1.8 2.3-2.7 3.6-3.9 1.3-1.1 2.5-2.1 4.1-2.8 3.1-1.3 5.7-3.3 9.1-4.7 1.8-.7 3.4-1.3 5.2-2 1.2-.5 4-2 4.6-2.2.7-.2 1.2.1 2.3-.6.8-.6.4-1 1.9-1.5 2.5-.8 3.3.5 5-1.9 1.5 2.1 3.2-.7 4.2-.7h.8c.7 0 1.2-.4 2-.7 2.8-1.1 5.8-1.5 9.1-1.6-.9 3.2-5.1 6.1-7.2 8.7-1.4 1.8-5.1 3.9-5.9 5.2-.8 1.4-.8 1.2-2 2.5-.5.6-.8.9-1.2 1.2-.6.4-.5.2-1.3.7-2.8 1.9-7.7 6.8-11.2 9.2-.6.4-.7.6-1.1 1-1.4 1.1-1.6.4-3.2 1.3-1.3.7-1.6 1.4-2.6 1.9-1.7 1-1.1 0-2.1 2-2.3 0-6 2.2-8.2 3.3-1.5.8-1.1 1.2-2.2 1.5l-2.9 1.1c-.8.5-2 .7-2.9.9-10.5 3.2-1 2-17.8 4.3-8.4 1.2-17.4-.9-20.9-9.1-1.6-3.7-1.7-9.2-.6-13.1 2.1-7.8 7.7-11.4 12.9-16.7-4.3.3-11.5 7.9-13.6 11.4-3.3 5.5-4.2 14-1.1 20.2 6.3 12.9 24.4 12.8 36.4 8.8 9.2-3 13.8-4.9 21.2-10l8.1-4.4c2.2-.9 7.7-5.8 11-7.7 5.2-3.1 10.4-5.9 14.7-10.2 2.4-2.4 2.8-5.1 6.4-6.2l-.2-1.4c2-.1 2.8-.7 3.6-2 1.2-2 .2-1.8 3.1-2.2-.2-1.9.4-1.9 1.5-3 2.9-2.9 4.6-1.7 11.1-2.5 5.4-.7 10.8-1.7 16.5-1.4-.5 1.5-1.1 1.2-2.1 2.1-.7.6-1 1.3-2 2.1-6.6 5.3-14.2 14-18.7 21.5-2 3.3-4.6 7.2-3.1 11.9 1.5 4.7 4.2 7.4 9.6 4.7 10.9-5.5 16.4-13.9 23.8-23.8-.6 1.5-2.2 4.1-3.1 5.7-3 5.4-10.3 20.6-9.3 26.4.2 1.3 2.4 5.3 3 6 2.2 2 4.6.9 6.2-.9 1.3-1.3 3.1-2.5 3.7-4.5-.6.7-6.4 6.1-7.7 4.9-1.3-2.7.7-11.3 1.7-13.8.3-.7.7-2.4 1.1-3 .4-.7.2-.2.3-.4 0-.1.2-.1.4-.4.2-.4.4-.8.6-1.1 1.7-3.5 1.9-3 3-5 1.2-2.2 1.2-3.2 2.6-5.3l10-13.9c8.1-11.3 6.2-8.8 14.6-17.6 1.5-1.5 2.7-2.2 4.4-3.6 4.2-3.6-3.9-6.4-6.6-7.1-3.7-1-3.9.7-5.5 2.5-1.6-.8-3-3.2-5.3-3.5-1.9-.2-8.6 5-10.4 6.4-2.2 1.7-6.4 7.4-9 8-1.1.2-5.7-.8-7.2-1-5.1-.6-11.3 0-16.5-.4.6-2 2-2.9 3.2-4.3 1.2-1.4 1.9-2.8 3.2-4.4 1.2-1.5 2.9-2 4.2-3.5l6.4-8.5c2.5-3.7 6.6-10.3 8.2-14 2.8 1.1 1.5.8 5.2 1.1 1.9.1 2.6 1 4.7 1.5 3.7.7 6.6 1.4 10 2.2 4.3 1 16.5 2.6 21.6 2.7 12.5.4 31.1-6.2 33-15.7-1.8.7-3.8 2.5-5.8 3.6-8.8 4.7-21.7 5.1-31.5 3.5-1.3-.2-2.7-.5-3.9-.6-2-.3-2.4.3-3.6.2-.8 0-4.3-1.8-6.9-2-3.4-.3.1-.2-3.2-1.2-2.5-.8-1.6 0-3 .6-.9-.8-2-1.1-3.4-1.3l-2.5-.6c-2.3-.7-2.3-.5-3.4-.4-1.2.2-1.9-.1-2.9-1.1-.5-3.4 4-9.3.7-12.8-2-2.1-9.7-2.9-13.2-2.7 0 3.2 2.3 2.6 1.2 8-.5 2.2-1.6 4.9-2.8 6.5-2.2-.4-1.3-.8-2.3-1.1-.6-.2-1.9.2-2.9 0l-21.3-4.8c-2-.1-3.8-.3-5.8-.7-2-.3-3.6-.6-5.5-1-2.9-.6-3.6 0-6.3-.5-3.8-.7-8.2-.5-12.6-.9-7.7-.7-30.5 2.9-35.1 4.8-.9.4-1.6.9-2.4 1.1-3.1.8-4.4.7-7.7 2.3-11.4 5.4-14.6 7.4-24.7 15.2-6.2 4.8-13 16-15.6 24.3-.6 4.3-1 9.3-1.5 10.9zM300.2 151.5c.5-4 7.5-11.9 9.8-14.7l21.9-27.3c13.3-16.4 16.1-13.2 8.9-2.9-1.7 2.4-2.8 4.8-4.6 7.5-.9 1.3-1.6 2.4-2.4 3.9-3.9 8-28.7 33-33.6 33.5zm45.1-66.8c-.5.9-5.7 4.4-7.2 6-2.1 2.3-4.3 4.9-6.4 7.1l-4.8 5.6c-.6.6-1 1-1.5 1.6-10.1 12.3-19.5 25-29.3 37.6-3.8 5-8.1 10.7-12.1 14.9-3.2 3.3-9.3 11.3-13 13.7-2.3 1.5-5.2 4.6-7.1 6.4-5.3 5-15.6 16.4-22 18.6.5-2.7 1.8-6.5 2.9-8l1.3-1.9c.7-.9.8-1.8 1.2-2.6l.1-.1.5-.8c.4-.5.2-.2.6-.6l2.3-3.2c.8-1 .8-2.2 1.5-3.3 1-1.6 1.8-.9 2.7-2.9 1-2.3 2.7-4.4 4.1-6.6.8-1.2 1.3-2 2.5-3 1.1-1 1.4-1.8 2.6-2.9 2.1-1.8 3.8-3.1 5-5.7.6-1.2 1.7-2 2.6-3 3.1-3.1 10.9-5.1 1.5-9.8-5.8-2.9-13.1 7-16.1 10.8-2.7 3.4-6 6.5-8.9 9.8-1.6 1.8-8.2 8.1-7.9 10.2 2.2-.3 13-13.5 15.3-16 2-2.1 2.6-3.2 5.3-4.9-6.3 9.1-12.9 17.9-18.6 27.6-1.8 3-7.2 11.9-8 15.2-.9 3.5 1.4 6 3.9 7 3.5 1.4 5.8-1.7 7.4-3.3 3.6-3.7 8-7.4 12-11.2 2.1-2 3.7-4 5.9-5.9 2-1.8 3.2-3.9 5.3-6.1 1-1 1.9-1.7 3.4-2.5 4.9-2.9 13.7-16.9 19.7-20.5-.8 1.6-2.5 3.5-3.8 5.3-4.6 6.7-13.8 21.6-16.7 28.3-2.1 4.8-3.7 9.4 1.7 12.2 5.6 2.9 7.7 3.4 12.6-.7 1.5-1.3 3.6-2.7 5-4l13.2-13.8c1.4-1.4 2.7-3.5 4.2-4.8.9-.8 1.6-1.3 2.4-2.1.9-1 1.6-1.3 2.3-2.2-2.3-.8-3.3 1.1-4.9 2.4-5.4 4.7-10.6 10-15.8 15-1.1 1.1-2.7 2.8-3.9 3.7-2.6 1.7-7.3 4.6-11.2 4.2-.6-2.6.4-2.9 0-4.9-.4-1.6.4-2.8 1.3-4.3l.9-1.6c1.1-1.6 1-2.9 2.6-4.4 1.3-1.2 2.4-2.9 3.1-4.5 1.4-3.2 1.9-2.5 3.2-4.4.7-.9.4-1.1.8-2.2.3-.7.7-1.4 1.1-2 4.1-7.2 2.1-4.8 8.5-9.9 2.5-2 4.3-3.5 6.7-5.4 2.3-1.8 3.9-3.8 6.4-5.7 2.5-1.9 4.4-3.2 6.4-5.8 1.1-1.4 2.2-1.7 3.3-2.9 1.1-1.1 1.8-2.1 2.9-3.4 4.7-5.6 13.7-12.6 17.4-19 .9-1.5 1.2-2.7 2.1-4.1.8-1.2 1.9-2.8 2.7-3.6 1.8-1.7 1.3-1.3 2.6-3.6 7-12 7.8-4 3.4-15.6-.8-2.2-1.6-2.2-2.4-3.2-2.1-.6-2.9-.6-4.8-.3z"/><path class="st1" d="M225 240.2c.5 2.1 4.7 5.1 6.7 6.1 5.7 2.6 9 3.8 15.9 4.9 3.2.5 4.6-.4 7.5.1 2.6.4 11.1-1.1 14-1.7 5.2-1.2 19.1-6.5 23.5-9.4 6.4-4.3 19.1-15.4 24.1-20.9.8-.9 1-1.5 1.7-2.5 1.2-1.5 2.8-2.7 4.2-4.1 16.8-18.1 26-30.3 39.3-51.5.6-1 1-1.5 1.5-2.7 2.1-5.4 7.1-10.2 7.7-12.7-1.2-1.4-.7-1.4-3-1.6-1.1-1.5.2-1-1.7-1.9-.9-.4-1.8-.8-2.4-.8-2.6.3-5 4.8-7.4 6.4-3.1 2.2-4.5 3.7-6.2 7.6-1 2.3-1.6 2.3-3.2 3.7-1.3 1.2-1.8 2.4-3 4-1.4 2-3.2 3.2-6.4 7.5-1 1.4-1.9 2.6-2.9 4-3 4.1-5.7 8.7-9 11.8-2.1 2-7.1 8.4-10.6 10 .3-1.5.8-2.6 1.2-4.1 1.8-5.8.6-1.7 2.5-5.5 1.5-3 2.5-6.7 3.9-8.6 1.9-2.8 1.2-1.4 2.2-2.6 1.9-2.2.1-3 3.7-6.4 1.3-1.2 1.6-3.2 3.4-4.6l6.2-6.3c1-1.3.9-2.2 1.8-3.4 2.3-3.4 7.3-5.3 7.8-7.2.1-2.7-2.4-5.6-4-6.5-9.1-4.9-11.2 6.6-17.2 11-1.3.9-2 1.3-2.9 2.3l-9.3 11.1c-2.3 2.8-6.3 5.9-6.7 8.5 2.3-.7 4.6-3.9 6-5.4 1.8-1.9 3.8-3.6 5.6-5.5 2.2-2.2 8.4-9.5 11.7-10.5-.3.7-6.2 9.1-8.2 12.7-1.2 2.2-2.7 4.1-4.1 6.3-3.2 5.2-14 24.6-10.3 29.9 1.5 2.1 4.1 2.8 6.5-.4 2.8-3.7 8.4-9 12.2-13.7 3.5-4.5 6.6-7.6 9.6-11.2 3.3-4 9.7-10.3 12.3-13.7 1.3-1.7 3-4.4 4.4-5.6-1 6.4-6.6 14.3-9.5 18.9l-16.8 25.5c-4.5 6.5-1.9 1.4-4.8 5.3-.5.7-.9.9-1.6 1.8-1.3 1.5-5.3 7.2-6.3 7.9-1 .7-.4.1-1.2.5-.9.5-.1-.1-.9.9l-5.6 4.8c-4.8 3.9-11.4 7.7-17.6 10.8-3.2 1.6-6.3 3.2-9.5 4.7-2.1 1.1-2.7 1.3-5.1 1.9-2.5.6-3 .8-5 1.9-1.9 1.1-13.8 3.8-16.9 4.1l-6.5.6c-2.2.1-11-.8-13-1.3-6.1-1.6-6-4.4-8.3-5.2zM178 188.8c.3-1.2 1.3-1.7 2-3.1 2.8-5.7 3.4-4.3 4.4-6.4.6-1.3.9-2.4 1.6-3.6l4.8-5.9c1.7-1.9 3.2-3 5.2-5.2 1.7-1.9 3.1-3.9 4.9-5.9l4.6-5.8c2.5-2.4 1.6-2.5 2.3-3.2.5-.6.1-.2.9-.5 2.5-1.1 6.1-4.8 6.7-7.5.3-1.6.9-3.3.2-4.6-.5-.9-1.9-1.9-3.4-1.9-3.2-.1-5.3 2.3-6.7 3.8-1.7 1.7-3.8 3.5-5.4 5.3-3.3 3.8-1.8 3.9-4 6.4-3.4 3.8-6.8 7-10.2 11-1.8 2.1-4.9 4.7-7.8 8.1-1.1 1.3-2.1 1.2-1.8 3.1 1.8-.3 10-9.1 13.4-12l4.2-3.6c-.2 2.3-18.6 29.2-21.3 33.3-1.6 2.5-6.6 10.2-2.7 12.9 1.4-2.5 3.8-8.2 5.4-10.4.8-1.1 2-1.5 2.9-2.3l10.7-10.5c3.6-3.6 7-6.9 10.7-10.4l7.9-7.6c1.1-1.2 1.1-2 2.8-2.6-.5 1.8-3 4.7-4.1 6.4-3.5 5.6-6.7 11.7-6.7 18.7 0 1.7-.1 2.7 1.3 3.3-1.4 1.8-3.1 2.7-3 6.2 1.5-.4 1.4-.9 2.3-2 4.3-5.2 12.9-14 17.1-19.3l11-12.6c-.8 1.9-2.1 3.6-3.2 5.6-3.3 6.1-5.8 12.2-7 19.4-.4 2.4-.3 6.1-.4 8.6-.1 2.7-.2 1.9.9 3.6.8 1.3.3 1.7 1.7 2.4 1.4.8 6.2.8 8 .5 2.3-.4 4.2-1.9 4.9-3.9-2.5.7-4.7 3.4-7.8 2.7-2.7-.5-2.3-5.1-2.2-8.2.1-4.3 2-4.1 2.3-8.6l2.5-7.8c.5-1.3 4.4-6.5 6.2-9.8.9-1.7 1-1.6 2.3-2.9 1.7-1.8 3.1-4.5 4.7-6s4.5-3 5.6-4.7c-.8-2-3.5-4.4-5.9-5.1-3.7-1.1-5 1.4-6.5 3.8s-2.8 3.3-5.1 5.9c-1.4 1.6-4.6 4.3-5.4 5.6-1.4 2.2-3.3 3.9-5.2 5.9l-15.3 17.4c.3-3.1 6.6-13.3 8.5-15.9.8-1.1 1.3-1 2-2.1 1.7-2.5 1.1-2.7 4.8-7.3 4.1-5 1-9.4-3.8-6.3-3 2-12.9 10.8-15.1 13.4-.8.9-1.4.9-2.3 1.9-.9 1.1-.6 1.2-1.9 2.3-3.8 3.3-6.8 7.3-9.7 10.4-1.4 1.5-2.6 2.4-4 4l-3.8 3.6zM285.1 138.4c1.3-5-1.5-3.4 2.4-8 .9-1.1 1.2-2 2-3.2l4.9-5.8c.8-1 2-1.8 2.7-2.8.9-1.2 1.2-1.9 2.2-2.9 2.2-2.2 1.7-2.4 1.7-3l-.2-.5c-3.3-.6-14.5 10.8-16.8 13.3l-7.4 7.9c-1 .9-1.4 1-.2 2.3.4.4 1.6 1.1 2.4 1.4 1.4.2 4.9 1.4 6.3 1.3z"/></g></g></svg>