<svg xmlns="http://www.w3.org/2000/svg" width="150mm" height="334.291" viewBox="0 0 15000 8844.78" shape-rendering="geometricPrecision" text-rendering="geometricPrecision" image-rendering="optimizeQuality" fill-rule="evenodd" clip-rule="evenodd"><defs><style>.fil1{fill:#d4a455}</style></defs><g id="Слой_x0020_1"><g id="_1728996403824"><path d="M12757.29 4665.43h-.22L12528.02 4397l229.05-258.44c55.85 0 108.33-1.75 157.37-5.12 80.39-5.63 151.62-15.86 213.76-30.67 116.43-35.29 184.74-87.89 221.54-126.26 38.88-40.52 56.36-73.04 75.24-120.65 17.74-44.76 21.77-55.03 18.53-104.48-10.11-151.75-73.1-371.26-189.63-658.5l-799.28-1979.13h619.56l697.66 1762.86 634.22-1762.86h619.6L13879.55 4136.2l-6.3 16.66-3.11 6.36c-.83 1.75-255.37 536.09-1111.54 507.74l-1.31-1.53zM380.92 1890.27c0-496.81 135.79-917.17 408.16-1261.13 272.4-343.95 636.66-515.49 1092.82-515.49 501.67 0 885.45 155.3 1150.51 466.7 265.09 311.44 397.6 748.05 397.6 1309.92 0 561.84-138.2 1008.24-415.47 1338.33-124.28 147.99-271.98 262.77-442.99 344.43-23.49 2.95-47.01 6.04-70.53 9.25-278.86 37.95-555.58 91.95-647.38 130.1-8.52 3.52-16.62 7.4-24.38 11.37-466.04-1.08-823.91-164.49-1073.52-490.26-249.62-327.67-374.82-774.86-374.82-1343.22zm643.98 0c0 407.36 69.1 722.83 207.33 946.45 137.41 223.58 338.23 335.78 601.67 335.78 309.82 0 545.6-109.76 708.22-328.47 162.64-218.75 243.95-536.64 243.95-953.76 0-817.18-301.68-1225.37-904.17-1225.37-276.47 0-487.88 110.59-635.84 331.78-147.17 221.13-221.16 519.57-221.16 893.59zM3825.04 164.06l595.19-143.1v2866.96c0 313.85 94.31 500.88 282.95 561.88-66.84 128.35-168.55 209.78-304.79 244.65l-201.93-45.74-5.5-1.27-6.07-.29c-32.42-1.62-64.43-4.64-97.49-8.61-35.6-4.23-67.06-8.93-99.17-14.05h-.28l-19.74-3.18c-95.52-90.49-143.17-247.2-143.17-469.95V164.06zm2760.29 3501.18v-154.48c-49.61 53.65-132.54 100.82-250.43 142.3-117.1 40.66-239.06 60.97-364.27 60.97-80.45 0-157.02-5.82-229.68-17.32 15.83-81.63 11.76-163.22-54.92-234.77-40.4-43.36-120.79-72.95-210.01-91.2-107.63-21.96-233.5-29.75-308.93-25.36l-59.85 3.46c-188.45-223.89-283.08-529.54-283.08-917.87 0-403.29 117.1-731.8 351.26-985.48 234.99-253.68 528.5-380.53 880.59-380.53 194.34 0 370.78 39.86 529.32 119.54V164.06l595.19-143.1v3644.28h-595.19zm-976.61 2.95c-126.57-35.02-239.6-90.11-339.15-165.19-3.69-8.23-7.63-15.98-11.6-23.61 59.15 2.54 128.51 9.95 191.22 22.76 64.78 13.25 119.39 30.67 138.55 51.27 26.26 28.16 28.61 69.35 20.98 114.77zm976.61-1943.81c-126.85-101.62-259.37-152.03-397.6-152.03-239.06 0-421.99 72.34-551.29 217.89-128.45 145.55-192.68 353.71-192.68 625.29 0 530.94 256.12 796 767.55 796 56.9 0 127.65-17.07 210.58-51.21 83.76-34.17 138.24-69.13 163.44-104.09V1724.38zm2069.18 1940.86H7586.9V176.23c470.77-21.93 800.9-33.31 989.54-33.31 362.65 0 646.43 77.24 850.49 232.54 204.1 155.31 306.54 377.27 306.54 665.12 0 276.44-146.34 495.18-439.05 656.15 432.53 150.44 648.84 461.84 648.84 933.44 0 317.13-119.52 569.19-359.4 755.39-239.86 186.2-549.64 279.68-929.35 279.68zM8206.49 672.25v836.66c95.93 6.51 195.96 9.75 300.82 9.75 404.12 0 606.6-152.03 606.6-455.32 0-269.13-183.79-403.3-551.29-403.3-97.58 0-216.3 4.07-356.13 12.21zm0 1322.08v1151.34c125.21 11.38 226.86 17.07 304.89 17.07 275.64 0 476.5-47.14 600.87-140.65 124.44-93.51 187.03-248.82 187.03-465.91 0-198.38-57.72-343.13-173.99-433.37-115.48-90.27-317.92-135.79-606.6-135.79-60.96 0-164.24 2.42-312.2 7.31zm1863.46 389.47c0-389.47 112.21-706.56 336.61-951.31 224.41-244.75 521.19-367.53 889.52-367.53 387.05 0 687.08 117.89 901.72 352.88 213.86 234.99 321.2 556.98 321.2 965.96 0 232.42-35.6 437.75-106.83 615.78-5.73-5.3-11.32-10.8-16.02-17.35l-15.42-21.36-25.84-5.18c-37.38-7.5-64.81-10.94-93.32-10.9-28.55.03-55.31 3.4-91.93 9.4l-32.1 5.28-15.74 28.35c-1.71 3.09-46.18 37.13-94.81 74.32-57.76 44.12-120.75 92.27-151.71 126.6-21.33 23.65-43.33 48.35-65.48 73.2-53.72 60.36-108.68 122.09-159.76 174.76l-2.63 2.89-170.47 196.09c-7.22 8.29-14.56 15.54-21.68 22.53-10.26 10.05-20.34 19.96-32.86 35.19l-13.93 16.91c-36.65 2.45-74.09 3.72-112.39 3.72-387.85 0-688.67-121.14-903.35-363.44-215.47-242.3-322.78-565.11-322.78-966.79zm2280.01 748.11c-44.02 80.57-96.63 154.54-157.85 221.92-22.59 24.8-46.08 48.29-70.37 70.51-19.67 2.28-41.16 9.78-64.46 22.85-39.7 22.28-94.59 66.49-164.46 136.26-85.37 43.71-178.09 76.48-278.12 98.25l132.64-152.57c55.59-57.43 109.85-118.34 162.84-177.87 21.83-24.51 43.54-48.89 64.97-72.63 23.14-25.65 80.6-69.58 133.27-109.82 41.29-31.56 80.13-61.25 105.44-85.76 18.97-2.76 33.97-4.26 47.71-4.26 13.35 0 27.24 1.31 44.37 4.14 6.1 6.39 12.05 11.88 17.99 17.38v.26c8.52 7.85 17.13 15.79 26.03 31.34zm-1660.44-748.11c0 561.84 202.47 842.38 606.56 842.38 185.41 0 331.75-73.2 440.71-218.71 108.13-146.38 162.61-354.54 162.61-623.67 0-553.7-200.82-830.97-603.32-830.97-186.2 0-333.37 73.17-442.33 218.72-109.75 146.34-164.23 350.44-164.23 612.25z" fill="#2b2a29"/><path class="fil1" d="M4582.33 6890.83c-44.19-184.87 78.5-254.85 95.91-302.75 32.56-89.57 219.15-384.54 296.12-437.33 64.07-43.93 27.64-2.44 33.6-51.32 14.6-119.82 100.71-118.54 175.68-214.01l10.7-13.84c1.69-1.98 4.15-4.63 5.91-6.57l18.89-18.75c59.42-61.35 109.13-88.74 198.26-168.13 90.45-80.57 647.59-450.63 781-484.42-55.17 251.57-136.36 292.98-308.96 540.71-235.17 337.56-717.35 839.25-1032.7 1057.11-75.96 52.48-158.59 150.48-274.41 99.3zM25.64 5633.56v148.38c31.33 56.97 14.93 102.47 78.21 133.82 39.66 19.65 21.57-1.33 62.57 36.02 30.33 27.63 15.23 28.49 51.22 39.27-18.05-236.06-95.03-293.07-5.9-640.98 135.84-530.26 508.18-926.79 986.2-1202.63 157.15-90.68 319.69-159.43 516.25-216.22l285.38-80.73c102.52-23.68 202.96-30.28 300.86-54.38 60.74-14.95 85.58-36.54 145.51-40.61 92.26-6.25 76.91-18.61 153.02-30.77 52.59-8.4 125.48.16 174.18-8.43 62.19-10.98-8.13-13.38 75.78-15.24 201.52-4.48 217.54 14.04 410.49 38.46 62.59 7.92 114.71 7.74 176.51 11.37 77.08 4.53 133.66-12.64 134.5-12.55 48.49 16.97 2.9 27.96 100.93 40.47 64.37 8.21 81.99-.42 137.98-1.8 68.9-1.69 4.94-.68 49.27 11.16 30.13 8.05 32.3 4.68 62.16 11.5 57.48 13.11 33.19 31.03 77.48-12.13 16.62 30.08-16.2-27.54 8.66 20.84l15.78 24.47c48.49-26.95 9.81-21.65 62.93-23.71 83.75 87.75 220.06 58.07 336.37 100.71 63.29 23.21 63.63-1.59 85.3 5.76 82.36 33.47-17.14-2.73 39.34 41.33 12 9.36 47.21 20.41 63.69 29.14 6.66-10.15 3.72-9.67 7.72-25.73l3.6-17.67c70.67 27.49 112.86 87.58 193.05 89.42 76.96 1.76 27.16 1 102.5 29.25 33.84 12.69 69.91 20.12 106.72 28.94-27.28 118.74-107.99 219.46-173.66 310.99-54.77 76.35-65.4 158.19-135.18 232.94-36.89 39.51-23.74 16.3-25.62 89.28-79.68 45.63-3.2 45.29-98.42 77.29 22.22 52.4.67 42.49-19.93 65.57l-68.46 92.73c-37 45.62-63.75 120.4-95.24 173.79-13.96 23.67-10.67 21.69-30.22 42.07-13.04 13.59-11.23 8.68-19.03 17.64l-23.61 37.77c-10.96 18.53-3.28 7.91-14.48 22.64-8.98 11.82-19.08 20.33-29.22 32.15-35.43 41.28-66.51 106.13-102.01 147.14l-156.05 45.03c-64.4 12.48-33.3 12.84-109.17 6.29-133.7-11.55-228.17 46.73-341.67 55.54-19.7 1.53-52.53.87-69.86 6.18-57.94 17.76 5.43-3.25-38.15 23.77-14.2 8.8-400.4 102.99-514.43 146.01-181.74 68.55-175.89 57.97-374.07 150.68-88.21 41.27-100.89 1.13-193.15 75.1l-231.28 159.54c-47.68 27.05-43.04 15.11-72.21 62.97-43.04 70.64-67.51 92.09-117.81 133.91.62 198.43 125.1 360.01 250.8 205.81l-86.92-18c18.7-61.91 81.13-95.1 127.31-136.6 44.39-39.89 87.35-75.29 146.2-99.66 108.28-44.86 202.72-116.04 322.62-165.26 63.57-26.1 119.56-44.84 184.5-71.78 43.17-17.9 140.69-71.29 161.94-78.24 26.42-8.64 43.62 5.11 80.5-22.52 27.81-20.83 14.8-34.64 67.88-51.82 87.02-28.16 116.12 18.99 177.55-68.38 52.33 75.18 113.22-24.32 149.31-24.5 1.06 0 4.37 1.13 5.54 1.22 1.37.11 4.89 1.44 6.41 1.56 1.7.14 5.43 1.23 7.3 1.28 2.05.05 5.92.55 8.12.41 24.37-1.49 42.83-14.49 70.22-25.4 98.09-39.09 203.2-51.23 322.59-56.26-31.27 111.35-179.61 214.62-252.62 308.2-48.41 62.06-180.71 138.88-206.69 185.18-28.6 50.95-28.61 42.38-71.59 86.85-19 19.66-27.49 31.76-42.63 42.41-20.3 14.29-16.76 6.48-47.06 26.34-100.35 65.75-272.69 240.35-395.54 325.95-21.26 14.81-23.35 20.64-40.21 33.88-49.25 38.68-56.63 14.55-112.95 44.74-45.21 24.25-56.95 48.44-91.46 68.76-60.8 35.8-38.28-.75-75.32 69.72-81.39-.77-211.8 77.62-288.83 115.42-53.93 26.47-40.22 41.05-78.74 52.91l-101.27 37.89c-29.88 17.82-69.81 23.25-100.93 32.83-369.54 113.71-34.64 70.14-627.93 153.45-295.75 41.53-615.56-30.28-735.9-319.29-54.69-131.33-59.84-325.52-22.68-463.39 74.27-275.6 272.78-403.8 453.9-588.83-152.77 9.19-405.31 277.56-480.25 402.95-115.17 192.72-147.14 494.44-39.65 714.08 222.49 454.62 859.07 450.83 1284.75 311.14 323.99-106.31 485.44-172.35 747.96-352.3l286.21-154.28c77.07-32.31 272.18-205.21 386.6-272.5 183.36-107.82 366.13-209.38 519.07-361.37 84.88-84.35 100.27-178.91 225.6-219.4l-5.42-47.93c69.87-3.44 97.51-24.16 126.1-70.76 43.97-71.68 8.35-64.07 109.15-76.33-8.57-65.55 15.26-68.55 52.08-104.87 103.54-102.12 161.59-58.58 390.52-89.05 189.8-25.26 380.54-60.44 582.92-50.57-16.87 53.57-38.77 43.02-73.6 73.71-23.89 21.05-36.49 46.65-71.79 75.1-234.16 188.7-501.13 493.86-659.42 758.62-69.15 115.64-161.48 254.58-109.89 418.27 52.73 167.31 147.43 261.16 339.88 164.6 383.36-192.35 578.74-491.9 839.15-840.34-21.23 53.53-77.01 144.28-109 202.82-104.65 191.45-364.01 727.38-328.39 929.69 8.17 46.42 82.92 188.46 107.32 211.6 75.91 71.97 161.24 30.75 219.7-30.33 44.35-46.33 109.37-87.78 130.05-158.06-20.15 26.01-224.29 216.29-271.72 173.41-46.66-94.86 23.16-399.06 60.62-487.75 10.76-25.47 25.35-85.05 37.28-104.8 14.88-24.64 5.51-5.81 11.95-13.48 1.7-2.01 5.62-4.36 12.89-15.58 8.16-12.57 14.21-27.54 20.21-39.87 60.81-124.93 66.66-105.22 105.34-175.93 41.5-75.88 41.39-114.15 92.77-188.53l352.16-491.58c285.86-398.73 218.85-309.89 515.86-620.61 51.44-53.82 96.01-76.57 154.44-126.65 147.49-126.42-139.18-227.09-231.2-250.91-130.98-33.91-139.25 25.89-192.86 88.42-56.42-26.79-104.13-111.89-186.15-122.26-66.55-8.41-303.32 176.73-366.13 224.98-77.84 59.81-226.27 261.05-318.65 281.04-38.17 8.27-201.47-28.25-253.52-34.63-181.43-22.22-398.44-.9-583.48-12.61 19.64-70.68 71.67-102.92 113.11-151.37 41.43-48.43 66.91-99.06 113.11-155.79 43.05-52.87 100.66-68.86 147.22-122.08l224.41-301.37c87.39-129.76 232.4-362.43 289.54-493.59 97.19 39.53 52.54 29.49 185.1 38.21 67.44 4.44 90.77 36.68 166.81 51.3 131.69 25.32 233.28 49.52 354.39 78.49 151.43 36.23 581.43 91.31 762.07 96.76 441.7 13.33 1095.8-218.23 1162.66-554.42-62 24.95-133.25 89.91-203.13 127.26-310.62 166.06-765.48 181.07-1111.99 122.74-47.12-7.93-94.22-16.77-137.13-22.67-72.2-9.93-85.35 8.83-127.46 8.78-29.66-.04-151.19-62.16-243.56-69.71-121.18-9.92 4.09-8.62-113.12-43.65-89.42-26.72-55.22 1.03-105.63 20.1-30.61-26.76-71.4-37.51-120.36-47.4l-87.24-21.79c-82.49-25.2-82.62-18.69-118.62-12.54-43.7 7.46-68.1-5.24-101.16-37.53-17.98-120.29 141.3-327.27 24.02-453.18-69.29-74.38-341.32-102.55-466.12-95.28-.65 112.16 79.67 92.93 41.12 280.89-15.95 77.75-57.34 172.19-98.28 228.9-77.33-12.94-45.6-29.47-79.55-38.87-22.23-6.15-65.72 5.52-102.55.64l-749.77-169.8c-71.44-3.61-133.12-12.19-204.03-23.44-69.98-11.11-127.31-22.18-195.41-36.47-101.13-21.23-128.58-1.06-221.09-17.05-134.18-23.19-289.71-18.45-443.06-31.47-271.31-23.04-1075.67 100.91-1238.75 168.68-33.09 13.75-55.13 31.17-84.14 38.84-107.75 28.52-154.14 24.94-272.45 80.48-403.28 189.32-513.43 260.02-869.79 535.82-218.48 169.1-457.27 566.03-550.05 855.66-47.56 148.46-59.87 325.12-77.33 380.14zM10589.44 5345.43c19.12-141.09 264.11-418.5 343.99-519.42l773.33-962.49c468.34-580.02 568.43-465.51 315.14-100.59-59.91 86.3-98.13 168.58-162.74 265.12-30.4 45.41-56.33 83.18-83.35 137.72-138.97 280.54-1013.24 1161.59-1186.37 1179.66zm1590.98-2356.82c-17.27 31.12-201.44 153.72-255.22 213.29-73.67 81.61-151.51 171.91-227.05 249.81l-170.48 196.09c-19.59 22.48-34.98 33.91-53.5 56.37-356.79 432.71-689.47 880.99-1033.07 1326.08-135.78 175.89-284.27 376.04-428.59 524.78-112.76 116.21-326.51 397.06-457.6 483.36-82.13 54.07-181.94 161.02-251.42 225.55-188.61 175.17-549.09 577.26-777.54 654.43 16.23-95.2 65.14-230.98 100.61-280.52l44.33-65.56c25.96-32.46 28.46-64.14 43.28-90.66.61-1.08 2.69-3.95 3.32-5.03l16.45-27.46c13.78-17.12 7.05-6.79 22.9-22.01l82.34-114.33c29.14-34.93 29.98-77.14 54.37-116.05 34.77-55.48 64.67-33.33 94.41-100.84 36.13-82.01 95.57-154.4 145.39-234.26 27.48-44.03 47.13-69.47 89.61-107.19 39.25-34.85 50.5-65.11 93.35-101.14 75.46-63.43 133.78-109.22 176.94-202.14 19.78-42.57 58.74-71.61 91.22-104.23 110.65-111.12 383.44-179.58 52.65-346.49-204.71-103.29-462.44 245.8-569.2 380.2-95.74 120.54-211.74 228.04-313.67 346.12-55.28 64.04-287.7 285.66-279.21 360.28 76.64-10.06 458.76-475.97 540.94-562.91 71.58-75.74 91.66-111.76 185.55-173.05-223.62 321.37-456.15 632.39-657.6 972.16-63.65 107.35-252.56 420.04-282.49 535.35-32.26 124.26 48.82 212.51 138.49 247.88 122.91 48.48 205.82-59.48 260.43-116.82 125.57-131.84 283.36-261.81 424.27-394.91 74.76-70.62 132.19-139.8 206.64-208.86 70.19-65.12 112.38-136.68 188.18-214.92 33.93-35.02 66-58.62 118.38-89.83 174.36-103.9 483.31-596.07 695.01-723.5-28.3 57.72-89.66 123.77-132.86 185.99-163.85 236.04-485.43 763.17-588.87 1000.03-74.48 170.53-129.36 333.33 59.57 430.54 196.88 101.28 272.86 118.88 443.18-25.69 53.3-45.24 125.88-96.48 175.19-142.62l466.25-487.19c48.9-49.37 96.64-122.05 147.71-170.07 30.77-28.93 54.89-45.99 83.53-75.41 32.96-33.86 57.23-47.49 82.52-77.13-80.84-29.41-116.06 38.43-171.19 86.29-192.13 166.82-372.47 353.9-558.8 529.11-39.56 37.2-93.93 100.52-138.44 130.37-90.22 60.48-256.85 162.58-394.25 147.39-19.75-90.61 15.45-103.89-.19-172.29-12.93-56.58 15.06-97.47 45.89-150.89l31.99-54.69c37.49-58.01 35.87-102.78 90.31-154.56 45.22-43.01 84.42-101.94 110.14-159.59 50.43-113.05 67.66-89.32 113.1-155.11 22.94-33.23 14.14-38.29 29.65-79.26 9.79-25.86 26.06-48.76 39.06-71.73 144.31-254.85 72.54-170.2 298.28-349.7 86.72-68.95 152.25-123.79 236.81-190.92 81.1-64.38 135.83-134.02 225.1-202.68 88.56-68.12 154.47-113.4 224.94-202.98 38.2-48.56 77.39-60.22 117.86-102.08 37.72-39.01 61.88-72.62 100.73-119.03 166.51-198.83 481.94-445.6 613.65-670.3 30.39-51.85 42.53-95.17 74.92-145.2 27.34-42.25 66.54-98.87 94.29-125.28 64.49-61.36 44.65-47.23 91.96-127.93 248.51-423.92 275.6-142.66 120.67-550.83-28.99-76.38-56.37-76.66-83.79-114.62-65.84-13.25-94.22-12.05-161.33-.98z"/><path class="fil1" d="M7938.09 8472.33c19.02 74.64 166.31 181.59 235.85 213.5 201.12 92.29 317.49 134.54 560.69 174.07 112.36 18.27 163.67-13.26 264.48 3.04 91.84 14.84 390.43-38.15 493.31-61.17 185.07-41.4 675.32-229.65 828.92-332.1 225.9-150.67 675.43-543.49 850.04-738.96 28.02-31.38 35.41-54.52 60.07-86.61 40.69-52.96 99.74-94.52 147.28-145.9 591.45-639.19 917.83-1069.7 1384.9-1817.37 22.53-36.07 35.25-52.74 51.39-93.8 74.56-189.78 248.71-360.7 270.77-447.99-42.42-48.91-23.56-50.53-106.05-57.6-37.95-53.31 6.54-34.22-58.3-66.9-30.51-15.38-62.89-29.2-84.26-27.06-92.43 9.27-177.36 168.18-259.59 226.46-107.8 76.39-159.16 128.93-220.09 268.07-35.19 80.37-57.75 81.25-114.32 130.5-47.11 41.02-63.58 82.99-104.62 139.81-49.73 68.88-112.18 114.06-224.68 264.34-36.44 48.67-67.93 90.07-103.91 140.38-104.67 146.4-200.4 307.98-315.91 417.41-75.81 71.82-251 297.4-373.41 352.81 9.62-53.96 27.87-92.53 43.72-144.82 61.93-204.3 22.2-59.15 87.58-192.33 52.68-107.31 89.55-237.04 135.99-304.88 66.96-97.82 41.71-48.94 78.44-92.62 65.84-78.31 2.25-105.66 130.42-224.21 46.23-42.76 56.92-112.64 118.87-161.06l220.07-221.05c34.32-44.74 33.3-77.93 61.93-121.4 79.49-120.67 256.23-186.88 276.07-252.52 4.16-95.96-85.57-197.88-141.67-228.07-320.51-172.45-395.8 233.88-606.82 386.91-45.81 33.22-71.44 46.57-101.17 82.58l-327.72 393.03c-80.29 97.22-221.58 208.89-237.27 300.52 81.54-24.34 162.55-136.71 213.3-189.99 65.01-68.26 133.15-127.79 197.42-193.66 77.05-78.96 298.09-336.52 413.83-371.33-9.77 25.29-217.99 321.97-288.02 448.5-42 75.87-95.59 144.9-143.15 223.48-111.71 184.58-495.61 866.54-362.3 1053.81 51.97 73.02 143.08 97.27 228.7-14.36 99.32-129.48 297.75-316.57 431.63-484.92 125.1-157.32 234.22-268.43 339.35-393.81 117.12-139.66 342.42-361.67 433.38-483.57 45.29-60.69 104.29-154.85 156.45-198.89-34.58 225.38-233.64 506.04-336.5 666.92l-591.75 899.18c-159.92 230.1-67.6 49.72-167.68 186.75-18.58 25.44-30.26 33.5-56.47 64.7-44.61 53.11-187 254.6-222.07 279.42-35.4 25.05-12.35 2.46-40.88 19.39-32.05 19.03-3.43-4.15-31.72 30.72l-196.06 170.82c-170.31 138.22-403.63 272.32-619.19 382.23-111.98 57.09-222.96 111.21-333.55 167.16-75.6 38.25-93.99 47.41-180.02 68.11-89.49 21.53-107.35 27.66-175.42 66.53-66.85 38.17-485.27 134.75-595.97 145.76l-230.49 20.36c-77.41 4.81-387.43-26.46-458.07-46.33-227.95-64.11-223.98-163.08-305.75-191.99zM6278.03 6659.29c10.58-41.61 46.04-58.71 71.46-109.93 100.08-201.71 119.9-152.72 154-224.32 22.09-46.4 31.19-84.46 56.17-128.62l170.03-207.95c60.99-67.78 113.91-106.59 182.85-184.04 59.35-66.65 111.07-136.21 171.17-207.92l164-203.28c87.6-84.4 58.01-88.66 81.41-113.54 18.4-19.56 3.18-6.21 30.48-17.63 89.05-37.23 216.06-168.96 236.72-263.68 12.13-55.59 32.79-116 5.39-162.16-18.34-30.89-68.49-65.85-119.82-68.25-111.13-5.21-185.86 82.4-237.22 133.88-59.1 59.23-134.86 124.08-190.15 188.54-115.65 134.82-61.99 138.63-141.37 225.63-121.41 133.06-239.4 246.8-358.75 386.7-62.62 73.4-171.81 166.83-275.3 286.92-39.56 45.9-72.37 41.57-64.81 110.4 63.66-10.54 351.76-321.21 473.8-422.51l148.79-125.77c-7.06 81.77-654.43 1028.48-750.13 1174.37-58.11 88.59-233.73 358.84-94.05 453.78 50.37-89.35 135.67-289.39 191.21-368.45 28.19-40.13 70.13-53.65 103.95-79.99l376.02-369.25c128.43-126.04 248.25-242.97 377.25-368.39l280.42-269.55c37.67-41.96 39.49-70.48 98.94-90.34-17.9 62.35-106.52 165.43-145.24 226.89-124.42 197.43-237.07 414.19-237.04 659.84.01 60.86-3.03 96.48 46.24 116.8-49.02 62.4-109.27 95.45-105.62 217.89 54.12-14.88 49.07-31.18 82.3-71.51 152.11-184.67 453.37-495.31 601.57-681.61l388.83-445.4c-28.96 65.83-74.2 126.64-112.12 196.34-116.68 214.45-205.97 430.9-247.4 682.84-13.82 84.05-11.82 213.78-15.5 301.95-3.92 94.06-5.77 67.99 31.93 127.68 29.85 47.25 12.24 58.46 60.16 85.58 50.25 28.43 218.01 28.38 283.47 17.16 82.23-14.09 147.95-67.3 173.78-136.64-89.19 25.42-166.64 118.21-275.67 96.93-95.92-18.73-79.84-181.16-78.45-289.04 1.95-151.83 69.36-144.29 81.1-303.75l87.24-273.64c19.39-44.31 154.04-229.19 217.86-344.8 33.31-60.35 36.42-54.85 80.65-102.55 60.51-65.24 109.39-159.91 166.35-212.88 57.89-53.84 157.1-107.13 198.94-167.43-27.45-71.26-122.68-155.17-208.7-180.92-130.52-39.07-178.03 49.53-229.89 133.33-51.53 83.24-99.98 115.64-181.39 209.82-48.83 56.5-161.48 151.29-191.95 198.41-50.62 78.25-116.25 138.77-184.35 206.95l-540.97 614.12c11.9-109.12 233.52-468.54 299.57-562.23 27.72-39.31 44.15-35.7 71.31-75.23 59.67-86.84 37.69-94.07 170.41-257.11 145.01-178.13 33.59-331.04-135.12-221.09-107.36 69.96-453.99 379.98-531.62 471.47-28.44 33.51-50.14 32.98-79.56 66.69-33.24 38.07-21.12 40.95-66.85 79.86-135.77 115.52-239.93 256.65-341.79 367.01-50.42 54.62-90.97 85.49-140.59 140.53l-134.35 133.09zM10059.02 4881.05c47.05-176.42-54.61-119.41 84.65-282.84 32.18-37.76 41.64-68.87 69.49-113.72l172.98-206.02c29.5-34.46 69.68-65.09 95.45-100.28 32.1-43.81 42.17-65.8 79.35-103.5 76.13-77.16 61.46-83.82 58.53-107.08l-5.87-19.29c-117.26-22.92-510.42 379.69-591.08 467.76l-261.67 277.11c-34.44 33.12-49.73 36.29-7.53 79.84 14.62 15.08 55.08 39.63 84.84 51.1 47.04 18.11 169.57 62.73 220.86 56.92z"/></g></g></svg>