<?xml version="1.0" encoding="iso-8859-1"?>
<!-- Generator: Adobe Illustrator 22.0.0, SVG Export Plug-In . SVG Version: 6.00 Build 0)  -->
<svg xmlns="http://www.w3.org/2000/svg" xmlns:xlink="http://www.w3.org/1999/xlink" version="1.1" x="0px" y="0px" viewBox="0 0 60 60.026" style="enable-background:new 0 0 60 60.026;" xml:space="preserve" width="512" height="512">
<g id="_x31_5-Bearded">
	<path d="M31,46.026h-2c-0.552,0-1-0.448-1-1s0.448-1,1-1h2c0.552,0,1,0.448,1,1S31.552,46.026,31,46.026z"/>
	<path d="M29.959,43.023c-1.234,0-2.467-0.397-3.543-1.192c-0.444-0.328-0.538-0.954-0.21-1.398c0.329-0.444,0.954-0.539,1.399-0.21   c1.452,1.073,3.257,1.073,4.71,0c0.444-0.329,1.07-0.235,1.398,0.21c0.328,0.444,0.234,1.07-0.21,1.398   C32.427,42.625,31.193,43.023,29.959,43.023z"/>
	<path d="M30,54.026c-9.108,0-18-1.158-18-15v-1.143c0-1.575,1.237-2.857,2.757-2.857c2.377,0,3.897,2.321,5.007,4.016   c0.419,0.639,0.851,1.3,1.167,1.572c0.562,0.485,1.276,0.547,1.91,0.167c0.54-3.309,3.167-5.754,6.264-5.754h1.79   c3.098,0,5.725,2.446,6.264,5.755c0.635,0.379,1.349,0.316,1.91-0.167c0.317-0.272,0.75-0.934,1.168-1.573   c1.11-1.694,2.63-4.015,5.006-4.015c1.52,0,2.757,1.282,2.757,2.857v1.143C48,52.868,39.108,54.026,30,54.026z M14.757,37.026   C14.34,37.026,14,37.41,14,37.883v1.143c0,10.928,5.623,13,16,13s16-2.072,16-13v-1.143c0-0.473-0.34-0.857-0.757-0.857   c-1.296,0-2.426,1.725-3.333,3.111c-0.54,0.824-1.006,1.536-1.535,1.992c-1.207,1.041-2.872,1.187-4.242,0.369   c-0.201-0.121-0.396-0.271-0.598-0.461c-0.173-0.164-0.282-0.384-0.308-0.621c-0.267-2.502-2.129-4.39-4.332-4.39h-1.79   c-2.202,0-4.065,1.887-4.332,4.389c-0.025,0.237-0.135,0.458-0.309,0.622c-0.201,0.188-0.394,0.338-0.59,0.456   c-1.37,0.824-3.038,0.681-4.249-0.364c-0.529-0.456-0.995-1.167-1.535-1.991C17.183,38.751,16.053,37.026,14.757,37.026z"/>
	<path d="M30,60.026c-0.292,0-0.569-0.127-0.759-0.349l-5.356-6.249c-0.267-0.312-0.317-0.755-0.125-1.119   c0.192-0.362,0.59-0.57,0.995-0.526c1.481,0.165,3.148,0.242,5.245,0.242s3.764-0.077,5.245-0.242   c0.409-0.044,0.802,0.163,0.995,0.526c0.192,0.363,0.143,0.807-0.125,1.119l-5.356,6.249C30.569,59.898,30.292,60.026,30,60.026z    M26.976,53.961L30,57.489l3.024-3.528c-0.917,0.044-1.914,0.065-3.024,0.065S27.893,54.005,26.976,53.961z"/>
	<path d="M59,60.026H1c-0.552,0-1-0.448-1-1v-1.558c0-4.651,4.115-6.484,9.323-8.805c1.494-0.666,3.187-1.42,4.918-2.298   c0.482-0.243,1.072-0.061,1.331,0.414c2.378,4.369,7.283,5.247,14.427,5.247s12.05-0.878,14.427-5.247   c0.259-0.475,0.848-0.657,1.331-0.414c1.732,0.878,3.425,1.632,4.918,2.298C55.885,50.983,60,52.817,60,57.468v1.558   C60,59.578,59.552,60.026,59,60.026z M2,58.026h56v-0.558c0-3.204-2.79-4.596-8.137-6.978c-1.277-0.569-2.698-1.203-4.177-1.927   c-3.341,5.024-9.819,5.463-15.686,5.463s-12.344-0.439-15.686-5.463c-1.479,0.724-2.9,1.357-4.177,1.927   C4.79,52.872,2,54.264,2,57.468V58.026z"/>
	<path d="M14,60.026c-0.552,0-1-0.448-1-1v-3c0-0.552,0.448-1,1-1s1,0.448,1,1v3C15,59.578,14.552,60.026,14,60.026z"/>
	<path d="M46,60.026c-0.552,0-1-0.448-1-1v-3c0-0.552,0.448-1,1-1s1,0.448,1,1v3C47,59.578,46.552,60.026,46,60.026z"/>
	<path d="M19.508,28.626c-0.392,0-0.764-0.232-0.924-0.617c-0.212-0.51,0.03-1.095,0.54-1.307c2.046-0.85,4.637-0.897,6.3-0.118   c0.5,0.234,0.715,0.83,0.481,1.33c-0.234,0.5-0.83,0.715-1.33,0.48c-1.154-0.541-3.168-0.475-4.684,0.154   C19.766,28.601,19.636,28.626,19.508,28.626z"/>
	<path d="M40.999,28.626c-0.128,0-0.258-0.025-0.383-0.077c-1.516-0.63-3.529-0.696-4.684-0.154c-0.5,0.236-1.095,0.02-1.33-0.48   c-0.235-0.5-0.019-1.096,0.481-1.33c1.663-0.78,4.254-0.732,6.3,0.118c0.51,0.212,0.752,0.797,0.54,1.307   C41.763,28.394,41.391,28.626,40.999,28.626z"/>
	<path d="M22.575,33.026c-1.087,0-2.06-0.497-2.739-1.398c-0.131-0.173-0.201-0.385-0.201-0.602c0-1.103,0.897-2,2-2   c0.552,0,1,0.448,1,1c0,0.399-0.233,0.743-0.571,0.904c0.292,0.118,0.633,0.161,0.983-0.043c0.479-0.277,1.09-0.114,1.367,0.364   c0.277,0.478,0.114,1.09-0.364,1.367C23.581,32.888,23.085,33.026,22.575,33.026z"/>
	<path d="M38.981,33.026c-1.087,0-2.06-0.497-2.739-1.398c-0.131-0.173-0.201-0.385-0.201-0.602c0-1.103,0.897-2,2-2   c0.552,0,1,0.448,1,1c0,0.399-0.233,0.743-0.571,0.904c0.292,0.118,0.633,0.161,0.983-0.043c0.479-0.277,1.09-0.114,1.367,0.364   c0.277,0.478,0.114,1.09-0.364,1.367C39.987,32.888,39.49,33.026,38.981,33.026z"/>
	<path d="M29,37.026c-0.552,0-1-0.448-1-1s0.448-1,1-1c0.552,0,1-0.449,1-1c0-0.322-0.15-0.617-0.41-0.808   c-0.445-0.327-0.542-0.953-0.215-1.398c0.327-0.444,0.953-0.542,1.398-0.214C31.541,32.169,32,33.074,32,34.026   C32,35.68,30.654,37.026,29,37.026z"/>
	<path d="M20,21.026c-0.552,0-1-0.448-1-1s0.448-1,1-1c2.206,0,4-1.346,4-3c0-0.552,0.448-1,1-1s1,0.448,1,1   C26,18.783,23.308,21.026,20,21.026z"/>
	<path d="M39.555,20.026c-0.315,0-0.625-0.148-0.82-0.426c-0.317-0.452-0.207-1.076,0.245-1.393   c0.013-0.009,1.348-0.951,2.371-2.121c0.364-0.416,0.996-0.458,1.411-0.094c0.416,0.363,0.458,0.995,0.094,1.411   c-1.187,1.357-2.667,2.399-2.729,2.442C39.953,19.967,39.753,20.026,39.555,20.026z"/>
	<path d="M46,28.266c-0.189,0-0.378-0.054-0.542-0.16c-0.285-0.184-0.458-0.5-0.458-0.84v-0.019c-0.014-0.108-0.011-0.21,0-0.3   v-1.92c0-0.297-0.019-0.589-0.037-0.882l-0.009-0.152c-0.668-2.632-4.016-3.646-5.095-3.908c-1.775,0.992-3.579,1.737-5.396,2.23   c-0.065,0.018-0.131,0.029-0.197,0.033c-1.67,0.45-3.347,0.679-4.986,0.683c-0.15,0-0.3-0.003-0.452-0.008   C28.943,23.945,29,24.95,29,26.026c0,0.43-0.275,0.811-0.683,0.948c-0.408,0.136-0.858-0.003-1.116-0.346   c-0.028-0.037-2.804-3.667-7.314-5.564c-1.14,0.072-2.167,0.627-2.907,1.577c-1.658,2.128-2.023,4.507-2.027,4.531   c-0.049,0.331-0.259,0.615-0.561,0.758c-0.302,0.144-0.655,0.126-0.942-0.046c-1.7-1.018-3.121-2.487-3.709-3.834   c-0.85-1.946-0.973-4.184-0.338-6.139c0.4-1.232,1.064-2.191,1.979-2.862c-0.293-0.941-0.418-1.919-0.372-2.92   c0.199-4.308,3.727-7.861,8.032-8.09c0.678-0.037,1.346,0.006,1.998,0.126c-0.348-0.998-0.896-1.781-1.639-2.338   c-0.338-0.254-0.48-0.692-0.355-1.096c0.125-0.404,0.49-0.686,0.912-0.704c0.292-0.014,7.099-0.286,13.394,1.258   c1.615-1.081,3.549-1.483,5.497-1.14c3.089,0.546,5.582,3.1,6.062,6.21c0.073,0.475,0.102,0.956,0.086,1.429l0,0   c-0.05,1.44,0.797,2.853,2.156,3.599C49.364,12.598,52,14.998,52,19.526c0,3.717-2.193,7.113-5.587,8.65   C46.281,28.236,46.14,28.266,46,28.266z M39.722,18.029c0.051,0,0.1,0.004,0.148,0.012c0.245,0.043,6.016,1.108,7.05,5.576   c0.013,0.055,0.021,0.111,0.024,0.167l0.014,0.235C46.98,24.353,47,24.686,47,25.026v0.492c1.861-1.399,3-3.612,3-5.992   c0-2.851-1.282-5-3.812-6.39c-2.014-1.106-3.267-3.234-3.192-5.42c0.012-0.349-0.009-0.704-0.064-1.055   c-0.351-2.277-2.174-4.146-4.433-4.545c-1.554-0.276-3.096,0.097-4.336,1.047c-0.245,0.188-0.563,0.25-0.86,0.174   c-4.041-1.054-8.496-1.289-11.077-1.326c0.594,0.962,0.981,2.121,1.156,3.467c0.046,0.354-0.101,0.707-0.385,0.923   c-0.284,0.217-0.663,0.266-0.993,0.127c-0.905-0.379-1.865-0.543-2.857-0.492c-3.291,0.175-5.988,2.892-6.14,6.185   c-0.046,0.992,0.127,1.954,0.515,2.86c0.209,0.488,0,1.054-0.476,1.29c-0.833,0.412-1.403,1.118-1.741,2.159   c-0.486,1.496-0.388,3.217,0.269,4.72c0.292,0.669,0.952,1.445,1.775,2.121c0.34-1.069,0.961-2.555,2.054-3.959   c1.14-1.464,2.828-2.323,4.63-2.355c0.068,0,0.137,0.005,0.205,0.018c0.065,0.012,0.16,0.037,0.221,0.062   c2.785,1.131,4.961,2.83,6.391,4.178c-0.05-0.413-0.112-0.806-0.186-1.178c-0.062-0.311,0.027-0.632,0.24-0.867   c0.213-0.234,0.522-0.354,0.839-0.324c0.575,0.057,1.064,0.084,1.539,0.085c1.518-0.003,3.083-0.227,4.646-0.664   c0.066-0.019,0.134-0.03,0.201-0.035c1.72-0.485,3.367-1.189,5.028-2.15C39.319,18.088,39.528,18.029,39.722,18.029z"/>
	<path d="M32,7.526c-0.552,0-1-0.448-1-1c0-3.584,2.916-6.5,6.5-6.5c0.552,0,1,0.448,1,1s-0.448,1-1,1c-2.481,0-4.5,2.019-4.5,4.5   C33,7.078,32.552,7.526,32,7.526z"/>
	<path d="M21.992,43.023c-0.844,0-1.678-0.302-2.366-0.895c-0.529-0.457-0.995-1.168-1.535-1.992   c-0.908-1.386-2.037-3.111-3.333-3.111c-0.053,0-0.121,0.014-0.207,0.042c-0.265,0.087-0.554,0.06-0.798-0.076   c-0.244-0.136-0.42-0.367-0.486-0.638C13.09,35.626,13,34.888,13,34.158v-7.132c0-0.049,0.004-0.098,0.011-0.146   c0.018-0.119,0.452-2.93,2.439-5.47c0.433-0.554,0.945-1.024,1.522-1.399c0.257-0.166,0.518-0.305,0.819-0.439   c0.086-0.038,0.168-0.07,0.251-0.101c0.242-0.094,0.474-0.175,0.71-0.235c0.259-0.062,0.583-0.132,0.933-0.162   c0.093-0.028,0.191-0.044,0.292-0.046c0.132-0.007,0.273,0.021,0.401,0.073c2.809,1.144,5.024,2.875,6.476,4.237   c-0.05-0.421-0.113-0.821-0.188-1.2c-0.062-0.311,0.027-0.632,0.24-0.867c0.213-0.234,0.523-0.356,0.839-0.323   c3.76,0.372,7.601-0.559,11.414-2.765c0.204-0.118,0.482-0.179,0.713-0.14c0.245,0.043,6.016,1.108,7.05,5.576   c0.013,0.055,0.021,0.111,0.024,0.167l0.014,0.235C46.98,24.353,47,24.686,47,25.026v2c0,0.021-0.001,0.042-0.002,0.062   C46.999,27.108,47,27.129,47,27.15v7.219c0,0.607-0.075,1.233-0.235,1.971c-0.061,0.28-0.239,0.52-0.489,0.66   c-0.25,0.14-0.548,0.165-0.818,0.072c-0.087-0.03-0.157-0.045-0.216-0.045c-1.296,0-2.426,1.725-3.333,3.111   c-0.54,0.824-1.006,1.536-1.535,1.992c-1.207,1.041-2.872,1.187-4.242,0.369c-0.201-0.121-0.396-0.271-0.597-0.461   c-0.174-0.164-0.283-0.384-0.309-0.622c-0.267-2.502-2.129-4.39-4.332-4.39h-1.79c-2.202,0-4.065,1.887-4.332,4.389   c-0.025,0.237-0.135,0.458-0.309,0.622c-0.201,0.189-0.394,0.338-0.59,0.456C23.282,42.848,22.635,43.023,21.992,43.023z    M37.159,40.781C37.159,40.781,37.159,40.781,37.159,40.781c0.634,0.377,1.349,0.316,1.91-0.167   c0.317-0.272,0.75-0.934,1.168-1.573c1.065-1.626,2.508-3.83,4.724-4.004c0.027-0.234,0.04-0.455,0.04-0.668v-7.123   c-0.013-0.107-0.011-0.209,0-0.299v-1.921c0-0.297-0.019-0.589-0.037-0.882l-0.009-0.152c-0.665-2.617-4.017-3.642-5.096-3.907   c-3.683,2.061-7.372,3.033-11.029,2.934C28.943,23.943,29,24.949,29,26.026c0,0.428-0.273,0.808-0.678,0.946   c-0.406,0.137-0.854,0.002-1.115-0.337c-0.029-0.037-2.855-3.661-7.322-5.574c-0.014,0-0.023,0-0.023,0   c-0.18,0.012-0.424,0.065-0.632,0.115c-0.146,0.037-0.299,0.093-0.452,0.152l-0.177,0.07c-0.177,0.079-0.355,0.169-0.525,0.279   c-0.406,0.264-0.755,0.585-1.051,0.964c-1.5,1.917-1.952,4.073-2.025,4.469v7.047c0,0.292,0.019,0.585,0.055,0.88   c2.207,0.184,3.646,2.38,4.708,4.003c0.419,0.639,0.851,1.3,1.167,1.572c0.562,0.485,1.277,0.547,1.91,0.167   c0.54-3.309,3.167-5.754,6.264-5.754h1.79C33.992,35.026,36.62,37.472,37.159,40.781z M46.909,26.732   C46.909,26.733,46.909,26.733,46.909,26.732C46.909,26.733,46.909,26.733,46.909,26.732z"/>
	<path d="M46.754,37.95c-0.358,0-0.696-0.193-0.874-0.515c-0.081-0.146-0.196-0.26-0.332-0.329C45.211,36.935,45,36.59,45,36.214   v-7.188c0-0.552,0.448-1,1-1c2.757,0,5,2.243,5,5c0,2.394-1.707,4.457-4.058,4.906C46.879,37.944,46.816,37.95,46.754,37.95z    M47,35.689c0.043,0.037,0.084,0.075,0.125,0.114C48.239,35.354,49,34.264,49,33.026c0-1.304-0.836-2.416-2-2.829V35.689z"/>
	<path d="M13.246,37.95c-0.062,0-0.125-0.006-0.188-0.018C10.707,37.483,9,35.419,9,33.026c0-2.757,2.243-5,5-5c0.552,0,1,0.448,1,1   v7.188c0,0.376-0.211,0.721-0.547,0.892c-0.136,0.069-0.251,0.183-0.332,0.329C13.942,37.756,13.605,37.95,13.246,37.95z    M13,30.197c-1.164,0.413-2,1.525-2,2.829c0,1.238,0.761,2.328,1.875,2.777c0.041-0.039,0.082-0.077,0.125-0.114V30.197z"/>
</g>

</svg>
