<svg xmlns="http://www.w3.org/2000/svg" viewBox="0 0 60 60.026" width="512" height="512"><path d="M31 46.026h-2a1 1 0 0 1 0-2h2a1 1 0 0 1 0 2zM29.959 43.023c-1.234 0-2.467-.397-3.543-1.192a1 1 0 1 1 1.189-1.608c1.452 1.073 3.257 1.073 4.71 0a1 1 0 0 1 1.188 1.608c-1.076.794-2.31 1.192-3.544 1.192z"/><path d="M30 54.026c-9.108 0-18-1.158-18-15v-1.143c0-1.575 1.237-2.857 2.757-2.857 2.377 0 3.897 2.321 5.007 4.016.419.639.851 1.3 1.167 1.572.562.485 1.276.547 1.91.167.54-3.309 3.167-5.754 6.264-5.754h1.79c3.098 0 5.725 2.446 6.264 5.755.635.379 1.349.316 1.91-.167.317-.272.75-.934 1.168-1.573 1.11-1.694 2.63-4.015 5.006-4.015 1.52 0 2.757 1.282 2.757 2.857v1.143c0 13.841-8.892 14.999-18 14.999zm-15.243-17c-.417 0-.757.384-.757.857v1.143c0 10.928 5.623 13 16 13s16-2.072 16-13v-1.143c0-.473-.34-.857-.757-.857-1.296 0-2.426 1.725-3.333 3.111-.54.824-1.006 1.536-1.535 1.992a3.588 3.588 0 0 1-4.84-.092 1.007 1.007 0 0 1-.308-.621c-.267-2.502-2.129-4.39-4.332-4.39h-1.79c-2.202 0-4.065 1.887-4.332 4.389a1 1 0 0 1-.309.622 3.584 3.584 0 0 1-4.839.092c-.529-.456-.995-1.167-1.535-1.991-.907-1.387-2.037-3.112-3.333-3.112z"/><path d="M30 60.026a.998.998 0 0 1-.759-.349l-5.356-6.249a1.001 1.001 0 0 1 .87-1.645c1.481.165 3.148.242 5.245.242s3.764-.077 5.245-.242a1 1 0 0 1 .87 1.645l-5.356 6.249c-.19.221-.467.349-.759.349zm-3.024-6.065L30 57.489l3.024-3.528c-.917.044-1.914.065-3.024.065s-2.107-.021-3.024-.065z"/><path d="M59 60.026H1a1 1 0 0 1-1-1v-1.558c0-4.651 4.115-6.484 9.323-8.805 1.494-.666 3.187-1.42 4.918-2.298a1.002 1.002 0 0 1 1.331.414c2.378 4.369 7.283 5.247 14.427 5.247s12.05-.878 14.427-5.247a1.002 1.002 0 0 1 1.331-.414c1.732.878 3.425 1.632 4.918 2.298 5.21 2.32 9.325 4.154 9.325 8.805v1.558a1 1 0 0 1-1 1zm-57-2h56v-.558c0-3.204-2.79-4.596-8.137-6.978a125.48 125.48 0 0 1-4.177-1.927c-3.341 5.024-9.819 5.463-15.686 5.463s-12.344-.439-15.686-5.463c-1.479.724-2.9 1.357-4.177 1.927C4.79 52.872 2 54.264 2 57.468v.558z"/><path d="M14 60.026a1 1 0 0 1-1-1v-3a1 1 0 0 1 2 0v3a1 1 0 0 1-1 1zM46 60.026a1 1 0 0 1-1-1v-3a1 1 0 0 1 2 0v3a1 1 0 0 1-1 1zM19.508 28.626a1 1 0 0 1-.384-1.924c2.046-.85 4.637-.897 6.3-.118a1 1 0 0 1-.849 1.81c-1.154-.541-3.168-.475-4.684.154a.979.979 0 0 1-.383.078zM40.999 28.626a.996.996 0 0 1-.383-.077c-1.516-.63-3.529-.696-4.684-.154a.999.999 0 1 1-.849-1.81c1.663-.78 4.254-.732 6.3.118a1 1 0 0 1-.384 1.923zM22.575 33.026c-1.087 0-2.06-.497-2.739-1.398a.998.998 0 0 1-.201-.602c0-1.103.897-2 2-2a1 1 0 0 1 .429 1.904c.292.118.633.161.983-.043a1 1 0 1 1 1.003 1.731 2.93 2.93 0 0 1-1.475.408zM38.981 33.026c-1.087 0-2.06-.497-2.739-1.398a.998.998 0 0 1-.201-.602c0-1.103.897-2 2-2a1 1 0 0 1 .429 1.904c.292.118.633.161.983-.043a1 1 0 1 1 1.003 1.731c-.469.27-.966.408-1.475.408zM29 37.026a1 1 0 0 1 0-2 1.001 1.001 0 0 0 .59-1.808 1 1 0 1 1 1.183-1.612A3.012 3.012 0 0 1 32 34.026c0 1.654-1.346 3-3 3zM20 21.026a1 1 0 0 1 0-2c2.206 0 4-1.346 4-3a1 1 0 0 1 2 0c0 2.757-2.692 5-6 5zM39.555 20.026a.999.999 0 0 1-.575-1.819c.013-.009 1.348-.951 2.371-2.121a1 1 0 1 1 1.505 1.317c-1.187 1.357-2.667 2.399-2.729 2.442a.994.994 0 0 1-.572.181z"/><path d="M46 28.266a1 1 0 0 1-1-1v-.019a1.202 1.202 0 0 1 0-.3v-1.92c0-.297-.019-.589-.037-.882l-.009-.152c-.668-2.632-4.016-3.646-5.095-3.908-1.775.992-3.579 1.737-5.396 2.23a.954.954 0 0 1-.197.033c-1.67.45-3.347.679-4.986.683-.15 0-.3-.003-.452-.008.115.922.172 1.927.172 3.003a1 1 0 0 1-1.799.602c-.028-.037-2.804-3.667-7.314-5.564-1.14.072-2.167.627-2.907 1.577-1.658 2.128-2.023 4.507-2.027 4.531a1 1 0 0 1-1.503.712c-1.7-1.018-3.121-2.487-3.709-3.834-.85-1.946-.973-4.184-.338-6.139.4-1.232 1.064-2.191 1.979-2.862a8.464 8.464 0 0 1-.372-2.92c.199-4.308 3.727-7.861 8.032-8.09a8.467 8.467 0 0 1 1.998.126c-.348-.998-.896-1.781-1.639-2.338a1 1 0 0 1 .557-1.8c.292-.014 7.099-.286 13.394 1.258C34.967.204 36.901-.198 38.849.145c3.089.546 5.582 3.1 6.062 6.21.073.475.102.956.086 1.429-.05 1.44.797 2.853 2.156 3.599C49.364 12.598 52 14.998 52 19.526a9.519 9.519 0 0 1-5.587 8.65.998.998 0 0 1-.413.09zm-6.278-10.237c.051 0 .1.004.148.012.245.043 6.016 1.108 7.05 5.576a.947.947 0 0 1 .024.167l.014.235c.022.334.042.667.042 1.007v.492a7.51 7.51 0 0 0 3-5.992c0-2.851-1.282-5-3.812-6.39-2.014-1.106-3.267-3.234-3.192-5.42a5.59 5.59 0 0 0-.064-1.055c-.351-2.277-2.174-4.146-4.433-4.545a5.478 5.478 0 0 0-4.336 1.047c-.245.188-.563.25-.86.174-4.041-1.054-8.496-1.289-11.077-1.326.594.962.981 2.121 1.156 3.467a1 1 0 0 1-1.378 1.05 6.47 6.47 0 0 0-2.857-.492c-3.291.175-5.988 2.892-6.14 6.185a6.446 6.446 0 0 0 .515 2.86 1 1 0 0 1-.476 1.29c-.833.412-1.403 1.118-1.741 2.159-.486 1.496-.388 3.217.269 4.72.292.669.952 1.445 1.775 2.121.34-1.069.961-2.555 2.054-3.959 1.14-1.464 2.828-2.323 4.63-2.355.068 0 .137.005.205.018.065.012.16.037.221.062 2.785 1.131 4.961 2.83 6.391 4.178-.05-.413-.112-.806-.186-1.178a.999.999 0 0 1 1.079-1.191c.575.057 1.064.084 1.539.085a17.42 17.42 0 0 0 4.646-.664.996.996 0 0 1 .201-.035c1.72-.485 3.367-1.189 5.028-2.15.162-.094.371-.153.565-.153z"/><path d="M32 7.526a1 1 0 0 1-1-1c0-3.584 2.916-6.5 6.5-6.5a1 1 0 0 1 0 2 4.505 4.505 0 0 0-4.5 4.5 1 1 0 0 1-1 1zM21.992 43.023a3.61 3.61 0 0 1-2.366-.895c-.529-.457-.995-1.168-1.535-1.992-.908-1.386-2.037-3.111-3.333-3.111a.703.703 0 0 0-.207.042.998.998 0 0 1-1.284-.714A9.29 9.29 0 0 1 13 34.158v-7.132c0-.049.004-.098.011-.146.018-.119.452-2.93 2.439-5.47a6.257 6.257 0 0 1 1.522-1.399 5.882 5.882 0 0 1 1.07-.54c.242-.094.474-.175.71-.235.259-.062.583-.132.933-.162.093-.028.191-.044.292-.046a.953.953 0 0 1 .401.073c2.809 1.144 5.024 2.875 6.476 4.237a15.76 15.76 0 0 0-.188-1.2.999.999 0 0 1 1.079-1.19c3.76.372 7.601-.559 11.414-2.765.204-.118.482-.179.713-.14.245.043 6.016 1.108 7.05 5.576a.947.947 0 0 1 .024.167l.014.235c.02.332.04.665.04 1.005v2l-.002.062.002.062v7.219c0 .607-.075 1.233-.235 1.971a1 1 0 0 1-1.307.732.682.682 0 0 0-.216-.045c-1.296 0-2.426 1.725-3.333 3.111-.54.824-1.006 1.536-1.535 1.992a3.588 3.588 0 0 1-4.242.369 3.477 3.477 0 0 1-.597-.461 1.003 1.003 0 0 1-.309-.622c-.267-2.502-2.129-4.39-4.332-4.39h-1.79c-2.202 0-4.065 1.887-4.332 4.389a1 1 0 0 1-.309.622 3.491 3.491 0 0 1-.59.456 3.644 3.644 0 0 1-1.881.53zm15.167-2.242c.634.377 1.349.316 1.91-.167.317-.272.75-.934 1.168-1.573 1.065-1.626 2.508-3.83 4.724-4.004a5.81 5.81 0 0 0 .04-.668v-7.123a1.244 1.244 0 0 1 0-.299v-1.921c0-.297-.019-.589-.037-.882l-.009-.152c-.665-2.617-4.017-3.642-5.096-3.907-3.683 2.061-7.372 3.033-11.029 2.934.113.924.17 1.93.17 3.007a1 1 0 0 1-1.793.609c-.029-.037-2.855-3.661-7.322-5.574h-.023c-.18.012-.424.065-.632.115a4.072 4.072 0 0 0-.452.152l-.177.07a3.848 3.848 0 0 0-.525.279 4.291 4.291 0 0 0-1.051.964c-1.5 1.917-1.952 4.073-2.025 4.469v7.047c0 .292.019.585.055.88 2.207.184 3.646 2.38 4.708 4.003.419.639.851 1.3 1.167 1.572.562.485 1.277.547 1.91.167.54-3.309 3.167-5.754 6.264-5.754h1.79c3.098.001 5.726 2.447 6.265 5.756zm9.75-14.049c0 .001 0 .001 0 0 0 .001 0 .001 0 0z"/><path d="M46.754 37.95a1 1 0 0 1-.874-.515.797.797 0 0 0-.332-.329 1 1 0 0 1-.548-.892v-7.188a1 1 0 0 1 1-1c2.757 0 5 2.243 5 5a5 5 0 0 1-4.058 4.906 1.005 1.005 0 0 1-.188.018zM47 35.689c.043.037.084.075.125.114A2.998 2.998 0 0 0 47 30.197v5.492zM13.246 37.95c-.062 0-.125-.006-.188-.018A5.001 5.001 0 0 1 9 33.026c0-2.757 2.243-5 5-5a1 1 0 0 1 1 1v7.188c0 .376-.211.721-.547.892a.797.797 0 0 0-.332.329 1.003 1.003 0 0 1-.875.515zM13 30.197a2.998 2.998 0 1 0-.125 5.606c.041-.039.082-.077.125-.114v-5.492z"/></svg>