<svg width="283" height="461" viewBox="0 0 283 461" fill="none" xmlns="http://www.w3.org/2000/svg">
<path d="M255.871 5.16927L277.802 26.9761V434.024L255.871 455.83L29.8284 455.83L7.89899 434.024V419.243L12.3547 416.867V432.189L31.6736 451.399L254.026 451.399L273.345 432.189V28.81L254.026 9.60071L31.6736 9.60081L12.3547 28.8101L12.3547 416.867L7.89899 419.243V26.9762L29.8284 5.16937L255.871 5.16927Z" fill="#D6A354"/>
<path d="M275.573 0L268.146 7.3853L275.573 14.7706L283 7.3853L275.573 0Z" fill="#D6A354"/>
<path d="M275.573 446.229L268.146 453.615L275.573 461L283 453.615L275.573 446.229Z" fill="#D6A354"/>
<path d="M7.42704 0.0001016L0 7.3854L7.42704 14.7707L14.8541 7.3854L7.42704 0.0001016Z" fill="#D6A354"/>
<path d="M7.42704 446.23L0 453.615L7.42704 461L14.8541 453.615L7.42704 446.23Z" fill="#D6A354"/>
</svg>
