<svg width="36" height="36" viewBox="0 0 36 36" fill="none" xmlns="http://www.w3.org/2000/svg">
<path d="M34.2 15.6H22.2C21.2059 15.6 20.4 16.4058 20.4 17.4V34.2C20.4 35.1941 21.2059 36 22.2 36H34.2C35.1941 36 36 35.1941 36 34.2V17.4C36 16.4058 35.1941 15.6 34.2 15.6ZM27.6 34.8H22.2C21.8687 34.8 21.6 34.5313 21.6 34.2V30H27.6V34.8ZM27.6 28.8H21.6V24H27.6V28.8ZM34.8 34.2C34.8 34.5313 34.5313 34.8 34.2 34.8H28.8V30H34.8V34.2ZM34.8 28.8H28.8V24H34.8V28.8ZM34.8 22.8H21.6V17.4C21.6 17.0686 21.8687 16.8 22.2 16.8H34.2C34.5313 16.8 34.8 17.0686 34.8 17.4V22.8Z" fill="#D29C4E"/>
<path d="M33 18H23.4C23.0687 18 22.8 18.2686 22.8 18.6V21C22.8 21.3313 23.0687 21.6 23.4 21.6H33C33.3314 21.6 33.6 21.3313 33.6 21V18.6C33.6 18.2686 33.3314 18 33 18ZM32.4 20.4H24V19.2H32.4V20.4Z" fill="#D29C4E"/>
<path d="M25.2 25.8V24.6H24V25.8H22.8V27H24V28.2H25.2V27H26.4V25.8H25.2Z" fill="#D29C4E"/>
<path d="M33.6 25.7999H30V26.9999H33.6V25.7999Z" fill="#D29C4E"/>
<path d="M26.2967 31.6242L25.4484 30.7758L24.6 31.6242L23.7516 30.7758L22.9032 31.6242L23.7516 32.4726L22.9032 33.321L23.7516 34.1694L24.6 33.321L25.4484 34.1694L26.2967 33.321L25.4484 32.4726L26.2967 31.6242Z" fill="#D29C4E"/>
<path d="M33.6 31.8H30V33H33.6V31.8Z" fill="#D29C4E"/>
<path d="M32.3999 33.3001H31.1999V33.9001H32.3999V33.3001Z" fill="#D29C4E"/>
<path d="M32.3999 30.8999H31.1999V31.4999H32.3999V30.8999Z" fill="#D29C4E"/>
<path d="M24 0H6.59999V0.0054C6.44159 0.003525 6.28889 0.064875 6.17579 0.1758L0.1758 6.1758C0.0647249 6.28883 0.003375 6.44152 0.00539999 6.6H0V34.8C0 35.4628 0.537224 36 1.2 36H19.2V34.8H15.6V33H16.8C17.1313 33 17.4 32.7313 17.4 32.4V29.4C17.4 29.0687 17.1313 28.8 16.8 28.8H15.6V27H16.8C17.1313 27 17.4 26.7313 17.4 26.4V23.4C17.4 23.0686 17.1313 22.8 16.8 22.8H16.7844C18.3026 21.6714 19.1982 19.8917 19.2 18C19.2064 14.6863 16.5253 11.9948 13.2117 11.9884C9.89804 11.9819 7.20644 14.663 7.19999 17.9767C7.19632 19.8762 8.09226 21.6653 9.61559 22.8H4.79999C4.46864 22.8 4.19999 23.0686 4.19999 23.4V25.8H3C2.66865 25.8 2.4 26.0686 2.4 26.4V29.4C2.4 29.7313 2.66865 30 3 30H4.19999V31.8H3C2.66865 31.8 2.4 32.0687 2.4 32.4V34.8H1.2V7.2H5.99999C6.66277 7.2 7.19999 6.66278 7.19999 6V1.2H24V14.4H25.2V1.2C25.2 0.537225 24.6627 0 24 0ZM16.2 30V31.8H5.39999V30H16.2ZM8.39999 18C8.39999 15.349 10.549 13.2 13.2 13.2C15.8509 13.2 18 15.349 18 18C18 20.6509 15.8509 22.8 13.2 22.8C10.5502 22.797 8.40299 20.6497 8.39999 18ZM5.39999 24H16.2V25.8H5.39999V24ZM3.6 28.8V27H14.4V28.8H3.6ZM3.6 33H14.4V34.8H3.6V33ZM5.99999 6H2.0484L5.99999 2.0484V6Z" fill="#D29C4E"/>
<path d="M13.2 16.2H15V15H13.8V14.4H12.6V15.1104C11.6646 15.4399 11.1733 16.4654 11.5029 17.4008C11.7564 18.1205 12.437 18.6015 13.2 18.6C13.5314 18.6 13.8 18.8687 13.8 19.2C13.8 19.5314 13.5314 19.8 13.2 19.8H11.4V21H12.6V21.6H13.8V20.8896C14.7355 20.5601 15.2267 19.5347 14.8972 18.5992C14.6437 17.8795 13.9631 17.3985 13.2 17.4C12.8687 17.4 12.6 17.1314 12.6 16.8C12.6 16.4687 12.8687 16.2 13.2 16.2Z" fill="#D29C4E"/>
<path d="M33.6 3.00004H32.4C32.4 2.66869 32.1313 2.40004 31.8 2.40004H31.2V0.600044C31.2 0.268694 30.9313 4.42675e-05 30.6 4.42675e-05H28.2C27.8686 4.42675e-05 27.6 0.268694 27.6 0.600044V2.40004H27C26.6686 2.40004 26.4 2.66869 26.4 3.00004V14.4H27.6V3.60004H31.2V14.4H32.4V4.20004H33.6V12H34.8V4.20004C34.8 3.53727 34.2628 3.00004 33.6 3.00004ZM30 2.40004H28.8V1.20004H30V2.40004Z" fill="#D29C4E"/>
<path d="M19.2 4.79999H8.99999V6H19.2V4.79999Z" fill="#D29C4E"/>
<path d="M22.8 8.40003H2.40002V9.60003H22.8V8.40003Z" fill="#D29C4E"/>
<path d="M9.60002 10.8001H2.40002V12.0001H9.60002V10.8001Z" fill="#D29C4E"/>
<path d="M22.8 10.8001H17.4V12.0001H22.8V10.8001Z" fill="#D29C4E"/>
</svg>
