<svg width="120" height="128" viewBox="0 0 120 128" fill="none" xmlns="http://www.w3.org/2000/svg">
<path d="M52.668 29.6948C56.0173 28.7974 58.0118 25.3428 57.1144 21.9935C56.2169 18.6441 52.7623 16.6496 49.413 17.5471C46.0637 18.4445 44.0692 21.8991 44.9666 25.2484C45.864 28.5977 49.3187 30.5923 52.668 29.6948ZM50.343 21.0179C51.7782 20.6333 53.259 21.4883 53.6436 22.9234C54.0281 24.3586 53.1731 25.8395 51.738 26.224C50.3028 26.6086 48.8219 25.7536 48.4374 24.3184C48.0528 22.8833 48.9078 21.4024 50.343 21.0179Z" fill="grey"/>
<path d="M16.2247 39.4597C19.574 38.5623 21.5685 35.1077 20.6711 31.7583C19.7737 28.409 16.3191 26.4145 12.9697 27.312C9.62044 28.2094 7.62592 31.664 8.52336 35.0133C9.42081 38.3626 12.8754 40.3572 16.2247 39.4597ZM13.8997 30.7827C15.3349 30.3982 16.8158 31.2532 17.2003 32.6883C17.5849 34.1235 16.7299 35.6044 15.2947 35.9889C13.8596 36.3735 12.3787 35.5185 11.9941 34.0833C11.6096 32.6482 12.4646 31.1673 13.8997 30.7827Z" fill="grey"/>
<path d="M33.8946 105.405C30.5452 106.302 28.5507 109.757 29.4482 113.106C30.3456 116.455 33.8002 118.45 37.1495 117.552C40.4988 116.655 42.4934 113.2 41.5959 109.851C40.6985 106.502 37.2439 104.507 33.8946 105.405ZM36.2195 114.082C34.7844 114.466 33.3035 113.611 32.919 112.176C32.5344 110.741 33.3894 109.26 34.8245 108.875C36.2597 108.491 37.7406 109.346 38.1251 110.781C38.5097 112.216 37.6547 113.697 36.2195 114.082Z" fill="grey"/>
<path d="M82.8289 34.6629L74.9165 5.13343L69.7104 6.52842L66.2396 7.45841L64.5042 7.92341L61.0334 8.8534L59.298 9.3184L55.8272 10.2484L0.294678 25.1283L27.2645 125.781L68.9816 114.603C72.0243 114.963 75.4233 114.737 78.9236 113.799C83.2412 112.642 86.8952 110.633 89.5535 108.191C93.1951 108.995 97.3812 108.853 101.484 107.754C111.702 105.016 118.275 97.5353 116.45 90.7238L114.59 83.7823L112.73 76.8407L110.87 69.8991L109.01 62.9576L107.15 56.016L105.29 49.0744L103.43 42.1329C101.657 35.5158 92.7043 32.333 82.8289 34.6629ZM99.9596 43.0629C101.22 47.7658 95.5287 53.5501 87.5338 55.6923C79.5388 57.8345 71.7181 55.6707 70.4579 50.9678C70.3803 50.678 70.3296 50.3847 70.3041 50.0883C70.2961 50.003 70.3043 49.9153 70.302 49.8304C70.2931 49.617 70.2856 49.4014 70.302 49.1849C70.3095 49.0881 70.3331 48.9887 70.3459 48.8905C70.3725 48.6843 70.3969 48.4769 70.447 48.2682C70.4738 48.1531 70.5176 48.0391 70.5519 47.9239C70.6066 47.7325 70.6596 47.5416 70.7331 47.3508C70.7924 47.1973 70.87 47.0426 70.9419 46.8875C71.0095 46.7373 71.0702 46.589 71.1492 46.4395C71.27 46.21 71.413 45.9801 71.5599 45.751C71.6058 45.6792 71.6438 45.6058 71.6918 45.5352C72.1025 44.923 72.6013 44.3132 73.1882 43.7133C73.7559 43.1315 74.3899 42.5822 75.0784 42.0629C75.1184 42.0317 75.1629 42.0031 75.2046 41.9714C75.8873 41.4649 76.6188 40.988 77.4089 40.5494C77.4366 40.5345 77.4664 40.5209 77.4936 40.5043C78.1646 40.1348 78.8692 39.7935 79.601 39.484C79.6308 39.4704 79.6589 39.4573 79.6892 39.4455C80.4604 39.1235 81.2592 38.8351 82.0847 38.5841L82.8925 38.3361C90.8849 36.1982 98.6995 38.3599 99.9596 43.0629ZM111.276 85.7456C111.285 85.8992 111.28 86.0549 111.276 86.2123C111.272 86.3583 111.27 86.5039 111.255 86.6493C111.238 86.8065 111.208 86.9652 111.178 87.1239C111.15 87.2708 111.126 87.4168 111.088 87.5647C111.046 87.7227 110.992 87.8823 110.938 88.0401C110.888 88.1873 110.842 88.3354 110.781 88.482C110.716 88.6426 110.638 88.8012 110.56 88.9599C110.489 89.1053 110.424 89.2511 110.343 89.3954C110.254 89.5568 110.152 89.7163 110.052 89.8753C109.963 90.018 109.878 90.1598 109.781 90.3013C109.671 90.4609 109.545 90.6173 109.424 90.7745C109.316 90.9132 109.214 91.0522 109.098 91.1909C108.967 91.347 108.822 91.4993 108.679 91.653C108.555 91.7884 108.435 91.9229 108.304 92.0567C108.153 92.2088 107.989 92.3549 107.828 92.504C107.687 92.635 107.551 92.7663 107.402 92.8934C107.231 93.0396 107.048 93.1817 106.867 93.3251C106.714 93.448 106.565 93.5716 106.404 93.6911C106.211 93.8338 106.004 93.9711 105.802 94.1109C105.638 94.2235 105.481 94.3381 105.311 94.4469C105.101 94.5834 104.875 94.7127 104.655 94.8423C104.48 94.9468 104.311 95.0534 104.132 95.1536C103.9 95.2825 103.657 95.4017 103.418 95.5234C103.237 95.6166 103.062 95.7137 102.875 95.801C102.613 95.9252 102.34 96.0392 102.07 96.1562C101.895 96.2328 101.724 96.3141 101.544 96.3864C101.24 96.5088 100.925 96.6191 100.613 96.7307C100.457 96.7873 100.306 96.8483 100.148 96.9019C99.6735 97.0624 99.1883 97.2092 98.6937 97.3417C98.0151 97.5235 97.3368 97.6644 96.659 97.7865C96.4743 97.8192 96.2909 97.8497 96.1071 97.8785C95.5342 97.9688 94.9614 98.0386 94.39 98.0857C94.3065 98.0932 94.2221 98.1046 94.1363 98.1109C94.0882 97.6606 94.0092 97.2131 93.8902 96.7688L93.3322 94.6863C93.4588 94.6729 93.5839 94.6468 93.71 94.6316C94.1972 94.5755 94.6845 94.5063 95.1699 94.4227C95.3711 94.3892 95.5711 94.358 95.7709 94.3193C96.4381 94.1926 97.1025 94.0481 97.7637 93.8709C98.4735 93.6807 99.161 93.463 99.8347 93.2286C100.053 93.1534 100.259 93.0685 100.473 92.9886C100.925 92.8193 101.369 92.6445 101.801 92.4581C102.037 92.3556 102.267 92.2476 102.497 92.1413C102.894 91.9551 103.281 91.7638 103.659 91.5622C103.88 91.4452 104.098 91.3291 104.313 91.2065C104.701 90.9873 105.071 90.758 105.437 90.5221C105.615 90.4076 105.798 90.299 105.969 90.1824C106.473 89.8392 106.958 89.4859 107.414 89.1183C107.432 89.104 107.451 89.0915 107.47 89.0772C107.942 88.6941 108.382 88.2953 108.801 87.8873C108.935 87.7565 109.055 87.622 109.183 87.4891C109.458 87.2034 109.725 86.916 109.974 86.6225C110.107 86.4642 110.231 86.3044 110.357 86.1441C110.581 85.8592 110.788 85.5711 110.985 85.2802C111.043 85.1921 111.118 85.1089 111.174 85.0212C111.195 85.118 111.212 85.2176 111.226 85.3163C111.244 85.4563 111.266 85.5993 111.276 85.7456ZM88.7154 91.7905C88.725 91.9442 88.7202 92.0999 88.7158 92.2572C88.7122 92.4033 88.7103 92.5489 88.6953 92.6943C88.6779 92.8515 88.6479 93.0102 88.6179 93.1689C88.5903 93.3158 88.5661 93.4617 88.5277 93.6097C88.4863 93.7677 88.4323 93.9272 88.3779 94.085C88.3281 94.2323 88.2822 94.3804 88.221 94.527C88.1562 94.6876 88.0778 94.8462 87.9994 95.0048C87.9286 95.1503 87.8635 95.2961 87.7832 95.4404C87.6944 95.6018 87.592 95.7613 87.4914 95.9203C87.4032 96.063 87.3184 96.2047 87.2205 96.3463C87.1108 96.5059 86.9853 96.6623 86.8637 96.8195C86.7558 96.9581 86.6535 97.0971 86.5382 97.2359C86.407 97.3919 86.2619 97.5443 86.1189 97.6979C85.9952 97.8334 85.875 97.9679 85.7435 98.1017C85.5926 98.2537 85.4291 98.3998 85.2681 98.549C85.1265 98.6799 84.9906 98.8112 84.8424 98.9383C84.6714 99.0846 84.4881 99.2267 84.3071 99.3701C84.154 99.4929 84.0048 99.6166 83.8434 99.7361C83.651 99.8788 83.4441 100.016 83.2417 100.156C83.0784 100.268 82.9213 100.383 82.7514 100.492C82.5406 100.628 82.3148 100.758 82.0947 100.887C81.92 100.992 81.7514 101.098 81.5718 101.199C81.3404 101.327 81.097 101.447 80.858 101.568C80.6766 101.662 80.5017 101.759 80.3149 101.846C80.0525 101.97 79.7798 102.084 79.5099 102.201C79.3351 102.278 79.1634 102.359 78.9838 102.431C78.6799 102.554 78.3654 102.664 78.053 102.776C77.8971 102.832 77.746 102.893 77.5874 102.947C77.1134 103.107 76.6282 103.254 76.1336 103.387C75.639 103.519 75.1454 103.635 74.6534 103.735C74.4892 103.768 74.3279 103.791 74.1645 103.819C73.8365 103.879 73.5089 103.941 73.1863 103.987C72.9946 104.014 72.807 104.029 72.6156 104.05C72.3233 104.084 72.0302 104.122 71.7408 104.145C71.5367 104.161 71.3367 104.164 71.1334 104.176C70.8639 104.19 70.5931 104.207 70.3264 104.212C70.1208 104.215 69.9232 104.206 69.7219 104.204C69.4642 104.201 69.2041 104.202 68.9515 104.19C68.75 104.18 68.5566 104.16 68.3589 104.144C68.1137 104.124 67.8681 104.11 67.6279 104.081C67.4284 104.058 67.2387 104.024 67.0434 103.996C66.8166 103.962 66.5851 103.931 66.3639 103.89C66.172 103.854 65.9882 103.806 65.8005 103.765C65.5866 103.717 65.3719 103.672 65.1652 103.616C64.9848 103.567 64.813 103.509 64.6382 103.454C64.4393 103.392 64.2357 103.333 64.0441 103.263C63.8752 103.202 63.7172 103.133 63.5539 103.065C63.3701 102.99 63.1832 102.917 63.0083 102.834C62.8528 102.76 62.7085 102.68 62.5608 102.6C62.3941 102.513 62.2257 102.426 62.0681 102.331C61.9281 102.245 61.7971 102.152 61.6653 102.063C61.5194 101.963 61.3704 101.865 61.234 101.758C61.1094 101.661 60.9961 101.558 60.8793 101.455C60.7528 101.344 60.6246 101.233 60.5098 101.117C60.4029 101.01 60.3086 100.894 60.2112 100.78C60.1059 100.658 60.0005 100.536 59.9069 100.408C59.8212 100.29 59.7468 100.165 59.6706 100.04C59.5886 99.9075 59.5066 99.7751 59.4376 99.6355C59.3731 99.5058 59.3198 99.3694 59.2653 99.2353C59.2275 99.1431 59.195 99.0495 59.162 98.9542C59.2548 99.0018 59.3596 99.0389 59.4536 99.0843C59.7704 99.2394 60.0958 99.3847 60.4315 99.5198C60.6193 99.596 60.8071 99.6721 61.0004 99.7412C61.3631 99.8729 61.738 99.9881 62.1208 100.098C62.2981 100.149 62.4695 100.205 62.6511 100.251C63.2179 100.395 63.7983 100.52 64.3987 100.616C64.4201 100.62 64.4406 100.62 64.462 100.623C65.0445 100.715 65.6422 100.78 66.2509 100.823C66.4577 100.838 66.6704 100.841 66.8815 100.851C67.3146 100.871 67.7515 100.884 68.1973 100.882C68.4439 100.879 68.6909 100.87 68.9413 100.861C69.3686 100.845 69.8004 100.819 70.2369 100.782C70.4898 100.76 70.7421 100.737 70.9983 100.708C71.4659 100.655 71.9376 100.583 72.413 100.504C72.6372 100.466 72.8599 100.436 73.0845 100.393C73.7896 100.261 74.4938 100.106 75.2036 99.9159C75.9134 99.7257 76.6009 99.508 77.2746 99.2735C77.4926 99.1984 77.6986 99.1134 77.9134 99.0336C78.3647 98.8643 78.8088 98.6895 79.2406 98.5031C79.4773 98.4006 79.7069 98.2926 79.937 98.1863C80.3335 98.0001 80.7212 97.8088 81.0987 97.6072C81.3203 97.4902 81.5384 97.374 81.7529 97.2515C82.1406 97.0323 82.5106 96.8029 82.8771 96.5671C83.0547 96.4525 83.2377 96.344 83.4092 96.2274C83.9124 95.8842 84.3981 95.5309 84.8538 95.1632C84.8723 95.149 84.8913 95.1364 84.9098 95.1222C85.3819 94.739 85.8219 94.3403 86.2408 93.9323C86.375 93.8015 86.4952 93.667 86.6232 93.5341C86.8982 93.2483 87.1653 92.961 87.414 92.6675C87.5465 92.5092 87.671 92.3494 87.7973 92.189C88.0205 91.9042 88.2279 91.6161 88.4252 91.3252C88.4834 91.237 88.5578 91.1538 88.6143 91.0662C88.6347 91.163 88.652 91.2625 88.6655 91.3612C88.6844 91.5012 88.706 91.6442 88.7154 91.7905ZM21.3764 55.2154L18.4785 44.4004C23.8958 42.4951 27.1353 36.8841 26.0768 31.2399L40.0241 27.5027C41.9295 32.92 47.5422 36.159 53.1847 35.101L56.0825 45.9159C56.0495 45.8969 56.0157 45.8818 55.9827 45.8627C55.6121 45.6458 55.2267 45.457 54.8447 45.26C54.4749 45.067 54.1111 44.8613 53.7351 44.6868C53.5972 44.6233 53.4543 44.576 53.3156 44.5165C48.9918 42.6172 44.207 41.9612 39.4565 42.6966C39.3974 42.705 39.3403 42.7072 39.2812 42.7156C38.4437 42.8526 37.606 43.0306 36.7713 43.2542C35.9366 43.4779 35.1222 43.7426 34.3266 44.0432C34.2708 44.0637 34.2207 44.092 34.1653 44.1143C29.6831 45.851 25.8677 48.8133 23.0729 52.62C22.9826 52.7409 22.8829 52.855 22.7948 52.9772C22.5547 53.3168 22.3424 53.6769 22.1204 54.0284C21.8898 54.3896 21.6487 54.7463 21.4362 55.1194C21.4172 55.1524 21.3955 55.1824 21.3764 55.2154ZM68.7618 64.6226C68.7888 64.6191 68.8148 64.6121 68.8418 64.6086C69.7883 64.4759 70.7336 64.4012 71.6755 64.3832C72.4863 64.3686 73.2701 64.406 74.0322 64.4808C74.4046 64.5168 74.7706 64.5638 75.1297 64.6201C75.3277 64.6508 75.5316 64.6761 75.724 64.7138C76.2658 64.8197 76.7866 64.9517 77.2873 65.1059C77.4003 65.1388 77.509 65.1767 77.619 65.2123C78.7243 65.582 79.716 66.0621 80.5329 66.6468C80.5559 66.6629 80.581 66.6804 80.6039 66.6966C80.8837 66.9006 81.1383 67.1151 81.3708 67.3374C81.3983 67.3635 81.427 67.3874 81.4523 67.4123C81.669 67.6239 81.8571 67.8469 82.033 68.0732C82.0673 68.1179 82.1059 68.1578 82.1385 68.203C82.2946 68.4179 82.4235 68.6419 82.5441 68.87C82.5747 68.9287 82.6158 68.9847 82.6446 69.0439C82.7855 69.3335 82.8976 69.6271 82.9795 69.9325C84.2396 74.6354 78.5486 80.4197 70.5536 82.562C62.5587 84.7042 54.7379 82.5404 53.4778 77.8375C53.2755 77.0826 53.2702 76.2991 53.4077 75.5071C53.6069 74.3489 54.156 73.1564 55.009 71.9942C55.0635 71.92 55.1198 71.8454 55.1778 71.7704C55.4192 71.4565 55.6854 71.1452 55.9714 70.8379C58.2292 68.4213 61.7491 66.3212 65.9037 65.208C66.8512 64.9542 67.8058 64.7616 68.7618 64.6226ZM73.6951 58.7661C73.8829 58.8423 74.0707 58.9184 74.2641 58.9875C74.6267 59.1191 75.0017 59.2344 75.3844 59.3439C75.5618 59.3949 75.7331 59.4513 75.9147 59.4975C76.4815 59.6414 77.062 59.7667 77.6624 59.8625C77.6838 59.8661 77.7043 59.8662 77.7257 59.8697C78.3081 59.961 78.9058 60.0259 79.5145 60.0693C79.7213 60.0846 79.9341 60.0871 80.1452 60.0975C80.5782 60.1172 81.0151 60.1304 81.4609 60.1281C81.7075 60.1252 81.9545 60.1167 82.2049 60.1073C82.6322 60.0914 83.0641 60.0649 83.5006 60.028C83.7534 60.0067 84.0058 59.9837 84.262 59.9541C84.7296 59.9014 85.2012 59.829 85.6766 59.7499C85.9009 59.7122 86.1235 59.6823 86.3481 59.6388C87.0497 59.5085 87.754 59.3533 88.4637 59.1631C89.1735 58.9729 89.8611 58.7552 90.5348 58.5207C90.7527 58.4456 90.9587 58.3606 91.1736 58.2808C91.6248 58.1115 92.069 57.9367 92.5008 57.7503C92.7375 57.6478 92.9671 57.5398 93.1971 57.4335C93.5936 57.2473 93.9813 57.056 94.3588 56.8544C94.5804 56.7374 94.7985 56.6212 95.0131 56.4987C95.4007 56.2795 95.7708 56.0501 96.1373 55.8143C96.3149 55.6997 96.4978 55.5912 96.6693 55.4746C97.1726 55.1314 97.6582 54.7781 98.114 54.4104C98.1325 54.3962 98.1515 54.3836 98.17 54.3694C98.642 53.9862 99.082 53.5875 99.5009 53.1795C99.6351 53.0487 99.7553 52.9142 99.8834 52.7813C100.158 52.4955 100.425 52.2082 100.674 51.9146C100.807 51.7564 100.931 51.5965 101.057 51.4362C101.281 51.1514 101.488 50.8633 101.685 50.5724C101.744 50.4842 101.818 50.401 101.874 50.3134C101.895 50.4102 101.912 50.5097 101.926 50.6084C101.945 50.7519 101.969 50.8962 101.976 51.0412C101.986 51.1949 101.981 51.3505 101.977 51.5079C101.973 51.654 101.971 51.7996 101.956 51.9449C101.939 52.1021 101.909 52.2608 101.879 52.4195C101.851 52.5664 101.827 52.7124 101.789 52.8603C101.747 53.0184 101.693 53.1779 101.639 53.3357C101.589 53.483 101.543 53.631 101.482 53.7776C101.417 53.9382 101.339 54.0969 101.26 54.2555C101.19 54.401 101.125 54.5467 101.044 54.691C100.955 54.8525 100.853 55.0119 100.752 55.171C100.664 55.3137 100.579 55.4554 100.482 55.5969C100.372 55.7565 100.246 55.9129 100.125 56.0701C100.017 56.2088 99.9146 56.3478 99.7993 56.4866C99.6681 56.6426 99.523 56.795 99.38 56.9486C99.2563 57.084 99.1361 57.2185 99.0046 57.3524C98.8537 57.5044 98.6901 57.6505 98.5292 57.7997C98.3876 57.9306 98.2517 58.0619 98.1035 58.189C97.9325 58.3353 97.7492 58.4774 97.5681 58.6208C97.4151 58.7436 97.2659 58.8673 97.1045 58.9868C96.9121 59.1295 96.7052 59.2668 96.5028 59.4066C96.3395 59.5191 96.1823 59.6338 96.0125 59.7425C95.8016 59.879 95.5759 60.0083 95.3558 60.138C95.1811 60.2424 95.0125 60.349 94.8329 60.4492C94.6014 60.5782 94.3581 60.6973 94.1191 60.819C93.9377 60.9123 93.7628 61.0093 93.576 61.0966C93.3136 61.2209 93.0409 61.3348 92.771 61.4518C92.5962 61.5284 92.4245 61.6097 92.2449 61.682C91.941 61.8044 91.6265 61.9147 91.3141 62.0263C91.1582 62.083 91.0071 62.1439 90.8485 62.1976C90.3735 62.3546 89.8883 62.5013 89.3937 62.6339C88.7707 62.8008 88.1442 62.9408 87.5173 63.0585C87.3171 63.0955 87.1183 63.1171 86.9188 63.1501C86.4911 63.22 86.0647 63.2878 85.6402 63.3346C85.4036 63.3608 85.1697 63.3695 84.9329 63.3883C84.5486 63.4188 84.1626 63.4497 83.7818 63.4587C83.5379 63.4645 83.2976 63.4564 83.0575 63.4556C82.7798 63.4537 82.5047 63.4475 82.2335 63.4346C80.1216 62.0363 77.4037 61.1464 74.3279 60.8639C73.3813 60.0871 72.7339 59.191 72.4029 58.1917C72.5022 58.2432 72.6149 58.2818 72.7177 58.3324C73.0341 58.4857 73.3594 58.631 73.6951 58.7661ZM102.534 58.8545C102.666 58.6962 102.791 58.5364 102.917 58.3761C103.14 58.0912 103.348 57.8031 103.545 57.5122C103.603 57.4241 103.678 57.3409 103.734 57.2532C103.754 57.35 103.772 57.4495 103.785 57.5482C103.805 57.6917 103.829 57.836 103.836 57.981C103.846 58.1347 103.841 58.2904 103.836 58.4478C103.833 58.5938 103.831 58.7394 103.816 58.8848C103.799 59.042 103.768 59.2007 103.738 59.3594C103.711 59.5063 103.687 59.6522 103.648 59.8002C103.607 59.9582 103.553 60.1177 103.499 60.2755C103.449 60.4228 103.403 60.5709 103.342 60.7175C103.277 60.8781 103.198 61.0367 103.12 61.1953C103.049 61.3408 102.984 61.4866 102.904 61.6309C102.815 61.7923 102.713 61.9518 102.612 62.1108C102.524 62.2535 102.439 62.3952 102.341 62.5368C102.231 62.6964 102.106 62.8528 101.984 63.01C101.876 63.1486 101.774 63.2876 101.659 63.4264C101.528 63.5824 101.382 63.7348 101.24 63.8884C101.116 64.0239 100.996 64.1584 100.864 64.2922C100.713 64.4442 100.55 64.5904 100.389 64.7395C100.247 64.8704 100.111 65.0017 99.963 65.1288C99.792 65.2751 99.6087 65.4172 99.4277 65.5606C99.2746 65.6834 99.1255 65.8071 98.964 65.9266C98.7716 66.0693 98.5648 66.2066 98.3623 66.3464C98.199 66.459 98.0419 66.5736 97.872 66.6824C97.6612 66.8188 97.4354 66.9481 97.2153 67.0778C97.0406 67.1823 96.872 67.2888 96.6924 67.389C96.461 67.518 96.2176 67.6371 95.9787 67.7588C95.7972 67.8521 95.6223 67.9492 95.4355 68.0364C95.1731 68.1607 94.9004 68.2747 94.6305 68.3916C94.4557 68.4682 94.284 68.5496 94.1044 68.6219C93.8005 68.7442 93.486 68.8545 93.1737 68.9661C93.0177 69.0228 92.8667 69.0837 92.708 69.1374C92.2335 69.2962 91.7483 69.4429 91.2537 69.5754C90.3808 69.8093 89.4999 69.9784 88.6192 70.114C88.3567 70.1545 88.0921 70.1808 87.829 70.2122C87.485 70.2542 87.1409 70.2683 86.7962 70.2937L86.4503 69.0025C86.3484 68.6225 86.2153 68.2508 86.0619 67.8864C85.967 67.6571 85.8496 67.4411 85.7348 67.2208C85.6884 67.1309 85.6524 67.0383 85.603 66.9511C85.6447 66.9473 85.6851 66.9384 85.7269 66.9346C86.2399 66.8846 86.7558 66.804 87.2705 66.7256C87.5244 66.6873 87.7763 66.6626 88.03 66.617C88.7982 66.4781 89.5636 66.3083 90.3237 66.1047C91.0335 65.9145 91.721 65.6968 92.3948 65.4623C92.6127 65.3872 92.8187 65.3022 93.0335 65.2223C93.4848 65.053 93.929 64.8782 94.3608 64.6918C94.5974 64.5894 94.827 64.4814 95.0571 64.3751C95.4536 64.1888 95.8413 63.9975 96.2188 63.796C96.4404 63.6789 96.6585 63.5628 96.8731 63.4402C97.2607 63.221 97.6308 62.9917 97.9973 62.7558C98.1749 62.6413 98.3578 62.5328 98.5293 62.4161C99.0326 62.073 99.5182 61.7196 99.974 61.352C99.9925 61.3377 100.011 61.3252 100.03 61.311C100.502 60.9278 100.942 60.529 101.361 60.121C101.495 59.9902 101.615 59.8557 101.743 59.7228C102.018 59.4371 102.285 59.148 102.534 58.8545ZM104.394 65.7961C104.526 65.6378 104.651 65.478 104.777 65.3176C105 65.0328 105.208 64.7447 105.405 64.4538C105.463 64.3656 105.537 64.2824 105.594 64.1948C105.614 64.2916 105.632 64.3911 105.645 64.4898C105.665 64.6333 105.689 64.7776 105.696 64.9226C105.706 65.0763 105.701 65.2319 105.696 65.3893C105.693 65.5354 105.691 65.681 105.676 65.8263C105.658 65.9835 105.628 66.1422 105.598 66.3009C105.571 66.4478 105.547 66.5938 105.508 66.7417C105.467 66.8998 105.413 67.0593 105.359 67.2171C105.309 67.3644 105.263 67.5124 105.202 67.659C105.137 67.8196 105.058 67.9783 104.98 68.1369C104.909 68.2823 104.844 68.4281 104.764 68.5724C104.675 68.7339 104.573 68.8934 104.472 69.0524C104.384 69.1951 104.299 69.3368 104.201 69.4783C104.091 69.638 103.966 69.7943 103.844 69.9515C103.736 70.0902 103.634 70.2292 103.519 70.368C103.388 70.524 103.242 70.6764 103.099 70.83C102.976 70.9654 102.856 71.0999 102.724 71.2338C102.573 71.3858 102.41 71.5319 102.249 71.6811C102.107 71.812 101.971 71.9433 101.823 72.0704C101.652 72.2167 101.469 72.3588 101.288 72.5022C101.135 72.625 100.985 72.7487 100.824 72.8682C100.632 73.0109 100.425 73.1481 100.222 73.288C100.059 73.4005 99.9019 73.5152 99.732 73.6239C99.5212 73.7604 99.2954 73.8897 99.0753 74.0194C98.9006 74.1238 98.732 74.2304 98.5524 74.3306C98.321 74.4596 98.0776 74.5787 97.8386 74.7004C97.6572 74.7937 97.4823 74.8907 97.2955 74.978C97.0331 75.1023 96.7604 75.2162 96.4905 75.3332C96.3157 75.4098 96.144 75.4911 95.9644 75.5634C95.6605 75.6858 95.346 75.7961 95.0336 75.9077C94.8777 75.9644 94.7266 76.0253 94.568 76.079C94.0935 76.2377 93.6083 76.3845 93.1137 76.517C92.2408 76.7509 91.3598 76.92 90.4792 77.0555C90.2167 77.0961 89.9521 77.1223 89.689 77.1538C89.345 77.1958 89.0009 77.2098 88.6562 77.2352L88.3102 75.9441L87.7522 73.8616C87.8788 73.8482 88.0039 73.8221 88.13 73.8069C88.6172 73.7508 89.1046 73.6816 89.59 73.598C89.7912 73.5645 89.9911 73.5333 90.1909 73.4946C90.8582 73.3679 91.5225 73.2234 92.1837 73.0462C92.8935 72.856 93.581 72.6383 94.2548 72.4039C94.4727 72.3287 94.6787 72.2438 94.8935 72.1639C95.3448 71.9946 95.789 71.8198 96.2208 71.6334C96.4574 71.5309 96.687 71.4229 96.9171 71.3166C97.3136 71.1304 97.7013 70.9391 98.0788 70.7375C98.3004 70.6205 98.5185 70.5044 98.733 70.3818C99.1207 70.1626 99.4908 69.9332 99.8572 69.6974C100.035 69.5829 100.218 69.4743 100.389 69.3577C100.893 69.0145 101.378 68.6612 101.834 68.2936C101.852 68.2793 101.871 68.2668 101.89 68.2525C102.362 67.8694 102.802 67.4706 103.221 67.0626C103.355 66.9318 103.475 66.7973 103.603 66.6644C103.878 66.3787 104.145 66.0896 104.394 65.7961ZM106.254 72.7376C106.386 72.5794 106.511 72.4195 106.637 72.2592C106.86 71.9743 107.068 71.6863 107.265 71.3953C107.323 71.3072 107.397 71.224 107.454 71.1363C107.474 71.2332 107.492 71.3327 107.505 71.4314C107.525 71.5749 107.549 71.7192 107.556 71.8641C107.566 72.0178 107.561 72.1735 107.556 72.3309C107.553 72.4769 107.551 72.6225 107.536 72.7679C107.518 72.9251 107.488 73.0838 107.458 73.2425C107.431 73.3894 107.407 73.5354 107.368 73.6833C107.327 73.8413 107.273 74.0009 107.218 74.1587C107.169 74.3059 107.123 74.454 107.062 74.6006C106.997 74.7612 106.918 74.9198 106.84 75.0785C106.769 75.2239 106.704 75.3697 106.624 75.514C106.535 75.6754 106.433 75.8349 106.332 75.9939C106.244 76.1366 106.159 76.2784 106.061 76.4199C105.951 76.5795 105.826 76.7359 105.704 76.8931C105.596 77.0318 105.494 77.1708 105.379 77.3095C105.248 77.4656 105.102 77.6179 104.959 77.7716C104.836 77.907 104.716 78.0415 104.584 78.1753C104.433 78.3274 104.27 78.4735 104.109 78.6226C103.967 78.7536 103.831 78.8848 103.683 79.012C103.512 79.1582 103.329 79.3003 103.148 79.4437C102.995 79.5666 102.845 79.6902 102.684 79.8097C102.492 79.9524 102.285 80.0897 102.082 80.2295C101.919 80.3421 101.762 80.4567 101.592 80.5655C101.381 80.702 101.155 80.8313 100.935 80.9609C100.761 81.0654 100.592 81.172 100.412 81.2722C100.181 81.4011 99.9376 81.5203 99.6986 81.642C99.5172 81.7352 99.3423 81.8323 99.1555 81.9196C98.8931 82.0438 98.6204 82.1578 98.3504 82.2748C98.1757 82.3514 98.004 82.4327 97.8244 82.505C97.5205 82.6274 97.206 82.7377 96.8936 82.8493C96.7377 82.9059 96.5866 82.9669 96.428 83.0205C95.9535 83.1793 95.4683 83.326 94.9737 83.4586C94.1008 83.6925 93.2198 83.8616 92.3392 83.9971C92.0766 84.0377 91.8121 84.0639 91.549 84.0954C91.205 84.1373 90.8609 84.1514 90.5162 84.1768L90.1702 82.8857L89.6122 80.8032C89.7388 80.7897 89.8639 80.7637 89.99 80.7485C90.4772 80.6923 90.9646 80.6231 91.4499 80.5396C91.6512 80.5061 91.8511 80.4749 92.0509 80.4362C92.7182 80.3095 93.3825 80.1649 94.0437 79.9878C94.7535 79.7976 95.441 79.5799 96.1147 79.3454C96.3327 79.2703 96.5387 79.1853 96.7535 79.1055C97.2048 78.9362 97.649 78.7614 98.0808 78.575C98.3174 78.4725 98.547 78.3645 98.7771 78.2582C99.1736 78.072 99.5613 77.8807 99.9388 77.6791C100.16 77.5621 100.378 77.446 100.593 77.3234C100.981 77.1042 101.351 76.8748 101.717 76.639C101.895 76.5244 102.078 76.4159 102.249 76.2993C102.753 75.9561 103.238 75.6028 103.694 75.2351C103.712 75.2209 103.731 75.2083 103.75 75.1941C104.222 74.8109 104.662 74.4122 105.081 74.0042C105.215 73.8734 105.335 73.7389 105.463 73.606C105.738 73.3202 106.005 73.0312 106.254 72.7376ZM108.114 79.6792C108.246 79.5209 108.371 79.3611 108.497 79.2008C108.72 78.9159 108.928 78.6279 109.125 78.3369C109.183 78.2488 109.257 78.1656 109.314 78.0779C109.334 78.1747 109.352 78.2742 109.365 78.373C109.385 78.5164 109.409 78.6607 109.416 78.8057C109.426 78.9594 109.421 79.1151 109.416 79.2725C109.413 79.4185 109.411 79.5641 109.396 79.7095C109.378 79.8667 109.348 80.0254 109.318 80.1841C109.291 80.331 109.267 80.4769 109.228 80.6249C109.187 80.7829 109.133 80.9424 109.078 81.1002C109.029 81.2475 108.983 81.3956 108.922 81.5422C108.857 81.7028 108.778 81.8614 108.7 82.0201C108.629 82.1655 108.564 82.3113 108.484 82.4556C108.395 82.617 108.293 82.7765 108.192 82.9355C108.104 83.0782 108.019 83.2199 107.921 83.3615C107.811 83.5211 107.686 83.6775 107.564 83.8347C107.456 83.9733 107.354 84.1123 107.239 84.2511C107.108 84.4072 106.962 84.5595 106.819 84.7131C106.696 84.8486 106.576 84.9831 106.444 85.1169C106.293 85.2689 106.13 85.4151 105.969 85.5642C105.827 85.6951 105.691 85.8264 105.543 85.9535C105.372 86.0998 105.189 86.2419 105.008 86.3853C104.855 86.5081 104.705 86.6318 104.544 86.7513C104.352 86.894 104.145 87.0313 103.942 87.1711C103.779 87.2837 103.622 87.3983 103.452 87.5071C103.241 87.6435 103.015 87.7728 102.795 87.9025C102.621 88.007 102.452 88.1135 102.272 88.2137C102.041 88.3427 101.798 88.4619 101.559 88.5835C101.377 88.6768 101.202 88.7739 101.015 88.8611C100.753 88.9854 100.48 89.0994 100.21 89.2163C100.036 89.2929 99.864 89.3743 99.6844 89.4466C99.3805 89.5689 99.066 89.6792 98.7536 89.7908C98.5977 89.8475 98.4466 89.9084 98.288 89.9621C97.8135 90.1209 97.3283 90.2676 96.8337 90.4001C95.9608 90.634 95.0798 90.8031 94.1992 90.9387C93.9366 90.9792 93.6721 91.0055 93.409 91.0369C93.065 91.0789 92.7209 91.093 92.3762 91.1184L92.0302 89.8272L91.4722 87.7448C91.5988 87.7313 91.7239 87.7052 91.85 87.69C92.3372 87.6339 92.8245 87.5647 93.3099 87.4811C93.5111 87.4477 93.7111 87.4164 93.9109 87.3778C94.5782 87.251 95.2425 87.1065 95.9037 86.9294C96.6135 86.7392 97.301 86.5215 97.9747 86.287C98.1927 86.2119 98.3987 86.1269 98.6135 86.047C99.0648 85.8778 99.509 85.7029 99.9408 85.5166C100.177 85.4141 100.407 85.3061 100.637 85.1998C101.034 85.0136 101.421 84.8223 101.799 84.6207C102.02 84.5036 102.238 84.3875 102.453 84.2649C102.841 84.0457 103.211 83.8164 103.577 83.5805C103.755 83.466 103.938 83.3575 104.109 83.2408C104.613 82.8977 105.098 82.5443 105.554 82.1767C105.572 82.1624 105.591 82.1499 105.61 82.1357C106.082 81.7525 106.522 81.3537 106.941 80.9458C107.075 80.8149 107.195 80.6804 107.323 80.5475C107.598 80.2618 107.865 79.9727 108.114 79.6792ZM86.8554 84.8489C86.865 85.0026 86.8602 85.1583 86.8559 85.3157C86.8522 85.4617 86.8503 85.6073 86.8353 85.7527C86.8179 85.9099 86.7879 86.0686 86.7579 86.2273C86.7303 86.3742 86.7062 86.5201 86.6677 86.6681C86.6263 86.8261 86.5724 86.9857 86.5179 87.1435C86.4681 87.2907 86.4222 87.4388 86.3611 87.5854C86.2962 87.746 86.2178 87.9046 86.1394 88.0633C86.0687 88.2087 86.0036 88.3545 85.9232 88.4988C85.8344 88.6602 85.732 88.8197 85.6314 88.9787C85.5432 89.1214 85.4584 89.2632 85.3605 89.4047C85.2508 89.5643 85.1253 89.7207 85.0037 89.8779C84.8958 90.0165 84.7936 90.1556 84.6782 90.2943C84.5471 90.4504 84.4019 90.6027 84.2589 90.7564C84.1352 90.8918 84.015 91.0263 83.8835 91.1601C83.7327 91.3121 83.5691 91.4583 83.4082 91.6074C83.2665 91.7384 83.1306 91.8696 82.9824 91.9968C82.8114 92.143 82.6281 92.2851 82.4471 92.4285C82.294 92.5514 82.1449 92.675 81.9834 92.7945C81.791 92.9372 81.5842 93.0745 81.3817 93.2143C81.2184 93.3269 81.0613 93.4415 80.8914 93.5503C80.6806 93.6868 80.4548 93.8161 80.2347 93.9457C80.06 94.0502 79.8914 94.1568 79.7118 94.257C79.4804 94.3859 79.237 94.5051 78.9981 94.6268C78.8166 94.72 78.6417 94.8171 78.4549 94.9044C78.1925 95.0286 77.9198 95.1426 77.6499 95.2596C77.4751 95.3362 77.3034 95.4175 77.1238 95.4898C76.8199 95.6121 76.5054 95.7225 76.1931 95.8341C76.0371 95.8907 75.8861 95.9517 75.7274 96.0053C75.2534 96.1658 74.7682 96.3126 74.2736 96.4451C73.779 96.5776 73.2854 96.6931 72.7934 96.7934C72.6292 96.8262 72.4679 96.849 72.3045 96.8779C71.9765 96.9379 71.6489 96.9996 71.3263 97.0451C71.1346 97.0723 70.947 97.0872 70.7556 97.1087C70.4633 97.1424 70.1702 97.18 69.8808 97.2036C69.6767 97.2193 69.4767 97.2226 69.2734 97.2343C69.0039 97.2489 68.7331 97.2657 68.4664 97.2701C68.2608 97.2732 68.0632 97.2647 67.8619 97.2629C67.6042 97.2594 67.3441 97.2603 67.0916 97.2479C66.8901 97.2387 66.6966 97.218 66.499 97.2021C66.2537 97.1823 66.0081 97.1681 65.7679 97.1395C65.5684 97.1167 65.3787 97.082 65.1834 97.0543C64.9566 97.0202 64.7251 96.9892 64.5039 96.9481C64.312 96.9121 64.1282 96.8646 63.9405 96.8238C63.7266 96.7751 63.5119 96.7303 63.3052 96.6741C63.1249 96.6257 62.953 96.5676 62.7782 96.5121C62.5793 96.4501 62.3757 96.3912 62.1841 96.3216C62.0153 96.2608 61.8572 96.1916 61.6939 96.1237C61.5101 96.0484 61.3232 95.9757 61.1484 95.8923C60.9928 95.8187 60.8485 95.7383 60.7008 95.6589C60.5341 95.5715 60.3658 95.4845 60.2081 95.3891C60.0681 95.3039 59.9371 95.2106 59.8053 95.1213C59.6594 95.0209 59.5104 94.9232 59.374 94.8166C59.2494 94.7197 59.1361 94.6162 59.0194 94.5135C58.8928 94.4024 58.7646 94.2916 58.6498 94.1755C58.5429 94.0683 58.4486 93.9522 58.3512 93.8388C58.2459 93.7164 58.1406 93.594 58.0469 93.4665C57.9612 93.3481 57.8868 93.223 57.8106 93.0983C57.7286 92.9659 57.6466 92.8335 57.5776 92.6939C57.5131 92.5642 57.4598 92.4279 57.4053 92.2937C57.3676 92.2015 57.335 92.1079 57.3021 92.0126C57.3948 92.0603 57.4996 92.0973 57.5936 92.1428C57.9104 92.2978 58.2358 92.4431 58.5715 92.5783C58.7593 92.6544 58.9471 92.7306 59.1404 92.7997C59.5031 92.9313 59.8781 93.0466 60.2608 93.156C60.4381 93.2071 60.6095 93.2635 60.7911 93.3097C61.3579 93.4536 61.9383 93.5789 62.5387 93.6747C62.5602 93.6782 62.5806 93.6783 62.6021 93.6819C63.1845 93.7732 63.7822 93.8381 64.3909 93.8815C64.5977 93.8967 64.8104 93.8993 65.0215 93.9097C65.4546 93.9294 65.8915 93.9425 66.3373 93.9402C66.5839 93.9374 66.8309 93.9289 67.0813 93.9195C67.5086 93.9036 67.9404 93.8771 68.3769 93.8401C68.6298 93.8189 68.8822 93.7959 69.1383 93.7663C69.6059 93.7136 70.0776 93.6411 70.553 93.5621C70.7773 93.5243 70.9999 93.4944 71.2245 93.451C71.9296 93.3197 72.6338 93.1645 73.3436 92.9743C74.0534 92.7841 74.7409 92.5664 75.4146 92.332C75.6326 92.2568 75.8386 92.1719 76.0534 92.092C76.5047 91.9227 76.9489 91.7479 77.3807 91.5615C77.6173 91.459 77.8469 91.351 78.077 91.2447C78.4735 91.0585 78.8612 90.8672 79.2387 90.6656C79.4603 90.5486 79.6784 90.4325 79.8929 90.3099C80.2806 90.0907 80.6507 89.8613 81.0171 89.6255C81.1947 89.511 81.3777 89.4024 81.5492 89.2858C82.0524 88.9426 82.5381 88.5893 82.9938 88.2217C83.0123 88.2074 83.0313 88.1949 83.0498 88.1806C83.5219 87.7975 83.9619 87.3987 84.3808 86.9907C84.515 86.8599 84.6352 86.7254 84.7633 86.5925C85.0382 86.3068 85.3053 86.0194 85.554 85.7259C85.6865 85.5676 85.811 85.4078 85.9373 85.2475C86.1605 84.9626 86.3679 84.6745 86.5652 84.3836C86.6234 84.2955 86.6978 84.2123 86.7543 84.1246C86.7747 84.2214 86.7921 84.3209 86.8055 84.4196C86.8244 84.5597 86.846 84.7027 86.8554 84.8489ZM50.9003 87.696C50.2269 87.9527 49.5484 88.1903 48.8612 88.3744C48.0421 88.5939 47.2171 88.7498 46.392 88.8705C46.1273 88.9098 45.8609 88.9291 45.5973 88.9588C45.0335 89.0206 44.4721 89.0632 43.9093 89.0801C43.6031 89.0896 43.2972 89.0934 42.9907 89.0881C42.4494 89.0806 41.9101 89.0466 41.3729 88.999C41.087 88.9733 40.7987 88.9594 40.5135 88.9223C39.7448 88.8233 38.9829 88.687 38.2307 88.5036C37.9996 88.4464 37.7756 88.367 37.5466 88.3037C36.9896 88.1479 36.4346 87.9786 35.89 87.7785C35.6154 87.6773 35.3473 87.565 35.0774 87.4532C34.5393 87.2291 34.0092 86.9861 33.4874 86.7186C33.2892 86.6173 33.0884 86.5204 32.8939 86.4126C32.4505 86.1668 32.026 85.8807 31.5982 85.6029L35.3814 78.2726C35.8938 77.2835 36.7764 76.6136 37.6659 76.5389C37.7495 76.5314 37.8339 76.5274 37.9194 76.5268C38.2363 76.6614 38.9388 77.0274 39.4194 77.2799C40.5991 77.8994 41.3648 78.2857 41.9548 78.4885C43.4412 80.1139 45.0009 80.4995 46.0873 80.5208C47.4038 80.5475 48.7472 80.0704 50.1015 79.1272L51.8653 85.7095L52.241 87.1117C52.0619 87.1932 51.8874 87.2846 51.707 87.3608C51.4405 87.4769 51.17 87.5921 50.9003 87.696ZM22.0422 71.1947C22.0133 71.0313 21.9901 70.8683 21.9652 70.7057C21.8807 70.1406 21.8172 69.5773 21.7781 69.0149C21.7718 68.9292 21.7604 68.8448 21.7564 68.7603C21.7202 68.1116 21.7158 67.4636 21.7373 66.8218C21.742 66.6866 21.7541 66.5513 21.7605 66.4156C21.7878 65.9136 21.833 65.416 21.8953 64.9194C21.9183 64.7347 21.9396 64.5504 21.9671 64.3682C22.0471 63.8409 22.1473 63.3193 22.2636 62.8026C22.3258 62.5349 22.3981 62.27 22.4698 62.0034C22.5482 61.7127 22.6331 61.4258 22.7238 61.1393C22.7258 61.1331 22.7292 61.1248 22.7313 61.1187L29.2101 65.2714C30.8679 66.3356 32.7721 66.6326 34.4769 66.1852C35.104 66.0059 35.6934 65.7345 36.2256 65.3743C36.8788 64.9315 37.2088 64.233 37.5576 63.4941C38.1482 62.2552 38.6429 61.3526 39.6859 61.0731C41.4091 60.6114 43.2389 60.8112 44.8383 61.6363L47.2071 63.0494L47.418 60.3517C47.6959 59.7229 49.4702 58.5147 50.6314 58.0585C51.7933 59.6945 54.1577 63.75 53.1643 68.5248C53.0654 68.635 52.9644 68.7439 52.8695 68.8549C52.6951 69.0579 52.5382 69.2636 52.3761 69.4707C52.2349 69.6518 52.0893 69.8303 51.9582 70.0142C51.8083 70.2255 51.6764 70.4412 51.5401 70.6545C51.4225 70.8404 51.2983 71.0224 51.1925 71.2107C51.0672 71.4303 50.9633 71.6534 50.8538 71.8762C50.7606 72.063 50.66 72.2499 50.5787 72.4391C50.4796 72.6665 50.4038 72.8971 50.3222 73.1272C50.2552 73.3144 50.1786 73.5005 50.1229 73.6884C50.0516 73.9289 50.0046 74.1702 49.9516 74.4095C49.9484 74.4252 49.9447 74.4392 49.9414 74.455C48.5179 76.0491 47.1446 76.9491 46.1597 76.9247C45.9334 76.9202 45.2512 76.9077 44.351 75.7558L43.7035 74.9286L42.9849 75.0375C42.5453 74.8614 41.6514 74.3922 41.0869 74.0971C39.5792 73.3088 38.9423 72.9866 38.3141 72.9466C37.9886 72.9259 37.6662 72.9305 37.3486 72.9598C35.2024 73.148 33.2748 74.5201 32.1906 76.6241L28.699 83.3907C28.6942 83.3864 28.6876 83.3826 28.6827 83.3783C28.4778 83.1896 28.2753 82.9964 28.0755 82.7989C27.853 82.5795 27.634 82.3592 27.4228 82.1331C27.0743 81.7559 26.7384 81.3697 26.4182 80.9663C26.2985 80.818 26.1865 80.6639 26.0715 80.5124C25.7742 80.1178 25.4872 79.7129 25.2156 79.2965C25.14 79.181 25.061 79.0664 24.9867 78.9487C24.6471 78.4035 24.3279 77.8437 24.0348 77.2638C23.9956 77.1868 23.9629 77.1063 23.9254 77.0289C23.6786 76.5241 23.4514 76.0028 23.2425 75.4729C23.1828 75.3196 23.1214 75.1668 23.0648 75.0108C22.8392 74.398 22.6291 73.7735 22.4565 73.1297C22.284 72.4859 22.1538 71.84 22.0422 71.1947ZM56.715 85.6358C56.9028 85.7119 57.0906 85.7881 57.2839 85.8572C57.6465 85.9888 58.0215 86.1041 58.4043 86.2135C58.5816 86.2646 58.753 86.321 58.9346 86.3672C59.5014 86.5111 60.0818 86.6364 60.6822 86.7322C60.7036 86.7357 60.7241 86.7358 60.7455 86.7394C61.328 86.8307 61.9257 86.8956 62.5344 86.939C62.7412 86.9542 62.9539 86.9568 63.165 86.9672C63.5981 86.9869 64.035 87 64.4808 86.9977C64.7274 86.9949 64.9744 86.9864 65.2248 86.977C65.6521 86.961 66.0839 86.9346 66.5204 86.8976C66.7733 86.8764 67.0256 86.8534 67.2818 86.8238C67.7494 86.7711 68.2211 86.6986 68.6965 86.6196C68.9207 86.5818 69.1434 86.5519 69.3679 86.5085C70.0696 86.3782 70.7738 86.2229 71.4836 86.0327C72.1934 85.8426 72.8809 85.6249 73.5546 85.3904C73.7726 85.3153 73.9786 85.2303 74.1934 85.1504C74.6447 84.9811 75.0889 84.8063 75.5207 84.6199C75.7573 84.5175 75.9869 84.4094 76.217 84.3032C76.6135 84.1169 77.0012 83.9256 77.3787 83.7241C77.6003 83.607 77.8184 83.4909 78.0329 83.3683C78.4206 83.1491 78.7907 82.9198 79.1571 82.6839C79.3348 82.5694 79.5177 82.4608 79.6892 82.3442C80.1924 82.0011 80.6781 81.6477 81.1339 81.2801C81.1524 81.2658 81.1713 81.2533 81.1898 81.2391C81.6619 80.8559 82.1019 80.4571 82.5208 80.0491C82.655 79.9183 82.7752 79.7838 82.9033 79.6509C83.1782 79.3652 83.4454 79.0779 83.6941 78.7843C83.8265 78.6261 83.9511 78.4662 84.0774 78.3059C84.3005 78.021 84.5079 77.733 84.7052 77.442C84.7634 77.3539 84.8378 77.2707 84.8943 77.183C84.9147 77.2799 84.9321 77.3794 84.9455 77.4781C84.9653 77.6216 84.9891 77.7659 84.9964 77.9108C85.0059 78.0645 85.0011 78.2202 84.9968 78.3776C84.9932 78.5236 84.9912 78.6692 84.9763 78.8146C84.9589 78.9718 84.9288 79.1305 84.8988 79.2892C84.8712 79.4361 84.8471 79.582 84.8086 79.73C84.7673 79.888 84.7133 80.0476 84.6589 80.2054C84.609 80.3526 84.5632 80.5007 84.502 80.6473C84.4371 80.8079 84.3588 80.9665 84.2804 81.1252C84.2096 81.2706 84.1445 81.4164 84.0641 81.5607C83.9753 81.7221 83.873 81.8816 83.7724 82.0406C83.6841 82.1833 83.5993 82.3251 83.5015 82.4666C83.3917 82.6262 83.2662 82.7826 83.1447 82.9398C83.0368 83.0785 82.9345 83.2174 82.8192 83.3562C82.688 83.5123 82.5428 83.6646 82.3998 83.8183C82.2762 83.9537 82.156 84.0882 82.0244 84.222C81.8736 84.374 81.71 84.5202 81.5491 84.6693C81.4075 84.8003 81.2715 84.9315 81.1233 85.0587C80.9523 85.2049 80.7691 85.347 80.588 85.4904C80.4349 85.6133 80.2858 85.7369 80.1244 85.8565C79.932 85.9991 79.7251 86.1364 79.5226 86.2762C79.3593 86.3888 79.2022 86.5034 79.0323 86.6122C78.8215 86.7487 78.5958 86.878 78.3757 87.0076C78.2009 87.1121 78.0323 87.2187 77.8527 87.3189C77.6213 87.4478 77.378 87.567 77.139 87.6887C76.9575 87.7819 76.7827 87.879 76.5959 87.9663C76.3334 88.0905 76.0608 88.2045 75.7908 88.3215C75.616 88.3981 75.4444 88.4794 75.2647 88.5517C74.9609 88.6741 74.6463 88.7844 74.334 88.896C74.1781 88.9526 74.027 89.0136 73.8684 89.0672C73.3934 89.2243 72.9082 89.371 72.4136 89.5035C71.919 89.6361 71.4255 89.7516 70.9334 89.8518C70.7692 89.8846 70.6079 89.9074 70.4445 89.9363C70.1165 89.9963 69.7889 90.058 69.4663 90.1035C69.2746 90.1307 69.087 90.1456 68.8956 90.1672C68.6033 90.2008 68.3102 90.2385 68.0208 90.2621C67.8167 90.2777 67.6167 90.2811 67.4134 90.2928C67.1439 90.3073 66.8731 90.3241 66.6065 90.3286C66.4008 90.3316 66.2032 90.3232 66.0019 90.3213C65.7443 90.3178 65.4841 90.3187 65.2316 90.3064C65.0301 90.2971 64.8367 90.2764 64.639 90.2606C64.3937 90.2407 64.1481 90.2265 63.9079 90.1979C63.7084 90.1751 63.5187 90.1404 63.3234 90.1127C63.0967 90.0786 62.8651 90.0477 62.6439 90.0065C62.452 89.9705 62.2682 89.923 62.0805 89.8822C61.8666 89.8335 61.6519 89.7887 61.4452 89.7325C61.2649 89.6841 61.0931 89.626 60.9182 89.5705C60.7193 89.5085 60.5157 89.4496 60.3241 89.3801C60.1553 89.3193 59.9972 89.25 59.834 89.1822C59.6501 89.1068 59.4632 89.0341 59.2884 88.9508C59.1329 88.8771 58.9886 88.7968 58.8408 88.7173C58.6741 88.6299 58.5058 88.5429 58.3481 88.4475C58.2081 88.3623 58.0771 88.2691 57.9453 88.1798C57.7994 88.0794 57.6504 87.9816 57.514 87.875C57.3895 87.7782 57.2761 87.6746 57.1594 87.572C57.0329 87.4608 56.9046 87.3501 56.7898 87.2339C56.683 87.1268 56.5886 87.0107 56.4913 86.8973C56.3859 86.7748 56.2806 86.6524 56.1869 86.525C56.1012 86.4066 56.0268 86.2814 55.9506 86.1568C55.8686 86.0244 55.7866 85.8919 55.7176 85.7523C55.6531 85.6227 55.5998 85.4863 55.5453 85.3521C55.5076 85.2599 55.475 85.1663 55.4421 85.071C55.5348 85.1187 55.6396 85.1557 55.7336 85.2012C56.0539 85.3553 56.3793 85.5006 56.715 85.6358ZM62.7303 62.4444C62.4162 62.5564 62.1092 62.674 61.8044 62.7929C61.5321 62.9012 61.2598 63.0095 60.9928 63.1238C60.696 63.2517 60.4063 63.3852 60.1192 63.5216C59.862 63.6445 59.6043 63.7656 59.3545 63.8957C59.075 64.0395 58.8043 64.1883 58.5362 64.3401C58.2953 64.4753 58.0544 64.6105 57.8223 64.7509C57.5612 64.9082 57.3095 65.0724 57.06 65.2378C57.0332 65.2562 57.0043 65.2732 56.9759 65.292C56.6338 59.3089 52.893 55.094 52.6972 54.8768L52.1794 54.305L51.4081 54.2866C49.8007 54.2505 46.5414 55.8101 44.8818 57.7726C42.9076 57.1242 40.7846 57.0588 38.7559 57.6024C36.0261 58.3338 34.9083 60.6942 34.3108 61.9628C34.2132 62.1676 34.1348 62.3541 34.0497 62.5015C33.88 62.5972 33.6909 62.6758 33.4918 62.731C32.7403 62.9044 31.9394 62.7545 31.1508 62.2478L24.1398 57.7541C24.3714 57.2996 24.5943 56.84 24.8559 56.4072C24.9703 56.2166 25.0958 56.0323 25.2168 55.8455C25.5332 55.3534 25.8726 54.8774 26.2265 54.4143C26.4043 54.1825 26.5804 53.9512 26.7675 53.7262C27.1392 53.2807 27.5334 52.857 27.9396 52.4431C28.1063 52.2738 28.2601 52.0913 28.4321 51.928C28.9923 51.3947 29.584 50.8958 30.1997 50.4239C30.4264 50.2497 30.6692 50.0935 30.9056 49.9279C31.3471 49.618 31.7971 49.3189 32.2622 49.0417C32.5254 48.8856 32.7922 48.736 33.0617 48.5894C33.5575 48.3226 34.0651 48.0788 34.5842 47.8504C34.8286 47.7421 35.0677 47.6279 35.3166 47.5295C36.0898 47.2219 36.8822 46.9445 37.7013 46.725C38.5204 46.5055 39.3454 46.3496 40.1705 46.2289C40.4352 46.1896 40.7016 46.1703 40.9652 46.1406C41.529 46.0788 42.0905 46.0363 42.6532 46.0194C42.9594 46.0099 43.2653 46.006 43.5718 46.0113C44.1132 46.0188 44.6524 46.0529 45.1897 46.1005C45.4755 46.1262 45.7638 46.1401 46.049 46.1771C46.8177 46.2762 47.5796 46.4124 48.3319 46.5959C48.5629 46.653 48.787 46.7325 49.0159 46.7957C49.5729 46.9515 50.1279 47.1209 50.6726 47.3209C50.9471 47.4222 51.2152 47.5345 51.4851 47.6463C52.0232 47.8704 52.5533 48.1134 53.0751 48.3809C53.2734 48.4821 53.4741 48.579 53.6686 48.6868C55.1652 49.5172 56.5832 50.5266 57.8815 51.7206C60.7871 54.3942 63.01 57.8794 64.106 61.9698C64.1069 61.9732 64.1083 61.9784 64.1092 61.9819C63.9301 62.0355 63.7617 62.1011 63.5835 62.1581C63.2957 62.2501 63.0123 62.3446 62.7303 62.4444ZM30.4783 89.184C30.5073 89.2022 30.5402 89.2139 30.5688 89.2304C31.3408 89.682 32.1327 90.0966 32.9495 90.4655C33.2376 90.5966 33.5343 90.6975 33.8265 90.8164C34.3588 91.0327 34.8919 91.2452 35.4388 91.426C35.8183 91.5512 36.2014 91.655 36.5871 91.7618C37.0697 91.8967 37.5551 92.0214 38.048 92.1256C38.4464 92.2104 38.8447 92.2878 39.2472 92.3529C39.7493 92.436 40.2546 92.4959 40.7632 92.5475C41.1552 92.5875 41.5464 92.6315 41.9407 92.6523C42.4978 92.6835 43.0599 92.678 43.6232 92.6702C43.9718 92.6661 44.3176 92.6795 44.6659 92.6605C45.5454 92.6109 46.4268 92.5198 47.3108 92.3759C47.6029 92.3274 47.8922 92.248 48.1832 92.1886C48.7183 92.0825 49.255 91.9889 49.7912 91.8452C49.8745 91.8229 49.9576 91.7858 50.0421 91.7612C50.5214 91.6272 50.9926 91.4489 51.4675 91.2845C51.9098 91.1306 52.3533 90.9876 52.7934 90.8046C52.9258 90.7505 53.0634 90.7155 53.1954 90.6596L53.7287 92.6501L55.5887 99.5917L56.9837 104.798L46.5384 107.597C44.633 102.179 39.0203 98.9404 33.3779 99.9985L30.48 89.1835L30.4783 89.184ZM72.3758 9.53421L79.386 35.697C78.8122 35.9084 78.2516 36.1349 77.7083 36.3772L70.6404 9.9992L72.3758 9.53421ZM67.1696 10.9292L74.4519 38.1072C73.9029 38.4533 73.3799 38.8129 72.8816 39.1882L65.4342 11.3942L67.1696 10.9292ZM61.9634 12.3242L69.8958 41.9282C69.3768 42.5249 68.9304 43.1429 68.5301 43.7729L60.228 12.7892L61.9634 12.3242ZM29.8053 121.38L4.69546 27.6691L56.7572 13.7192L66.9872 51.8978L68.8471 58.8394L69.4051 60.9218C69.4034 60.9223 69.4017 60.9228 69.3999 60.9232C68.8065 60.9855 68.2101 61.0709 67.6051 61.1735C67.5948 61.1279 67.5888 61.0849 67.5767 61.0398C66.3566 56.4861 63.9354 52.5798 60.7701 49.5201L55.6798 30.5227L53.8312 31.204C53.6025 31.2876 53.3724 31.366 53.1329 31.4302C48.8274 32.5838 44.3848 30.0189 43.2312 25.7134C43.1665 25.4722 43.1202 25.2298 43.076 24.9887L42.7385 23.0555L21.5042 28.7452L22.1784 30.5882C22.2608 30.8191 22.3418 31.0522 22.4065 31.2934C23.5601 35.5989 20.9952 40.0415 16.6897 41.1951C16.4502 41.2593 16.2117 41.3065 15.9719 41.3484L14.0303 41.6826L19.1207 60.68C19.1083 60.7242 19.0947 60.7706 19.0807 60.8153C18.954 61.2659 18.833 61.7168 18.7309 62.1757C18.5996 62.7614 18.4835 63.3487 18.3963 63.9393C18.3633 64.1565 18.3478 64.3764 18.321 64.5956C18.2528 65.1533 18.1995 65.7107 18.171 66.2708C18.1597 66.5063 18.1558 66.7417 18.1502 66.9775C18.1376 67.5277 18.1416 68.0772 18.1666 68.6285C18.1764 68.8733 18.1879 69.1176 18.2068 69.3617C18.2486 69.9271 18.3138 70.49 18.3944 71.0543C18.4269 71.2799 18.4494 71.5027 18.4877 71.7287C18.6184 72.5083 18.7784 73.2857 18.9858 74.0597C19.1932 74.8337 19.4433 75.5869 19.7182 76.3279C19.798 76.5427 19.8899 76.7469 19.9746 76.9586C20.187 77.4875 20.4119 78.0076 20.6584 78.5181C20.7659 78.7386 20.878 78.9559 20.9902 79.1732C21.2442 79.6632 21.5155 80.141 21.8014 80.6112C21.9242 80.8127 22.0453 81.0146 22.1728 81.2129C22.4776 81.6837 22.8042 82.1393 23.1404 82.5886C23.2732 82.7651 23.3966 82.9478 23.5337 83.1194C23.9046 83.5873 24.3005 84.0373 24.7053 84.4794C25.0215 84.8262 25.3534 85.1558 25.6884 85.4826C25.7251 85.5156 25.7596 85.5473 25.7924 85.5794L30.8828 104.577L32.7313 103.895C32.96 103.812 33.1901 103.733 33.4296 103.669C37.7351 102.516 42.1777 105.081 43.3313 109.386C43.396 109.627 43.4423 109.87 43.4865 110.111L43.8241 112.044L58.0994 108.219C58.1697 108.356 58.2465 108.49 58.3232 108.624C58.4153 108.787 58.5087 108.948 58.612 109.105C58.6965 109.233 58.7888 109.355 58.8798 109.479C59.7886 110.733 61.0101 111.793 62.4949 112.621L29.8053 121.38ZM68.6124 110.893C68.4179 110.861 68.226 110.825 68.0375 110.788C67.7682 110.734 67.5001 110.677 67.2405 110.611C67.0668 110.567 66.9025 110.516 66.7347 110.466C66.2626 110.328 65.8128 110.17 65.3858 109.992C65.2414 109.932 65.0875 109.879 64.9492 109.813C64.7537 109.723 64.5742 109.622 64.3895 109.522C64.2158 109.43 64.0416 109.335 63.8791 109.235C63.721 109.138 63.5707 109.035 63.4221 108.932C63.2479 108.809 63.0819 108.682 62.9236 108.55C62.8065 108.453 62.6872 108.355 62.5783 108.254C62.3892 108.076 62.2165 107.889 62.0556 107.698C61.996 107.629 61.9287 107.565 61.8739 107.492C61.6658 107.222 61.4841 106.94 61.331 106.646C61.2923 106.571 61.2665 106.489 61.2312 106.413C61.1547 106.245 61.0912 106.071 61.0334 105.896C61.1239 105.943 61.2265 105.979 61.3188 106.025C61.6356 106.18 61.961 106.325 62.2967 106.46C62.4845 106.536 62.6723 106.612 62.8656 106.681C63.2282 106.813 63.6032 106.928 63.986 107.038C64.1633 107.089 64.3347 107.145 64.5163 107.191C65.0831 107.335 65.6635 107.461 66.2639 107.556C66.2853 107.56 66.3058 107.56 66.3272 107.564C66.9097 107.655 67.5074 107.72 68.1161 107.763C68.3229 107.778 68.5356 107.781 68.7467 107.791C69.1798 107.811 69.6167 107.824 70.0625 107.822C70.3091 107.819 70.5561 107.811 70.8065 107.801C71.2338 107.785 71.6656 107.759 72.1021 107.722C72.355 107.701 72.6073 107.678 72.8635 107.648C73.3311 107.595 73.8028 107.523 74.2782 107.444C74.5024 107.406 74.7251 107.376 74.9496 107.333C75.6495 107.203 76.3538 107.048 77.0636 106.857C77.7734 106.667 78.4609 106.45 79.1346 106.215C79.3526 106.14 79.5586 106.055 79.7734 105.975C80.2246 105.806 80.6688 105.631 81.1006 105.445C81.3373 105.342 81.5669 105.234 81.7969 105.128C82.1934 104.942 82.5811 104.75 82.9586 104.549C83.1802 104.432 83.3984 104.316 83.6129 104.193C84.0006 103.974 84.3706 103.744 84.7371 103.509C84.9147 103.394 85.0977 103.286 85.2692 103.169C85.7724 102.826 86.258 102.472 86.7138 102.105C86.7323 102.091 86.7513 102.078 86.7698 102.064C87.2418 101.681 87.6818 101.282 88.1008 100.874C88.235 100.743 88.3552 100.609 88.4832 100.476C88.7582 100.19 89.0253 99.9026 89.274 99.609C89.4065 99.4508 89.531 99.2909 89.6573 99.1306C89.8804 98.8458 90.0878 98.5577 90.2852 98.2667C90.3421 98.1808 90.4135 98.1003 90.4683 98.0131C90.504 98.1951 90.5403 98.3788 90.5561 98.5698C90.5613 98.6168 90.5699 98.6629 90.5728 98.7086C90.5884 99.0374 90.5758 99.3792 90.5313 99.7408L90.5302 99.7504C90.3709 101.03 89.7856 102.351 88.8257 103.635C88.798 103.67 88.7703 103.706 88.7425 103.741C88.4517 104.12 88.1264 104.496 87.77 104.867C87.6989 104.941 87.6357 105.018 87.5602 105.09L87.5294 105.121C85.2651 107.361 81.9051 109.28 77.9936 110.328C74.6842 111.215 71.4093 111.356 68.6124 110.893ZM100.554 104.283C97.725 105.041 94.8732 105.283 92.2738 105.008C92.9612 103.95 93.4835 102.852 93.8021 101.736C93.8352 101.735 93.8669 101.728 93.9 101.727C94.7473 101.682 95.5986 101.59 96.4498 101.462C96.6375 101.434 96.8239 101.401 97.0108 101.369C97.8825 101.221 98.7542 101.045 99.6237 100.812C100.333 100.622 101.021 100.405 101.695 100.17C101.913 100.095 102.119 100.01 102.333 99.9302C102.785 99.7609 103.229 99.5861 103.661 99.3997C103.897 99.2972 104.127 99.1892 104.357 99.0829C104.754 98.8967 105.141 98.7054 105.519 98.5038C105.74 98.3868 105.958 98.2707 106.173 98.1481C106.561 97.9289 106.931 97.6995 107.297 97.4637C107.475 97.3491 107.658 97.2406 107.829 97.124C108.333 96.7808 108.818 96.4275 109.274 96.0598C109.292 96.0456 109.311 96.0331 109.33 96.0188C109.802 95.6356 110.242 95.2369 110.661 94.8289C110.795 94.6981 110.915 94.5636 111.043 94.4307C111.318 94.145 111.585 93.8576 111.834 93.5641C111.967 93.4058 112.091 93.246 112.217 93.0856C112.441 92.8008 112.648 92.5127 112.845 92.2218C112.909 92.1266 112.987 92.0368 113.048 91.9425C114.01 96.5894 108.389 102.184 100.554 104.283Z" fill="grey"/>
</svg>
