<svg 
 xmlns="http://www.w3.org/2000/svg"
 xmlns:xlink="http://www.w3.org/1999/xlink"
 width="8px" height="6px">
<path fill-rule="evenodd"  fill="rgb(255, 255, 255)"
 d="M7.729,1.046 L3.726,5.049 C3.721,5.054 3.714,5.056 3.709,5.061 C3.702,5.067 3.705,5.077 3.697,5.083 C3.686,5.091 3.669,5.088 3.657,5.095 C3.566,5.159 3.462,5.195 3.355,5.191 C3.187,5.206 3.017,5.181 2.888,5.083 L1.056,2.931 C0.833,2.761 0.833,2.486 1.056,2.316 C1.280,2.147 1.642,2.147 1.866,2.316 L3.334,4.041 L7.026,0.348 C7.220,0.155 7.535,0.155 7.729,0.348 C7.923,0.541 7.923,0.853 7.729,1.046 Z"/>
</svg>