<?xml version="1.0" encoding="iso-8859-1"?>
<!-- Generator: Adobe Illustrator 19.0.0, SVG Export Plug-In . SVG Version: 6.00 Build 0)  -->
<svg version="1.1" id="Capa_1" xmlns="http://www.w3.org/2000/svg" xmlns:xlink="http://www.w3.org/1999/xlink" x="0px" y="0px"
	 viewBox="0 0 480 480" style="enable-background:new 0 0 480 480;" xml:space="preserve">
<g>
	<g>
		<path d="M464,464v-24v-64c0-4.418-3.582-8-8-8h-8v-24c0-4.418-3.582-8-8-8h-13.84c26.593-23.284,29.275-63.718,5.991-90.311
			c-23.284-26.593-63.718-29.276-90.311-5.991c-26.593,23.284-29.276,63.718-5.991,90.311c1.862,2.127,3.864,4.129,5.991,5.991H328
			c-4.418,0-8,3.582-8,8v32c0,4.418,3.582,8,8,8h8v80h-32v-16h8c4.418,0,8-3.582,8-8v-32c0-4.418-3.582-8-8-8h-8v-56
			c0-4.418-3.582-8-8-8h-8v-16h8c4.418,0,8-3.582,8-8v-32c0-4.418-3.582-8-8-8h-8v-16h8c4.418,0,8-3.582,8-8v-32
			c0-4.418-3.582-8-8-8h-48v-32h8c48.601,0,88-39.399,88-88c0-4.418-3.582-8-8-8h-16c-28.695,0.045-55.566,14.077-72,37.6V72h8
			c35.346,0,64-28.654,64-64c0-4.418-3.582-8-8-8h-16c-23.304,0.021-44.756,12.708-56,33.12C228.756,12.708,207.305,0.021,184,0h-16
			c-4.418,0-8,3.582-8,8c0,35.346,28.654,64,64,64h8v45.6c-16.434-23.523-43.305-37.555-72-37.6h-16c-4.418,0-8,3.582-8,8
			c0,48.601,39.399,88,88,88h8v32h-48c-4.418,0-8,3.582-8,8v24h-8c-4.418,0-8,3.582-8,8v32c0,4.418,3.582,8,8,8h8v16h-8
			c-4.418,0-8,3.582-8,8v32c0,4.418,3.582,8,8,8h8v56c0,4.418,3.582,8,8,8h8v16h-8c-4.418,0-8,3.582-8,8v24h-16v-24
			c0-4.418-3.582-8-8-8h-8v-16h8c4.418,0,8-3.582,8-8v-32c0-4.418-3.582-8-8-8h-8v-56c0-4.418-3.582-8-8-8H24c-4.418,0-8,3.582-8,8
			v64c0,4.418,3.582,8,8,8h8v16h-8c-4.418,0-8,3.582-8,8v32c0,4.418,3.582,8,8,8h8v16H0v16h480v-16H464z M320,96h7.52
			c-4.073,36.429-34.864,63.983-71.52,64h-7.52C252.553,123.571,283.344,96.017,320,96z M296,16h7.36
			c-3.906,23.107-23.926,40.015-47.36,40h-7.36C252.546,32.893,272.566,15.985,296,16z M224,56
			c-23.434,0.015-43.454-16.893-47.36-40H184c23.434-0.015,43.454,16.893,47.36,40H224z M224,160
			c-36.656-0.017-67.447-27.571-71.52-64H160c36.656,0.017,67.447,27.571,71.52,64H224z M144,384v16H48v-16H144z M32,320h96v16H32
			V320z M32,352h96v16H32V352z M32,416h96v16H32V416z M144,464H48v-16h96V464z M304,416v16h-96v-16H304z M288,384v16h-96v-16H288z
			 M192,368v-16h88h8v16H192z M288,304h-96v-16h96V304z M192,224h96v16h-96V224z M176,256h96v16h-96V256z M176,336v-16h96v16H176z
			 M288,464h-96v-16h96V464z M336,288c0-26.51,21.49-48,48-48c26.51,0,48,21.49,48,48c0,26.51-21.49,48-48,48
			C357.49,336,336,314.51,336,288z M336,352h96v16h-96V352z M448,464h-96v-16h96V464z M448,432h-96v-16h96V432z M448,400h-96v-16h88
			h8V400z"/>
	</g>
</g>
<g>
	<g>
		<path d="M400,288c0,8.837-7.163,16-16,16v16c17.673,0,32-14.327,32-32H400z"/>
	</g>
</g>
<g>
	<g>
		<path d="M352,288h16c0-8.837,7.163-16,16-16v-16C366.327,256,352,270.327,352,288z"/>
	</g>
</g>
<g>
	<g>
		<path d="M433.28,48c-12.932-2.218-23.062-12.348-25.28-25.28c0-4.418-3.582-8-8-8s-8,3.582-8,8
			c-2.218,12.932-12.348,23.062-25.28,25.28c-4.418,0-8,3.582-8,8s3.582,8,8,8c12.932,2.218,23.062,12.348,25.28,25.28
			c0,4.418,3.582,8,8,8s8-3.582,8-8c2.218-12.932,12.348-23.062,25.28-25.28c4.418,0,8-3.582,8-8S437.698,48,433.28,48z M400,67.44
			c-3.104-4.463-6.977-8.336-11.44-11.44c4.463-3.104,8.336-6.977,11.44-11.44c3.104,4.463,6.977,8.336,11.44,11.44
			C406.977,59.104,403.104,62.977,400,67.44z"/>
	</g>
</g>
<g>
	<g>
		<path d="M113.28,224c-12.932-2.218-23.062-12.348-25.28-25.28c0-4.418-3.582-8-8-8s-8,3.582-8,8
			c-2.218,12.932-12.348,23.062-25.28,25.28c-4.418,0-8,3.582-8,8s3.582,8,8,8c12.932,2.218,23.062,12.348,25.28,25.28
			c0,4.418,3.582,8,8,8s8-3.582,8-8c2.218-12.932,12.348-23.062,25.28-25.28c4.418,0,8-3.582,8-8S117.698,224,113.28,224z
			 M80,243.44c-3.104-4.463-6.977-8.336-11.44-11.44c4.463-3.104,8.336-6.977,11.44-11.44c3.104,4.463,6.977,8.336,11.44,11.44
			C86.977,235.104,83.104,238.977,80,243.44z"/>
	</g>
</g>
<g>
	<g>
		<polygon points="456,192 456,168 440,168 440,192 416,192 416,208 440,208 440,232 456,232 456,208 480,208 480,192 		"/>
	</g>
</g>
<g>
	<g>
		<path d="M128,144v-8h-16v8c0,26.51,21.49,48,48,48v-16C142.327,176,128,161.673,128,144z"/>
	</g>
</g>
<g>
</g>
<g>
</g>
<g>
</g>
<g>
</g>
<g>
</g>
<g>
</g>
<g>
</g>
<g>
</g>
<g>
</g>
<g>
</g>
<g>
</g>
<g>
</g>
<g>
</g>
<g>
</g>
<g>
</g>
</svg>
