<svg width="316" height="292" viewBox="0 0 316 292" fill="none" xmlns="http://www.w3.org/2000/svg">
<path d="M255.623 63.9295L254.486 59.6864L270.455 55.4075L259.889 15.9735L246.482 19.5658L234.218 5.73159L21.9952 62.5964L18.291 80.7094L4.88435 84.3017L15.4508 123.736L31.42 119.457L70.0743 263.717L60.29 266.339L55.7628 274.183L60.3914 291.457L139.987 270.13L137.98 262.642L65.8705 281.964L64.0791 275.278L65.3962 272.996L301.83 209.644L304.112 210.962L305.903 217.647L145.965 260.503L147.971 267.99L315.396 223.129L310.767 205.854L302.925 201.325L293.141 203.947L257.763 71.9164L250.278 73.9221L252.485 82.1582L234.716 86.9193L230.189 94.7631L254.561 185.718L262.403 190.247L280.172 185.486L285.655 205.952L141.435 244.596L108.265 120.802L52.8724 135.644L86.0428 259.438L77.5594 261.711L38.9052 117.452L247.001 61.6926L248.138 65.9357L255.623 63.9295ZM238.505 95.8588L239.822 93.5767L254.491 89.6462L255.695 94.1389L239.227 98.5516L238.505 95.8588ZM241.233 106.038L257.701 101.626L260.113 110.629L247.257 128.518L241.233 106.038ZM249.849 138.193L262.705 120.304L266.533 134.589L253.676 152.479L249.849 138.193ZM256.269 162.153L269.125 144.264L274.954 166.019L258.486 170.432L256.269 162.153ZM263.496 181.929L261.214 180.611L260.493 177.919L276.961 173.506L278.165 177.999L263.496 181.929ZM62.3644 141.126L102.786 130.295L115.76 178.714L75.3383 189.545L62.3644 141.126ZM77.3447 197.033L117.766 186.202L120.04 194.688L79.6184 205.519L77.3447 197.033ZM81.6247 213.006L122.046 202.175L133.95 246.601L93.5286 257.432L81.6247 213.006ZM28.628 68.8446L231.598 14.459L238.114 21.8081L26.6598 78.467L28.628 68.8446ZM20.9297 114.243L14.376 89.7839L254.41 25.467L260.964 49.9263L20.9297 114.243Z" fill="white"/>
<path d="M85.3433 114.103L69.3742 118.382L71.3804 125.87L87.3496 121.591L85.3433 114.103Z" fill="white"/>
<path d="M116.748 118.529L144.435 221.856L247.734 194.177L220.048 90.8496L116.748 118.529ZM238.242 188.696L149.914 212.363L148.71 207.871L237.038 184.203L238.242 188.696ZM235.032 176.716L146.704 200.383L126.24 124.01L214.568 100.343L235.032 176.716Z" fill="white"/>
<path d="M198.277 152.324C196.407 152.825 194.757 153.742 193.396 154.945L185.381 150.316L189.493 121.75L181.823 120.645L178.625 142.856L164.75 125.219L158.66 130.012L176.504 152.694L171.877 160.711C170.097 160.35 168.21 160.381 166.34 160.882C159.874 162.614 156.023 169.286 157.756 175.754C159.489 182.222 166.16 186.075 172.626 184.343C179.092 182.61 182.943 175.938 181.21 169.47C180.709 167.599 179.792 165.949 178.589 164.587L182.59 157.655L189.522 161.658C189.161 163.438 189.192 165.326 189.693 167.197C191.426 173.665 198.097 177.518 204.563 175.785C211.03 174.052 214.881 167.38 213.148 160.912C211.414 154.444 204.743 150.591 198.277 152.324ZM170.619 176.855C168.28 177.482 165.867 176.088 165.24 173.748C164.614 171.409 166.006 168.996 168.345 168.369C170.684 167.742 173.097 169.135 173.724 171.475C174.351 173.815 172.958 176.228 170.619 176.855ZM202.557 168.297C200.218 168.924 197.805 167.531 197.178 165.191C196.551 162.851 197.944 160.438 200.283 159.811C202.622 159.184 205.035 160.577 205.662 162.917C206.289 165.257 204.896 167.67 202.557 168.297Z" fill="white"/>
<path d="M149.012 144.124L141.028 146.263L143.034 153.751L151.018 151.611L149.012 144.124Z" fill="white"/>
<path d="M212.888 127.008L204.904 129.148L206.91 136.635L214.894 134.496L212.888 127.008Z" fill="white"/>
<path d="M75.7943 142.343L77.8005 149.83L94.0187 145.484L96.2257 153.721L103.711 151.715L99.4977 135.991L75.7943 142.343Z" fill="white"/>
<path d="M40.8528 91.7843L32.8685 93.9237L34.8747 101.411L42.859 99.2716L40.8528 91.7843Z" fill="white"/>
<path d="M124.69 69.3202L48.8377 89.6448L50.8439 97.1321L126.696 76.8075L124.69 69.3202Z" fill="white"/>
<path d="M240.465 38.2984L232.48 40.4378L234.487 47.9252L242.471 45.7858L240.465 38.2984Z" fill="white"/>
<path d="M224.496 42.5773L148.644 62.9019L150.65 70.3892L226.502 50.0646L224.496 42.5773Z" fill="white"/>
<path d="M140.659 65.0413L132.674 67.1807L134.681 74.6681L142.665 72.5287L140.659 65.0413Z" fill="white"/>
<path d="M105.851 159.702L98.3656 161.707L100.506 169.694L107.991 167.688L105.851 159.702Z" fill="white"/>
</svg>
