<svg width="1078" height="353" viewBox="0 0 1078 353" fill="none" xmlns="http://www.w3.org/2000/svg">
<path d="M1044.75 6.21075L1071.12 32.4111V320.089L1044.75 346.288H36.5L10.1305 320.089V302.33L15.4883 299.475V317.885L38.7187 340.965H1042.53L1065.76 317.885V34.6145L1042.53 11.535H38.7187L15.4883 34.6145L15.4883 299.475L10.1305 302.33V32.4111L36.5 6.21075L1044.75 6.21075Z" fill="#D6A354" fill-opacity="0.5"/>
<path d="M1068.44 0L1059.51 8.87324L1068.44 17.7465L1077.37 8.87324L1068.44 0Z" fill="#D6A354" fill-opacity="0.5"/>
<path d="M1068.44 334.754L1059.51 343.627L1068.44 352.5L1077.37 343.627L1068.44 334.754Z" fill="#D6A354" fill-opacity="0.5"/>
<path d="M9.56298 0L0.632202 8.87325L9.56298 17.7465L18.4938 8.87325L9.56298 0Z" fill="#D6A354" fill-opacity="0.5"/>
<path d="M9.56298 334.754L0.632202 343.627L9.56298 352.5L18.4938 343.627L9.56298 334.754Z" fill="#D6A354" fill-opacity="0.5"/>
</svg>
