<svg viewBox="0 0 12 12" fill="none" xmlns="http://www.w3.org/2000/svg">
<path d="M12 9.75V11.5312C12 11.7902 11.7902 12 11.5312 12H0.46875C0.209839 12 0 11.7902 0 11.5312V9.75C0 9.49109 0.209839 9.28125 0.46875 9.28125C0.727661 9.28125 0.9375 9.49109 0.9375 9.75V11.0625H11.0625V9.75C11.0625 9.49109 11.2723 9.28125 11.5312 9.28125C11.7902 9.28125 12 9.49109 12 9.75ZM5.66849 10.0814C5.84875 10.2618 6.14703 10.2659 6.33151 10.0814L8.98306 7.42978C9.16617 7.24677 9.16617 6.94995 8.98306 6.76694C8.80005 6.58383 8.50323 6.58383 8.32022 6.76694L6.46875 8.61832V0.46875C6.46875 0.209839 6.25891 0 6 0C5.74109 0 5.53125 0.209839 5.53125 0.46875V8.61832L3.67978 6.76694C3.49677 6.58383 3.19995 6.58383 3.01694 6.76694C2.83383 6.94995 2.83383 7.24677 3.01694 7.42978L5.66849 10.0814Z" fill="#D29C4E"/>
</svg>
