<svg height="496pt" viewBox="-112 0 496 496" width="496pt" xmlns="http://www.w3.org/2000/svg"><path d="m256 40.0625v-40.0625h-48v64h-16v-64h-48v64h-16v-64h-48v64h-16v-64h-48v40.0625c-8.871094.363281-16 7.632812-16 16.59375v71.34375c0 10.414062 6.710938 19.214844 16 22.527344v50.847656c0 6.410156 2.496094 12.441406 7.03125 16.976562l23.046875 23.046876c1.378906 1.378906 2.203125 3.203124 2.328125 5.144531l14.640625 227.015625c.816406 12.585937 11.34375 22.441406 23.953125 22.441406h98c12.609375 0 23.136719-9.855469 23.953125-22.457031l14.640625-227.007813c.125-1.941406.949219-3.765625 2.328125-5.144531l23.046875-23.046875c4.535156-4.527344 7.03125-10.558594 7.03125-16.976562v-50.847657c9.289062-3.3125 16-12.113281 16-22.527343v-71.335938c0-8.953125-7.128906-16.230469-16-16.59375zm-208-24.0625v64h48v-64h16v64h48v-64h16v64h48v-64h16v34.28125c-.480469 1.160156-.878906 2.359375-1.097656 3.648438l-8.34375 50.070312h-189.117188l-8.34375-50.070312c-.21875-1.289063-.617187-2.488282-1.097656-3.648438v-34.28125zm189.65625 191.03125-23.046875 23.046875c-4.128906 4.128906-6.609375 9.609375-6.984375 15.425781l-14.640625 227.007813c-.273437 4.199219-3.785156 7.488281-7.984375 7.488281h-98c-4.199219 0-7.710938-3.289062-7.984375-7.488281l-14.640625-227.007813c-.375-5.824218-2.863281-11.296875-6.984375-15.425781l-23.046875-23.046875c-1.511719-1.511719-2.34375-3.527344-2.34375-5.664062v-49.367188h56v248c0 13.230469 10.769531 24 24 24h48c13.230469 0 24-10.769531 24-24v-248h56v49.367188c0 2.136718-.832031 4.152343-2.34375 5.664062zm-133.65625-55.03125h64v248c0 4.40625-3.585938 8-8 8h-48c-4.414062 0-8-3.59375-8-8zm152-24c0 4.40625-3.585938 8-8 8h-224c-4.414062 0-8-3.59375-8-8v-71.335938c0-.367187.296875-.664062.664062-.664062.320313 0 .59375.230469.648438.550781l10.574219 63.449219h216.21875l10.574219-63.449219c.121093-.6875 1.304687-.574219 1.3125.113281zm0 0"/><path d="m120 328h32v16h-32zm0 0"/><path d="m120 360h32v16h-32zm0 0"/><path d="m128 168h16v16h-16zm0 0"/><path d="m128 200h16v64h-16zm0 0"/><path d="m128 280h16v16h-16zm0 0"/></svg>