<svg height="496pt" viewBox="-112 0 496 496" width="496pt" xmlns="http://www.w3.org/2000/svg"><path d="M256 40.063V0h-48v64h-16V0h-48v64h-16V0H80v64H64V0H16v40.063c-8.871.363-16 7.632-16 16.593V128c0 10.414 6.71 19.215 16 22.527v50.848c0 6.41 2.496 12.441 7.031 16.977l23.047 23.046a7.992 7.992 0 0 1 2.328 5.145l14.64 227.016C63.864 486.145 74.392 496 87 496h98c12.61 0 23.137-9.855 23.953-22.457l14.64-227.008a7.992 7.992 0 0 1 2.329-5.144l23.047-23.047c4.535-4.528 7.031-10.559 7.031-16.977V150.52c9.29-3.313 16-12.114 16-22.528V56.656c0-8.953-7.129-16.23-16-16.594zM48 16v64h48V16h16v64h48V16h16v64h48V16h16v34.281c-.48 1.16-.879 2.36-1.098 3.649L230.56 104H41.44l-8.343-50.07c-.22-1.29-.618-2.489-1.098-3.649V16zm189.656 191.031l-23.047 23.047a23.994 23.994 0 0 0-6.984 15.426l-14.64 227.008C192.71 476.71 189.198 480 185 480H87c-4.2 0-7.71-3.29-7.984-7.488L64.375 245.504a24.016 24.016 0 0 0-6.984-15.426l-23.047-23.047A7.963 7.963 0 0 1 32 201.367V152h56v248c0 13.23 10.77 24 24 24h48c13.23 0 24-10.77 24-24V152h56v49.367a7.963 7.963 0 0 1-2.344 5.664zM104 152h64v248c0 4.406-3.586 8-8 8h-48c-4.414 0-8-3.594-8-8zm152-24c0 4.406-3.586 8-8 8H24c-4.414 0-8-3.594-8-8V56.664c0-.367.297-.664.664-.664.32 0 .594.23.648.55L27.887 120h216.218l10.575-63.45c.12-.687 1.304-.573 1.312.114zm0 0"/><path d="M120 328h32v16h-32zm0 0M120 360h32v16h-32zm0 0M128 168h16v16h-16zm0 0M128 200h16v64h-16zm0 0M128 280h16v16h-16zm0 0"/></svg>