<svg id="Line" enable-background="new 0 0 64 64" viewBox="0 0 64 64" xmlns="http://www.w3.org/2000/svg"><path style="fill:#aeaeae;" d="m31.006 39.035-6.3-2.76-2.209-2.945c1.495-.865 2.503-2.482 2.503-4.33v-3h-2v3c0 1.654-1.346 3-3 3h-4c-1.654 0-3-1.346-3-3v-9c0-1.654 1.346-3 3-3h4c1.654 0 3 1.346 3 3v2h-4c-1.103 0-2-.897-2-2h-2c0 2.206 1.794 4 4 4h5c.552 0 1-.448 1-1v-3c0-2.757-2.243-5-5-5h-4c-2.757 0-5 2.243-5 5v9c0 1.848 1.008 3.465 2.503 4.33l-2.196 2.928-6.167 2.472c-1.908.764-3.14 2.586-3.14 4.641v19.629c0 .552.448 1 1 1h3v-2h-2v-18.629c0-1.233.739-2.326 1.884-2.785l4.827-1.935-.697 4.184c-.057.338.064.682.32.911.186.166.423.254.666.254.092 0 .184-.013.275-.039l4.544-1.298-1.814 17.232c-.032.305.078.607.297.821l3.083 3c.188.182.438.284.698.284h.014c.266-.004.519-.113.703-.303l2.917-3c.207-.213.309-.507.278-.802l-1.814-17.232 4.544 1.298c.091.026.183.039.275.039.243 0 .48-.088.666-.254.256-.229.377-.572.32-.911l-.686-4.116 4.903 2.148c1.092.478 1.797 1.556 1.797 2.748v18.385h-2v2h3c.552 0 1-.448 1-1v-19.385c0-1.986-1.175-3.783-2.994-4.58zm-10.506-5.035 2.066 2.754-4.566 3.044-4.566-3.044 2.066-2.754zm-7.777 4.742 2.862 1.908-3.339.954zm7.234 20.897-1.893 1.947-2.019-1.963 1.848-17.552.053-.015c.036.002.072.002.108 0l.053.015zm.458-18.989 2.862-1.908.477 2.862z"/><path style="fill:#aeaeae;" d="m8 47h2v17h-2z"/><path style="fill:#aeaeae;" d="m26 47h2v17h-2z"/><path style="fill:#aeaeae;" d="m37 0c-8.897 0-17.195 4.79-21.655 12.5l1.731 1.001c4.104-7.094 11.738-11.501 19.924-11.501 12.682 0 23 10.318 23 23s-10.318 23-23 23h-1v2h1c13.785 0 25-11.215 25-25s-11.215-25-25-25z"/><path style="fill:#aeaeae;" d="m55.758 34.451-1.785-.901c-3.254 6.446-9.758 10.45-16.973 10.45-.319 0-.636-.008-.951-.023l-.098 1.998c.347.016.697.025 1.049.025 7.975 0 15.163-4.425 18.758-11.549z"/><path style="fill:#aeaeae;" d="m56.677 32.351c.878-2.35 1.323-4.823 1.323-7.351 0-11.58-9.42-21-21-21-6.668 0-12.792 3.062-16.801 8.399l1.6 1.201c3.627-4.829 9.168-7.6 15.201-7.6 10.477 0 19 8.523 19 19 0 2.289-.402 4.526-1.196 6.65z"/><path style="fill:#aeaeae;" d="m38 40v-4h3c2.757 0 5-2.243 5-5v-2c0-2.757-2.243-5-5-5h-6c-1.654 0-3-1.346-3-3v-2c0-1.654 1.346-3 3-3h10v-2h-7v-4h-2v4h-1c-2.757 0-5 2.243-5 5v2c0 2.757 2.243 5 5 5h6c1.654 0 3 1.346 3 3v2c0 1.654-1.346 3-3 3h-11v2h6v4z"/></svg>