<svg height="496pt" viewBox="0 -36 496 496" width="496pt" xmlns="http://www.w3.org/2000/svg"><path d="M464 32V0H32v32H0v344h192.566c3.891 27.105 27.266 48 55.434 48s51.535-20.895 55.434-48H496V32zm-16-16v312H256V16zM48 16h192v312H48zm432 344H288v8c0 22.055-17.945 40-40 40s-40-17.945-40-40v-8H16V48h16v296h432V48h16zm0 0"/><path d="M144 32c-44.113 0-80 35.887-80 80v40c0 16.734 12.96 30.36 29.352 31.734C102.305 202.762 121.617 216 144 216s41.695-13.238 50.648-32.266C211.04 182.36 224 168.734 224 152v-40c0-44.113-35.887-80-80-80zm0 16c35.29 0 64 28.71 64 64v12.45a31.351 31.351 0 0 0-8-3.313V112h-32c-22.406 0-44.617 6.121-64 17.29V112H88v9.137a31.633 31.633 0 0 0-8 3.312V112c0-35.29 28.71-64 64-64zM80 152c0-5.895 3.238-11 8-13.777V160c0 2.008.121 3.992.328 5.953C83.391 163.223 80 158.031 80 152zm64 48c-22.055 0-40-17.945-40-40v-11.8c18.688-13 41.223-20.2 64-20.2h16v32c0 22.055-17.945 40-40 40zm55.672-34.047c.207-1.96.328-3.945.328-5.953v-21.777c4.762 2.777 8 7.882 8 13.777 0 6.031-3.39 11.223-8.328 13.953zm0 0M301.352 281.031c8.96 19.031 28.265 32.266 50.648 32.266s41.688-13.242 50.648-32.266C419.04 279.656 432 266.04 432 249.297V192c0-39.695-32.297-72-72-72-22.543 0-44.078 10.77-57.602 28.809l-3.382 4.504A43.038 43.038 0 0 0 272 193.297v56c0 16.742 12.96 30.36 29.352 31.734zM288 249.297c0-5.899 3.238-11 8-13.777v21.777c0 2.008.121 3.992.328 5.95-4.937-2.727-8.328-7.927-8.328-13.95zm64 48c-22.055 0-40-17.945-40-40v-32.024a62.212 62.212 0 0 0 30.625 8.024H344v-4.25a62.487 62.487 0 0 0 22.625 4.25H368v-4.25a62.487 62.487 0 0 0 22.625 4.25H392v24c0 22.055-17.945 40-40 40zm55.672-34.05a56.52 56.52 0 0 0 .328-5.95V235.52c4.762 2.777 8 7.878 8 13.777 0 6.023-3.39 11.223-8.328 13.95zm-101.145-95.653l2.368-.793 6.296-8.403C325.72 144.375 342.465 136 360 136c30.871 0 56 25.121 56 56v29.742a31.482 31.482 0 0 0-8-3.308V200h-16v17.297h-1.375c-12.457 0-24.168-4.848-32.969-13.656l-9.726 9.726c-5.25-2.305-10.098-5.55-14.274-9.726l-9.726 9.726c-4.305-1.887-8.313-4.445-11.93-7.597V200h-16v18.434a31.482 31.482 0 0 0-8 3.308v-28.445c0-11.68 7.45-22.016 18.527-25.703zm0 0M64 232h160v16H64zm0 0M152 264h72v16h-72zm0 0M64 264h72v16H64zm0 0M272 32h160v16H272zm0 0M272 96h160v16H272zm0 0M360 64h72v16h-72zm0 0M272 64h72v16h-72zm0 0M64 296h160v16H64zm0 0"/></svg>