<svg height="496pt" viewBox="0 -36 496 496" width="496pt" xmlns="http://www.w3.org/2000/svg"><path d="m464 32v-32h-432v32h-32v344h192.566406c3.890625 27.105469 27.265625 48 55.433594 48s51.535156-20.894531 55.433594-48h192.566406v-344zm-16-16v312h-192v-312zm-400 0h192v312h-192zm432 344h-192v8c0 22.054688-17.945312 40-40 40s-40-17.945312-40-40v-8h-192v-312h16v296h432v-296h16zm0 0"/><path d="m144 32c-44.113281 0-80 35.886719-80 80v40c0 16.734375 12.960938 30.359375 29.351562 31.734375 8.953126 19.027344 28.265626 32.265625 50.648438 32.265625s41.695312-13.238281 50.648438-32.265625c16.390624-1.375 29.351562-15 29.351562-31.734375v-40c0-44.113281-35.886719-80-80-80zm0 16c35.289062 0 64 28.710938 64 64v12.449219c-2.480469-1.449219-5.152344-2.578125-8-3.3125v-9.136719h-32c-22.40625 0-44.617188 6.121094-64 17.289062v-17.289062h-16v9.136719c-2.847656.742187-5.519531 1.863281-8 3.3125v-12.449219c0-35.289062 28.710938-64 64-64zm-64 104c0-5.894531 3.238281-11 8-13.777344v21.777344c0 2.007812.121094 3.992188.328125 5.953125-4.9375-2.730469-8.328125-7.921875-8.328125-13.953125zm64 48c-22.054688 0-40-17.945312-40-40v-11.800781c18.6875-13 41.222656-20.199219 64-20.199219h16v32c0 22.054688-17.945312 40-40 40zm55.671875-34.046875c.207031-1.960937.328125-3.945313.328125-5.953125v-21.777344c4.761719 2.777344 8 7.882813 8 13.777344 0 6.03125-3.390625 11.222656-8.328125 13.953125zm0 0"/><path d="m301.351562 281.03125c8.960938 19.03125 28.265626 32.265625 50.648438 32.265625s41.6875-13.242187 50.648438-32.265625c16.390624-1.375 29.351562-14.992188 29.351562-31.734375v-57.296875c0-39.695312-32.296875-72-72-72-22.542969 0-44.078125 10.769531-57.601562 28.808594l-3.382813 4.503906c-16.261719 6.527344-27.015625 22.28125-27.015625 39.984375v56c0 16.742187 12.960938 30.359375 29.351562 31.734375zm-13.351562-31.734375c0-5.898437 3.238281-11 8-13.777344v21.777344c0 2.007813.121094 3.992187.328125 5.949219-4.9375-2.726563-8.328125-7.925782-8.328125-13.949219zm64 48c-22.054688 0-40-17.945313-40-40v-32.023437c9.246094 5.207031 19.710938 8.023437 30.625 8.023437h1.375v-4.25c7.128906 2.761719 14.753906 4.25 22.625 4.25h1.375v-4.25c7.128906 2.761719 14.753906 4.25 22.625 4.25h1.375v24c0 22.054687-17.945312 40-40 40zm55.671875-34.050781c.207031-1.957032.328125-3.941406.328125-5.949219v-21.777344c4.761719 2.777344 8 7.878907 8 13.777344 0 6.023437-3.390625 11.222656-8.328125 13.949219zm-101.144531-95.652344 2.367187-.792969 6.296875-8.402343c10.527344-14.023438 27.273438-22.398438 44.808594-22.398438 30.871094 0 56 25.121094 56 56v29.742188c-2.480469-1.445313-5.152344-2.574219-8-3.308594v-18.433594h-16v17.296875h-1.375c-12.457031 0-24.167969-4.847656-32.96875-13.65625l-9.726562 9.726563c-5.25-2.304688-10.097657-5.550782-14.273438-9.726563l-9.726562 9.726563c-4.304688-1.886719-8.3125-4.445313-11.929688-7.597657v-5.769531h-16v18.433594c-2.847656.734375-5.519531 1.863281-8 3.308594v-28.445313c0-11.679687 7.449219-22.015625 18.527344-25.703125zm0 0"/><path d="m64 232h160v16h-160zm0 0"/><path d="m152 264h72v16h-72zm0 0"/><path d="m64 264h72v16h-72zm0 0"/><path d="m272 32h160v16h-160zm0 0"/><path d="m272 96h160v16h-160zm0 0"/><path d="m360 64h72v16h-72zm0 0"/><path d="m272 64h72v16h-72zm0 0"/><path d="m64 296h160v16h-160zm0 0"/></svg>