<svg height="496pt" viewBox="0 0 496 496" width="496pt" xmlns="http://www.w3.org/2000/svg"><path d="m457.710938 317.480469-81.710938-27.25v-16.574219c17.679688-11.558594 30.910156-29.304688 36.710938-50.136719 19.816406-2.359375 35.289062-19.078125 35.289062-39.519531v-48.585938c.96875-.398437 1.960938-.695312 2.921875-1.109374l29.292969-12.550782-34.535156-24.675781c-10.824219-55.71875-60.335938-97.078125-117.679688-97.078125-66.167969 0-120 53.832031-120 120v64c0 20.441406 15.472656 37.160156 35.289062 39.519531 5.789063 20.839844 19.03125 38.578125 36.710938 50.136719v16.574219l-81.703125 27.242187c-22.914063 7.632813-38.296875 28.984375-38.296875 53.121094v125.40625h336v-125.40625c0-24.136719-15.382812-45.488281-38.289062-53.113281zm-171.3125-12.511719 29.625 23.695312-23.6875 23.6875-11.390626-45.566406zm83.203124 0 5.453126 1.816406-11.390626 45.566406-23.6875-23.6875zm-85.9375 78.679688 44.335938-44.335938 44.335938 44.335938 17.945312-71.792969 1.71875.578125v87.566406h-128v-87.566406l1.71875-.578125zm124.335938 32.351562v-98.230469l24 8v154.230469h-208v-154.230469l24-8v98.230469zm7.664062-209.367188c.167969-2.199218.335938-4.394531.335938-6.632812v-38.527344c9.289062 3.3125 16 12.113282 16 22.527344 0 10.535156-6.871094 19.414062-16.335938 22.632812zm16.335938-54.425781c-4.160156-3.144531-8.902344-5.480469-14.105469-6.816406 4.738281-1.191406 9.441407-2.527344 14.105469-4.039063zm-104-136.207031c43.296875 0 81.414062 27.214844 96.761719 66.136719l-12.105469-8.648438-9.296875 13.023438 44.433594 31.734375-3.167969 1.363281c-25.394531 10.878906-52.265625 16.390625-79.890625 16.390625-28.558594 0-56.269531-5.878906-82.359375-17.480469l-42.375-18.832031v45.121094c-5.945312 1.214844-11.328125 3.855468-16 7.390625v-32.199219c0-57.34375 46.65625-104 104-104zm-104 168c0-10.414062 6.710938-19.214844 16-22.527344v38.527344c0 2.238281.167969 4.433594.335938 6.632812-9.464844-3.21875-16.335938-12.097656-16.335938-22.632812zm32 16v-75.6875l19.871094 8.832031c28.152344 12.511719 58.050781 18.855469 88.863281 18.855469 11.898437 0 23.671875-.953125 35.265625-2.832031v50.832031c0 39.695312-32.304688 72-72 72s-72-32.304688-72-72zm72 88c11.296875 0 22.0625-2.214844 32-6.113281v10.265625l-32 25.609375-32-25.609375v-10.265625c9.9375 3.898437 20.703125 6.113281 32 6.113281zm-152 82.59375c0-17.242188 10.992188-32.496094 27.351562-37.945312l4.648438-1.550782v148.902344h-32zm304 109.40625h-32v-148.902344l4.65625 1.550782c16.351562 5.457031 27.34375 20.703124 27.34375 37.945312zm0 0"/><path d="m384 168c0 4.417969-3.582031 8-8 8s-8-3.582031-8-8 3.582031-8 8-8 8 3.582031 8 8zm0 0"/><path d="m288 168c0 4.417969-3.582031 8-8 8s-8-3.582031-8-8 3.582031-8 8-8 8 3.582031 8 8zm0 0"/><path d="m360 216h-16c0 8.824219-7.175781 16-16 16s-16-7.175781-16-16h-16c0 17.648438 14.351562 32 32 32s32-14.351562 32-32zm0 0"/><path d="m.015625 168.527344 16.265625 243.9375 23.71875 15.816406v51.71875c0 8.824219 7.175781 16 16 16h32c8.824219 0 16-7.175781 16-16v-51.71875l23.71875-15.816406 16.28125-244.464844v-40h-144zm79.984375-8.527344v-16h16v16zm-16 0h-16v-16h16zm63.449219 16-1.066407 16h-108.78125l-1.066406-16zm-79.449219 32h48v16h-48zm-16 0v16c0 8.824219 7.175781 16 16 16h48c8.824219 0 16-7.175781 16-16v-16h13.320312l-3.199218 48h-100.25l-3.199219-48zm24 272v-48h32v48zm37.574219-64h-43.148438l-18.707031-12.472656-8.773438-131.527344h98.109376l-8.765626 131.527344zm34.441406-256h-16.015625v-16h16zm-96.015625-16v16h-16v-16zm0 0"/><path d="m72 312c-13.230469 0-24 10.769531-24 24v32c0 13.230469 10.769531 24 24 24s24-10.769531 24-24v-32c0-13.230469-10.769531-24-24-24zm8 56c0 4.414062-3.59375 8-8 8s-8-3.585938-8-8v-32c0-4.414062 3.59375-8 8-8s8 3.585938 8 8zm0 0"/></svg>