<svg height="496pt" viewBox="0 0 496 496" width="496pt" xmlns="http://www.w3.org/2000/svg"><path d="M457.71 317.48L376 290.23v-16.574c17.68-11.558 30.91-29.304 36.71-50.136C432.528 221.16 448 204.44 448 184v-48.586c.969-.398 1.96-.695 2.922-1.11l29.293-12.55-34.535-24.676C434.855 41.36 385.344 0 328 0c-66.168 0-120 53.832-120 120v64c0 20.441 15.473 37.16 35.29 39.52 5.788 20.84 19.03 38.578 36.71 50.136v16.574l-81.703 27.243A55.917 55.917 0 0 0 160 370.593V496h336V370.594a55.903 55.903 0 0 0-38.29-53.114zM286.399 304.97l29.625 23.695-23.687 23.688-11.39-45.567zm83.204 0l5.453 1.816-11.39 45.567-23.688-23.688zm-85.938 78.68L328 339.311l44.336 44.336 17.945-71.793 1.719.579V400H264v-87.566l1.719-.579zM408 416v-98.23l24 8V480H224V325.77l24-8V416zm7.664-209.367c.168-2.2.336-4.395.336-6.633v-38.527c9.29 3.312 16 12.113 16 22.527 0 10.535-6.871 19.414-16.336 22.633zM432 152.207a39.678 39.678 0 0 0-14.105-6.816A218.595 218.595 0 0 0 432 141.35zM328 16c43.297 0 81.414 27.215 96.762 66.137l-12.106-8.649-9.297 13.024 44.434 31.734-3.168 1.363C419.23 130.49 392.359 136 364.735 136c-28.56 0-56.27-5.879-82.36-17.48L240 99.688v45.12c-5.945 1.215-11.328 3.856-16 7.391V120c0-57.344 46.656-104 104-104zM224 184c0-10.414 6.71-19.215 16-22.527V200c0 2.238.168 4.434.336 6.633C230.87 203.414 224 194.535 224 184zm32 16v-75.688l19.871 8.833C304.023 145.656 333.921 152 364.734 152c11.899 0 23.672-.953 35.266-2.832V200c0 39.695-32.305 72-72 72s-72-32.305-72-72zm72 88c11.297 0 22.063-2.215 32-6.113v10.265l-32 25.61-32-25.61v-10.265c9.938 3.898 20.703 6.113 32 6.113zm-152 82.594a39.945 39.945 0 0 1 27.352-37.946l4.648-1.55V480h-32zM480 480h-32V331.098l4.656 1.55A39.956 39.956 0 0 1 480 370.594zm0 0"/><path d="M384 168a8 8 0 1 1-16 0 8 8 0 0 1 16 0zm0 0M288 168a8 8 0 1 1-16 0 8 8 0 0 1 16 0zm0 0M360 216h-16c0 8.824-7.176 16-16 16s-16-7.176-16-16h-16c0 17.648 14.352 32 32 32s32-14.352 32-32zm0 0M.016 168.527L16.28 412.465 40 428.28V480c0 8.824 7.176 16 16 16h32c8.824 0 16-7.176 16-16v-51.719l23.719-15.816L144 168v-40H0zM80 160v-16h16v16zm-16 0H48v-16h16zm63.45 16l-1.067 16H17.602l-1.067-16zM48 208h48v16H48zm-16 0v16c0 8.824 7.176 16 16 16h48c8.824 0 16-7.176 16-16v-16h13.32l-3.199 48H21.871l-3.2-48zm24 272v-48h32v48zm37.574-64H50.426l-18.707-12.473L22.945 272h98.11l-8.766 131.527zm34.442-256H112v-16h16zM32 144v16H16v-16zm0 0"/><path d="M72 312c-13.23 0-24 10.77-24 24v32c0 13.23 10.77 24 24 24s24-10.77 24-24v-32c0-13.23-10.77-24-24-24zm8 56c0 4.414-3.594 8-8 8s-8-3.586-8-8v-32c0-4.414 3.594-8 8-8s8 3.586 8 8zm0 0"/></svg>