<svg width="139" height="138" viewBox="0 0 139 138" fill="none" xmlns="http://www.w3.org/2000/svg">
<g clip-path="url(#clip0)">
<path d="M124.075 54.3767C116.083 24.5511 85.098 6.84501 55.0061 14.9081C45.5717 17.436 37.0292 22.3208 30.1012 29.0621L23.4272 30.8503L21.5571 23.8707L10.9942 26.7011L16.9259 48.8386C12.5215 60.0055 11.8146 72.0144 14.9252 83.6232C22.9174 113.451 53.902 131.155 83.9939 123.092C90.6995 121.295 96.9247 118.346 102.501 114.334C106.641 115.617 111.183 115.807 115.682 114.601C121.172 113.13 125.957 109.751 129.157 105.088L126.148 103.063C123.441 107.009 119.393 109.866 114.747 111.111C104.07 113.972 93.0748 107.689 90.2391 97.1061C87.4035 86.5233 93.7841 75.5843 104.461 72.7233C115.139 69.8623 126.134 76.1455 128.97 86.7283C130.155 91.1516 129.794 95.705 127.922 99.8963L131.253 101.349C133.432 96.4657 133.872 90.9393 132.491 85.7848C131.295 81.3214 128.856 77.5237 125.662 74.615C126.381 67.8281 125.856 61.023 124.075 54.3767ZM33.2744 39.4329L36.7954 38.4894L37.7305 41.9792L43.341 62.918L39.82 63.8614L33.2744 39.4329ZM24.3623 34.3401L27.8833 33.3967L28.8184 36.8865L36.2991 64.8049L32.7781 65.7483L24.3623 34.3401ZM15.4502 29.2474L18.9712 28.304L19.9063 31.7938L29.2572 66.6917L25.7362 67.6352L15.4502 29.2474ZM81.2866 120.03C54.2917 126.293 26.9762 110.684 18.9577 84.4129L68.2071 71.2166L81.2866 120.03ZM67.272 67.7268L18.049 80.916C16.06 72.345 16.2651 63.5899 18.6306 55.2005L23.1503 72.0684L30.1923 70.1815L33.7132 69.2381L37.2342 68.2947L40.7551 67.3512L44.2761 66.4078L47.797 65.4644L51.318 64.5209L54.8389 63.5775L61.8809 61.6906L57.2054 44.2416L50.1635 46.1285L48.2933 39.1489L41.2514 41.0358L39.3812 34.0562L32.3393 35.9431L31.494 32.7883C37.7438 26.3185 45.5429 21.5675 54.1971 18.9307L67.272 67.7268ZM46.8619 61.9746L42.1865 44.5256L45.7075 43.5821L46.6426 47.0719L50.3829 61.0311L46.8619 61.9746ZM53.9039 60.0877L51.0986 49.6183L54.6195 48.6749L57.4248 59.1442L53.9039 60.0877ZM120.042 53.587L104.971 57.6254L114.479 41.3244C116.817 45.0762 118.698 49.182 120.042 53.587ZM103.994 29.1798L89.5537 53.9372L92.7041 55.7375L106.732 31.6872C108.718 33.6314 110.552 35.7393 112.218 37.9991L99.9922 58.9594L89.1266 61.8708L90.7983 59.0048L87.6479 57.2045L84.1479 63.2049L73.2823 66.1163L97.5545 24.5038C99.8117 25.9 101.967 27.4583 103.994 29.1798ZM57.7134 17.9698C62.2398 16.9197 66.7729 16.4793 71.2243 16.6069L61.716 32.9079L57.7134 17.9698ZM67.2462 53.5465L82.9592 26.608L79.8088 24.8077L65.9239 48.612L63.0383 37.8424L75.2642 16.8821C78.0739 17.1784 80.8357 17.6971 83.5298 18.4283L81.4469 21.9993L84.5973 23.7995L87.0927 19.5215C89.6127 20.3985 92.0533 21.4651 94.4041 22.7035L70.1318 64.316L67.2462 53.5465ZM103.526 69.2335C90.9072 72.6148 83.3668 85.5421 86.7182 98.0495C88.4766 104.612 92.901 109.751 98.5205 112.689C94.2926 115.466 89.6939 117.605 84.8085 119.09L71.728 70.2731L120.981 57.0758C122.124 62.0042 122.544 67.0141 122.23 72.0261C116.85 68.6799 110.144 67.4603 103.526 69.2335Z" fill="grey"/>
<path d="M60.1746 81.397L44.6593 107.997L47.8102 109.797L63.3255 83.1975L60.1746 81.397Z" fill="grey"/>
<path d="M61.4943 95.4574C58.5824 96.2376 56.8421 99.2212 57.6155 102.107C58.3888 104.993 61.3877 106.707 64.2995 105.927C67.2114 105.147 68.9516 102.163 68.1783 99.2769C67.405 96.3909 64.4061 94.6772 61.4943 95.4574ZM63.3644 102.437C62.3944 102.697 61.3945 102.127 61.1364 101.164C60.8783 100.201 61.4593 99.2071 62.4294 98.9472C63.3994 98.6873 64.3993 99.2572 64.6574 100.22C64.9155 101.184 64.3345 102.177 63.3644 102.437Z" fill="grey"/>
<path d="M43.6701 85.272C40.7583 86.0522 39.018 89.0358 39.7913 91.9218C40.5646 94.8079 43.5635 96.5216 46.4754 95.7414C49.3872 94.9611 51.1275 91.9776 50.3542 89.0915C49.5809 86.2055 46.5819 84.4918 43.6701 85.272ZM45.5403 92.2516C44.5703 92.5115 43.5703 91.9416 43.3123 90.9784C43.0542 90.0152 43.6352 89.0217 44.6052 88.7618C45.5752 88.5019 46.5751 89.0718 46.8332 90.035C47.0913 90.9981 46.5103 91.9917 45.5403 92.2516Z" fill="grey"/>
<path d="M109.137 90.1723C107.195 90.6926 105.197 89.5505 104.681 87.6259C104.165 85.7013 105.325 83.713 107.267 83.1927C109.209 82.6724 111.207 83.8144 111.723 85.7391L115.244 84.7956C114.375 81.5518 111.395 79.4476 108.158 79.479L107.157 75.7414L103.636 76.6848L104.638 80.4224C101.818 82.0137 100.291 85.3256 101.16 88.5694C102.191 92.4186 106.188 94.7027 110.072 93.6621C112.014 93.1418 114.012 94.2838 114.528 96.2084C115.044 98.1331 113.884 100.121 111.942 100.642C110 101.162 108.002 100.02 107.486 98.0953L103.965 99.0388C104.834 102.283 107.813 104.387 111.05 104.355L112.052 108.093L115.573 107.15L114.571 103.412C117.39 101.821 118.918 98.5088 118.049 95.265C117.018 91.4158 113.02 89.1317 109.137 90.1723Z" fill="grey"/>
<path d="M124.981 85.9268L121.46 86.8702L122.395 90.36L125.916 89.4166L124.981 85.9268Z" fill="grey"/>
<path d="M96.8135 93.4743L93.2925 94.4177L94.2276 97.9075L97.7486 96.9641L96.8135 93.4743Z" fill="grey"/>
</g>
<defs>
<clipPath id="clip0">
<rect x="0.431335" y="29.5314" width="113" height="112" transform="rotate(-15 0.431335 29.5314)" fill="white"/>
</clipPath>
</defs>
</svg>
