<svg width="122" height="122" viewBox="0 0 122 122" fill="none" xmlns="http://www.w3.org/2000/svg">
<mask id="mask0" mask-type="alpha" maskUnits="userSpaceOnUse" x="0" y="0" width="122" height="122">
<circle cx="61" cy="61" r="60" fill="white" stroke="#AB7D24" stroke-width="2"/>
</mask>
<g mask="url(#mask0)">
<path fill-rule="evenodd" clip-rule="evenodd" d="M90.916 70.5993C91.3387 71.1557 92.4746 71.6763 91.0425 73.682C89.8643 75.3322 90.8274 75.65 91.2031 77.1099C91.5425 78.4284 88.7976 78.0984 88.1039 77.6613C87.6113 77.3509 82.4719 71.8721 87.432 68.9869C87.7921 68.7775 90.2151 67.5282 90.5529 67.52C91.8649 67.4881 90.9886 69.6245 90.9159 70.5992L90.916 70.5993ZM64.2542 75.8219C65.4562 77.1038 64.4505 77.8438 68.7626 79.2341C73.2904 80.6938 79.91 82.9134 84.6459 83.2903C85.9752 83.3961 87.2898 83.2609 88.6237 83.306C86.402 84.9152 79.0248 84.235 78.4466 86.3011C78.2932 86.8493 78.3861 87.7561 78.4243 88.3294C79.1438 89.6823 79.1665 91.6715 78.5312 93.1557C77.9299 94.5607 77.391 96.6086 76.991 97.5639C76.5885 100.343 76.21 102.227 76.2131 105.217C76.2162 108.269 76.7871 110.093 77.0823 112.782C76.2557 112.739 75.441 112.541 74.585 112.412L72.0411 111.694C68.6326 112.009 62.9915 106.782 58.9992 104.896C56.2819 103.613 51.5332 101.226 48.834 100.147C47.713 99.6988 46.117 99.1373 45.3177 98.6446C45.8574 97.4206 48.7183 95.5252 50.7083 92.34C51.9715 87.0216 50.7809 84.4223 50.8317 79.0426C50.8664 75.3718 51.1553 75.9562 49.567 73.242C48.6688 71.7072 47.5777 69.9871 47.095 68.2784C46.0774 66.7692 45.9189 62.5744 48.59 60.4257C54.0928 55.9992 58.7646 63.2044 61.2771 67.5534C62.315 69.35 64.3066 73.0938 64.2542 75.8219ZM88.1911 56.7728C89.4717 57.8254 90.409 58.919 91.7488 59.8346C92.0891 62.8845 90.736 62.8956 90.2658 63.3975C89.6055 64.1025 90.486 65.0757 87.5028 65.7965L87.1417 66.1617C86.2287 66.8969 85.1407 67.3752 84.1915 68.8873C82.9471 70.8699 83.3532 71.9787 83.2722 74.4154C83.1884 76.94 80.3453 76.5562 78.6878 76.1507C69.3874 73.8752 70.8181 67.8595 65.0387 60.3858L63.7734 58.5948L62.7887 57.5847C62.1739 56.7444 61.3818 55.3064 61.1129 54.2116C60.6732 52.4224 61.1509 49.7175 61.5938 48.016C63.3073 41.4333 63.9205 42.6022 65.9262 42.0326C67.0056 41.7261 67.5608 41.1945 68.2266 40.8896C69.7248 37.6684 74.3556 37.7186 75.6711 38.6864L80.0343 44.6365C81.5464 46.3918 84.4011 48.4396 83.9848 51.1491C83.6673 53.2156 84.5612 53.5216 85.579 54.4576C86.3606 55.1763 87.4381 56.2959 88.1912 56.7728H88.1911ZM51.3893 28.3217C51.1963 28.5275 51.2922 28.4542 51.0006 28.6449L47.909 29.7667C46.6867 30.0991 45.2769 30.2647 43.9895 30.4468C39.7735 31.0435 39.5568 31.7674 36.6903 32.5909C36.4197 32.9855 36.2831 32.96 35.8316 33.204C35.6233 33.3165 35.5094 33.389 35.2781 33.4959C34.5971 33.8107 35.1302 33.657 34.5257 33.7567C33.9049 34.7566 31.0829 36.1086 29.1719 39.5922C28.9416 40.0121 28.7527 40.4102 28.5388 40.8467L27.811 41.8174C27.8974 44.0146 25.941 46.5982 27.4188 53.3446C28.2621 57.1949 28.9217 60.9875 28.3409 65.3109C27.8026 69.3176 26.5075 72.0933 25.381 75.6845C24.4702 78.5874 24.2472 81.3155 24.9904 84.298C25.2019 85.1465 25.6824 86.2396 25.718 86.8786L27.5718 90.2285C27.6805 87.6397 26.2072 82.5023 27.8951 80.5434C29.6763 80.5457 29.3183 82.6056 29.6659 84.4499C29.9491 85.9527 30.2731 87.5595 30.7371 89.0749C31.3436 91.0557 32.1202 93.2469 33.6538 94.553L34.9183 95.4051C35.3629 95.7133 35.0612 95.4614 35.4403 95.7929L35.4339 95.6819L37.9899 96.1065C37.6314 95.1944 37.7214 95.6074 37.131 94.8435C36.1593 93.5861 35.9129 91.8517 36.0633 90.2158C37.8096 91.3578 39.5422 96.2172 45.487 96.3711C44.8066 97.831 43.0884 98.8434 41.5756 99.3728C39.7693 100.005 38.1479 100.786 36.3534 101.243C35.7935 101.642 32.3194 102.785 31.3253 103.169C28.4985 104.262 28.4453 103.834 26.9645 106.189C23.097 112.34 24.8317 115.807 24.6995 117.608C24.7378 117.652 24.7894 117.664 24.8054 117.747L25.5607 119.18C27.4794 122.964 32.0723 124.688 36.1996 125.35C52.9098 128.033 60.2941 113.282 74.9891 121.698C76.0743 122.32 77.0015 122.777 77.9865 123.533C78.8623 124.205 79.9706 125.095 80.7886 125.626L83.1795 127.789C83.4975 128.14 83.3606 127.935 83.4927 128.222C84.4938 128.71 84.3681 129.001 85.2785 129.626C84.9487 128.214 83.733 125.965 83.0771 124.525C82.5093 123.278 81.1426 120.648 80.9055 119.404C80.5198 119.097 80.6805 119.43 80.7051 118.839C79.2603 117.379 77.8841 112.017 77.7018 110.284C76.941 107.054 77.1132 102.811 77.4916 99.447C77.9178 96.4732 78.9095 94.886 79.5809 92.5252C80.0401 90.9106 79.5992 90.1856 79.4654 88.7106C79.309 86.986 79.3466 86.1582 80.8802 85.7454L81.6759 85.6534C81.7226 85.6212 81.7881 85.5859 81.8231 85.5685C82.7684 85.099 84.3859 84.9586 86.42 84.6533C87.9684 84.4209 89.4476 84.117 90.6812 83.4453C95.1133 81.032 91.9114 76.7724 91.6665 75.962C90.95 73.59 93.1568 74.0569 92.2674 71.323C91.9092 70.2217 91.5151 70.925 91.7715 69.5789C91.9531 68.6252 92.0423 68.258 91.6301 67.3536C90.971 65.9075 90.0444 64.8832 91.4485 63.5326C92.5976 62.4274 92.9482 61.763 92.9785 59.5965L85.626 53.1422C82.6677 50.149 88.2011 51.5892 81.1976 44.0898L76.9567 39.1337C77.4756 37.8953 77.9738 37.787 78.0262 35.778C78.0714 34.0463 77.6793 33.0861 77.4863 31.5499L76.419 29.1352C75.8486 28.1824 75.3692 27.6542 74.7806 26.9173C74.4154 26.4602 74.3016 26.3314 73.8608 25.954C73.3031 25.4765 73.2421 25.5324 72.8891 24.9234C71.8683 24.7451 70.9888 23.4066 67.9493 22.6235C61.8104 21.0415 54.3023 28.3561 51.389 28.3217L51.3893 28.3217Z" fill="#D3A655"/>
<path fill-rule="evenodd" clip-rule="evenodd" d="M47.0955 68.2775L48.2047 67.4333C48.4878 67.7749 48.2334 67.5175 48.2617 68.1329C48.2426 69.4751 51.7653 72.2511 52.9867 72.9374C54.0473 73.5333 55.1547 74.0211 56.488 74.2587C57.1717 74.3805 57.9105 74.3854 58.537 74.2367C58.7252 74.1921 59.3312 73.9954 59.4915 73.9244C60.254 73.5864 59.8078 73.8104 59.9323 73.5926C60.5232 72.1923 59.6228 74.0494 59.6022 72.8504C59.5923 72.2828 59.2623 72.6052 59.9393 72.4215C60.1974 72.3514 60.4287 72.4322 60.5067 72.4727C61.4574 72.9674 60.4186 72.2455 60.9771 75.2412C60.6104 75.2087 59.8358 75.2289 59.8043 75.2368L59.2708 75.5287C58.3351 75.9988 58.2254 75.7742 57.3515 75.7417C57.3099 75.7402 57.2533 75.7364 57.2127 75.7371L54.8956 75.7594C54.8607 75.7603 53.9398 75.8677 53.8601 75.8744C53.8601 79.576 53.0459 77.0888 53.7682 82.1998C53.9562 83.5298 53.6318 83.2952 53.6429 84.5488C53.6508 85.4346 53.9417 85.71 53.9195 86.6327L53.839 90.0487C53.8669 90.8739 54.2641 91.5734 53.0215 92.7421C52.1463 92.4028 52.2931 91.7952 51.5559 92.5512L51.3455 91.9168C50.9853 92.5418 51.3968 92.0906 50.7087 92.339C48.7187 95.5242 45.8579 97.4196 45.3181 98.6436C46.1174 99.1363 47.7134 99.6978 48.8345 100.146C51.5337 101.225 56.2823 103.612 58.9997 104.895C62.992 106.781 68.6331 112.008 72.0416 111.693C72.8042 111.542 73.3583 111.478 73.9842 111.311C75.0415 111.028 74.7466 111.021 75.8434 111.337C75.5855 110.723 76.0873 109.998 74.3155 110.726C73.5733 111.031 74.0808 111.008 73.3329 111.126C74.109 109.278 74.4996 111.71 74.4194 107.538C74.3468 103.759 74.9154 99.9958 74.8762 97.4166C74.8609 96.4056 74.6698 96.3189 75.2164 95.7185C75.7327 96.3651 75.1821 97.0342 75.1814 97.036C74.8019 98.2333 75.1277 98.0543 75.515 98.4106C75.707 97.5696 75.8953 96.3546 76.4726 95.7185C76.6454 95.9743 76.8045 96.036 76.6869 96.8465C76.5349 97.8938 76.5652 96.4227 76.465 97.8147L76.9917 97.563C77.3917 96.6077 77.9306 94.5598 78.5319 93.1548C79.1672 91.6706 79.1445 89.6814 78.425 88.3285C78.1606 88.0731 77.9102 87.9418 77.9454 87.0701C77.9565 86.7933 78.147 86.323 78.2361 86.0076L77.8853 85.7117C77.8478 85.6847 77.801 85.6444 77.7594 85.6179C77.1705 85.241 76.9976 85.2631 76.2774 85.2579C75.45 85.252 74.5337 85.3182 73.7506 85.4126C73.5187 84.7616 73.4041 85.6072 73.921 85.0091C73.9508 84.9747 74.2712 84.7651 74.3209 84.7157C73.3397 84.6272 73.4762 84.5027 72.6636 84.3385L67.4375 83.9223C67.9862 82.1864 68.1296 83.3791 68.0983 82.5206L64.1848 81.4581C63.779 82.2279 62.0837 81.6615 60.9708 81.3638L61.4846 81.1049C62.5339 80.6435 63.0422 80.5087 64.201 80.5056C64.2243 79.8703 64.3158 79.5207 64.358 78.9767C64.4461 77.8391 64.3963 78.9404 64.1614 78.3237C63.6226 76.9092 64.35 77.2546 64.2546 75.8211C64.3071 73.093 62.3154 69.3491 61.2775 67.5525C58.765 63.2037 54.0932 55.9985 48.5904 60.4249C45.9192 62.5736 46.0778 66.7683 47.0954 68.2775H47.0955Z" fill="#FDFDFD"/>
<path fill-rule="evenodd" clip-rule="evenodd" d="M68.2276 40.8883L68.2586 41.8911C66.8799 42.1307 67.2795 42.1179 67.2601 43.2387C66.4862 43.0545 64.4067 43.6622 64.3162 44.0014C64.7413 44.7338 65.1511 44.0223 66.0107 44.3983C66.4461 44.5889 66.0377 44.2737 66.0538 44.8504C66.0543 44.8644 66.0534 44.9284 66.0555 44.9403C66.0571 44.9497 66.072 45.001 66.075 45.0081L66.2133 45.0578C65.6379 45.095 64.2353 44.9355 63.9805 45.4789C63.7111 46.0539 64.4368 45.4623 63.445 45.0334C63.2667 46.2197 63.4117 45.8741 63.6696 46.6761L64.0718 48.6437C64.0669 48.7278 64.0225 48.982 64.0113 49.0675L63.6259 51.8724C63.3555 53.7174 63.9578 55.4267 63.9421 56.5674L63.9614 57.2323C63.971 57.2953 63.9953 57.3495 64.0059 57.4129C64.1921 58.5201 64.2893 57.8927 63.7742 58.5934L65.0395 60.3843C70.819 67.8581 69.3883 73.8739 78.6887 76.1492C80.3462 76.5548 83.1894 76.9385 83.2732 74.4139C83.3541 71.9772 82.948 70.8684 84.1925 68.8858C85.1417 67.3737 86.2296 66.8955 87.1427 66.1603L87.5037 65.7951C87.2315 65.4065 87.004 65.5297 86.9769 65.5371C86.3693 65.7038 86.5489 65.8057 86.1403 65.3207C86.5099 64.9285 86.707 64.761 87.3618 64.6875L85.9194 64.676C85.5953 65.7172 86.1132 65.2848 85.267 65.918C84.8817 65.67 84.7255 65.6938 84.4536 65.5785L84.7197 64.4491C84.7361 64.4532 84.4296 64.3458 84.3896 64.2953C84.1728 64.0213 84.1172 64.3117 84.0117 63.4222C85.5384 63.8527 84.1897 64.0453 85.7044 63.7163L85.2469 62.9979C84.4027 62.6764 85.1069 63.3122 84.8024 62.5484C84.4512 61.6679 84.6857 62.1362 84.8492 61.9435C85.1262 61.3683 84.1245 61.2883 86.7315 61.3092C86.7315 59.1115 87.2362 59.5547 87.2373 59.5536C88.8821 57.9152 87.1271 60.4736 87.7438 58.9883C87.0379 58.365 86.3171 58.5777 85.2659 58.5662C85.2659 56.9054 84.7539 56.9939 84.8411 56.4754C84.8451 56.4516 84.8632 56.393 84.8726 56.371L85.5313 56.7874C85.5622 56.823 85.6011 56.8713 85.6341 56.9068C85.6781 56.9543 85.8116 57.0938 85.8604 57.1381C85.8989 57.1728 85.9466 57.212 85.9864 57.2448L87.3609 58.5651C87.6314 57.3902 87.573 58.1702 87.5713 56.8785L88.192 56.7714C87.439 56.2946 86.3614 55.175 85.5799 54.4563C84.5621 53.5203 83.6682 53.2142 83.9856 51.1478C84.4019 48.4383 81.5472 46.3904 80.0351 44.6352L75.6719 38.6851C74.3564 37.7173 69.7256 37.6671 68.2274 40.8883H68.2276Z" fill="#FDFDFD"/>
<path fill-rule="evenodd" clip-rule="evenodd" d="M47.096 68.2779C47.5787 69.9866 48.6699 71.7066 49.568 73.2415C51.1563 75.9557 50.8675 75.3713 50.8327 79.0421C50.7819 84.4218 51.9725 87.0211 50.7093 92.3395C51.3973 92.0912 50.9858 92.5423 51.3461 91.9173L51.5565 92.5517C52.2937 91.7957 52.1469 92.4033 53.022 92.7426C54.2647 91.5739 53.8674 90.8744 53.8395 90.0493L53.9201 86.6332C53.9422 85.7104 53.6513 85.4351 53.6435 84.5493C53.6324 83.2957 53.9567 83.5303 53.7687 82.2003C53.0465 77.0893 53.8606 79.5765 53.8606 75.8749C53.9403 75.8681 54.8612 75.7608 54.8962 75.7599L57.2132 75.7376C57.2538 75.7369 57.3104 75.7406 57.352 75.7421C58.226 75.7747 58.3356 75.9992 59.2713 75.5291L59.8048 75.2373C59.8363 75.2294 60.6109 75.2091 60.9776 75.2416C60.4191 72.246 61.4579 72.9679 60.5072 72.4732C60.4292 72.4326 60.1979 72.3519 59.9398 72.4219C59.2628 72.6056 59.5929 72.2832 59.6027 72.8508C59.6234 74.0499 60.5237 72.1928 59.9328 73.593L60.0208 73.6748C59.3983 74.7749 57.4191 74.7917 56.035 74.5097C50.2187 73.3246 47.4669 68.6574 48.2622 68.1332C48.2339 67.5178 48.4883 67.7752 48.2052 67.4336L47.0959 68.2779H47.096Z" fill="#FCFCFA"/>
<path fill-rule="evenodd" clip-rule="evenodd" d="M64.1841 81.4584L63.7024 81.2275C65.4609 81.1852 70.7468 82.4711 72.8327 82.9109C76.5075 83.6857 79.462 83.2551 83.0709 83.4617C82.8823 83.5689 83.0966 83.5393 82.533 83.676C81.9331 83.8216 82.7308 83.6655 82.1281 83.7409C76.5414 84.4405 72.929 83.265 68.0975 82.5209C68.1288 83.3794 67.9854 82.1867 67.4367 83.9226L72.6628 84.3388C73.4754 84.5031 73.339 84.6275 74.3201 84.716C74.2705 84.7654 73.95 84.975 73.9203 85.0094C73.4033 85.6075 73.5179 84.7619 73.7499 85.4129C74.5331 85.3186 75.4493 85.2524 76.2767 85.2582C76.9968 85.2633 77.1698 85.2413 77.7587 85.6182C77.8002 85.6447 77.8471 85.685 77.8846 85.712L78.2354 86.0079C78.1463 86.3233 77.9558 86.7936 77.9447 87.0704C77.9095 87.9421 78.1599 88.0734 78.4243 88.3288C78.3861 87.7555 78.2931 86.8488 78.4466 86.3005C79.0248 84.2344 86.402 84.9147 88.6239 83.3055C87.2899 83.2603 85.9753 83.3955 84.646 83.2897C79.91 82.9128 73.2903 80.6932 68.7625 79.2334C64.4504 77.8431 65.4561 77.1033 64.254 75.8213C64.3495 77.2548 63.622 76.9095 64.1608 78.3239C64.3958 78.9407 64.4456 77.8392 64.3574 78.9769C64.3152 79.5209 64.2236 79.8705 64.2004 80.5059C63.0416 80.5089 62.5333 80.6437 61.484 81.1052L60.9702 81.3641C62.0831 81.6618 63.7784 82.2281 64.1843 81.4584H64.1841Z" fill="#FAFAF4"/>
<path fill-rule="evenodd" clip-rule="evenodd" d="M85.9217 72.2388C87.0926 71.1964 88.1286 70.3925 90.3051 70.3561L85.9217 72.2388ZM90.9131 70.5991C90.9857 69.6244 91.8616 67.488 90.5503 67.5199C90.2127 67.5281 87.791 68.7773 87.4311 68.9868C82.4735 71.872 87.6102 77.3508 88.1026 77.6612C88.796 78.0982 91.5394 78.4283 91.2002 77.1098C90.8246 75.6498 89.8621 75.332 91.0396 73.6819C92.4709 71.6762 91.3357 71.1556 90.9132 70.5992L90.9131 70.5991Z" fill="#FAFAFA"/>
<path fill-rule="evenodd" clip-rule="evenodd" d="M63.7734 58.5939C64.2885 57.893 64.1913 58.5206 64.0051 57.4133C63.9945 57.35 63.9702 57.2957 63.9606 57.2328L63.9413 56.5678C63.9569 55.4271 63.3547 53.7177 63.6251 51.8729L64.0105 49.0679C64.0216 48.9823 64.0661 48.7282 64.071 48.6441L63.6688 46.6765C63.4108 45.8744 63.2659 46.2201 63.4442 45.0338C64.436 45.4627 63.7103 46.0543 63.9797 45.4793C64.2345 44.9359 65.6371 45.0953 66.2126 45.0582L66.0743 45.0085C66.0712 45.0014 66.0564 44.95 66.0547 44.9407C66.0526 44.9288 66.0534 44.8649 66.0531 44.8508C66.0369 44.2741 66.4454 44.5894 66.0099 44.3987C65.1503 44.0226 64.7405 44.7342 64.3154 44.0018C64.4059 43.6626 66.4854 43.0548 67.2594 43.2391C67.2787 42.1183 66.8791 42.131 68.2578 41.8915L68.2269 40.8887C67.5611 41.1936 67.006 41.7252 65.9265 42.0317C63.9207 42.6013 63.3074 41.4322 61.5939 48.0151C61.1511 49.7166 60.6734 52.4215 61.113 54.2108C61.382 55.3055 62.1741 56.7436 62.7889 57.5838L63.7736 58.594L63.7734 58.5939Z" fill="#FCFCFA"/>
<path fill-rule="evenodd" clip-rule="evenodd" d="M85.248 62.999L85.1722 62.0544C86.1269 63.1274 85.6117 63.6062 87.6192 63.9334L87.2754 62.9562L88.3038 62.6657C90.133 62.5572 89.7591 61.9065 90.5535 62.4601L89.2451 63.0752C88.9777 63.4991 88.9895 63.6037 88.9014 63.7462C88.5141 64.3732 88.8193 63.9735 88.3635 64.2229C87.1881 64.365 86.5866 64.4785 85.7053 63.7174C84.1907 64.0464 85.5393 63.8538 84.0127 63.4233C84.1181 64.3128 84.1738 64.0225 84.3905 64.2963C84.4306 64.347 84.737 64.4544 84.7206 64.4502L84.4546 65.5796C84.7264 65.6948 84.8827 65.6712 85.2679 65.919C86.1142 65.2859 85.5963 65.7182 85.9204 64.6771L87.3627 64.6886C86.7079 64.762 86.5108 64.9296 86.1412 65.3218C86.5499 65.8067 86.3702 65.7048 86.9778 65.5382C87.0049 65.5307 87.2324 65.4076 87.5046 65.7962C90.4878 65.0755 89.6073 64.1021 90.2676 63.3972C90.7377 62.8953 92.0908 62.8842 91.7505 59.8343C90.4108 58.9187 89.4735 57.8251 88.1929 56.7724L87.5722 56.8795C87.5738 58.1713 87.6322 57.3912 87.3618 58.5662L85.9873 57.2459C85.9476 57.213 85.8998 57.1739 85.8613 57.1391C85.8125 57.0948 85.6791 56.9553 85.635 56.9078C85.602 56.8723 85.5632 56.824 85.5323 56.7885L84.8736 56.3721C84.8642 56.3941 84.8461 56.4525 84.8421 56.4765C84.7548 56.995 85.2668 56.9064 85.2668 58.5672C86.318 58.5787 87.0388 58.3661 87.7447 58.9893C87.128 60.4746 88.8829 57.9162 87.2382 59.5547C87.237 59.5557 86.7325 59.1125 86.7325 61.3102C84.1254 61.2892 85.1271 61.3693 84.8501 61.9445C84.6867 62.1372 84.4521 61.6689 84.8034 62.5494C85.1079 63.3131 84.4037 62.6773 85.2479 62.9989L85.248 62.999Z" fill="#FCFCFA"/>
<path fill-rule="evenodd" clip-rule="evenodd" d="M72.0412 111.693L74.5838 112.411C75.4394 112.54 76.2537 112.738 77.0798 112.782C76.7847 110.093 76.2141 108.269 76.211 105.217C76.208 102.227 76.5863 100.342 76.9886 97.5633L76.4621 97.8149C76.5623 96.4228 76.532 97.894 76.6839 96.8467C76.8014 96.0362 76.6424 95.9745 76.4697 95.7188C75.8926 96.3549 75.7045 97.5698 75.5126 98.4108C75.1255 98.0545 74.7998 98.2335 75.1791 97.0363C75.1798 97.0344 75.7302 96.3653 75.2141 95.7188C74.6679 96.3191 74.859 96.4059 74.8741 97.4168C74.9133 99.996 74.3449 103.759 74.4176 107.538C74.4978 111.71 74.1074 109.279 73.3316 111.126C74.0791 111.009 73.572 111.031 74.3137 110.726C76.0846 109.998 75.583 110.723 75.8408 111.337C74.7446 111.021 75.0394 111.028 73.9826 111.311C73.357 111.478 72.8032 111.542 72.041 111.693L72.0412 111.693Z" fill="#FBFEF9"/>
<path fill-rule="evenodd" clip-rule="evenodd" d="M64.1846 81.4575L68.0981 82.5201C72.9295 83.2641 76.5419 84.4396 82.1287 83.7401C82.7314 83.6646 81.9337 83.8207 82.5336 83.6751C83.0972 83.5384 82.8829 83.568 83.0715 83.4609C79.4626 83.2543 76.5081 83.6849 72.8333 82.9101C70.7473 82.4702 65.4615 81.1843 63.703 81.2266L64.1847 81.4575H64.1846Z" fill="#CAB687"/>
<path fill-rule="evenodd" clip-rule="evenodd" d="M59.9319 73.5925C59.8074 73.8103 60.2536 73.5864 59.4912 73.9243C59.3309 73.9953 58.7249 74.192 58.5367 74.2367C57.9102 74.3853 57.1714 74.3805 56.4878 74.2586C55.1544 74.0211 54.0471 73.5332 52.9865 72.9373C51.7651 72.2509 48.2425 69.475 48.2616 68.1328C47.4664 68.657 50.218 73.3242 56.0343 74.5093C57.4183 74.7913 59.3975 74.7744 60.0201 73.6744L59.932 73.5926L59.9319 73.5925Z" fill="#CAB687"/>
<path fill-rule="evenodd" clip-rule="evenodd" d="M87.6181 63.9317L88.3628 64.2213C88.8189 63.9718 88.5136 64.3715 88.901 63.7446C88.9892 63.602 88.9773 63.4976 89.2449 63.0735C88.4076 63.0445 88.3031 63.3121 88.3031 62.6641L87.2742 62.9546L87.6181 63.9317Z" fill="#F4F9D9"/>
<path fill-rule="evenodd" clip-rule="evenodd" d="M85.2464 62.9983L85.704 63.7167C86.5857 64.4778 87.1877 64.3643 88.3636 64.2222L87.6189 63.9326C85.6103 63.6056 86.1258 63.1266 85.1707 62.0537L85.2464 62.9983H85.2464Z" fill="#CAB687"/>
<path fill-rule="evenodd" clip-rule="evenodd" d="M85.9227 72.2392L90.3063 70.3564C88.1296 70.3928 87.0936 71.1968 85.9227 72.2392Z" fill="#CAB687"/>
<path fill-rule="evenodd" clip-rule="evenodd" d="M88.3018 62.6662C88.3018 63.3143 88.4062 63.0467 89.2435 63.0757L90.5526 62.4606C89.7578 61.907 90.1319 62.5577 88.3018 62.6662Z" fill="#D3AB6B"/>
<circle cx="61" cy="61" r="60" stroke="#AB7D24" stroke-width="2"/>
</g>
</svg>
