<svg viewBox="0 0 69 69" fill="none" xmlns="http://www.w3.org/2000/svg">
<path d="M68.2345 36.5623V34.1465H66.4967C65.1199 34.1465 63.7574 34.4868 62.5226 35.093C63.3612 33.9218 63.8322 32.5025 63.8322 31.0121C63.8322 29.1502 63.1158 27.4006 61.8127 26.0837L59.43 23.6756L57.0473 26.0837C55.7442 27.4006 55.0278 29.1502 55.0278 31.0121C55.0278 31.4181 55.074 31.8152 55.1422 32.2067C54.5028 32.0243 53.8414 31.9219 53.1679 31.9219H50.6256V34.3378C50.6256 35.2487 50.7763 36.1508 51.0526 37.0117L50.9293 36.9494L50.1149 41.067C49.9146 42.0802 49.864 43.108 49.9465 44.1235L49.525 43.6964L47.3107 45.9342C46.1001 47.1577 45.3605 48.7271 45.1734 50.4222L44.0222 49.2577L41.9257 51.3765C40.4608 52.857 39.62 54.9069 39.62 57.0013C39.62 58.2292 39.9073 59.4583 40.4509 60.5583L41.502 62.6827C39.1314 63.8139 36.6584 64.6926 34.1172 65.3099C31.576 64.6926 29.1042 63.8139 26.7325 62.6827L27.7835 60.5583C28.3272 59.4583 28.6145 58.2281 28.6145 57.0013C28.6145 54.9069 27.7736 52.857 26.3088 51.3765L24.2122 49.2577L23.061 50.4211C22.874 48.726 22.1344 47.1566 20.9238 45.9331L18.7094 43.6964L18.2879 44.1224C18.3716 43.1069 18.3199 42.0802 18.1196 41.0659L17.3051 36.9483L17.1819 37.0105C17.4581 36.1508 17.6089 35.2487 17.6089 34.3378V31.9219H15.0666C14.3931 31.9219 13.7305 32.0243 13.0922 32.2067C13.1604 31.8152 13.2067 31.417 13.2067 31.0121C13.2067 29.1502 12.4902 27.4006 11.1871 26.0837L8.80445 23.6756L6.42174 26.0837C5.11868 27.4006 4.40222 29.1502 4.40222 31.0121C4.40222 32.5025 4.87326 33.9218 5.71188 35.093C4.47706 34.4868 3.11457 34.1465 1.73778 34.1465H0V36.5623C0 38.8536 0.920065 41.0981 2.52357 42.7187C2.63693 42.8332 2.76019 42.9367 2.88015 43.0446H2.20111V46.2468C2.20111 48.0653 2.90217 49.7749 4.17441 51.0607C4.92169 51.8159 5.81644 52.3653 6.79043 52.6957L3.90477 53.4242L4.88977 55.4163C5.42574 56.5007 6.129 57.4851 6.97642 58.3427C8.53701 59.9198 10.5048 60.9843 12.6696 61.4225L12.948 61.4792C12.8985 61.5482 12.8424 61.6105 12.7962 61.6817L11.6791 63.3745L13.6073 64.6737C15.2878 65.8037 17.2413 66.4021 19.2597 66.4021C21.2781 66.4021 23.2316 65.8037 24.9111 64.6725L25.2633 64.4345C26.5608 65.0774 27.8804 65.6636 29.2341 66.1608C27.8903 66.3065 26.5388 66.4021 25.1785 66.4021H20.9106V68.6266H25.1785C28.2028 68.6266 31.1975 68.2685 34.1172 67.6C37.037 68.2685 40.0316 68.6266 43.0559 68.6266H47.3239V66.4021H43.0559C41.6957 66.4021 40.3442 66.3065 39.0004 66.1619C40.353 65.6647 41.6736 65.0785 42.9701 64.4356L43.3223 64.6737C45.0028 65.8037 46.9563 66.4021 48.9747 66.4021C50.9931 66.4021 52.9466 65.8037 54.6261 64.6725L56.5543 63.3734L55.4372 61.6806C55.3899 61.6094 55.3337 61.5471 55.2853 61.4781L55.5638 61.4214C57.7286 60.9832 59.6963 59.9187 61.2569 58.3415C62.1055 57.484 62.8076 56.4996 63.3436 55.4152L64.3297 53.4231L61.444 52.6946C62.418 52.3642 63.3117 51.8148 64.0601 51.0595C65.3323 49.7749 66.0333 48.0653 66.0333 46.2468V43.0446H65.3543C65.4743 42.9367 65.5975 42.8332 65.7109 42.7187C67.3144 41.0981 68.2345 38.8536 68.2345 36.5623ZM18.0513 47.5059L18.7094 46.8418L19.3676 47.507C20.3625 48.5125 20.9106 49.8494 20.9106 51.272C20.9106 52.2352 20.6519 53.1829 20.16 54.0104L18.7094 56.4551L17.2589 54.0126C16.767 53.1829 16.5083 52.2363 16.5083 51.272C16.5083 49.8494 17.0564 48.5125 18.0513 47.5059ZM15.9614 41.503C16.2915 43.1703 16.1352 44.8854 15.5101 46.4637C14.9808 47.8017 14.1322 48.9585 13.0537 49.8783C12.7598 49.3133 12.4924 48.7383 12.2382 48.1576C12.1578 47.943 12.0588 47.7372 11.9597 47.5314C11.9542 47.5192 11.9509 47.5059 11.9465 47.4936H12.1061V46.2368C12.1061 45.6873 12.1721 45.1367 12.3053 44.5984C12.7719 42.7165 14.0112 41.1337 15.7126 40.2428L15.9614 41.503ZM14.3645 52.1184C14.2995 52.0172 14.228 51.9182 14.1642 51.8159C14.2214 51.7703 14.2786 51.7269 14.3347 51.6813C14.3424 51.8281 14.3479 51.9738 14.3645 52.1184ZM12.2701 35.0029C13.0999 34.4423 14.0673 34.1465 15.0666 34.1465H15.4078V34.3378C15.4078 36.044 14.7232 37.7146 13.5291 38.9214C12.6773 39.7823 11.59 40.3751 10.4245 40.6476C10.3144 40.2862 10.19 39.9314 10.0382 39.5888C10.0074 39.2562 9.98644 38.9214 9.96773 38.5866L10.2825 37.6323C10.6358 36.5612 11.3412 35.6269 12.2701 35.0029ZM10.5554 42.8922C10.5532 42.8978 10.5499 42.9022 10.5488 42.9067C10.5477 42.9022 10.5466 42.8978 10.5466 42.8933C10.5499 42.8933 10.5521 42.8922 10.5554 42.8922ZM7.97793 27.6564L8.80445 26.8211L9.63096 27.6564C10.5048 28.5395 11.0056 29.763 11.0056 31.0121C11.0056 32.6026 10.2242 34.0786 8.9156 34.9606L8.80445 35.0352L8.69329 34.9606C7.38473 34.0775 6.60333 32.6015 6.60333 31.0121C6.60333 29.763 7.10409 28.5395 7.97793 27.6564ZM4.07976 41.1459C2.88566 39.9391 2.20111 38.2685 2.20111 36.5623V36.3877C3.52288 36.4789 4.81163 36.9605 5.87367 37.7647C6.742 38.422 7.42435 39.2885 7.90199 40.2628C8.00214 41.1949 8.14521 42.1169 8.33011 43.0301C6.742 42.9567 5.20673 42.2849 4.07976 41.1459ZM5.73059 49.4879C4.88647 48.6337 4.40222 47.4536 4.40222 46.2468V45.2691H4.90518C6.41624 45.2691 7.83596 45.863 8.9046 46.9431C9.3162 47.359 9.65077 47.8395 9.91711 48.3579C10.0052 48.5747 10.1086 48.7861 10.2011 49.0019C10.2726 49.1976 10.3419 49.3945 10.3914 49.598L10.6963 50.8304H8.93761C7.74351 50.8304 6.57472 50.341 5.73059 49.4879ZM13.1032 59.2402C11.3654 58.8899 9.78614 58.0357 8.53371 56.7699C7.98123 56.2116 7.50579 55.5876 7.11729 54.9058L8.08358 54.6611C9.27658 54.3607 10.5345 54.3607 11.7275 54.6611C12.7246 54.9124 13.6568 55.3696 14.4679 55.9969C15.2625 56.9779 16.1 57.9178 17.0058 58.7842C16.2761 58.9455 15.585 59.228 14.9522 59.614L13.1032 59.2402ZM14.83 62.8217L14.7364 62.7583C15.6015 61.5549 16.9805 60.8408 18.4618 60.8408C18.8327 60.8408 19.2036 60.8897 19.5635 60.9798C20.2998 61.5393 21.0602 62.0698 21.8515 62.5615C22.2246 62.7939 22.612 62.9975 22.9917 63.2166C20.445 64.5635 17.2391 64.4445 14.83 62.8217ZM25.8146 59.5639L24.768 61.6806C24.4896 61.5271 24.2155 61.3647 23.9404 61.2045L22.8574 59.5628C22.3039 58.723 22.0111 57.7465 22.0111 56.7377C22.0111 55.3774 22.5361 54.0994 23.487 53.1373L24.2122 52.4032L24.7526 52.9493C25.808 54.0159 26.4133 55.4919 26.4133 57.0013C26.4133 57.8855 26.2053 58.772 25.8146 59.5639ZM58.6035 27.6564L59.43 26.8211L60.2565 27.6564C61.1304 28.5395 61.6311 29.763 61.6311 31.0121C61.6311 32.6026 60.8497 34.0786 59.5412 34.9606L59.43 35.0352L59.3189 34.9606C58.0103 34.0775 57.2289 32.6015 57.2289 31.0121C57.2289 29.763 57.7297 28.5395 58.6035 27.6564ZM52.8267 34.1465H53.1679C54.1672 34.1465 55.1345 34.4423 55.9655 35.0029C56.8943 35.628 57.5987 36.5612 57.9531 37.6323L58.2678 38.5866C58.2491 38.9214 58.2282 39.2562 58.1974 39.5888C58.0455 39.9314 57.92 40.2873 57.8111 40.6476C56.6456 40.3751 55.5583 39.7823 54.7064 38.9214C53.5112 37.7146 52.8267 36.044 52.8267 34.3378V34.1465ZM57.6889 42.8944C57.6878 42.8989 57.6867 42.9033 57.6867 42.9089C57.6845 42.9033 57.6823 42.8989 57.6801 42.8933C57.6823 42.8933 57.6856 42.8933 57.6889 42.8944ZM52.2731 41.503L52.5218 40.2428C54.2233 41.1337 55.4625 42.7165 55.928 44.5973C56.0612 45.1367 56.1283 45.6873 56.1283 46.2368V47.4936H56.2879C56.2824 47.5059 56.2791 47.5192 56.2747 47.5314C56.1757 47.7372 56.0766 47.943 55.9963 48.1576C55.7432 48.7394 55.4746 49.3144 55.1808 49.8783C54.1022 48.9585 53.2537 47.8017 52.7243 46.4626C52.0992 44.8854 51.9429 43.1703 52.2731 41.503ZM54.0703 51.817C54.0065 51.9193 53.936 52.0172 53.87 52.1195C53.8865 51.9749 53.8909 51.8292 53.8997 51.6824C53.9558 51.728 54.0142 51.7714 54.0703 51.817ZM48.8669 47.507L49.525 46.8418L50.1831 47.507C51.178 48.5125 51.7261 49.8494 51.7261 51.272C51.7261 52.2352 51.4675 53.1829 50.9755 54.0104L49.525 56.4551L48.0745 54.0126C47.5825 53.1829 47.3239 52.2363 47.3239 51.272C47.3239 49.8494 47.872 48.5125 48.8669 47.507ZM43.4664 61.6806L42.4198 59.5639C42.028 58.772 41.8211 57.8855 41.8211 57.0013C41.8211 55.4919 42.4264 54.0159 43.4819 52.9493L44.0222 52.4032L44.7475 53.1361C45.6984 54.0983 46.2233 55.3774 46.2233 56.7377C46.2233 57.7465 45.9306 58.723 45.377 59.5628L44.2941 61.2045C44.0189 61.3647 43.7449 61.5271 43.4664 61.6806ZM53.4045 62.8217C50.9943 64.4445 47.7883 64.5635 45.2416 63.2166C45.6213 62.9975 46.0087 62.7939 46.3818 62.5615C47.1731 62.0698 47.9336 61.5382 48.6699 60.9798C49.0309 60.8897 49.4017 60.8408 49.7726 60.8408C51.2551 60.8408 52.6341 61.5549 53.4991 62.7594L53.4045 62.8217ZM59.7007 56.7699C58.4483 58.0357 56.869 58.8899 55.1323 59.2414L53.2834 59.6151C52.6506 59.2291 51.9594 58.9466 51.2298 58.7853C52.1355 57.9189 52.972 56.979 53.7677 55.998C54.5788 55.3707 55.5109 54.9135 56.508 54.6622C57.701 54.3619 58.959 54.3619 60.152 54.6622L61.1183 54.9069C60.7287 55.5865 60.2532 56.2116 59.7007 56.7699ZM63.8322 46.2468C63.8322 47.4536 63.348 48.6337 62.5039 49.4879C61.6586 50.341 60.491 50.8304 59.2968 50.8304H57.5382L57.8419 49.598C57.8925 49.3945 57.9608 49.1976 58.0323 49.0019C58.1259 48.7861 58.2282 48.5759 58.3162 48.3579C58.5826 47.8407 58.9172 47.359 59.3288 46.9431C60.3985 45.863 61.8182 45.2691 63.3293 45.2691H63.8322V46.2468ZM64.1547 41.1459C63.0277 42.2849 61.4925 42.9567 59.9044 43.0301C60.0892 42.1181 60.2323 41.1949 60.3325 40.2628C60.809 39.2885 61.4925 38.422 62.3619 37.7647C63.4228 36.9594 64.7116 36.4789 66.0333 36.3877V36.5623C66.0333 38.2685 65.3488 39.9391 64.1547 41.1459Z" fill="#D29C4E" fill-opacity="0.2"/>
<path d="M25.3127 11.9012H23.1116V14.1257H25.3127V11.9012Z" fill="#D29C4E" fill-opacity="0.2"/>
<path d="M18.7095 15.238H16.5083V17.4625H18.7095V15.238Z" fill="#D29C4E" fill-opacity="0.2"/>
<path d="M16.7691 25.2484L20.0553 23.392C24.3464 20.9673 29.2098 19.6871 34.1171 19.6871C39.0245 19.6871 43.8879 20.9673 48.1778 23.392L51.4652 25.2484H53.707L57.5909 9.45313L49.1012 10.6855L45.564 3.49362L39.9292 8.07726L34.1171 0L28.3051 8.07837L22.6703 3.49473L19.1331 10.6866L10.6434 9.45424L14.5272 25.2484H16.7691ZM20.3943 13.1169L23.4219 6.96166L28.7255 11.2761L34.1171 3.7817L39.5077 11.275L44.8112 6.96055L47.8389 13.1158L54.6645 12.1237L51.9902 22.9961L49.252 21.4478C44.634 18.8406 39.3998 17.4625 34.1171 17.4625C28.8345 17.4625 23.6002 18.8406 18.9812 21.45L16.243 22.9983L13.5687 12.1259L20.3943 13.1169Z" fill="#D29C4E" fill-opacity="0.2"/>
<path d="M45.1229 11.9012H42.9218V14.1257H45.1229V11.9012Z" fill="#D29C4E" fill-opacity="0.2"/>
<path d="M51.7261 15.238H49.525V17.4625H51.7261V15.238Z" fill="#D29C4E" fill-opacity="0.2"/>
<path d="M34.1173 15.238C35.9376 15.238 37.4189 13.7409 37.4189 11.9012C37.4189 10.0615 35.9376 8.56444 34.1173 8.56444C32.2969 8.56444 30.8156 10.0615 30.8156 11.9012C30.8156 13.7409 32.2969 15.238 34.1173 15.238ZM34.1173 10.789C34.7248 10.789 35.2178 11.2873 35.2178 11.9012C35.2178 12.5152 34.7248 13.0135 34.1173 13.0135C33.5098 13.0135 33.0167 12.5152 33.0167 11.9012C33.0167 11.2873 33.5098 10.789 34.1173 10.789Z" fill="#D29C4E" fill-opacity="0.2"/>
</svg>
