<svg width="292" height="156" viewBox="0 0 292 156" fill="none" xmlns="http://www.w3.org/2000/svg">
<path fill-rule="evenodd" clip-rule="evenodd" d="M177.31 74.0212C180.075 79.2432 197.045 78.6167 200.744 78.6167L204.748 83.535L201.659 88.757C189.951 88.757 182.858 84.4461 172.371 82.9277C165.889 81.6939 118.409 112.095 109.772 117.013C93.7359 125.596 37.0092 156.32 17.5796 155.997C16.0358 155.997 15.1199 155.694 13.881 155.086C4.32768 150.775 5.8535 140.351 10.7922 135.432C12.0311 133.894 12.947 133.59 14.7969 132.983L81.3999 108.715C91.2773 104.728 139.385 85.681 146.783 75.8634L110.383 71.8573L110.078 87.5233L0 72.7874L0.93395 45.4616L169.588 70.9451L164.669 72.18C170.217 83.8399 163.43 70.3378 177.311 74.0223H177.312L177.31 74.0212ZM1.23776 35.625V35.3213V32.8717C1.84765 24.5736 4.32655 17.5094 8.94116 11.68C14.1848 5.22423 21.2783 1.84338 29.9157 2.16612C39.4689 2.16612 46.8674 5.22311 52.111 11.0715C57.0497 17.2046 59.5095 25.5037 59.5095 36.2514C59.5095 41.1506 59.2045 45.4616 57.9657 49.4487L45.9526 47.6064C46.8674 44.2267 47.1735 40.5421 47.1735 36.2514C47.1735 20.5854 41.6249 12.591 29.9168 12.591C24.6732 12.591 20.6684 14.4333 17.8846 18.7431C15.4248 22.4265 13.881 27.0221 13.5749 32.5668C13.5749 35.3202 12.9459 40.2385 13.2508 42.6881L0.932825 40.5422L1.23776 35.9275V35.6238V35.625ZM220.479 20.5854C218.629 19.978 216.456 19.978 214.301 19.978C212.146 19.978 210.297 19.978 208.447 20.5854C204.138 21.4965 200.115 23.6614 197.35 27.0232C193.022 31.6379 190.868 37.7709 190.868 45.1579C190.868 52.8295 192.718 58.9626 197.045 63.5772C201.05 68.1728 206.904 70.6414 214.302 70.6414C221.396 70.6414 227.249 68.1728 231.578 63.5772C235.582 58.9626 237.736 52.8295 237.736 45.1579C237.736 37.1635 235.582 31.0294 231.578 26.7196C228.794 23.3398 225.095 21.4976 220.481 20.5865L220.479 20.5854ZM190.867 10.7488C191.801 10.1414 192.106 9.22925 192.106 8.29916C192.106 6.15321 190.562 4.61575 188.407 4.61575H183.163V10.1414C183.468 10.4451 183.468 11.0715 183.773 11.3763C184.402 12.9138 185.013 15.0597 185.318 16.902H188.407C190.867 16.902 192.411 15.6682 192.411 13.5223C192.411 12.2874 191.801 11.3763 190.867 10.7499V10.7488ZM186.252 9.53293V7.38699H188.102C188.712 7.38699 189.017 7.69067 189.017 8.29803C189.017 8.9054 188.712 9.53182 188.102 9.53182H186.252V9.53293ZM186.252 14.4322V11.9826H188.102C189.017 11.9826 189.323 12.5899 189.323 13.2163C189.323 13.8237 189.018 14.4322 188.102 14.4322H186.252ZM204.443 16.9009L200.114 4.61463H197.654L193.02 16.9009H196.414L197.043 15.0586H200.743L201.353 16.9009H204.442H204.443ZM199.809 12.5899H197.654L198.894 9.22925L199.809 12.5899ZM215.54 16.9009L212.756 11.9826C213.385 11.6789 213.69 11.3752 213.995 11.0715C214.3 10.4451 214.605 9.53294 214.605 8.60284C214.605 6.45689 213.061 4.61575 210.601 4.61575H205.663V16.902H208.751V12.2874H209.685L211.84 16.902H215.539L215.54 16.9009ZM208.751 9.83662V7.38699H210.295C211.21 7.38699 211.839 7.99435 211.839 8.60284C211.839 9.22925 211.21 9.83662 210.295 9.83662H208.751ZM224.482 10.7477C225.397 10.1403 226.026 9.22813 226.026 8.29803C226.026 6.15209 224.482 4.61463 222.003 4.61463H216.779V16.9009H222.327C224.482 16.9009 226.026 15.6671 226.026 13.5211C226.026 12.2862 225.721 11.3752 224.482 10.7488V10.7477ZM219.848 9.53182V7.38587H221.698C222.632 7.38587 222.937 7.68955 222.937 8.29691C222.937 8.90428 222.632 9.53069 221.698 9.53069H219.848V9.53182ZM219.848 14.4311V11.9814H222.003C222.632 11.9814 222.937 12.5888 222.937 13.2152C222.937 13.8226 222.632 14.4311 222.003 14.4311H219.848ZM236.494 16.8998V14.4311H231.27V12.2851H235.884V9.53182H231.27V7.36682H236.494V4.6135H228.181V16.8998H236.494ZM248.22 16.8998L245.76 11.9814C246.37 11.6778 246.37 11.3741 246.675 11.0704C247.285 10.444 247.609 9.53181 247.609 8.60172C247.609 6.45577 246.064 4.61463 243.587 4.61463H238.667V16.9009H241.737V12.2862H242.671L244.825 16.9009H248.219L248.22 16.8998ZM241.738 9.8355V7.38587H243.282C244.216 7.38587 244.52 7.99323 244.52 8.60172C244.52 9.22813 244.216 9.8355 243.282 9.8355H241.738ZM255.924 7.99323L257.774 6.15097C257.164 5.52455 256.859 5.22087 256.229 4.91719C255.619 4.61351 254.703 4.6135 253.769 4.6135C251.004 4.6135 249.154 6.15097 249.154 8.6006C249.154 10.4429 250.375 11.6766 252.529 11.9803L254.073 12.284C254.702 12.284 255.007 12.5877 255.007 13.2141C255.007 14.1251 254.378 14.43 253.462 14.43C252.528 14.43 251.918 14.43 251.307 14.1263C251.002 13.8226 251.002 13.8226 250.678 13.5189L248.523 15.3612C249.457 16.2722 249.762 16.2722 250.373 16.5961C251.002 16.8998 251.917 17.2034 253.157 17.2034C256.226 17.2034 258.076 15.666 258.076 13.2163C258.076 11.0704 257.161 9.83662 254.702 9.53293L253.157 9.22925C252.528 9.22925 252.223 8.90652 252.223 8.29916C252.223 7.69179 252.852 7.36906 253.767 7.36906C254.376 7.36906 255.007 7.36906 255.312 7.36906C255.616 7.69179 255.616 7.69179 255.921 7.99547L255.924 7.99323ZM269.195 16.8998V4.6135H266.411V9.53182H263.017V4.6135H259.948V16.8998H263.017V11.9814H266.411V16.8998H269.195ZM280.597 10.7477V9.83662C280.597 7.99435 280.292 6.76057 279.358 5.84952C278.443 4.91943 277.508 4.61575 275.964 4.61575C274.743 4.61575 273.504 4.91943 272.59 5.84952C271.656 7.06537 271.351 7.99547 271.351 10.4451V11.0715C271.351 12.5911 271.351 14.4322 272.59 15.6671C273.504 16.5972 274.744 17.2046 275.964 17.2046C277.508 17.2046 278.748 16.5972 279.358 15.6671C280.902 14.4333 280.597 12.591 280.597 10.7488V10.7477ZM274.743 7.69067C275.048 7.38699 275.658 7.38699 275.964 7.38699C276.593 7.38699 276.898 7.38699 277.203 7.69067C277.508 8.29804 277.813 9.22813 277.813 10.444V11.0704C277.813 12.9127 277.508 13.52 277.203 13.8237C276.898 14.1274 276.593 14.4311 275.964 14.4311C275.659 14.4311 275.049 14.1274 274.743 13.8237C274.438 13.52 274.438 12.9127 274.438 11.0704V10.444C274.438 9.22813 274.438 8.29804 274.743 7.69067ZM282.752 4.61463V16.9009H285.84V12.5899H287.69C290.15 12.5899 292 11.0704 292 8.60284C292 6.45689 290.15 4.61575 287.69 4.61575H282.752V4.61463ZM285.84 9.83662V7.38699H287.385C288.3 7.38699 288.929 7.99435 288.929 8.60284C288.929 9.22925 288.3 9.83662 287.385 9.83662H285.84ZM68.1435 2.77236L79.5455 0V52.5236H79.2406L68.1435 50.9861V2.77236ZM88.7939 53.1321C88.4889 50.9861 88.184 48.5175 88.184 46.0678C88.184 38.3962 90.6438 31.9393 94.9726 27.0221C99.5872 22.4265 105.155 19.9769 111.924 19.9769C115.623 19.9769 119.018 20.5843 122.107 22.1229V2.77236L133.509 0V60.8037L122.107 58.9614V32.5668C119.647 30.4018 117.168 29.4908 114.403 29.4908C109.769 29.4908 106.376 31.0283 103.916 33.7827C101.437 36.5551 100.217 40.5433 100.217 45.7653C100.217 49.145 100.827 52.221 102.067 54.367C102.372 54.9743 102.677 55.5828 103.288 56.2093H102.983L89.1213 54.0633L88.7972 53.1332L88.7939 53.1321ZM141.23 61.7338L142.145 2.77236C151.087 2.46868 157.571 2.16499 161.27 2.16499C168.039 2.16499 173.607 3.68453 177.61 6.76057C181.309 9.83662 183.464 13.8248 183.464 19.3505C183.464 24.5725 180.68 28.8644 174.826 31.9404C183.159 34.7128 187.469 40.8458 187.469 49.7524C187.469 55.9044 185.009 60.8037 180.375 64.1846C179.46 64.811 177.915 66.3305 176.675 67.2606L173.606 66.6532L147.997 62.9508L141.228 61.7349L141.23 61.7338ZM154.177 12.2862V28.2559C156.027 28.5596 157.876 28.5596 159.726 28.5596C167.734 28.5596 171.434 25.8063 171.434 19.9769C171.434 14.7549 168.04 12.2862 160.966 12.2862C159.097 12.2862 156.637 12.2862 154.177 12.2862ZM154.177 37.7698V59.5879C156.332 59.8915 158.487 59.8915 160.031 59.8915C165.274 59.8915 168.974 58.9614 171.433 57.1192C173.912 55.5817 175.131 52.5236 175.131 48.5175C175.131 44.5304 173.91 41.7759 171.757 40.2385C169.583 38.3962 165.579 37.4661 160.029 37.4661C158.791 37.4661 156.941 37.4661 154.176 37.7698H154.177ZM202.591 45.1568C202.591 55.9044 206.594 61.1074 214.299 61.1074C217.692 61.1074 220.476 59.8915 222.631 57.1192C224.786 54.0622 225.72 50.3586 225.72 45.1557C225.72 34.408 222.002 29.186 214.299 29.186C210.6 29.186 207.834 30.7235 205.661 33.4779C203.811 36.2503 202.592 39.9337 202.592 45.1568H202.591ZM243.282 88.7559L238.972 83.5339L243.282 78.6156C244.216 78.6156 245.131 78.6156 246.37 78.6156C247.915 78.3119 249.154 78.3119 250.375 78.0083C252.53 77.4009 253.769 76.166 254.704 75.5586C255.314 74.6285 255.619 74.0212 255.924 73.09C256.229 72.4826 256.553 72.1789 256.229 71.2477C256.229 68.1716 255.009 64.1834 252.854 58.6578L237.428 20.888H249.155L262.712 54.3659L274.744 20.888H286.758L264.868 78.6145L264.563 78.9182C264.563 78.9182 259.625 89.3622 243.284 88.7548L243.282 88.7559ZM155.722 76.166C157.877 76.166 159.726 78.0083 159.726 80.1531C159.726 82.6027 157.876 84.464 155.722 84.1413C153.548 84.1413 151.699 82.299 151.699 80.1531C151.699 78.0071 153.549 76.166 155.722 76.166ZM21.5799 139.723C23.7347 139.723 25.5846 141.565 25.5846 143.729C25.5846 145.875 23.7347 147.716 21.5799 147.716C19.1201 147.716 17.5763 145.874 17.5763 143.405C17.5763 141.259 19.1201 139.418 21.5799 139.722V139.723Z" fill="#D29C4E"/>
</svg>
