<svg viewBox="0 0 56 67" fill="none" xmlns="http://www.w3.org/2000/svg">
<path d="M34.326 31.4808L34.9641 28.8998H38.5067C38.7833 28.9008 39.0502 28.7964 39.2541 28.6075C39.458 28.4186 39.5839 28.1591 39.6069 27.8806L41.3518 6.66919H47.3082C47.6 6.66919 47.8798 6.55208 48.0862 6.34363C48.2925 6.13518 48.4084 5.85246 48.4084 5.55766V1.11153C48.4084 0.816735 48.2925 0.534013 48.0862 0.32556C47.8798 0.117107 47.6 0 47.3082 0H14.3025C14.0107 0 13.7309 0.117107 13.5246 0.32556C13.3182 0.534013 13.2023 0.816735 13.2023 1.11153V5.55766C13.2023 5.85246 13.3182 6.13518 13.5246 6.34363C13.7309 6.55208 14.0107 6.66919 14.3025 6.66919H20.2589L22.0038 27.8806C22.0268 28.1591 22.1528 28.4186 22.3567 28.6075C22.5605 28.7964 22.8274 28.9008 23.104 28.8998H26.6466L27.2847 31.4808C23.0106 32.3623 19.2126 34.8157 16.6272 38.3655C14.0417 41.9153 12.853 46.3085 13.2915 50.6935C13.7299 55.0785 15.7643 59.1427 19.0002 62.0984C22.2361 65.054 26.4431 66.6905 30.8054 66.6905C35.1677 66.6905 39.3746 65.054 42.6105 62.0984C45.8464 59.1427 47.8808 55.0785 48.3193 50.6935C48.7577 46.3085 47.569 41.9153 44.9835 38.3655C42.3981 34.8157 38.6001 32.3623 34.326 31.4808ZM46.208 4.44613H41.5355L41.7192 2.22306H46.208V4.44613ZM15.4027 4.44613V2.22306H19.8915L20.0752 4.44613H15.4027ZM37.4945 26.6768H35.2061V2.22306H39.5112L37.4945 26.6768ZM33.0057 2.22306V8.89225H30.8054V11.1153H33.0057V17.7845H30.8054V20.0076H33.0057V26.6768H28.605V24.4537H30.8054V22.2306H28.605V15.5614H30.8054V13.3384H28.605V6.66919H30.8054V4.44613H28.605V2.22306H33.0057ZM22.0996 2.22306H26.4046V26.6768H24.1162L22.0996 2.22306ZM28.9141 28.8998H32.6966L32.1256 31.1907C31.6855 31.1574 31.2454 31.1229 30.8054 31.1229C30.3653 31.1229 29.9252 31.1574 29.4851 31.1907L28.9141 28.8998ZM30.8054 64.4688C27.759 64.4688 24.7811 63.5562 22.2481 61.8463C19.7151 60.1364 17.7409 57.706 16.5752 54.8625C15.4094 52.019 15.1043 48.8901 15.6987 45.8715C16.293 42.8529 17.7599 40.0801 19.914 37.9038C22.0681 35.7275 24.8126 34.2454 27.8004 33.645C30.7883 33.0445 33.8852 33.3527 36.6997 34.5305C39.5142 35.7083 41.9197 37.7029 43.6122 40.2619C45.3047 42.821 46.208 45.8296 46.208 48.9074C46.2036 53.0332 44.5795 56.9888 41.6919 59.9061C38.8042 62.8235 34.8891 64.4644 30.8054 64.4688Z" fill="#D29C4E" fill-opacity="0.2"/>
<path d="M30.8053 35.569C28.1942 35.569 25.6416 36.3513 23.4705 37.817C21.2994 39.2826 19.6073 41.3658 18.608 43.803C17.6088 46.2403 17.3473 48.9222 17.8567 51.5096C18.3661 54.097 19.6235 56.4737 21.4699 58.3391C23.3163 60.2045 25.6687 61.4748 28.2297 61.9895C30.7907 62.5042 33.4452 62.24 35.8576 61.2305C38.27 60.2209 40.3319 58.5113 41.7826 56.3178C43.2333 54.1243 44.0076 51.5455 44.0076 48.9074C44.0038 45.371 42.6116 41.9806 40.1366 39.48C37.6615 36.9794 34.3056 35.5729 30.8053 35.569ZM37.1336 39.8306L34.3259 42.6684L31.7504 38.3334C31.6452 38.1789 31.5045 38.0525 31.3402 37.9652C31.1759 37.8779 30.9931 37.8323 30.8075 37.8323C30.6219 37.8323 30.4391 37.8779 30.2748 37.9652C30.1106 38.0525 29.9698 38.1789 29.8647 38.3334L27.2891 42.6684L24.4792 39.8306C26.3279 38.5055 28.5386 37.7937 30.8053 37.7937C33.072 37.7937 35.2827 38.5055 37.1314 39.8306H37.1336ZM34.1213 50.2012L34.8287 54.4962L31.3719 52.401C31.2008 52.2971 31.0049 52.2422 30.8053 52.2422C30.6057 52.2422 30.4098 52.2971 30.2387 52.401L26.7819 54.4962L27.4894 50.2012C27.5181 50.0268 27.5052 49.848 27.4518 49.6796C27.3985 49.5112 27.3061 49.3582 27.1824 49.2331L24.235 46.2553L27.7248 45.5506C27.8751 45.5208 28.0176 45.4594 28.1429 45.3704C28.2682 45.2813 28.3735 45.1666 28.452 45.0337L30.8053 41.0633L33.163 45.0337C33.2416 45.1666 33.3469 45.2813 33.4722 45.3704C33.5975 45.4594 33.7399 45.5208 33.8903 45.5506L37.3757 46.2553L34.4282 49.2331C34.3046 49.3582 34.2122 49.5112 34.1588 49.6796C34.1054 49.848 34.0926 50.0268 34.1213 50.2012ZM30.8053 60.0227C28.6566 60.0261 26.5541 59.3927 24.7581 58.201C22.9621 57.0093 21.5514 55.3116 20.7007 53.3181C19.85 51.3246 19.5966 49.1228 19.972 46.9853C20.3473 44.8478 21.3349 42.8685 22.8124 41.2923L25.2736 43.7788L21.7838 44.4835C21.5886 44.5231 21.4078 44.6153 21.2605 44.7505C21.1132 44.8857 21.0049 45.0587 20.9472 45.2511C20.8895 45.4435 20.8846 45.6482 20.9329 45.8432C20.9812 46.0382 21.081 46.2164 21.2216 46.3587L25.2219 50.4002L24.2152 56.5058C24.181 56.715 24.2068 56.9297 24.2894 57.1246C24.3721 57.3195 24.5082 57.4864 24.6816 57.6057C24.8551 57.725 25.0587 57.7917 25.2685 57.7979C25.4782 57.8041 25.6854 57.7495 25.8655 57.6407L30.8053 54.6496L35.7397 57.6407C35.9198 57.7495 36.1269 57.8041 36.3367 57.7979C36.5464 57.7917 36.75 57.725 36.9235 57.6057C37.097 57.4864 37.2331 57.3195 37.3157 57.1246C37.3984 56.9297 37.4241 56.715 37.39 56.5058L36.3833 50.4002L40.3836 46.3587C40.5241 46.2168 40.624 46.039 40.6727 45.8444C40.7213 45.6497 40.7168 45.4454 40.6597 45.2531C40.6026 45.0608 40.4951 44.8877 40.3484 44.7522C40.2018 44.6167 40.0216 44.5238 39.8269 44.4835L36.3415 43.7788L38.8026 41.2923C40.2804 42.8688 41.268 44.8485 41.6432 46.9864C42.0185 49.1243 41.7647 51.3265 40.9135 53.3201C40.0623 55.3138 38.6509 57.0114 36.8542 58.2028C35.0575 59.3942 32.9544 60.0269 30.8053 60.0227Z" fill="#D29C4E" fill-opacity="0.2"/>
<path d="M11.903 37.6921C10.7626 37.6906 9.6694 37.2322 8.86316 36.4174C8.05692 35.6027 7.60348 34.4981 7.60231 33.346C7.60231 33.0512 7.4864 32.7684 7.28007 32.56C7.07375 32.3515 6.79391 32.2344 6.50212 32.2344C6.21033 32.2344 5.9305 32.3515 5.72417 32.56C5.51785 32.7684 5.40193 33.0512 5.40193 33.346C5.40077 34.4983 4.94718 35.603 4.14069 36.4178C3.33421 37.2326 2.24073 37.6909 1.10019 37.6921C0.808401 37.6921 0.528564 37.8092 0.322238 38.0176C0.115913 38.2261 0 38.5088 0 38.8036C0 39.0984 0.115913 39.3811 0.322238 39.5896C0.528564 39.798 0.808401 39.9151 1.10019 39.9151C2.24054 39.9163 3.33386 40.3744 4.14031 41.189C4.94676 42.0035 5.40048 43.108 5.40193 44.2601C5.40193 44.5549 5.51785 44.8376 5.72417 45.0461C5.9305 45.2545 6.21033 45.3716 6.50212 45.3716C6.79391 45.3716 7.07375 45.2545 7.28007 45.0461C7.4864 44.8376 7.60231 44.5549 7.60231 44.2601C7.60377 43.1082 8.05734 42.0039 8.86355 41.1894C9.66976 40.3748 10.7628 39.9166 11.903 39.9151C12.1947 39.9151 12.4746 39.798 12.6809 39.5896C12.8872 39.3811 13.0031 39.0984 13.0031 38.8036C13.0031 38.5088 12.8872 38.2261 12.6809 38.0176C12.4746 37.8092 12.1947 37.6921 11.903 37.6921ZM6.50212 40.6098C6.02792 39.8962 5.42068 39.2827 4.71431 38.8036C5.42068 38.3245 6.02792 37.711 6.50212 36.9973C6.97633 37.711 7.58357 38.3245 8.28993 38.8036C7.58357 39.2827 6.97633 39.8962 6.50212 40.6098Z" fill="#D29C4E" fill-opacity="0.2"/>
<path d="M54.8104 27.6883C53.67 27.6868 52.5768 27.2284 51.7706 26.4136C50.9643 25.5989 50.5109 24.4943 50.5097 23.3422C50.5097 23.0474 50.3938 22.7647 50.1875 22.5562C49.9812 22.3477 49.7013 22.2306 49.4095 22.2306C49.1177 22.2306 48.8379 22.3477 48.6316 22.5562C48.4253 22.7647 48.3093 23.0474 48.3093 23.3422C48.3082 24.4945 47.8546 25.5992 47.0481 26.414C46.2416 27.2288 45.1481 27.6871 44.0076 27.6883C43.7158 27.6883 43.436 27.8054 43.2296 28.0138C43.0233 28.2223 42.9074 28.505 42.9074 28.7998C42.9074 29.0946 43.0233 29.3773 43.2296 29.5858C43.436 29.7942 43.7158 29.9113 44.0076 29.9113C45.1479 29.9125 46.2413 30.3706 47.0477 31.1852C47.8542 31.9997 48.3079 33.1042 48.3093 34.2563C48.3093 34.5511 48.4253 34.8338 48.6316 35.0423C48.8379 35.2507 49.1177 35.3678 49.4095 35.3678C49.7013 35.3678 49.9812 35.2507 50.1875 35.0423C50.3938 34.8338 50.5097 34.5511 50.5097 34.2563C50.5112 33.1044 50.9647 32.0001 51.771 31.1856C52.5772 30.371 53.6702 29.9128 54.8104 29.9113C55.1022 29.9113 55.382 29.7942 55.5883 29.5858C55.7946 29.3773 55.9106 29.0946 55.9106 28.7998C55.9106 28.505 55.7946 28.2223 55.5883 28.0138C55.382 27.8054 55.1022 27.6883 54.8104 27.6883ZM49.4095 30.606C48.9353 29.8924 48.3281 29.2789 47.6217 28.7998C48.3281 28.3207 48.9353 27.7072 49.4095 26.9936C49.8837 27.7072 50.491 28.3207 51.1973 28.7998C50.491 29.2789 49.8837 29.8924 49.4095 30.606Z" fill="#D29C4E" fill-opacity="0.2"/>
<path d="M9.90171 61.1343H12.1021V63.3573H9.90171V61.1343Z" fill="#D29C4E" fill-opacity="0.2"/>
<path d="M15.4027 31.1229H17.603V33.346H15.4027V31.1229Z" fill="#D29C4E" fill-opacity="0.2"/>
<path d="M50.6087 56.6881H52.8091V58.9112H50.6087V56.6881Z" fill="#D29C4E" fill-opacity="0.2"/>
</svg>
