<svg width="240" height="352" viewBox="0 0 240 352" fill="none" xmlns="http://www.w3.org/2000/svg">
<path d="M180.377 101.454V0L162.491 0L150.566 0L144.604 0L132.679 0L126.717 0L114.792 0L-76 0L-76 345.811H67.3269C76.7711 349.579 87.8609 351.774 99.8868 351.774C114.721 351.774 128.16 348.47 138.779 342.926C149.761 348.631 163.301 351.774 177.396 351.774C212.502 351.774 240 333.44 240 310.038V286.189V262.34V238.491V214.641V190.792V166.943V143.094C240 120.36 214.034 102.467 180.377 101.454ZM228.075 143.094C228.075 159.252 204.864 172.906 177.396 172.906C149.928 172.906 126.717 159.252 126.717 143.094C126.717 142.099 126.806 141.115 126.979 140.143C127.027 139.863 127.128 139.589 127.194 139.314C127.349 138.623 127.51 137.925 127.748 137.245C127.856 136.941 128.017 136.643 128.142 136.339C128.404 135.701 128.661 135.057 129.001 134.431C129.185 134.085 129.424 133.757 129.633 133.418C129.972 132.851 130.306 132.285 130.706 131.736C131.028 131.295 131.409 130.866 131.773 130.43C132.119 130.007 132.441 129.584 132.822 129.172C133.407 128.54 134.062 127.926 134.73 127.318C134.939 127.127 135.124 126.925 135.338 126.74C137.181 125.13 139.303 123.604 141.7 122.185C144.019 120.807 146.524 119.591 149.177 118.518C149.332 118.452 149.499 118.399 149.66 118.333C152.283 117.296 155.038 116.395 157.947 115.668C158.049 115.644 158.156 115.626 158.257 115.596C160.726 114.988 163.278 114.499 165.889 114.136C165.996 114.118 166.098 114.1 166.205 114.088C168.954 113.718 171.762 113.48 174.624 113.384L177.426 113.283C204.882 113.295 228.075 126.937 228.075 143.094ZM227.688 289.635C227.587 290.136 227.438 290.631 227.288 291.131C227.151 291.596 227.02 292.061 226.847 292.515C226.656 293.004 226.424 293.486 226.191 293.969C225.977 294.417 225.774 294.864 225.524 295.305C225.255 295.776 224.945 296.241 224.635 296.7C224.349 297.129 224.075 297.565 223.753 297.982C223.407 298.441 223.019 298.882 222.632 299.324C222.28 299.729 221.946 300.14 221.565 300.534C221.141 300.975 220.676 301.398 220.217 301.822C219.812 302.203 219.418 302.585 218.983 302.955C218.494 303.372 217.958 303.765 217.433 304.165C216.968 304.517 216.521 304.874 216.032 305.22C215.477 305.608 214.881 305.971 214.291 306.341C213.778 306.669 213.277 306.997 212.741 307.313C212.126 307.671 211.477 307.999 210.833 308.338C210.266 308.637 209.718 308.941 209.133 309.221C208.46 309.543 207.75 309.841 207.047 310.145C206.45 310.407 205.866 310.676 205.246 310.92C204.507 311.212 203.726 311.475 202.956 311.749C202.336 311.969 201.734 312.202 201.096 312.405C200.303 312.661 199.469 312.882 198.652 313.108C198.002 313.293 197.37 313.49 196.708 313.657C195.855 313.871 194.973 314.044 194.102 314.229C193.441 314.372 192.797 314.533 192.123 314.652C191.175 314.825 190.203 314.957 189.237 315.1C188.611 315.195 187.991 315.308 187.353 315.386C186.274 315.517 185.171 315.6 184.074 315.69C183.525 315.738 182.989 315.803 182.434 315.839C180.777 315.946 179.095 316 177.396 316C175.065 316 172.77 315.869 170.492 315.678C169.872 315.624 169.258 315.565 168.644 315.499C166.73 315.296 164.834 315.028 162.962 314.688C162.687 314.641 162.407 314.605 162.127 314.551C162.359 313.067 162.491 311.564 162.491 310.038V302.883C162.908 302.949 163.331 302.972 163.749 303.032C165.358 303.271 166.98 303.467 168.608 303.616C169.282 303.682 169.949 303.753 170.623 303.801C172.871 303.968 175.125 304.075 177.396 304.075C179.835 304.075 182.226 303.968 184.587 303.795C185.35 303.742 186.083 303.646 186.84 303.575C188.432 303.42 190.006 303.241 191.551 303.014C192.397 302.889 193.226 302.74 194.055 302.597C195.486 302.34 196.893 302.06 198.276 301.738C199.087 301.553 199.886 301.369 200.679 301.16C202.11 300.79 203.493 300.373 204.87 299.932C205.538 299.717 206.218 299.526 206.868 299.3C208.776 298.632 210.636 297.916 212.413 297.129C212.484 297.1 212.556 297.076 212.627 297.046C214.47 296.223 216.223 295.323 217.916 294.375C218.458 294.071 218.959 293.743 219.484 293.427C220.611 292.747 221.714 292.056 222.763 291.328C223.324 290.935 223.86 290.529 224.403 290.124C225.363 289.402 226.275 288.657 227.157 287.894C227.42 287.661 227.73 287.459 227.986 287.226C227.968 287.554 227.938 287.888 227.897 288.216C227.837 288.681 227.783 289.158 227.688 289.635ZM150.178 289.635C150.077 290.136 149.928 290.631 149.779 291.131C149.642 291.596 149.511 292.061 149.338 292.515C149.147 293.004 148.914 293.486 148.682 293.969C148.467 294.417 148.265 294.864 148.014 295.305C147.746 295.776 147.436 296.241 147.126 296.7C146.84 297.129 146.565 297.565 146.243 297.982C145.898 298.441 145.51 298.882 145.122 299.324C144.771 299.729 144.437 300.14 144.055 300.534C143.632 300.975 143.167 301.398 142.708 301.822C142.302 302.203 141.909 302.585 141.474 302.955C140.985 303.372 140.448 303.765 139.923 304.165C139.458 304.517 139.011 304.874 138.522 305.22C137.968 305.608 137.372 305.971 136.781 306.341C136.269 306.669 135.768 306.997 135.231 307.313C134.617 307.671 133.967 307.999 133.323 308.338C132.757 308.637 132.208 308.941 131.624 309.221C130.95 309.543 130.241 309.841 129.537 310.145C128.941 310.407 128.357 310.676 127.737 310.92C126.997 311.212 126.216 311.475 125.447 311.749C124.827 311.969 124.225 312.202 123.587 312.405C122.794 312.661 121.959 312.882 121.142 313.108C120.492 313.293 119.86 313.49 119.199 313.657C118.346 313.871 117.464 314.044 116.593 314.229C115.931 314.372 115.287 314.533 114.614 314.652C113.666 314.825 112.694 314.957 111.728 315.1C111.102 315.195 110.482 315.308 109.844 315.386C108.765 315.517 107.662 315.6 106.565 315.69C106.016 315.738 105.479 315.803 104.925 315.839C103.267 315.946 101.586 316 99.8868 316C98.1875 316 96.5062 315.946 94.8427 315.845C94.2882 315.809 93.7516 315.744 93.2031 315.696C92.1001 315.606 90.9971 315.523 89.9238 315.392C89.2859 315.314 88.6718 315.201 88.0398 315.106C87.0739 314.963 86.102 314.831 85.154 314.658C84.4863 314.533 83.8423 314.372 83.1805 314.235C82.3041 314.05 81.4217 313.871 80.5631 313.657C79.9013 313.49 79.2752 313.293 78.6313 313.114C77.8085 312.882 76.9738 312.661 76.1749 312.405C75.5369 312.202 74.9347 311.969 74.3146 311.749C73.5455 311.475 72.7704 311.218 72.0251 310.92C71.4051 310.676 70.8267 310.401 70.2245 310.145C69.5269 309.841 68.8115 309.543 68.1377 309.221C67.5534 308.941 67.0049 308.631 66.4385 308.338C65.7946 307.999 65.1447 307.671 64.5306 307.313C63.994 307.003 63.4931 306.669 62.9804 306.341C62.3961 305.971 61.7939 305.608 61.2394 305.22C60.7505 304.88 60.3033 304.523 59.8383 304.165C59.3136 303.765 58.777 303.372 58.2881 302.955C57.8528 302.585 57.4593 302.203 57.0539 301.822C56.5948 301.398 56.1297 300.975 55.7064 300.534C55.3308 300.14 54.991 299.729 54.6451 299.329C54.2635 298.882 53.87 298.441 53.5242 297.982C53.2082 297.565 52.934 297.135 52.6478 296.706C52.3377 296.241 52.0217 295.776 51.7534 295.305C51.503 294.87 51.3003 294.417 51.0857 293.969C50.8531 293.486 50.6206 293.004 50.4298 292.515C50.2569 292.061 50.1257 291.596 49.9886 291.131C49.8395 290.637 49.6905 290.142 49.5891 289.635C49.4937 289.164 49.4401 288.681 49.3804 288.204C49.3387 287.876 49.3149 287.548 49.291 287.214C49.5474 287.447 49.8515 287.655 50.1138 287.882C50.9962 288.651 51.9144 289.396 52.8743 290.118C53.4109 290.523 53.9475 290.929 54.508 291.316C55.5574 292.05 56.6604 292.741 57.7932 293.421C58.3179 293.737 58.8187 294.065 59.3613 294.369C61.0546 295.317 62.8075 296.217 64.6498 297.04C64.7154 297.07 64.781 297.088 64.8466 297.117C66.6352 297.91 68.4955 298.632 70.4093 299.294C71.0592 299.52 71.739 299.711 72.4067 299.926C73.778 300.361 75.1672 300.778 76.5982 301.154C77.3912 301.357 78.1901 301.541 79.001 301.726C80.3842 302.042 81.7913 302.328 83.2223 302.585C84.051 302.734 84.8798 302.877 85.7264 303.002C87.2706 303.235 88.8447 303.408 90.4366 303.563C91.1879 303.634 91.9272 303.73 92.6844 303.783C95.0574 303.968 97.4482 304.075 99.8868 304.075C102.325 304.075 104.716 303.968 107.077 303.795C107.84 303.742 108.574 303.646 109.331 303.575C110.923 303.42 112.497 303.241 114.041 303.014C114.888 302.889 115.717 302.74 116.545 302.597C117.976 302.34 119.383 302.06 120.767 301.738C121.577 301.553 122.376 301.369 123.169 301.16C124.6 300.79 125.984 300.373 127.361 299.932C128.029 299.717 128.708 299.526 129.358 299.3C131.266 298.632 133.126 297.916 134.903 297.129C134.975 297.1 135.046 297.076 135.118 297.046C136.96 296.223 138.713 295.323 140.406 294.375C140.949 294.071 141.45 293.743 141.974 293.427C143.101 292.747 144.204 292.056 145.254 291.328C145.814 290.935 146.351 290.529 146.893 290.124C147.853 289.402 148.765 288.657 149.648 287.894C149.91 287.661 150.22 287.459 150.477 287.226C150.459 287.554 150.429 287.888 150.387 288.216C150.328 288.681 150.274 289.158 150.178 289.635ZM-34.2642 114.553V77.3961C-15.2624 75.9414 -0.0586395 60.7376 1.39615 41.7358H49.3149C50.7697 60.7376 65.9794 75.9414 84.9752 77.3961V114.553C84.8857 114.464 84.7903 114.386 84.7009 114.297C83.6992 113.283 82.626 112.347 81.5707 111.387C80.5512 110.451 79.5614 109.479 78.5061 108.597C78.1186 108.275 77.7012 108 77.3077 107.69C65.0791 97.8884 50.3046 91.6758 34.445 89.9527C34.2482 89.9288 34.0634 89.8871 33.8666 89.8632C31.0644 89.583 28.2263 89.434 25.3585 89.434C22.4906 89.434 19.6526 89.583 16.8444 89.8632C16.6476 89.8811 16.4628 89.9288 16.266 89.9527C0.406418 91.6698 -14.3681 97.8884 -26.5967 107.69C-26.9902 108 -27.4075 108.281 -27.7951 108.597C-28.8564 109.479 -29.8461 110.451 -30.8597 111.387C-31.9091 112.347 -32.9882 113.283 -33.9899 114.297C-34.0793 114.386 -34.1747 114.464 -34.2642 114.553ZM109.552 185.409C109.641 185.42 109.73 185.42 109.82 185.432C112.968 185.82 116.062 186.392 119.097 187.144C121.709 187.793 124.189 188.586 126.568 189.481C127.731 189.916 128.863 190.381 129.966 190.87C130.575 191.138 131.207 191.395 131.791 191.681C133.436 192.486 134.993 193.356 136.465 194.28C136.799 194.483 137.115 194.698 137.437 194.906C140.663 197.041 143.429 199.432 145.546 202.007C145.605 202.079 145.671 202.157 145.731 202.228C146.452 203.122 147.084 204.029 147.639 204.941C147.704 205.048 147.776 205.15 147.835 205.251C148.348 206.115 148.759 206.992 149.129 207.868C149.201 208.041 149.29 208.202 149.356 208.375C149.672 209.198 149.892 210.027 150.083 210.861C150.131 211.076 150.214 211.291 150.256 211.505C150.459 212.555 150.566 213.592 150.566 214.641C150.566 230.799 127.355 244.453 99.8868 244.453C72.4186 244.453 49.2075 230.799 49.2075 214.641C49.2075 212.048 49.8634 209.532 50.9843 207.111C52.618 203.57 55.4023 200.219 59.1347 197.226C59.3732 197.035 59.6177 196.844 59.8681 196.653C60.9115 195.854 62.0324 195.085 63.2129 194.346C72.526 188.539 85.6131 184.83 99.8868 184.83C103.142 184.83 106.368 185.033 109.552 185.409ZM130.396 170.873C130.932 171.278 131.469 171.683 132.029 172.071C133.079 172.804 134.182 173.496 135.315 174.176C135.839 174.492 136.34 174.82 136.883 175.124C138.576 176.072 140.329 176.972 142.171 177.795C142.237 177.825 142.302 177.842 142.368 177.872C144.157 178.665 146.017 179.387 147.931 180.048C148.581 180.275 149.26 180.466 149.928 180.68C151.299 181.116 152.689 181.533 154.12 181.909C154.913 182.111 155.711 182.296 156.522 182.481C157.906 182.797 159.313 183.083 160.744 183.34C161.572 183.489 162.401 183.632 163.248 183.757C164.792 183.989 166.366 184.162 167.958 184.317C168.709 184.389 169.449 184.484 170.206 184.538C172.567 184.723 174.958 184.83 177.396 184.83C179.835 184.83 182.226 184.723 184.587 184.55C185.35 184.496 186.083 184.401 186.84 184.329C188.432 184.174 190.006 183.995 191.551 183.769C192.397 183.644 193.226 183.495 194.055 183.352C195.486 183.095 196.893 182.815 198.276 182.493C199.087 182.308 199.886 182.123 200.679 181.915C202.11 181.545 203.493 181.128 204.87 180.686C205.538 180.472 206.218 180.281 206.868 180.054C208.776 179.387 210.636 178.671 212.413 177.884C212.484 177.854 212.556 177.83 212.627 177.801C214.47 176.978 216.223 176.078 217.916 175.13C218.458 174.825 218.959 174.498 219.484 174.182C220.611 173.502 221.714 172.81 222.763 172.083C223.324 171.689 223.86 171.284 224.403 170.878C225.363 170.157 226.275 169.412 227.157 168.649C227.42 168.416 227.73 168.213 227.986 167.981C227.968 168.309 227.938 168.643 227.897 168.971C227.837 169.448 227.789 169.93 227.688 170.401C227.587 170.902 227.438 171.397 227.288 171.898C227.151 172.363 227.02 172.828 226.847 173.281C226.656 173.77 226.424 174.253 226.191 174.736C225.977 175.183 225.774 175.63 225.524 176.072C225.255 176.543 224.945 177.008 224.635 177.467C224.349 177.896 224.075 178.331 223.753 178.749C223.407 179.208 223.019 179.649 222.632 180.09C222.28 180.496 221.946 180.907 221.565 181.301C221.141 181.742 220.676 182.165 220.217 182.588C219.812 182.97 219.418 183.352 218.983 183.721C218.494 184.139 217.958 184.532 217.433 184.932C216.968 185.283 216.521 185.641 216.032 185.987C215.477 186.374 214.881 186.738 214.291 187.108C213.778 187.436 213.277 187.764 212.741 188.08C212.126 188.437 211.477 188.765 210.833 189.105C210.266 189.403 209.718 189.707 209.133 189.988C208.46 190.309 207.75 190.608 207.047 190.912C206.45 191.174 205.866 191.442 205.246 191.687C204.507 191.979 203.726 192.241 202.956 192.516C202.336 192.736 201.734 192.969 201.096 193.171C200.303 193.428 199.469 193.648 198.652 193.875C198.002 194.06 197.37 194.257 196.708 194.423C195.855 194.638 194.973 194.811 194.102 194.996C193.441 195.139 192.797 195.3 192.123 195.419C191.175 195.592 190.203 195.723 189.237 195.866C188.611 195.962 187.991 196.075 187.353 196.152C186.274 196.284 185.171 196.367 184.074 196.457C183.525 196.504 182.989 196.57 182.434 196.606C180.777 196.701 179.095 196.755 177.396 196.755C175.256 196.755 173.127 196.665 171.017 196.504C170.343 196.451 169.687 196.349 169.019 196.284C167.588 196.141 166.163 195.992 164.762 195.777C163.981 195.658 163.224 195.485 162.449 195.342C161.191 195.109 159.927 194.877 158.699 194.578C157.912 194.388 157.148 194.155 156.379 193.946C155.491 193.702 154.614 193.446 153.756 193.171C148.187 186.875 140.239 181.688 130.622 178.141C128.255 174.837 126.95 171.409 126.747 167.921C127.021 168.172 127.349 168.392 127.635 168.643C128.518 169.406 129.436 170.151 130.396 170.873ZM222.763 195.926C223.324 195.532 223.86 195.127 224.403 194.722C225.363 194 226.275 193.255 227.157 192.492C227.42 192.259 227.73 192.056 227.986 191.824C227.968 192.152 227.938 192.486 227.897 192.814C227.837 193.291 227.789 193.774 227.688 194.245C227.587 194.745 227.438 195.24 227.288 195.741C227.151 196.206 227.02 196.671 226.847 197.124C226.656 197.613 226.424 198.096 226.191 198.579C225.977 199.026 225.774 199.473 225.524 199.915C225.255 200.386 224.945 200.851 224.635 201.31C224.349 201.739 224.075 202.174 223.753 202.592C223.407 203.051 223.019 203.492 222.632 203.933C222.28 204.339 221.946 204.75 221.565 205.144C221.141 205.585 220.676 206.008 220.217 206.431C219.812 206.813 219.418 207.195 218.983 207.564C218.494 207.982 217.958 208.375 217.433 208.775C216.968 209.126 216.521 209.484 216.032 209.83C215.477 210.217 214.881 210.581 214.291 210.951C213.778 211.279 213.277 211.607 212.741 211.923C212.126 212.28 211.477 212.608 210.833 212.948C210.266 213.246 209.718 213.55 209.133 213.831C208.46 214.153 207.75 214.451 207.047 214.755C206.45 215.017 205.866 215.285 205.246 215.53C204.507 215.822 203.726 216.084 202.956 216.359C202.336 216.579 201.734 216.812 201.096 217.014C200.303 217.271 199.469 217.491 198.652 217.718C198.002 217.903 197.37 218.1 196.708 218.267C195.855 218.481 194.973 218.654 194.102 218.839C193.441 218.982 192.797 219.143 192.123 219.262C191.175 219.435 190.203 219.566 189.237 219.709C188.611 219.805 187.991 219.918 187.353 219.996C186.274 220.127 185.171 220.21 184.074 220.3C183.525 220.347 182.989 220.413 182.434 220.449C180.777 220.55 179.095 220.604 177.396 220.604C174.397 220.604 171.428 220.389 168.489 220.067C167.612 219.972 166.742 219.829 165.871 219.703C164.732 219.542 163.617 219.292 162.491 219.077V214.641C162.491 213.336 162.383 212.03 162.204 210.73C162.097 209.913 161.906 209.12 161.727 208.316C161.656 207.988 161.62 207.66 161.537 207.338C161.674 207.362 161.811 207.368 161.948 207.391C163.635 207.672 165.358 207.856 167.076 208.047C167.922 208.143 168.751 208.28 169.604 208.351C172.185 208.566 174.785 208.679 177.396 208.679C179.835 208.679 182.226 208.572 184.587 208.399C185.35 208.345 186.083 208.25 186.84 208.178C188.432 208.023 190.006 207.844 191.551 207.618C192.397 207.493 193.226 207.344 194.055 207.201C195.486 206.944 196.893 206.664 198.276 206.342C199.087 206.157 199.886 205.972 200.679 205.764C202.11 205.394 203.493 204.977 204.87 204.535C205.538 204.321 206.218 204.13 206.868 203.903C208.776 203.236 210.636 202.52 212.413 201.733C212.484 201.703 212.556 201.68 212.627 201.65C214.47 200.827 216.223 199.927 217.916 198.979C218.458 198.675 218.959 198.347 219.484 198.031C220.611 197.351 221.714 196.653 222.763 195.926ZM222.763 219.775C223.324 219.381 223.86 218.976 224.403 218.571C225.363 217.849 226.275 217.104 227.157 216.341C227.42 216.108 227.73 215.905 227.986 215.673C227.968 216.001 227.938 216.335 227.897 216.663C227.837 217.14 227.789 217.623 227.688 218.094C227.587 218.594 227.438 219.089 227.288 219.59C227.151 220.055 227.02 220.52 226.847 220.973C226.656 221.462 226.424 221.945 226.191 222.428C225.977 222.875 225.774 223.323 225.524 223.764C225.255 224.235 224.945 224.7 224.635 225.159C224.349 225.588 224.075 226.023 223.753 226.441C223.407 226.9 223.019 227.341 222.632 227.782C222.28 228.188 221.946 228.599 221.565 228.993C221.141 229.434 220.676 229.857 220.217 230.281C219.812 230.662 219.418 231.044 218.983 231.413C218.494 231.831 217.958 232.224 217.433 232.624C216.968 232.975 216.521 233.333 216.032 233.679C215.477 234.067 214.881 234.43 214.291 234.8C213.778 235.128 213.277 235.456 212.741 235.772C212.126 236.129 211.477 236.457 210.833 236.797C210.266 237.095 209.718 237.399 209.133 237.68C208.46 238.002 207.75 238.3 207.047 238.604C206.45 238.866 205.866 239.134 205.246 239.379C204.507 239.671 203.726 239.933 202.956 240.208C202.336 240.428 201.734 240.661 201.096 240.864C200.303 241.12 199.469 241.34 198.652 241.567C198.002 241.752 197.37 241.949 196.708 242.116C195.855 242.33 194.973 242.503 194.102 242.688C193.441 242.831 192.797 242.992 192.123 243.111C191.175 243.284 190.203 243.415 189.237 243.558C188.611 243.654 187.991 243.767 187.353 243.845C186.274 243.976 185.171 244.059 184.074 244.149C183.525 244.196 182.989 244.262 182.434 244.298C180.777 244.399 179.095 244.453 177.396 244.453C174.397 244.453 171.428 244.238 168.489 243.916C167.612 243.821 166.742 243.678 165.871 243.553C164.732 243.392 163.617 243.141 162.491 242.926V238.491V231.336C162.908 231.401 163.331 231.425 163.749 231.485C165.358 231.723 166.98 231.92 168.608 232.069C169.282 232.135 169.949 232.206 170.623 232.254C172.871 232.421 175.125 232.528 177.396 232.528C179.835 232.528 182.226 232.421 184.587 232.248C185.35 232.194 186.083 232.099 186.84 232.027C188.432 231.872 190.006 231.694 191.551 231.467C192.397 231.342 193.226 231.193 194.055 231.05C195.486 230.793 196.893 230.513 198.276 230.191C199.087 230.006 199.886 229.821 200.679 229.613C202.11 229.243 203.493 228.826 204.87 228.385C205.538 228.17 206.218 227.979 206.868 227.753C208.776 227.085 210.636 226.369 212.413 225.582C212.484 225.552 212.556 225.529 212.627 225.499C214.47 224.676 216.223 223.776 217.916 222.828C218.458 222.524 218.959 222.196 219.484 221.88C220.611 221.2 221.714 220.502 222.763 219.775ZM222.763 243.624C223.324 243.231 223.86 242.825 224.403 242.42C225.363 241.698 226.275 240.953 227.157 240.19C227.42 239.957 227.73 239.755 227.986 239.522C227.968 239.85 227.938 240.184 227.897 240.512C227.837 240.989 227.789 241.472 227.688 241.943C227.587 242.444 227.438 242.938 227.288 243.439C227.151 243.904 227.02 244.369 226.847 244.822C226.656 245.311 226.424 245.794 226.191 246.277C225.977 246.724 225.774 247.172 225.524 247.613C225.255 248.084 224.945 248.549 224.635 249.008C224.349 249.437 224.075 249.872 223.753 250.29C223.407 250.749 223.019 251.19 222.632 251.631C222.28 252.037 221.946 252.448 221.565 252.842C221.141 253.283 220.676 253.706 220.217 254.13C219.812 254.511 219.418 254.893 218.983 255.262C218.494 255.68 217.958 256.073 217.433 256.473C216.968 256.824 216.521 257.182 216.032 257.528C215.477 257.916 214.881 258.279 214.291 258.649C213.778 258.977 213.277 259.305 212.741 259.621C212.126 259.979 211.477 260.306 210.833 260.646C210.266 260.944 209.718 261.249 209.133 261.529C208.46 261.851 207.75 262.149 207.047 262.453C206.45 262.715 205.866 262.984 205.246 263.228C204.507 263.52 203.726 263.782 202.956 264.057C202.336 264.277 201.734 264.51 201.096 264.713C200.303 264.969 199.469 265.19 198.652 265.416C198.002 265.601 197.37 265.798 196.708 265.965C195.855 266.179 194.973 266.352 194.102 266.537C193.441 266.68 192.797 266.841 192.123 266.96C191.175 267.133 190.203 267.264 189.237 267.408C188.611 267.503 187.991 267.616 187.353 267.694C186.274 267.825 185.171 267.908 184.074 267.998C183.525 268.046 182.989 268.111 182.434 268.147C180.777 268.248 179.095 268.302 177.396 268.302C174.397 268.302 171.428 268.087 168.489 267.765C167.612 267.67 166.742 267.527 165.871 267.402C164.732 267.241 163.617 266.99 162.491 266.776V262.34V255.185C162.908 255.25 163.331 255.274 163.749 255.334C165.358 255.572 166.98 255.769 168.608 255.918C169.282 255.984 169.949 256.055 170.623 256.103C172.871 256.27 175.125 256.377 177.396 256.377C179.835 256.377 182.226 256.27 184.587 256.097C185.35 256.043 186.083 255.948 186.84 255.877C188.432 255.721 190.006 255.543 191.551 255.316C192.397 255.191 193.226 255.042 194.055 254.899C195.486 254.642 196.893 254.362 198.276 254.04C199.087 253.855 199.886 253.67 200.679 253.462C202.11 253.092 203.493 252.675 204.87 252.234C205.538 252.019 206.218 251.828 206.868 251.602C208.776 250.934 210.636 250.218 212.413 249.431C212.484 249.401 212.556 249.378 212.627 249.348C214.47 248.525 216.223 247.625 217.916 246.677C218.458 246.373 218.959 246.045 219.484 245.729C220.611 245.049 221.714 244.351 222.763 243.624ZM222.763 267.473C223.324 267.08 223.86 266.674 224.403 266.269C225.363 265.547 226.275 264.802 227.157 264.039C227.42 263.806 227.73 263.604 227.986 263.371C227.968 263.699 227.938 264.033 227.897 264.361C227.837 264.838 227.789 265.321 227.688 265.792C227.587 266.293 227.438 266.787 227.288 267.288C227.151 267.753 227.02 268.218 226.847 268.672C226.656 269.16 226.424 269.643 226.191 270.126C225.977 270.573 225.774 271.021 225.524 271.462C225.255 271.933 224.945 272.398 224.635 272.857C224.349 273.286 224.075 273.722 223.753 274.139C223.407 274.598 223.019 275.039 222.632 275.48C222.28 275.886 221.946 276.297 221.565 276.691C221.141 277.132 220.676 277.555 220.217 277.979C219.812 278.36 219.418 278.742 218.983 279.111C218.494 279.529 217.958 279.922 217.433 280.322C216.968 280.674 216.521 281.031 216.032 281.377C215.477 281.765 214.881 282.128 214.291 282.498C213.778 282.826 213.277 283.154 212.741 283.47C212.126 283.828 211.477 284.156 210.833 284.495C210.266 284.793 209.718 285.098 209.133 285.378C208.46 285.7 207.75 285.998 207.047 286.302C206.45 286.564 205.866 286.833 205.246 287.077C204.507 287.369 203.726 287.632 202.956 287.906C202.336 288.126 201.734 288.359 201.096 288.562C200.303 288.818 199.469 289.039 198.652 289.265C198.002 289.45 197.37 289.647 196.708 289.814C195.855 290.028 194.973 290.201 194.102 290.386C193.441 290.529 192.797 290.69 192.123 290.809C191.175 290.982 190.203 291.113 189.237 291.257C188.611 291.352 187.991 291.465 187.353 291.543C186.274 291.674 185.171 291.757 184.074 291.847C183.525 291.895 182.989 291.96 182.434 291.996C180.777 292.097 179.095 292.151 177.396 292.151C174.397 292.151 171.428 291.936 168.489 291.614C167.612 291.519 166.742 291.376 165.871 291.251C164.732 291.09 163.617 290.839 162.491 290.625V286.189V279.034C162.908 279.1 163.331 279.123 163.749 279.183C165.358 279.421 166.98 279.618 168.608 279.767C169.282 279.833 169.949 279.904 170.623 279.952C172.871 280.119 175.125 280.226 177.396 280.226C179.835 280.226 182.226 280.119 184.587 279.946C185.35 279.892 186.083 279.797 186.84 279.726C188.432 279.571 190.006 279.392 191.551 279.165C192.397 279.04 193.226 278.891 194.055 278.748C195.486 278.491 196.893 278.211 198.276 277.889C199.087 277.704 199.886 277.52 200.679 277.311C202.11 276.941 203.493 276.524 204.87 276.083C205.538 275.868 206.218 275.677 206.868 275.451C208.776 274.783 210.636 274.067 212.413 273.28C212.484 273.251 212.556 273.227 212.627 273.197C214.47 272.374 216.223 271.474 217.916 270.526C218.458 270.222 218.959 269.894 219.484 269.578C220.611 268.898 221.714 268.201 222.763 267.473ZM150.178 265.786C150.077 266.287 149.928 266.781 149.779 267.282C149.642 267.747 149.511 268.212 149.338 268.666C149.147 269.154 148.914 269.637 148.682 270.12C148.467 270.568 148.265 271.015 148.014 271.456C147.746 271.927 147.436 272.392 147.126 272.851C146.84 273.28 146.565 273.716 146.243 274.133C145.898 274.592 145.51 275.033 145.122 275.474C144.771 275.88 144.437 276.291 144.055 276.685C143.632 277.126 143.167 277.549 142.708 277.973C142.302 278.354 141.909 278.736 141.474 279.105C140.985 279.523 140.448 279.916 139.923 280.316C139.458 280.668 139.011 281.025 138.522 281.371C137.968 281.759 137.372 282.122 136.781 282.492C136.269 282.82 135.768 283.148 135.231 283.464C134.617 283.822 133.967 284.15 133.323 284.489C132.757 284.788 132.208 285.092 131.624 285.372C130.95 285.694 130.241 285.992 129.537 286.296C128.941 286.558 128.357 286.827 127.737 287.071C126.997 287.363 126.216 287.626 125.447 287.9C124.827 288.12 124.225 288.353 123.587 288.556C122.794 288.812 121.959 289.033 121.142 289.259C120.492 289.444 119.86 289.641 119.199 289.808C118.346 290.022 117.464 290.195 116.593 290.38C115.931 290.523 115.287 290.684 114.614 290.803C113.666 290.976 112.694 291.108 111.728 291.251C111.102 291.346 110.482 291.459 109.844 291.537C108.765 291.668 107.662 291.751 106.565 291.841C106.016 291.889 105.479 291.954 104.925 291.99C103.267 292.097 101.586 292.151 99.8868 292.151C98.1875 292.151 96.5062 292.097 94.8427 291.996C94.2882 291.96 93.7516 291.895 93.2031 291.847C92.1001 291.757 90.9971 291.674 89.9238 291.543C89.2859 291.465 88.6718 291.352 88.0398 291.257C87.0739 291.113 86.102 290.982 85.154 290.809C84.4863 290.684 83.8423 290.523 83.1805 290.386C82.3041 290.201 81.4217 290.022 80.5631 289.808C79.9013 289.641 79.2752 289.444 78.6313 289.265C77.8085 289.033 76.9738 288.812 76.1749 288.556C75.5369 288.353 74.9347 288.12 74.3146 287.9C73.5455 287.626 72.7704 287.369 72.0251 287.071C71.4051 286.827 70.8267 286.552 70.2245 286.296C69.5269 285.992 68.8115 285.694 68.1377 285.372C67.5534 285.092 67.0049 284.782 66.4385 284.489C65.7946 284.15 65.1447 283.822 64.5306 283.464C63.994 283.154 63.4931 282.82 62.9804 282.492C62.3961 282.122 61.7939 281.759 61.2394 281.371C60.7505 281.031 60.3033 280.674 59.8383 280.316C59.3136 279.916 58.777 279.523 58.2881 279.105C57.8528 278.736 57.4593 278.354 57.0539 277.973C56.5948 277.549 56.1297 277.126 55.7064 276.685C55.3308 276.291 54.991 275.88 54.6451 275.48C54.2635 275.033 53.87 274.592 53.5242 274.133C53.2082 273.716 52.934 273.286 52.6478 272.857C52.3377 272.392 52.0217 271.927 51.7534 271.456C51.503 271.021 51.3003 270.568 51.0857 270.12C50.8531 269.637 50.6206 269.154 50.4298 268.666C50.2569 268.212 50.1257 267.747 49.9886 267.282C49.8395 266.787 49.6905 266.293 49.5891 265.786C49.4937 265.315 49.4401 264.832 49.3804 264.355C49.3387 264.027 49.3149 263.699 49.291 263.365C49.5474 263.598 49.8515 263.806 50.1138 264.033C50.9962 264.802 51.9144 265.547 52.8743 266.269C53.4109 266.674 53.9475 267.08 54.508 267.467C55.5574 268.201 56.6604 268.892 57.7932 269.572C58.3179 269.888 58.8187 270.216 59.3613 270.52C61.0546 271.468 62.8075 272.368 64.6498 273.191C64.7154 273.221 64.781 273.239 64.8466 273.268C66.6352 274.061 68.4955 274.783 70.4093 275.445C71.0592 275.671 71.739 275.862 72.4067 276.077C73.778 276.512 75.1672 276.929 76.5982 277.305C77.3912 277.508 78.1901 277.692 79.001 277.877C80.3842 278.193 81.7913 278.479 83.2223 278.736C84.051 278.885 84.8798 279.028 85.7264 279.153C87.2706 279.386 88.8447 279.559 90.4366 279.714C91.1879 279.785 91.9272 279.881 92.6844 279.934C95.0574 280.119 97.4482 280.226 99.8868 280.226C102.325 280.226 104.716 280.119 107.077 279.946C107.84 279.892 108.574 279.797 109.331 279.726C110.923 279.571 112.497 279.392 114.041 279.165C114.888 279.04 115.717 278.891 116.545 278.748C117.976 278.491 119.383 278.211 120.767 277.889C121.577 277.704 122.376 277.52 123.169 277.311C124.6 276.941 125.984 276.524 127.361 276.083C128.029 275.868 128.708 275.677 129.358 275.451C131.266 274.783 133.126 274.067 134.903 273.28C134.975 273.251 135.046 273.227 135.118 273.197C136.96 272.374 138.713 271.474 140.406 270.526C140.949 270.222 141.45 269.894 141.974 269.578C143.101 268.898 144.204 268.206 145.254 267.479C145.814 267.086 146.351 266.68 146.893 266.275C147.853 265.553 148.765 264.808 149.648 264.045C149.91 263.812 150.22 263.61 150.477 263.377C150.459 263.705 150.429 264.039 150.387 264.367C150.328 264.832 150.274 265.309 150.178 265.786ZM32.4774 244.029C30.0985 244.274 27.7195 244.453 25.3585 244.453C22.5443 244.453 19.7659 244.244 17.0173 243.922C16.1349 243.821 15.2644 243.654 14.3939 243.523C12.5337 243.237 10.6973 242.891 8.87879 242.461C7.88905 242.229 6.90527 241.978 5.92747 241.698C4.19841 241.209 2.49917 240.637 0.81781 240.023C-0.0765305 239.695 -0.988762 239.403 -1.87117 239.039C-4.25011 238.061 -6.5754 236.97 -8.82913 235.736C-9.52076 235.354 -10.1706 234.907 -10.8503 234.508C-12.5019 233.53 -14.1355 232.51 -15.7096 231.401C-16.5026 230.841 -17.2657 230.251 -18.0349 229.66C-19.5672 228.48 -21.0577 227.246 -22.5006 225.94C-23.0491 225.445 -23.6096 224.962 -24.1402 224.449C-25.3506 223.281 -26.4655 221.999 -27.5983 220.741L-9.17494 200.493C-6.68272 197.762 -3.27827 196.373 -0.362717 196.898C-0.0884552 196.945 0.185814 197.005 0.460075 197.077C1.36038 197.78 3.29811 199.557 4.62173 200.779C7.87116 203.778 9.99374 205.674 11.7109 206.831C15.0796 213.318 19.748 215.894 23.2121 216.895C27.4095 218.112 32.1257 217.736 37.2771 215.876V238.491V243.308C36.6331 243.415 35.9952 243.558 35.3512 243.648C34.3973 243.791 33.4314 243.928 32.4774 244.029ZM-45.8548 166.347C-45.8071 165.799 -45.7415 165.256 -45.6819 164.713C-45.4672 162.829 -45.187 160.969 -44.8293 159.133C-44.7756 158.853 -44.7398 158.572 -44.6802 158.298C-44.239 156.187 -43.6965 154.107 -43.0764 152.068C-42.9452 151.638 -42.7902 151.215 -42.6531 150.786C-42.1343 149.2 -41.562 147.644 -40.9359 146.105C-40.7034 145.533 -40.4768 144.961 -40.2324 144.4C-39.5229 142.778 -38.7537 141.192 -37.9369 139.636C-37.5076 138.831 -37.0485 138.044 -36.5894 137.251C-36.0886 136.387 -35.5699 135.54 -35.0333 134.699C-35.0214 134.682 -35.0035 134.658 -34.9915 134.64L-17.7904 153.516C-13.3903 158.352 -7.54128 160.939 -1.6923 160.969C0.472 160.933 2.59457 160.57 4.60981 159.872C7.08415 159.014 8.74166 157.058 10.4946 154.989C13.4519 151.525 15.8129 149.057 19.3962 149.057C25.3167 149.057 31.0107 151.269 35.4287 155.287L41.8084 161.852L44.8014 153.385C46.2324 151.608 52.9578 149.259 57.0718 148.794C59.3911 155.037 63.4872 170.068 56.2013 184.52C55.7899 184.788 55.3725 185.051 54.9731 185.325C54.2397 185.826 53.56 186.351 52.8624 186.875C52.2543 187.334 51.6342 187.781 51.0558 188.258C50.394 188.807 49.7859 189.385 49.1658 189.952C48.6292 190.447 48.0747 190.924 47.5739 191.436C46.9836 192.033 46.4589 192.659 45.9164 193.279C45.4573 193.797 44.9743 194.31 44.551 194.847C44.0383 195.491 43.5971 196.164 43.138 196.832C42.7623 197.375 42.3569 197.905 42.0171 198.46C41.5818 199.169 41.2241 199.903 40.8484 200.624C40.8246 200.672 40.8008 200.714 40.7769 200.761C34.8445 204.649 29.6692 206.354 26.5331 205.43C25.8116 205.221 23.6354 204.595 21.7394 200.129L20.374 196.922L17.9772 196.653C16.7192 195.711 14.2568 193.44 12.7006 192.009C8.54491 188.187 6.78008 186.607 4.80061 185.939C3.77509 185.593 2.73766 185.331 1.69427 185.152C-5.34717 183.912 -12.7046 186.655 -17.9872 192.468L-34.9915 211.16C-35.0035 211.142 -35.0214 211.124 -35.0333 211.106C-35.5281 210.325 -36.0111 209.532 -36.4821 208.727C-37.0068 207.833 -37.5195 206.938 -38.0025 206.032C-38.7955 204.524 -39.5408 202.997 -40.2205 201.429C-40.4768 200.851 -40.7034 200.261 -40.9419 199.676C-41.556 198.156 -42.1284 196.612 -42.6411 195.044C-42.7842 194.608 -42.9392 194.173 -43.0764 193.732C-43.6965 191.693 -44.239 189.624 -44.6802 187.513C-44.7398 187.233 -44.7756 186.947 -44.8293 186.667C-45.187 184.836 -45.4672 182.97 -45.6819 181.092C-45.7415 180.549 -45.8071 180.007 -45.8548 179.458C-46.0515 177.3 -46.1887 175.118 -46.1887 172.906C-46.1887 170.694 -46.0515 168.511 -45.8548 166.347ZM52.8863 242.42C53.4229 242.825 53.9595 243.231 54.5199 243.618C55.5693 244.351 56.6723 245.043 57.8051 245.723C58.3298 246.039 58.8306 246.367 59.3732 246.671C61.0665 247.619 62.8194 248.519 64.6617 249.342C64.7273 249.372 64.7929 249.39 64.8585 249.419C66.6472 250.212 68.5074 250.934 70.4213 251.596C71.0712 251.822 71.7509 252.013 72.4186 252.228C73.79 252.663 75.1792 253.08 76.6101 253.456C77.4031 253.659 78.202 253.843 79.0129 254.028C80.3961 254.344 81.8033 254.63 83.2342 254.887C84.0629 255.036 84.8917 255.179 85.7383 255.304C87.2826 255.537 88.8566 255.71 90.4485 255.865C91.1998 255.936 91.9391 256.032 92.6963 256.085C95.0574 256.27 97.4482 256.377 99.8868 256.377C102.325 256.377 104.716 256.27 107.077 256.097C107.84 256.043 108.574 255.948 109.331 255.877C110.923 255.721 112.497 255.543 114.041 255.316C114.888 255.191 115.717 255.042 116.545 254.899C117.976 254.642 119.383 254.362 120.767 254.04C121.577 253.855 122.376 253.67 123.169 253.462C124.6 253.092 125.984 252.675 127.361 252.234C128.029 252.019 128.708 251.828 129.358 251.602C131.266 250.934 133.126 250.218 134.903 249.431C134.975 249.401 135.046 249.378 135.118 249.348C136.96 248.525 138.713 247.625 140.406 246.677C140.949 246.373 141.45 246.045 141.974 245.729C143.101 245.049 144.204 244.357 145.254 243.63C145.814 243.236 146.351 242.831 146.893 242.426C147.853 241.704 148.765 240.959 149.648 240.196C149.91 239.963 150.22 239.76 150.477 239.528C150.459 239.856 150.429 240.19 150.387 240.518C150.328 240.995 150.28 241.478 150.178 241.949C150.077 242.449 149.928 242.944 149.779 243.445C149.642 243.91 149.511 244.375 149.338 244.828C149.147 245.317 148.914 245.8 148.682 246.283C148.467 246.73 148.265 247.178 148.014 247.619C147.746 248.09 147.436 248.555 147.126 249.014C146.84 249.443 146.565 249.878 146.243 250.296C145.898 250.755 145.51 251.196 145.122 251.637C144.771 252.043 144.437 252.454 144.055 252.848C143.632 253.289 143.167 253.712 142.708 254.136C142.302 254.517 141.909 254.899 141.474 255.268C140.985 255.686 140.448 256.079 139.923 256.479C139.458 256.83 139.011 257.188 138.522 257.534C137.968 257.922 137.372 258.285 136.781 258.655C136.269 258.983 135.768 259.311 135.231 259.627C134.617 259.984 133.967 260.312 133.323 260.652C132.757 260.95 132.208 261.254 131.624 261.535C130.95 261.857 130.241 262.155 129.537 262.459C128.941 262.721 128.357 262.99 127.737 263.234C126.997 263.526 126.216 263.788 125.447 264.063C124.827 264.283 124.225 264.516 123.587 264.719C122.794 264.975 121.959 265.196 121.142 265.422C120.492 265.607 119.86 265.804 119.199 265.971C118.346 266.185 117.464 266.358 116.593 266.543C115.931 266.686 115.287 266.847 114.614 266.966C113.666 267.139 112.694 267.27 111.728 267.413C111.102 267.509 110.482 267.622 109.844 267.7C108.765 267.831 107.662 267.914 106.565 268.004C106.016 268.051 105.479 268.117 104.925 268.153C103.267 268.248 101.586 268.302 99.8868 268.302C98.1875 268.302 96.5062 268.248 94.8427 268.147C94.2882 268.111 93.7516 268.046 93.2031 267.998C92.1001 267.908 90.9971 267.825 89.9238 267.694C89.2859 267.616 88.6718 267.503 88.0398 267.408C87.0739 267.264 86.102 267.133 85.154 266.96C84.4863 266.835 83.8423 266.674 83.1805 266.537C82.3041 266.352 81.4217 266.173 80.5631 265.959C79.9013 265.792 79.2752 265.595 78.6313 265.416C77.8085 265.184 76.9738 264.963 76.1749 264.707C75.5369 264.504 74.9347 264.271 74.3146 264.051C73.5455 263.776 72.7704 263.52 72.0251 263.222C71.4051 262.978 70.8267 262.703 70.2245 262.447C69.5269 262.143 68.8115 261.845 68.1377 261.523C67.5534 261.243 67.0049 260.932 66.4385 260.64C65.7946 260.301 65.1447 259.973 64.5306 259.615C63.994 259.305 63.4931 258.971 62.9804 258.643C62.3961 258.273 61.7939 257.91 61.2394 257.522C60.7505 257.182 60.3033 256.824 59.8383 256.467C59.3136 256.067 58.777 255.674 58.2881 255.256C57.8528 254.887 57.4593 254.505 57.0539 254.124C56.5948 253.7 56.1297 253.277 55.7064 252.836C55.3308 252.442 54.991 252.031 54.6451 251.631C54.2635 251.184 53.87 250.743 53.5242 250.284C53.2082 249.867 52.934 249.437 52.6478 249.008C52.3377 248.543 52.0217 248.078 51.7534 247.607C51.503 247.172 51.3003 246.718 51.0857 246.271C50.8531 245.788 50.6206 245.305 50.4298 244.817C50.2569 244.363 50.1257 243.898 49.9886 243.433C49.8395 242.938 49.6905 242.444 49.5891 241.937C49.4937 241.466 49.4401 240.983 49.3804 240.506C49.3387 240.178 49.3149 239.85 49.291 239.516C49.5474 239.749 49.8515 239.957 50.1138 240.184C51.0081 240.953 51.9263 241.698 52.8863 242.42ZM92.0882 173.245C90.9851 173.335 89.9 173.448 88.8208 173.567C87.8549 173.681 86.8891 173.794 85.9351 173.931C84.8738 174.086 83.8304 174.265 82.793 174.456C81.8629 174.629 80.9328 174.796 80.0205 174.998C79.001 175.219 78.0053 175.463 77.0155 175.72C76.1272 175.946 75.2388 176.173 74.3743 176.423C73.4024 176.704 72.4544 177.014 71.5124 177.33C71.411 177.365 71.3037 177.395 71.1964 177.431C75.2388 157.958 66.8678 141.234 66.4266 140.37L65.2579 138.092L62.8015 137.371C57.6799 135.874 45.8925 138.074 38.8869 142.939C33.1154 139.165 26.3661 137.132 19.3962 137.132C10.0176 137.132 4.4071 143.738 1.40211 147.292C0.913208 147.864 0.501808 148.395 0.102341 148.794C-0.523697 148.955 -1.19743 149.045 -1.88309 149.051C-4.44091 148.961 -6.87948 147.793 -8.97223 145.491L-27.5864 125.064C-26.4536 123.806 -25.3446 122.525 -24.1343 121.362C-23.6036 120.849 -23.0432 120.366 -22.4946 119.871C-21.0577 118.566 -19.5612 117.331 -18.0289 116.151C-17.2598 115.561 -16.4966 114.97 -15.7036 114.41C-14.1296 113.301 -12.5019 112.281 -10.8444 111.304C-10.1647 110.904 -9.51479 110.451 -8.82317 110.075C-6.56944 108.847 -4.24415 107.756 -1.86521 106.772C-0.988754 106.409 -0.0765305 106.116 0.823776 105.788C2.50513 105.174 4.20438 104.602 5.93343 104.113C6.91125 103.839 7.89501 103.588 8.88475 103.35C10.7032 102.921 12.5396 102.575 14.3998 102.289C15.2763 102.151 16.1408 101.99 17.0232 101.889C19.7659 101.567 22.5443 101.358 25.3585 101.358C28.1727 101.358 30.9511 101.567 33.6997 101.889C34.5821 101.99 35.4526 102.157 36.3231 102.289C38.1833 102.575 40.0197 102.921 41.8382 103.35C42.8279 103.582 43.8117 103.833 44.7895 104.113C46.5186 104.602 48.2178 105.174 49.8992 105.788C50.7935 106.116 51.7057 106.409 52.5882 106.772C54.9671 107.75 57.2924 108.841 59.5461 110.075C60.2377 110.457 60.8876 110.904 61.5673 111.304C63.2189 112.281 64.8525 113.301 66.4266 114.41C67.2195 114.97 67.9827 115.561 68.7518 116.151C70.2841 117.331 71.7747 118.566 73.2176 119.871C73.7661 120.366 74.3266 120.849 74.8572 121.362C78.9414 125.309 82.6201 129.763 85.7562 134.705C92.7738 145.771 96.9057 158.853 96.9057 172.906C96.9057 172.918 96.9057 172.935 96.9057 172.947C96.2856 172.965 95.6893 173.031 95.0693 173.061C94.0676 173.108 93.0779 173.168 92.0882 173.245ZM-34.2642 231.258C-34.1866 231.342 -34.0912 231.407 -34.0137 231.485C-31.9269 233.596 -29.7448 235.605 -27.4433 237.489C-26.6325 238.157 -25.7679 238.735 -24.9332 239.367C-23.4128 240.518 -21.8865 241.657 -20.2886 242.706C-19.1796 243.433 -18.0408 244.095 -16.8961 244.769C-15.4651 245.615 -14.0163 246.432 -12.5257 247.189C-11.3214 247.804 -10.111 248.394 -8.87683 248.948C-7.33856 249.646 -5.77049 250.272 -4.18453 250.874C-2.96227 251.339 -1.74596 251.816 -0.499847 252.222C1.25902 252.8 3.06559 253.265 4.87811 253.724C5.99902 254.01 7.09608 254.35 8.22891 254.589C11.0908 255.185 13.9944 255.65 16.9517 255.948C17.9295 256.043 18.9252 256.037 19.909 256.097C21.7155 256.216 23.5162 256.377 25.3585 256.377C25.6447 256.377 25.9428 256.33 26.2349 256.324C27.8865 256.306 29.55 256.139 31.2134 256.02C32.7636 255.906 34.3078 255.829 35.8759 255.62C36.3469 255.561 36.818 255.566 37.289 255.501L37.289 262.34V286.189V304.075H1.40211C-0.052681 285.074 -15.2624 269.87 -34.2582 268.415V231.258H-34.2642ZM168.453 11.9245V101.812C166.432 101.996 164.44 102.241 162.491 102.551V11.9245H168.453ZM150.566 11.9245V105.3C148.509 105.937 146.524 106.641 144.604 107.416V11.9245L150.566 11.9245ZM132.679 11.9245V113.635C130.503 115.102 128.541 116.699 126.717 118.375V11.9245H132.679ZM-64.0755 333.887L-64.0755 11.9245L114.792 11.9245V143.094V166.943V174.098C114.786 174.098 114.781 174.098 114.775 174.098C112.819 173.788 110.833 173.55 108.806 173.359C108.812 173.204 108.83 173.061 108.83 172.906C108.83 157.261 104.424 142.659 96.9057 130.132V64.8635L90.3949 65.4597C89.59 65.5312 88.785 65.5849 87.9623 65.5849C73.1699 65.5849 61.1321 53.5471 61.1321 38.7547C61.1321 37.926 61.1917 37.1091 61.2573 36.2983L61.8356 29.8113H-11.1186L-10.5403 36.2983C-10.4747 37.1091 -10.4151 37.926 -10.4151 38.7547C-10.4151 53.5471 -22.4529 65.5849 -37.2453 65.5849C-38.0681 65.5849 -38.873 65.5312 -39.6779 65.4597L-46.1887 64.8635V130.132C-46.2662 130.264 -46.3497 130.401 -46.4331 130.532C-47.2261 131.867 -48.0012 133.209 -48.7226 134.592C-49.6468 136.357 -50.5232 138.14 -51.3103 139.958C-51.6024 140.626 -51.8409 141.318 -52.1152 141.997C-52.8128 143.726 -53.4626 145.467 -54.035 147.238C-54.2735 147.983 -54.4882 148.735 -54.7088 149.486C-55.2215 151.239 -55.6806 153.004 -56.0741 154.792C-56.253 155.585 -56.4259 156.378 -56.5749 157.177C-56.9267 159.025 -57.201 160.886 -57.4275 162.764C-57.517 163.515 -57.6362 164.248 -57.7078 165.006C-57.9582 167.617 -58.1132 170.246 -58.1132 172.906C-58.1132 175.565 -57.9582 178.194 -57.7137 180.806C-57.6422 181.563 -57.5229 182.296 -57.4335 183.047C-57.2069 184.926 -56.9327 186.786 -56.5809 188.634C-56.4259 189.433 -56.253 190.226 -56.0801 191.019C-55.6866 192.808 -55.2275 194.573 -54.7147 196.325C-54.4941 197.077 -54.2795 197.828 -54.041 198.573C-53.4686 200.344 -52.8128 202.085 -52.1211 203.814C-51.8469 204.494 -51.6084 205.185 -51.3162 205.853C-50.5292 207.672 -49.6468 209.454 -48.7286 211.219C-48.0131 212.602 -47.2321 213.944 -46.4391 215.279C-46.3497 215.417 -46.2662 215.548 -46.1887 215.679V280.948L-39.6779 280.352C-38.873 280.28 -38.0681 280.226 -37.2453 280.226C-22.4529 280.226 -10.4151 292.264 -10.4151 307.057C-10.4151 307.885 -10.4747 308.702 -10.5403 309.513L-11.1186 316H37.9269C38.0343 316.501 38.1654 316.996 38.2966 317.491C38.4516 318.093 38.6126 318.689 38.8094 319.279C38.9703 319.762 39.1611 320.233 39.346 320.71C41.1823 325.51 44.1873 329.958 48.2357 333.887H-64.0755ZM69.3302 333.601C68.734 333.332 68.1497 333.052 67.5773 332.772C66.7605 332.366 65.9496 331.955 65.1745 331.52C64.6558 331.228 64.1728 330.924 63.678 330.619C62.2828 329.773 60.9771 328.878 59.7608 327.942C59.3494 327.626 58.9022 327.322 58.5146 326.994C57.9661 326.535 57.4772 326.058 56.9704 325.581C56.4934 325.134 56.0164 324.681 55.5812 324.222C55.1579 323.775 54.7644 323.316 54.3768 322.857C53.9237 322.314 53.5004 321.765 53.1069 321.205C52.8147 320.794 52.5166 320.376 52.2543 319.959C51.8011 319.226 51.4076 318.48 51.0558 317.729C50.9247 317.455 50.7637 317.192 50.6504 316.912C50.2152 315.869 49.8753 314.808 49.6368 313.734C49.5772 313.46 49.5653 313.174 49.5176 312.9C49.4162 312.297 49.3626 311.683 49.3268 311.075C49.5772 311.302 49.8753 311.504 50.1317 311.731C51.0141 312.5 51.9323 313.245 52.8922 313.967C53.4288 314.372 53.9654 314.778 54.5259 315.165C55.5752 315.899 56.6783 316.59 57.8111 317.27C58.3358 317.586 58.8366 317.914 59.3792 318.218C61.0724 319.166 62.8254 320.066 64.6677 320.889C64.7333 320.919 64.7989 320.937 64.8644 320.967C66.6531 321.76 68.5134 322.481 70.4272 323.143C71.0771 323.369 71.7568 323.56 72.4246 323.775C73.7959 324.21 75.1851 324.627 76.6161 325.003C77.4091 325.206 78.208 325.391 79.0189 325.575C80.4021 325.891 81.8092 326.178 83.2401 326.434C84.0689 326.583 84.8977 326.726 85.7443 326.851C87.2885 327.084 88.8626 327.257 90.4545 327.412C91.2057 327.483 91.9451 327.579 92.7023 327.632C95.0574 327.817 97.4482 327.924 99.8868 327.924C102.325 327.924 104.716 327.817 107.077 327.644C107.84 327.591 108.574 327.495 109.331 327.424C110.923 327.269 112.497 327.09 114.041 326.863C114.888 326.738 115.717 326.589 116.545 326.446C117.976 326.189 119.383 325.909 120.767 325.587C121.577 325.402 122.376 325.218 123.169 325.009C124.6 324.639 125.984 324.222 127.361 323.781C128.029 323.566 128.708 323.375 129.358 323.149C131.266 322.481 133.126 321.765 134.903 320.978C134.975 320.949 135.046 320.925 135.118 320.895C136.96 320.072 138.713 319.172 140.406 318.224C140.949 317.92 141.45 317.592 141.974 317.276C143.101 316.596 144.204 315.905 145.254 315.177C145.814 314.784 146.351 314.378 146.893 313.973C147.853 313.251 148.765 312.506 149.648 311.743C149.904 311.516 150.202 311.32 150.453 311.087C150.411 311.701 150.369 312.321 150.256 312.947C150.232 313.102 150.22 313.257 150.19 313.406C149.958 314.474 149.624 315.559 149.171 316.68L149.159 316.709C147.549 320.674 144.538 324.407 140.359 327.698C140.239 327.787 140.12 327.877 140.001 327.966C138.743 328.932 137.378 329.856 135.917 330.739C135.625 330.918 135.356 331.108 135.052 331.275L134.927 331.347C125.745 336.582 113.326 339.849 99.8868 339.849C88.5168 339.849 77.898 337.488 69.3302 333.601ZM177.396 339.849C167.678 339.849 158.329 338.174 150.232 335.061C153.344 332.259 155.962 329.189 157.941 325.885C158.049 325.909 158.156 325.915 158.263 325.939C161.018 326.523 163.826 326.959 166.664 327.281C167.29 327.352 167.916 327.406 168.542 327.465C171.464 327.74 174.409 327.924 177.396 327.924C179.835 327.924 182.226 327.817 184.587 327.644C185.35 327.591 186.083 327.495 186.84 327.424C188.432 327.269 190.006 327.09 191.551 326.863C192.397 326.738 193.226 326.589 194.055 326.446C195.486 326.189 196.893 325.909 198.276 325.587C199.087 325.402 199.886 325.218 200.679 325.009C202.11 324.639 203.493 324.222 204.87 323.781C205.538 323.566 206.218 323.375 206.868 323.149C208.776 322.481 210.636 321.765 212.413 320.978C212.484 320.949 212.556 320.925 212.627 320.895C214.47 320.072 216.223 319.172 217.916 318.224C218.458 317.92 218.959 317.592 219.484 317.276C220.611 316.596 221.714 315.905 222.763 315.177C223.324 314.784 223.86 314.378 224.403 313.973C225.363 313.251 226.275 312.506 227.157 311.743C227.443 311.492 227.771 311.272 228.046 311.021C227.139 326.744 204.316 339.849 177.396 339.849Z" fill="white"/>
</svg>
