<svg viewBox="0 0 97 106" fill="none" xmlns="http://www.w3.org/2000/svg">
<path d="M50.3823 17.966C53.8498 17.966 56.6705 15.1454 56.6705 11.6779C56.6705 8.21045 53.8498 5.38977 50.3823 5.38977C46.9149 5.38977 44.0942 8.21045 44.0942 11.6779C44.0942 15.1454 46.9149 17.966 50.3823 17.966ZM50.3823 8.98299C51.8681 8.98299 53.0772 10.1921 53.0772 11.6779C53.0772 13.1637 51.8681 14.3728 50.3823 14.3728C48.8965 14.3728 47.6874 13.1637 47.6874 11.6779C47.6874 10.1921 48.8965 8.98299 50.3823 8.98299Z" fill="#FFFEFE"/>
<path d="M12.6535 17.966C16.1209 17.966 18.9416 15.1454 18.9416 11.6779C18.9416 8.21045 16.1209 5.38977 12.6535 5.38977C9.18603 5.38977 6.36536 8.21045 6.36536 11.6779C6.36536 15.1454 9.18603 17.966 12.6535 17.966ZM12.6535 8.98299C14.1393 8.98299 15.3484 10.1921 15.3484 11.6779C15.3484 13.1637 14.1393 14.3728 12.6535 14.3728C11.1677 14.3728 9.95858 13.1637 9.95858 11.6779C9.95858 10.1921 11.1677 8.98299 12.6535 8.98299Z" fill="#FFFEFE"/>
<path d="M12.6535 86.2373C9.18603 86.2373 6.36536 89.058 6.36536 92.5254C6.36536 95.9929 9.18603 98.8136 12.6535 98.8136C16.1209 98.8136 18.9416 95.9929 18.9416 92.5254C18.9416 89.058 16.1209 86.2373 12.6535 86.2373ZM12.6535 95.2204C11.1677 95.2204 9.95858 94.0112 9.95858 92.5254C9.95858 91.0396 11.1677 89.8305 12.6535 89.8305C14.1393 89.8305 15.3484 91.0396 15.3484 92.5254C15.3484 94.0112 14.1393 95.2204 12.6535 95.2204Z" fill="#FFFEFE"/>
<path d="M78.2298 30.5711V0L72.8399 0L69.2467 0L67.4501 0L63.8569 0L62.0603 0L58.4671 0L0.975525 0L0.975525 104.203H44.1642C47.0101 105.339 50.3518 106 53.9755 106C58.4455 106 62.4951 105.005 65.6948 103.334C69.0042 105.053 73.0843 106 77.3315 106C87.9099 106 96.1959 100.475 96.1959 93.4237V86.2373V79.0508V71.8644V64.678V57.4915V50.3051V43.1186C96.1959 36.2682 88.3716 30.8765 78.2298 30.5711ZM92.6026 43.1186C92.6026 47.9875 85.6084 52.1017 77.3315 52.1017C69.0545 52.1017 62.0603 47.9875 62.0603 43.1186C62.0603 42.8186 62.0872 42.5222 62.1393 42.2293C62.1537 42.1449 62.1842 42.0622 62.204 41.9796C62.2507 41.7712 62.2992 41.561 62.3711 41.3562C62.4034 41.2645 62.4519 41.1747 62.4897 41.0831C62.5687 40.8908 62.646 40.6968 62.7484 40.5082C62.8041 40.404 62.8759 40.3052 62.9388 40.2027C63.0412 40.0321 63.1418 39.8614 63.2622 39.6961C63.3592 39.5631 63.4742 39.4338 63.5838 39.3026C63.688 39.1751 63.785 39.0475 63.9 38.9236C64.0761 38.7331 64.2737 38.5481 64.4749 38.3648C64.5378 38.3073 64.5935 38.2462 64.6582 38.1905C65.2133 37.7055 65.8529 37.2455 66.5752 36.8179C67.274 36.4029 68.0286 36.0364 68.8281 35.713C68.8748 35.6933 68.9251 35.6771 68.9736 35.6573C69.7641 35.3447 70.5942 35.0734 71.4709 34.8542C71.5015 34.847 71.5338 34.8417 71.5643 34.8327C72.3081 34.6494 73.0771 34.5021 73.864 34.3925C73.8963 34.3871 73.9269 34.3817 73.9592 34.3781C74.7875 34.2667 75.6337 34.1949 76.496 34.1661L77.3404 34.1356C85.6138 34.1392 92.6026 38.2498 92.6026 43.1186ZM92.4859 87.2757C92.4553 87.4266 92.4104 87.5758 92.3655 87.7267C92.3242 87.8668 92.2846 88.007 92.2325 88.1435C92.175 88.2908 92.105 88.4363 92.0349 88.5819C91.9702 88.7166 91.9091 88.8513 91.8337 88.9843C91.7528 89.1262 91.6594 89.2664 91.566 89.4047C91.4798 89.5341 91.3971 89.6652 91.3001 89.791C91.1959 89.9293 91.0791 90.0623 90.9623 90.1952C90.8563 90.3174 90.7557 90.4414 90.6407 90.5599C90.5132 90.6929 90.3731 90.8204 90.2347 90.948C90.1125 91.063 89.994 91.178 89.8628 91.2894C89.7155 91.4151 89.5538 91.5337 89.3957 91.6541C89.2556 91.7601 89.1208 91.8679 88.9735 91.9721C88.8064 92.0888 88.6267 92.1984 88.4489 92.3098C88.2944 92.4086 88.1435 92.5075 87.9818 92.6027C87.7967 92.7105 87.6009 92.8093 87.4069 92.9117C87.2362 93.0015 87.0709 93.0931 86.8948 93.1776C86.6918 93.2746 86.478 93.3644 86.266 93.4561C86.0863 93.5351 85.9103 93.616 85.7234 93.6896C85.5006 93.7777 85.2653 93.8567 85.0335 93.9394C84.8467 94.0058 84.6652 94.0759 84.473 94.137C84.234 94.2142 83.9825 94.2807 83.7364 94.349C83.5405 94.4047 83.3501 94.464 83.1507 94.5143C82.8938 94.5789 82.6279 94.6311 82.3656 94.6867C82.1661 94.7299 81.9721 94.7784 81.7691 94.8143C81.4834 94.8664 81.1906 94.9059 80.8995 94.949C80.7109 94.9778 80.524 95.0119 80.3318 95.0353C80.0066 95.0748 79.6742 95.1 79.3437 95.1269C79.1784 95.1413 79.0167 95.161 78.8496 95.1718C78.3501 95.2042 77.8435 95.2203 77.3315 95.2203C76.629 95.2203 75.9373 95.1808 75.251 95.1233C75.0641 95.1071 74.8791 95.0892 74.694 95.0694C74.1173 95.0083 73.546 94.9275 72.9819 94.8251C72.8992 94.8107 72.8148 94.7999 72.7303 94.7838C72.8004 94.3364 72.8399 93.8837 72.8399 93.4237V91.2678C72.9657 91.2876 73.0933 91.2947 73.219 91.3127C73.7041 91.3846 74.1928 91.4439 74.6833 91.4888C74.8863 91.5085 75.0875 91.5301 75.2905 91.5445C75.9678 91.5948 76.6469 91.6271 77.3315 91.6271C78.0663 91.6271 78.7867 91.5948 79.4982 91.5427C79.7281 91.5265 79.9491 91.4978 80.1773 91.4762C80.657 91.4295 81.1313 91.3756 81.5966 91.3073C81.8517 91.2696 82.1015 91.2247 82.3512 91.1816C82.7824 91.1043 83.2064 91.0199 83.6232 90.9229C83.8675 90.8671 84.1083 90.8115 84.3472 90.7486C84.7784 90.6372 85.1952 90.5114 85.6102 90.3785C85.8115 90.3138 86.0163 90.2563 86.2121 90.188C86.787 89.9868 87.3476 89.7712 87.883 89.5341C87.9045 89.5251 87.9261 89.5179 87.9476 89.5089C88.5028 89.261 89.031 88.9897 89.5412 88.704C89.7047 88.6124 89.8556 88.5136 90.0137 88.4184C90.3533 88.2136 90.6857 88.0051 91.0019 87.786C91.1708 87.6674 91.3324 87.5452 91.4959 87.423C91.7852 87.2057 92.0601 86.9811 92.326 86.7511C92.405 86.681 92.4984 86.62 92.5757 86.5499C92.5703 86.6487 92.5613 86.7493 92.5488 86.8481C92.5308 86.9883 92.5146 87.132 92.4859 87.2757ZM69.1299 87.2757C69.0994 87.4266 69.0545 87.5758 69.0096 87.7267C68.9682 87.8668 68.9287 88.007 68.8766 88.1435C68.8191 88.2908 68.749 88.4363 68.679 88.5819C68.6143 88.7166 68.5532 88.8513 68.4778 88.9843C68.3969 89.1262 68.3035 89.2664 68.2101 89.4047C68.1238 89.5341 68.0412 89.6652 67.9442 89.791C67.84 89.9293 67.7232 90.0623 67.6064 90.1952C67.5004 90.3174 67.3998 90.4414 67.2848 90.5599C67.1573 90.6929 67.0171 90.8204 66.8788 90.948C66.7566 91.063 66.638 91.178 66.5069 91.2894C66.3596 91.4151 66.1979 91.5337 66.0398 91.6541C65.8996 91.7601 65.7649 91.8679 65.6176 91.9721C65.4505 92.0888 65.2708 92.1984 65.0929 92.3098C64.9384 92.4086 64.7875 92.5075 64.6258 92.6027C64.4408 92.7105 64.245 92.8093 64.0509 92.9117C63.8802 93.0015 63.715 93.0931 63.5389 93.1776C63.3359 93.2746 63.1221 93.3644 62.9101 93.4561C62.7304 93.5351 62.5543 93.616 62.3675 93.6896C62.1447 93.7777 61.9094 93.8567 61.6776 93.9394C61.4907 94.0058 61.3093 94.0759 61.1171 94.137C60.8781 94.2142 60.6266 94.2807 60.3804 94.349C60.1846 94.4047 59.9942 94.464 59.7947 94.5143C59.5378 94.5789 59.2719 94.6311 59.0096 94.6867C58.8102 94.7299 58.6162 94.7784 58.4132 94.8143C58.1275 94.8664 57.8346 94.9059 57.5436 94.949C57.3549 94.9778 57.1681 95.0119 56.9759 95.0353C56.6507 95.0748 56.3183 95.1 55.9877 95.1269C55.8224 95.1413 55.6608 95.161 55.4937 95.1718C54.9942 95.2042 54.4876 95.2203 53.9755 95.2203C53.4635 95.2203 52.9568 95.2042 52.4556 95.1736C52.2885 95.1628 52.1268 95.1431 51.9615 95.1287C51.6292 95.1018 51.2968 95.0766 50.9734 95.0371C50.7812 95.0137 50.5961 94.9796 50.4057 94.9508C50.1146 94.9077 49.8218 94.8682 49.5361 94.8161C49.3349 94.7784 49.1409 94.7299 48.9414 94.6885C48.6773 94.6328 48.4114 94.5789 48.1527 94.5143C47.9533 94.464 47.7646 94.4047 47.5706 94.3508C47.3227 94.2807 47.0712 94.2142 46.8304 94.137C46.6382 94.0759 46.4567 94.0058 46.2699 93.9394C46.0381 93.8567 45.8045 93.7794 45.58 93.6896C45.3931 93.616 45.2188 93.5333 45.0374 93.4561C44.8272 93.3644 44.6116 93.2746 44.4086 93.1776C44.2325 93.0931 44.0672 92.9997 43.8965 92.9117C43.7025 92.8093 43.5067 92.7105 43.3216 92.6027C43.1599 92.5092 43.009 92.4086 42.8545 92.3098C42.6784 92.1984 42.497 92.0888 42.3299 91.9721C42.1826 91.8697 42.0478 91.7619 41.9077 91.6541C41.7496 91.5337 41.5879 91.4151 41.4406 91.2894C41.3094 91.178 41.1908 91.063 41.0687 90.948C40.9303 90.8204 40.7902 90.6929 40.6626 90.5599C40.5495 90.4414 40.4471 90.3174 40.3428 90.197C40.2279 90.0623 40.1093 89.9293 40.0051 89.791C39.9099 89.6652 39.8272 89.5359 39.741 89.4065C39.6476 89.2664 39.5523 89.1262 39.4715 88.9843C39.396 88.8531 39.3349 88.7166 39.2703 88.5819C39.2002 88.4363 39.1301 88.2908 39.0726 88.1435C39.0205 88.007 38.981 87.8668 38.9397 87.7267C38.8948 87.5776 38.8499 87.4284 38.8193 87.2757C38.7906 87.1338 38.7744 86.9883 38.7564 86.8445C38.7439 86.7457 38.7367 86.6469 38.7295 86.5463C38.8067 86.6164 38.8984 86.6793 38.9774 86.7475C39.2433 86.9793 39.52 87.2039 39.8093 87.4212C39.971 87.5434 40.1326 87.6656 40.3015 87.7824C40.6177 88.0034 40.9501 88.2118 41.2915 88.4166C41.4496 88.5118 41.6005 88.6106 41.764 88.7022C42.2742 88.9879 42.8024 89.2592 43.3576 89.5071C43.3773 89.5161 43.3971 89.5215 43.4168 89.5305C43.9558 89.7694 44.5164 89.9868 45.0931 90.1862C45.2889 90.2545 45.4937 90.312 45.695 90.3767C46.1082 90.5078 46.5268 90.6336 46.958 90.7468C47.1969 90.8079 47.4377 90.8636 47.682 90.9193C48.0988 91.0145 48.5228 91.1007 48.954 91.178C49.2037 91.2229 49.4535 91.266 49.7086 91.3037C50.1739 91.3738 50.6482 91.4259 51.1279 91.4726C51.3543 91.4942 51.5771 91.5229 51.8052 91.5391C52.5203 91.5948 53.2407 91.6271 53.9755 91.6271C54.7103 91.6271 55.4308 91.5948 56.1422 91.5427C56.3722 91.5265 56.5932 91.4978 56.8214 91.4762C57.3011 91.4295 57.7754 91.3756 58.2407 91.3073C58.4958 91.2696 58.7455 91.2247 58.9953 91.1816C59.4264 91.1043 59.8504 91.0199 60.2673 90.9229C60.5116 90.8671 60.7523 90.8115 60.9913 90.7486C61.4225 90.6372 61.8393 90.5114 62.2543 90.3785C62.4555 90.3138 62.6603 90.2563 62.8562 90.188C63.4311 89.9868 63.9916 89.7712 64.527 89.5341C64.5486 89.5251 64.5701 89.5179 64.5917 89.5089C65.1469 89.261 65.6751 88.9897 66.1853 88.704C66.3488 88.6124 66.4997 88.5136 66.6578 88.4184C66.9974 88.2136 67.3297 88.0051 67.6459 87.786C67.8148 87.6674 67.9765 87.5452 68.14 87.423C68.4293 87.2057 68.7041 86.9811 68.97 86.7511C69.0491 86.681 69.1425 86.62 69.2198 86.5499C69.2144 86.6487 69.2054 86.7493 69.1928 86.8481C69.1749 86.9883 69.1587 87.132 69.1299 87.2757ZM13.5518 34.5183L13.5518 23.3218C19.2776 22.8834 23.8589 18.3021 24.2973 12.5763L38.7367 12.5763C39.1751 18.3021 43.7582 22.8834 49.4822 23.3218V34.5183C49.4553 34.4913 49.4265 34.468 49.3996 34.441C49.0977 34.1356 48.7743 33.8535 48.4563 33.5643C48.1491 33.2822 47.8509 32.9894 47.5329 32.7235C47.4161 32.6264 47.2903 32.5438 47.1718 32.4504C43.4869 29.4967 39.0349 27.6247 34.2559 27.1055C34.1966 27.0983 34.1409 27.0857 34.0817 27.0785C33.2373 26.9941 32.3821 26.9492 31.5179 26.9492C30.6537 26.9492 29.7985 26.9941 28.9523 27.0785C28.8931 27.0839 28.8374 27.0983 28.7781 27.1055C23.9991 27.6229 19.5471 29.4967 15.8622 32.4504C15.7437 32.5438 15.6179 32.6282 15.5011 32.7235C15.1813 32.9894 14.8831 33.2822 14.5777 33.5643C14.2615 33.8535 13.9363 34.1356 13.6344 34.441C13.6075 34.468 13.5787 34.4913 13.5518 34.5183ZM56.8878 55.8692C56.9148 55.8728 56.9417 55.8728 56.9687 55.8764C57.9173 55.9931 58.8497 56.1656 59.7642 56.392C60.5511 56.5878 61.2985 56.8268 62.0154 57.0963C62.3657 57.2274 62.7071 57.3676 63.0394 57.5149C63.2227 57.5957 63.4131 57.673 63.5892 57.7592C64.0851 58.0018 64.554 58.2641 64.9977 58.5425C65.0983 58.6036 65.1936 58.6683 65.2906 58.7312C66.2625 59.3744 67.0962 60.0948 67.734 60.8709C67.7519 60.8925 67.7717 60.9159 67.7897 60.9374C68.007 61.2069 68.1975 61.48 68.3646 61.7549C68.3843 61.7872 68.4059 61.8178 68.4239 61.8483C68.5784 62.1088 68.7023 62.3729 68.8137 62.637C68.8353 62.6891 68.8622 62.7376 68.882 62.7897C68.9772 63.0377 69.0437 63.2874 69.1012 63.5389C69.1156 63.6036 69.1407 63.6683 69.1533 63.7329C69.2144 64.0491 69.2467 64.3618 69.2467 64.678C69.2467 69.5468 62.2525 73.661 53.9755 73.661C45.6985 73.661 38.7043 69.5468 38.7043 64.678C38.7043 63.8964 38.902 63.1383 39.2397 62.4088C39.732 61.3417 40.571 60.332 41.6957 59.4301C41.7676 59.3726 41.8412 59.3151 41.9167 59.2576C42.2311 59.0168 42.5689 58.7851 42.9246 58.5623C45.7309 56.8124 49.6744 55.6949 53.9755 55.6949C54.9565 55.6949 55.9284 55.756 56.8878 55.8692ZM63.1688 51.4891C63.3305 51.6112 63.4922 51.7334 63.661 51.8502C63.9773 52.0712 64.3096 52.2796 64.651 52.4844C64.8091 52.5796 64.96 52.6784 65.1235 52.77C65.6337 53.0557 66.1619 53.327 66.7171 53.5749C66.7368 53.5839 66.7566 53.5893 66.7764 53.5983C67.3154 53.8372 67.8759 54.0546 68.4526 54.254C68.6484 54.3223 68.8533 54.3798 69.0545 54.4445C69.4677 54.5756 69.8863 54.7014 70.3175 54.8146C70.5564 54.8757 70.7972 54.9314 71.0415 54.987C71.4583 55.0823 71.8823 55.1685 72.3135 55.2458C72.5633 55.2907 72.813 55.3338 73.0681 55.3715C73.5334 55.4416 74.0077 55.4937 74.4874 55.5404C74.7138 55.562 74.9366 55.5907 75.1647 55.6069C75.8762 55.6626 76.5966 55.6949 77.3315 55.6949C78.0663 55.6949 78.7867 55.6626 79.4982 55.6105C79.7281 55.5943 79.9491 55.5656 80.1773 55.544C80.657 55.4973 81.1313 55.4434 81.5966 55.3751C81.8517 55.3374 82.1015 55.2925 82.3512 55.2494C82.7824 55.1721 83.2064 55.0877 83.6232 54.9906C83.8675 54.9349 84.1083 54.8793 84.3472 54.8164C84.7784 54.705 85.1952 54.5792 85.6102 54.4463C85.8115 54.3816 86.0163 54.3241 86.2121 54.2558C86.787 54.0546 87.3476 53.839 87.883 53.6019C87.9045 53.5929 87.9261 53.5857 87.9476 53.5767C88.5028 53.3288 89.031 53.0575 89.5412 52.7718C89.7047 52.6802 89.8556 52.5814 90.0137 52.4862C90.3533 52.2814 90.6857 52.0729 91.0019 51.8538C91.1708 51.7352 91.3324 51.613 91.4959 51.4908C91.7852 51.2735 92.0601 51.0489 92.326 50.8189C92.405 50.7488 92.4984 50.6878 92.5757 50.6177C92.5703 50.7165 92.5613 50.8171 92.5488 50.9159C92.5308 51.0597 92.5164 51.2052 92.4859 51.3471C92.4553 51.498 92.4104 51.6471 92.3655 51.7981C92.3242 51.9382 92.2846 52.0783 92.2325 52.2149C92.175 52.3622 92.105 52.5077 92.0349 52.6533C91.9702 52.788 91.9091 52.9227 91.8337 53.0557C91.7528 53.1976 91.6594 53.3378 91.566 53.4761C91.4798 53.6055 91.3971 53.7366 91.3001 53.8624C91.1959 54.0007 91.0791 54.1337 90.9623 54.2666C90.8563 54.3888 90.7557 54.5127 90.6407 54.6313C90.5132 54.7643 90.3731 54.8918 90.2347 55.0194C90.1125 55.1344 89.994 55.2494 89.8628 55.3607C89.7155 55.4865 89.5538 55.6051 89.3957 55.7255C89.2556 55.8315 89.1208 55.9393 88.9735 56.0435C88.8064 56.1602 88.6267 56.2698 88.4489 56.3812C88.2944 56.48 88.1435 56.5788 87.9818 56.6741C87.7967 56.7819 87.6009 56.8807 87.4069 56.9831C87.2362 57.0729 87.0709 57.1645 86.8948 57.249C86.6918 57.346 86.478 57.4358 86.266 57.5275C86.0863 57.6065 85.9103 57.6874 85.7234 57.761C85.5006 57.8491 85.2653 57.9281 85.0335 58.0107C84.8467 58.0772 84.6652 58.1473 84.473 58.2084C84.234 58.2856 83.9825 58.3521 83.7364 58.4204C83.5405 58.4761 83.3501 58.5354 83.1507 58.5857C82.8938 58.6503 82.6279 58.7024 82.3656 58.7581C82.1661 58.8013 81.9721 58.8498 81.7691 58.8857C81.4834 58.9378 81.1906 58.9773 80.8995 59.0204C80.7109 59.0492 80.524 59.0833 80.3318 59.1067C80.0066 59.1462 79.6742 59.1714 79.3437 59.1983C79.1784 59.2127 79.0167 59.2324 78.8496 59.2432C78.3501 59.272 77.8435 59.2881 77.3315 59.2881C76.6865 59.2881 76.0451 59.2612 75.4091 59.2127C75.2061 59.1965 75.0084 59.166 74.8072 59.1462C74.376 59.1031 73.9466 59.0582 73.5244 58.9935C73.2891 58.9576 73.0609 58.9055 72.8274 58.8623C72.4483 58.7923 72.0674 58.7222 71.6973 58.6324C71.4601 58.5749 71.2302 58.5048 70.9984 58.4419C70.7307 58.3683 70.4666 58.291 70.2079 58.2084C68.5299 56.3111 66.135 54.7481 63.237 53.6791C62.5238 52.6838 62.1303 51.6507 62.0693 50.5997C62.1519 50.6752 62.2507 50.7417 62.3369 50.8171C62.6028 51.0471 62.8795 51.2717 63.1688 51.4891ZM91.0019 59.0384C91.1708 58.9198 91.3324 58.7977 91.4959 58.6755C91.7852 58.4581 92.0601 58.2335 92.326 58.0036C92.405 57.9335 92.4984 57.8724 92.5757 57.8023C92.5703 57.9011 92.5613 58.0018 92.5488 58.1006C92.5308 58.2443 92.5164 58.3898 92.4859 58.5318C92.4553 58.6827 92.4104 58.8318 92.3655 58.9827C92.3242 59.1228 92.2846 59.263 92.2325 59.3995C92.175 59.5468 92.105 59.6924 92.0349 59.8379C91.9702 59.9726 91.9091 60.1074 91.8337 60.2403C91.7528 60.3823 91.6594 60.5224 91.566 60.6607C91.4798 60.7901 91.3971 60.9213 91.3001 61.047C91.1959 61.1854 91.0791 61.3183 90.9623 61.4512C90.8563 61.5734 90.7557 61.6974 90.6407 61.816C90.5132 61.9489 90.3731 62.0765 90.2347 62.204C90.1125 62.319 89.994 62.434 89.8628 62.5454C89.7155 62.6712 89.5538 62.7897 89.3957 62.9101C89.2556 63.0161 89.1208 63.1239 88.9735 63.2281C88.8064 63.3449 88.6267 63.4545 88.4489 63.5659C88.2944 63.6647 88.1435 63.7635 87.9818 63.8587C87.7967 63.9665 87.6009 64.0653 87.4069 64.1677C87.2362 64.2576 87.0709 64.3492 86.8948 64.4336C86.6918 64.5306 86.478 64.6205 86.266 64.7121C86.0863 64.7912 85.9103 64.872 85.7234 64.9457C85.5006 65.0337 85.2653 65.1127 85.0335 65.1954C84.8467 65.2619 84.6652 65.3319 84.473 65.393C84.234 65.4703 83.9825 65.5367 83.7364 65.605C83.5405 65.6607 83.3501 65.72 83.1507 65.7703C82.8938 65.835 82.6279 65.8871 82.3656 65.9428C82.1661 65.9859 81.9721 66.0344 81.7691 66.0703C81.4834 66.1224 81.1906 66.162 80.8995 66.2051C80.7109 66.2338 80.524 66.268 80.3318 66.2913C80.0066 66.3308 79.6742 66.356 79.3437 66.3829C79.1784 66.3973 79.0167 66.4171 78.8496 66.4279C78.3501 66.4584 77.8435 66.4746 77.3315 66.4746C76.4278 66.4746 75.5331 66.4099 74.6473 66.3129C74.3832 66.2841 74.1209 66.241 73.8586 66.2033C73.5155 66.1548 73.1795 66.0793 72.8399 66.0146V64.678C72.8399 64.2845 72.8076 63.8911 72.7537 63.4994C72.7214 63.2533 72.6639 63.0143 72.61 62.7718C72.5884 62.6729 72.5776 62.5741 72.5525 62.4771C72.5938 62.4843 72.6351 62.4861 72.6764 62.4933C73.1849 62.5777 73.7041 62.6334 74.2215 62.6909C74.4766 62.7197 74.7264 62.761 74.9833 62.7825C75.7612 62.8472 76.5445 62.8814 77.3315 62.8814C78.0663 62.8814 78.7867 62.849 79.4982 62.7969C79.7281 62.7807 79.9491 62.752 80.1773 62.7304C80.657 62.6837 81.1313 62.6298 81.5966 62.5616C81.8517 62.5238 82.1015 62.4789 82.3512 62.4358C82.7824 62.3585 83.2064 62.2741 83.6232 62.1771C83.8675 62.1214 84.1083 62.0657 84.3472 62.0028C84.7784 61.8914 85.1952 61.7657 85.6102 61.6327C85.8115 61.568 86.0163 61.5105 86.2121 61.4423C86.787 61.2411 87.3476 61.0255 87.883 60.7883C87.9045 60.7793 87.9261 60.7721 87.9476 60.7631C88.5028 60.5152 89.031 60.2439 89.5412 59.9583C89.7047 59.8666 89.8556 59.7678 90.0137 59.6726C90.3533 59.4678 90.6857 59.2576 91.0019 59.0384ZM91.0019 66.2248C91.1708 66.1063 91.3324 65.9841 91.4959 65.8619C91.7852 65.6445 92.0601 65.42 92.326 65.19C92.405 65.1199 92.4984 65.0588 92.5757 64.9888C92.5703 65.0876 92.5613 65.1882 92.5488 65.287C92.5308 65.4307 92.5164 65.5763 92.4859 65.7182C92.4553 65.8691 92.4104 66.0182 92.3655 66.1692C92.3242 66.3093 92.2846 66.4494 92.2325 66.586C92.175 66.7333 92.105 66.8788 92.0349 67.0243C91.9702 67.1591 91.9091 67.2938 91.8337 67.4268C91.7528 67.5687 91.6594 67.7088 91.566 67.8472C91.4798 67.9765 91.3971 68.1077 91.3001 68.2335C91.1959 68.3718 91.0791 68.5047 90.9623 68.6377C90.8563 68.7599 90.7557 68.8838 90.6407 69.0024C90.5132 69.1354 90.3731 69.2629 90.2347 69.3905C90.1125 69.5055 89.994 69.6204 89.8628 69.7318C89.7155 69.8576 89.5538 69.9762 89.3957 70.0965C89.2556 70.2025 89.1208 70.3103 88.9735 70.4145C88.8064 70.5313 88.6267 70.6409 88.4489 70.7523C88.2944 70.8511 88.1435 70.9499 87.9818 71.0452C87.7967 71.1529 87.6009 71.2518 87.4069 71.3542C87.2362 71.444 87.0709 71.5356 86.8948 71.6201C86.6918 71.7171 86.478 71.8069 86.266 71.8985C86.0863 71.9776 85.9103 72.0584 85.7234 72.1321C85.5006 72.2201 85.2653 72.2992 85.0335 72.3818C84.8467 72.4483 84.6652 72.5184 84.473 72.5795C84.234 72.6567 83.9825 72.7232 83.7364 72.7915C83.5405 72.8471 83.3501 72.9064 83.1507 72.9567C82.8938 73.0214 82.6279 73.0735 82.3656 73.1292C82.1661 73.1723 81.9721 73.2208 81.7691 73.2568C81.4834 73.3089 81.1906 73.3484 80.8995 73.3915C80.7109 73.4203 80.524 73.4544 80.3318 73.4778C80.0066 73.5173 79.6742 73.5424 79.3437 73.5694C79.1784 73.5838 79.0167 73.6035 78.8496 73.6143C78.3501 73.6448 77.8435 73.661 77.3315 73.661C76.4278 73.661 75.5331 73.5963 74.6473 73.4993C74.3832 73.4706 74.1209 73.4275 73.8586 73.3897C73.5155 73.3412 73.1795 73.2658 72.8399 73.2011V71.8644V69.7085C72.9657 69.7282 73.0933 69.7354 73.219 69.7534C73.7041 69.8253 74.1928 69.8845 74.6833 69.9295C74.8863 69.9492 75.0875 69.9708 75.2905 69.9851C75.9678 70.0355 76.6469 70.0678 77.3315 70.0678C78.0663 70.0678 78.7867 70.0355 79.4982 69.9834C79.7281 69.9672 79.9491 69.9384 80.1773 69.9169C80.657 69.8702 81.1313 69.8163 81.5966 69.748C81.8517 69.7103 82.1015 69.6654 82.3512 69.6222C82.7824 69.545 83.2064 69.4605 83.6232 69.3635C83.8675 69.3078 84.1083 69.2521 84.3472 69.1893C84.7784 69.0779 85.1952 68.9521 85.6102 68.8192C85.8115 68.7545 86.0163 68.697 86.2121 68.6287C86.787 68.4275 87.3476 68.2119 87.883 67.9747C87.9045 67.9658 87.9261 67.9586 87.9476 67.9496C88.5028 67.7017 89.031 67.4304 89.5412 67.1447C89.7047 67.0531 89.8556 66.9543 90.0137 66.859C90.3533 66.6542 90.6857 66.444 91.0019 66.2248ZM91.0019 73.4113C91.1708 73.2927 91.3324 73.1705 91.4959 73.0484C91.7852 72.831 92.0601 72.6064 92.326 72.3764C92.405 72.3064 92.4984 72.2453 92.5757 72.1752C92.5703 72.274 92.5613 72.3746 92.5488 72.4735C92.5308 72.6172 92.5164 72.7627 92.4859 72.9046C92.4553 73.0556 92.4104 73.2047 92.3655 73.3556C92.3242 73.4957 92.2846 73.6359 92.2325 73.7724C92.175 73.9197 92.105 74.0653 92.0349 74.2108C91.9702 74.3455 91.9091 74.4803 91.8337 74.6132C91.7528 74.7551 91.6594 74.8953 91.566 75.0336C91.4798 75.163 91.3971 75.2941 91.3001 75.4199C91.1959 75.5582 91.0791 75.6912 90.9623 75.8241C90.8563 75.9463 90.7557 76.0703 90.6407 76.1889C90.5132 76.3218 90.3731 76.4494 90.2347 76.5769C90.1125 76.6919 89.994 76.8069 89.8628 76.9183C89.7155 77.044 89.5538 77.1626 89.3957 77.283C89.2556 77.389 89.1208 77.4968 88.9735 77.601C88.8064 77.7178 88.6267 77.8274 88.4489 77.9387C88.2944 78.0376 88.1435 78.1364 87.9818 78.2316C87.7967 78.3394 87.6009 78.4382 87.4069 78.5406C87.2362 78.6304 87.0709 78.7221 86.8948 78.8065C86.6918 78.9035 86.478 78.9934 86.266 79.085C86.0863 79.164 85.9103 79.2449 85.7234 79.3185C85.5006 79.4066 85.2653 79.4856 85.0335 79.5683C84.8467 79.6347 84.6652 79.7048 84.473 79.7659C84.234 79.8431 83.9825 79.9096 83.7364 79.9779C83.5405 80.0336 83.3501 80.0929 83.1507 80.1432C82.8938 80.2079 82.6279 80.26 82.3656 80.3157C82.1661 80.3588 81.9721 80.4073 81.7691 80.4432C81.4834 80.4953 81.1906 80.5348 80.8995 80.578C80.7109 80.6067 80.524 80.6408 80.3318 80.6642C80.0066 80.7037 79.6742 80.7289 79.3437 80.7558C79.1784 80.7702 79.0167 80.79 78.8496 80.8007C78.3501 80.8313 77.8435 80.8475 77.3315 80.8475C76.4278 80.8475 75.5331 80.7828 74.6473 80.6858C74.3832 80.657 74.1209 80.6139 73.8586 80.5762C73.5155 80.5277 73.1795 80.4522 72.8399 80.3875V79.0508V76.8949C72.9657 76.9147 73.0933 76.9219 73.219 76.9398C73.7041 77.0117 74.1928 77.071 74.6833 77.1159C74.8863 77.1357 75.0875 77.1572 75.2905 77.1716C75.9678 77.2219 76.6469 77.2542 77.3315 77.2542C78.0663 77.2542 78.7867 77.2219 79.4982 77.1698C79.7281 77.1536 79.9491 77.1249 80.1773 77.1033C80.657 77.0566 81.1313 77.0027 81.5966 76.9344C81.8517 76.8967 82.1015 76.8518 82.3512 76.8087C82.7824 76.7314 83.2064 76.647 83.6232 76.55C83.8675 76.4943 84.1083 76.4386 84.3472 76.3757C84.7784 76.2643 85.1952 76.1385 85.6102 76.0056C85.8115 75.9409 86.0163 75.8834 86.2121 75.8152C86.787 75.6139 87.3476 75.3983 87.883 75.1612C87.9045 75.1522 87.9261 75.145 87.9476 75.136C88.5028 74.8881 89.031 74.6168 89.5412 74.3312C89.7047 74.2395 89.8556 74.1407 90.0137 74.0455C90.3533 73.8407 90.6857 73.6305 91.0019 73.4113ZM91.0019 80.5977C91.1708 80.4791 91.3324 80.357 91.4959 80.2348C91.7852 80.0174 92.0601 79.7928 92.326 79.5629C92.405 79.4928 92.4984 79.4317 92.5757 79.3617C92.5703 79.4605 92.5613 79.5611 92.5488 79.6599C92.5308 79.8036 92.5164 79.9492 92.4859 80.0911C92.4553 80.242 92.4104 80.3911 92.3655 80.542C92.3242 80.6822 92.2846 80.8223 92.2325 80.9588C92.175 81.1062 92.105 81.2517 92.0349 81.3972C91.9702 81.532 91.9091 81.6667 91.8337 81.7997C91.7528 81.9416 91.6594 82.0817 91.566 82.2201C91.4798 82.3494 91.3971 82.4806 91.3001 82.6063C91.1959 82.7447 91.0791 82.8776 90.9623 83.0106C90.8563 83.1327 90.7557 83.2567 90.6407 83.3753C90.5132 83.5082 90.3731 83.6358 90.2347 83.7634C90.1125 83.8783 89.994 83.9933 89.8628 84.1047C89.7155 84.2305 89.5538 84.349 89.3957 84.4694C89.2556 84.5754 89.1208 84.6832 88.9735 84.7874C88.8064 84.9042 88.6267 85.0138 88.4489 85.1252C88.2944 85.224 88.1435 85.3228 87.9818 85.418C87.7967 85.5258 87.6009 85.6246 87.4069 85.7271C87.2362 85.8169 87.0709 85.9085 86.8948 85.9929C86.6918 86.09 86.478 86.1798 86.266 86.2714C86.0863 86.3505 85.9103 86.4313 85.7234 86.505C85.5006 86.593 85.2653 86.6721 85.0335 86.7547C84.8467 86.8212 84.6652 86.8913 84.473 86.9523C84.234 87.0296 83.9825 87.0961 83.7364 87.1643C83.5405 87.22 83.3501 87.2793 83.1507 87.3296C82.8938 87.3943 82.6279 87.4464 82.3656 87.5021C82.1661 87.5452 81.9721 87.5937 81.7691 87.6297C81.4834 87.6818 81.1906 87.7213 80.8995 87.7644C80.7109 87.7931 80.524 87.8273 80.3318 87.8506C80.0066 87.8902 79.6742 87.9153 79.3437 87.9423C79.1784 87.9566 79.0167 87.9764 78.8496 87.9872C78.3501 88.0177 77.8435 88.0339 77.3315 88.0339C76.4278 88.0339 75.5331 87.9692 74.6473 87.8722C74.3832 87.8435 74.1209 87.8003 73.8586 87.7626C73.5155 87.7141 73.1795 87.6386 72.8399 87.574V86.2373V84.0814C72.9657 84.1011 73.0933 84.1083 73.219 84.1263C73.7041 84.1981 74.1928 84.2574 74.6833 84.3023C74.8863 84.3221 75.0875 84.3437 75.2905 84.358C75.9678 84.4083 76.6469 84.4407 77.3315 84.4407C78.0663 84.4407 78.7867 84.4083 79.4982 84.3562C79.7281 84.3401 79.9491 84.3113 80.1773 84.2898C80.657 84.243 81.1313 84.1891 81.5966 84.1209C81.8517 84.0831 82.1015 84.0382 82.3512 83.9951C82.7824 83.9179 83.2064 83.8334 83.6232 83.7364C83.8675 83.6807 84.1083 83.625 84.3472 83.5621C84.7784 83.4507 85.1952 83.325 85.6102 83.192C85.8115 83.1274 86.0163 83.0699 86.2121 83.0016C86.787 82.8004 87.3476 82.5848 87.883 82.3476C87.9045 82.3386 87.9261 82.3315 87.9476 82.3225C88.5028 82.0745 89.031 81.8033 89.5412 81.5176C89.7047 81.426 89.8556 81.3271 90.0137 81.2319C90.3533 81.0271 90.6857 80.8169 91.0019 80.5977ZM69.1299 80.0893C69.0994 80.2402 69.0545 80.3893 69.0096 80.5402C68.9682 80.6804 68.9287 80.8205 68.8766 80.957C68.8191 81.1044 68.749 81.2499 68.679 81.3954C68.6143 81.5302 68.5532 81.6649 68.4778 81.7979C68.3969 81.9398 68.3035 82.0799 68.2101 82.2183C68.1238 82.3476 68.0412 82.4788 67.9442 82.6045C67.84 82.7429 67.7232 82.8758 67.6064 83.0088C67.5004 83.1309 67.3998 83.2549 67.2848 83.3735C67.1573 83.5064 67.0171 83.634 66.8788 83.7616C66.7566 83.8765 66.638 83.9915 66.5069 84.1029C66.3596 84.2287 66.1979 84.3473 66.0398 84.4676C65.8996 84.5736 65.7649 84.6814 65.6176 84.7856C65.4505 84.9024 65.2708 85.012 65.0929 85.1234C64.9384 85.2222 64.7875 85.321 64.6258 85.4162C64.4408 85.524 64.245 85.6228 64.0509 85.7253C63.8802 85.8151 63.715 85.9067 63.5389 85.9911C63.3359 86.0882 63.1221 86.178 62.9101 86.2696C62.7304 86.3487 62.5543 86.4295 62.3675 86.5032C62.1447 86.5912 61.9094 86.6703 61.6776 86.7529C61.4907 86.8194 61.3093 86.8895 61.1171 86.9505C60.8781 87.0278 60.6266 87.0943 60.3804 87.1625C60.1846 87.2182 59.9942 87.2775 59.7947 87.3278C59.5378 87.3925 59.2719 87.4446 59.0096 87.5003C58.8102 87.5434 58.6162 87.5919 58.4132 87.6279C58.1275 87.68 57.8346 87.7195 57.5436 87.7626C57.3549 87.7914 57.1681 87.8255 56.9759 87.8488C56.6507 87.8884 56.3183 87.9135 55.9877 87.9405C55.8224 87.9548 55.6608 87.9746 55.4937 87.9854C54.9942 88.0177 54.4876 88.0339 53.9755 88.0339C53.4635 88.0339 52.9568 88.0177 52.4556 87.9872C52.2885 87.9764 52.1268 87.9566 51.9615 87.9423C51.6292 87.9153 51.2968 87.8902 50.9734 87.8506C50.7812 87.8273 50.5961 87.7931 50.4057 87.7644C50.1146 87.7213 49.8218 87.6818 49.5361 87.6297C49.3349 87.5919 49.1409 87.5434 48.9414 87.5021C48.6773 87.4464 48.4114 87.3925 48.1527 87.3278C47.9533 87.2775 47.7646 87.2182 47.5706 87.1643C47.3227 87.0943 47.0712 87.0278 46.8304 86.9505C46.6382 86.8895 46.4567 86.8194 46.2699 86.7529C46.0381 86.6703 45.8045 86.593 45.58 86.5032C45.3931 86.4295 45.2188 86.3469 45.0374 86.2696C44.8272 86.178 44.6116 86.0882 44.4086 85.9911C44.2325 85.9067 44.0672 85.8133 43.8965 85.7253C43.7025 85.6228 43.5067 85.524 43.3216 85.4162C43.1599 85.3228 43.009 85.2222 42.8545 85.1234C42.6784 85.012 42.497 84.9024 42.3299 84.7856C42.1826 84.6832 42.0478 84.5754 41.9077 84.4676C41.7496 84.3473 41.5879 84.2287 41.4406 84.1029C41.3094 83.9915 41.1908 83.8765 41.0687 83.7616C40.9303 83.634 40.7902 83.5064 40.6626 83.3735C40.5495 83.2549 40.4471 83.1309 40.3428 83.0106C40.2279 82.8758 40.1093 82.7429 40.0051 82.6045C39.9099 82.4788 39.8272 82.3494 39.741 82.2201C39.6476 82.0799 39.5523 81.9398 39.4715 81.7979C39.396 81.6667 39.3349 81.5302 39.2703 81.3954C39.2002 81.2499 39.1301 81.1044 39.0726 80.957C39.0205 80.8205 38.981 80.6804 38.9397 80.5402C38.8948 80.3911 38.8499 80.242 38.8193 80.0893C38.7906 79.9473 38.7744 79.8018 38.7564 79.6581C38.7439 79.5593 38.7367 79.4605 38.7295 79.3599C38.8067 79.4299 38.8984 79.4928 38.9774 79.5611C39.2433 79.7928 39.52 80.0174 39.8093 80.2348C39.971 80.357 40.1326 80.4791 40.3015 80.5959C40.6177 80.8169 40.9501 81.0253 41.2915 81.2301C41.4496 81.3254 41.6005 81.4242 41.764 81.5158C42.2742 81.8015 42.8024 82.0727 43.3576 82.3207C43.3773 82.3297 43.3971 82.3351 43.4168 82.344C43.9558 82.583 44.5164 82.8004 45.0931 82.9998C45.2889 83.0681 45.4937 83.1256 45.695 83.1902C46.1082 83.3214 46.5268 83.4471 46.958 83.5603C47.1969 83.6214 47.4377 83.6771 47.682 83.7328C48.0988 83.828 48.5228 83.9143 48.954 83.9915C49.2037 84.0364 49.4535 84.0796 49.7086 84.1173C50.1739 84.1874 50.6482 84.2395 51.1279 84.2862C51.3543 84.3077 51.5771 84.3365 51.8052 84.3526C52.5203 84.4083 53.2407 84.4407 53.9755 84.4407C54.7103 84.4407 55.4308 84.4083 56.1422 84.3562C56.3722 84.3401 56.5932 84.3113 56.8214 84.2898C57.3011 84.243 57.7754 84.1891 58.2407 84.1209C58.4958 84.0831 58.7455 84.0382 58.9953 83.9951C59.4264 83.9179 59.8504 83.8334 60.2673 83.7364C60.5116 83.6807 60.7523 83.625 60.9913 83.5621C61.4225 83.4507 61.8393 83.325 62.2543 83.192C62.4555 83.1274 62.6603 83.0699 62.8562 83.0016C63.4311 82.8004 63.9916 82.5848 64.527 82.3476C64.5486 82.3386 64.5701 82.3315 64.5917 82.3225C65.1469 82.0745 65.6751 81.8033 66.1853 81.5176C66.3488 81.426 66.4997 81.3271 66.6578 81.2319C66.9974 81.0271 67.3297 80.8187 67.6459 80.5995C67.8148 80.4809 67.9765 80.3588 68.14 80.2366C68.4293 80.0192 68.7041 79.7946 68.97 79.5647C69.0491 79.4946 69.1425 79.4335 69.2198 79.3635C69.2144 79.4623 69.2054 79.5629 69.1928 79.6617C69.1749 79.8018 69.1587 79.9456 69.1299 80.0893ZM33.6631 73.5335C32.9462 73.6071 32.2294 73.661 31.5179 73.661C30.6699 73.661 29.8327 73.5981 29.0044 73.5011C28.7385 73.4706 28.4762 73.4203 28.2139 73.3807C27.6534 73.2945 27.1 73.1903 26.5521 73.061C26.2538 72.9909 25.9574 72.9154 25.6627 72.831C25.1417 72.6837 24.6297 72.5112 24.1231 72.3261C23.8536 72.2273 23.5787 72.1393 23.3128 72.0297C22.5959 71.735 21.8953 71.4063 21.2161 71.0344C21.0077 70.9194 20.8119 70.7846 20.6071 70.6643C20.1094 70.3696 19.6172 70.0624 19.1428 69.7282C18.9039 69.5594 18.6739 69.3815 18.4422 69.2036C17.9804 68.8479 17.5313 68.476 17.0965 68.0825C16.9312 67.9334 16.7623 67.7879 16.6024 67.6334C16.2377 67.2812 15.9018 66.895 15.5604 66.5159L21.1119 60.4146C21.8629 59.5918 22.8888 59.1731 23.7673 59.3312C23.85 59.3456 23.9326 59.3636 24.0153 59.3852C24.2865 59.5972 24.8704 60.1325 25.2693 60.5008C26.2484 61.4045 26.888 61.9759 27.4055 62.3244C28.4205 64.2791 29.8273 65.0553 30.8711 65.3571C32.1359 65.7236 33.5571 65.6104 35.1093 65.0499V71.8644V73.3161C34.9153 73.3484 34.7231 73.3915 34.529 73.4185C34.2416 73.4616 33.9505 73.5029 33.6631 73.5335ZM10.0592 50.1254C10.0736 49.9601 10.0933 49.7966 10.1113 49.6332C10.176 49.0654 10.2604 48.5049 10.3682 47.9515C10.3844 47.8671 10.3952 47.7826 10.4131 47.7C10.5461 47.064 10.7096 46.437 10.8964 45.8225C10.9359 45.6932 10.9826 45.5656 11.024 45.4363C11.1803 44.9584 11.3527 44.4895 11.5414 44.0259C11.6115 43.8535 11.6797 43.681 11.7534 43.5121C11.9672 43.0234 12.1989 42.5455 12.4451 42.0766C12.5744 41.8341 12.7128 41.5969 12.8511 41.358C13.002 41.0975 13.1583 40.8423 13.32 40.589C13.3236 40.5836 13.329 40.5764 13.3326 40.5711L18.5158 46.2591C19.8417 47.7162 21.6042 48.4959 23.3667 48.5049C24.0188 48.4941 24.6584 48.3845 25.2657 48.1743C26.0113 47.9156 26.5107 47.3263 27.0389 46.7029C27.9301 45.659 28.6415 44.9153 29.7213 44.9153C31.5053 44.9153 33.2211 45.5818 34.5524 46.7927L36.4747 48.7708L37.3766 46.2196C37.8078 45.6842 39.8344 44.9763 41.0741 44.8362C41.7729 46.7173 43.0072 51.2465 40.8118 55.6015C40.6878 55.6823 40.562 55.7614 40.4417 55.844C40.2207 55.9949 40.0159 56.153 39.8057 56.3112C39.6224 56.4495 39.4356 56.5842 39.2613 56.728C39.0619 56.8933 38.8786 57.0675 38.6918 57.2382C38.5301 57.3873 38.363 57.5311 38.2121 57.6856C38.0342 57.8652 37.8761 58.0539 37.7126 58.2407C37.5743 58.397 37.4287 58.5515 37.3012 58.7132C37.1467 58.9073 37.0137 59.1103 36.8754 59.3115C36.7622 59.475 36.64 59.6349 36.5376 59.802C36.4065 60.0158 36.2987 60.2367 36.1855 60.4541C36.1783 60.4685 36.1711 60.4811 36.1639 60.4955C34.3763 61.6668 32.8168 62.1807 31.8718 61.9022C31.6544 61.8393 30.9987 61.6507 30.4274 60.305L30.0159 59.3384L29.2937 59.2576C28.9146 58.9737 28.1726 58.2892 27.7037 57.858C26.4515 56.7064 25.9197 56.2303 25.3232 56.0291C25.0142 55.9249 24.7016 55.8458 24.3872 55.7919C22.2654 55.4182 20.0483 56.2447 18.4565 57.9964L13.3326 63.6287C13.329 63.6234 13.3236 63.618 13.32 63.6126C13.1709 63.3772 13.0254 63.1383 12.8835 62.8957C12.7254 62.6262 12.5708 62.3567 12.4253 62.0837C12.1864 61.6291 11.9618 61.1692 11.757 60.6967C11.6797 60.5224 11.6115 60.3445 11.5396 60.1685C11.3545 59.7103 11.1821 59.245 11.0276 58.7725C10.9844 58.6414 10.9377 58.5102 10.8964 58.3773C10.7096 57.7628 10.5461 57.1394 10.4131 56.5034C10.3952 56.4189 10.3844 56.3327 10.3682 56.2483C10.2604 55.6967 10.176 55.1344 10.1113 54.5684C10.0933 54.4049 10.0736 54.2415 10.0592 54.0762C9.9999 53.4258 9.95858 52.7682 9.95858 52.1017C9.95858 51.4352 9.9999 50.7776 10.0592 50.1254ZM39.8129 73.0484C39.9745 73.1705 40.1362 73.2927 40.3051 73.4095C40.6213 73.6305 40.9537 73.8389 41.2951 74.0437C41.4532 74.1389 41.6041 74.2377 41.7676 74.3294C42.2778 74.615 42.806 74.8863 43.3612 75.1342C43.3809 75.1432 43.4007 75.1486 43.4204 75.1576C43.9594 75.3965 44.52 75.6139 45.0967 75.8134C45.2925 75.8816 45.4973 75.9391 45.6985 76.0038C46.1118 76.1349 46.5304 76.2607 46.9616 76.3739C47.2005 76.435 47.4413 76.4907 47.6856 76.5464C48.1024 76.6416 48.5264 76.7278 48.9576 76.8051C49.2073 76.85 49.4571 76.8931 49.7122 76.9308C50.1775 77.0009 50.6518 77.053 51.1315 77.0997C51.3579 77.1213 51.5806 77.15 51.8088 77.1662C52.5203 77.2219 53.2407 77.2542 53.9755 77.2542C54.7103 77.2542 55.4308 77.2219 56.1422 77.1698C56.3722 77.1536 56.5932 77.1249 56.8214 77.1033C57.3011 77.0566 57.7754 77.0027 58.2407 76.9344C58.4958 76.8967 58.7455 76.8518 58.9953 76.8087C59.4264 76.7314 59.8504 76.647 60.2673 76.55C60.5116 76.4943 60.7523 76.4386 60.9913 76.3757C61.4225 76.2643 61.8393 76.1385 62.2543 76.0056C62.4555 75.9409 62.6603 75.8834 62.8562 75.8152C63.4311 75.6139 63.9916 75.3983 64.527 75.1612C64.5486 75.1522 64.5701 75.145 64.5917 75.136C65.1469 74.8881 65.6751 74.6168 66.1853 74.3312C66.3488 74.2395 66.4997 74.1407 66.6578 74.0455C66.9974 73.8407 67.3297 73.6323 67.6459 73.4131C67.8148 73.2945 67.9765 73.1723 68.14 73.0502C68.4293 72.8328 68.7041 72.6082 68.97 72.3782C69.0491 72.3082 69.1425 72.2471 69.2198 72.177C69.2144 72.2758 69.2054 72.3764 69.1928 72.4753C69.1749 72.619 69.1605 72.7645 69.1299 72.9064C69.0994 73.0574 69.0545 73.2065 69.0096 73.3574C68.9682 73.4975 68.9287 73.6377 68.8766 73.7742C68.8191 73.9215 68.749 74.067 68.679 74.2126C68.6143 74.3473 68.5532 74.4821 68.4778 74.615C68.3969 74.7569 68.3035 74.8971 68.2101 75.0354C68.1238 75.1648 68.0412 75.2959 67.9442 75.4217C67.84 75.56 67.7232 75.693 67.6064 75.8259C67.5004 75.9481 67.3998 76.0721 67.2848 76.1906C67.1573 76.3236 67.0171 76.4511 66.8788 76.5787C66.7566 76.6937 66.638 76.8087 66.5069 76.9201C66.3596 77.0458 66.1979 77.1644 66.0398 77.2848C65.8996 77.3908 65.7649 77.4986 65.6176 77.6028C65.4505 77.7196 65.2708 77.8291 65.0929 77.9405C64.9384 78.0394 64.7875 78.1382 64.6258 78.2334C64.4408 78.3412 64.245 78.44 64.0509 78.5424C63.8802 78.6322 63.715 78.7239 63.5389 78.8083C63.3359 78.9053 63.1221 78.9951 62.9101 79.0868C62.7304 79.1658 62.5543 79.2467 62.3675 79.3203C62.1447 79.4084 61.9094 79.4874 61.6776 79.5701C61.4907 79.6365 61.3093 79.7066 61.1171 79.7677C60.8781 79.8449 60.6266 79.9114 60.3804 79.9797C60.1846 80.0354 59.9942 80.0947 59.7947 80.145C59.5378 80.2097 59.2719 80.2618 59.0096 80.3175C58.8102 80.3606 58.6162 80.4091 58.4132 80.445C58.1275 80.4971 57.8346 80.5366 57.5436 80.5798C57.3549 80.6085 57.1681 80.6426 56.9759 80.666C56.6507 80.7055 56.3183 80.7307 55.9877 80.7576C55.8224 80.772 55.6608 80.7918 55.4937 80.8025C54.9942 80.8313 54.4876 80.8475 53.9755 80.8475C53.4635 80.8475 52.9568 80.8313 52.4556 80.8007C52.2885 80.79 52.1268 80.7702 51.9615 80.7558C51.6292 80.7289 51.2968 80.7037 50.9734 80.6642C50.7812 80.6408 50.5961 80.6067 50.4057 80.578C50.1146 80.5348 49.8218 80.4953 49.5361 80.4432C49.3349 80.4055 49.1409 80.357 48.9414 80.3157C48.6773 80.26 48.4114 80.2061 48.1527 80.1414C47.9533 80.0911 47.7646 80.0318 47.5706 79.9779C47.3227 79.9078 47.0712 79.8414 46.8304 79.7641C46.6382 79.703 46.4567 79.6329 46.2699 79.5665C46.0381 79.4838 45.8045 79.4066 45.58 79.3167C45.3931 79.2431 45.2188 79.1604 45.0374 79.0832C44.8272 78.9916 44.6116 78.9017 44.4086 78.8047C44.2325 78.7203 44.0672 78.6268 43.8965 78.5388C43.7025 78.4364 43.5067 78.3376 43.3216 78.2298C43.1599 78.1364 43.009 78.0358 42.8545 77.937C42.6784 77.8256 42.497 77.716 42.3299 77.5992C42.1826 77.4968 42.0478 77.389 41.9077 77.2812C41.7496 77.1608 41.5879 77.0422 41.4406 76.9165C41.3094 76.8051 41.1908 76.6901 41.0687 76.5751C40.9303 76.4476 40.7902 76.32 40.6626 76.187C40.5495 76.0685 40.4471 75.9445 40.3428 75.8241C40.2279 75.6894 40.1093 75.5564 40.0051 75.4181C39.9099 75.2923 39.8272 75.163 39.741 75.0336C39.6476 74.8935 39.5523 74.7533 39.4715 74.6114C39.396 74.4803 39.3349 74.3437 39.2703 74.209C39.2002 74.0635 39.1301 73.9179 39.0726 73.7706C39.0205 73.6341 38.981 73.4939 38.9397 73.3538C38.8948 73.2047 38.8499 73.0556 38.8193 72.9028C38.7906 72.7609 38.7744 72.6154 38.7564 72.4717C38.7439 72.3728 38.7367 72.274 38.7295 72.1734C38.8067 72.2435 38.8984 72.3064 38.9774 72.3746C39.2469 72.6064 39.5236 72.831 39.8129 73.0484ZM51.6256 52.2041C51.2932 52.231 50.9662 52.2652 50.641 52.3011C50.35 52.3353 50.0589 52.3694 49.7715 52.4107C49.4517 52.4574 49.1373 52.5113 48.8246 52.5688C48.5444 52.6209 48.2641 52.6712 47.9892 52.7323C47.682 52.7988 47.382 52.8724 47.0837 52.9497C46.816 53.018 46.5483 53.0862 46.2878 53.1617C45.995 53.2461 45.7093 53.3396 45.4255 53.4348C45.3949 53.4456 45.3626 53.4545 45.3302 53.4653C46.5483 47.5976 44.0259 42.5581 43.893 42.2976L43.5408 41.6113L42.8006 41.3939C41.2573 40.943 37.7054 41.6059 35.5944 43.0719C33.8553 41.9347 31.8215 41.322 29.7213 41.322C26.8952 41.322 25.2046 43.3127 24.2991 44.3835C24.1518 44.5559 24.0278 44.7158 23.9075 44.8362C23.7188 44.8847 23.5158 44.9117 23.3092 44.9135C22.5384 44.8865 21.8036 44.5344 21.173 43.8409L15.564 37.6857C15.9054 37.3066 16.2395 36.9203 16.6042 36.57C16.7641 36.4155 16.933 36.27 17.0983 36.1208C17.5313 35.7274 17.9822 35.3555 18.444 34.9998C18.6757 34.8219 18.9057 34.644 19.1446 34.4752C19.6189 34.141 20.1094 33.8338 20.6089 33.5391C20.8137 33.4187 21.0095 33.2822 21.2179 33.169C21.8971 32.7989 22.5977 32.4701 23.3146 32.1737C23.5787 32.0641 23.8536 31.9761 24.1248 31.8773C24.6315 31.6922 25.1435 31.5197 25.6645 31.3724C25.9592 31.2898 26.2556 31.2143 26.5539 31.1424C27.1018 31.0131 27.6552 30.9089 28.2157 30.8226C28.4798 30.7813 28.7403 30.7328 29.0062 30.7023C29.8327 30.6053 30.6699 30.5424 31.5179 30.5424C32.3659 30.5424 33.2031 30.6053 34.0314 30.7023C34.2973 30.7328 34.5596 30.7831 34.8219 30.8226C35.3824 30.9089 35.9358 31.0131 36.4837 31.1424C36.782 31.2125 37.0784 31.288 37.3731 31.3724C37.8941 31.5197 38.4061 31.6922 38.9127 31.8773C39.1822 31.9761 39.4571 32.0641 39.723 32.1737C40.4399 32.4683 41.1405 32.7971 41.8197 33.169C42.0281 33.284 42.2239 33.4187 42.4287 33.5391C42.9264 33.8338 43.4186 34.141 43.893 34.4752C44.1319 34.644 44.3619 34.8219 44.5936 34.9998C45.0554 35.3555 45.5045 35.7274 45.9393 36.1208C46.1046 36.27 46.2735 36.4155 46.4334 36.57C47.664 37.7594 48.7725 39.1014 49.7176 40.5908C51.8322 43.9253 53.0772 47.8671 53.0772 52.1017C53.0772 52.1053 53.0772 52.1107 53.0772 52.1143C52.8904 52.1197 52.7107 52.1394 52.5239 52.1484C52.222 52.1628 51.9238 52.1807 51.6256 52.2041ZM13.5518 69.6851C13.5752 69.7103 13.6039 69.73 13.6273 69.7534C14.2561 70.3894 14.9136 70.9949 15.6071 71.5626C15.8515 71.7638 16.112 71.9381 16.3635 72.1285C16.8216 72.4753 17.2816 72.8184 17.7631 73.1346C18.0972 73.3538 18.4404 73.5532 18.7853 73.7562C19.2165 74.0114 19.6531 74.2575 20.1022 74.4857C20.4652 74.6707 20.8299 74.8486 21.2018 75.0157C21.6653 75.2259 22.1378 75.4145 22.6157 75.596C22.984 75.7361 23.3505 75.8798 23.726 76.002C24.256 76.1763 24.8004 76.3164 25.3465 76.4547C25.6843 76.541 26.0149 76.6434 26.3562 76.7153C27.2186 76.8949 28.0936 77.035 28.9847 77.1249C29.2793 77.1536 29.5794 77.1518 29.8758 77.1698C30.4202 77.2057 30.9627 77.2542 31.5179 77.2542C31.6041 77.2542 31.694 77.2399 31.782 77.2381C32.2797 77.2327 32.7809 77.1824 33.2822 77.1464C33.7493 77.1123 34.2146 77.089 34.6871 77.0261C34.8291 77.0081 34.971 77.0099 35.1129 76.9901V79.0508V86.2373V91.6271H24.2991C23.8607 85.9013 19.2776 81.32 13.5536 80.8816V69.6851H13.5518ZM74.6365 3.59322V30.6789C74.0275 30.7346 73.4274 30.8083 72.8399 30.9017V3.59322L74.6365 3.59322ZM69.2467 3.59322V31.7299C68.6269 31.9222 68.0286 32.1342 67.4501 32.3677V3.59322H69.2467ZM63.8569 3.59322V34.2416C63.2011 34.6836 62.61 35.1651 62.0603 35.6699V3.59322H63.8569ZM4.56875 100.61L4.56875 3.59322L58.4671 3.59322V43.1186V50.3051V52.461C58.4653 52.461 58.4635 52.461 58.4617 52.461C57.8724 52.3676 57.2741 52.2957 56.6633 52.2382C56.6651 52.1915 56.6704 52.1484 56.6704 52.1017C56.6704 47.3874 55.3427 42.9875 53.0772 39.2128V19.5453L51.1153 19.725C50.8728 19.7465 50.6302 19.7627 50.3823 19.7627C45.9249 19.7627 42.2976 16.1354 42.2976 11.678C42.2976 11.4282 42.3155 11.1821 42.3353 10.9378L42.5096 8.98305L20.5262 8.98305L20.7005 10.9378C20.7203 11.1821 20.7382 11.4282 20.7382 11.678C20.7382 16.1354 17.1109 19.7627 12.6535 19.7627C12.4056 19.7627 12.163 19.7465 11.9205 19.725L9.95858 19.5453L9.95858 39.2128C9.93522 39.2523 9.91007 39.2937 9.88492 39.3332C9.64597 39.7356 9.41241 40.1399 9.19502 40.5567C8.91654 41.0885 8.65244 41.6257 8.41529 42.1736C8.32725 42.3748 8.25539 42.5833 8.17275 42.7881C7.96254 43.3091 7.76671 43.8337 7.59424 44.3673C7.52237 44.5919 7.4577 44.8182 7.39122 45.0446C7.23671 45.5728 7.09837 46.1046 6.9798 46.6436C6.9259 46.8825 6.8738 47.1215 6.82888 47.3622C6.72288 47.9192 6.64024 48.4797 6.57197 49.0457C6.54502 49.272 6.50908 49.493 6.48752 49.7212C6.41207 50.5081 6.36536 51.3004 6.36536 52.1017C6.36536 52.903 6.41207 53.6953 6.48573 54.4822C6.50729 54.7104 6.54322 54.9314 6.57017 55.1577C6.63844 55.7237 6.72108 56.2842 6.82708 56.8412C6.8738 57.0819 6.9259 57.3208 6.978 57.5598C7.09658 58.0988 7.23492 58.6306 7.38942 59.1588C7.4559 59.3852 7.52058 59.6115 7.59244 59.8361C7.76491 60.3697 7.96254 60.8943 8.17095 61.4153C8.25359 61.6201 8.32546 61.8285 8.41349 62.0298C8.65064 62.5777 8.91654 63.1149 9.19322 63.6467C9.40881 64.0635 9.64417 64.4678 9.88312 64.8702C9.91007 64.9115 9.93522 64.951 9.95858 64.9906V84.6581L11.9205 84.4784C12.163 84.4568 12.4056 84.4407 12.6535 84.4407C17.1109 84.4407 20.7382 88.068 20.7382 92.5254C20.7382 92.7751 20.7203 93.0213 20.7005 93.2656L20.5262 95.2203H35.3052C35.3375 95.3713 35.377 95.5204 35.4165 95.6695C35.4633 95.8509 35.5118 96.0306 35.5711 96.2085C35.6196 96.354 35.6771 96.4959 35.7327 96.6397C36.2861 98.0859 37.1916 99.4262 38.4115 100.61H4.56875ZM44.7679 100.524C44.5882 100.443 44.4122 100.359 44.2397 100.274C43.9936 100.152 43.7492 100.028 43.5157 99.8969C43.3594 99.8089 43.2138 99.7172 43.0647 99.6256C42.6443 99.3705 42.2509 99.101 41.8843 98.8189C41.7604 98.7237 41.6256 98.6321 41.5089 98.5333C41.3436 98.395 41.1962 98.2512 41.0435 98.1075C40.8998 97.9727 40.7561 97.8362 40.6249 97.6979C40.4974 97.5631 40.3788 97.4248 40.262 97.2864C40.1255 97.1229 39.9979 96.9577 39.8793 96.7888C39.7913 96.6648 39.7015 96.539 39.6224 96.4133C39.4859 96.1923 39.3673 95.9677 39.2613 95.7414C39.2218 95.6587 39.1733 95.5797 39.1391 95.4952C39.008 95.1808 38.9056 94.861 38.8337 94.5376C38.8157 94.455 38.8121 94.3687 38.7978 94.2861C38.7672 94.1046 38.7511 93.9196 38.7403 93.7363C38.8157 93.8046 38.9056 93.8657 38.9828 93.934C39.2487 94.1657 39.5254 94.3903 39.8146 94.6077C39.9763 94.7299 40.138 94.852 40.3069 94.9688C40.6231 95.1898 40.9555 95.3982 41.2968 95.603C41.455 95.6982 41.6059 95.7971 41.7694 95.8887C42.2796 96.1743 42.8078 96.4456 43.3629 96.6936C43.3827 96.7025 43.4025 96.7079 43.4222 96.7169C43.9612 96.9559 44.5218 97.1733 45.0985 97.3727C45.2943 97.4409 45.4991 97.4984 45.7003 97.5631C46.1136 97.6943 46.5322 97.82 46.9634 97.9332C47.2023 97.9943 47.4431 98.05 47.6874 98.1057C48.1042 98.2009 48.5282 98.2871 48.9594 98.3644C49.2091 98.4093 49.4589 98.4524 49.714 98.4902C50.1793 98.5602 50.6536 98.6123 51.1333 98.659C51.3597 98.6806 51.5824 98.7094 51.8106 98.7255C52.5203 98.7812 53.2407 98.8136 53.9755 98.8136C54.7103 98.8136 55.4308 98.7812 56.1422 98.7291C56.3722 98.7129 56.5932 98.6842 56.8214 98.6626C57.3011 98.6159 57.7754 98.562 58.2407 98.4938C58.4958 98.456 58.7455 98.4111 58.9953 98.368C59.4264 98.2907 59.8504 98.2063 60.2673 98.1093C60.5116 98.0536 60.7523 97.9979 60.9913 97.935C61.4225 97.8236 61.8393 97.6979 62.2543 97.5649C62.4555 97.5002 62.6603 97.4427 62.8562 97.3745C63.4311 97.1733 63.9916 96.9577 64.527 96.7205C64.5486 96.7115 64.5701 96.7043 64.5917 96.6954C65.1469 96.4474 65.6751 96.1761 66.1853 95.8905C66.3488 95.7988 66.4997 95.7 66.6578 95.6048C66.9974 95.4 67.3297 95.1916 67.6459 94.9724C67.8148 94.8538 67.9765 94.7317 68.14 94.6095C68.4293 94.3921 68.7041 94.1675 68.97 93.9376C69.0473 93.8693 69.1371 93.81 69.2126 93.7399C69.2 93.925 69.1874 94.1118 69.1533 94.3005C69.1461 94.3472 69.1425 94.3939 69.1335 94.4388C69.0635 94.7604 68.9628 95.0874 68.8263 95.4251L68.8227 95.4341C68.3376 96.6289 67.4303 97.7536 66.1709 98.7453C66.135 98.7722 66.0991 98.7992 66.0631 98.8261C65.684 99.1172 65.2726 99.3957 64.8324 99.6616C64.7444 99.7155 64.6636 99.7729 64.5719 99.8232L64.5342 99.8448C61.7674 101.422 58.0251 102.407 53.9755 102.407C50.5494 102.407 47.3496 101.695 44.7679 100.524ZM77.3315 102.407C74.403 102.407 71.5859 101.902 69.1461 100.964C70.0839 100.12 70.8726 99.1944 71.4691 98.1991C71.5015 98.2063 71.5338 98.2081 71.5661 98.2153C72.3962 98.3913 73.2424 98.5225 74.0976 98.6195C74.2862 98.6411 74.4748 98.6572 74.6635 98.6752C75.5438 98.7579 76.4314 98.8136 77.3315 98.8136C78.0663 98.8136 78.7867 98.7812 79.4982 98.7291C79.7281 98.7129 79.9491 98.6842 80.1773 98.6626C80.657 98.6159 81.1313 98.562 81.5966 98.4938C81.8517 98.456 82.1015 98.4111 82.3512 98.368C82.7824 98.2907 83.2064 98.2063 83.6232 98.1093C83.8675 98.0536 84.1083 97.9979 84.3472 97.935C84.7784 97.8236 85.1952 97.6979 85.6102 97.5649C85.8115 97.5002 86.0163 97.4427 86.2121 97.3745C86.787 97.1733 87.3476 96.9577 87.883 96.7205C87.9045 96.7115 87.9261 96.7043 87.9476 96.6954C88.5028 96.4474 89.031 96.1761 89.5412 95.8905C89.7047 95.7988 89.8556 95.7 90.0137 95.6048C90.3533 95.4 90.6857 95.1916 91.0019 94.9724C91.1708 94.8538 91.3324 94.7317 91.4959 94.6095C91.7852 94.3921 92.0601 94.1675 92.326 93.9376C92.4122 93.8621 92.511 93.7956 92.5937 93.7202C92.3206 98.4578 85.4432 102.407 77.3315 102.407Z" fill="#FFFEFE"/>
</svg>
