<svg width="124" height="138" viewBox="0 0 124 138" fill="none" xmlns="http://www.w3.org/2000/svg">
<path d="M56.1165 18.138L42.1106 21.8909L43.3615 26.5594L57.3674 22.8066L56.1165 18.138Z" fill="grey"/>
<path d="M51.0796 102.051L46.411 103.302L47.662 107.97L52.3306 106.719L51.0796 102.051Z" fill="grey"/>
<path d="M48.5777 92.7135L43.9091 93.9645L45.1601 98.633L49.8286 97.3821L48.5777 92.7135Z" fill="grey"/>
<path d="M60.417 99.5489L55.7484 100.8L56.9994 105.468L61.6679 104.217L60.417 99.5489Z" fill="grey"/>
<path d="M102.222 40.8107C98.9977 41.6747 94.4322 44.091 91.7483 48.4068L81.7942 11.2576C80.7579 7.39003 76.7824 5.09479 72.9148 6.13112L21.5596 19.8917C17.692 20.928 15.3968 24.9035 16.4331 28.7711L23.9389 56.7829L16.9359 58.6594C13.0683 59.6957 10.7731 63.6712 11.8094 67.5388L13.0603 72.2073C13.541 74.0012 14.6547 75.4561 16.0959 76.3977C15.3186 77.934 15.0815 79.7506 15.5622 81.5445L16.8131 86.213C17.2938 88.0069 18.4075 89.4618 19.8487 90.4034C19.0714 91.9397 18.8344 93.7563 19.315 95.5502L20.566 100.219C21.0466 102.013 22.1603 103.467 23.6016 104.409C22.8243 105.945 22.5872 107.762 23.0678 109.556L24.3188 114.224C25.3551 118.092 29.3306 120.387 33.1982 119.351L40.2011 117.475L42.7032 126.813C43.7396 130.68 47.715 132.975 51.5826 131.939L102.938 118.179C106.805 117.142 109.101 113.167 108.064 109.299L94.497 58.6653C93.5316 53.5672 96.2608 48.3665 101.205 46.3498L118.653 111.466L123.321 110.215L105.182 42.5196C104.837 41.2304 103.512 40.4652 102.222 40.8107ZM22.8106 24.5602L74.1657 10.7997C75.4547 10.4543 76.7799 11.2194 77.1254 12.5086L79.0018 19.5116L22.9781 34.5231L21.1017 27.5201C20.7562 26.2309 21.5214 24.9057 22.8106 24.5602ZM25.2346 98.9682L23.9837 94.2997C23.6383 93.0105 24.4034 91.6852 25.6926 91.3398L32.6956 89.4633L35.1975 98.8007L28.1945 100.677C26.9053 101.023 25.5801 100.257 25.2346 98.9682ZM21.4818 84.9623L20.2308 80.2938C19.8854 79.0046 20.6505 77.6793 21.9397 77.3339L28.9427 75.4574L31.4446 84.7948L24.4417 86.6712C23.1525 87.0167 21.8272 86.2515 21.4818 84.9623ZM16.4779 66.2878C16.1325 64.9986 16.8976 63.6734 18.1868 63.3279L25.1898 61.4515L27.6917 70.7889L20.6888 72.6653C19.3996 73.0107 18.0743 72.2456 17.7289 70.9564L16.4779 66.2878ZM31.9474 114.683C30.6582 115.029 29.333 114.263 28.9875 112.974L27.7366 108.306C27.3911 107.016 28.1563 105.691 29.4455 105.346L36.4484 103.469L38.9504 112.807L31.9474 114.683ZM101.687 113.51L50.3317 127.271C49.0425 127.616 47.7173 126.851 47.3718 125.562L45.4954 118.559L101.519 103.547L103.396 110.55C103.741 111.839 102.976 113.165 101.687 113.51ZM100.268 98.8786L44.2444 113.89L40.4916 99.8842L36.7387 85.8782L32.9858 71.8723L29.2329 57.8664L24.2291 39.1917L80.2528 24.1802L100.268 98.8786Z" fill="grey"/>
<path d="M55.9938 45.6918C43.1018 49.1462 35.4508 62.3977 38.9053 75.2899C42.3598 88.1822 55.6114 95.8328 68.5034 92.3784C81.3859 88.9113 89.0305 75.6705 85.5919 62.7803C82.1375 49.8883 68.8858 42.2374 55.9938 45.6918ZM67.2524 87.7096C56.9388 90.4732 46.3376 84.3526 43.5741 74.0389C40.8106 63.7253 46.9312 53.1242 57.2448 50.3606C67.5567 47.61 78.1493 53.7256 80.9231 64.0313C83.6866 74.3449 77.566 84.9461 67.2524 87.7096Z" fill="grey"/>
<path d="M60.3722 62.0322C61.6614 61.6867 62.9866 62.4519 63.3321 63.7411L68.0006 62.4901C67.1837 59.4412 64.54 57.371 61.5628 57.1381L60.8301 54.4037L56.1616 55.6546L56.8942 58.3891C54.4321 60.0792 53.1778 63.1941 53.9947 66.243C55.031 70.1106 59.0065 72.4058 62.8741 71.3695C64.1633 71.0241 65.4886 71.7892 65.834 73.0784C66.1794 74.3676 65.4143 75.6929 64.1251 76.0383C62.8359 76.3837 61.5106 75.6186 61.1652 74.3294L56.4966 75.5804C57.3136 78.6293 59.9572 80.6994 62.9345 80.9323L63.6671 83.6665L68.3357 82.4156L67.603 79.6812C70.0649 77.9909 71.3192 74.8762 70.5023 71.8273C69.466 67.9597 65.4905 65.6645 61.6229 66.7008C60.3337 67.0462 59.0084 66.2811 58.663 64.9919C58.3178 63.7029 59.083 62.3776 60.3722 62.0322Z" fill="grey"/>
<path d="M76.835 30.1L72.1664 31.351L73.4174 36.0195L78.0859 34.7686L76.835 30.1Z" fill="grey"/>
<path d="M79.3368 39.4371L74.6683 40.688L75.9192 45.3566L80.5878 44.1056L79.3368 39.4371Z" fill="grey"/>
<path d="M67.4978 32.6018L62.8293 33.8528L64.0802 38.5214L68.7488 37.2704L67.4978 32.6018Z" fill="grey"/>
</svg>
