<svg width="194" height="172" viewBox="0 0 194 172" fill="none" xmlns="http://www.w3.org/2000/svg">
<path d="M93.9899 124.504L76.8705 116.959L70.8594 108.926C74.9154 106.576 77.6458 102.175 77.6379 97.1399L77.6251 88.9668L72.1941 88.9583L72.2069 97.1315C72.2139 101.638 68.5646 105.299 64.0731 105.292L53.2111 105.275C48.7197 105.268 45.0589 101.595 45.0518 97.0893L45.0136 72.5699C45.0065 68.0637 48.6559 64.4024 53.1473 64.4094L64.0093 64.4262C68.5008 64.4332 72.1616 68.1059 72.1686 72.612L72.1771 78.0608L61.3151 78.0439C58.3199 78.0393 55.8803 75.5917 55.8756 72.5867L50.4446 72.5783C50.454 78.5883 55.3332 83.4834 61.3236 83.4927L74.9011 83.5138C76.4001 83.5161 77.6147 82.2975 77.6124 80.7936L77.5996 72.6205C77.5879 65.1093 71.4875 58.9891 64.0008 58.9775L53.1388 58.9606C45.6522 58.949 39.5708 65.0503 39.5826 72.5614L39.6208 97.0809C39.6287 102.116 42.3728 106.525 46.4362 108.888L40.4854 116.856L23.7494 123.564C18.5714 125.638 15.2337 130.596 15.2424 136.195L15.3259 189.672C15.3283 191.176 16.5467 192.398 18.0457 192.401L26.1922 192.413L26.1837 186.964L20.7527 186.956L20.6734 136.203C20.6682 132.844 22.6703 129.87 25.7776 128.624L38.8771 123.373L37.0022 134.769C36.8488 135.689 37.1789 136.627 37.875 137.252C38.3808 137.705 39.0248 137.946 39.6846 137.947C39.9345 137.947 40.1842 137.912 40.4312 137.842L52.765 134.324L47.9123 181.263C47.8267 182.094 48.1267 182.917 48.7223 183.501L57.107 191.687C57.6183 192.184 58.2976 192.463 59.0036 192.464L59.0416 192.464C59.7639 192.454 60.4505 192.159 60.9493 191.642L68.8577 183.481C69.4189 182.901 69.6946 182.101 69.6092 181.297L64.61 134.343L76.9548 137.898C77.202 137.969 77.4519 138.005 77.7017 138.006C78.3616 138.007 79.0048 137.768 79.5091 137.316C80.2033 136.694 80.5305 135.76 80.3742 134.836L78.4939 123.619L91.8171 129.492C94.7845 130.799 96.7035 133.739 96.7086 136.986L96.7868 187.074L91.3558 187.066L91.3643 192.514L99.5108 192.527C101.01 192.529 102.224 191.311 102.222 189.807L102.14 136.995C102.131 131.584 98.9328 126.683 93.9899 124.504ZM65.4394 110.743L71.0613 118.255L58.6753 126.528L46.2634 118.216L51.8619 110.722L65.4394 110.743ZM44.3411 123.629L52.121 128.839L43.058 131.424L44.3411 123.629ZM64.0739 180.591L58.9417 185.887L53.4508 180.531L58.3944 132.72L58.5383 132.68C58.636 132.685 58.7338 132.685 58.8315 132.68L58.9755 132.721L64.0739 180.591ZM65.2369 128.86L73.0005 123.674L74.308 131.473L65.2369 128.86Z" fill="#D29C4E" fill-opacity="0.53"/>
<path d="M31.5509 146.107L36.9819 146.116L37.0542 192.43L31.6232 192.422L31.5509 146.107Z" fill="#D29C4E" fill-opacity="0.53"/>
<path d="M80.43 146.183L85.861 146.191L85.9333 192.506L80.5023 192.498L80.43 146.183Z" fill="#D29C4E" fill-opacity="0.53"/>
<path d="M110.101 18.1834C85.9407 18.1459 63.4279 31.1607 51.3495 52.1469L56.0543 54.8813C67.1686 35.5718 87.88 23.5976 110.109 23.6322C144.547 23.6856 172.61 51.8393 172.664 86.39C172.717 120.941 144.743 149.007 110.305 148.954L107.589 148.95L107.598 154.398L110.313 154.403C147.746 154.461 178.153 123.954 178.095 86.3984C178.036 48.8428 147.534 18.2415 110.101 18.1834Z" fill="#D29C4E" fill-opacity="0.53"/>
<path d="M161.185 112.12L156.334 109.658C147.525 127.206 129.88 138.087 110.288 138.056C109.422 138.055 108.561 138.032 107.705 137.99L107.448 143.433C108.39 143.478 109.341 143.504 110.296 143.505C131.953 143.539 151.453 131.514 161.185 112.12Z" fill="#D29C4E" fill-opacity="0.53"/>
<path d="M163.671 106.403C166.045 100.004 167.243 93.2688 167.232 86.3815C167.183 54.8332 141.563 29.1298 110.118 29.0809C92.0106 29.0528 75.3938 37.369 64.5301 51.8922L68.88 55.1709C78.7086 42.0302 93.7434 34.5043 110.126 34.5297C138.576 34.5739 161.757 57.8297 161.801 86.3731C161.811 92.6092 160.729 98.702 158.582 104.485L163.671 106.403Z" fill="#D29C4E" fill-opacity="0.53"/>
<path d="M112.986 127.163L112.969 116.265L121.116 116.278C128.602 116.29 134.684 110.188 134.672 102.677L134.663 97.2285C134.652 89.7173 128.551 83.5971 121.065 83.5855L104.772 83.5602C100.28 83.5532 96.6194 79.8805 96.6124 75.3744L96.6039 69.9256C96.5969 65.4195 100.246 61.7581 104.738 61.7651L131.893 61.8073L131.884 56.3585L112.876 56.329L112.859 45.4314L107.428 45.423L107.445 56.3205L104.729 56.3163C97.2425 56.3047 91.1612 62.406 91.1729 69.9172L91.1814 75.3659C91.1931 82.877 97.2935 88.9973 104.78 89.0089L121.073 89.0342C125.565 89.0412 129.225 92.7139 129.232 97.22L129.241 102.669C129.248 107.175 125.599 110.836 121.107 110.829L91.2367 110.783L91.2452 116.232L107.538 116.257L107.555 127.154L112.986 127.163Z" fill="#D29C4E" fill-opacity="0.53"/>
</svg>
