<svg viewBox="0 0 138 138" style="fill:#d6a354;" xmlns="http://www.w3.org/2000/svg">
<g clip-path="url(#clip0)">
<path d="M85.0079 81.4313L88.4977 80.4962L89.4328 83.986L85.943 84.9211L85.0079 81.4313Z" fill="#d6a354"/>
<path d="M95.4773 78.626L98.9671 77.6909L99.9022 81.1807L96.4124 82.1158L95.4773 78.626Z" fill="#d6a354"/>
<path d="M105.947 75.8207L109.436 74.8856L110.372 78.3754L106.882 79.3105L105.947 75.8207Z" fill="#d6a354"/>
<path d="M46.2443 69.3758L39.2647 71.246C37.34 71.7617 35.3555 70.616 34.8398 68.6913L31.35 69.6264C32.3815 73.4757 36.3505 75.7672 40.1998 74.7358L41.9447 74.2683L42.8798 77.7581L46.3696 76.823L45.4345 73.3332L47.1794 72.8656C51.0287 71.8342 53.3202 67.8652 52.2888 64.0159C51.2574 60.1665 47.2884 57.875 43.439 58.9065L36.4594 60.7766C34.5348 61.2923 32.5503 60.1466 32.0346 58.2219C31.5188 56.2973 32.6646 54.3128 34.5893 53.797L41.5689 51.9269C43.4935 51.4111 45.478 52.5569 45.9937 54.4816L49.4835 53.5465C48.4521 49.6971 44.4831 47.4056 40.6338 48.4371L38.8889 48.9046L37.9538 45.4148L34.464 46.3499L35.3991 49.8397L33.6542 50.3072C29.8048 51.3387 27.5133 55.3077 28.5448 59.157C29.5762 63.0064 33.5452 65.2979 37.3945 64.2664L44.3741 62.3963C46.2988 61.8805 48.2833 63.0263 48.799 64.951C49.3147 66.8756 48.169 68.8601 46.2443 69.3758Z" fill="#d6a354"/>
<path d="M111.221 32.6891L106.689 15.7761L96.22 18.5813L96.7697 20.6329C94.7567 19.4592 92.6891 18.4124 90.5696 17.5056C93.1388 15.0739 95.4573 12.3579 97.4992 9.39631L98.7747 14.1564L102.264 13.2214L99.4592 2.75197L88.9898 5.55723L89.9249 9.04703L94.1372 7.91835C91.9945 10.9297 89.5279 13.6453 86.7972 16.0435C76.3635 12.4488 65.0043 11.9841 54.0918 14.9081C24.2667 22.8997 6.50224 53.6687 14.4939 83.4938C15.9488 88.9236 18.2219 94.0228 21.1735 98.7338C19.8954 99.563 19.2216 101.138 19.6369 102.688L20.5719 106.178C21.0877 108.102 23.0722 109.248 24.9968 108.732L25.9319 112.222C26.1031 112.861 26.4465 113.403 26.8842 113.837C26.7222 114.432 26.6958 115.073 26.867 115.712L27.8021 119.202C28.3178 121.126 30.3023 122.272 32.227 121.756L33.1621 125.246C31.2374 125.762 30.0916 127.746 30.6074 129.671L31.5424 133.161C32.0582 135.085 34.0427 136.231 35.9673 135.715L69.1204 126.832C70.1709 126.551 70.9771 125.824 71.4197 124.917C75.3392 124.713 79.2549 124.117 83.0796 123.092C112.905 115.1 130.669 84.3312 122.678 54.5061C120.499 46.3746 116.639 39.0423 111.221 32.6891ZM100.645 21.136L104.135 20.2009L111.615 48.1193L108.126 49.0544L100.645 21.136ZM68.6905 29.6982C75.6735 27.8271 82.0404 24.5632 87.5104 20.1635C91.2194 21.6042 94.7891 23.4721 98.1445 25.7637L104.636 49.9895L101.146 50.9246L95.0679 28.2409L84.5985 31.0462L90.6766 53.7298L87.1868 54.6649L82.5113 37.216L72.0419 40.0212L76.7174 57.4702L71.4827 58.8728L72.4178 62.3626L116.04 50.674L113.911 42.7274C115.905 46.169 117.496 49.8393 118.672 53.7093L69.8631 66.7875L56.7844 17.9772C65.6802 15.9178 74.832 16.2142 83.4096 18.7502C78.7553 22.1314 73.4783 24.6749 67.7555 26.2084L63.0669 27.4647L64.002 30.9545L68.6905 29.6982ZM97.6562 51.8597L94.1664 52.7948L89.0234 33.6009L92.5132 32.6658L97.6562 51.8597ZM83.697 55.6L80.2072 56.5351L76.4668 42.5759L79.9566 41.6408L83.697 55.6ZM53.2937 18.9089L80.3857 120.018C77.4153 120.707 74.3997 121.135 71.3783 121.3L70.74 118.917C72.6647 118.402 73.8104 116.417 73.2947 114.493L72.3596 111.003C71.8439 109.078 69.8594 107.932 67.9347 108.448L66.9997 104.958C66.8284 104.319 66.4851 103.778 66.0473 103.343C66.2093 102.748 66.2358 102.107 66.0646 101.468L65.1295 97.9787C64.6138 96.054 62.6293 94.9083 60.7046 95.424L59.7695 91.9342L63.2593 90.9991C65.184 90.4834 66.3297 88.4989 65.814 86.5742L64.8789 83.0844C64.3632 81.1598 62.3787 80.014 60.454 80.5297L27.301 89.413C25.3763 89.9288 24.2306 91.9133 24.7463 93.8379L25.6814 97.3277L24.7143 97.5868C21.7091 92.9724 19.4242 87.9349 17.9837 82.5587C10.6644 55.2427 26.4454 27.0946 53.2937 18.9089ZM30.3568 114.777L63.5099 105.893L64.4467 109.383L31.2919 118.267L30.3568 114.777ZM23.1266 101.753L56.2797 92.8693L57.2165 96.3586L24.0617 105.242L23.1266 101.753ZM55.3446 89.3795L29.1712 96.3926L28.2361 92.9028L61.3891 84.0195L62.3259 87.5088L55.3446 89.3795ZM58.1499 99.8489L61.6397 98.9138L62.5765 102.403L29.4217 111.287L28.4866 107.797L58.1499 99.8489ZM35.7168 120.821L68.8698 111.938L69.8066 115.427L36.6519 124.311L35.7168 120.821ZM35.0322 132.226L34.0971 128.736L67.2502 119.853L68.187 123.342L35.0322 132.226ZM83.8777 119.091L70.7982 70.2773L119.612 57.1977C125.811 83.9555 110.15 111.081 83.8777 119.091Z" fill="#d6a354"/>
</g>
<defs>
<clipPath id="clip0">
<rect y="29.402" width="112" height="112" transform="rotate(-15 0 29.402)" fill="white"/>
</clipPath>
</defs>
</svg>
