<svg viewBox="0 0 40 43" fill="none" xmlns="http://www.w3.org/2000/svg">
<path d="M4.00814 7.54274C3.01346 9.48846 2.44507 11.6976 2.44507 14.0431C2.44507 21.8075 8.61166 28.1253 16.1902 28.1253C23.7687 28.1253 29.9353 21.8075 29.9353 14.0431C29.9353 11.6976 29.3647 9.49077 28.3723 7.54274C22.8891 -2.71506 8.90262 -2.31297 4.0104 7.54274H4.00814ZM16.1879 25.9578C9.7755 25.9578 4.55849 20.6128 4.55849 14.0431C4.55849 7.47341 9.7755 2.12845 16.1879 2.12845C22.6004 2.12845 27.8174 7.47341 27.8174 14.0431C27.8174 20.6128 22.6004 25.9578 16.1879 25.9578Z" fill="#D8A04D"/>
<path d="M39.9993 6.74791L36.2642 2.15628L32.529 6.74791L33.5237 7.5983L35.6169 5.02634V16.9479C31.4374 24.5945 25.3565 31.0163 18.0215 35.527C15.0127 37.378 11.564 38.3555 8.0544 38.3555H6.47554V39.6819H8.0544C9.71221 39.6819 11.3542 39.4647 12.9534 39.0649V41.6715H0.00219727V42.998H36.9138V5.02403L39.0069 7.59598L40.0016 6.7456L39.9993 6.74791ZM32.3779 24.2964V41.6715H30.4359V26.6696C31.1058 25.8978 31.7554 25.1075 32.3779 24.2941V24.2964ZM29.139 28.1116V41.6715H27.197V30.0735C27.8601 29.4357 28.5097 28.784 29.139 28.1116ZM23.9581 32.9297C24.6212 32.3959 25.2663 31.8413 25.9001 31.2728V41.6715H23.9581V32.9297ZM22.6634 41.6715H20.7214V35.3352C21.38 34.8846 22.0296 34.4225 22.6634 33.9441V41.6715ZM18.6869 36.664C18.9373 36.5115 19.1809 36.3497 19.4267 36.1926V41.6739H17.4847V37.3503C17.8907 37.1354 18.2945 36.9089 18.6869 36.6663V36.664ZM14.2458 38.6952C14.9022 38.4826 15.554 38.2492 16.1878 37.9696V41.6715H14.2458V38.6952ZM33.6726 41.6715V22.5286C34.3515 21.5604 35.0011 20.569 35.6146 19.5522V41.6739H33.6726V41.6715Z" fill="#D8A04D"/>
<path d="M0 31.721H1.29467V30.3945H0V31.721Z" fill="#D8A04D"/>
<path d="M2.58936 31.721H3.88628V30.3945H2.58936V31.721Z" fill="#D8A04D"/>
<path d="M5.18066 31.721H6.47533V30.3945H5.18066V31.721Z" fill="#D8A04D"/>
<path d="M2.58936 34.3738H3.88628V33.0474H2.58936V34.3738Z" fill="#D8A04D"/>
<path d="M5.18066 34.3738H6.47533V33.0474H5.18066V34.3738Z" fill="#D8A04D"/>
<path d="M5.18066 37.0291H6.47533V35.7027H5.18066V37.0291Z" fill="#D8A04D"/>
<path d="M16.1898 17.2922C15.6079 17.2922 15.132 16.8069 15.132 16.2084H13.0186C13.0186 17.618 13.905 18.8104 15.132 19.2587V20.5412H17.2454V19.2587C18.4724 18.8104 19.3588 17.618 19.3588 16.2084C19.3588 14.4175 17.9356 12.9594 16.1876 12.9594C15.6056 12.9594 15.1297 12.4718 15.1297 11.8756C15.1297 11.2794 15.6056 10.7918 16.1876 10.7918C16.7695 10.7918 17.2454 11.2794 17.2454 11.8756H19.3588C19.3588 10.466 18.4724 9.27357 17.2454 8.82527V7.54276H15.132V8.82527C13.905 9.27357 13.0186 10.466 13.0186 11.8756C13.0186 13.6665 14.4418 15.1246 16.1898 15.1246C16.7717 15.1246 17.2477 15.6099 17.2477 16.2084C17.2477 16.8069 16.7717 17.2922 16.1898 17.2922Z" fill="#D8A04D"/>
<path d="M16.1899 4.29371C14.0629 4.29371 12.0488 5.00314 10.3594 6.34805L11.6563 8.05806C12.969 7.01126 14.5366 6.45897 16.1899 6.45897C20.2701 6.45897 23.5903 9.86051 23.5903 14.0408C23.5903 15.7323 23.0512 17.3384 22.0317 18.6833L23.7008 20.012C25.0112 18.2835 25.7059 16.2199 25.7059 14.0385C25.7059 8.6635 21.4362 4.28909 16.1899 4.28909V4.29371Z" fill="#D8A04D"/>
<path d="M16.1898 21.625C12.1096 21.625 8.78945 18.2234 8.78945 14.0431C8.78945 12.3516 9.32852 10.7456 10.3503 9.39837L8.68118 8.06964C7.37073 9.80046 6.67603 11.864 6.67603 14.0431C6.67603 19.4181 10.9457 23.7926 16.1921 23.7926C18.319 23.7926 20.3332 23.0831 22.0226 21.7382L20.7257 20.0259C19.4129 21.0727 17.8454 21.625 16.1943 21.625H16.1898Z" fill="#D8A04D"/>
</svg>
