<svg width="76" height="65" viewBox="0 0 76 65" fill="none" xmlns="http://www.w3.org/2000/svg">
<path d="M68.724 32.5C70.6988 32.5 72.3774 33.1771 73.7598 34.5312C75.1421 35.8854 75.8333 37.5298 75.8333 39.4643V58.0357C75.8333 59.9702 75.1421 61.6146 73.7598 62.9688C72.3774 64.3229 70.6988 65 68.724 65H49.7656C47.7908 65 46.1122 64.3229 44.7298 62.9688C43.3474 61.6146 42.6562 59.9702 42.6562 58.0357V23.2143C42.6562 16.8304 44.9767 11.3653 49.6175 6.8192C54.2584 2.27307 59.8372 0 66.3542 0H67.5391C68.5265 0 69.3658 0.338542 70.057 1.01562C70.7482 1.69271 71.0938 2.51488 71.0938 3.48214V10.4464C71.0938 11.4137 70.7482 12.2359 70.057 12.9129C69.3658 13.59 68.5265 13.9286 67.5391 13.9286H66.3542C63.7869 13.9286 61.5652 14.8475 59.6891 16.6853C57.813 18.5231 56.875 20.6994 56.875 23.2143V32.5H68.724ZM26.0677 32.5C28.0425 32.5 29.7211 33.1771 31.1035 34.5312C32.4859 35.8854 33.1771 37.5298 33.1771 39.4643V58.0357C33.1771 59.9702 32.4859 61.6146 31.1035 62.9688C29.7211 64.3229 28.0425 65 26.0677 65H7.10938C5.13455 65 3.45595 64.3229 2.07357 62.9688C0.691189 61.6146 0 59.9702 0 58.0357V23.2143C0 16.8304 2.32042 11.3653 6.96126 6.8192C11.6021 2.27307 17.181 0 23.6979 0H24.8828C25.8702 0 26.7095 0.338542 27.4007 1.01562C28.0919 1.69271 28.4375 2.51488 28.4375 3.48214V10.4464C28.4375 11.4137 28.0919 12.2359 27.4007 12.9129C26.7095 13.59 25.8702 13.9286 24.8828 13.9286H23.6979C21.1306 13.9286 18.909 14.8475 17.0329 16.6853C15.1568 18.5231 14.2188 20.6994 14.2188 23.2143V32.5H26.0677Z" fill="#D29C4E" fill-opacity="0.2"/>
</svg>
