<svg height="496pt" viewBox="-33 0 496 496" width="496pt" xmlns="http://www.w3.org/2000/svg"><path d="M70.664 32h16v16h-16zm0 0M70.664 448h16v16h-16zm0 0"/><path d="M424.8 157.848l-22.241-27.793c-5.11-6.39-12.743-10.055-21.407-10.055a26.917 26.917 0 0 0-16.52 5.695L193.063 259.97c-6.605 5.176-10.398 12.953-10.398 21.336a27.21 27.21 0 0 0 5.938 16.925l7.359 9.196-96.496 71.101c-8.442-42.953-12.8-86.648-12.8-130.527a677.33 677.33 0 0 1 26.07-186.105l4.546-15.926a36.324 36.324 0 0 0 1.383-9.899C118.664 16.176 102.488 0 82.121 0c-14.953 0-28.52 9.406-33.77 23.39l-1.496 3.954c-10.543 28.144-19.093 57.304-25.382 86.672l-1.227 5.726C11.23 161.816 6.664 204.961 6.664 248s4.566 86.184 13.582 128.258l1.227 5.726c4.488 20.953 10.168 41.786 16.863 62.23C23.258 454.97 10.305 468.106 0 483.56l13.312 8.875c8.344-12.512 18.649-23.305 30.497-32.395 1.023 2.871 1.984 5.77 3.046 8.617l1.48 3.93C53.595 486.594 67.16 496 82.595 496c19.894 0 36.07-16.176 36.07-36.07 0-3.336-.465-6.664-1.383-9.914l-4.547-15.91c-.605-2.122-1.117-4.258-1.703-6.387l308.906-231.68c6.72-5.031 10.727-13.047 10.727-21.437a27.02 27.02 0 0 0-5.863-16.754zM82.122 480c-8.32 0-15.863-5.23-18.8-13.031l-1.481-3.93a599.29 599.29 0 0 1-24.727-84.406l-1.226-5.73c-3.735-17.462-6.52-35.141-8.68-52.903h27.457v-16H25.45a593.504 593.504 0 0 1-1.273-16h30.488v-16H23.297a591.066 591.066 0 0 1-.426-16h31.793v-16H22.871c.074-5.336.207-10.664.426-16h31.367v-16H24.176c.36-5.336.77-10.672 1.273-16h29.215v-16H27.207c2.16-17.762 4.945-35.441 8.688-52.902l1.226-5.73A600.008 600.008 0 0 1 61.84 32.976l1.496-3.954C66.246 21.23 73.8 16 82.594 16c11.07 0 20.07 9 20.07 20.07 0 1.86-.258 3.715-.777 5.516l-4.543 15.91C79.64 119.457 70.664 183.551 70.664 248s8.977 128.543 26.68 190.504l4.543 15.894a20.08 20.08 0 0 1 .777 5.532c0 11.07-9 20.07-20.543 20.07zm328.223-296.762l-303.75 227.817c-1.266-5.086-2.387-10.2-3.524-15.313l115.785-85.308-17.757-22.204a11.115 11.115 0 0 1-2.434-6.925c0-3.434 1.55-6.618 4.258-8.739l171.558-134.27c4.055-3.183 11.711-3.066 15.575 1.759l8.457 10.57L228 281.665l9.754 12.687 170.758-131.23 3.785 4.726a10.836 10.836 0 0 1 2.367 6.754c0 3.382-1.617 6.605-4.32 8.636zm0 0"/></svg>