<svg height="496pt" viewBox="-33 0 496 496" width="496pt" xmlns="http://www.w3.org/2000/svg"><path d="m70.664062 32h16v16h-16zm0 0"/><path d="m70.664062 448h16v16h-16zm0 0"/><path d="m424.800781 157.847656-22.242187-27.792968c-5.109375-6.390626-12.742188-10.054688-21.40625-10.054688-5.960938 0-11.832032 2.023438-16.519532 5.695312l-171.570312 134.273438c-6.605469 5.175781-10.398438 12.953125-10.398438 21.335938 0 6.128906 2.113282 12.144531 5.9375 16.925781l7.359376 9.195312-96.496094 71.101563c-8.441406-42.953125-12.800782-86.648438-12.800782-130.527344 0-62.96875 8.777344-125.574219 26.070313-186.105469l4.546875-15.925781c.917969-3.242188 1.382812-6.570312 1.382812-9.898438 0-19.894531-16.175781-36.070312-36.542968-36.070312-14.953125 0-28.519532 9.40625-33.769532 23.390625l-1.496093 3.953125c-10.542969 28.144531-19.09375 57.304688-25.382813 86.671875l-1.226562 5.726563c-9.015625 42.074218-13.582032 85.21875-13.582032 128.257812s4.566407 86.183594 13.582032 128.257812l1.226562 5.726563c4.488282 20.953125 10.167969 41.785156 16.863282 62.230469-15.078126 10.753906-28.03125 23.890625-38.335938 39.34375l13.3125 8.875c8.34375-12.511719 18.648438-23.304688 30.496094-32.394532 1.023437 2.871094 1.984375 5.769532 3.046875 8.617188l1.480469 3.929688c5.257812 14.007812 18.824218 23.414062 34.257812 23.414062 19.894531 0 36.070312-16.175781 36.070312-36.070312 0-3.335938-.464843-6.664063-1.382812-9.914063l-4.546875-15.910156c-.605469-2.121094-1.117187-4.257813-1.703125-6.386719l308.90625-231.679688c6.71875-5.03125 10.726562-13.046874 10.726562-21.4375 0-6.066406-2.089843-12.007812-5.863281-16.753906zm-342.679687 322.152344c-8.320313 0-15.863282-5.230469-18.800782-13.03125l-1.480468-3.929688c-10.273438-27.40625-18.59375-55.808593-24.726563-84.40625l-1.226562-5.730468c-3.734375-17.460938-6.519531-35.140625-8.679688-52.902344h27.457031v-16h-29.214843c-.503907-5.328125-.914063-10.664062-1.273438-16h30.488281v-16h-31.367187c-.21875-5.335938-.351563-10.664062-.425781-16h31.792968v-16h-31.792968c.074218-5.335938.207031-10.664062.425781-16h31.367187v-16h-30.488281c.359375-5.335938.769531-10.671875 1.273438-16h29.214843v-16h-27.457031c2.160157-17.761719 4.945313-35.441406 8.6875-52.902344l1.226563-5.730468c6.136718-28.597657 14.453125-57 24.71875-84.390626l1.496094-3.953124c2.910156-7.792969 10.464843-13.023438 19.257812-13.023438 11.070312 0 20.070312 9 20.070312 20.070312 0 1.859376-.257812 3.714844-.777343 5.515626l-4.542969 15.910156c-17.703125 61.960937-26.679688 126.054687-26.679688 190.503906s8.976563 128.542969 26.679688 190.503906l4.542969 15.894532c.519531 1.816406.777343 3.671874.777343 5.53125 0 11.070312-9 20.070312-20.542968 20.070312zm328.222656-296.761719-303.75 227.816407c-1.265625-5.085938-2.386719-10.199219-3.523438-15.3125l115.785157-85.308594-17.757813-22.203125c-1.570312-1.957031-2.433594-4.421875-2.433594-6.925781 0-3.433594 1.550782-6.617188 4.257813-8.738282l171.558594-134.269531c4.054687-3.183594 11.710937-3.066406 15.574219 1.757813l8.457031 10.570312-170.511719 131.039062 9.753906 12.6875 170.757813-131.230468 3.785156 4.726562c1.527344 1.90625 2.367187 4.304688 2.367187 6.753906 0 3.382813-1.617187 6.605469-4.320312 8.636719zm0 0"/></svg>