<?xml version="1.0" encoding="utf-8"?>
<!-- Generator: Adobe Illustrator 21.0.0, SVG Export Plug-In . SVG Version: 6.00 Build 0)  -->
<svg version="1.1" id="Layer_1" xmlns="http://www.w3.org/2000/svg" xmlns:xlink="http://www.w3.org/1999/xlink" x="0px" y="0px"
	 viewBox="0 0 481.8 500.3" style="enable-background:new 0 0 481.8 500.3;" xml:space="preserve">
<style type="text/css">
	.st0{opacity:0.1;}
</style>
<g class="st0">
	<path d="M360.3,355.4c-3.4-4.3-9.6-5.1-14-1.7l-7.5,5.9l-13.3-17.1c9.6-14.4,5.7-33.9-8.7-43.5c-8.2-5.5-18.5-6.8-27.9-3.5l-14-18
		c15-18.7,12.1-46.1-6.6-61.1c-12.8-10.3-30.4-12.5-45.4-5.6l-14.1-18c9.6-14.4,5.7-33.9-8.8-43.5c-8.2-5.5-18.5-6.7-27.8-3.5
		l-13.3-17.1l7.5-5.8c4.4-3.4,5.1-9.7,1.7-14.1c-3.4-4.4-9.7-5.1-14.1-1.7l0,0l-30.8,24c-4.4,3.4-5.1,9.7-1.7,14
		c3.4,4.4,9.7,5.1,14,1.7l7.5-5.9l13.3,17.1c-9.6,14.4-5.7,33.9,8.7,43.5c8.2,5.5,18.5,6.8,27.9,3.5l14.1,18
		c-15,18.7-12.1,46.1,6.6,61.1c12.8,10.3,30.4,12.5,45.4,5.6l14,18c-9.6,14.4-5.7,33.9,8.8,43.5c8.2,5.5,18.5,6.7,27.8,3.5
		l13.4,17.1l-7.5,5.9c-4.4,3.3-5.4,9.5-2.1,14c3.3,4.4,9.5,5.4,14,2.1c0.1-0.1,0.3-0.2,0.4-0.3l30.8-24
		C362.9,366,363.7,359.8,360.3,355.4z M173.6,182.3c-3.9-5-3-12.1,2-16l0,0c5-3.9,12.1-3,16,2s3,12.1-2,16l0,0l0,0
		C184.6,188.1,177.4,187.2,173.6,182.3z M222.4,264.6c-8-10.2-6.1-25,4.1-33c10.2-8,25-6.1,33,4.1c8,10.2,6.1,25-4.1,33
		C245.1,276.7,230.3,274.9,222.4,264.6z M290.2,332.1c-3.9-5-3-12.1,2-16l0,0c5-3.9,12.1-3,16,2c3.9,5,3,12.1-2,16
		C301.3,338,294.1,337.1,290.2,332.1z"/>
	<path d="M431.7,379.7l-23.6-30.3c-1.8-2-1.6-5.1,0.5-6.9s5.1-1.6,6.9,0.5c0.1,0.1,0.2,0.3,0.3,0.4l11.3,14.5
		c3.4,4.3,9.6,5.1,14,1.8l29.8-23.2c12.2-9.5,14.4-27.1,4.9-39.3c0,0,0,0,0,0l-223-286.4c-9.5-12.2-27.1-14.4-39.3-4.9
		c0,0,0,0-0.1,0.1l-29.8,23.2c-4.3,3.4-5.1,9.6-1.7,14l11.3,14.6c1.8,2,1.6,5.1-0.5,6.9c-2,1.8-5.1,1.6-6.9-0.5
		c-0.1-0.1-0.2-0.3-0.3-0.4L162,33.4c-3.4-4.3-9.6-5.1-14-1.8l-94.9,73.9c-4.3,3.4-5.1,9.6-1.7,14L75,149.9c1.8,2,1.6,5.1-0.5,6.9
		c-2,1.8-5.1,1.6-6.9-0.5c-0.1-0.1-0.2-0.3-0.3-0.4l-11.3-14.5c-3.4-4.3-9.6-5.1-14-1.8l-31.2,24.2c-12.2,9.5-14.4,27.1-4.9,39.3
		c0,0,0,0,0,0l223,286.4c9.5,12.2,27.1,14.4,39.3,4.9c0,0,0,0,0,0l31.1-24.2c4.3-3.4,5.1-9.6,1.7-14l-11.3-14.5
		c-1.8-2-1.6-5.1,0.5-6.9s5.1-1.6,6.9,0.5c0.1,0.1,0.2,0.3,0.3,0.4l23.6,30.3c3.4,4.3,9.6,5.1,14,1.8l94.9-73.9
		C434.4,390.4,435.1,384.1,431.7,379.7C431.7,379.7,431.7,379.7,431.7,379.7z M330.7,445.7l-17.5-22.4c-7.9-11.3-23.4-14-34.7-6.1
		c-11.3,7.9-14,23.4-6.1,34.7c0.5,0.7,1,1.4,1.6,2l5.2,6.7l-5.9,4.6l-58.1-74.5c-3.3-4.4-9.5-5.4-14-2.1c-4.4,3.3-5.4,9.5-2.1,14
		c0.1,0.1,0.2,0.3,0.3,0.4l58.1,74.6l-1.6,1.2c-3.5,2.7-8.5,2.1-11.2-1.4c0,0,0,0,0,0l-223-286.4c-2.7-3.5-2.1-8.5,1.4-11.2
		c0,0,0,0,0,0l1.6-1.2L131.9,316c3.4,4.4,9.7,5.1,14,1.7s5.1-9.7,1.7-14l0,0L40.4,166.1l5.9-4.6l5.2,6.7
		c8.4,10.8,24.1,12.8,34.9,4.3c10.8-8.4,12.8-24.1,4.3-34.9l0,0l-17.5-22.4l79-61.6L169.8,76c8.6,10.7,24.3,12.4,35,3.7
		c10.4-8.4,12.3-23.6,4.3-34.3l-5.2-6.7l6.9-5.4l45.8,58.8c3.4,4.4,9.7,5.1,14,1.7c4.4-3.4,5.1-9.7,1.7-14l-45.7-58.7
		c3.5-2.1,7.9-1.2,10.4,2l223,286.4c2.5,3.2,2.2,7.7-0.6,10.6L293.9,107.5c-3.4-4.4-9.7-5.1-14-1.7c-4.4,3.4-5.1,9.7-1.7,14
		l165.6,212.6l-6.9,5.4l-5.2-6.7c-8.6-10.7-24.3-12.4-35-3.7c-10.4,8.4-12.3,23.6-4.3,34.3l17.5,22.5L330.7,445.7L330.7,445.7z"/>
	<path d="M193.8,362.9l-24.6-31.6c-3.4-4.4-9.7-5.1-14-1.7s-5.1,9.7-1.7,14l24.6,31.6c3.4,4.4,9.7,5.1,14,1.7
		S197.2,367.3,193.8,362.9L193.8,362.9L193.8,362.9z"/>
</g>
</svg>
