<svg viewBox="0 0 70 59" fill="none" xmlns="http://www.w3.org/2000/svg">
<path d="M57.8279 25.7028L38.9161 30.7702C37.3494 31.19 36.4228 32.8121 36.8465 34.3934L44.0065 61.1151C44.4302 62.6963 46.0437 63.6378 47.6105 63.218L66.5223 58.1506C68.089 57.7308 69.0156 56.1087 68.5919 54.5274L61.4318 27.8057C61.0082 26.2245 59.3947 25.283 57.8279 25.7028ZM55.6094 59.029L47.099 61.3093C46.5768 61.4492 46.0389 61.1354 45.8977 60.6083L44.1077 53.9279L53.5636 51.3942L55.6094 59.029ZM53.0522 49.4855L43.5963 52.0192L41.5506 44.3844L51.0065 41.8507L53.0522 49.4855ZM66.7007 55.0342C66.8419 55.5612 66.533 56.102 66.0108 56.2419L57.5005 58.5222L55.4548 50.8875L64.9107 48.3538L66.7007 55.0342ZM64.3993 46.4451L54.9434 48.9788L52.8976 41.344L62.3535 38.8103L64.3993 46.4451ZM61.8421 36.9016L41.0391 42.4757L38.7377 33.8866C38.5965 33.3596 38.9053 32.8188 39.4275 32.6789L58.3394 27.6115C58.8616 27.4716 59.3994 27.7854 59.5407 28.3125L61.8421 36.9016Z" fill="#D29C4E" fill-opacity="0.2"/>
<path d="M56.9598 30.0269L41.8304 34.0808C41.3082 34.2208 40.9993 34.7615 41.1405 35.2885L42.1633 39.1059C42.3046 39.633 42.8425 39.9468 43.3647 39.8069L58.4941 35.753C59.0163 35.6131 59.3252 35.0723 59.184 34.5453L58.1611 30.7279C58.0199 30.2008 57.482 29.887 56.9598 30.0269ZM57.0371 34.0977L43.7988 37.6448L43.2874 35.7361L56.5256 32.189L57.0371 34.0977Z" fill="#D29C4E" fill-opacity="0.2"/>
<path d="M47.9913 45.7272L47.4799 43.8186L45.5887 44.3253L46.1001 46.234L44.2089 46.7407L44.7204 48.6494L46.6116 48.1427L47.123 50.0514L49.0142 49.5446L48.5027 47.6359L50.3939 47.1292L49.8825 45.2205L47.9913 45.7272Z" fill="#D29C4E" fill-opacity="0.2"/>
<path d="M61.2295 42.18L55.5559 43.7003L56.0673 45.609L61.7409 44.0887L61.2295 42.18Z" fill="#D29C4E" fill-opacity="0.2"/>
<path d="M52.202 54.5279L50.5034 53.5367L49.5279 55.2444L47.8293 54.2532L46.8538 55.961L48.5524 56.9521L47.5769 58.6598L49.2756 59.651L50.2511 57.9433L51.9497 58.9345L52.9252 57.2268L51.2266 56.2356L52.202 54.5279Z" fill="#D29C4E" fill-opacity="0.2"/>
<path d="M63.7868 51.7235L58.1133 53.2437L58.6247 55.1524L64.2983 53.6322L63.7868 51.7235Z" fill="#D29C4E" fill-opacity="0.2"/>
<path d="M62.5347 54.6162L60.6436 55.1229L60.8993 56.0772L62.7904 55.5705L62.5347 54.6162Z" fill="#D29C4E" fill-opacity="0.2"/>
<path d="M61.512 50.7987L59.6208 51.3055L59.8766 52.2598L61.7677 51.7531L61.512 50.7987Z" fill="#D29C4E" fill-opacity="0.2"/>
<path d="M35.1044 5.19713L7.68226 12.5449L7.68456 12.5535C7.43412 12.6174 7.21962 12.7794 7.08865 13.0036L0.189907 25.0808C0.063025 25.3075 0.0314183 25.5763 0.10215 25.8275L0.0936402 25.8297L12.1123 70.684C12.3948 71.7382 13.4704 72.3658 14.5149 72.086L42.8826 64.4849L42.3712 62.5762L36.6977 64.0964L35.9305 61.2333L37.8217 60.7266C38.3439 60.5867 38.6528 60.0459 38.5116 59.5189L37.233 54.7472C37.0918 54.2201 36.5539 53.9063 36.0317 54.0462L34.1405 54.5529L33.3733 51.6899L35.2645 51.1831C35.7867 51.0432 36.0956 50.5025 35.9544 49.9754L34.6758 45.2037C34.5346 44.6767 33.9967 44.3628 33.4745 44.5027L33.4499 44.5093C35.3616 42.0731 36.0145 38.8642 35.2111 35.8545C33.809 30.581 28.4366 27.4322 23.2116 28.8213C17.9866 30.2103 14.8873 35.6114 16.2894 40.8848C17.0932 43.9077 19.2677 46.3749 22.152 47.5366L14.5627 49.5701C14.0405 49.71 13.7316 50.2508 13.8728 50.7778L14.8957 54.5952L13.0045 55.102C12.4823 55.2419 12.1734 55.7826 12.3146 56.3097L13.5932 61.0814C13.7344 61.6085 14.2723 61.9223 14.7945 61.7824L16.6857 61.2756L17.4529 64.1387L15.5617 64.6454C15.0395 64.7853 14.7306 65.3261 14.8718 65.8531L15.8947 69.6705L14.0035 70.1773L2.24054 26.2774L9.80526 24.2504C10.8498 23.9705 11.4675 22.8892 11.185 21.835L9.13928 14.2002L35.6158 7.10582L41.2416 28.1014L43.1328 27.5947L37.507 6.59908C37.2245 5.54489 36.1489 4.91725 35.1044 5.19713ZM35.5975 56.2082L36.3647 59.0713L19.344 63.6319L18.5769 60.7689L35.5975 56.2082ZM18.1905 40.4151C17.0607 36.1986 19.5317 31.8729 23.7095 30.7534C27.8874 29.634 32.1901 32.1447 33.32 36.3612C34.4498 40.5777 31.9788 44.9035 27.801 46.0229C23.6237 47.1371 19.3246 44.6285 18.1905 40.4151ZM16.0197 51.2254L33.0404 46.6648L33.8075 49.5278L16.7869 54.0885L16.0197 51.2254ZM15.2287 59.6203L14.4615 56.7573L31.4822 52.1966L32.2493 55.0597L17.1199 59.1136L15.2287 59.6203ZM17.0187 66.3007L34.0393 61.7401L34.8065 64.6031L17.7858 69.1638L17.0187 66.3007ZM9.29383 22.3417L3.06617 24.0104L7.60968 16.0564L9.29383 22.3417Z" fill="#D29C4E" fill-opacity="0.2"/>
<path d="M24.988 35.5251L27.8247 34.765L27.3133 32.8563L25.4221 33.363L25.1664 32.4087L23.2752 32.9154L23.578 34.0454C22.2441 34.9644 21.907 36.803 22.825 38.1518C23.5313 39.1895 24.8089 39.6671 26.0108 39.3425C26.533 39.2025 27.0709 39.5164 27.2121 40.0434C27.3533 40.5705 27.0445 41.1112 26.5223 41.2512L23.6855 42.0113L24.1969 43.92L26.0881 43.4132L26.3438 44.3676L28.235 43.8608L27.9322 42.7309C29.2661 41.8118 29.6032 39.9732 28.6852 38.6245C27.9789 37.5868 26.7013 37.1092 25.4994 37.4338C24.9772 37.5737 24.4393 37.2598 24.2981 36.7328C24.1569 36.2058 24.4658 35.665 24.988 35.5251Z" fill="#D29C4E" fill-opacity="0.2"/>
<path d="M51.5124 5.91494L49.6212 6.42168C49.48 5.89465 48.9421 5.58078 48.4199 5.72071L47.4743 5.97408L46.7072 3.11104C46.5659 2.584 46.0281 2.27014 45.5058 2.41006L41.7235 3.42354C41.2013 3.56347 40.8924 4.10422 41.0336 4.63126L41.8008 7.4943L40.8552 7.74767C40.333 7.88759 40.0241 8.42835 40.1653 8.95539L45.0239 27.088L46.9151 26.5812L42.3122 9.40299L47.9857 7.88277L52.5886 25.061L54.4798 24.5543L50.1326 8.33038L52.0238 7.82364L55.3481 20.2301L57.2393 19.7234L53.915 7.3169C53.6325 6.2627 52.5569 5.63506 51.5124 5.91494ZM45.5831 6.48082L43.6919 6.98756L43.1805 5.07887L45.0717 4.57213L45.5831 6.48082Z" fill="#D29C4E" fill-opacity="0.2"/>
<path d="M29.5853 14.8588L13.5103 19.1661L14.0217 21.0748L30.0967 16.7675L29.5853 14.8588Z" fill="#D29C4E" fill-opacity="0.2"/>
<path d="M36.7931 19.0647L4.64307 27.6793L5.1545 29.588L37.3046 20.9734L36.7931 19.0647Z" fill="#D29C4E" fill-opacity="0.2"/>
<path d="M17.0131 28.4562L5.66602 31.4967L6.17745 33.4054L17.5245 30.3649L17.0131 28.4562Z" fill="#D29C4E" fill-opacity="0.2"/>
<path d="M37.816 22.8821L29.3057 25.1624L29.8171 27.0711L38.3274 24.7908L37.816 22.8821Z" fill="#D29C4E" fill-opacity="0.2"/>
</svg>
