<svg width="20" height="26" viewBox="0 0 20 26" fill="none" xmlns="http://www.w3.org/2000/svg">
<path fill-rule="evenodd" clip-rule="evenodd" d="M10.5177 11.6745C10.8607 11.808 11.3123 12.3181 11.401 12.7012C11.4899 13.0848 11.4896 13.9942 11.5098 14.4448C11.5537 14.7587 11.6007 14.9463 11.7425 15.2079C11.9166 15.5289 12.0454 15.5002 12.1773 15.6758C12.9351 15.9234 13.724 16.2189 14.5524 16.4521C15.6523 16.7616 15.8433 16.7545 16.7012 16.9573L16.9891 17.0773C13.4427 17.1012 13.4544 16.5656 11.5756 16.4197C11.8074 16.4878 12.3279 16.6006 12.4748 16.7339C12.7435 16.7015 14.3668 17.1299 15.3822 17.1777C15.9576 17.2049 16.4724 17.1707 17.0169 17.1128C17.5487 17.0564 18.119 17.0851 18.6786 17.0689L18.3884 17.2299C16.4145 17.7445 15.455 17.2062 15.8463 18.7253C16.0316 19.4448 15.9744 19.383 15.7727 20.0017C15.2712 21.5401 15.2853 23.8193 15.4377 25.5255C14.6776 25.4718 13.3962 25.1529 12.8088 24.8503C12.1048 24.4876 11.4503 23.9604 10.7849 23.5469L8.54732 22.4511C8.14841 22.2745 6.4643 21.5996 6.27173 21.4204C6.86065 20.7176 7.67562 20.1985 7.89048 19.2013C8.24302 17.5651 7.66496 17.0982 7.17459 16.2237C7.22341 16.0736 7.5521 15.6369 7.65194 15.5576C7.76342 15.2275 7.92629 15.0922 7.72017 14.6896C7.60255 14.4597 7.46092 14.2336 7.3417 14.0366C7.10901 13.6523 6.76013 13.065 6.6694 12.5926C6.23368 11.9801 6.72115 10.1197 7.98411 10.2617C8.57761 10.3284 9.82934 11.1683 10.4079 11.5772C10.4207 11.5862 10.4591 11.6179 10.4676 11.6247L10.5177 11.6745V11.6745ZM10.4827 0.359807L10.4072 0.343326C9.60388 1.13189 5.39598 0.200063 3.19689 2.64451C2.30413 3.63688 2.13845 4.3629 1.92932 4.55746L1.89248 4.72455C1.64594 5.7518 1.25398 6.42857 1.29383 7.69184C1.30958 8.19183 1.39978 8.75214 1.5134 9.21019C1.63447 9.69837 1.84855 10.1517 1.94673 10.5832L2.14396 10.9835C2.63455 11.8784 3.05101 12.6411 3.67176 13.288C3.99223 13.622 4.26937 13.9376 4.6667 14.2323C5.07987 14.5387 5.27345 14.7816 5.66755 15.164C6.92783 16.3868 7.79703 17.2619 7.47352 19.022C7.27294 20.1132 6.77101 20.4264 5.91416 21.2788C5.53472 21.6563 5.13643 21.722 4.61405 21.9165C3.66999 22.2681 2.75161 22.6328 1.78541 22.9603C1.2989 23.1252 1.23216 23.2865 0.863903 23.917C0.338296 24.8169 0.0650444 25.9701 0.440892 26.9933C0.690041 27.6717 0.971786 27.7673 1.21047 28.1804C1.35064 28.2219 1.28163 28.1901 1.41822 28.287C2.33073 28.947 3.4704 29.1507 4.79931 29.2339C6.29499 29.3275 7.23421 28.8243 8.42428 28.4556L8.60722 28.4217C8.75288 28.2578 9.02905 28.1796 9.26937 28.0844C10.0405 27.779 10.6799 27.5009 11.5715 27.4077C12.0407 27.3173 13.1204 27.3659 13.4276 27.5172C13.8544 27.5849 14.8643 27.9677 15.0666 28.2379C15.2173 28.2542 15.1162 28.2101 15.2424 28.2897C15.4493 28.4202 15.281 28.291 15.3455 28.4063C15.8585 28.5359 16.8796 29.505 17.297 29.8643C17.3131 29.8781 17.4231 29.9714 17.4281 29.9764C17.5556 30.107 17.4907 30.0133 17.574 30.172C17.5857 30.1762 17.6035 30.1729 17.6078 30.1878L17.7425 30.2712C17.8115 30.3251 17.859 30.3748 17.8939 30.4238L17.7922 30.1116L17.0524 28.4285C16.9553 28.3302 16.3019 26.8521 16.1621 26.5229C15.7526 25.5584 15.6761 25.4139 15.6631 24.2128C15.6528 23.264 15.6751 21.2109 16.0725 20.3616C16.821 18.7622 14.9248 17.8986 17.3092 17.594C18.3726 17.4581 19.9366 17.3058 19.9976 16.1029C20.0269 15.525 19.7805 15.4878 19.6348 15.0583C19.4365 14.474 19.7867 14.4476 19.8214 13.9826C19.8731 13.2922 19.4174 13.7478 19.7401 12.9551C19.7509 12.452 19.6339 12.571 19.4671 12.2646C19.0734 11.5411 19.7222 11.3244 19.8641 11.0178C19.9626 10.8051 19.9795 10.5349 19.9802 10.2777C19.7641 10.0874 19.4838 9.85029 19.2365 9.6476C19.1008 9.5364 18.9923 9.42672 18.8549 9.30503C18.7102 9.17684 18.5932 9.13851 18.5506 8.94068C18.2892 8.8927 17.6237 8.31746 17.6013 7.93104C17.5802 7.56604 17.7524 7.53497 17.5883 7.12177C17.5091 6.92218 17.3359 6.64459 17.2048 6.60016C17.0456 6.57094 16.915 6.56641 16.9102 6.45405L16.8707 6.59237C16.9682 6.91292 17.4456 7.15442 17.4197 7.67927C17.4061 7.95688 17.2974 8.13865 17.4495 8.40861C17.5589 8.60294 18.9046 9.74463 19.1951 9.99437C19.3786 10.1522 19.4278 10.2173 19.6181 10.3515C19.7373 11.2105 19.3606 11.2226 19.2212 11.345C18.8578 11.6642 19.4857 11.5492 18.4588 11.993L17.946 12.2779C17.8687 12.4393 17.8567 12.3983 17.719 12.5061C17.6629 12.55 17.6334 12.5651 17.5913 12.6183C17.5156 12.7138 17.5445 12.6632 17.5249 12.7616C17.6674 13.0105 17.6241 12.9304 17.7452 12.9973C17.7797 12.9643 17.8489 12.9095 17.862 12.8941C17.8722 12.8821 17.8832 12.8682 17.8927 12.8554L17.9761 12.6952C17.9815 12.6859 17.9886 12.6693 17.9943 12.6608C18.1847 12.3744 17.8933 12.7244 18.1343 12.5321C18.1477 12.5214 18.1907 12.4902 18.2037 12.4785C18.6532 12.0711 18.0789 12.5164 18.3504 12.2894L18.646 12.3739C18.6296 12.3911 18.6046 12.4018 18.5862 12.4128C18.3562 12.5498 18.1737 12.6415 18.0481 12.8949C18.173 12.9995 17.8774 13.0641 18.2419 12.9577L19.2666 12.4905C19.716 12.8756 19.4227 12.9353 19.3784 13.4396C19.5188 13.5881 19.5465 13.5511 19.6091 13.8025C19.7477 14.4523 18.9348 14.1186 19.489 15.3832C19.1929 15.5786 18.4946 15.7144 18.3235 15.2934C18.024 15.1289 17.996 14.7824 17.7907 14.5288L17.6843 14.4348C17.7178 14.8999 17.7623 14.3747 17.7685 14.7179C17.7738 15.0082 17.728 14.7701 17.7002 15.0791C17.6733 15.3779 17.8452 15.4204 17.8059 15.6188C17.1743 15.6696 17.5487 15.7243 17.3084 15.5714C17.1709 15.4838 17.0848 15.3519 16.8403 15.3741C16.514 15.4038 16.6474 15.4012 16.5923 15.5794L15.9297 15.4972C16.0537 15.3503 15.9603 15.3924 16.1282 15.3487C16.2144 15.3263 16.1228 15.3464 16.2647 15.3695C16.4326 15.3968 16.1149 15.4607 16.461 15.3903C16.8422 15.3128 16.3995 15.5857 16.5949 15.3056C16.4245 15.1911 16.3715 15.1385 16.1083 15.1586C15.764 15.1849 15.7218 15.2925 15.6271 15.0158C14.4585 14.5119 13.9564 14.5396 13.252 13.0325C12.1077 10.5842 12.6023 8.86104 11.8852 7.74106C11.5443 7.20862 11.363 6.88573 11.3872 6.05424C11.4181 4.98579 11.9497 5.49464 12.5744 5.06257C13.0009 4.76749 13.13 4.21995 13.7905 4.15569C13.7869 4.1414 13.7944 4.11924 13.7986 4.11238C13.9871 3.80172 13.6566 4.09696 13.8721 4.0237C14.0573 3.96073 13.9519 4.01903 14.039 4.02843C14.1986 4.04564 14.0772 4.05438 14.2326 4.06518C14.4829 4.08259 14.2226 4.06853 14.4189 4.05557C14.9492 4.02058 14.8131 4.23533 15.1423 4.05843C15.0135 3.77804 15.3176 3.95061 14.5306 3.84019C14.2101 3.79522 14.121 3.79348 13.8114 3.89025C14.2429 3.73743 13.9423 3.61869 14.2286 3.60539C14.5272 3.59149 14.1876 3.59883 14.4601 3.67412L14.7186 3.69499C14.6901 3.42385 14.7135 3.28683 14.3188 3.33652C14.094 3.36481 14.0342 3.5634 13.7508 3.21143C14.049 3.21143 14.2283 3.26149 14.3832 3.16395L14.4768 3.06999C14.6247 3.34693 14.4511 3.19565 14.6797 3.32724C15.0766 3.55566 15.2686 3.43248 15.3646 3.10602L15.3765 2.78777L15.347 2.53949C15.2465 2.42635 15.3284 2.54531 15.2504 2.37868C15.2251 2.32463 15.2108 2.26959 15.1847 2.2022C14.8065 1.22526 14.0852 0.813557 13.8685 0.523037C13.7676 0.505741 13.3955 0.314865 13.3265 0.251895C12.7934 0.0947109 12.4627 -0.038062 11.8119 0.00997363C11.3026 0.0475753 10.9603 0.25018 10.4825 0.359835L10.4827 0.359807Z" fill="#D3A655"/>
<path fill-rule="evenodd" clip-rule="evenodd" d="M7.65192 15.5576C7.55208 15.6369 7.2234 16.0735 7.17457 16.2236C7.66494 17.0981 8.243 17.5651 7.89047 19.2012C7.6756 20.1984 6.86063 20.7176 6.27171 21.4204C6.46431 21.5995 8.14839 22.2745 8.5473 22.451L10.7848 23.5468C11.4503 23.9604 12.1048 24.4875 12.8088 24.8502C13.3961 25.1528 14.6776 25.4717 15.4377 25.5254C15.2852 23.8193 15.2711 21.54 15.7727 20.0017C15.9744 19.383 16.0316 19.4447 15.8463 18.7253C15.455 17.2061 16.4145 17.7445 18.3884 17.2298L18.6785 17.0688C18.119 17.085 17.5487 17.0563 17.0169 17.1128C16.4724 17.1706 15.9576 17.2048 15.3821 17.1777C14.3668 17.1299 12.7435 16.7014 12.4748 16.7339C12.0088 16.8372 11.7657 16.5219 11.0095 16.5301L10.9662 16.2237C11.0184 16.1949 11.1519 16.1427 11.1915 16.1312C11.2444 16.116 11.2806 16.1091 11.3422 16.0922L11.5114 16.042L11.4711 16.2241C11.75 16.2631 11.8483 16.2617 12.1698 16.1735C12.1864 16.1689 12.2017 16.1645 12.2176 16.1595L12.6609 15.9214C12.4533 15.9214 12.2696 15.8926 12.1611 15.8943C11.7549 15.9005 11.8547 15.9266 11.7182 15.8001C11.9855 15.5754 12.0176 15.897 12.1772 15.6759C12.0453 15.5002 11.9166 15.5289 11.7425 15.2079C11.6006 14.9464 11.5536 14.7587 11.5098 14.4449C11.355 14.2743 11.4288 14.4819 11.0878 14.1663C11.0843 14.3745 11.11 14.4107 10.9665 14.4689C10.9644 14.1382 10.9874 14.3133 10.8772 14.2145C10.5528 14.3706 10.8801 14.1968 10.7664 14.3526L10.7355 14.3985C10.6131 14.5241 10.1927 14.6061 9.93789 14.5899L10.1149 14.6963C10.1365 14.7076 10.1512 14.7136 10.1711 14.7236L10.3258 14.7879C10.0516 14.8239 9.59981 14.8426 9.41984 14.8258C8.7269 14.7612 8.9322 15.1566 8.5144 14.8046C8.32386 14.6441 8.19359 14.7311 8.14766 14.9478C8.07954 15.2694 8.14527 15.0452 8.15928 15.163C8.25507 15.9673 8.22916 15.8191 7.94056 15.9008C8.10137 15.6065 8.18349 15.6481 8.05266 15.3162C7.62838 15.3078 8.01958 15.3743 7.65184 15.5577L7.65192 15.5576Z" fill="#FDFDFD"/>
<path fill-rule="evenodd" clip-rule="evenodd" d="M15.6272 15.0157C16.2471 15.1205 17.0704 15.2947 17.0642 14.4708C17.06 13.9084 16.9823 13.6594 17.2584 13.0772C17.2861 13.0188 17.3003 12.9806 17.3459 12.9219C17.4474 12.7912 17.4092 12.839 17.5249 12.7616C17.5446 12.6631 17.5157 12.7137 17.5913 12.6182C17.6334 12.5651 17.663 12.5499 17.7191 12.506C17.8567 12.3982 17.8688 12.4393 17.946 12.2779C17.8067 12.1597 17.8876 12.1153 17.8691 11.9875C17.7884 11.4306 17.7276 12.0822 17.6702 11.6239C17.7442 11.5789 17.7067 11.6532 17.9268 11.676L17.9551 11.5539C17.8579 11.458 17.8277 11.4621 17.7806 11.2256C17.7802 11.2258 17.5872 11.3011 17.567 11.3095C17.5523 11.1529 17.5505 11.0905 17.5872 10.9527C17.6525 10.707 17.5314 10.7656 17.8021 10.7157C17.7688 10.5193 17.8841 10.7124 17.9868 10.821C18.2327 11.081 17.7882 10.9637 18.3505 10.9876C18.3529 11.0002 18.3447 11.0087 18.3456 11.0257C18.3539 11.1913 18.2121 10.968 18.3632 11.1227C18.3683 11.1279 18.3834 11.1485 18.6151 11.2021L19.2892 10.9922C19.1512 11.2584 19.1757 11.203 18.8949 11.29C18.7495 11.4218 19.1177 11.3815 18.7738 11.3815C18.9615 11.2832 18.8898 11.4044 18.9554 11.563C18.5523 11.5816 19.0165 11.769 18.0478 11.7407C18.0167 11.8702 18.1177 11.8662 18.1183 11.8664L18.4588 11.9929C19.4857 11.5491 18.8578 11.6641 19.2213 11.3449C19.3607 11.2225 19.7373 11.2104 19.6182 10.3514C19.4279 10.2172 19.3786 10.1521 19.1951 9.99428C18.9046 9.74454 17.559 8.60288 17.4495 8.40851C17.2975 8.13855 17.4061 7.95679 17.4198 7.67918C17.4456 7.1543 16.9682 6.9128 16.8707 6.59227C16.4489 6.32878 15.8996 5.55183 15.5604 5.09257C15.4659 4.96477 15.0588 4.34661 14.9821 4.28024C14.7625 4.09023 14.1421 4.09302 13.7906 4.15562C13.1301 4.21991 13.0011 4.76743 12.5746 5.0625C11.9499 5.4946 11.4183 4.98572 11.3873 6.05418C11.3631 6.88566 11.5445 7.20855 11.8854 7.74099C12.6025 8.86097 12.1079 10.5842 13.2521 13.0324C13.9565 14.5396 14.4587 14.5119 15.6272 15.0157Z" fill="#FDFDFD"/>
<path fill-rule="evenodd" clip-rule="evenodd" d="M6.66938 12.5925C6.82895 12.6556 6.7756 12.502 6.80499 12.713C6.82018 12.7074 6.83868 12.6749 6.84636 12.6875C6.93118 12.8273 6.82201 12.6654 7.03904 12.609C7.09914 12.5934 7.08679 12.5853 7.15325 12.5925C7.19302 12.7928 7.21152 12.7324 7.17448 12.9344L7.2667 12.9837C7.57854 13.1123 7.34764 13.0418 7.45617 12.9499C7.39258 12.5654 7.29364 12.4584 7.30478 12.3368C7.32849 12.078 7.28068 12.2384 7.39565 12.184C7.62264 12.3155 7.53126 12.4635 7.47746 12.7738C7.77892 13.11 7.53258 12.9034 7.85851 13.057C8.09087 13.1665 8.02273 13.2263 8.47201 13.3261C8.36274 13.6726 8.66286 13.4728 8.20376 13.5606C8.21771 13.5713 8.24429 13.5635 8.25087 13.5846C8.25689 13.6039 8.28588 13.6026 8.29364 13.6069C8.44557 13.6907 8.62514 13.8416 8.66696 14.105C8.95877 13.9877 8.89341 13.9566 9.17252 14.0436L9.32655 14.1491C9.33229 14.1583 9.34123 14.1779 9.34646 14.1875L9.39298 14.2857C9.48683 14.1218 9.51937 14.096 9.65014 14.0775C9.92967 14.038 9.63079 14.1461 10.46 13.9904C10.6051 13.9631 10.3653 13.9858 10.5949 13.9769C10.6682 13.974 10.7174 13.9878 10.7373 13.9842C10.6984 13.7741 10.6391 12.8754 10.785 12.7671C10.9196 13.0383 10.8172 13.4437 10.8537 13.6901C10.9119 14.0819 10.7788 13.8592 11.0271 13.9839C11.0484 13.9425 11.0652 13.9155 11.0865 13.8068L11.1184 13.254C11.1131 13.0277 11.0445 12.9406 10.9618 12.6574C10.9061 12.4665 10.5237 12.0334 10.4946 11.8635C10.473 11.7372 10.4918 11.7783 10.5177 11.6744L10.4676 11.6246C10.4591 11.6178 10.4207 11.5862 10.4079 11.5771C9.82938 11.1683 8.57761 10.3283 7.98414 10.2616C6.72118 10.1197 6.23371 11.98 6.66943 12.5925L6.66938 12.5925Z" fill="#FDFDFD"/>
<path fill-rule="evenodd" clip-rule="evenodd" d="M7.26667 12.9838C7.34015 13.154 7.27401 13.0515 7.39964 13.1988C7.42942 13.2337 7.46809 13.2665 7.51576 13.3191C8.2456 14.125 9.10763 14.516 10.2554 14.3984C10.0924 14.5156 9.99333 14.5304 9.75695 14.5368C8.76994 14.5636 7.21556 13.6007 7.17445 12.9345C7.21151 12.7324 7.19301 12.7928 7.15321 12.5926C7.08673 12.5854 7.0991 12.5935 7.039 12.6091C6.82197 12.6654 6.93115 12.8274 6.84633 12.6876C6.83868 12.675 6.82017 12.7074 6.80496 12.713C6.77559 12.5021 6.82892 12.6556 6.66934 12.5926C6.76007 13.065 7.10895 13.6523 7.34164 14.0367C7.46086 14.2336 7.60249 14.4598 7.72011 14.6896C7.9262 15.0923 7.76333 15.2275 7.65188 15.5577C8.01963 15.3743 7.62839 15.3078 8.0527 15.3162C8.18353 15.6481 8.10141 15.6065 7.9406 15.9008C8.2292 15.8191 8.25511 15.9673 8.15932 15.163C8.14528 15.0452 8.07959 15.2694 8.1477 14.9478C8.19363 14.7311 8.3239 14.6442 8.51444 14.8046C8.93222 15.1566 8.72691 14.7612 9.41989 14.8258C9.59985 14.8426 10.0517 14.8238 10.3258 14.7879L10.1711 14.7236C10.1512 14.7136 10.1365 14.7076 10.1149 14.6963L9.93793 14.5899C10.1927 14.606 10.6131 14.524 10.7355 14.3985L10.7665 14.3526C10.8802 14.1967 10.5529 14.3705 10.8773 14.2145C10.9875 14.3133 10.9644 14.1382 10.9665 14.4689C11.11 14.4107 11.0844 14.3745 11.0879 14.1663C11.4289 14.4819 11.3551 14.2743 11.5098 14.4448C11.4895 13.9942 11.4899 13.0848 11.401 12.7012C11.3123 12.3181 10.8607 11.808 10.5177 11.6746C10.4918 11.7785 10.473 11.7374 10.4946 11.8636C10.5237 12.0336 10.906 12.4667 10.9617 12.6576C11.0444 12.9408 11.1131 13.0279 11.1183 13.2542L11.0864 13.807C11.0652 13.9156 11.0483 13.9426 11.0271 13.9841C10.7788 13.8594 10.9119 14.0821 10.8537 13.6903C10.8171 13.4439 10.9195 13.0384 10.785 12.7673C10.6391 12.8756 10.6984 13.7743 10.7372 13.9844C10.7174 13.988 10.6682 13.9742 10.5948 13.977C10.3653 13.9859 10.6051 13.9633 10.4599 13.9906C9.63076 14.1463 9.92963 14.0382 9.65011 14.0777C9.51933 14.0962 9.48679 14.122 9.39294 14.2858L9.34643 14.1877C9.34122 14.1781 9.33228 14.1584 9.32651 14.1492L9.17248 14.0437C8.89341 13.9568 8.95877 13.9878 8.66692 14.1052C8.6251 13.8418 8.44553 13.6908 8.29361 13.607C8.28585 13.6028 8.25685 13.6041 8.25083 13.5848C8.24428 13.5637 8.21767 13.5715 8.20372 13.5608C8.66282 13.473 8.36271 13.6727 8.47197 13.3263C8.02269 13.2265 8.09084 13.1666 7.85848 13.0572C7.53255 12.9036 7.77889 13.1101 7.47743 12.774C7.5312 12.4637 7.6226 12.3157 7.39561 12.1842C7.28064 12.2386 7.32845 12.0782 7.30475 12.3369C7.29361 12.4585 7.39255 12.5656 7.45614 12.95C7.34761 13.042 7.5785 13.1125 7.26667 12.9839V12.9838Z" fill="#FAFAF4"/>
<path fill-rule="evenodd" clip-rule="evenodd" d="M12.4748 16.7339C12.3279 16.6005 11.8075 16.4877 11.5756 16.4197C13.4544 16.5656 13.4427 17.1011 16.9891 17.0772L16.7013 16.9572C15.8433 16.7545 15.6524 16.7616 14.5524 16.452C13.724 16.2189 12.9351 15.9234 12.1773 15.6758C12.0177 15.8969 11.9856 15.5753 11.7182 15.8C11.8548 15.9265 11.7549 15.9004 12.1611 15.8942C12.2696 15.8926 12.4534 15.9214 12.6609 15.9214L12.2176 16.1595C12.2018 16.1644 12.1865 16.1688 12.1699 16.1734C11.8484 16.2616 11.7501 16.263 11.4711 16.224L11.5114 16.0419L11.3423 16.0921C11.2807 16.109 11.2444 16.1159 11.1915 16.1312C11.1519 16.1426 11.0185 16.1949 10.9662 16.2236L11.0096 16.53C11.7658 16.5219 12.0089 16.8371 12.4749 16.7338L12.4748 16.7339Z" fill="#FAFAFA"/>
<path fill-rule="evenodd" clip-rule="evenodd" d="M19.2088 13.4648C18.977 13.4621 18.1703 13.7777 18.0475 13.9048L17.9271 14.2262C18.0231 14.3044 18.1605 14.7699 18.2687 14.9885C18.336 15.1246 18.3736 14.9936 18.3237 15.2935C18.4947 15.7145 19.193 15.5787 19.4891 15.3833C18.9349 14.1187 19.7478 14.4524 19.6093 13.8026C19.2727 13.777 19.3163 13.769 19.2586 13.4397C19.38 13.5104 19.3098 13.4455 19.2088 13.4648Z" fill="#FCFCFC"/>
<path fill-rule="evenodd" clip-rule="evenodd" d="M17.5249 12.7615C17.4092 12.8389 17.4474 12.7911 17.3459 12.9218C17.3002 12.9806 17.2861 13.0187 17.2584 13.0772C16.9823 13.6594 17.0599 13.9084 17.0641 14.4707C17.0703 15.2947 16.247 15.1204 15.6272 15.0157C15.7219 15.2924 15.764 15.1848 16.1084 15.1585C16.3716 15.1383 16.4246 15.191 16.595 15.3055C16.3996 15.5856 16.8422 15.3127 16.4611 15.3902C16.115 15.4606 16.4326 15.3967 16.2647 15.3694C16.1229 15.3463 16.2144 15.3262 16.1283 15.3486C15.9604 15.3923 16.0538 15.3502 15.9298 15.4971L16.5924 15.5792C16.6475 15.401 16.5141 15.4037 16.8404 15.374C17.0849 15.3517 17.171 15.4836 17.3085 15.5713C17.5488 15.7242 17.1744 15.6695 17.806 15.6187C17.8452 15.4203 17.6734 15.3778 17.7003 15.079C17.7281 14.77 17.7739 15.0081 17.7686 14.7178C17.7624 14.3746 17.7179 14.8998 17.6844 14.4347L17.7908 14.5287C17.7231 14.2356 17.5755 13.9012 17.6824 13.5619C17.7858 13.234 18.0301 13.1465 18.242 12.9576C17.8774 13.0641 18.1731 12.9994 18.0481 12.8948C18.1738 12.6414 18.3563 12.5497 18.5863 12.4127C18.6047 12.4017 18.6297 12.391 18.6461 12.3738L18.3505 12.2893C18.079 12.5163 18.6533 12.071 18.2038 12.4784C18.1908 12.4901 18.1478 12.5213 18.1344 12.532C17.8934 12.7243 18.1848 12.3743 17.9943 12.6607C17.9887 12.6693 17.9816 12.6858 17.9762 12.6951L17.8928 12.8553C17.8833 12.8681 17.8722 12.882 17.862 12.894C17.849 12.9094 17.7797 12.9642 17.7452 12.9972C17.6242 12.9304 17.6675 13.0104 17.5249 12.7616L17.5249 12.7615Z" fill="#D2A559"/>
<path fill-rule="evenodd" clip-rule="evenodd" d="M13.7906 4.15576C14.1421 4.09316 14.7625 4.09037 14.9821 4.28038C15.0588 4.34675 15.4659 4.96491 15.5604 5.09271C15.8996 5.55197 16.4488 6.32892 16.8707 6.59242L16.9102 6.4541C16.915 6.56646 17.0456 6.57099 17.2048 6.60021L16.9167 6.20321L16.636 5.91716C16.2495 5.56336 16.0093 5.12654 15.6469 4.70558C15.3805 4.39602 15.2926 4.46237 15.3772 3.99757C15.4264 3.7271 15.4969 3.3089 15.3648 3.1061C15.2688 3.43256 15.0768 3.55574 14.6799 3.32732C14.4512 3.19573 14.6248 3.347 14.477 3.07007L14.3834 3.16403C14.2284 3.26156 14.0492 3.2115 13.751 3.2115C14.0344 3.56347 14.0941 3.36489 14.3189 3.3366C14.7137 3.2869 14.6903 3.42392 14.7188 3.69507L14.4602 3.6742C14.1878 3.59888 14.5274 3.59157 14.2287 3.60546C13.9424 3.61877 14.243 3.7375 13.8115 3.89033C14.1212 3.79356 14.2103 3.7953 14.5308 3.84027C15.3177 3.95066 15.0136 3.77812 15.1425 4.05851C14.8133 4.23541 14.9494 4.02063 14.419 4.05564C14.2228 4.06858 14.4831 4.08267 14.2327 4.06526C14.0774 4.05446 14.1987 4.04571 14.0391 4.0285C13.952 4.01911 14.0575 3.96078 13.8722 4.02378C13.6567 4.09704 13.9873 3.8018 13.7987 4.11245C13.7946 4.11931 13.7871 4.14148 13.7906 4.15576H13.7906Z" fill="#D2A559"/>
<path fill-rule="evenodd" clip-rule="evenodd" d="M18.242 12.9577C18.0301 13.1466 17.7858 13.234 17.6824 13.562C17.5754 13.9012 17.7231 14.2357 17.7908 14.5287C17.9961 14.7823 18.0241 15.1288 18.3236 15.2934C18.3736 14.9934 18.336 15.1244 18.2687 14.9884C18.1605 14.7698 18.0231 14.3043 17.9271 14.2261L18.0475 13.9047L18.0075 13.8961C18.2016 13.5612 18.8466 13.3818 19.0229 13.3902C19.324 13.4046 19.0992 13.359 19.2088 13.4647C19.3098 13.4454 19.3799 13.5103 19.2586 13.4396C19.3163 13.7689 19.2727 13.7769 19.6092 13.8025C19.5466 13.5511 19.5189 13.5881 19.3785 13.4396C19.4228 12.9352 19.7161 12.8756 19.2667 12.4905L18.242 12.9577H18.242Z" fill="#FAFAF4"/>
<path fill-rule="evenodd" clip-rule="evenodd" d="M17.7806 11.2257L17.7289 10.9954C17.8892 11.1175 17.7645 11.3806 18.2811 11.5057C18.2965 11.5094 18.4242 11.5389 18.4254 11.5394C18.5179 11.576 18.5274 11.5952 18.569 11.6242L17.955 11.554L17.9268 11.6761C17.7067 11.6533 17.7442 11.579 17.6702 11.624C17.7275 12.0823 17.7884 11.4307 17.8691 11.9876C17.8876 12.1154 17.8067 12.1598 17.946 12.2779L18.4588 11.993L18.1183 11.8665C18.1177 11.8664 18.0167 11.8703 18.0478 11.7408C19.0165 11.7691 18.5523 11.5817 18.9554 11.5632C18.8898 11.4045 18.9616 11.2833 18.7738 11.3816C19.1177 11.3816 18.7495 11.4219 18.8949 11.2902C18.346 11.283 18.7213 11.5166 18.4696 11.3819C18.6247 11.0639 18.2624 11.5736 18.5417 11.2667L18.6151 11.2023C18.3834 11.1486 18.3683 11.1281 18.3632 11.1228C18.2121 10.9682 18.3539 11.1914 18.3456 11.0258C18.3447 11.0089 18.3529 11.0004 18.3505 10.9878C17.7882 10.9638 18.2327 11.0812 17.9868 10.8211C17.8841 10.7125 17.7688 10.5194 17.8021 10.7158C17.5314 10.7657 17.6525 10.7072 17.5872 10.9528C17.5505 11.0906 17.5523 11.1531 17.567 11.3097C17.5872 11.3013 17.7802 11.226 17.7806 11.2257V11.2257Z" fill="#FAFAF4"/>
<path fill-rule="evenodd" clip-rule="evenodd" d="M7.26667 12.9839L7.17445 12.9346C7.21557 13.6007 8.76992 14.5636 9.75696 14.5369C9.99334 14.5305 10.0924 14.5157 10.2554 14.3984C9.10763 14.5161 8.24561 14.1251 7.51576 13.3191C7.46809 13.2665 7.42943 13.2337 7.39964 13.1988C7.27401 13.0516 7.34016 13.154 7.26667 12.9838V12.9839Z" fill="#C9B478"/>
<path fill-rule="evenodd" clip-rule="evenodd" d="M18.0475 13.9047C18.1703 13.7776 18.977 13.462 19.2088 13.4646C19.0993 13.359 19.3241 13.4046 19.023 13.3902C18.8467 13.3818 18.2016 13.5611 18.0075 13.8961L18.0475 13.9047V13.9047Z" fill="#D6B987"/>
<path fill-rule="evenodd" clip-rule="evenodd" d="M18.6151 11.2022L18.5417 11.2666C18.2624 11.5735 18.6246 11.0638 18.4696 11.3818C18.7213 11.5165 18.346 11.2829 18.8948 11.29C19.1757 11.203 19.1512 11.2585 19.2891 10.9922L18.6151 11.2022V11.2022Z" fill="#D6B987"/>
<path fill-rule="evenodd" clip-rule="evenodd" d="M17.7806 11.2257C17.8277 11.4622 17.8579 11.4581 17.9551 11.554L18.569 11.6242C18.5274 11.5952 18.5179 11.576 18.4255 11.5394C18.4242 11.5389 18.2965 11.5094 18.2812 11.5057C17.7645 11.3806 17.8892 11.1175 17.7289 10.9954L17.7807 11.2257L17.7806 11.2257Z" fill="#BBB370"/>
</svg>
