<svg width="27" height="27" viewBox="0 0 27 27" fill="none" xmlns="http://www.w3.org/2000/svg">
<g filter="url(#filter0_d)">
<path fill-rule="evenodd" clip-rule="evenodd" d="M21.8467 13.5178C21.9576 13.6638 22.2555 13.8003 21.8799 14.3264C21.5709 14.7592 21.8235 14.8426 21.922 15.2255C22.0111 15.5714 21.2911 15.4848 21.1091 15.3702C20.9799 15.2888 19.6319 13.8517 20.9329 13.0949C21.0273 13.04 21.6629 12.7123 21.7515 12.7102C22.0956 12.7018 21.8658 13.2622 21.8467 13.5178L21.8467 13.5178ZM14.8535 14.8877C15.1688 15.2239 14.905 15.418 16.036 15.7827C17.2236 16.1656 18.9599 16.7478 20.2021 16.8466C20.5508 16.8744 20.8956 16.8389 21.2455 16.8508C20.6627 17.2728 18.7277 17.0944 18.5761 17.6363C18.5358 17.7801 18.5602 18.018 18.5702 18.1684C18.7589 18.5232 18.7649 19.045 18.5983 19.4343C18.4405 19.8028 18.2992 20.34 18.1943 20.5905C18.0887 21.3195 17.9894 21.8137 17.9902 22.5979C17.991 23.3985 18.1408 23.8769 18.2182 24.5822C18.0014 24.5709 17.7877 24.5188 17.5632 24.485L16.8959 24.2968C16.0019 24.3795 14.5223 23.0084 13.4751 22.5138C12.7624 22.1771 11.5168 21.5512 10.8088 21.2681C10.5148 21.1505 10.0962 21.0032 9.88651 20.874C10.0281 20.5529 10.7785 20.0558 11.3004 19.2203C11.6318 17.8253 11.3195 17.1435 11.3328 15.7325C11.3419 14.7696 11.4177 14.9229 11.0011 14.211C10.7655 13.8084 10.4793 13.3573 10.3527 12.9091C10.0858 12.5132 10.0442 11.413 10.7448 10.8494C12.1882 9.68831 13.4136 11.5782 14.0726 12.7189C14.3448 13.1901 14.8672 14.1721 14.8535 14.8877ZM21.132 9.8912C21.4679 10.1673 21.7137 10.4542 22.0652 10.6943C22.1544 11.4943 21.7995 11.4972 21.6762 11.6288C21.503 11.8137 21.734 12.069 20.9515 12.2581L20.8568 12.3539C20.6173 12.5467 20.3319 12.6722 20.0829 13.0688C19.7565 13.5888 19.863 13.8796 19.8418 14.5188C19.8198 15.181 19.0741 15.0803 18.6393 14.9739C16.1999 14.3771 16.5752 12.7992 15.0592 10.8389L14.7274 10.3691L14.4691 10.1042C14.3078 9.88376 14.1001 9.50658 14.0295 9.21943C13.9142 8.75012 14.0395 8.04064 14.1556 7.59434C14.6051 5.86773 14.7659 6.17435 15.292 6.02493C15.5752 5.94454 15.7208 5.80511 15.8954 5.72513C16.2884 4.88022 17.503 4.89338 17.8481 5.14724L18.9925 6.70793C19.3891 7.16833 20.1379 7.70547 20.0287 8.41615C19.9454 8.95818 20.1799 9.03844 20.4469 9.28396C20.6519 9.47247 20.9345 9.76613 21.132 9.8912H21.132ZM11.4791 2.42862C11.4285 2.48262 11.4536 2.46339 11.3771 2.5134L10.5662 2.80764C10.2456 2.89483 9.87582 2.93827 9.53814 2.98604C8.4323 3.14253 8.37545 3.33242 7.6236 3.54843C7.55262 3.65193 7.51678 3.64524 7.39835 3.70924C7.34374 3.73875 7.31384 3.75775 7.25317 3.78579C7.07456 3.86837 7.21439 3.82806 7.05583 3.8542C6.89299 4.11646 6.1528 4.47109 5.65155 5.38482C5.59115 5.49495 5.54159 5.5994 5.48549 5.71388L5.29461 5.96849C5.31726 6.5448 4.80411 7.22247 5.19171 8.99201C5.41293 10.0019 5.58593 10.9967 5.43359 12.1307C5.2924 13.1817 4.95271 13.9097 4.65722 14.8517C4.41832 15.6131 4.35984 16.3287 4.55478 17.1109C4.61024 17.3335 4.73628 17.6202 4.74562 17.7878L5.23186 18.6665C5.26036 17.9874 4.87392 16.6399 5.31666 16.1261C5.78386 16.1267 5.68996 16.667 5.78112 17.1508C5.85542 17.545 5.94038 17.9664 6.0621 18.3639C6.22118 18.8835 6.42487 19.4582 6.82713 19.8008L7.15882 20.0243C7.27543 20.1051 7.19628 20.0391 7.29573 20.126L7.29404 20.0969L7.96447 20.2082C7.87044 19.969 7.89405 20.0773 7.73918 19.877C7.48432 19.5472 7.41968 19.0922 7.45914 18.6632C7.91717 18.9627 8.37163 20.2373 9.93092 20.2777C9.75247 20.6606 9.30177 20.9261 8.90498 21.065C8.43121 21.2308 8.00592 21.4358 7.53524 21.5555C7.38837 21.6602 6.47714 21.96 6.21637 22.0608C5.47492 22.3474 5.46098 22.2351 5.07255 22.8529C4.05815 24.4663 4.51313 25.3756 4.47847 25.848C4.48852 25.8595 4.50206 25.8627 4.50625 25.8844L4.70436 26.2604C5.20762 27.2527 6.41231 27.705 7.49489 27.8788C11.8779 28.5825 13.8147 24.7134 17.6692 26.9208C17.9538 27.0838 18.197 27.2037 18.4554 27.4021C18.6851 27.5784 18.9758 27.8119 19.1904 27.9512L19.8175 28.5184C19.9009 28.6104 19.865 28.5567 19.8996 28.6321C20.1622 28.7599 20.1293 28.8364 20.368 29.0002C20.2815 28.6298 19.9627 28.04 19.7906 27.6623C19.6417 27.3353 19.2832 26.6453 19.221 26.319C19.1198 26.2385 19.162 26.3258 19.1685 26.1709C18.7895 25.7878 18.4285 24.3814 18.3807 23.9271C18.1812 23.0796 18.2263 21.9669 18.3256 21.0844C18.4374 20.3044 18.6975 19.8881 18.8736 19.2689C18.994 18.8454 18.8784 18.6552 18.8433 18.2683C18.8023 17.816 18.8121 17.5989 19.2144 17.4906L19.4231 17.4664C19.4353 17.458 19.4525 17.4487 19.4617 17.4442C19.7097 17.321 20.1339 17.2842 20.6674 17.2041C21.0736 17.1432 21.4616 17.0634 21.7852 16.8873C22.9477 16.2543 22.1078 15.137 22.0436 14.9244C21.8556 14.3023 22.4345 14.4247 22.2012 13.7077C22.1072 13.4188 22.0039 13.6033 22.0711 13.2502C22.1188 13 22.1422 12.9037 22.034 12.6665C21.8612 12.2872 21.6181 12.0185 21.9864 11.6643C22.2878 11.3744 22.3798 11.2001 22.3877 10.6319L20.4592 8.93893C19.6832 8.15381 21.1346 8.53159 19.2977 6.56453L18.1853 5.26457C18.3214 4.93974 18.4521 4.91135 18.4658 4.38438C18.4776 3.93016 18.3748 3.6783 18.3242 3.27537L18.0442 2.642C17.8946 2.3921 17.7689 2.25354 17.6145 2.06026C17.5187 1.94038 17.4889 1.90659 17.3732 1.80759C17.2269 1.68234 17.211 1.69702 17.1184 1.53726C16.8506 1.4905 16.6199 1.13943 15.8227 0.934016C14.2125 0.519072 12.2431 2.43764 11.479 2.42864L11.4791 2.42862Z" fill="#D3A655"/>
<path fill-rule="evenodd" clip-rule="evenodd" d="M10.3528 12.9088L10.6438 12.6874C10.7181 12.777 10.6513 12.7095 10.6588 12.8709C10.6537 13.2229 11.5777 13.9511 11.8981 14.1311C12.1763 14.2874 12.4667 14.4153 12.8165 14.4776C12.9958 14.5096 13.1896 14.5109 13.3539 14.4719C13.4033 14.4602 13.5622 14.4086 13.6043 14.39C13.8043 14.3013 13.6872 14.36 13.7199 14.3029C13.8749 13.9356 13.6387 14.4228 13.6333 14.1083C13.6307 13.9594 13.5441 14.0439 13.7217 13.9958C13.7894 13.9774 13.8501 13.9986 13.8705 14.0092C14.1199 14.1389 13.8474 13.9496 13.9939 14.7353C13.8978 14.7268 13.6946 14.7321 13.6863 14.7342L13.5464 14.8108C13.3009 14.9341 13.2722 14.8752 13.043 14.8666C13.032 14.8662 13.0172 14.8652 13.0065 14.8654L12.3988 14.8713C12.3896 14.8715 12.1481 14.8997 12.1272 14.9014C12.1272 15.8724 11.9136 15.22 12.1031 16.5606C12.1524 16.9094 12.0673 16.8479 12.0702 17.1767C12.0723 17.409 12.1486 17.4813 12.1428 17.7233L12.1216 18.6193C12.129 18.8357 12.2331 19.0192 11.9072 19.3257C11.6777 19.2368 11.7162 19.0774 11.5228 19.2757L11.4676 19.1093C11.3731 19.2732 11.4811 19.1549 11.3006 19.22C10.7786 20.0555 10.0282 20.5526 9.88666 20.8737C10.0963 21.0029 10.5149 21.1502 10.809 21.2678C11.517 21.5509 12.7625 22.1769 13.4753 22.5135C14.5224 23.0081 16.0021 24.3792 16.8961 24.2965C17.0961 24.2568 17.2415 24.2401 17.4056 24.1962C17.683 24.122 17.6056 24.1201 17.8933 24.203C17.8256 24.0421 17.9573 23.8519 17.4925 24.0429C17.2979 24.1229 17.431 24.1168 17.2348 24.1477C17.4384 23.6631 17.5408 24.3009 17.5198 23.2066C17.5007 22.2153 17.6499 21.2283 17.6396 20.5519C17.6356 20.2867 17.5855 20.2639 17.7288 20.1065C17.8643 20.276 17.7198 20.4515 17.7196 20.452C17.6201 20.7661 17.7056 20.7191 17.8072 20.8126C17.8575 20.592 17.9069 20.2733 18.0583 20.1065C18.1037 20.1735 18.1454 20.1897 18.1145 20.4023C18.0747 20.677 18.0826 20.2911 18.0563 20.6563L18.1945 20.5903C18.2994 20.3397 18.4407 19.8025 18.5985 19.434C18.7651 19.0447 18.7592 18.5229 18.5704 18.1681C18.5011 18.1011 18.4354 18.0666 18.4446 17.838C18.4476 17.7654 18.4975 17.642 18.5209 17.5593L18.4289 17.4817C18.419 17.4746 18.4068 17.464 18.3959 17.4571C18.2414 17.3582 18.196 17.364 18.0071 17.3627C17.7901 17.3611 17.5498 17.3785 17.3444 17.4032C17.2835 17.2325 17.2535 17.4543 17.3891 17.2974C17.3969 17.2884 17.4809 17.2334 17.4939 17.2205C17.2366 17.1973 17.2724 17.1646 17.0592 17.1215L15.6885 17.0124C15.8324 16.5571 15.87 16.8699 15.8618 16.6447L14.8353 16.366C14.7289 16.5679 14.2842 16.4194 13.9923 16.3413L14.1271 16.2734C14.4023 16.1524 14.5356 16.117 14.8395 16.1162C14.8456 15.9495 14.8697 15.8578 14.8807 15.7152C14.9038 15.4168 14.8908 15.7056 14.8292 15.5439C14.6878 15.1729 14.8786 15.2635 14.8536 14.8874C14.8674 14.1719 14.345 13.1899 14.0727 12.7186C13.4137 11.578 12.1883 9.68808 10.745 10.8491C10.0443 11.4127 10.0859 12.513 10.3528 12.9088H10.3528Z" fill="#FDFDFD"/>
<path fill-rule="evenodd" clip-rule="evenodd" d="M15.8956 5.72479L15.9037 5.98781C15.5421 6.05065 15.6469 6.0473 15.6418 6.34129C15.4388 6.29296 14.8934 6.45237 14.8696 6.54133C14.9811 6.73344 15.0886 6.54682 15.3141 6.64545C15.4283 6.69543 15.3212 6.61276 15.3254 6.76402C15.3255 6.76769 15.3253 6.78448 15.3258 6.78761C15.3263 6.79006 15.3302 6.80352 15.331 6.80538L15.3672 6.81843C15.2163 6.82819 14.8484 6.78634 14.7816 6.92887C14.7109 7.07969 14.9013 6.92453 14.6411 6.81202C14.5943 7.12319 14.6324 7.03253 14.7 7.24291L14.8055 7.75899C14.8042 7.78104 14.7926 7.84772 14.7897 7.87016L14.6886 8.60587C14.6177 9.08979 14.7756 9.53813 14.7715 9.83733L14.7766 10.0117C14.7791 10.0283 14.7855 10.0425 14.7882 10.0591C14.8371 10.3495 14.8626 10.1849 14.7275 10.3688L15.0594 10.8385C16.5753 12.7988 16.2 14.3767 18.6395 14.9736C19.0742 15.0799 19.82 15.1806 19.842 14.5184C19.8632 13.8792 19.7567 13.5884 20.0831 13.0684C20.332 12.6718 20.6174 12.5463 20.8569 12.3535L20.9516 12.2577C20.8802 12.1558 20.8205 12.1881 20.8134 12.19C20.6541 12.2338 20.7012 12.2605 20.594 12.1333C20.6909 12.0304 20.7426 11.9865 20.9144 11.9672L20.5361 11.9642C20.451 12.2373 20.5869 12.1239 20.3649 12.2899C20.2639 12.2249 20.2229 12.2311 20.1516 12.2009L20.2214 11.9047C20.2257 11.9058 20.1453 11.8776 20.1348 11.8643C20.0779 11.7925 20.0633 11.8686 20.0357 11.6353C20.4361 11.7482 20.0824 11.7988 20.4796 11.7125L20.3597 11.524C20.1382 11.4397 20.3229 11.6065 20.2431 11.4061C20.151 11.1752 20.2124 11.298 20.2553 11.2475C20.328 11.0966 20.0652 11.0756 20.7491 11.0811C20.7491 10.5046 20.8814 10.6209 20.8817 10.6206C21.3131 10.1909 20.8528 10.8619 21.0146 10.4723C20.8294 10.3088 20.6404 10.3646 20.3646 10.3616C20.3646 9.92599 20.2303 9.94921 20.2532 9.81321C20.2543 9.80696 20.259 9.7916 20.2615 9.78583L20.4343 9.89505C20.4423 9.90438 20.4526 9.91703 20.4612 9.92636C20.4728 9.93881 20.5078 9.9754 20.5206 9.98702C20.5307 9.99614 20.5432 10.0064 20.5536 10.015L20.9141 10.3613C20.9851 10.0532 20.9698 10.2577 20.9693 9.91894L21.1321 9.89085C20.9346 9.76578 20.652 9.47212 20.447 9.28361C20.18 9.03809 19.9456 8.95781 20.0288 8.4158C20.138 7.70512 19.3893 7.16796 18.9926 6.70758L17.8482 5.1469C17.5031 4.89304 16.2885 4.87988 15.8955 5.72479H15.8956Z" fill="#FDFDFD"/>
<path fill-rule="evenodd" clip-rule="evenodd" d="M10.3528 12.9089C10.4794 13.3571 10.7656 13.8083 11.0012 14.2109C11.4178 14.9228 11.3421 14.7695 11.3329 15.7324C11.3196 17.1434 11.6319 17.8252 11.3006 19.2202C11.481 19.1551 11.3731 19.2734 11.4676 19.1095L11.5228 19.2759C11.7162 19.0776 11.6776 19.2369 11.9072 19.3259C12.2331 19.0194 12.1289 18.8359 12.1216 18.6195L12.1427 17.7235C12.1486 17.4814 12.0723 17.4092 12.0702 17.1769C12.0673 16.848 12.1524 16.9096 12.1031 16.5607C11.9136 15.2201 12.1272 15.8725 12.1272 14.9016C12.1481 14.8998 12.3896 14.8717 12.3988 14.8714L13.0065 14.8656C13.0172 14.8654 13.032 14.8664 13.0429 14.8668C13.2722 14.8753 13.3009 14.9342 13.5463 14.8109L13.6863 14.7344C13.6946 14.7323 13.8977 14.727 13.9939 14.7355C13.8474 13.9498 14.1199 14.1391 13.8705 14.0094C13.8501 13.9987 13.7894 13.9775 13.7217 13.9959C13.5441 14.0441 13.6307 13.9595 13.6333 14.1084C13.6387 14.4229 13.8748 13.9358 13.7198 14.3031L13.743 14.3245C13.5797 14.6131 13.0605 14.6175 12.6975 14.5435C11.1719 14.2327 10.4501 13.0085 10.6587 12.871C10.6513 12.7096 10.718 12.7771 10.6438 12.6875L10.3528 12.9089H10.3528Z" fill="#FCFCFA"/>
<path fill-rule="evenodd" clip-rule="evenodd" d="M14.8351 16.366L14.7088 16.3055C15.17 16.2944 16.5565 16.6317 17.1036 16.747C18.0675 16.9502 18.8424 16.8373 19.789 16.8915C19.7396 16.9196 19.7958 16.9118 19.6479 16.9477C19.4906 16.9859 19.6998 16.945 19.5417 16.9647C18.0764 17.1482 17.1289 16.8399 15.8616 16.6447C15.8698 16.8699 15.8322 16.5571 15.6883 17.0124L17.059 17.1216C17.2722 17.1646 17.2364 17.1973 17.4937 17.2205C17.4807 17.2334 17.3967 17.2884 17.3889 17.2975C17.2533 17.4543 17.2833 17.2325 17.3442 17.4033C17.5496 17.3785 17.7899 17.3612 18.0069 17.3627C18.1958 17.364 18.2412 17.3583 18.3957 17.4571C18.4065 17.4641 18.4188 17.4747 18.4287 17.4817L18.5207 17.5594C18.4973 17.6421 18.4474 17.7654 18.4445 17.838C18.4352 18.0667 18.5009 18.1011 18.5703 18.1681C18.5602 18.0177 18.5358 17.7799 18.5761 17.6361C18.7278 17.0942 20.6628 17.2726 21.2455 16.8505C20.8956 16.8387 20.5508 16.8741 20.2022 16.8464C18.9599 16.7475 17.2236 16.1653 16.036 15.7824C14.905 15.4178 15.1687 15.2237 14.8535 14.8875C14.8785 15.2635 14.6877 15.1729 14.829 15.5439C14.8906 15.7057 14.9037 15.4167 14.8806 15.7152C14.8695 15.8579 14.8455 15.9495 14.8394 16.1162C14.5354 16.117 14.4021 16.1523 14.1269 16.2734L13.9921 16.3413C14.284 16.4194 14.7287 16.5679 14.8352 16.366H14.8351Z" fill="#FAFAF4"/>
<path fill-rule="evenodd" clip-rule="evenodd" d="M20.5368 13.9478C20.8439 13.6744 21.1156 13.4635 21.6865 13.454L20.5368 13.9478ZM21.846 13.5177C21.865 13.2621 22.0948 12.7017 21.7508 12.7101C21.6623 12.7122 21.0271 13.0399 20.9327 13.0948C19.6323 13.8516 20.9797 15.2887 21.1088 15.3701C21.2907 15.4847 22.0103 15.5713 21.9213 15.2254C21.8228 14.8425 21.5703 14.7591 21.8792 14.3263C22.2546 13.8002 21.9568 13.6637 21.846 13.5177L21.846 13.5177Z" fill="#FAFAFA"/>
<path fill-rule="evenodd" clip-rule="evenodd" d="M14.7274 10.3688C14.8625 10.185 14.837 10.3496 14.7882 10.0592C14.7854 10.0426 14.779 10.0283 14.7765 10.0118L14.7714 9.83742C14.7755 9.53822 14.6176 9.08985 14.6885 8.60595L14.7896 7.87024C14.7925 7.84777 14.8041 7.78111 14.8054 7.75906L14.7 7.24298C14.6323 7.03258 14.5943 7.12326 14.641 6.8121C14.9012 6.9246 14.7108 7.07976 14.7815 6.92894C14.8483 6.78642 15.2162 6.82824 15.3672 6.8185L15.3309 6.80546C15.3301 6.8036 15.3262 6.79011 15.3258 6.78768C15.3252 6.78455 15.3254 6.76779 15.3253 6.76409C15.3211 6.61283 15.4282 6.69553 15.314 6.64552C15.0885 6.54687 14.981 6.73352 14.8695 6.5414C14.8933 6.45244 15.4387 6.29303 15.6417 6.34136C15.6468 6.04737 15.542 6.05072 15.9036 5.98788L15.8955 5.72485C15.7209 5.80483 15.5753 5.94426 15.2921 6.02465C14.766 6.17407 14.6051 5.86743 14.1557 7.59407C14.0396 8.04037 13.9143 8.74986 14.0296 9.21917C14.1001 9.50631 14.3079 9.88352 14.4691 10.1039L14.7274 10.3689L14.7274 10.3688Z" fill="#FCFCFA"/>
<path fill-rule="evenodd" clip-rule="evenodd" d="M20.3598 11.5243L20.34 11.2766C20.5904 11.558 20.4552 11.6836 20.9818 11.7694L20.8916 11.5131L21.1614 11.4369C21.6411 11.4085 21.5431 11.2378 21.7514 11.383L21.4082 11.5443C21.3381 11.6555 21.3412 11.6829 21.3181 11.7203C21.2165 11.8848 21.2966 11.7799 21.177 11.8454C20.8687 11.8826 20.711 11.9124 20.4798 11.7128C20.0825 11.7991 20.4363 11.7485 20.0358 11.6356C20.0635 11.8689 20.0781 11.7928 20.1349 11.8646C20.1454 11.8779 20.2258 11.9061 20.2215 11.905L20.1517 12.2012C20.223 12.2315 20.264 12.2252 20.3651 12.2903C20.587 12.1242 20.4512 12.2376 20.5362 11.9645L20.9145 11.9675C20.7428 11.9868 20.6911 12.0307 20.5941 12.1336C20.7013 12.2608 20.6542 12.2341 20.8136 12.1904C20.8207 12.1884 20.8804 12.1561 20.9517 12.258C21.7342 12.069 21.5033 11.8137 21.6765 11.6288C21.7998 11.4971 22.1547 11.4942 22.0654 10.6942C21.714 10.4541 21.4682 10.1673 21.1323 9.89115L20.9695 9.91924C20.9699 10.2581 20.9852 10.0535 20.9143 10.3616L20.5538 10.0153C20.5433 10.0067 20.5308 9.99644 20.5207 9.98732C20.5079 9.9757 20.4729 9.93911 20.4614 9.92666C20.4527 9.91733 20.4425 9.90468 20.4344 9.89535L20.2616 9.78613C20.2592 9.7919 20.2544 9.80724 20.2534 9.81351C20.2305 9.94951 20.3648 9.92629 20.3648 10.3619C20.6405 10.3649 20.8296 10.3091 21.0147 10.4726C20.853 10.8622 21.3133 10.1912 20.8819 10.6209C20.8816 10.6212 20.7492 10.5049 20.7492 11.0814C20.0654 11.0759 20.3281 11.0969 20.2555 11.2478C20.2126 11.2983 20.1511 11.1755 20.2432 11.4064C20.3231 11.6067 20.1384 11.44 20.3598 11.5243L20.3598 11.5243Z" fill="#FCFCFA"/>
<path fill-rule="evenodd" clip-rule="evenodd" d="M16.8961 24.2965L17.563 24.4847C17.7874 24.5186 18.001 24.5706 18.2177 24.582C18.1403 23.8766 17.9906 23.3982 17.9898 22.5977C17.989 21.8134 18.0883 21.3192 18.1938 20.5903L18.0557 20.6563C18.082 20.2911 18.074 20.677 18.1139 20.4023C18.1447 20.1897 18.103 20.1735 18.0577 20.1064C17.9063 20.2733 17.857 20.592 17.8066 20.8126C17.7051 20.7191 17.6197 20.7661 17.7192 20.452C17.7193 20.4515 17.8637 20.276 17.7284 20.1064C17.5851 20.2639 17.6352 20.2867 17.6392 20.5518C17.6494 21.2283 17.5004 22.2153 17.5194 23.2066C17.5405 24.3009 17.4381 23.6631 17.2346 24.1477C17.4306 24.1169 17.2976 24.1229 17.4922 24.0429C17.9567 23.8519 17.8251 24.0421 17.8927 24.203C17.6052 24.1201 17.6825 24.1221 17.4053 24.1962C17.2412 24.2401 17.096 24.2568 16.8961 24.2965L16.8961 24.2965Z" fill="#FBFEF9"/>
<path fill-rule="evenodd" clip-rule="evenodd" d="M14.8352 16.366L15.8617 16.6447C17.1289 16.8399 18.0765 17.1482 19.5418 16.9647C19.6999 16.9449 19.4907 16.9859 19.648 16.9477C19.7959 16.9118 19.7397 16.9196 19.7891 16.8915C18.8425 16.8373 18.0676 16.9502 17.1037 16.747C16.5566 16.6316 15.1701 16.2943 14.7089 16.3054L14.8352 16.366H14.8352Z" fill="#CAB687"/>
<path fill-rule="evenodd" clip-rule="evenodd" d="M13.7198 14.3029C13.6871 14.36 13.8042 14.3013 13.6042 14.3899C13.5622 14.4086 13.4032 14.4601 13.3538 14.4719C13.1895 14.5108 12.9957 14.5096 12.8164 14.4776C12.4667 14.4153 12.1762 14.2873 11.898 14.131C11.5777 13.951 10.6537 13.2229 10.6587 12.8708C10.4501 13.0083 11.1719 14.2325 12.6975 14.5434C13.0605 14.6173 13.5796 14.6129 13.7429 14.3244L13.7198 14.3029L13.7198 14.3029Z" fill="#CAB687"/>
<path fill-rule="evenodd" clip-rule="evenodd" d="M20.9816 11.769L21.1769 11.845C21.2965 11.7795 21.2165 11.8844 21.3181 11.7199C21.3412 11.6825 21.3381 11.6551 21.4083 11.5439C21.1886 11.5363 21.1612 11.6065 21.1612 11.4365L20.8914 11.5127L20.9816 11.769Z" fill="#F4F9D9"/>
<path fill-rule="evenodd" clip-rule="evenodd" d="M20.3596 11.5241L20.4797 11.7126C20.7109 11.9122 20.8688 11.8824 21.1773 11.8451L20.9819 11.7692C20.4551 11.6834 20.5903 11.5578 20.3398 11.2764L20.3597 11.5241H20.3596Z" fill="#CAB687"/>
<path fill-rule="evenodd" clip-rule="evenodd" d="M20.5369 13.9479L21.6867 13.4541C21.1158 13.4636 20.844 13.6745 20.5369 13.9479Z" fill="#CAB687"/>
<path fill-rule="evenodd" clip-rule="evenodd" d="M21.1611 11.4369C21.1611 11.6069 21.1885 11.5367 21.4081 11.5443L21.7515 11.383C21.5431 11.2378 21.6412 11.4085 21.1611 11.4369Z" fill="#D3AB6B"/>
</g>
<defs>
<filter id="filter0_d" x="0.406158" y="0.875244" width="25.9907" height="36.125" filterUnits="userSpaceOnUse" color-interpolation-filters="sRGB">
<feFlood flood-opacity="0" result="BackgroundImageFix"/>
<feColorMatrix in="SourceAlpha" type="matrix" values="0 0 0 0 0 0 0 0 0 0 0 0 0 0 0 0 0 0 127 0"/>
<feOffset dy="4"/>
<feGaussianBlur stdDeviation="2"/>
<feColorMatrix type="matrix" values="0 0 0 0 0 0 0 0 0 0 0 0 0 0 0 0 0 0 0.25 0"/>
<feBlend mode="normal" in2="BackgroundImageFix" result="effect1_dropShadow"/>
<feBlend mode="normal" in="SourceGraphic" in2="effect1_dropShadow" result="shape"/>
</filter>
</defs>
</svg>
