<svg viewBox="0 0 36 38" fill="none" xmlns="http://www.w3.org/2000/svg">
<path d="M31.3918 36.6613H25.8134V35.4565H31.3918V36.6613ZM11.4573 36.6613H5.87882V35.4565H11.4573V36.6613ZM2.58182 15.0297H4.2029V20.4254H2.58182V15.0297ZM1.31117 13.6911V8.29535H5.42348V13.6911H1.31117ZM1.31117 21.764H5.42348V27.1597H1.31117V21.764ZM35.3444 0.000968954H9.77657C9.41421 0.000968954 9.12099 0.300326 9.12099 0.670263C9.12099 1.0402 9.41421 1.33956 9.77657 1.33956H34.6888V34.1179H2.58182V28.4983H4.2029V31.7937C4.2029 32.1636 4.49613 32.463 4.85849 32.463H8.63466C8.99702 32.463 9.29025 32.1636 9.29025 31.7937C9.29025 31.4237 8.99702 31.1244 8.63466 31.1244H5.51407V28.4983H6.07907C6.44143 28.4983 6.73465 28.199 6.73465 27.829V21.0947C6.73465 20.7248 6.44143 20.4254 6.07907 20.4254H5.51407V15.0297H6.07907C6.44143 15.0297 6.73465 14.7303 6.73465 14.3604V7.62606C6.73465 7.25612 6.44143 6.95676 6.07907 6.95676H5.51407V4.3307H31.759V7.94489C31.759 8.31482 32.0522 8.61418 32.4145 8.61418C32.7769 8.61418 33.0701 8.31482 33.0701 7.94489V3.6614C33.0701 3.29146 32.7769 2.99211 32.4145 2.99211H4.85849C4.49613 2.99211 4.2029 3.29146 4.2029 3.6614V6.95676H2.58182V1.33712H7.49275C7.85511 1.33712 8.14834 1.03777 8.14834 0.66783C8.14834 0.297892 7.85511 -0.00146484 7.49275 -0.00146484H1.92623C1.56387 -0.00146484 1.27064 0.297892 1.27064 0.66783V6.95676H0.655586C0.293226 6.95676 0 7.25612 0 7.62606V14.3604C0 14.7303 0.293226 15.0297 0.655586 15.0297H1.27064V20.4254H0.655586C0.293226 20.4254 0 20.7248 0 21.0947V27.829C0 28.199 0.293226 28.4983 0.655586 28.4983H1.27064V34.7872C1.27064 35.1572 1.56387 35.4565 1.92623 35.4565H4.56765V37.3306C4.56765 37.7005 4.86087 37.9999 5.22323 37.9999H12.1128C12.4752 37.9999 12.7684 37.7005 12.7684 37.3306V35.4565H24.5022V37.3306C24.5022 37.7005 24.7954 37.9999 25.1578 37.9999H32.0474C32.4098 37.9999 32.703 37.7005 32.703 37.3306V35.4565H35.3468C35.7092 35.4565 36.0024 35.1572 36.0024 34.7872V0.670263C36.0024 0.300326 35.7092 0.000968954 35.3468 0.000968954H35.3444Z" fill="#D8A04D"/>
<path d="M10.2632 31.7933C10.2632 32.1633 10.5564 32.4626 10.9188 32.4626H32.4124C32.7748 32.4626 33.068 32.1633 33.068 31.7933V10.2785C33.068 9.90861 32.7748 9.60925 32.4124 9.60925C32.0501 9.60925 31.7569 9.90861 31.7569 10.2785V31.1265H10.9188C10.5564 31.1265 10.2632 31.4258 10.2632 31.7958V31.7933Z" fill="#D8A04D"/>
<path d="M16.993 20.6318C17.3697 20.8922 17.7988 21.0772 18.2613 21.1697V23.6765C17.1336 23.5475 16.1014 23.0924 15.2575 22.4036L16.993 20.6318ZM15.5388 18.3903C15.6294 18.8624 15.8106 19.3005 16.0656 19.6851L14.3301 21.4569C13.6555 20.5953 13.2097 19.5415 13.0833 18.3903H15.5388ZM16.0656 15.7569C15.8106 16.1414 15.6294 16.5795 15.5388 17.0517H13.0833C13.2097 15.9005 13.6555 14.8467 14.3301 13.9851L16.0656 15.7569ZM18.2613 14.2723C17.7988 14.3648 17.3697 14.5497 16.993 14.8102L15.2575 13.0384C16.1014 12.3496 17.1336 11.8945 18.2613 11.7655V14.2723ZM20.8407 14.8102C20.464 14.5497 20.0349 14.3648 19.5724 14.2723V11.7655C20.7 11.8945 21.7323 12.3496 22.5762 13.0384L20.8407 14.8102ZM22.2949 17.0517C22.2043 16.5795 22.0231 16.1414 21.768 15.7569L23.5036 13.9851C24.1782 14.8467 24.624 15.9005 24.7504 17.0517H22.2949ZM21.768 19.6851C22.0231 19.3005 22.2043 18.8624 22.2949 18.3903H24.7504C24.624 19.5415 24.1782 20.5953 23.5036 21.4569L21.768 19.6851ZM19.5724 21.1697C20.0349 21.0772 20.464 20.8922 20.8407 20.6318L22.5762 22.4036C21.7323 23.0924 20.7 23.5475 19.5724 23.6765V21.1697ZM16.788 17.721C16.788 16.5211 17.7439 15.5452 18.9168 15.5452C20.0921 15.5452 21.0481 16.5211 21.0481 17.721C21.0481 18.9208 20.0921 19.8944 18.9168 19.8944C17.7415 19.8944 16.788 18.9184 16.788 17.721ZM26.0997 17.721C26.0997 13.6784 22.879 10.3904 18.9192 10.3904C14.9595 10.3904 11.7388 13.6784 11.7388 17.721C11.7388 21.7635 14.9595 25.0516 18.9192 25.0516C22.879 25.0516 26.0997 21.7635 26.0997 17.721Z" fill="#D8A04D"/>
</svg>
