<svg viewBox="0 0 135 136" style="fill:#d6a354;" xmlns="http://www.w3.org/2000/svg">
<g clip-path="url(#clip0)">
<path d="M70.2755 72.49C70.0675 72.5001 69.8638 72.5465 69.6726 72.6296C67.6148 72.932 65.657 71.647 65.1155 69.6396C64.8576 68.6771 63.8681 68.1058 62.9056 68.3637C61.9432 68.6216 61.3719 69.6111 61.6298 70.5735C62.5335 73.9259 65.5639 76.2625 69.0355 76.2836L69.5025 78.0265C69.7604 78.9889 70.7499 79.5602 71.7123 79.3023C72.6748 79.0444 73.2461 78.0549 72.9882 77.0925L72.5495 75.4552C76.0726 73.6738 77.6779 69.5178 76.2693 65.83C74.8599 62.1425 70.8921 60.1164 67.0785 61.1373C64.8932 61.7229 62.6467 60.4258 62.0611 58.2405C61.4755 56.0551 62.7726 53.8086 64.9579 53.2231C67.1433 52.6375 69.3898 53.9345 69.9753 56.1199C70.2332 57.0823 71.2227 57.6536 72.1852 57.3957C73.1476 57.1378 73.7189 56.1484 73.461 55.1859C72.5124 51.6658 69.2315 49.2897 65.5911 49.4862L65.1661 47.8999C64.9082 46.9375 63.9187 46.3662 62.9562 46.6241C61.9938 46.882 61.4225 47.8714 61.6804 48.8339L62.1339 50.5266C58.8008 52.4722 57.4216 56.5841 58.907 60.1464C60.3923 63.7087 64.2843 65.6219 68.0123 64.6221C70.1687 64.0443 72.3904 65.2997 73.0071 67.4447C73.6247 69.5896 72.4093 71.8343 70.2755 72.49Z" fill="#d6a354;"/>
<path d="M42.3085 69.7857C46.0485 83.7437 60.3952 92.0267 74.3532 88.2867C88.3112 84.5466 96.5942 70.2 92.8542 56.242C89.1141 42.284 74.7675 34.0009 60.8095 37.741C46.8624 41.4945 38.5865 55.8301 42.3085 69.7857ZM61.7435 41.2267C73.7765 38.0024 86.1442 45.1429 89.3685 57.176C92.5927 69.209 85.4523 81.5768 73.4192 84.801C61.3861 88.0252 49.0184 80.8847 45.7942 68.8517C42.5851 56.8209 49.72 44.4629 61.7435 41.2267Z" fill="#d6a354;"/>
<path d="M109.369 83.5093L97.4448 93.618C94.6204 90.617 90.4067 89.3545 86.3973 90.3084L73.7013 93.3391C71.6904 93.8168 69.5968 93.836 67.5769 93.3949L66.1164 93.0739C58.633 91.4106 50.8087 93.5163 45.17 98.7102L44.4715 95.7835C44.24 94.8139 43.267 94.2155 42.2974 94.447L28.3754 97.7697C27.4058 98.0012 26.8082 98.974 27.0397 99.9435L34.3312 130.495C34.5627 131.465 35.5357 132.063 36.5053 131.831L50.4273 128.509L50.475 128.496C51.4196 128.243 51.991 127.284 51.7636 126.334L51.4148 124.872L54.4901 121.988C55.6962 120.852 57.2953 120.23 58.9515 120.253L82.0038 120.526C82.0443 120.527 82.084 120.525 82.1246 120.524C83.7611 120.433 85.3841 120.172 86.9667 119.747C90.3201 118.85 93.4403 117.24 96.1128 115.024C96.1786 114.97 96.2402 114.911 96.297 114.847L121.995 86.4104C122.635 85.7017 122.613 84.6177 121.944 83.9359C118.539 80.4593 113.002 80.271 109.369 83.5093ZM37.4227 127.903L30.9686 100.861L41.38 98.3758L47.8344 125.418L37.4227 127.903ZM93.7086 112.332C90.3804 115.055 86.2781 116.66 81.9859 116.919L58.9956 116.646C56.4068 116.611 53.9063 117.583 52.0219 119.356L50.4506 120.831L46.1592 102.851C50.9371 97.4267 58.287 95.0313 65.3433 96.5984L66.8038 96.9193C69.3555 97.4761 71.9986 97.4519 74.5397 96.8495L87.2366 93.8186C90.8041 92.9721 94.4861 94.6872 96.1337 97.9634L77.2211 102.476C76.2516 102.707 75.6542 103.681 75.8846 104.65C76.1161 105.619 77.09 106.217 78.0587 105.986L98.9298 101.005L98.9783 100.992C99.9218 100.738 100.492 99.7799 100.265 98.8301C100.084 98.067 99.8242 97.3238 99.4908 96.6142L111.721 86.2456C111.733 86.236 111.745 86.2255 111.757 86.215C113.474 84.6778 115.965 84.3705 118.004 85.4449L93.7086 112.332Z" fill="#d6a354;"/>
<path d="M61.2394 32.374L56.8029 15.817C56.545 14.8546 55.5556 14.2833 54.5931 14.5412C53.6306 14.7991 53.0594 15.7885 53.3173 16.751L57.7537 33.308C58.0116 34.2704 59.001 34.8417 59.9635 34.5838C60.926 34.3259 61.4972 33.3365 61.2394 32.374Z" fill="#d6a354;"/>
<path d="M74.3106 28.8715L72.2092 21.0287C71.9513 20.0662 70.9618 19.495 69.9994 19.7529C69.0369 20.0108 68.4656 21.0002 68.7235 21.9627L70.825 29.8055C71.0829 30.7679 72.0723 31.3392 73.0348 31.0813C73.9973 30.8234 74.5685 29.8339 74.3106 28.8715Z" fill="#d6a354;"/>
<path d="M48.1681 35.8764L46.0667 28.0336C45.8088 27.0711 44.8193 26.4998 43.8568 26.7577C42.8944 27.0156 42.3231 28.0051 42.581 28.9676L44.6825 36.8103C44.9403 37.7728 45.9298 38.3441 46.8923 38.0862C47.8548 37.8283 48.426 36.8388 48.1681 35.8764Z" fill="#d6a354;"/>
</g>
<defs>
<clipPath id="clip0">
<rect x="0.224751" y="29.1091" width="110" height="110" transform="rotate(-15 0.224751 29.1091)" fill="white"/>
</clipPath>
</defs>
</svg>
