<?xml version="1.0" encoding="utf-8"?>
<!-- Generator: Adobe Illustrator 21.0.0, SVG Export Plug-In . SVG Version: 6.00 Build 0)  -->
<svg version="1.1" id="Layer_1" xmlns="http://www.w3.org/2000/svg" xmlns:xlink="http://www.w3.org/1999/xlink" x="0px" y="0px"
	 viewBox="0 0 512 512" style="enable-background:new 0 0 512 512;" xml:space="preserve">
<style type="text/css">
	.st0{fill:#D6A354;}
</style>
<g>
	<g>
		<path class="st0" d="M392.9,1.8c-6.9-3.7-15.2-1.7-19.6,4.7L224.7,207.7L75.2,7.3C70.6,1,62.4-1,55.5,2.7c-7,3.7-9.9,11.8-7,19.1
			c0.1,0.2,0.2,0.5,0.3,0.7L92.5,108c2.1,4.1,7.2,5.8,11.4,3.7c4.1-2.1,5.8-7.2,3.7-11.4L72.8,32.4l242.8,325.2
			c1.7,2.2,4.2,3.4,6.8,3.4c1.8,0,3.5-0.5,5-1.7c3.7-2.8,4.5-8.1,1.7-11.8L273,272.4L399.6,21.6c0.1-0.2,0.2-0.5,0.3-0.7
			C402.8,13.5,399.8,5.5,392.9,1.8z M261.8,257.3l-26.5-35.5L375.6,31.7L261.8,257.3z"/>
	</g>
</g>
<g>
	<g>
		<path class="st0" d="M393.6,412.9c-5.6-8.1-14-13.5-23.6-15.2c-9.7-1.7-19.4,0.4-27.5,6c-16.6,11.5-20.8,34.5-9.2,51.1
			c7.1,10.3,18.6,15.8,30.2,15.8c7.2,0,14.5-2.1,20.9-6.5C401,452.5,405.2,429.6,393.6,412.9z M374.8,450.2c-9,6.2-21.4,4-27.6-5
			c-6.2-9-4-21.4,5-27.6c3.4-2.3,7.3-3.5,11.3-3.5c1.2,0,2.4,0.1,3.6,0.3c5.2,0.9,9.8,3.9,12.8,8.2
			C386,431.5,383.8,443.9,374.8,450.2z"/>
	</g>
</g>
<g>
	<g>
		<path class="st0" d="M123.4,427.9c-1.8-9.6-7.2-18-15.3-23.6c-8.1-5.5-17.9-7.6-27.5-5.8c-9.6,1.8-18,7.2-23.6,15.3
			c-11.5,16.7-7.2,39.6,9.5,51.1c6.2,4.2,13.4,6.5,20.7,6.5c2.3,0,4.5-0.2,6.8-0.6c9.6-1.8,18-7.2,23.6-15.3
			C123.1,447.3,125.2,437.5,123.4,427.9z M103.7,445.8c-3,4.4-7.5,7.3-12.7,8.3S80.4,454,76.1,451c-9-6.2-11.3-18.6-5.1-27.6
			c3.8-5.6,10.1-8.6,16.4-8.6c3.9,0,7.8,1.1,11.2,3.5c4.4,3,7.3,7.5,8.3,12.7C107.8,436.2,106.7,441.4,103.7,445.8z"/>
	</g>
</g>
<g>
	<g>
		<path class="st0" d="M486.3,472.9c-4.4-5.7-11-9.3-18.3-9.6c-11.2-0.6-26.8-2.1-42.1-6.4c1.3-3.6,2.4-7.4,3.1-11.3
			c3.2-17.5-0.7-35.2-10.8-49.8c-17.5-25.3-49.9-35.2-78.6-24.1c-4.3,1.7-6.5,6.6-4.8,10.9c1.7,4.3,6.6,6.5,10.9,4.8
			c21.5-8.3,45.6-0.9,58.7,18c7.6,10.9,10.4,24.1,8.1,37.2c-0.9,5.2-2.7,10.1-5.1,14.7c-0.3,0.5-0.6,0.9-0.8,1.5
			c-3.6,6.2-8.6,11.6-14.7,15.9c-10.9,7.6-24.1,10.4-37.2,8.1s-24.4-9.7-32-20.6c-12.8-18.5-11.6-43.3,3-60.5
			c2.7-3.2,2.7-7.9-0.1-11l-91.9-104.6c-1.7-1.9-4.2-3-6.8-2.9l-2.5,0.1c-1.3-0.2-2.6-0.2-3.9,0.2l-18.4,1L123,130.5
			c-2.1-4.1-7.2-5.8-11.4-3.7c-4.1,2.1-5.8,7.2-3.7,11.4l68.8,134.5l-72.1,97.6c-27.1-7.4-56.1,3-72.3,26.6
			c-20.8,30.3-13,71.8,17.2,92.6c11.5,7.9,24.6,11.7,37.6,11.7c21.2,0,42.1-10.1,55-28.9c15.6-22.8,15.4-52.7,0.1-75.2l82.7-95.2
			l83.3,94.7c-15.2,22.5-15.3,52.5,0.5,75.2c10.1,14.6,25.4,24.4,42.9,27.6c4,0.7,8,1.1,12,1.1c11,0,21.8-2.7,31.6-8
			c8.8,7.7,29.2,19.5,71.8,19.6c0,0,0,0,0,0c11.3,0,21.3-8,23.8-19.1C492.3,485.9,490.7,478.6,486.3,472.9z M125.1,391.2
			c-2.7,3.2-2.8,7.9,0,11c14.7,17.1,16,41.9,3.3,60.5c-15.5,22.6-46.5,28.4-69.2,12.9c-22.6-15.5-28.4-46.5-12.9-69.1
			c13-18.9,37.1-26.5,58.6-18.3c3.5,1.3,7.5,0.2,9.8-2.9l70.7-95.8l4,7.7c1.5,3,4.7,4.8,8,4.6l5.7-0.3L125.1,391.2z M474.2,489.3
			c-0.8,3.4-3.8,5.9-7.3,5.9c0,0,0,0,0,0c-32.8,0-49.7-7.7-57.5-13.1c3.2-3,6-6.3,8.5-9.9c17.9,5.4,36.4,7.3,49.3,8
			c2.3,0.1,4.3,1.2,5.7,3C473.7,484.2,474.9,486.3,474.2,489.3z"/>
	</g>
</g>
</svg>
