<?xml version="1.0" encoding="utf-8"?>
<!-- Generator: Adobe Illustrator 21.0.0, SVG Export Plug-In . SVG Version: 6.00 Build 0)  -->
<svg version="1.1" id="Layer_1" xmlns="http://www.w3.org/2000/svg" xmlns:xlink="http://www.w3.org/1999/xlink" x="0px" y="0px"
	 viewBox="0 0 14 17" style="enable-background:new 0 0 14 17;" xml:space="preserve">
<style type="text/css">
	.st0{fill:#FFFFFF;}
</style>
<path class="st0" d="M12,11c-0.3,0-0.5-0.1-0.7-0.3L7.8,7.2L7,6.4l-1,1L4,9.5l-1.3,1.3c-0.4,0.4-1,0.4-1.4,0s-0.4-1,0-1.4L4.7,6
	l1.5-1.5l0.1-0.1c0.4-0.4,1-0.4,1.4,0L8.3,5l4.4,4.4c0.4,0.4,0.4,1,0,1.4C12.5,10.9,12.3,11,12,11z M7,17c-0.6,0-1-0.4-1-1V5
	c0-0.6,0.4-1,1-1s1,0.4,1,1v11C8,16.6,7.6,17,7,17z M13,2H1C0.4,2,0,1.6,0,1s0.4-1,1-1h12c0.6,0,1,0.4,1,1S13.6,2,13,2z"/>
</svg>
