<svg height="496pt" viewBox="0 0 496 496" width="496pt" xmlns="http://www.w3.org/2000/svg"><path d="m455.863281 379.449219c-1.429687-40.96875-21.984375-79.105469-55.703125-102.707031l-37.097656-25.957032-10.046875 40.167969c-4.734375 18.925781-19.28125 34.175781-37.976563 39.78125-10.304687 3.089844-19.421874 8.3125-27.039062 15.058594v-161.792969c0-22.054688-17.945312-40-40-40v-24c0-13.230469-10.769531-24-24-24h-8v-72c0-13.230469-10.769531-24-24-24h-96c-13.230469 0-24 10.769531-24 24v72h-8c-13.230469 0-24 10.769531-24 24v24c-22.054688 0-40 17.945312-40 40v272c0 22.054688 17.945312 40 40 40h208c4.679688 0 9.273438-.886719 13.617188-2.464844 4.519531 1.570313 9.34375 2.464844 14.382812 2.464844h160c33.089844 0 60-26.910156 60-60 0-26.121094-16.800781-48.328125-40.136719-56.550781zm-205.078125 36.550781h-234.785156v-192h256v142.246094c-5.144531 9.953125-8 21.21875-8 33.089844v10.367187c-4.785156 1.359375-9.238281 3.503906-13.214844 6.296875zm-162.785156-392c0-4.414062 3.585938-8 8-8h96c4.414062 0 8 3.585938 8 8v72h-16v-48c0-8.824219-7.175781-16-16-16h-48c-8.824219 0-16 7.175781-16 16v48h-16zm80 72h-48v-48h48zm-112 24c0-4.414062 3.585938-8 8-8h160c4.414062 0 8 3.585938 8 8v24h-176zm-16 40h208c13.230469 0 24 10.769531 24 24v24h-256v-24c0-13.230469 10.769531-24 24-24zm-24 296v-24h220.855469c-3.078125 6.007812-4.855469 12.792969-4.855469 20 0 10.625 3.792969 20.382812 10.089844 28h-202.089844c-13.230469 0-24-10.769531-24-24zm420 24h-160c-15.441406 0-28-12.558594-28-28s12.558594-28 28-28h68v-16h-64v-8.664062c0-24.761719 15.929688-46.167969 39.632812-53.273438 24.070313-7.214844 42.816407-26.847656 48.894532-51.230469l4.410156-17.609375 18.046875 12.632813c28.535156 19.976562 46.175781 51.839843 48.535156 86.328125-1.167969-.070313-2.328125-.183594-3.519531-.183594h-60v16h60c24.257812 0 44 19.742188 44 44s-19.742188 44-44 44zm0 0"/><path d="m408 408h16v16h-16zm0 0"/><path d="m296 399.335938h16c0-10.023438 8.207031-20.640626 18.304688-23.671876l-4.609376-15.328124c-16.925781 5.089843-29.695312 21.847656-29.695312 39zm0 0"/><path d="m441.566406 408.550781c-1.832031-.367187-3.710937-.550781-5.566406-.550781v16c.832031 0 1.648438.089844 2.414062.238281 5.554688 1.128907 9.585938 6.074219 9.585938 11.761719 0 6.617188-5.382812 12-12 12h-92v16h92c15.441406 0 28-12.558594 28-28 0-13.265625-9.425781-24.816406-22.433594-27.449219zm0 0"/><path d="m136 64h16v16h-16zm0 0"/><path d="m144 240c-44.113281 0-80 35.886719-80 80s35.886719 80 80 80 80-35.886719 80-80-35.886719-80-80-80zm0 144c-35.289062 0-64-28.710938-64-64s28.710938-64 64-64 64 28.710938 64 64-28.710938 64-64 64zm0 0"/><path d="m104 312h80v16h-80zm0 0"/><path d="m112 344h64v16h-64zm0 0"/></svg>