<svg height="496pt" viewBox="0 0 496 496" width="496pt" xmlns="http://www.w3.org/2000/svg"><path d="M455.863 379.45c-1.43-40.97-21.984-79.106-55.703-102.708l-37.098-25.957-10.046 40.168c-4.735 18.926-19.282 34.176-37.977 39.781A71.755 71.755 0 0 0 288 345.793V184c0-22.055-17.945-40-40-40v-24c0-13.23-10.77-24-24-24h-8V24c0-13.23-10.77-24-24-24H96C82.77 0 72 10.77 72 24v72h-8c-13.23 0-24 10.77-24 24v24c-22.055 0-40 17.945-40 40v272c0 22.055 17.945 40 40 40h208c4.68 0 9.273-.887 13.617-2.465 4.52 1.57 9.344 2.465 14.383 2.465h160c33.09 0 60-26.91 60-60 0-26.121-16.8-48.328-40.137-56.55zM250.785 416H16V224h256v142.246c-5.145 9.953-8 21.219-8 33.09v10.367A43.807 43.807 0 0 0 250.785 416zM88 24c0-4.414 3.586-8 8-8h96c4.414 0 8 3.586 8 8v72h-16V48c0-8.824-7.176-16-16-16h-48c-8.824 0-16 7.176-16 16v48H88zm80 72h-48V48h48zM56 120c0-4.414 3.586-8 8-8h160c4.414 0 8 3.586 8 8v24H56zm-16 40h208c13.23 0 24 10.77 24 24v24H16v-24c0-13.23 10.77-24 24-24zM16 456v-24h220.855c-3.078 6.008-4.855 12.793-4.855 20 0 10.625 3.793 20.383 10.09 28H40c-13.23 0-24-10.77-24-24zm420 24H276c-15.441 0-28-12.559-28-28s12.559-28 28-28h68v-16h-64v-8.664c0-24.762 15.93-46.168 39.633-53.274 24.07-7.214 42.816-26.847 48.894-51.23l4.41-17.61 18.047 12.633c28.536 19.977 46.176 51.84 48.536 86.329-1.168-.07-2.329-.184-3.52-.184h-60v16h60c24.258 0 44 19.742 44 44s-19.742 44-44 44zm0 0"/><path d="M408 408h16v16h-16zm0 0M296 399.336h16c0-10.024 8.207-20.64 18.305-23.672l-4.61-15.328c-16.925 5.09-29.695 21.848-29.695 39zm0 0"/><path d="M441.566 408.55A28.432 28.432 0 0 0 436 408v16c.832 0 1.648.09 2.414.238C443.97 425.368 448 430.312 448 436c0 6.617-5.383 12-12 12h-92v16h92c15.441 0 28-12.559 28-28 0-13.266-9.426-24.816-22.434-27.45zm0 0M136 64h16v16h-16zm0 0M144 240c-44.113 0-80 35.887-80 80s35.887 80 80 80 80-35.887 80-80-35.887-80-80-80zm0 144c-35.29 0-64-28.71-64-64s28.71-64 64-64 64 28.71 64 64-28.71 64-64 64zm0 0"/><path d="M104 312h80v16h-80zm0 0M112 344h64v16h-64zm0 0"/></svg>