<?xml version="1.0" encoding="utf-8"?>
<!-- Generator: Adobe Illustrator 21.0.0, SVG Export Plug-In . SVG Version: 6.00 Build 0)  -->
<svg version="1.1" id="Layer_1" xmlns="http://www.w3.org/2000/svg" xmlns:xlink="http://www.w3.org/1999/xlink" x="0px" y="0px"
	 viewBox="0 0 373.1 565.6" style="enable-background:new 0 0 373.1 565.6;" xml:space="preserve">
<style type="text/css">
	.st0{fill:#D6A354;}
</style>
<g>
	<g>
		<path class="st0" d="M141.6,554.5c10.4-2.8,19-9.5,24.2-18.9c5.3-9.5,6.5-20.5,3.3-31c-15.2-50.1-25.2-103.3-29.9-158
			c-0.4-4.6-4.5-8.1-9.1-7.7c-4.6,0.4-8.1,4.5-7.7,9.1c4.7,55.9,15,110.3,30.5,161.5c1.8,6.1,1.2,12.4-1.9,17.9
			c-3,5.4-7.9,9.2-13.8,10.8c-11.2,3-22.7-2.9-26.9-13.6c-11.6-30.2-31.6-93.4-35.1-177.8c-3.5-84.5,10-169.5,40.1-253.3
			c0.1-0.3,0.3-0.5,0.4-0.8c4.9-13.6,10.4-27.6,16.3-41.4c0.1-0.3,0.3-0.6,0.3-1c0.9-2.1,1.8-4.2,2.7-6.4c1-2.4,3-3.3,4.1-3.7
			c1.9-0.6,4-0.4,5.7,0.6c2.7,1.6,4,4.8,3.2,7.7c-10.3,37.3-33.5,137.7-27.9,265.2c0.2,4.7,4.1,8.3,8.8,8.1c4.7-0.2,8.3-4.1,8.1-8.8
			c-2.5-56,0.7-106.7,5.9-148.9l21.1,34.9c-15.8,15-18.2,42.3-4.5,64.9L266.8,441c14.5,24,43,33.5,63.4,21.1l32.9-19.9
			c4-2.4,5.3-7.6,2.8-11.6l-24.5-40.4c-2.4-4-7.6-5.3-11.6-2.8c-4,2.4-5.3,7.6-2.8,11.6l20.1,33.2l-25.6,15.5
			c-12.4,7.5-30.5,0.6-40.2-15.5L174,255.3c-10.6-17.6-8.2-38.6,5.5-46.9c4-2.4,5.3-7.6,2.8-11.6l-35.7-59
			c1.5-9.6,3.1-19.2,4.8-28.5L309.4,370c2.4,4,7.6,5.3,11.6,2.8c4-2.4,5.3-7.6,2.8-11.6L156.4,84.9c2.9-13.2,5.7-24,7.8-31.8
			c2.8-10.3-1.6-21.3-10.9-26.8c-5.9-3.5-13-4.2-19.5-2.1c-1.8,0.6-3.4,1.3-5,2.3c-2,1.2-3.7,2.7-5.3,4.4l-5.1-8.4
			C111.1,10,94.9,6,82.4,13.5S66,37.3,73.6,49.7l24.8,41c-74.4,210.3-28.6,375.5-3.8,440C101.8,549.5,122,559.8,141.6,554.5z M88,41
			c-2.7-4.5-1.3-10.3,3.2-13c4.5-2.7,10.3-1.3,13,3.2l10.5,17.4c-3.1,7.3-6,14.6-8.8,21.9L88,41z"/>
	</g>
</g>
</svg>
