<?xml version="1.0" encoding="utf-8"?>
<!-- Generator: Adobe Illustrator 21.0.0, SVG Export Plug-In . SVG Version: 6.00 Build 0)  -->
<svg version="1.1" id="Layer_1" xmlns="http://www.w3.org/2000/svg" xmlns:xlink="http://www.w3.org/1999/xlink" x="0px" y="0px"
	 viewBox="0 0 1506.2 1429.5" style="enable-background:new 0 0 1506.2 1429.5;" xml:space="preserve">
<style type="text/css">
	.st0{fill:#D6A354;}
</style>
<g id="Layer_x0020_1">
	<path class="st0" d="M548.1,1255.6l215.4-105.2L795,1215c5.8,11.9,20.2,16.9,32.1,11.1l86.2-42.1c11.9-5.8,16.8-20.1,11-32.1
		L624.8,538.6l45-21.9c38.9,53.6,112,73.3,173.6,43.3l336.1-164.1c61.5-30.1,90.9-99.8,72.5-163.5l86.6-42.3
		c25.3-12.4,37.1-41.3,28.7-67.4l91-44.4c11.9-5.8,16.8-20.1,11-32.1c-5.8-11.9-20.2-16.8-32.1-11l-91,44.4
		c-15.3-22.6-45.4-31.2-70.7-18.8l-86.6,42.3c-38.9-53.7-112-73.4-173.6-43.3L969,82.4l21.1,43.1l46.3-22.6
		c45.1-22,99.8-3.2,121.8,41.9l42,86.2c22.1,45.1,3.3,99.8-41.8,121.8L822.3,516.9c-45.1,22.1-99.8,3.2-121.8-41.9l-42.1-86.1
		c-22-45.1-3.2-99.8,41.9-121.8l206.7-100.9L885.9,123L679.2,223.9c-61.5,30.1-91,99.9-72.5,163.5l-45,22l-40-81.9
		c-5.8-11.9-20.2-16.9-32.1-11.1L468.1,327l-21-43.1l21.5-10.5c11.9-5.8,16.9-20.2,11.1-32.1l-24.2-49.5
		c-17.4-35.6-60.5-50.5-96.2-33.1c-35.6,17.4-50.5,60.5-33,96.2l24.2,49.5c5.8,11.9,20.1,16.8,32.1,11.1L404,305l21,43.1l-21.6,10.5
		c-11.9,5.8-16.8,20.2-11,32.1l61,124.9L130.3,673.4c-11.9,5.8-16.8,20.1-11,32.1l202.3,414.3l43.1-21L172.9,706l43.1-21.1
		l310,634.8l-43.1,21.1L411.3,1194l-43.1,21.1l82.2,168.3c5.8,11.9,20.2,16.9,32.1,11.1l86.2-42.1c11.9-5.8,16.8-20.2,11-32.1
		L548.1,1255.6z M380.3,201.8c11.9-5.8,26.3-0.9,32.1,11l13.7,28L383,261.9l-13.7-28C363.5,222,368.4,207.6,380.3,201.8L380.3,201.8
		z M870.7,1151.4l-43.1,21L446.1,391.2l43.1-21.1L870.7,1151.4L870.7,1151.4z M1321.3,136.3c1.9,3.9,0.2,8.8-3.7,10.7l-84.7,41.4
		l-21-43.1l84.7-41.4c3.8-1.9,8.7-0.2,10.7,3.7L1321.3,136.3L1321.3,136.3z M646.9,474.5l-43.1,21.1l-21.1-43.1l43.1-21.1
		L646.9,474.5L646.9,474.5z M619,854.5L403.6,959.7L301.2,750.1l215.4-105.2l60.3,123.5L426.2,842c-11.9,5.8-16.9,20.2-11.1,32.1
		c5.8,11.9,20.2,16.8,32.1,11L598,811.4L619,854.5z M474.5,558.7l21,43.1L280.1,706.9l-21.1-43.1L474.5,558.7z M527,1212.5
		l-102.4-209.7L640,897.6l60.3,123.5l-150.8,73.6c-11.9,5.8-16.8,20.2-11,32.1c5.8,11.9,20.2,16.9,32.1,11l150.8-73.6l21,43.1
		L527,1212.5z"/>
</g>
</svg>
