<?xml version="1.0" encoding="utf-8"?>
<!-- Generator: Adobe Illustrator 21.0.0, SVG Export Plug-In . SVG Version: 6.00 Build 0)  -->
<svg version="1.1" id="Layer_1" xmlns="http://www.w3.org/2000/svg" xmlns:xlink="http://www.w3.org/1999/xlink" x="0px" y="0px"
	 viewBox="0 0 430.1 474.2" style="enable-background:new 0 0 430.1 474.2;" xml:space="preserve">
<style type="text/css">
	.st0{opacity:0.1;enable-background:new    ;}
</style>
<path class="st0" d="M201.8,426.4l60.5-44.3l13.3,18.2c2.4,3.3,7.1,4.1,10.5,1.6l24.2-17.7c3.3-2.4,4.1-7.1,1.6-10.5L185.8,201.4
	l12.6-9.3c15.2,14.6,38.8,16.2,55.8,3.7l94.4-69.1c17-12.5,22.7-35.4,13.3-54.4l24.3-17.8c7-5.2,9.2-14.7,5.1-22.3L417,13.6
	c3.3-2.4,4.1-7.1,1.6-10.5s-7.1-4.1-10.5-1.6l0,0l-25.6,18.7c-6.1-6.2-15.8-7-22.8-1.9l-24.3,17.8c-15.2-14.6-38.8-16.2-55.8-3.7
	l-94.4,69.1c-17,12.5-22.6,35.4-13.3,54.3l-12.6,9.3l-16.8-23c-2.4-3.3-7.1-4.1-10.5-1.6l-6.1,4.4l-8.9-12.1l6.1-4.4
	c3.3-2.5,4.1-7.1,1.6-10.5L114.5,104c-7.2-10.1-21.3-12.5-31.4-5.2s-12.5,21.3-5.2,31.4c0.1,0.1,0.2,0.3,0.3,0.4l10.2,13.9
	c2.4,3.3,7.1,4.1,10.5,1.6l6-4.4l8.9,12.1l-6.1,4.4c-3.4,2.4-4.1,7.1-1.7,10.5c0,0,0,0,0,0l25.7,35.1L41,270.3
	c-3.3,2.5-4.1,7.1-1.6,10.5l139.4,190.4c2.4,3.3,7.1,4.1,10.5,1.6l24.2-17.7c3.3-2.4,4.1-7.1,1.6-10.5c0,0,0,0,0,0L201.8,426.4z
	 M102.3,112.9l5.8,7.9L96,129.6l-5.8-7.9c-2.5-3.3-1.9-8,1.4-10.5c3.3-2.5,8-1.9,10.5,1.4C102.2,112.7,102.3,112.8,102.3,112.9z
	 M295.3,376.5l-12.1,8.9L122.6,165.9l12.1-8.9L295.3,376.5L295.3,376.5z M245.3,183.8c-12.7,9.3-30.5,6.5-39.8-6.2l-17.7-24.2
	c-9.3-12.7-6.5-30.5,6.2-39.8l94.4-69.1c12.7-9.3,30.5-6.5,39.8,6.2l17.7,24.2c9.3,12.7,6.5,30.5-6.2,39.8L245.3,183.8z M377.3,42.5
	l-23.7,17.4l-8.9-12.1l23.8-17.4c1.1-0.8,2.7-0.6,3.5,0.5L378,39C378.8,40.1,378.5,41.7,377.3,42.5L377.3,42.5z M176.9,189.3
	l-8.9-12.1l12.1-8.9l8.9,12.1L176.9,189.3z M68,269.1l130.6,178.3l-12.1,8.9L55.9,277.9L68,269.1z M192.6,286.9l8.9,12.1L141,343.3
	l-43.1-58.9l60.5-44.3l25.4,34.7l-42.4,31c-3.3,2.4-4.1,7.1-1.6,10.5s7.1,4.1,10.5,1.6L192.6,286.9L192.6,286.9z M140.6,215.9
	l8.9,12.1L89,272.3l-8.9-12.1L140.6,215.9z M192.9,414.3l-43.1-58.9l60.5-44.3l25.4,34.7l-42.4,31c-3.4,2.4-4.2,7.1-1.8,10.4
	c2.4,3.4,7.1,4.2,10.4,1.8c0.1-0.1,0.2-0.1,0.2-0.2l42.4-31l8.9,12.1L192.9,414.3z"/>
</svg>
