<?xml version="1.0" encoding="utf-8"?>
<!-- Generator: Adobe Illustrator 21.0.0, SVG Export Plug-In . SVG Version: 6.00 Build 0)  -->
<svg version="1.1" id="Layer_1" xmlns="http://www.w3.org/2000/svg" xmlns:xlink="http://www.w3.org/1999/xlink" x="0px" y="0px"
	 viewBox="0 0 80.1 80.1" style="enable-background:new 0 0 80.1 80.1;" xml:space="preserve">
<style type="text/css">
	.st0{fill:#D7AC4D;}
	.st1{fill:#1F1B20;}
	.st2{fill:#FFFFFF;}
	.st3{fill:#AB7D24;}
	.st4{fill:url(#SVGID_1_);}
	.st5{fill:#F7CF67;}
</style>
<g id="Слой_x0020_1">
	<g id="_2986421211664">
		<path class="st0" d="M80.1,40c0,22.1-17.9,40-40,40c-22.1,0-40-17.9-40-40C0,17.9,17.9,0,40,0C62.2,0,80.1,17.9,80.1,40L80.1,40z"
			/>
		<path class="st1" d="M78.8,40c0,21.4-17.4,38.8-38.8,38.8C18.6,78.8,1.3,61.5,1.3,40C1.3,18.6,18.6,1.3,40,1.3
			C61.5,1.3,78.8,18.6,78.8,40z"/>
		<path class="st0" d="M69.9,40c0,16.5-13.4,29.9-29.9,29.9c-16.5,0-29.9-13.4-29.9-29.9c0-16.5,13.4-29.9,29.9-29.9
			C56.6,10.2,69.9,23.5,69.9,40z"/>
		<path class="st1" d="M69.5,40c0,16.3-13.2,29.5-29.5,29.5c-16.3,0-29.5-13.2-29.5-29.5c0-16.3,13.2-29.5,29.5-29.5
			C56.3,10.6,69.5,23.8,69.5,40z"/>
		<path class="st2" d="M68.9,40C68.9,56,56,68.9,40,68.9C24.1,68.9,11.2,56,11.2,40c0-15.9,12.9-28.8,28.8-28.8
			C56,11.2,68.9,24.1,68.9,40z"/>
		<g>
			<polygon class="st2" points="14.1,18 13.9,19.7 15.2,20.9 13.4,21.2 12.7,22.8 11.9,21.2 10.1,21 11.4,19.8 11,18 12.6,18.9 			
				"/>
			<polygon class="st2" points="20.7,67.1 20.7,68.8 19.3,69.7 20.9,70.2 21.3,71.8 22.3,70.4 24,70.5 23,69.2 23.6,67.6 22,68.1 
							"/>
			<g>
				<path class="st2" d="M9.2,31.1c-0.7,0.5-1.5,0.7-2.2,0.4c0.2-0.9,0.7-1.8,1.4-2.3c0.7-0.5,1.5-0.7,2.2-0.4
					C10.5,29.7,10,30.6,9.2,31.1L9.2,31.1z"/>
				<path class="st2" d="M6.9,28.8c0.3,0.9,0.3,1.9,0.1,2.8c-0.7-0.1-1.4-0.7-1.7-1.5c-0.3-0.9-0.3-1.9-0.1-2.8
					C6,27.4,6.6,27.9,6.9,28.8L6.9,28.8z"/>
				<path class="st2" d="M8.2,36.4c-0.7,0.7-1.5,1-2.2,0.9c0.1-0.9,0.5-1.9,1.1-2.6c0.7-0.7,1.5-1,2.2-0.9
					C9.3,34.8,8.9,35.7,8.2,36.4z"/>
				<path class="st2" d="M5.6,34.6c0.5,0.7,0.6,1.7,0.4,2.7c-0.7,0-1.5-0.4-1.9-1.1c-0.5-0.7-0.6-1.7-0.4-2.7
					C4.4,33.5,5.1,33.9,5.6,34.6z"/>
				<path class="st2" d="M8,41.6c-0.6,0.8-1.3,1.3-2.1,1.3c0-0.9,0.2-1.9,0.8-2.7c0.6-0.8,1.3-1.3,2.1-1.3C8.8,39.8,8.5,40.8,8,41.6
					L8,41.6z"/>
				<path class="st2" d="M5.1,40.4c0.6,0.6,0.9,1.5,0.8,2.5c-0.7,0.2-1.5,0-2.1-0.6c-0.6-0.6-0.9-1.5-0.8-2.5
					C3.7,39.6,4.5,39.8,5.1,40.4L5.1,40.4z"/>
				<path class="st2" d="M8.4,46.6c-0.5,0.9-1.2,1.5-1.9,1.7c-0.2-0.9-0.1-1.9,0.4-2.8c0.5-0.9,1.2-1.5,1.9-1.7
					C9,44.7,8.9,45.7,8.4,46.6z"/>
				<path class="st2" d="M5.3,46.1c0.7,0.5,1.1,1.3,1.2,2.2c-0.7,0.3-1.5,0.3-2.2-0.2c-0.7-0.5-1.1-1.3-1.2-2.2
					C3.9,45.6,4.7,45.7,5.3,46.1z"/>
				<path class="st2" d="M9.6,51.3c-0.3,1-1,1.7-1.7,2.1c-0.3-0.8-0.3-1.8,0-2.8c0.3-1,1-1.7,1.7-2.1C9.9,49.3,10,50.3,9.6,51.3z"/>
				<path class="st2" d="M6.5,51.6c0.7,0.3,1.3,1,1.5,1.9c-0.7,0.5-1.5,0.6-2.2,0.3c-0.7-0.3-1.3-1-1.5-1.9
					C4.9,51.4,5.7,51.2,6.5,51.6L6.5,51.6z"/>
				<path class="st2" d="M11.5,55.6c-0.2,1-0.7,1.9-1.4,2.4c-0.4-0.7-0.6-1.7-0.4-2.7c0.2-1,0.7-1.9,1.4-2.4
					C11.5,53.6,11.7,54.6,11.5,55.6z"/>
				<path class="st2" d="M8.3,56.5c0.8,0.1,1.4,0.7,1.7,1.5c-0.6,0.6-1.4,0.9-2.2,0.8c-0.8-0.1-1.4-0.7-1.7-1.5
					C6.8,56.7,7.6,56.4,8.3,56.5z"/>
				<path class="st2" d="M14,59.4c-0.1,1-0.5,1.9-1.1,2.6c-0.5-0.6-0.8-1.5-0.8-2.5c0.1-1,0.5-1.9,1.1-2.6
					C13.8,57.5,14.1,58.4,14,59.4z"/>
				<path class="st2" d="M11,61c0.8,0,1.5,0.4,2,1c-0.5,0.7-1.3,1.2-2.1,1.3c-0.8,0-1.5-0.4-2-1C9.4,61.5,10.2,61,11,61L11,61z"/>
				<path class="st2" d="M17.1,62.5c0.1,1-0.2,2-0.7,2.7c-0.6-0.5-1-1.2-1.1-2.2c-0.1-1,0.2-2,0.7-2.7C16.6,60.7,17,61.5,17.1,62.5z
					"/>
				<path class="st2" d="M14.2,64.7c0.8-0.2,1.6,0,2.1,0.6c-0.4,0.8-1.1,1.5-1.9,1.7c-0.8,0.2-1.6,0-2.1-0.6
					C12.7,65.5,13.4,64.9,14.2,64.7z"/>
				<path class="st2" d="M9.5,26.1c-0.4,0.9-1,1.6-1.8,1.9c-0.2-0.8-0.2-1.8,0.2-2.7c0.4-0.9,1-1.6,1.8-1.9
					C10,24.2,9.9,25.2,9.5,26.1z"/>
				<path class="st2" d="M7.3,29L7,30.1c-0.2,0.6-0.3,1.3-0.5,1.9c-0.3,1.3-0.5,2.6-0.6,3.8l0,0c-0.1,0.6-0.1,1.3-0.2,1.9
					c-0.1,1.3-0.1,2.6-0.1,3.9c0,0.6,0,1.2,0.1,1.8c0.1,1.3,0.3,2.6,0.5,3.9l0,0c0.1,0.5,0.2,1,0.3,1.5c0.3,1.3,0.6,2.5,1.1,3.8
					c0.1,0.5,0.3,0.9,0.5,1.3c0.4,1.2,1,2.3,1.5,3.4c0.2,0.4,0.5,0.8,0.7,1.2l0,0c0.3,0.6,0.6,1.1,1,1.6c0.3,0.4,0.6,0.9,0.9,1.3
					c0.3,0.4,0.6,0.8,0.9,1.1c0.7,0.8,1.4,1.6,2.2,2.3l0,0c0.2,0.2,0.3,0.3,0.5,0.4c0.2,0.2,0.4,0.4,0.7,0.6l1.8,1.5l0.3-0.4
					c-0.3-0.2-2.3-1.9-2.5-2.1c-0.1-0.1-0.1-0.1-0.2-0.2c-0.9-0.8-1.7-1.6-2.5-2.5c-0.3-0.4-0.6-0.7-0.9-1.1l0,0
					c-0.4-0.5-0.7-1-1.1-1.5c-0.3-0.4-0.6-0.8-0.8-1.3c-0.3-0.5-0.5-0.9-0.8-1.4c-0.5-1-1-2-1.4-3.1c-0.2-0.5-0.4-1-0.6-1.6l0,0
					c-0.4-1.1-0.7-2.3-0.9-3.4c-0.1-0.6-0.2-1.1-0.3-1.7c-0.2-1.2-0.4-2.4-0.5-3.7c0-0.5-0.1-1-0.1-1.6l0,0c0-1.3,0-2.7,0.1-4
					c0-0.5,0.1-1,0.1-1.5l0,0c0.1-1.4,0.3-2.7,0.6-4.1c0.1-0.4,0.2-0.8,0.3-1.2l0,0c0.1-0.3,0.2-0.6,0.3-1C8.9,24.7,7.7,27.8,7.3,29
					L7.3,29z"/>
			</g>
			<polygon class="st2" points="13.9,17.8 13.6,19.6 14.9,20.8 13.1,21 12.4,22.6 11.6,21 9.9,20.9 11.1,19.6 10.8,17.9 12.3,18.7 
							"/>
			<polygon class="st2" points="20.4,66.9 20.4,68.6 19,69.5 20.6,70 21.1,71.7 22,70.3 23.7,70.4 22.7,69 23.3,67.4 21.7,68 			"/>
		</g>
		<path class="st3" d="M58,72.5c-5.3,2.9-11.4,4.6-18,4.6c-6.5,0-12.6-1.7-18-4.6c0.3,0,0.7,0,1,0c5.1,2.7,10.8,4.2,17,4.2
			c6.1,0,11.9-1.5,17-4.2C57.3,72.5,57.7,72.5,58,72.5L58,72.5z M67.4,15.7c-0.5-0.5-1-1.1-1.5-1.6C59.3,7.5,50.2,3.4,40,3.4
			c-10.1,0-19.3,4.1-25.9,10.7c-0.7,0.7-1.3,1.4-1.9,2.1c-0.3,0.1-0.7,0.3-1,0.4c0.8-1,1.7-1.9,2.6-2.8C20.5,7.1,29.8,2.9,40,2.9
			c10.2,0,19.5,4.2,26.2,10.9c0.7,0.7,1.5,1.5,2.1,2.3C68.1,16,67.8,15.9,67.4,15.7L67.4,15.7z"/>
		<path class="st1" d="M24.7,57.6h2.9l1.3-1.3v-2.4L28,53l0.7-0.8V50l-1.3-1.4h-2.6V57.6z M25.8,52.5v-2.8h1.1l0.7,0.7v1.3l-0.6,0.8
			H25.8z M25.8,53.6h1.2l0.8,0.8v1.4l-0.7,0.7h-1.3V53.6z M30.2,57.6h1.1l0.3-2.3h1.9l0.3,2.3h1.1l-1.3-9h-2.1L30.2,57.6L30.2,57.6z
			 M33.3,54.2h-1.6l0.7-4.5h0.2L33.3,54.2z M37.4,49.7h1.1l0.7,0.7v2.2l-0.7,0.8h-1.1L37.4,49.7L37.4,49.7z M37.4,54.6h0.9l1.4,3
			h1.2l-1.6-3.4l1-1V50l-1.4-1.4h-2.6v9h1.1L37.4,54.6L37.4,54.6z M42.2,57.6H45l1.3-1.3v-2.4L45.5,53l0.7-0.8V50l-1.3-1.4h-2.6
			V57.6z M43.3,52.5v-2.8h1.1l0.7,0.7v1.3l-0.6,0.8H43.3L43.3,52.5z M43.3,53.6h1.2l0.8,0.8v1.4l-0.7,0.7h-1.3V53.6z M49.3,52.6
			v-2.9h2.6v-1.1c-1.5,0-2.2,0-3.7,0v9h3.8v-1.1h-2.8v-2.8h2.2v-1.1L49.3,52.6L49.3,52.6z M54.4,49.7h1.1l0.7,0.7v2.2l-0.7,0.8h-1.1
			V49.7z M54.4,54.6h0.9l1.4,3H58l-1.6-3.4l1-1V50L56,48.6h-2.6v9h1.1L54.4,54.6L54.4,54.6z"/>
		
			<linearGradient id="SVGID_1_" gradientUnits="userSpaceOnUse" x1="-246.7376" y1="-13724.6455" x2="-279.9273" y2="-13704.5215" gradientTransform="matrix(2.834646e-02 0 0 -2.834646e-02 27.2782 -362.5775)">
			<stop  offset="0" style="stop-color:#D7AC4D"/>
			<stop  offset="0.4118" style="stop-color:#E7BD5A"/>
			<stop  offset="1" style="stop-color:#F7CF67"/>
		</linearGradient>
		<polygon class="st4" points="19.8,25.6 19.7,25.9 19.3,26 19.6,26.3 19.6,26.7 19.9,26.4 20.3,26.6 20.1,26.2 20.4,25.9 20,25.9 
					"/>
		<g>
			<polygon class="st2" points="65.6,18 65.9,19.7 64.6,20.9 66.3,21.2 67.1,22.8 67.8,21.2 69.6,21 68.3,19.8 68.7,18 67.1,18.9 
							"/>
			<polygon class="st2" points="59.1,67.1 59.1,68.8 60.5,69.7 58.9,70.2 58.4,71.8 57.4,70.4 55.8,70.5 56.8,69.2 56.2,67.6 
				57.8,68.1 			"/>
			<g>
				<path class="st2" d="M70.5,31.1c0.7,0.5,1.5,0.7,2.2,0.4c-0.2-0.9-0.7-1.8-1.4-2.3c-0.7-0.5-1.5-0.7-2.2-0.4
					C69.3,29.7,69.8,30.6,70.5,31.1L70.5,31.1z"/>
				<path class="st2" d="M72.8,28.8c-0.3,0.9-0.3,1.9-0.1,2.8c0.7-0.1,1.4-0.7,1.7-1.5c0.3-0.9,0.3-1.9,0.1-2.8
					C73.8,27.4,73.2,27.9,72.8,28.8L72.8,28.8z"/>
				<path class="st2" d="M71.5,36.4c0.7,0.7,1.5,1,2.2,0.9c-0.1-0.9-0.5-1.9-1.1-2.6c-0.7-0.7-1.5-1-2.2-0.9
					C70.5,34.8,70.8,35.7,71.5,36.4L71.5,36.4z"/>
				<path class="st2" d="M74.1,34.6c-0.5,0.7-0.6,1.7-0.4,2.7c0.7,0,1.5-0.4,1.9-1.1c0.5-0.7,0.6-1.7,0.4-2.7
					C75.3,33.5,74.6,33.9,74.1,34.6z"/>
				<path class="st2" d="M71.8,41.6c0.6,0.8,1.3,1.3,2.1,1.3c0-0.9-0.2-1.9-0.8-2.7c-0.6-0.8-1.3-1.3-2.1-1.3
					C71,39.8,71.2,40.8,71.8,41.6L71.8,41.6z"/>
				<path class="st2" d="M74.7,40.4c-0.6,0.6-0.9,1.5-0.8,2.5c0.7,0.2,1.5,0,2.1-0.6c0.6-0.6,0.9-1.5,0.8-2.5
					C76,39.6,75.3,39.8,74.7,40.4L74.7,40.4z"/>
				<path class="st2" d="M71.3,46.6c0.5,0.9,1.2,1.5,1.9,1.7c0.2-0.9,0.1-1.9-0.4-2.8c-0.5-0.9-1.2-1.5-1.9-1.7
					C70.7,44.7,70.9,45.7,71.3,46.6L71.3,46.6z"/>
				<path class="st2" d="M74.4,46.1c-0.7,0.5-1.1,1.3-1.2,2.2c0.7,0.3,1.5,0.3,2.2-0.2c0.7-0.5,1.1-1.3,1.2-2.2
					C75.9,45.6,75.1,45.7,74.4,46.1z"/>
				<path class="st2" d="M70.1,51.3c0.3,1,1,1.7,1.7,2.1c0.3-0.8,0.3-1.8,0-2.8c-0.3-1-1-1.7-1.7-2.1C69.8,49.3,69.8,50.3,70.1,51.3
					z"/>
				<path class="st2" d="M73.3,51.6c-0.7,0.3-1.3,1-1.5,1.9c0.7,0.5,1.5,0.6,2.2,0.3c0.7-0.3,1.3-1,1.5-1.9
					C74.8,51.4,74,51.2,73.3,51.6L73.3,51.6z"/>
				<path class="st2" d="M68.3,55.6c0.2,1,0.7,1.9,1.4,2.4c0.4-0.7,0.6-1.7,0.4-2.7c-0.2-1-0.7-1.9-1.4-2.4
					C68.2,53.6,68,54.6,68.3,55.6z"/>
				<path class="st2" d="M71.4,56.5c-0.8,0.1-1.4,0.7-1.7,1.5c0.6,0.6,1.4,0.9,2.2,0.8c0.8-0.1,1.4-0.7,1.7-1.5
					C73,56.7,72.2,56.4,71.4,56.5z"/>
				<path class="st2" d="M65.7,59.4c0.1,1,0.5,1.9,1.1,2.6c0.5-0.6,0.8-1.5,0.8-2.5c-0.1-1-0.5-1.9-1.1-2.6
					C66,57.5,65.7,58.4,65.7,59.4L65.7,59.4z"/>
				<path class="st2" d="M68.8,61c-0.8,0-1.5,0.4-2,1c0.5,0.7,1.3,1.2,2.1,1.3c0.8,0,1.5-0.4,2-1C70.3,61.5,69.6,61,68.8,61L68.8,61
					z"/>
				<path class="st2" d="M62.7,62.5c-0.1,1,0.2,2,0.7,2.7c0.6-0.5,1-1.2,1.1-2.2c0.1-1-0.2-2-0.7-2.7C63.2,60.7,62.7,61.5,62.7,62.5
					L62.7,62.5z"/>
				<path class="st2" d="M65.5,64.7c-0.8-0.2-1.6,0-2.1,0.6c0.4,0.8,1.1,1.5,1.9,1.7c0.8,0.2,1.6,0,2.1-0.6
					C67,65.5,66.3,64.9,65.5,64.7z"/>
				<path class="st2" d="M70.2,26.1c0.4,0.9,1,1.6,1.8,1.9c0.2-0.8,0.2-1.8-0.2-2.7c-0.4-0.9-1-1.6-1.8-1.9
					C69.8,24.2,69.8,25.2,70.2,26.1z"/>
				<path class="st2" d="M72.4,29l0.3,1.1c0.2,0.6,0.3,1.3,0.5,1.9c0.3,1.3,0.5,2.6,0.6,3.8l0,0c0.1,0.6,0.1,1.3,0.2,1.9
					c0.1,1.3,0.1,2.6,0.1,3.9c0,0.6,0,1.2-0.1,1.8c-0.1,1.3-0.3,2.6-0.5,3.9l0,0c-0.1,0.5-0.2,1-0.3,1.5c-0.3,1.3-0.6,2.5-1.1,3.8
					c-0.1,0.5-0.3,0.9-0.5,1.3c-0.4,1.2-1,2.3-1.5,3.4c-0.2,0.4-0.5,0.8-0.7,1.2l0,0c-0.3,0.6-0.6,1.1-1,1.6
					c-0.3,0.4-0.6,0.9-0.9,1.3c-0.3,0.4-0.6,0.8-0.9,1.1c-0.7,0.8-1.4,1.6-2.2,2.3l0,0c-0.2,0.2-0.3,0.3-0.5,0.4
					c-0.2,0.2-0.4,0.4-0.7,0.6l-1.8,1.5L61.1,67c0.3-0.2,2.3-1.9,2.5-2.1c0.1-0.1,0.1-0.1,0.2-0.2c0.9-0.8,1.7-1.6,2.5-2.5
					c0.3-0.4,0.6-0.7,0.9-1.1l0,0c0.4-0.5,0.7-1,1.1-1.5c0.3-0.4,0.6-0.8,0.8-1.3c0.3-0.5,0.5-0.9,0.8-1.4c0.5-1,1-2,1.4-3.1
					c0.2-0.5,0.4-1,0.6-1.6l0,0c0.4-1.1,0.7-2.3,0.9-3.4c0.1-0.6,0.2-1.1,0.3-1.7c0.2-1.2,0.4-2.4,0.5-3.7c0-0.5,0.1-1,0.1-1.6l0,0
					c0-1.3,0-2.7-0.1-4c0-0.5-0.1-1-0.1-1.5l0,0c-0.1-1.4-0.3-2.7-0.6-4.1c-0.1-0.4-0.2-0.8-0.3-1.2l0,0c-0.1-0.3-0.2-0.6-0.3-1
					C70.9,24.7,72,27.8,72.4,29L72.4,29z"/>
			</g>
			<polygon class="st2" points="65.9,17.8 66.2,19.6 64.8,20.8 66.6,21 67.3,22.6 68.1,21 69.9,20.9 68.6,19.6 69,17.9 67.4,18.7 
							"/>
			<polygon class="st2" points="59.3,66.9 59.3,68.6 60.7,69.5 59.1,70 58.7,71.7 57.7,70.3 56,70.4 57,69 56.4,67.4 58,68 			"/>
		</g>
		<g>
			<path class="st0" d="M26,46.8h2.4V28.9h2.1V31h2.2v-4.3h-11V31h2.2v-2.1H26L26,46.8L26,46.8z M45.3,29.5l-3-3h-3.8l-3,3v14.2
				l3,3.2h3.9l3-3.2V29.5L45.3,29.5z M41.2,44.5h-1.8l-1.6-1.7V30.5l1.6-1.6h1.8l1.6,1.6v12.2L41.2,44.5L41.2,44.5z M50.3,29v0.2
				l-1,0.6v17h2.4V29.1h4.5v17.7h2.4v-20H47.9V29H50.3z"/>
			<path class="st5" d="M25.4,46.2h2.4V28.3H30v2.1h2.2v-4.3h-11v4.3h2.2v-2.1h2.1L25.4,46.2L25.4,46.2z M44.7,28.9l-3-3h-3.8l-3,3
				v14.2l3,3.2h3.9l3-3.2V28.9L44.7,28.9z M40.6,43.9h-1.8l-1.6-1.7V29.9l1.6-1.6h1.8l1.6,1.6v12.2L40.6,43.9L40.6,43.9z M49.7,28.4
				v0.2l-1,0.6v17h2.4V28.5h4.5v17.7h2.4v-20H47.3v2.3H49.7z"/>
			<path class="st1" d="M24.7,45.5h2.4V27.6h2.1v2.1h2.2v-4.3h-11v4.3h2.2v-2.1h2.1V45.5z M44,28.2l-3-3h-3.8l-3,3v14.2l3,3.2h3.9
				l3-3.2V28.2L44,28.2z M39.9,43.2h-1.8l-1.6-1.7V29.2l1.6-1.6h1.8l1.6,1.6v12.2L39.9,43.2L39.9,43.2z M49,27.7v0.2l-1,0.6v17h2.4
				V27.8h4.5v17.7h2.4v-20H46.6v2.3H49z"/>
		</g>
	</g>
</g>
</svg>
