<svg version="1.1" id="Layer_1" xmlns="http://www.w3.org/2000/svg" x="0" y="0" viewBox="0 0 80.1 80.1" xml:space="preserve"><style>.st0{fill:#d7ac4d}.st1{fill:#1f1b20}.st2{fill:#fff}</style><g id="Слой_x0020_1"><g id="_2986421211664"><path class="st0" d="M80.1 40c0 22.1-17.9 40-40 40S.1 62.1.1 40C0 17.9 17.9 0 40 0c22.2 0 40.1 17.9 40.1 40z"/><path class="st1" d="M78.8 40c0 21.4-17.4 38.8-38.8 38.8S1.3 61.5 1.3 40C1.3 18.6 18.6 1.3 40 1.3c21.5 0 38.8 17.3 38.8 38.7z"/><path class="st0" d="M69.9 40c0 16.5-13.4 29.9-29.9 29.9S10.1 56.5 10.1 40 23.5 10.1 40 10.1c16.6.1 29.9 13.4 29.9 29.9z"/><path class="st1" d="M69.5 40c0 16.3-13.2 29.5-29.5 29.5S10.5 56.3 10.5 40 23.7 10.5 40 10.5c16.3.1 29.5 13.3 29.5 29.5z"/><path class="st2" d="M68.9 40C68.9 56 56 68.9 40 68.9 24.1 68.9 11.2 56 11.2 40c0-15.9 12.9-28.8 28.8-28.8 16 0 28.9 12.9 28.9 28.8zM14.1 18l-.2 1.7 1.3 1.2-1.8.3-.7 1.6-.8-1.6-1.8-.2 1.3-1.2L11 18l1.6.9zM20.7 67.1v1.7l-1.4.9 1.6.5.4 1.6 1-1.4 1.7.1-1-1.3.6-1.6-1.6.5zM9.2 31.1c-.7.5-1.5.7-2.2.4.2-.9.7-1.8 1.4-2.3.7-.5 1.5-.7 2.2-.4-.1.9-.6 1.8-1.4 2.3z"/><path class="st2" d="M6.9 28.8c.3.9.3 1.9.1 2.8-.7-.1-1.4-.7-1.7-1.5-.3-.9-.3-1.9-.1-2.8.8.1 1.4.6 1.7 1.5zM8.2 36.4c-.7.7-1.5 1-2.2.9.1-.9.5-1.9 1.1-2.6.7-.7 1.5-1 2.2-.9 0 1-.4 1.9-1.1 2.6z"/><path class="st2" d="M5.6 34.6c.5.7.6 1.7.4 2.7-.7 0-1.5-.4-1.9-1.1-.5-.7-.6-1.7-.4-2.7.7 0 1.4.4 1.9 1.1zM8 41.6c-.6.8-1.3 1.3-2.1 1.3 0-.9.2-1.9.8-2.7.6-.8 1.3-1.3 2.1-1.3 0 .9-.3 1.9-.8 2.7z"/><path class="st2" d="M5.1 40.4c.6.6.9 1.5.8 2.5-.7.2-1.5 0-2.1-.6-.6-.6-.9-1.5-.8-2.5.7-.2 1.5 0 2.1.6zM8.4 46.6c-.5.9-1.2 1.5-1.9 1.7-.2-.9-.1-1.9.4-2.8.5-.9 1.2-1.5 1.9-1.7.2.9.1 1.9-.4 2.8z"/><path class="st2" d="M5.3 46.1c.7.5 1.1 1.3 1.2 2.2-.7.3-1.5.3-2.2-.2-.7-.5-1.1-1.3-1.2-2.2.8-.3 1.6-.2 2.2.2zM9.6 51.3c-.3 1-1 1.7-1.7 2.1-.3-.8-.3-1.8 0-2.8.3-1 1-1.7 1.7-2.1.3.8.4 1.8 0 2.8z"/><path class="st2" d="M6.5 51.6c.7.3 1.3 1 1.5 1.9-.7.5-1.5.6-2.2.3-.7-.3-1.3-1-1.5-1.9.6-.5 1.4-.7 2.2-.3zM11.5 55.6c-.2 1-.7 1.9-1.4 2.4-.4-.7-.6-1.7-.4-2.7.2-1 .7-1.9 1.4-2.4.4.7.6 1.7.4 2.7zM8.3 56.5c.8.1 1.4.7 1.7 1.5-.6.6-1.4.9-2.2.8-.8-.1-1.4-.7-1.7-1.5.7-.6 1.5-.9 2.2-.8zM14 59.4c-.1 1-.5 1.9-1.1 2.6-.5-.6-.8-1.5-.8-2.5.1-1 .5-1.9 1.1-2.6.6.6.9 1.5.8 2.5z"/><path class="st2" d="M11 61c.8 0 1.5.4 2 1-.5.7-1.3 1.2-2.1 1.3-.8 0-1.5-.4-2-1 .5-.8 1.3-1.3 2.1-1.3zM17.1 62.5c.1 1-.2 2-.7 2.7-.6-.5-1-1.2-1.1-2.2-.1-1 .2-2 .7-2.7.6.4 1 1.2 1.1 2.2zM14.2 64.7c.8-.2 1.6 0 2.1.6-.4.8-1.1 1.5-1.9 1.7-.8.2-1.6 0-2.1-.6.4-.9 1.1-1.5 1.9-1.7zM9.5 26.1c-.4.9-1 1.6-1.8 1.9-.2-.8-.2-1.8.2-2.7.4-.9 1-1.6 1.8-1.9.3.8.2 1.8-.2 2.7z"/><path class="st2" d="M7.3 29L7 30.1c-.2.6-.3 1.3-.5 1.9-.3 1.3-.5 2.6-.6 3.8-.1.6-.1 1.3-.2 1.9-.1 1.3-.1 2.6-.1 3.9 0 .6 0 1.2.1 1.8.1 1.3.3 2.6.5 3.9l.3 1.5c.3 1.3.6 2.5 1.1 3.8.1.5.3.9.5 1.3.4 1.2 1 2.3 1.5 3.4.2.4.5.8.7 1.2.3.6.6 1.1 1 1.6.3.4.6.9.9 1.3.3.4.6.8.9 1.1.7.8 1.4 1.6 2.2 2.3.2.2.3.3.5.4.2.2.4.4.7.6l1.8 1.5.3-.4c-.3-.2-2.3-1.9-2.5-2.1l-.2-.2c-.9-.8-1.7-1.6-2.5-2.5-.3-.4-.6-.7-.9-1.1-.4-.5-.7-1-1.1-1.5-.3-.4-.6-.8-.8-1.3-.3-.5-.5-.9-.8-1.4-.5-1-1-2-1.4-3.1-.2-.5-.4-1-.6-1.6-.4-1.1-.7-2.3-.9-3.4-.1-.6-.2-1.1-.3-1.7-.2-1.2-.4-2.4-.5-3.7 0-.5-.1-1-.1-1.6 0-1.3 0-2.7.1-4 0-.5.1-1 .1-1.5.1-1.4.3-2.7.6-4.1l.3-1.2c.1-.3.2-.6.3-1 1.5-5.2.3-2.1-.1-.9zM13.9 17.8l-.3 1.8 1.3 1.2-1.8.2-.7 1.6-.8-1.6-1.7-.1 1.2-1.3-.3-1.7 1.5.8zM20.4 66.9v1.7l-1.4.9 1.6.5.5 1.7.9-1.4 1.7.1-1-1.4.6-1.6-1.6.6z"/><path d="M58 72.5c-5.3 2.9-11.4 4.6-18 4.6-6.5 0-12.6-1.7-18-4.6h1c5.1 2.7 10.8 4.2 17 4.2 6.1 0 11.9-1.5 17-4.2h1zm9.4-56.8c-.5-.5-1-1.1-1.5-1.6C59.3 7.5 50.2 3.4 40 3.4c-10.1 0-19.3 4.1-25.9 10.7-.7.7-1.3 1.4-1.9 2.1-.3.1-.7.3-1 .4.8-1 1.7-1.9 2.6-2.8C20.5 7.1 29.8 2.9 40 2.9s19.5 4.2 26.2 10.9c.7.7 1.5 1.5 2.1 2.3-.2-.1-.5-.2-.9-.4z" fill="#ab7d24"/><path class="st1" d="M24.7 57.6h2.9l1.3-1.3v-2.4L28 53l.7-.8V50l-1.3-1.4h-2.6v9zm1.1-5.1v-2.8h1.1l.7.7v1.3l-.6.8h-1.2zm0 1.1H27l.8.8v1.4l-.7.7h-1.3v-2.9zm4.4 4h1.1l.3-2.3h1.9l.3 2.3h1.1l-1.3-9h-2.1l-1.3 9zm3.1-3.4h-1.6l.7-4.5h.2l.7 4.5zm4.1-4.5h1.1l.7.7v2.2l-.7.8h-1.1v-3.7zm0 4.9h.9l1.4 3h1.2l-1.6-3.4 1-1V50l-1.4-1.4h-2.6v9h1.1v-3zm4.8 3H45l1.3-1.3v-2.4l-.8-.9.7-.8V50l-1.3-1.4h-2.6v9zm1.1-5.1v-2.8h1.1l.7.7v1.3l-.6.8h-1.2zm0 1.1h1.2l.8.8v1.4l-.7.7h-1.3v-2.9zm6-1v-2.9h2.6v-1.1h-3.7v9H52v-1.1h-2.8v-2.8h2.2v-1.1h-2.1zm5.1-2.9h1.1l.7.7v2.2l-.7.8h-1.1v-3.7zm0 4.9h.9l1.4 3H58l-1.6-3.4 1-1V50L56 48.6h-2.6v9h1.1l-.1-3z"/><linearGradient id="SVGID_1_" gradientUnits="userSpaceOnUse" x1="-246.738" y1="-13724.646" x2="-279.927" y2="-13704.522" gradientTransform="matrix(.02835 0 0 -.02835 27.278 -362.577)"><stop offset="0" stop-color="#d7ac4d"/><stop offset=".412" stop-color="#e7bd5a"/><stop offset="1" stop-color="#f7cf67"/></linearGradient><path fill="url(#SVGID_1_)" d="M19.8 25.6l-.1.3-.4.1.3.3v.4l.3-.3.4.2-.2-.4.3-.3H20z"/><g><path class="st2" d="M65.6 18l.3 1.7-1.3 1.2 1.7.3.8 1.6.7-1.6 1.8-.2-1.3-1.2.4-1.8-1.6.9zM59.1 67.1v1.7l1.4.9-1.6.5-.5 1.6-1-1.4-1.6.1 1-1.3-.6-1.6 1.6.5zM70.5 31.1c.7.5 1.5.7 2.2.4-.2-.9-.7-1.8-1.4-2.3-.7-.5-1.5-.7-2.2-.4.2.9.7 1.8 1.4 2.3z"/><path class="st2" d="M72.8 28.8c-.3.9-.3 1.9-.1 2.8.7-.1 1.4-.7 1.7-1.5.3-.9.3-1.9.1-2.8-.7.1-1.3.6-1.7 1.5zM71.5 36.4c.7.7 1.5 1 2.2.9-.1-.9-.5-1.9-1.1-2.6-.7-.7-1.5-1-2.2-.9.1 1 .4 1.9 1.1 2.6z"/><path class="st2" d="M74.1 34.6c-.5.7-.6 1.7-.4 2.7.7 0 1.5-.4 1.9-1.1.5-.7.6-1.7.4-2.7-.7 0-1.4.4-1.9 1.1zM71.8 41.6c.6.8 1.3 1.3 2.1 1.3 0-.9-.2-1.9-.8-2.7-.6-.8-1.3-1.3-2.1-1.3 0 .9.2 1.9.8 2.7z"/><path class="st2" d="M74.7 40.4c-.6.6-.9 1.5-.8 2.5.7.2 1.5 0 2.1-.6.6-.6.9-1.5.8-2.5-.8-.2-1.5 0-2.1.6zM71.3 46.6c.5.9 1.2 1.5 1.9 1.7.2-.9.1-1.9-.4-2.8-.5-.9-1.2-1.5-1.9-1.7-.2.9 0 1.9.4 2.8z"/><path class="st2" d="M74.4 46.1c-.7.5-1.1 1.3-1.2 2.2.7.3 1.5.3 2.2-.2.7-.5 1.1-1.3 1.2-2.2-.7-.3-1.5-.2-2.2.2zM70.1 51.3c.3 1 1 1.7 1.7 2.1.3-.8.3-1.8 0-2.8-.3-1-1-1.7-1.7-2.1-.3.8-.3 1.8 0 2.8z"/><path class="st2" d="M73.3 51.6c-.7.3-1.3 1-1.5 1.9.7.5 1.5.6 2.2.3.7-.3 1.3-1 1.5-1.9-.7-.5-1.5-.7-2.2-.3zM68.3 55.6c.2 1 .7 1.9 1.4 2.4.4-.7.6-1.7.4-2.7-.2-1-.7-1.9-1.4-2.4-.5.7-.7 1.7-.4 2.7z"/><path class="st2" d="M71.4 56.5c-.8.1-1.4.7-1.7 1.5.6.6 1.4.9 2.2.8.8-.1 1.4-.7 1.7-1.5-.6-.6-1.4-.9-2.2-.8zM65.7 59.4c.1 1 .5 1.9 1.1 2.6.5-.6.8-1.5.8-2.5-.1-1-.5-1.9-1.1-2.6-.5.6-.8 1.5-.8 2.5z"/><path class="st2" d="M68.8 61c-.8 0-1.5.4-2 1 .5.7 1.3 1.2 2.1 1.3.8 0 1.5-.4 2-1-.6-.8-1.3-1.3-2.1-1.3zM62.7 62.5c-.1 1 .2 2 .7 2.7.6-.5 1-1.2 1.1-2.2.1-1-.2-2-.7-2.7-.6.4-1.1 1.2-1.1 2.2zM65.5 64.7c-.8-.2-1.6 0-2.1.6.4.8 1.1 1.5 1.9 1.7.8.2 1.6 0 2.1-.6-.4-.9-1.1-1.5-1.9-1.7zM70.2 26.1c.4.9 1 1.6 1.8 1.9.2-.8.2-1.8-.2-2.7-.4-.9-1-1.6-1.8-1.9-.2.8-.2 1.8.2 2.7z"/><path class="st2" d="M72.4 29l.3 1.1c.2.6.3 1.3.5 1.9.3 1.3.5 2.6.6 3.8.1.6.1 1.3.2 1.9.1 1.3.1 2.6.1 3.9 0 .6 0 1.2-.1 1.8-.1 1.3-.3 2.6-.5 3.9l-.3 1.5c-.3 1.3-.6 2.5-1.1 3.8-.1.5-.3.9-.5 1.3-.4 1.2-1 2.3-1.5 3.4-.2.4-.5.8-.7 1.2-.3.6-.6 1.1-1 1.6-.3.4-.6.9-.9 1.3-.3.4-.6.8-.9 1.1-.7.8-1.4 1.6-2.2 2.3-.2.2-.3.3-.5.4-.2.2-.4.4-.7.6l-1.8 1.5-.3-.3c.3-.2 2.3-1.9 2.5-2.1l.2-.2c.9-.8 1.7-1.6 2.5-2.5.3-.4.6-.7.9-1.1.4-.5.7-1 1.1-1.5.3-.4.6-.8.8-1.3.3-.5.5-.9.8-1.4.5-1 1-2 1.4-3.1.2-.5.4-1 .6-1.6.4-1.1.7-2.3.9-3.4.1-.6.2-1.1.3-1.7.2-1.2.4-2.4.5-3.7 0-.5.1-1 .1-1.6 0-1.3 0-2.7-.1-4 0-.5-.1-1-.1-1.5-.1-1.4-.3-2.7-.6-4.1l-.3-1.2c-.1-.3-.2-.6-.3-1-1.4-5.3-.3-2.2.1-1zM65.9 17.8l.3 1.8-1.4 1.2 1.8.2.7 1.6.8-1.6 1.8-.1-1.3-1.3.4-1.7-1.6.8zM59.3 66.9v1.7l1.4.9-1.6.5-.4 1.7-1-1.4-1.7.1 1-1.4-.6-1.6 1.6.6z"/></g><g><path class="st0" d="M26 46.8h2.4V28.9h2.1V31h2.2v-4.3h-11V31h2.2v-2.1H26v17.9zm19.3-17.3l-3-3h-3.8l-3 3v14.2l3 3.2h3.9l3-3.2V29.5h-.1zm-4.1 15h-1.8l-1.6-1.7V30.5l1.6-1.6h1.8l1.6 1.6v12.2l-1.6 1.8zM50.3 29v.2l-1 .6v17h2.4V29.1h4.5v17.7h2.4v-20H47.9V29h2.4z"/><path d="M25.4 46.2h2.4V28.3H30v2.1h2.2v-4.3h-11v4.3h2.2v-2.1h2.1l-.1 17.9zm19.3-17.3l-3-3h-3.8l-3 3v14.2l3 3.2h3.9l3-3.2V28.9h-.1zm-4.1 15h-1.8l-1.6-1.7V29.9l1.6-1.6h1.8l1.6 1.6v12.2l-1.6 1.8zm9.1-15.5v.2l-1 .6v17h2.4V28.5h4.5v17.7H58v-20H47.3v2.3h2.4z" fill="#f7cf67"/><path class="st1" d="M24.7 45.5h2.4V27.6h2.1v2.1h2.2v-4.3h-11v4.3h2.2v-2.1h2.1v17.9zM44 28.2l-3-3h-3.8l-3 3v14.2l3 3.2h3.9l3-3.2V28.2H44zm-4.1 15h-1.8l-1.6-1.7V29.2l1.6-1.6h1.8l1.6 1.6v12.2l-1.6 1.8zM49 27.7v.2l-1 .6v17h2.4V27.8h4.5v17.7h2.4v-20H46.6v2.3H49z"/></g></g></g></svg>