<svg version="1.1" id="Layer_1" xmlns="http://www.w3.org/2000/svg" x="0" y="0" viewBox="0 0 275.1 447.6" xml:space="preserve"><style>.st0{fill:#d5a353}</style><path class="st0" d="M142.3 5.3L0 147.6M147.6 10.6L0 147.6 137 0zM132.8 5.3l142.3 142.3"/><path class="st0" d="M138.1 0l137 147.6-147.6-137zM142.3 155.3L0 297.6M147.6 160.6L0 297.6 137 150z"/><g><path class="st0" d="M132.8 155.3l142.3 142.3M138.1 150l137 147.6-147.6-137z"/></g><g><path class="st0" d="M142.3 305.3L0 447.6M147.6 310.6L0 447.6 137 300z"/></g><g><path class="st0" d="M132.8 305.3l142.3 142.3M138.1 300l137 147.6-147.6-137z"/></g></svg>