<?xml version="1.0" encoding="utf-8"?>
<!-- Generator: Adobe Illustrator 21.0.0, SVG Export Plug-In . SVG Version: 6.00 Build 0)  -->
<svg version="1.1" id="Layer_1" xmlns="http://www.w3.org/2000/svg" xmlns:xlink="http://www.w3.org/1999/xlink" x="0px" y="0px"
	 viewBox="0 0 275.1 447.6" style="enable-background:new 0 0 275.1 447.6;" xml:space="preserve">
<style type="text/css">
	.st0{fill:#D5A353;}
</style>
<g>
	<line class="st0" x1="142.3" y1="5.3" x2="0" y2="147.6"/>
	<polygon class="st0" points="147.6,10.6 0,147.6 137,0 	"/>
</g>
<g>
	<line class="st0" x1="132.8" y1="5.3" x2="275.1" y2="147.6"/>
	<polygon class="st0" points="138.1,0 275.1,147.6 127.5,10.6 	"/>
</g>
<g>
	<line class="st0" x1="142.3" y1="155.3" x2="0" y2="297.6"/>
	<polygon class="st0" points="147.6,160.6 0,297.6 137,150 	"/>
</g>
<g>
	<line class="st0" x1="132.8" y1="155.3" x2="275.1" y2="297.6"/>
	<polygon class="st0" points="138.1,150 275.1,297.6 127.5,160.6 	"/>
</g>
<g>
	<line class="st0" x1="142.3" y1="305.3" x2="0" y2="447.6"/>
	<polygon class="st0" points="147.6,310.6 0,447.6 137,300 	"/>
</g>
<g>
	<line class="st0" x1="132.8" y1="305.3" x2="275.1" y2="447.6"/>
	<polygon class="st0" points="138.1,300 275.1,447.6 127.5,310.6 	"/>
</g>
</svg>
