<?xml version="1.0" encoding="utf-8"?>
<!-- Generator: Adobe Illustrator 21.0.0, SVG Export Plug-In . SVG Version: 6.00 Build 0)  -->
<svg version="1.1" id="Layer_1" xmlns="http://www.w3.org/2000/svg" xmlns:xlink="http://www.w3.org/1999/xlink" x="0px" y="0px"
	 viewBox="0 0 1098 1004" style="enable-background:new 0 0 1098 1004;" xml:space="preserve">
<style type="text/css">
	.st0{fill:#D5A353;}
</style>
<path class="st0" d="M174,942h323h11h82h11h317l10,10H592l-40,39l-3,3l-3-3l-40-39H165L174,942z M978,438l33,34l20-20l4-4l3,4l47,46
	l3,4l-3,3l-47,47l-3,3l-4-3l-20-20L777,767h151l-10,9H767h-2H333h-2H174l-9-9h156l-74-74c4-1,7-3,10-4l78,78c225,0,241,0,428,0
	l242-242l-20-20l-4-3l4-4l20-20l-31-30L978,438z M1018,478l20,20l4,4l-4,3l-20,20l17,17l40-40l-40-40L1018,478z M1011,485l-16,17
	l16,16l17-16L1011,485z M549,981l29-29h-58L549,981z"/>
<path class="st0" d="M157,602l-70-70l-20,20l-4,3l-3-3l-47-47l-3-3l3-4l47-46l3-4l4,4l20,20l23-24l12,2l-29,28l20,20l4,4l-4,3
	l-20,20l74,74L157,602z M80,525l-20-20l-4-3l4-4l20-20l-17-16l-40,40l40,40L80,525z M103,502l-16-17l-17,17l17,16L103,502z"/>
<polygon class="st0" points="552,13 730,190 716,190 549,23 373,199 373,192 373,185 546,13 549,9 "/>
<path class="st0" d="M556,9l177,178l7,7h-10h-14h-2l-1-1L549,29L376,202l-8,8v-11v-7v-7v-1l2-2L542,9l0,0l4-3l3-3l3,3l3,3H556z
	 M174,938h323h11h82h11h317h2l1,1l10,10l7,7h-10H593l-37,38l-4,4l-3,3l-3-3l-4-4l-37-38H165h-11l8-7l9-10l1-1H174z M497,947H176h-1
	h331h2l1,2l40,39l0,0l0,0l40-39l1-2h2h325h-1H601h-11h-82H497z M981,435l30,30l17-17l0,0l4-3l3-3l3,3l3,3l0,0l47,47l4,4l3,3l-3,3
	l-4,3l-47,47l-3,3l-3,4l-3-4l-4-3l0,0l-17-17L788,762h140h10l-7,8l-10,9l-1,1h-2H767h-2H333h-2H174h-2l-1-1l-9-9l-8-8h11h145l-66-66
	l-4-5l6-2c1-1,2-1,5-2c2-1,3-2,4-2l3-1l2,2l76,76h426l236-237l-16-17l-4-3l-3-3l3-3l4-4l16-17l-27-27l-2-2l1-3l4-9l2-7L981,435z
	 M1008,475l-28-29l-1,1L1008,475l3,3l-3,4l-20,20l0,0l0,0l20,20l3,3l-3,3L767,770l-2,1h-2H335h-2l-2-1l-75-76h-1l69,69l8,8h-11H175
	l1,1h155h2h432h2h149l1-1H777h-11l8-8l234-234l3-3l4,3l20,20l0,0l0,0l0,0l47-47l0,0l0,0l-47-47l0,0v-1v1l0,0l-20,20l-4,3L1008,475z
	 M1025,478l16,17l0,0l4,4l3,3l-3,3l-4,3l0,0l-16,17l10,11l34-34l-34-34L1025,478z M1035,502L1035,502l-20-20l-3-4l3-3l17-16l3-4l3,4
	l40,40l3,3l-3,3l-40,40l-3,3l-3-3l-17-17l-3-3l3-3L1035,502L1035,502L1035,502L1035,502z M1011,491l-10,11l10,10l11-10L1011,491z
	 M992,499l16-17l3-3l4,3l16,17l3,3l-3,3l-16,17l-4,3l-3-3l-16-17l-3-3L992,499z M549,975l18-19h-36L549,975z M581,955l-29,29l-3,3
	l-3-3l-29-29l-8-8h11h58h11L581,955z M154,605l-67-67l-17,17l-4,3l-3,4l-3-4l-3-3l0,0l-47-47l-4-3l-3-3l3-3l4-4l47-47l0,0l3-3l3-3
	l3,3l4,3l0,0l17,17l20-20l1-1h2l12,1l9,2l-6,6l-25,25l16,17l4,4l3,3l-3,3l-4,3l-16,17l70,70l5,5l-7,3l-10,3l-2,1L154,605z M90,529
	l68,68h1l-69-69l-3-3l3-3l20-20l0,0l0,0l-20-20l-3-4l3-3l22-22h-1l-21,22l-3,3l-4-3l-20-20l0,0v-1v1l0,0l-47,47l0,0l0,0l47,47l0,0
	l0,0l0,0l20-20l4-3L90,529z M73,525l-16-17l-4-3l-3-3l3-3l4-4l16-17l-10-10l-34,34l34,34L73,525z M63,502l20,20l3,3l-3,3l-17,17
	l-3,3l-3-3l-40-40l-3-3l3-3l40-40l3-4l3,4l17,16l3,3l-3,4L63,502L63,502L63,502z M97,502l-10-11l-11,11l11,10L97,502z M90,482l16,17
	l3,3l-3,3l-16,17l-3,3l-4-3l-16-17l-3-3l3-3l16-17l4-3L90,482z M719,185L549,16l0,0v-1v1l0,0L377,187v1L546,20l3-4l3,4l166,165H719z
	"/>
<path id="XMLID_1_" d="M266,228c-17-19-41-29-72-29c-28-1-51,10-68,31c-15,19-23,42-25,69v10l-1,15l40,7c-1-8,1-24,1-33
	c1-18,6-33,14-45c9-14,22-20,39-20c38,0,56,26,56,77c0,14-1,26-4,37l39,6c4-13,5-27,5-43C290,275,282,248,266,228z M848,279
	c-9-11-21-17-36-20c-6-2-13-2-20-2s-13,0-19,2c-14,3-27,10-36,21c-14,15-21,35-21,59c0,25,6,45,20,60c13,15,32,23,56,23
	c23,0,42-8,56-23c13-15,20-35,20-60C868,313,861,293,848,279z M819,378c-7,9-16,13-27,13c-25,0-38-17-38-52c0-17,4-29,10-38
	c7-9,16-14,28-14c25,0,37,17,37,52C829,356,826,368,819,378z M716,227c3-2,4-5,4-8c0-7-5-12-12-12h-17v18c1,1,1,3,2,4c2,5,4,12,5,18
	h10c8,0,13-4,13-11C721,232,719,229,716,227z M701,216h6c2,0,3,1,3,3s-1,4-3,4h-6V216z M707,239h-6v-8h6c3,0,4,2,4,4
	S710,239,707,239z M746,207h-8l-15,40h11l2-6h12l2,6h10L746,207z M738,233l4-11l3,11H738z M787,231c2-1,3-2,4-3c1-2,2-5,2-8
	c0-7-5-13-13-13h-16v40h10v-15h3l7,15h12L787,231z M779,224h-5v-8h5c3,0,5,2,5,4S782,224,779,224z M825,227c3-2,5-5,5-8
	c0-7-5-12-13-12h-17v40h18c7,0,12-4,12-11C830,232,829,229,825,227z M817,239h-7v-8h7c2,0,3,2,3,4S819,239,817,239z M816,223h-6v-7
	h6c3,0,4,1,4,3S819,223,816,223z M864,216v-9h-27v40h27v-8h-17v-7h15v-9h-15v-7H864z M894,231c2-1,2-2,3-3c2-2,3-5,3-8
	c0-7-5-13-13-13h-16v40h10v-15h3l7,15h11L894,231z M886,224h-5v-8h5c3,0,4,2,4,4S889,224,886,224z M923,223l-5-1c-2,0-3-1-3-3
	s2-3,5-3h5c1,1,1,1,2,2l6-6c-2-2-3-3-5-4s-5-1-8-1c-9,0-15,5-15,13c0,6,4,10,11,11l5,1c2,0,3,1,3,3c0,3-2,4-5,4s-5,0-7-1
	c-1-1-1-1-2-2l-7,6c3,3,4,3,6,4s5,2,9,2c10,0,16-5,16-13C934,228,931,224,923,223z M961,207v16h-11v-16h-10v40h10v-16h11v16h9v-40
	H961z M1007,227v-3c0-6-1-10-4-13s-6-4-11-4c-4,0-8,1-11,4c-3,4-4,7-4,15v2c0,5,0,11,4,15c3,3,7,5,11,5c5,0,9-2,11-5
	C1008,239,1007,233,1007,227z M998,228c0,6-1,8-2,9s-2,2-4,2c-1,0-3-1-4-2s-1-3-1-9v-2c0-4,0-7,1-9c1-1,3-1,4-1c2,0,3,0,4,1
	c1,2,2,5,2,9V228z M1030,207h-16v40h10v-14h6c8,0,14-5,14-13C1044,213,1038,207,1030,207z M1029,224h-5v-8h5c3,0,5,2,5,4
	S1032,224,1029,224z M318,201v157l36,5h1V192L318,201z M493,201v63c-10-5-21-7-33-7c-22,0-40,8-55,23c-14,16-22,37-22,62
	c0,8,1,16,2,23l1,3l45,7h1c-2-2-3-4-4-6c-4-7-6-17-6-28c0-17,4-30,12-39s19-14,34-14c9,0,17,3,25,10v86l37,6V192L493,201z M664,296
	c19-10,28-24,28-41c0-18-7-31-19-41c-13-10-31-15-53-15c-12,0-33,1-62,2l-3,192l22,4l83,12l10,2c4-3,9-8,12-10c15-11,23-27,23-47
	C705,325,691,305,664,296z M597,232h22c23,0,34,8,34,25c0,19-12,28-38,28c-6,0-12,0-18-1V232z M653,378c-8,6-20,9-37,9
	c-5,0-12,0-19-1v-71c9-1,15-1,19-1c18,0,31,3,38,9c7,5,11,14,11,27S661,373,653,378z M988,260l-39,109l-44-109h-38l50,123
	c7,18,11,31,11,41c1,3,0,4-1,6c-1,3-2,5-4,8c-3,2-7,6-14,8c-4,1-8,1-13,2h-10l-14,16l14,17c1.5,0.1,3,0.1,4.5,0.1
	c49.5,0,64.5-32.1,64.5-32.1l1-1l71-188H988z"/>
<path d="M748,448c-12,0-67,2-76-15c-45-12-23,32-41-6l16-4l-547-83l-3,89l357,48l1-51l118,13c-24,32-180,94-212,107l-216,79
	c-6,2-9,3-13,8c-16,16-21,50,10,64c4,2,7,3,12,3c63,1,247-99,299-127c28-16,182-115,203-111c34,5,57,19,95,19l10-17L748,448z
	 M167,673c-8,0-13-6-13-14c0-7,5-13,13-12c7,0,13,6,13,13S174,673,167,673z M602,466c-7,0-13-6-13-13s6-13,13-13s13,6,13,13
	C615,461,609.3,465.8,602,466z"/>
</svg>
