<?xml version="1.0" encoding="UTF-8"?>
<!DOCTYPE svg PUBLIC "-//W3C//DTD SVG 1.1//EN" "http://www.w3.org/Graphics/SVG/1.1/DTD/svg11.dtd">
<!-- Creator: CorelDRAW X7 -->
<svg xmlns="http://www.w3.org/2000/svg" xml:space="preserve" width="1098px" height="1004px" version="1.1" style="shape-rendering:geometricPrecision; text-rendering:geometricPrecision; image-rendering:optimizeQuality; fill-rule:evenodd; clip-rule:evenodd"
viewBox="0 0 1098 1004"
 xmlns:xlink="http://www.w3.org/1999/xlink">
 <defs>
  <style type="text/css">
   <![CDATA[
    .fil2 {fill:black}
    .fil0 {fill:#EF7F1A;fill-rule:nonzero}
    .fil3 {fill:black;fill-rule:nonzero}
    .fil1 {fill:#D5A353;fill-rule:nonzero}
   ]]>
  </style>
 </defs>
 <g id="Слой_x0020_1">
  <metadata id="CorelCorpID_0Corel-Layer"/>
  <path class="fil0" d="M225 670l-45 -45 9 -4 46 46c-4,1 -7,2 -10,3z"/>
  <path class="fil0" d="M933 393l22 22 -3 10 -13 -13c-1,-3 -2,-6 -3,-9 -1,-3 -2,-6 -3,-10z"/>
  <path class="fil1" d="M174 942l323 0 11 0 82 0 11 0 317 0 10 10 -336 0 -40 39 -3 3 -3 -3 -40 -39 -341 0 9 -10zm804 -504l33 34 20 -20 4 -4 3 4 47 46 3 4 -3 3 -47 47 -3 3 -4 -3 -20 -20 -234 235 151 0 -10 9 -151 0 -2 0 -432 0 -2 0 -157 0 -9 -9 156 0 -74 -74c4,-1 7,-3 10,-4l78 78c225,0 241,0 428,0l242 -242 -20 -20 -4 -3 4 -4 20 -20 -31 -30 4 -10zm40 40l20 20 4 4 -4 3 -20 20 17 17 40 -40 -40 -40 -17 16zm-7 7l-16 17 16 16 17 -16 -17 -17zm-462 496l29 -29 -58 0 29 29z"/>
  <path class="fil1" d="M157 602l-70 -70 -20 20 -4 3 -3 -3 -47 -47 -3 -3 3 -4 47 -46 3 -4 4 4 20 20 23 -24 12 2 -29 28 20 20 4 4 -4 3 -20 20 74 74 -10 3zm-77 -77l-20 -20 -4 -3 4 -4 20 -20 -17 -16 -40 40 40 40 17 -17zm23 -23l-16 -17 -17 17 17 16 16 -16z"/>
  <polygon class="fil1" points="552,13 730,190 716,190 549,23 373,199 373,192 373,185 546,13 549,9 "/>
  <path class="fil1" d="M556 9l177 178 7 7 -10 0 -14 0 -2 0 -1 -1 -164 -164 -173 173 -8 8 0 -11 0 -7 0 -7 0 -1 2 -2 172 -173 0 0 4 -3 3 -3 3 3 3 3 1 0zm-382 929l323 0 11 0 82 0 11 0 317 0 2 0 1 1 10 10 7 7 -10 0 -335 0 -37 38 -4 4 -3 3 -3 -3 -4 -4 -37 -38 -340 0 -11 0 8 -7 9 -10 1 -1 2 0zm323 9l-321 0 -1 0 331 0 2 0 1 2 40 39 0 0 0 0 40 -39 1 -2 2 0 325 0 -1 0 -315 0 -11 0 -82 0 -11 0zm484 -512l30 30 17 -17 0 0 4 -3 3 -3 3 3 3 3 0 0 47 47 4 4 3 3 -3 3 -4 3 -47 47 -3 3 -3 4 -3 -4 -4 -3 0 0 -17 -17 -223 224 140 0 10 0 -7 8 -10 9 -1 1 -2 0 -151 0 -2 0 -432 0 -2 0 -157 0 -2 0 -1 -1 -9 -9 -8 -8 11 0 145 0 -66 -66 -4 -5 6 -2c1,-1 2,-1 5,-2 2,-1 3,-2 4,-2l3 -1 2 2 76 76 426 0 236 -237 -16 -17 -4 -3 -3 -3 3 -3 4 -4 16 -17 -27 -27 -2 -2 1 -3 4 -9 2 -7 5 5zm27 40l-28 -29 -1 1 29 28 3 3 -3 4 -20 20 0 0 0 0 20 20 3 3 -3 3 -241 242 -2 1 -2 0 -428 0 -2 0 -2 -1 -75 -76 -1 0 69 69 8 8 -11 0 -146 0 1 1 155 0 2 0 432 0 2 0 149 0 1 -1 -140 0 -11 0 8 -8 234 -234 3 -3 4 3 20 20 0 0 0 0 0 0 47 -47 0 0 0 0 -47 -47 0 0 0 -1 0 1 0 0 -20 20 -4 3 -3 -3zm17 3l16 17 0 0 4 4 3 3 -3 3 -4 3 0 0 -16 17 10 11 34 -34 -34 -34 -10 10zm10 24l0 0 -20 -20 -3 -4 3 -3 17 -16 3 -4 3 4 40 40 3 3 -3 3 -40 40 -3 3 -3 -3 -17 -17 -3 -3 3 -3 20 -20 0 0 0 0 0 0zm-24 -11l-10 11 10 10 11 -10 -11 -11zm-19 8l16 -17 3 -3 4 3 16 17 3 3 -3 3 -16 17 -4 3 -3 -3 -16 -17 -3 -3 3 -3zm-443 476l18 -19 -36 0 18 19zm32 -20l-29 29 -3 3 -3 -3 -29 -29 -8 -8 11 0 58 0 11 0 -8 8zm-427 -350l-67 -67 -17 17 -4 3 -3 4 -3 -4 -3 -3 0 0 -47 -47 -4 -3 -3 -3 3 -3 4 -4 47 -47 0 0 3 -3 3 -3 3 3 4 3 0 0 17 17 20 -20 1 -1 2 0 12 1 9 2 -6 6 -25 25 16 17 4 4 3 3 -3 3 -4 3 -16 17 70 70 5 5 -7 3 -10 3 -2 1 -2 -2zm-64 -76l68 68 1 0 -69 -69 -3 -3 3 -3 20 -20 0 0 0 0 -20 -20 -3 -4 3 -3 22 -22 -1 0 -21 22 -3 3 -4 -3 -20 -20 0 0 0 -1 0 1 0 0 -47 47 0 0 0 0 47 47 0 0 0 0 0 0 20 -20 4 -3 3 3zm-17 -4l-16 -17 -4 -3 -3 -3 3 -3 4 -4 16 -17 -10 -10 -34 34 34 34 10 -11zm-10 -23l20 20 3 3 -3 3 -17 17 -3 3 -3 -3 -40 -40 -3 -3 3 -3 40 -40 3 -4 3 4 17 16 3 3 -3 4 -20 20 0 0 0 0zm34 0l-10 -11 -11 11 11 10 10 -10zm-7 -20l16 17 3 3 -3 3 -16 17 -3 3 -4 -3 -16 -17 -3 -3 3 -3 16 -17 4 -3 3 3zm629 -297l-170 -169 0 0 0 -1 0 1 0 0 -172 171 0 1 169 -168 3 -4 3 4 166 165 1 0z"/>
  <path class="fil2" d="M672 433c9,17 64,15 76,15l13 16 -10 17c-38,0 -61,-14 -95,-19 -21,-4 -175,95 -203,111 -52,28 -236,128 -299,127 -5,0 -8,-1 -12,-3 -31,-14 -26,-48 -10,-64 4,-5 7,-6 13,-8l216 -79c32,-13 188,-75 212,-107l-118 -13 -1 51 -357 -48 3 -89 547 83 -16 4c18,38 -4,-6 41,6zm-571 -125l0 -1 0 -8c2,-27 10,-50 25,-69 17,-21 40,-32 68,-31 31,0 55,10 72,29 16,20 24,47 24,82 0,16 -1,30 -5,43l-39 -6c3,-11 4,-23 4,-37 0,-51 -18,-77 -56,-77 -17,0 -30,6 -39,20 -8,12 -13,27 -14,45 0,9 -2,25 -1,33l-40 -7 1 -15c0,0 0,-1 0,-1zm711 -49c-6,-2 -13,-2 -20,-2 -7,0 -13,0 -19,2 -14,3 -27,10 -36,21 -14,15 -21,35 -21,59 0,25 6,45 20,60 13,15 32,23 56,23 23,0 42,-8 56,-23 13,-15 20,-35 20,-60 0,-26 -7,-46 -20,-60 -9,-11 -21,-17 -36,-20zm-96 -32c3,-2 4,-5 4,-8 0,-7 -5,-12 -12,-12l-17 0 0 18c1,1 1,3 2,4 2,5 4,12 5,18l10 0c8,0 13,-4 13,-11 0,-4 -2,-7 -5,-9zm-15 -4l0 -7 6 0c2,0 3,1 3,3 0,2 -1,4 -3,4l-6 0zm0 16l0 -8 6 0c3,0 4,2 4,4 0,2 -1,4 -4,4l-6 0zm59 8l-14 -40 -8 0 -15 40 11 0 2 -6 12 0 2 6 10 0zm-15 -14l-7 0 4 -11 3 11zm51 14l-9 -16c2,-1 3,-2 4,-3 1,-2 2,-5 2,-8 0,-7 -5,-13 -13,-13l-16 0 0 40 10 0 0 -15 3 0 7 15 12 0zm-22 -23l0 -8 5 0c3,0 5,2 5,4 0,2 -2,4 -5,4l-5 0zm51 3c3,-2 5,-5 5,-8 0,-7 -5,-12 -13,-12l-17 0 0 40 18 0c7,0 12,-4 12,-11 0,-4 -1,-7 -5,-9zm-15 -4l0 -7 6 0c3,0 4,1 4,3 0,2 -1,4 -4,4l-6 0zm0 16l0 -8 7 0c2,0 3,2 3,4 0,2 -1,4 -3,4l-7 0zm54 8l0 -8 -17 0 0 -7 15 0 0 -9 -15 0 0 -7 17 0 0 -9 -27 0 0 40 27 0zm38 0l-8 -16c2,-1 2,-2 3,-3 2,-2 3,-5 3,-8 0,-7 -5,-13 -13,-13l-16 0 0 40 10 0 0 -15 3 0 7 15 11 0zm-21 -23l0 -8 5 0c3,0 4,2 4,4 0,2 -1,4 -4,4l-5 0zm46 -6l6 -6c-2,-2 -3,-3 -5,-4 -2,-1 -5,-1 -8,-1 -9,0 -15,5 -15,13 0,6 4,10 11,11l5 1c2,0 3,1 3,3 0,3 -2,4 -5,4 -3,0 -5,0 -7,-1 -1,-1 -1,-1 -2,-2l-7 6c3,3 4,3 6,4 2,1 5,2 9,2 10,0 16,-5 16,-13 0,-7 -3,-11 -11,-12l-5 -1c-2,0 -3,-1 -3,-3 0,-2 2,-3 5,-3 2,0 4,0 5,0 1,1 1,1 2,2zm43 29l0 -40 -9 0 0 16 -11 0 0 -16 -10 0 0 40 10 0 0 -16 11 0 0 16 9 0zm37 -20l0 -3c0,-6 -1,-10 -4,-13 -3,-3 -6,-4 -11,-4 -4,0 -8,1 -11,4 -3,4 -4,7 -4,15l0 2c0,5 0,11 4,15 3,3 7,5 11,5 5,0 9,-2 11,-5 5,-4 4,-10 4,-16zm-19 -10c1,-1 3,-1 4,-1 2,0 3,0 4,1 1,2 2,5 2,9l0 2c0,6 -1,8 -2,9 -1,1 -2,2 -4,2 -1,0 -3,-1 -4,-2 -1,-1 -1,-3 -1,-9l0 -2c0,-4 0,-7 1,-9zm26 -10l0 40 10 0 0 -14 6 0c8,0 14,-5 14,-13 0,-7 -6,-13 -14,-13l-16 0zm10 17l0 -8 5 0c3,0 5,2 5,4 0,2 -2,4 -5,4l-5 0zm-706 -23l37 -9 0 171 -1 0 -36 -5 0 -157zm67 164c-1,-7 -2,-15 -2,-23 0,-25 8,-46 22,-62 15,-15 33,-23 55,-23 12,0 23,2 33,7l0 -63 37 -9 0 198 -37 -6 0 -86c-8,-7 -16,-10 -25,-10 -15,0 -26,5 -34,14 -8,9 -12,22 -12,39 0,11 2,21 6,28 1,2 2,4 4,6l-1 0 -45 -7 -1 -3zm170 28l3 -192c29,-1 50,-2 62,-2 22,0 40,5 53,15 12,10 19,23 19,41 0,17 -9,31 -28,41 27,9 41,29 41,58 0,20 -8,36 -23,47 -3,2 -8,7 -12,10l-10 -2 -83 -12 0 0 -22 -4 0 0zm42 -161l0 52c6,1 12,1 18,1 26,0 38,-9 38,-28 0,-17 -11,-25 -34,-25 -6,0 -14,0 -22,0zm0 83l0 71c7,1 14,1 19,1 17,0 29,-3 37,-9 8,-5 12,-15 12,-28 0,-13 -4,-22 -11,-27 -7,-6 -20,-9 -38,-9 -4,0 -10,0 -19,1zm157 24c0,35 13,52 38,52 11,0 20,-4 27,-13 7,-10 10,-22 10,-39 0,-35 -12,-52 -37,-52 -12,0 -21,5 -28,14 -6,9 -10,21 -10,38zm132 142l0 0 -14 -17 14 -16c3,0 6,0 10,0 5,-1 9,-1 13,-2 7,-2 11,-6 14,-8 2,-3 3,-5 4,-8 1,-2 2,-3 1,-6 0,-10 -4,-23 -11,-41l-50 -123 38 0 44 109 39 -109 39 0 -71 188 -1 1 0 0c0,0 -16,34 -69,32l0 0zm-284 -41c7,0 13,6 13,13 0,8 -6,14 -13,13 -7,0 -13,-6 -13,-13 0,-7 6,-13 13,-13zm-435 207c7,0 13,6 13,13 0,7 -6,13 -13,13 -8,0 -13,-6 -13,-14 0,-7 5,-13 13,-12z"/>
  <path class="fil3" d="M203 827l-4 0 -3 0 0 -3 0 -11 0 -3 3 0 18 0 3 0 0 3 0 39 16 0 0 -39 0 -3 3 0 11 0 3 0 0 3 0 95 0 3 -3 0 -11 0 -3 0 0 -3 0 -39 -16 0 0 39 0 3 -3 0 -11 0 -3 0 0 -3 0 -80 0 -1zm91 47l12 0 -6 -39 -6 39zm-10 -47l-2 0 -3 0 0 -3 0 -12 0 -3 3 0 29 0 3 0 0 3 15 95 0 4 -3 0 -12 0 -3 0 0 -3 -2 -16 -17 0 -2 16 -1 3 -2 0 -12 0 -3 0 0 -4 12 -80 0 0zm127 0l-10 0 0 81 0 3 -3 0 -12 0 -3 0 0 -3 0 -80 0 -1 -4 0 -3 0 0 -3 0 -11 0 -3 3 0 46 0 3 0 0 3 0 22 0 3 -3 0 -11 0 -3 0 0 -3 0 -8zm47 0l0 0 -2 0 -3 0 0 -3 0 -12 0 -3 3 0 41 0 3 0 0 3 0 96 0 3 -3 0 -12 0 -3 0 0 -3 0 -81 -6 0 -12 81 0 3 -2 0 -18 0 -3 0 0 -3 0 -11 0 -3 3 0 5 0 9 -67zm82 47l12 0 -6 -39 -6 39zm-10 -47l-2 0 -3 0 0 -3 0 -12 0 -3 3 0 29 0 3 0 0 3 15 95 0 4 -3 0 -12 0 -3 0 0 -3 -2 -16 -17 0 -2 16 -1 3 -2 0 -12 0 -3 0 0 -4 12 -80 0 0zm82 0l0 24 8 0 5 -6 0 -12 -6 -6 -7 0zm9 41l-9 0 0 25 10 0 6 -6 0 -12 -7 -7zm-27 -41l-3 0 -3 0 0 -3 0 -11 0 -3 3 0 34 0 2 0 0 0 15 15 1 1 0 1 0 23 0 1 -1 1 -5 6 7 8 1 1 0 1 0 26 0 1 -1 1 -14 14 -1 1 -1 0 -31 0 -3 0 0 -3 0 -80 0 -1zm76 0l-4 0 -3 0 0 -3 0 -11 0 -3 3 0 18 0 3 0 0 3 0 39 16 0 0 -39 0 -3 3 0 11 0 3 0 0 3 0 95 0 3 -3 0 -11 0 -3 0 0 -3 0 -39 -16 0 0 39 0 3 -3 0 -11 0 -3 0 0 -3 0 -80 0 -1zm95 6l5 16 5 -16 0 0 7 -22 1 -2 2 0 12 0 4 0 -1 4 -31 96 -1 2 -2 0 -12 0 -4 0 1 -4 10 -33 -16 -47 0 -1 -5 0 -3 0 0 -3 0 -11 0 -3 3 0 15 0 2 0 1 2 7 22zm104 61l5 0 6 -7 0 -56 -6 -5 -5 0 -6 5 0 56 6 7zm13 -85l15 14 1 1 0 2 0 67 0 1 -1 1 -15 15 0 1 -2 0 -17 0 -1 0 -1 -1 -14 -15 -1 -1 0 -1 0 -24 -11 0 0 39 0 3 -2 0 -12 0 -3 0 0 -3 0 -80 0 -1 -4 0 -3 0 0 -3 0 -11 0 -3 3 0 19 0 2 0 0 3 0 39 11 0 0 -26 0 -2 1 -1 14 -14 1 -1 1 0 17 0 2 0 0 1z"/>
 </g>
</svg>
