<svg version="1.1" id="Layer_1" xmlns="http://www.w3.org/2000/svg" x="0" y="0" viewBox="0 0 1098 1004" xml:space="preserve"><style>.st0{fill:#d5a353}</style><path class="st0" d="M174 942h744l10 10H592l-40 39-3 3-3-3-40-39H165l9-10zm804-504l33 34 20-20 4-4 3 4 47 46 3 4-3 3-47 47-3 3-4-3-20-20-234 235h151l-10 9H174l-9-9h156l-74-74c4-1 7-3 10-4l78 78h428l242-242-20-20-4-3 4-4 20-20-31-30 4-10zm40 40l20 20 4 4-4 3-20 20 17 17 40-40-40-40-17 16zm-7 7l-16 17 16 16 17-16-17-17zM549 981l29-29h-58l29 29zM157 602l-70-70-20 20-4 3-3-3-47-47-3-3 3-4 47-46 3-4 4 4 20 20 23-24 12 2-29 28 20 20 4 4-4 3-20 20 74 74-10 3zm-77-77l-20-20-4-3 4-4 20-20-17-16-40 40 40 40 17-17zm23-23l-16-17-17 17 17 16 16-16zM552 13l178 177h-14L549 23 373 199v-14L546 13l3-4z"/><path class="st0" d="M556 9l177 178 7 7h-26l-1-1L549 29 376 202l-8 8v-26l2-2L542 9l4-3 3-3 3 3 3 3h1zM174 938h746l1 1 10 10 7 7H593l-37 38-4 4-3 3-3-3-4-4-37-38H154l8-7 9-10 1-1h2zm323 9H175h333l1 2 40 39 40-39 1-2h327-420zm484-512l30 30 17-17 4-3 3-3 3 3 3 3 47 47 4 4 3 3-3 3-4 3-47 47-3 3-3 4-3-4-4-3-17-17-223 224h150l-7 8-10 9-1 1H172l-1-1-9-9-8-8h156l-66-66-4-5 6-2c1-1 2-1 5-2 2-1 3-2 4-2l3-1 2 2 76 76h426l236-237-16-17-4-3-3-3 3-3 4-4 16-17-27-27-2-2 1-3 4-9 2-7 5 5zm27 40l-28-29-1 1 29 28 3 3-3 4-20 20 20 20 3 3-3 3-241 242-2 1H333l-2-1-75-76h-1l69 69 8 8H175l1 1h740l1-1H766l8-8 234-234 3-3 4 3 20 20 47-47-47-47v-1 1l-20 20-4 3-3-3zm17 3l16 17 4 4 3 3-3 3-4 3-16 17 10 11 34-34-34-34-10 10zm10 24l-20-20-3-4 3-3 17-16 3-4 3 4 40 40 3 3-3 3-40 40-3 3-3-3-17-17-3-3 3-3 20-20zm-24-11l-10 11 10 10 11-10-11-11zm-19 8l16-17 3-3 4 3 16 17 3 3-3 3-16 17-4 3-3-3-16-17-3-3 3-3zM549 975l18-19h-36l18 19zm32-20l-29 29-3 3-3-3-29-29-8-8h80l-8 8zM154 605l-67-67-17 17-4 3-3 4-3-4-3-3-47-47-4-3-3-3 3-3 4-4 47-47 3-3 3-3 3 3 4 3 17 17 20-20 1-1h2l12 1 9 2-6 6-25 25 16 17 4 4 3 3-3 3-4 3-16 17 70 70 5 5-7 3-10 3-2 1-2-2zm-64-76l68 68h1l-69-69-3-3 3-3 20-20-20-20-3-4 3-3 22-22h-1l-21 22-3 3-4-3-20-20v-1 1l-47 47 47 47 20-20 4-3 3 3zm-17-4l-16-17-4-3-3-3 3-3 4-4 16-17-10-10-34 34 34 34 10-11zm-10-23l20 20 3 3-3 3-17 17-3 3-3-3-40-40-3-3 3-3 40-40 3-4 3 4 17 16 3 3-3 4-20 20zm34 0l-10-11-11 11 11 10 10-10zm-7-20l16 17 3 3-3 3-16 17-3 3-4-3-16-17-3-3 3-3 16-17 4-3 3 3zm629-297L549 16v-1 1L377 187v1L546 20l3-4 3 4 166 165h1z"/><path id="XMLID_1_" d="M266 228c-17-19-41-29-72-29-28-1-51 10-68 31-15 19-23 42-25 69v10l-1 15 40 7c-1-8 1-24 1-33 1-18 6-33 14-45 9-14 22-20 39-20 38 0 56 26 56 77 0 14-1 26-4 37l39 6c4-13 5-27 5-43 0-35-8-62-24-82zm582 51c-9-11-21-17-36-20-6-2-13-2-20-2s-13 0-19 2c-14 3-27 10-36 21-14 15-21 35-21 59 0 25 6 45 20 60 13 15 32 23 56 23 23 0 42-8 56-23 13-15 20-35 20-60 0-26-7-46-20-60zm-29 99c-7 9-16 13-27 13-25 0-38-17-38-52 0-17 4-29 10-38 7-9 16-14 28-14 25 0 37 17 37 52 0 17-3 29-10 39zM716 227c3-2 4-5 4-8 0-7-5-12-12-12h-17v18c1 1 1 3 2 4 2 5 4 12 5 18h10c8 0 13-4 13-11 0-4-2-7-5-9zm-15-11h6c2 0 3 1 3 3s-1 4-3 4h-6v-7zm6 23h-6v-8h6c3 0 4 2 4 4s-1 4-4 4zm39-32h-8l-15 40h11l2-6h12l2 6h10l-14-40zm-8 26l4-11 3 11h-7zm49-2c2-1 3-2 4-3 1-2 2-5 2-8 0-7-5-13-13-13h-16v40h10v-15h3l7 15h12l-9-16zm-8-7h-5v-8h5c3 0 5 2 5 4s-2 4-5 4zm46 3c3-2 5-5 5-8 0-7-5-12-13-12h-17v40h18c7 0 12-4 12-11 0-4-1-7-5-9zm-8 12h-7v-8h7c2 0 3 2 3 4s-1 4-3 4zm-1-16h-6v-7h6c3 0 4 1 4 3s-1 4-4 4zm48-7v-9h-27v40h27v-8h-17v-7h15v-9h-15v-7h17zm30 15c2-1 2-2 3-3 2-2 3-5 3-8 0-7-5-13-13-13h-16v40h10v-15h3l7 15h11l-8-16zm-8-7h-5v-8h5c3 0 4 2 4 4s-1 4-4 4zm37-1l-5-1c-2 0-3-1-3-3s2-3 5-3h5l2 2 6-6c-2-2-3-3-5-4s-5-1-8-1c-9 0-15 5-15 13 0 6 4 10 11 11l5 1c2 0 3 1 3 3 0 3-2 4-5 4s-5 0-7-1l-2-2-7 6c3 3 4 3 6 4s5 2 9 2c10 0 16-5 16-13 0-7-3-11-11-12zm38-16v16h-11v-16h-10v40h10v-16h11v16h9v-40h-9zm46 20v-3c0-6-1-10-4-13s-6-4-11-4c-4 0-8 1-11 4-3 4-4 7-4 15v2c0 5 0 11 4 15 3 3 7 5 11 5 5 0 9-2 11-5 5-4 4-10 4-16zm-9 1c0 6-1 8-2 9s-2 2-4 2c-1 0-3-1-4-2s-1-3-1-9v-2c0-4 0-7 1-9 1-1 3-1 4-1 2 0 3 0 4 1 1 2 2 5 2 9v2zm32-21h-16v40h10v-14h6c8 0 14-5 14-13 0-7-6-13-14-13zm-1 17h-5v-8h5c3 0 5 2 5 4s-2 4-5 4zm-711-23v157l36 5h1V192l-37 9zm175 0v63c-10-5-21-7-33-7-22 0-40 8-55 23-14 16-22 37-22 62 0 8 1 16 2 23l1 3 45 7h1c-2-2-3-4-4-6-4-7-6-17-6-28 0-17 4-30 12-39s19-14 34-14c9 0 17 3 25 10v86l37 6V192l-37 9zm171 95c19-10 28-24 28-41 0-18-7-31-19-41-13-10-31-15-53-15-12 0-33 1-62 2l-3 192 22 4 83 12 10 2c4-3 9-8 12-10 15-11 23-27 23-47 0-29-14-49-41-58zm-67-64h22c23 0 34 8 34 25 0 19-12 28-38 28-6 0-12 0-18-1v-52zm56 146c-8 6-20 9-37 9-5 0-12 0-19-1v-71c9-1 15-1 19-1 18 0 31 3 38 9 7 5 11 14 11 27s-4 23-12 28zm335-118l-39 109-44-109h-38l50 123c7 18 11 31 11 41 1 3 0 4-1 6-1 3-2 5-4 8-3 2-7 6-14 8-4 1-8 1-13 2h-10l-14 16 14 17c1.5.1 3 .1 4.5.1C940 481.1 955 449 955 449l1-1 71-188h-39z"/><path d="M748 448c-12 0-67 2-76-15-45-12-23 32-41-6l16-4-547-83-3 89 357 48 1-51 118 13c-24 32-180 94-212 107l-216 79c-6 2-9 3-13 8-16 16-21 50 10 64 4 2 7 3 12 3 63 1 247-99 299-127 28-16 182-115 203-111 34 5 57 19 95 19l10-17-13-16zM167 673c-8 0-13-6-13-14 0-7 5-13 13-12 7 0 13 6 13 13s-6 13-13 13zm435-207c-7 0-13-6-13-13s6-13 13-13 13 6 13 13c0 8-5.7 12.8-13 13z"/></svg>