<svg viewBox="0 0 143 144" style="fill:#d6a354;" xmlns="http://www.w3.org/2000/svg">
<g clip-path="url(#clip0)">
<path d="M126.487 94.818L106.785 21.2869C106.287 19.4296 105.072 17.846 103.407 16.8846C101.741 15.9232 99.7625 15.6627 97.9052 16.1604L20.8726 36.8012C19.0153 37.2988 17.4317 38.5139 16.4703 40.1791C15.5089 41.8443 15.2484 43.8233 15.7461 45.6806L19.968 61.4372L23.4695 60.499L22.0622 55.2468L106.098 32.7295L122.986 95.7562L126.487 94.818ZM21.124 51.7453L19.2475 44.7424C18.9987 43.8137 19.129 42.8242 19.6097 41.9916C20.0904 41.159 20.8821 40.5515 21.8108 40.3027L98.8434 19.6618C99.772 19.413 100.761 19.5433 101.594 20.024C102.427 20.5047 103.034 21.2964 103.283 22.2251L105.16 29.2281L21.124 51.7453Z" fill="#d6a354;"/>
<path d="M22.749 43.8041L26.2505 42.8659L27.1887 46.3673L23.6872 47.3056L22.749 43.8041Z" fill="#d6a354;"/>
<path d="M29.752 41.9276L33.2534 40.9894L34.1917 44.4909L30.6902 45.4291L29.752 41.9276Z" fill="#d6a354;"/>
<path d="M36.7549 40.0513L40.2564 39.1131L41.1946 42.6145L37.6931 43.5528L36.7549 40.0513Z" fill="#d6a354;"/>
<path d="M31.7294 133.343C32.1027 134.736 33.014 135.924 34.2629 136.645C35.5118 137.366 36.996 137.561 38.389 137.188L66.4008 129.682C67.7938 129.309 68.9815 128.398 69.7025 127.149C70.4236 125.9 70.619 124.416 70.2457 123.023C70.0798 122.427 69.8121 121.864 69.4545 121.358L69.7766 121.272C71.0716 120.92 72.1894 120.099 72.9122 118.968C73.6703 119.355 74.5087 119.557 75.3596 119.558C75.2493 120.441 75.358 121.338 75.6762 122.169C75.9945 123 76.5124 123.739 77.1843 124.323C77.8561 124.906 78.6613 125.315 79.5286 125.513C80.396 125.712 81.2989 125.694 82.1575 125.46L110.169 117.955C111.442 117.616 112.548 116.826 113.281 115.732C114.014 114.638 114.324 113.315 114.154 112.009C113.983 110.703 113.343 109.504 112.353 108.635C111.364 107.766 110.092 107.287 108.775 107.287C108.816 106.953 108.827 106.616 108.807 106.28L129.863 111.927C130.553 112.112 131.273 112.159 131.981 112.065C132.69 111.972 133.373 111.74 133.991 111.382C134.61 111.025 135.152 110.549 135.587 109.982C136.022 109.415 136.34 108.768 136.525 108.078C136.71 107.388 136.757 106.668 136.663 105.96C136.57 105.251 136.338 104.568 135.98 103.95C135.623 103.331 135.147 102.789 134.58 102.354C134.013 101.919 133.366 101.601 132.676 101.416L104.665 93.91C103.626 93.6303 102.527 93.6654 101.507 94.0107C100.488 94.356 99.5939 94.9961 98.9386 95.8498C98.2833 96.7036 97.896 97.7326 97.8259 98.8066C97.7558 99.8805 98.006 100.951 98.5448 101.883C98.6164 102.01 98.7145 102.117 98.797 102.236L73.9645 108.889C72.6694 109.241 71.5517 110.063 70.8289 111.193C69.6375 110.576 68.2591 110.424 66.962 110.768L66.6398 110.854C66.7325 109.879 66.5516 108.897 66.1175 108.019C65.6833 107.141 65.0131 106.402 64.1821 105.883C64.6426 105.019 64.8532 104.043 64.7901 103.066C64.7271 102.088 64.393 101.148 63.8252 100.35L64.1473 100.263C65.5403 99.89 66.7279 98.9786 67.449 97.7297C68.1701 96.4808 68.3654 94.9966 67.9922 93.6036C67.619 92.2107 66.7076 91.023 65.4587 90.302C64.2098 89.5809 62.7256 89.3855 61.3327 89.7588L53.1129 91.9612C55.8567 88.6932 57.4796 84.6311 57.743 80.3721C58.0064 76.1131 56.8964 71.882 54.5762 68.3007C52.256 64.7195 48.8481 61.9772 44.8534 60.4769C40.8587 58.9766 36.4881 58.7975 32.3841 59.9659C28.28 61.1344 24.6591 63.5887 22.0538 66.9681C19.4484 70.3475 17.9959 74.4737 17.91 78.7399C17.8241 83.0062 19.1092 87.1875 21.5764 90.669C24.0436 94.1506 27.5627 96.7487 31.6164 98.0815C31.0295 98.4814 30.5283 98.9943 30.1419 99.5901C29.7556 100.186 29.4919 100.853 29.3663 101.552C29.2407 102.251 29.2556 102.968 29.4103 103.661C29.565 104.354 29.8563 105.009 30.2672 105.588L29.945 105.675C28.928 105.942 28.0109 106.501 27.3059 107.281C26.6009 108.061 26.1384 109.03 25.9749 110.069C25.8115 111.108 25.9542 112.172 26.3855 113.131C26.8169 114.09 27.5182 114.903 28.4039 115.47C27.9204 116.404 27.7194 117.458 27.8254 118.505C27.9314 119.551 28.3398 120.544 29.0008 121.362C29.6618 122.18 30.5468 122.788 31.5475 123.111C32.5483 123.434 33.6215 123.459 34.6361 123.182L34.9583 123.096C34.8308 124.339 35.1647 125.585 35.8965 126.597L35.5743 126.684C34.1814 127.057 32.9937 127.968 32.2727 129.217C31.5516 130.466 31.3562 131.95 31.7294 133.343ZM66.7443 123.961C66.8687 124.425 66.8035 124.92 66.5632 125.336C66.3228 125.753 65.9269 126.056 65.4626 126.181L37.4508 133.687C36.9864 133.811 36.4917 133.746 36.0754 133.506C35.6591 133.265 35.3553 132.869 35.2309 132.405C35.1065 131.941 35.1716 131.446 35.412 131.03C35.6523 130.613 36.0482 130.31 36.5126 130.185L64.5244 122.679C64.9887 122.555 65.4835 122.62 65.8998 122.86C66.3161 123.101 66.6198 123.497 66.7443 123.961ZM109.231 114.453L81.2193 121.959C80.755 122.083 80.2602 122.018 79.8439 121.778C79.4276 121.537 79.1239 121.142 78.9994 120.677C78.875 120.213 78.9401 119.718 79.1805 119.302C79.4209 118.886 79.8167 118.582 80.2811 118.457L108.293 110.952C108.757 110.827 109.252 110.892 109.668 111.133C110.085 111.373 110.388 111.769 110.513 112.233C110.637 112.698 110.572 113.192 110.332 113.609C110.091 114.025 109.695 114.329 109.231 114.453ZM101.509 98.696C101.634 98.2317 101.937 97.8359 102.354 97.5954C102.491 97.5174 102.637 97.4567 102.789 97.4149C103.097 97.3325 103.421 97.3331 103.728 97.4167L131.739 104.923C131.975 104.978 132.198 105.081 132.394 105.224C132.589 105.368 132.754 105.549 132.879 105.757C133.003 105.965 133.084 106.197 133.118 106.437C133.151 106.677 133.136 106.922 133.073 107.156C133.01 107.39 132.901 107.61 132.752 107.801C132.603 107.992 132.417 108.152 132.205 108.27C131.993 108.388 131.759 108.462 131.518 108.489C131.277 108.515 131.033 108.492 130.8 108.422L105.418 101.621C104.972 101.434 104.504 101.307 104.025 101.244L102.784 100.91C102.32 100.785 101.924 100.481 101.684 100.065C101.444 99.6487 101.379 99.1541 101.504 98.6899L101.509 98.696ZM74.9031 112.393L102.915 104.887C103.097 104.847 103.284 104.836 103.469 104.853L104.288 105.073C104.597 105.252 104.846 105.519 105.003 105.84C105.161 106.161 105.22 106.521 105.174 106.875C105.127 107.229 104.977 107.562 104.742 107.831C104.507 108.101 104.198 108.294 103.853 108.388L75.8414 115.894C75.377 116.019 74.8823 115.953 74.466 115.713C74.0497 115.473 73.7459 115.077 73.6215 114.613C73.4971 114.148 73.5622 113.653 73.8026 113.237C74.0429 112.821 74.4388 112.517 74.9031 112.393ZM22.0959 83.3843C21.2608 80.2679 21.3687 76.9739 22.4057 73.9188C23.4428 70.8637 25.3625 68.1848 27.9221 66.2207C30.4817 64.2567 33.5662 63.0957 36.7856 62.8847C40.005 62.6737 43.2147 63.4221 46.0088 65.0353C48.8028 66.6484 51.0558 69.0539 52.4828 71.9475C53.9097 74.841 54.4466 78.0928 54.0255 81.2915C53.6043 84.4902 52.2442 87.4922 50.1169 89.9179C47.9897 92.3435 45.1909 94.0839 42.0745 94.919C37.8958 96.0337 33.4455 95.4453 29.7 93.2828C25.9546 91.1204 23.2198 87.5605 22.0959 83.3843ZM32.9774 102.986C32.853 102.522 32.9181 102.027 33.1585 101.61C33.3988 101.194 33.7947 100.89 34.259 100.766L62.2709 93.2602C62.7352 93.1358 63.2299 93.201 63.6462 93.4413C64.0625 93.6817 64.3663 94.0775 64.4907 94.5419C64.6151 95.0062 64.55 95.5009 64.3097 95.9172C64.0693 96.3335 63.6734 96.6373 63.2091 96.7617L35.1972 104.267C34.7329 104.392 34.2382 104.327 33.8219 104.086C33.4056 103.846 33.1018 103.45 32.9774 102.986ZM30.8832 109.176L58.8951 101.671C59.3594 101.546 59.8541 101.611 60.2704 101.852C60.6867 102.092 60.9905 102.488 61.1149 102.952C61.2394 103.416 61.1742 103.911 60.9339 104.328C60.6935 104.744 60.2976 105.048 59.8333 105.172L31.8215 112.678C31.3571 112.802 30.8624 112.737 30.4461 112.497C30.0298 112.256 29.726 111.86 29.6016 111.396C29.4772 110.932 29.5423 110.437 29.7827 110.021C30.023 109.604 30.4189 109.301 30.8832 109.176ZM31.478 118.399C31.3536 117.935 31.4188 117.44 31.6591 117.024C31.8995 116.607 32.2954 116.304 32.7597 116.179L60.7715 108.673C61.2358 108.549 61.7306 108.614 62.1469 108.855C62.5632 109.095 62.867 109.491 62.9914 109.955C63.1158 110.419 63.0507 110.914 62.8103 111.33C62.57 111.747 62.1741 112.051 61.7097 112.175L33.6979 119.681C33.2336 119.805 32.7388 119.74 32.3225 119.5C31.9062 119.259 31.6025 118.863 31.478 118.399ZM38.6067 123.995C38.4823 123.53 38.5474 123.036 38.7878 122.619C39.0281 122.203 39.424 121.899 39.8883 121.775L67.9002 114.269C68.3645 114.145 68.8592 114.21 69.2755 114.45C69.6918 114.691 69.9956 115.086 70.12 115.551C70.2445 116.015 70.1793 116.51 69.939 116.926C69.6986 117.342 69.3027 117.646 68.8384 117.771L40.8266 125.276C40.3622 125.401 39.8675 125.336 39.4512 125.095C39.0349 124.855 38.7311 124.459 38.6067 123.995Z" fill="#d6a354;"/>
<path d="M42.4179 89.1976L41.8808 87.193C42.751 86.6434 43.4367 85.8458 43.8497 84.903C44.2626 83.9602 44.3839 82.9153 44.1978 81.903C44.0118 80.8907 43.5269 79.9573 42.8057 79.2229C42.0845 78.4886 41.1599 77.987 40.1511 77.7827L36.2816 76.99C35.94 76.9202 35.6319 76.7372 35.4073 76.4705C35.1827 76.2039 35.0548 75.8692 35.0441 75.5207C35.0335 75.1722 35.1408 74.8303 35.3487 74.5504C35.5566 74.2705 35.8529 74.069 36.1896 73.9786L36.7008 73.8416C37.0973 73.7363 37.5193 73.7924 37.8746 73.9975C38.2299 74.2026 38.4895 74.5401 38.5966 74.9361L38.665 75.1917L42.1665 74.2535L42.098 73.9979C41.8101 72.9389 41.1922 71.9992 40.3341 71.3151C39.476 70.631 38.4223 70.2381 37.3257 70.1933L36.7886 68.1887L33.2871 69.127L33.8243 71.1316C32.954 71.6812 32.2683 72.4788 31.8553 73.4216C31.4424 74.3644 31.3211 75.4093 31.5072 76.4216C31.6933 77.4339 32.1781 78.3673 32.8994 79.1017C33.6206 79.836 34.5451 80.3376 35.5539 80.5419L39.4235 81.3346C39.7651 81.4044 40.0731 81.5874 40.2977 81.8541C40.5223 82.1207 40.6503 82.4554 40.6609 82.8039C40.6716 83.1524 40.5643 83.4943 40.3564 83.7742C40.1485 84.0541 39.8522 84.2556 39.5155 84.346L39.0042 84.483C38.6077 84.5883 38.1857 84.5322 37.8304 84.3271C37.4752 84.122 37.2156 83.7845 37.1085 83.3885L37.04 83.1329L33.5385 84.0711L33.607 84.3267C33.895 85.3857 34.5128 86.3254 35.3709 87.0095C36.2291 87.6936 37.2828 88.0865 38.3793 88.1313L38.9164 90.1359L42.4179 89.1976Z" fill="#d6a354;"/>
<path d="M25.1282 80.6953L28.6297 79.7571L29.5679 83.2586L26.0665 84.1968L25.1282 80.6953Z" fill="#d6a354;"/>
<path d="M46.1371 75.066L49.6386 74.1278L50.5768 77.6293L47.0753 78.5675L46.1371 75.066Z" fill="#d6a354;"/>
<path d="M71.7114 79.472L75.2129 78.5338L76.1511 82.0353L72.6496 82.9735L71.7114 79.472Z" fill="#d6a354;"/>
<path d="M78.7144 77.5956L106.726 70.0898L107.664 73.5913L79.6526 81.0971L78.7144 77.5956Z" fill="#d6a354;"/>
<path d="M70.0864 87.4132L108.603 77.0928L109.541 80.5943L71.0246 90.9147L70.0864 87.4132Z" fill="#d6a354;"/>
<path d="M71.9628 94.4163L106.978 85.0341L107.916 88.5356L72.901 97.9177L71.9628 94.4163Z" fill="#d6a354;"/>
<path d="M108.82 63.8995L102.722 41.1398C102.598 40.6755 102.294 40.2796 101.877 40.0393C101.461 39.7989 100.966 39.7338 100.502 39.8582L58.4843 51.1168C58.02 51.2412 57.6241 51.545 57.3838 51.9613C57.1434 52.3776 57.0783 52.8724 57.2027 53.3367L63.3011 76.0963C63.4255 76.5606 63.7293 76.9565 64.1456 77.1969C64.5619 77.4372 65.0566 77.5024 65.521 77.3779L107.539 66.1193C108.003 65.9949 108.399 65.6911 108.639 65.2748C108.88 64.8585 108.945 64.3638 108.82 63.8995ZM104.85 63.0869L66.3335 73.4073L61.1733 54.1492L99.6896 43.8288L104.85 63.0869Z" fill="#d6a354;"/>
<path d="M99.4719 57.0221L95.9704 57.9604L93.6248 49.2067L90.1234 50.1449L92.4689 58.8986L88.9674 59.8368L87.091 52.8338L83.5895 53.772L85.4659 60.775L81.9645 61.7132L80.5571 56.461L77.0556 57.3992L78.463 62.6514L74.9615 63.5897L74.0233 60.0882L70.5218 61.0264L71.46 64.5279L67.9585 65.4661L68.8968 68.9676L100.41 60.5236L99.4719 57.0221Z" fill="#d6a354;"/>
<path d="M22.4976 28.86L71.5184 15.7249L72.4566 19.2264L23.4358 32.3615L22.4976 28.86Z" fill="#d6a354;"/>
<path d="M75.0198 14.7866L78.5213 13.8484L79.4595 17.3499L75.958 18.2881L75.0198 14.7866Z" fill="#d6a354;"/>
<path d="M115.446 39.6068L118.948 38.6686L130.675 82.4371L127.174 83.3753L115.446 39.6068Z" fill="#d6a354;"/>
</g>
<defs>
<clipPath id="clip0">
<rect x="0.550507" y="30.9878" width="116" height="116" transform="rotate(-15 0.550507 30.9878)" fill="white"/>
</clipPath>
</defs>
</svg>
