<svg height="512" viewBox="0 0 64 64" width="512" xmlns="http://www.w3.org/2000/svg"><path d="m58 52v-42a4 4 0 0 0 -4-4h-44a4 4 0 0 0 -4 4v9h2v-3h48v36zm-50-38v-4a2 2 0 0 1 2-2h44a2 2 0 0 1 2 2v4z"/><path d="m10 10h2v2h-2z"/><path d="m14 10h2v2h-2z"/><path d="m18 10h2v2h-2z"/><path d="m2 59a3 3 0 0 0 3 3h16a3 3 0 0 0 3-3 2.966 2.966 0 0 0 -.184-1h.184a2.981 2.981 0 0 0 2-.78 2.986 2.986 0 0 0 1.22.664 2.99 2.99 0 0 0 2.78 4.116h16a2.993 2.993 0 0 0 .78-5.884 3.086 3.086 0 0 0 .161-.532l10.415 6.016a3 3 0 1 0 3-5.2l-13.856-8a3 3 0 0 0 -4.4 3.375c.02.078.057.149.084.224h-14.184a2.981 2.981 0 0 0 -2 .78 2.981 2.981 0 0 0 -2-.779h-.184a2.908 2.908 0 0 0 -.6-3 2.908 2.908 0 0 0 .6-3h.184a3 3 0 0 0 0-6h-4.695a11 11 0 1 0 -12.33.192 2.948 2.948 0 0 0 -1.791 3.808h-.184a2.987 2.987 0 0 0 -2.22 5 2.987 2.987 0 0 0 2.22 5h.184a2.809 2.809 0 0 0 0 2h-.184a3 3 0 0 0 -3 3zm20 0a1 1 0 0 1 -1 1h-16a1 1 0 0 1 0-2h16a1 1 0 0 1 1 1zm24 1h-16a1 1 0 0 1 0-2h16a1 1 0 0 1 0 2zm-1.865-9.5a1 1 0 0 1 .607-.466 1.049 1.049 0 0 1 .258-.034.994.994 0 0 1 .5.135l13.856 8a1 1 0 1 1 -1 1.731l-12.556-7.249a2.977 2.977 0 0 0 -.688-.4l-.614-.355a1 1 0 0 1 -.365-1.366zm-16.135 3.5h16a.99.99 0 0 1 .3.061l.405.234a1 1 0 0 1 -.705 1.705h-16a1 1 0 0 1 0-2zm-24-23a9 9 0 1 1 9 9 9.01 9.01 0 0 1 -9-9zm3 12a1 1 0 0 1 1-1h16a1 1 0 0 1 0 2h-16a1 1 0 0 1 -1-1zm-2 3h16a1 1 0 0 1 0 2h-16a1 1 0 0 1 0-2zm-1 5a1 1 0 0 1 1-1h16a1 1 0 0 1 0 2h-16a1 1 0 0 1 -1-1zm3 4a1 1 0 0 1 1-1h16a1 1 0 0 1 0 2h-16a1 1 0 0 1 -1-1z"/><path d="m14 37v-1.145a2.844 2.844 0 0 0 .422-5.262l-1.949-.975a.854.854 0 0 1 .381-1.618h.292a.856.856 0 0 1 .854.854v.146h2v-.146a2.849 2.849 0 0 0 -2-2.709v-1.145h-2v1.145a2.844 2.844 0 0 0 -.422 5.262l1.949.975a.854.854 0 0 1 -.381 1.618h-.292a.856.856 0 0 1 -.854-.854v-.146h-2v.146a2.849 2.849 0 0 0 2 2.709v1.145z"/><path d="m6 30h2v2h-2z"/><path d="m18 30h2v2h-2z"/><path d="m31 36h2v2h-2z"/><path d="m35 36h16v2h-16z"/><path d="m29 40h22v2h-22z"/><path d="m29 44h20v2h-20z"/><path d="m53 33v-13a1 1 0 0 0 -1-1h-24a1 1 0 0 0 -1 1v13a1 1 0 0 0 1 1h24a1 1 0 0 0 1-1zm-2-1h-22v-11h22z"/><path d="m49 28h-2v-5h-2v5h-2v-4h-2v4h-2v-3h-2v3h-2v-2h-2v2h-2v2h18z"/><path d="m12 2h28v2h-28z"/><path d="m42 2h2v2h-2z"/><path d="m60 21h2v25h-2z"/></svg>