<?xml version="1.0" encoding="utf-8"?>
<!-- Generator: Adobe Illustrator 22.0.1, SVG Export Plug-In . SVG Version: 6.00 Build 0)  -->
<svg version="1.1" id="Capa_1" xmlns="http://www.w3.org/2000/svg" xmlns:xlink="http://www.w3.org/1999/xlink" x="0px" y="0px"
	 viewBox="0 0 512 512" style="enable-background:new 0 0 512 512;" xml:space="preserve">
<style type="text/css">
	.st0{fill:#D6A354;}
</style>
<g>
	<g>
		<path class="st0" d="M214.8,431.3h-90.1c-4.1,0-7.5,3.4-7.5,7.5s3.4,7.5,7.5,7.5h90.1c4.1,0,7.5-3.4,7.5-7.5
			S218.9,431.3,214.8,431.3z"/>
	</g>
</g>
<g>
	<g>
		<path class="st0" d="M214.8,457.9h-90.1c-4.1,0-7.5,3.4-7.5,7.5s3.4,7.5,7.5,7.5h90.1c4.1,0,7.5-3.4,7.5-7.5
			S218.9,457.9,214.8,457.9z"/>
	</g>
</g>
<g>
	<g>
		<path class="st0" d="M247.4,152l-9.5-8c-12.7-10.7-22.1-24.5-27.3-39.9c-0.1-0.3-0.2-0.5-0.2-0.8c-3-9-4.5-18.5-4.5-28.2v-9.5
			c4-2.2,6.7-6.4,6.7-11.3V12.9c0-7.1-5.8-12.9-12.9-12.9h-59.8c-7.1,0-12.9,5.8-12.9,12.9v41.5c0,4.9,2.7,9.1,6.7,11.3v9.5
			c0,9.7-1.6,19.2-4.5,28.2c-0.1,0.2-0.2,0.5-0.2,0.8c-5.2,15.4-14.5,29.2-27.3,39.9l-9.5,8c-5.9,4.9-9.2,12.2-9.2,19.8v313.9
			c0,14.5,11.8,26.3,26.3,26.3h121.2c14.5,0,26.3-11.8,26.3-26.3V171.8C256.6,164.2,253.3,156.9,247.4,152z M197.6,15v37.3h-55.6V15
			H197.6z M193.5,98.6H146c1.7-7.6,2.6-15.5,2.6-23.4v-7.9h42.2v7.9C190.9,83.1,191.8,91,193.5,98.6z M241.6,485.7
			c0,6.2-5.1,11.3-11.3,11.3H109.2c-6.2,0-11.3-5.1-11.3-11.3V335.4l143.7,66.5L241.6,485.7L241.6,485.7z M241.6,385.4L97.9,318.8
			v-9.8l143.7,67.2V385.4z M241.6,359.7L97.9,292.5v-39.6l143.7,67.2L241.6,359.7L241.6,359.7z M241.6,275.2l-86.8-40.2
			c-3.8-1.7-8.2-0.1-10,3.7c-1.7,3.8-0.1,8.2,3.7,10l93.1,43.1v11.8L97.9,236.3v-11.1l18.4,8.5c3.8,1.7,8.2,0.1,10-3.7
			c1.7-3.8,0.1-8.2-3.7-10l-24.7-11.4v-36.9c0-3.2,1.4-6.3,3.9-8.3l9.5-8c13.6-11.4,23.8-25.9,30.1-41.9h56.8
			c6.3,16.1,16.6,30.5,30.1,41.9l9.5,8c2.5,2.1,3.9,5.1,3.9,8.3L241.6,275.2L241.6,275.2z"/>
	</g>
</g>
<g>
	<g>
		<path class="st0" d="M425.3,355.6c-2.7-3-6.7-4.7-10.7-4.7H298.9c-4.1,0-8,1.7-10.7,4.7c-2.7,3-4.1,7-3.8,11.1l11.3,128.4
			c0.6,6.6,4.5,12.1,10.1,14.9c2.5,1.3,5.4,2,8.4,2h85.1c3,0,5.9-0.7,8.4-2c5.5-2.8,9.5-8.3,10.1-14.9L429,366.7
			C429.4,362.7,428,358.6,425.3,355.6z M402.8,493.8c-0.1,1.6-1.3,2.9-2.8,3.2c-0.2,0-0.4,0.1-0.7,0.1h-85.1c-0.2,0-0.5,0-0.7-0.1
			c-1.5-0.3-2.7-1.6-2.8-3.2l-0.7-7.4h93.4L402.8,493.8z M411.5,394.6h-54.8c-4.1,0-7.5,3.4-7.5,7.5s3.4,7.5,7.5,7.5h53.5l-5.4,61.7
			c-0.1,0-0.3,0-0.4,0h-95.2c-0.2,0-0.3,0-0.4,0l-5.4-61.7h18c4.1,0,7.5-3.4,7.5-7.5s-3.4-7.5-7.5-7.5h-19.3l-2.5-28.7H414
			L411.5,394.6z"/>
	</g>
</g>
</svg>
