<?xml version="1.0" encoding="UTF-8"?>
<!DOCTYPE svg PUBLIC "-//W3C//DTD SVG 1.1//EN" "http://www.w3.org/Graphics/SVG/1.1/DTD/svg11.dtd">
<!-- Creator: CorelDRAW 2020 (64-Bit) -->
<svg xmlns="http://www.w3.org/2000/svg" xml:space="preserve" width="76.4296mm" height="76.4296mm" version="1.1" style="shape-rendering:geometricPrecision; text-rendering:geometricPrecision; image-rendering:optimizeQuality; fill-rule:evenodd; clip-rule:evenodd"
viewBox="0 0 7628.55 7628.55"
 xmlns:xlink="http://www.w3.org/1999/xlink"
 xmlns:xodm="http://www.corel.com/coreldraw/odm/2003">
 <defs>
  <style type="text/css">
   <![CDATA[
    .fil0 {fill:#FEFEFE;fill-rule:nonzero}
    .fil2 {fill:#D4223E;fill-rule:nonzero}
    .fil3 {fill:#4CA860;fill-rule:nonzero}
    .fil1 {fill:#4A92C7;fill-rule:nonzero}
   ]]>
  </style>
 </defs>
 <g id="Layer_x0020_1">
  <metadata id="CorelCorpID_0Corel-Layer"/>
  <g id="_2263524146560">
   <path class="fil0" d="M3814.27 0c2106.57,0 3814.27,1707.7 3814.27,3814.27 0,2106.57 -1707.7,3814.27 -3814.27,3814.27 -2106.57,0 -3814.27,-1707.7 -3814.27,-3814.27 0,-2106.57 1707.7,-3814.27 3814.27,-3814.27z"/>
   <path class="fil1" d="M3774.11 7628.04l80.33 0c2088.03,-21.58 3774.11,-1720.62 3774.11,-3813.76 0,-2106.57 -1707.7,-3814.27 -3814.27,-3814.27 -2106.57,0 -3814.27,1707.7 -3814.27,3814.27 0,2093.15 1686.08,3792.19 3774.11,3813.76z"/>
   <path class="fil2" d="M202.11 5042.44l7224.33 0c130.99,-385.4 202.11,-798.47 202.11,-1228.17 0,-478.53 -88.38,-936.34 -249.28,-1358.36l-7129.99 0c-160.9,422.02 -249.28,879.84 -249.28,1358.36 0,429.7 71.12,842.77 202.11,1228.17z"/>
   <path class="fil3" d="M3774.11 7628.04l80.33 0c1659.37,-17.15 3064.85,-1093.72 3572,-2585.59l-7224.33 0c507.15,1491.87 1912.63,2568.45 3572,2585.59z"/>
   <path class="fil0" d="M3991.55 4655.44c-500.32,0 -904.99,-407.13 -904.99,-907.26 0,-499.85 404.67,-905.27 904.99,-905.27 181.26,0 349.99,53.53 491.77,145.57 -197.49,-201.57 -472.7,-325.42 -775.72,-325.42 -599.78,0 -1086.91,486.18 -1086.91,1085.11 0,600.9 487.13,1086.33 1086.91,1086.33 303.03,0 578.24,-122.8 775.72,-323.99 -141.78,90.72 -310.51,144.92 -491.77,144.92z"/>
   <polygon class="fil0" points="5217.01,4160.62 4920.06,4025.39 4805.89,4331.74 4691.35,4025.39 4394.49,4160.62 4529.25,3863.3 4223.96,3748.19 4529.25,3633.36 4395.16,3338.4 4692.19,3471.26 4806.85,3168.33 4921.77,3472.97 5217.76,3338.4 5082.54,3633.36 5388.21,3749.8 5082.54,3864.34 "/>
  </g>
 </g>
</svg>
