<?xml version="1.0" encoding="UTF-8"?>
<!DOCTYPE svg PUBLIC "-//W3C//DTD SVG 1.1//EN" "http://www.w3.org/Graphics/SVG/1.1/DTD/svg11.dtd">
<!-- Creator: CorelDRAW 2020 (64-Bit) -->
<svg xmlns="http://www.w3.org/2000/svg" xml:space="preserve" width="76.4296mm" height="76.4296mm" version="1.1" style="shape-rendering:geometricPrecision; text-rendering:geometricPrecision; image-rendering:optimizeQuality; fill-rule:evenodd; clip-rule:evenodd"
viewBox="0 0 5078.04 5078.04"
 xmlns:xlink="http://www.w3.org/1999/xlink"
 xmlns:xodm="http://www.corel.com/coreldraw/odm/2003">
 <defs>
  <style type="text/css">
   <![CDATA[
    .fil0 {fill:#FEFEFE;fill-rule:nonzero}
    .fil1 {fill:#D52333;fill-rule:nonzero}
   ]]>
  </style>
 </defs>
 <g id="Layer_x0020_1">
  <metadata id="CorelCorpID_0Corel-Layer"/>
  <g id="_2263718333264">
   <path class="fil0" d="M2539.02 0c1402.27,0 2539.02,1136.75 2539.02,2539.02 0,1402.27 -1136.75,2539.02 -2539.02,2539.02 -1402.27,0 -2539.02,-1136.75 -2539.02,-2539.02 0,-1402.27 1136.75,-2539.02 2539.02,-2539.02z"/>
   <path class="fil0" d="M0.55 2495.42l5076.94 0c-23.3,-1382.13 -1150.78,-2495.42 -2538.47,-2495.42 -1387.69,0 -2515.17,1113.29 -2538.47,2495.42z"/>
   <path class="fil1" d="M2492.88 5077.46l92.27 0c1380.96,-24.63 2492.88,-1151.6 2492.88,-2538.44 0,-14.6 -0.31,-29.12 -0.55,-43.66l-5076.94 0c-0.24,14.54 -0.55,29.07 -0.55,43.66 0,1386.84 1111.93,2513.81 2492.88,2538.44z"/>
  </g>
 </g>
</svg>
