<?xml version="1.0" encoding="UTF-8"?>
<!DOCTYPE svg PUBLIC "-//W3C//DTD SVG 1.1//EN" "http://www.w3.org/Graphics/SVG/1.1/DTD/svg11.dtd">
<!-- Creator: CorelDRAW 2020 (64-Bit) -->
<svg xmlns="http://www.w3.org/2000/svg" xml:space="preserve" width="133.263mm" height="77.7408mm" version="1.1" style="shape-rendering:geometricPrecision; text-rendering:geometricPrecision; image-rendering:optimizeQuality; fill-rule:evenodd; clip-rule:evenodd"
viewBox="0 0 13144.18 7667.84"
 xmlns:xlink="http://www.w3.org/1999/xlink"
 xmlns:xodm="http://www.corel.com/coreldraw/odm/2003">
 <defs>
  <style type="text/css">
   <![CDATA[
    .fil0 {fill:#4A92C7;fill-rule:nonzero}
    .fil2 {fill:#4CA860;fill-rule:nonzero}
    .fil1 {fill:#D4223E;fill-rule:nonzero}
    .fil3 {fill:#FEFEFE;fill-rule:nonzero}
   ]]>
  </style>
 </defs>
 <g id="Layer_x0020_1">
  <metadata id="CorelCorpID_0Corel-Layer"/>
  <g id="_1909815698080">
   <g id="_2263525469984">
    <polygon class="fil0" points="-0,7667.84 13144.18,7667.84 13144.18,0 -0,0 "/>
    <polygon class="fil1" points="-0,5112.78 13144.18,5112.78 13144.18,2556.77 -0,2556.77 "/>
    <polygon class="fil2" points="-0,7667.84 13144.18,7667.84 13144.18,5112.78 -0,5112.78 "/>
    <path class="fil3" d="M6831.32 4730.33c-494.42,0 -894.3,-402.33 -894.3,-896.55 0,-493.95 399.88,-894.59 894.3,-894.59 179.11,0 345.85,52.9 485.96,143.86 -195.16,-199.19 -467.11,-321.57 -766.56,-321.57 -592.7,0 -1074.08,480.44 -1074.08,1072.3 0,593.82 481.37,1073.51 1074.08,1073.51 299.45,0 571.4,-121.35 766.56,-320.16 -140.11,89.66 -306.85,143.21 -485.96,143.21z"/>
    <polygon class="fil3" points="8042.29,4241.36 7748.86,4107.73 7636.03,4410.44 7522.85,4107.73 7229.5,4241.36 7362.66,3947.55 7060.97,3833.79 7362.66,3720.3 7230.15,3428.84 7523.7,3560.13 7636.97,3260.77 7750.54,3561.82 8043.04,3428.84 7909.41,3720.3 8211.49,3835.38 7909.41,3948.57 "/>
   </g>
  </g>
 </g>
</svg>
