<?xml version="1.0" encoding="UTF-8"?>
<!DOCTYPE svg PUBLIC "-//W3C//DTD SVG 1.1//EN" "http://www.w3.org/Graphics/SVG/1.1/DTD/svg11.dtd">
<!-- Creator: CorelDRAW 2020 (64-Bit) -->
<svg xmlns="http://www.w3.org/2000/svg" xml:space="preserve" width="133.264mm" height="77.7352mm" version="1.1" style="shape-rendering:geometricPrecision; text-rendering:geometricPrecision; image-rendering:optimizeQuality; fill-rule:evenodd; clip-rule:evenodd"
viewBox="0 0 13144.58 7667.44"
 xmlns:xlink="http://www.w3.org/1999/xlink"
 xmlns:xodm="http://www.corel.com/coreldraw/odm/2003">
 <defs>
  <style type="text/css">
   <![CDATA[
    .fil1 {fill:#44963D;fill-rule:nonzero}
    .fil0 {fill:#B92829;fill-rule:nonzero}
    .fil2 {fill:#FEFEFE;fill-rule:nonzero}
   ]]>
  </style>
 </defs>
 <g id="Layer_x0020_1">
  <metadata id="CorelCorpID_0Corel-Layer"/>
  <g id="_1909812668320">
   <g id="_2265303564224">
    <polygon class="fil0" points="-0,5111.55 13144.58,5111.55 13144.58,0 -0,0 "/>
    <polygon class="fil1" points="-0,7667.44 13144.58,7667.44 13144.58,5111.55 -0,5111.55 "/>
    <polygon class="fil2" points="-0,7667.44 1686.32,7667.44 1686.32,0 -0,0 "/>
    <path class="fil0" d="M1106.74 0l0 177.35 -75.12 0 0 176.03 -75.77 0 0 177.34 -75.12 0 0 176.03 -75.41 0 0 -176.03 -75.12 0 0 -177.34 -74.46 0 0 -176.03 -75.03 0 0 -177.35 -75.77 0 0 177.35 -75.12 0 0 176.03 -74.47 0 0 177.34 -76.43 0 0 176.03 -75.02 0 0 177.25 75.02 0 0 176.03 76.43 0 0 177.35 74.47 0 0 177.72 75.12 0 0 175.65 74.75 0 0 -175.65 76.06 0 0 -177.72 74.46 0 0 -177.35 75.12 0 0 -176.03 75.41 0 0 176.03 75.12 0 0 177.35 75.77 0 0 177.72 75.12 0 0 175.65 75.41 0 0 -175.65 74.46 0 0 -177.72 75.12 0 0 -177.35 75.77 0 0 -176.03 74.09 0 0 -177.25 -74.09 0 0 -176.03 -75.77 0 0 -177.34 -75.12 0 0 -176.03 -74.46 0 0 -177.35 -75.41 0zm-150.88 706.75l75.77 0 0 -176.03 75.12 0 0 -177.34 75.41 0 0 177.34 74.46 0 0 176.03 75.12 0 0 177.25 -75.12 0 0 176.03 -74.46 0 0 177.35 -75.41 0 0 -177.35 -75.12 0 0 -176.03 -75.77 0 0 -177.25zm-600.51 0l74.47 0 0 -176.03 75.12 0 0 -177.34 74.75 0 0 177.34 76.06 0 0 176.03 74.46 0 0 177.25 -74.46 0 0 176.03 -76.06 0 0 177.35 -74.75 0 0 -177.35 -75.12 0 0 -176.03 -74.47 0 0 -177.25zm1052.15 -353.37l74.09 0 0 -211.4 -74.09 0 0 211.4zm-602.18 0l75.41 0 0 -211.4 -75.41 0 0 211.4zm-601.43 0l75.02 0 0 -211.4 -75.02 0 0 211.4zm902.85 530.62l75.41 0 0 -177.25 -75.41 0 0 177.25zm-601.8 0l74.75 0 0 -177.25 -74.75 0 0 177.25zm902.56 494.33l74.09 0 0 -211.39 -74.09 0 0 211.39zm-602.18 0l75.41 0 0 -211.39 -75.41 0 0 211.39zm-601.43 0l75.02 0 0 -211.39 -75.02 0 0 211.39zm1089.39 70.81l0 104.85 -37.71 0 0 107.2 -37.7 0 0 141.32 37.7 0 0 105.14 37.71 0 0 105.22 113.19 0 0 -105.22 37.42 0 0 -105.14 36.66 0 0 -141.32 -36.66 0 0 -107.2 -37.42 0 0 -104.85 -113.19 0zm0 246.18l37.41 0 0 -69.21 37.71 0 0 69.21 38.07 0 0 71.46 -38.07 0 0 70.43 -37.71 0 0 -70.43 -37.41 0 0 -71.46zm-600.12 -141.33l-37.42 0 0 107.2 -37.7 0 0 141.32 37.7 0 0 106.55 37.42 0 0 105.79 112.16 0 0 -105.79 75.41 0 0 105.79 113.19 0 0 -105.79 37.7 0 0 -106.55 36.39 0 0 -141.32 -36.39 0 0 -107.2 -37.7 0 0 -104.19 -113.19 0 0 104.19 -75.41 0 0 -104.19 -112.16 0 0 104.19zm187.57 142.27l37.79 0 0 -70.15 37.33 0 0 70.15 38.07 0 0 70.52 -38.07 0 0 72.11 -37.33 0 0 -72.11 -37.79 0 0 -70.52zm-187.57 0l37.04 0 0 -70.15 38.36 0 0 70.15 36.76 0 0 70.52 -36.76 0 0 72.11 -38.36 0 0 -72.11 -37.04 0 0 -70.52zm-414.25 -142.27l-36.66 0 0 107.2 -38.36 0 0 141.32 38.36 0 0 106.55 36.66 0 0 105.79 113.2 0 0 -105.79 37.7 0 0 -106.55 36.76 0 0 -141.32 -36.76 0 0 -107.2 -37.7 0 0 -104.19 -113.2 0 0 104.19zm0 142.27l37.71 0 0 -70.15 38.72 0 0 70.15 36.77 0 0 70.52 -36.77 0 0 72.11 -38.72 0 0 -72.11 -37.71 0 0 -70.52zm827.83 176.02l0 177.35 -75.12 0 0 176.31 -75.77 0 0 177.07 -75.12 0 0 175.94 -75.41 0 0 -175.94 -75.12 0 0 -177.07 -74.46 0 0 -176.31 -76.06 0 0 -177.35 -74.75 0 0 177.35 -75.12 0 0 176.31 -75.41 0 0 177.07 -75.5 0 0 175.94 -75.02 0 0 177.71 75.02 0 0 177.63 75.5 0 0 176.02 75.41 0 0 175.66 75.12 0 0 -175.66 74.75 0 0 -176.02 76.06 0 0 -177.63 -76.06 0 0 -212.41 76.06 0 0 141.89 74.46 0 0 282.95 38.36 0 0 175 -112.82 0.94 0 140.96 -76.06 0 0 105.6 -74.75 0 0 177.62 -75.12 0 0 -177.62 -75.41 0 0 -105.6 -75.5 0 0 -105.22 -75.02 0 0 317.65 75.02 0 0 142.55 75.5 0 0 122.11 75.41 0 0 141.32 -75.41 0 0 125.4 -75.5 0 0 140.2 -75.02 0 0 318.68 75.02 0 0 -107.2 75.5 0 0 -105.22 75.41 0 0 -176.03 75.12 0 0 176.03 74.75 0 0 105.22 76.06 0 0 142.92 112.82 0.94 0 174.35 -38.36 0 0 282.95 -74.46 0 0 142.55 -76.06 0 0 -214.39 76.06 0 0 -176.02 -76.06 0 0 -175.66 -74.75 0 0 -177.62 -75.12 0 0 177.62 -75.41 0 0 175.66 -75.5 0 0 176.02 -75.02 0 0 177.63 75.02 0 0 175.75 76.43 0 0 177.62 74.47 0 0 177.35 75.12 0 0 176.03 74.75 0 0 -176.03 76.06 0 0 -177.35 74.46 0 0 -177.62 75.12 0 0 -175.75 75.41 0 0 175.75 75.12 0 0 177.62 75.77 0 0 177.35 75.12 0 0 176.03 75.41 0 0 -176.03 74.46 0 0 -177.35 75.12 0 0 -177.62 75.77 0 0 -175.75 74.09 0 0 -177.63 -74.09 0 0 -176.02 -75.77 0 0 -175.66 -75.12 0 0 -177.62 -74.46 0 0 177.62 -75.41 0 0 175.66 -75.12 0 0 176.02 75.12 0 0 214.39 -75.12 0 0 -142.55 -75.77 0 0 -282.95 -37.33 0 0 -175.28 113.11 0 0 -142.92 75.12 0 0 -105.22 75.41 0 0 -176.03 74.46 0 0 176.03 75.12 0 0 105.22 75.77 0 0 107.2 74.09 0 0 -318.68 -74.09 0 0 -140.2 -75.77 0 0 -125.4 -75.12 0 0 -141.32 75.12 0 0 -122.11 75.77 0 0 -142.55 74.09 0 0 -317.65 -74.09 0 0 105.22 -75.77 0 0 105.6 -75.12 0 0 177.62 -74.46 0 0 -177.62 -75.41 0 0 -105.6 -75.12 0 0 -140.96 -113.11 0 0 -175.94 37.33 0 0 -282.95 75.77 0 0 -141.89 75.12 0 0 212.41 -75.12 0 0 177.63 75.12 0 0 176.02 75.41 0 0 175.66 74.46 0 0 -175.66 75.12 0 0 -176.02 75.77 0 0 -177.63 74.09 0 0 -177.71 -74.09 0 0 -175.94 -75.77 0 0 -177.07 -75.12 0 0 -176.31 -74.46 0 0 -177.35 -75.41 0zm-601.8 1964.2l0 -73.42 74.75 0 0 -122.11 76.06 0 0 -142.55 112.82 0 0 -166.37 36.76 0 0 -81.4 75.41 0 0 79.71 37.79 0 0 168.06 113.11 0 0 142.55 75.12 0 0 122.11 75.41 0 0 141.32 -75.41 0 0 125.4 -75.12 0 0 140.2 -113.11 0 0 166.74 -37.79 0 0 79.82 -75.41 0 0 -79.82 -36.76 0 0 -166.74 -112.82 0 0 -140.2 -76.06 0 0 -125.4 -74.75 0 0 -67.9zm902.56 -1538.7l74.09 0 0 -212.41 -74.09 0 0 212.41zm-602.18 0l75.41 0 0 -212.41 -75.41 0 0 212.41zm-601.43 0l75.02 0 0 -212.41 -75.02 0 0 212.41zm1203.61 812.54l74.09 0 0 -141.24 -74.09 0 0 141.24zm-1203.61 0l75.02 0 0 -141.24 -75.02 0 0 141.24zm601.43 529.32l75.41 0 0 -175.66 -75.41 0 0 175.66zm113.19 -35.37l0 69.77 -37.79 0 0 54.31 -75.41 0 0 -54.31 -36.76 0 0 -69.77 -75.4 0 0 105.89 37.04 0 0 52.9 38.36 0 0 141.32 -38.36 0 0 53.55 -37.04 0 0 105.51 75.4 0 0 -70.44 36.76 0 0 -52.24 75.41 0 0 52.24 37.79 0 0 70.44 75.41 0 0 -105.51 -38.07 0 0 -53.55 -37.33 0 0 -141.32 37.33 0 0 -52.9 38.07 0 0 -105.89 -75.41 0zm488.98 124.09l0 212.41 74.09 0 0 -212.41 -74.09 0zm-413.58 0l0 212.41 74.09 0 0 -212.41 -74.09 0zm-375.88 0l0 212.41 75.12 0 0 -212.41 -75.12 0zm-414.15 0l0 212.41 75.02 0 0 -212.41 -75.02 0zm601.43 477.36l75.41 0 0 -175.94 -75.41 0 0 175.94zm602.18 493.96l74.09 0 0 -140.59 -74.09 0 0 140.59zm-1203.61 0l75.02 0 0 -140.59 -75.02 0 0 140.59zm1203.61 882.69l74.09 0 0 -211.01 -74.09 0 0 211.01zm-602.18 0l75.41 0 0 -211.01 -75.41 0 0 211.01zm-601.43 0l75.02 0 0 -211.01 -75.02 0 0 211.01zm676.83 72.21l0 105.13 -75.41 0 0 -105.13 -112.16 0 0 105.13 -37.42 0 0 105.61 -37.7 0 0 142.55 37.7 0 0 105.22 37.42 0 0 105.88 112.16 0 0 -105.88 75.41 0 0 105.88 113.19 0 0 -105.88 37.7 0 0 -105.22 36.39 0 0 -142.55 -36.39 0 0 -105.61 -37.7 0 0 -105.13 -113.19 0zm0 246.09l37.79 0 0 -70.43 37.33 0 0 70.43 38.07 0 0 72.12 -38.07 0 0 69.86 -37.33 0 0 -69.86 -37.79 0 0 -72.12zm-187.57 0l37.04 0 0 -70.43 38.36 0 0 70.43 36.76 0 0 72.12 -36.76 0 0 69.86 -38.36 0 0 -69.86 -37.04 0 0 -72.12zm-414.25 -246.09l0 105.13 -36.66 0 0 105.61 -38.36 0 0 142.55 38.36 0 0 105.22 36.66 0 0 105.88 113.2 0 0 -105.88 37.7 0 0 -105.22 36.76 0 0 -142.55 -36.76 0 0 -105.61 -37.7 0 0 -105.13 -113.2 0zm0 246.09l38.73 0 0 -70.43 37.7 0 0 70.43 36.77 0 0 72.12 -36.77 0 0 69.86 -37.7 0 0 -69.86 -38.73 0 0 -72.12zm1014.37 -244.77l0 103.81 -37.71 0 0 107.2 -37.7 0 0 140.96 37.7 0 0 105.22 37.71 0 0 105.88 113.19 0 0 -105.88 37.42 0 0 -105.22 36.66 0 0 -140.96 -36.66 0 0 -107.2 -37.42 0 0 -103.81 -113.19 0zm0 246.46l37.41 0 0 -70.15 37.71 0 0 70.15 38.07 0 0 70.44 -38.07 0 0 71.84 -37.71 0 0 -71.84 -37.41 0 0 -70.44zm-186.54 176.03l0 175.66 -75.12 0 0 177.34 -75.77 0 0 176.03 -75.12 0 0 177.62 -75.41 0 0 -177.62 -75.12 0 0 -176.03 -74.46 0 0 -177.34 -76.06 0 0 -175.66 -74.75 0 0 175.66 -75.12 0 0 177.34 -74.47 0 0 176.03 -76.43 0 0 177.62 -75.02 0 0 175.66 75.02 0 0 177.35 76.43 0 0 177.71 74.47 0 0 175.66 75.12 0 0 176.03 75.77 0 0 -176.03 75.03 0 0 -175.66 74.46 0 0 -177.71 75.12 0 0 -177.35 75.41 0 0 177.35 75.12 0 0 177.71 75.77 0 0 175.66 75.12 0 0 176.03 75.41 0 0 -176.03 74.46 0 0 -175.66 75.12 0 0 -177.71 75.77 0 0 -177.35 74.09 0 0 -175.66 -74.09 0 0 -177.62 -75.77 0 0 -176.03 -75.12 0 0 -177.34 -74.46 0 0 -175.66 -75.41 0zm-150.88 706.65l75.77 0 0 -177.62 75.12 0 0 -176.03 75.41 0 0 176.03 74.46 0 0 177.62 75.12 0 0 175.66 -75.12 0 0 177.35 -74.46 0 0 177.71 -75.41 0 0 -177.71 -75.12 0 0 -177.35 -75.77 0 0 -175.66zm-600.51 0l74.47 0 0 -177.62 75.12 0 0 -176.03 74.75 0 0 176.03 76.06 0 0 177.62 74.46 0 0 175.66 -74.46 0 0 177.35 -76.06 0 0 177.71 -74.75 0 0 -177.71 -75.12 0 0 -177.35 -74.47 0 0 -175.66zm1052.15 -282.57l74.09 0 0 -211.77 -74.09 0 0 211.77zm-602.18 0l75.41 0 0 -211.77 -75.41 0 0 211.77zm-601.43 0l75.02 0 0 -211.77 -75.02 0 0 211.77zm902.85 458.23l75.41 0 0 -175.66 -75.41 0 0 175.66zm-601.8 0l74.75 0 0 -175.66 -74.75 0 0 175.66zm902.56 566.73l74.09 0 0 -211.67 -74.09 0 0 211.67zm-602.18 0l75.41 0 0 -211.67 -75.41 0 0 211.67zm-601.43 0l75.02 0 0 -211.67 -75.02 0 0 211.67z"/>
   </g>
  </g>
 </g>
</svg>
