<?xml version="1.0" encoding="UTF-8"?>
<!DOCTYPE svg PUBLIC "-//W3C//DTD SVG 1.1//EN" "http://www.w3.org/Graphics/SVG/1.1/DTD/svg11.dtd">
<!-- Creator: CorelDRAW 2020 (64-Bit) -->
<svg xmlns="http://www.w3.org/2000/svg" xml:space="preserve" width="133.263mm" height="77.7407mm" version="1.1" style="shape-rendering:geometricPrecision; text-rendering:geometricPrecision; image-rendering:optimizeQuality; fill-rule:evenodd; clip-rule:evenodd"
viewBox="0 0 13144.46 7667.98"
 xmlns:xlink="http://www.w3.org/1999/xlink"
 xmlns:xodm="http://www.corel.com/coreldraw/odm/2003">
 <defs>
  <style type="text/css">
   <![CDATA[
    .fil2 {fill:#366B56;fill-rule:nonzero}
    .fil1 {fill:#DC7B24;fill-rule:nonzero}
    .fil0 {fill:#FEFEFE;fill-rule:nonzero}
   ]]>
  </style>
 </defs>
 <g id="Layer_x0020_1">
  <metadata id="CorelCorpID_0Corel-Layer"/>
  <g id="_1909812648544">
   <g id="_2263522582320">
    <polygon class="fil0" points="-0,7667.98 13144.46,7667.98 13144.46,0 -0,0 "/>
    <path class="fil1" d="M5620.43 2329.11c0,99.98 13.5,113.48 18.19,132.04 7.6,19.51 14.16,367.91 -36.76,460.85 -51.3,95.28 -154.84,148.27 -195.16,157.46 -41.73,10.32 -170.78,-81.03 -289.88,-119.39 -120.7,-38.07 -113.77,-31.42 -165.07,-31.42 -51.3,0 -163.08,42.02 -194.22,69.77 -21.2,-3.66 -27.11,-12.19 -39.67,0 -11.25,11.25 -62.55,62.83 -75.12,95.01 -12.57,30.38 -44.36,151.18 -82.05,163.37 -37.05,12.57 -140.96,115.82 -207.74,119.76 -67.53,4.31 -49.33,-2.91 -95.66,-6.28 -45.29,-2.63 -50.26,-50.55 -94.63,-74.75 -44.26,-26.17 -54.86,-45.68 -54.86,-45.68 0,0 -13.59,-48.95 -33.1,-48.95 -18.2,0 -36.39,87.69 -36.39,112.82 0,25.13 48.95,119.48 74.09,138.99 26.17,19.51 26.17,132.62 13.6,163.74 -13.6,31.42 25.13,64.53 30.75,95.28 5.91,29.73 -38.35,55.9 -18.19,62.18 18.19,5.63 43.33,44.64 43.33,82.72 0,37.42 93.6,50.65 114.13,87.97 18.56,38.45 26.17,100.25 33.1,138.99 4.6,37.7 25.79,19.22 29.45,113.48 31.04,14.25 74.75,44.36 114.13,62.83 37.7,18.57 31.04,63.22 81.03,81.78 50.64,19.79 50.64,0 76.43,7.22 25.13,6.01 -11.53,12.57 32.73,25.23 43.71,11.91 61.9,-6.66 98.66,11.91 38.64,19.14 58.9,62.47 83,76.07 25.13,11.53 133.36,44.63 139.26,50.26 6.66,6.93 74.47,31.79 88.06,31.79 12.19,0 50.93,-24.86 50.93,-24.86 0,0 43.71,11.25 82.06,0 37.7,-12.57 63.49,-50.26 87.96,-50.26 26.17,0 30.76,12.29 56.93,12.29 25.13,0 62.83,-12.29 62.83,-12.29 0,0 56.92,-13.6 101.56,12.29 43.99,25.41 144.62,144.9 144.62,195.44 0,50.65 -6.66,75.78 -6.66,75.78 0,0 51.3,-5.62 69.49,5.35 19.22,12.85 16.23,-9.94 157.46,12.85 -8.53,-34.42 -144.9,-131.95 -18.47,-270.94 126.7,-138.34 134.68,-81.69 164.12,-107.86 29.08,-24.47 146.21,-98.94 340.43,-30.48 190.2,-30.38 50.93,-57.48 157.1,-63.49 20.54,-7.59 54.95,1.97 95,12.95 13.6,-23.54 39.39,-46.99 83,-38.08 8.63,-22.13 59.55,-51.95 113.85,-57.58 6.93,-42.01 142.91,-95.56 218.97,-99.88 33.1,-29.17 68.84,-155.21 241.86,-94.62 5.63,-40.71 33.39,-107.2 81.03,-120.8 10.6,-84.31 -22.13,-256.68 63.59,-314.64 84.03,-78.41 166.09,-60.22 308.35,-56.56 99.6,19.51 144.52,92.94 177.63,100.91 30.75,5.25 41.36,5.25 80.08,-20.54 38.73,-23.82 -4.69,-75.41 26.08,-75.41 32.83,0 18.29,7.97 69.49,0 51.3,-4.97 43.33,-22.78 75.5,-30.48 51.21,25.51 107.2,6.01 133.27,25.51 24.86,18.2 28.79,16.89 81.13,23.54 20.44,33.01 70.43,33.01 70.43,33.01 0,0 -38.73,-13.23 -25.13,-33.01 12.57,-18.57 0,-75.12 -24.86,-99.6 -26.07,-25.13 -38.64,-31.79 -58.23,-57.58 -18.47,-24.85 7.03,-24.85 -25.13,-56.27 -30.76,-31.79 -100.25,-63.87 -118.74,-100.53 -18.19,-37.42 -13.59,-62.93 -45.29,-94.34 -30.76,-33.11 -158.5,-139.27 -163.18,-252.38 -7.88,-114.22 4.69,-223.67 82.06,-258.74 -2.91,-67.53 11.63,-76.43 81.12,-115.17 71.46,-37.05 76.06,-11.92 119.76,-11.92 44.27,0 69.4,7.32 114.13,-25.13 43.33,-31.42 5.63,-100.91 119.39,-201.44 115.17,-100.91 159.81,-152.21 197.22,-157.19 36.67,-7.97 174.63,-103.54 230.9,-95.66 41.36,-48.58 83.1,-106.16 134.02,-145.18 51.59,-37.41 106.55,-37.41 131.68,-69.49 26.16,-30.76 20.16,-87.69 95.66,-137.3 75.02,-50.93 138.89,-84.4 170.69,-107.85 30.1,-26.17 100.53,-6.66 125.66,-31.79 25.89,-26.45 25.89,-120.42 52.34,-139.27 23.16,-19.22 -83.09,43.71 -140.96,69.77 -55.24,24.86 -138.33,69.5 -207.73,63.22 -69.5,-7.6 -31.14,38.07 -69.5,50.26 -37.7,11.25 -100.63,6 -126.7,31.14 -25.23,26.16 -69.49,87.96 -106.26,114.13 -38.35,24.47 -58.9,18.19 -95.56,37.42 -37.8,19.5 -69.5,37.7 -100.63,50.26 -31.7,13.6 -126.33,7.32 -126.33,7.32 0,0 -82.05,106.16 -120.79,145.17 -36.76,38.07 -81.03,30.48 -119.76,49.61 -37.7,19.22 -358.34,226.67 -578.64,258.75 -221.04,31.13 -120.79,-19.51 -190.29,0 -68.74,19.5 -170.03,151.55 -253.03,156.52 -82.05,7.59 -107.19,0 -124.45,0 -19.5,0 -120.79,64.8 -184.57,51.58 -91.71,28.42 -161.49,22.13 -189.25,18.57 -27.19,-2.35 -75.49,32.73 -145.26,0 -52.89,-16.89 -52.89,21.1 -157.18,-11.92 -104.47,-32.16 -175.66,11.92 -227.24,-11.91 -49.99,-26.17 -43.33,-46.33 -82.06,-46.33 -36.39,0 -36.39,26.07 -82.06,26.07 -44.36,0 -50.92,-26.07 -87.69,-26.07 -36.66,0 -81.03,26.07 -138.99,20.16 -57.21,-6.66 -75.4,-32.08 -114.13,-32.08 -36.67,0 -246.09,-88.06 -246.09,-88.06l0 0z"/>
    <path class="fil2" d="M6265.57 6183.51c110.85,-79.43 207.45,-105.22 356.28,-131.39 148.55,-26.07 307.04,-70.43 389.38,-91.91 83.09,-22.22 -280.22,105.51 -372.78,131.02 -90.69,26.45 -372.88,92.28 -372.88,92.28l0 0z"/>
    <path class="fil2" d="M6866.05 5950.55c-29.81,-187.19 44.64,-385.36 213.73,-463.48 40.32,136.26 -81.12,366.88 -213.73,463.48l0 0z"/>
    <path class="fil2" d="M7155.84 5853.01c-90.6,-156.15 61.89,-357.69 176.03,-455.98 53.26,94.35 -39.67,374.85 -176.03,455.98l0 0z"/>
    <path class="fil2" d="M7422.56 5732.21c-96.69,-133.64 18.47,-367.91 141.24,-460.84 46.99,132.7 0,370.16 -141.24,460.84l0 0z"/>
    <path class="fil2" d="M7690.14 5564.16c-87.97,-126.42 -26.08,-322.24 101.28,-449.97 90.97,105.6 12.57,333.87 -101.28,449.97l0 0z"/>
    <path class="fil2" d="M7905.55 5395.72c-74.47,-119.38 16.5,-404.57 135.98,-483.64 51.3,105.51 12.57,403.93 -135.98,483.64l0 0z"/>
    <path class="fil2" d="M8076.6 5351.09c-22.51,-171.35 276.29,-359.94 398.02,-354.98 -12.58,139.27 -141.33,292.8 -398.02,354.98l0 0z"/>
    <path class="fil2" d="M7909.48 5543.62c140.96,-143.87 412.27,-143.87 508.87,-114.14 -25.79,84.04 -346.72,267.38 -508.87,114.14l0 0z"/>
    <path class="fil2" d="M7716.28 5687.86c197.88,-52.61 325.24,-95.57 443.32,27.19 -83,105.14 -403.92,73.72 -443.32,-27.19l0 0z"/>
    <path class="fil2" d="M7435.12 5815.59c188.5,-100.54 417.15,48.02 451.94,134.95 -210.45,88.06 -455.97,-113.11 -451.94,-134.95l0 0z"/>
    <path class="fil2" d="M7176.37 5960.21c171.72,-65.55 369.88,21.48 447.25,118.08 -91.91,44.36 -331.42,92.66 -447.25,-118.08l0 0z"/>
    <path class="fil2" d="M6940.53 6034.57c198.16,-22.13 386.38,127.73 428.02,212.8 -251.43,24.11 -348.03,-51.68 -428.02,-212.8l0 0z"/>
    <path class="fil2" d="M6877.96 6183.51c-110.19,-79.43 -205.75,-105.22 -355.71,-131.39 -148.84,-26.07 -306.95,-70.43 -390.99,-91.91 -81.12,-22.22 281.82,105.51 374.85,131.02 91.63,26.45 371.85,92.28 371.85,92.28l0 0z"/>
    <path class="fil2" d="M6276.82 5950.55c31.04,-187.19 -42.39,-385.36 -214.11,-463.48 -37.98,136.26 83.09,366.88 214.11,463.48l0 0z"/>
    <path class="fil2" d="M5988.35 5853.01c92.57,-156.15 -61.89,-357.69 -175.75,-455.98 -53.27,94.35 39.39,374.85 175.75,455.98l0 0z"/>
    <path class="fil2" d="M5720.02 5732.21c97.92,-133.64 -16.59,-367.91 -139.36,-460.84 -48.29,132.7 0,370.16 139.36,460.84l0 0z"/>
    <path class="fil2" d="M5453.04 5564.16c87.97,-126.42 27.11,-322.24 -100.25,-449.97 -90.97,105.6 -12.57,333.87 100.25,449.97l0 0z"/>
    <path class="fil2" d="M5238.93 5395.72c76.16,-119.38 -16.5,-404.57 -136.64,-483.64 -51.96,105.51 -12.57,403.93 136.64,483.64l0 0z"/>
    <path class="fil2" d="M5066.93 5351.09c22.79,-171.35 -275.25,-359.94 -397.08,-354.98 12.57,139.27 137.95,292.8 397.08,354.98l0 0z"/>
    <path class="fil2" d="M5234.98 5543.62c-141.33,-143.87 -412.55,-143.87 -508.22,-114.14 26.17,84.04 346.06,267.38 508.22,114.14l0 0z"/>
    <path class="fil2" d="M5428.17 5687.86c-198.16,-52.61 -325.89,-95.57 -443.68,27.19 82.43,105.14 404.01,73.72 443.68,-27.19l0 0z"/>
    <path class="fil2" d="M5708.12 5815.59c-188.31,-100.54 -416.21,48.02 -451,134.95 210.45,88.06 454.94,-113.11 451,-134.95l0 0z"/>
    <path class="fil2" d="M5966.12 5960.21c-172,-65.55 -368.2,21.48 -446.32,118.08 92.66,44.36 332.17,92.66 446.32,-118.08l0 0z"/>
    <path class="fil2" d="M6204.32 6034.57c-198.82,-22.13 -388.07,127.73 -428.4,212.8 251.72,24.11 348.41,-51.68 428.4,-212.8l0 0z"/>
   </g>
  </g>
 </g>
</svg>
