<?xml version="1.0" encoding="UTF-8"?>
<!DOCTYPE svg PUBLIC "-//W3C//DTD SVG 1.1//EN" "http://www.w3.org/Graphics/SVG/1.1/DTD/svg11.dtd">
<!-- Creator: CorelDRAW 2020 (64-Bit) -->
<svg xmlns="http://www.w3.org/2000/svg" xml:space="preserve" width="133.264mm" height="77.7407mm" version="1.1" style="shape-rendering:geometricPrecision; text-rendering:geometricPrecision; image-rendering:optimizeQuality; fill-rule:evenodd; clip-rule:evenodd"
viewBox="0 0 13144.21 7667.78"
 xmlns:xlink="http://www.w3.org/1999/xlink"
 xmlns:xodm="http://www.corel.com/coreldraw/odm/2003">
 <defs>
  <style type="text/css">
   <![CDATA[
    .fil1 {fill:#D12437;fill-rule:nonzero}
    .fil0 {fill:#FEFEFE;fill-rule:nonzero}
   ]]>
  </style>
 </defs>
 <g id="Layer_x0020_1">
  <metadata id="CorelCorpID_0Corel-Layer"/>
  <g id="_1910637636880">
   <g id="_2263528658720">
    <polygon class="fil0" points="-0,7667.78 13144.21,7667.78 13144.21,0 -0,0 "/>
    <path class="fil1" d="M3117.84 1729.59c-6.94,140.58 -20.82,279.56 -42.29,416.2 -7.69,44.64 -15.95,88.62 -22.88,132.05 85.06,-10.6 172.08,-16.89 261.73,-16.89 87.96,0 175.65,6.28 260.62,16.89 -8.26,-43.43 -15.2,-87.41 -22.79,-132.05 -20.82,-136.64 -35.35,-275.62 -40.7,-416.2 185.96,8.26 368.93,31.14 546.18,64.8 -9.85,-86.27 -15.2,-173.02 -15.2,-260.62 0,-90.02 5.35,-176.02 15.2,-262.68 -177.25,33.39 -360.22,56.56 -546.18,65.46 6.93,-186.62 29.17,-369.87 63.49,-548.53 -84.97,10.6 -172.66,15.57 -260.62,15.57 -89.66,0 -176.68,-4.97 -261.73,-15.57 32.73,178.65 54.95,361.9 65.18,548.53 -187.56,-8.91 -370.53,-32.08 -549.17,-65.46 11.25,86.66 16.88,172.66 16.88,262.68 0,87.6 -5.62,174.34 -16.88,260.62 178.64,-33.66 361.62,-56.55 549.17,-64.8z"/>
    <path class="fil1" d="M9634.65 1729.59c-6.57,140.58 -21.2,279.56 -42.67,416.2 -5.26,44.64 -13.51,88.62 -22.13,132.05 84.96,-10.6 172.65,-16.89 260.71,-16.89 88.35,0 175.93,6.28 261.64,16.89 -8.26,-43.43 -14.54,-87.41 -21.48,-132.05 -22.88,-136.64 -35.72,-275.62 -42.67,-416.2 185.87,8.26 369.5,31.14 548.53,64.8 -11.63,-86.27 -17.54,-173.02 -17.54,-260.62 0,-90.02 5.91,-176.02 17.54,-262.68 -179.03,33.39 -362.65,56.56 -548.53,65.46 9.94,-186.62 31.04,-369.87 64.15,-548.53 -85.72,10.6 -173.31,15.57 -261.64,15.57 -88.06,0 -175.74,-4.97 -260.71,-15.57 33.39,178.65 56.55,361.9 64.8,548.53 -185.6,-8.91 -369.5,-32.08 -548.15,-65.46 10.59,86.66 15.85,172.66 15.85,262.68 0,87.6 -5.26,174.34 -15.85,260.62 178.65,-33.66 362.55,-56.55 548.15,-64.8z"/>
    <path class="fil1" d="M3511.53 5936.88c5.35,-140.96 19.87,-280.59 40.7,-416.2 7.59,-43.98 14.54,-88.34 22.79,-131.66 -84.97,10.59 -172.66,16.88 -260.62,16.88 -89.66,0 -176.68,-6.28 -261.73,-16.88 6.93,43.33 15.19,87.68 22.88,131.66 21.47,135.61 35.35,275.24 42.29,416.2 -187.56,-8.63 -370.53,-31.79 -549.17,-64.53 11.25,86 16.88,171.72 16.88,261.64 0,87.68 -5.62,175.74 -16.88,260.71 178.64,-33.76 361.62,-55.89 549.17,-64.52 -10.23,186.25 -32.45,368.94 -65.18,547.57 85.06,-10.59 172.08,-15.56 261.73,-15.56 87.96,0 175.65,4.97 260.62,15.56 -34.32,-178.63 -56.56,-361.32 -63.49,-547.57 185.96,8.63 368.93,30.75 546.18,64.52 -9.85,-84.96 -15.2,-173.02 -15.2,-260.71 0,-89.93 5.35,-175.66 15.2,-261.64 -177.25,32.74 -360.22,55.9 -546.18,64.53z"/>
    <path class="fil1" d="M10028.06 5936.88c6.94,-140.96 21.47,-280.59 42.67,-416.2 6.94,-43.98 13.23,-88.34 21.48,-131.66 -85.72,10.59 -173.31,16.88 -261.64,16.88 -88.06,0 -175.74,-6.28 -260.71,-16.88 8.62,43.33 16.88,87.68 22.13,131.66 21.47,135.61 36.1,275.24 42.67,416.2 -185.6,-8.63 -369.5,-31.79 -548.15,-64.53 10.59,86 15.85,171.72 15.85,261.64 0,87.68 -5.26,175.74 -15.85,260.71 178.65,-33.76 362.55,-55.89 548.15,-64.52 -8.26,186.25 -31.41,368.94 -64.8,547.57 84.96,-10.59 172.65,-15.56 260.71,-15.56 88.35,0 175.93,4.97 261.64,15.56 -33.11,-178.63 -54.21,-361.32 -64.15,-547.57 185.87,8.63 369.5,30.75 548.53,64.52 -11.63,-84.96 -17.54,-173.02 -17.54,-260.71 0,-89.93 5.91,-175.66 17.54,-261.64 -179.03,32.74 -362.65,55.9 -548.53,64.53z"/>
    <polygon class="fil1" points="5800.25,7667.78 7344.62,7667.78 7344.62,0 5800.25,0 "/>
    <polygon class="fil1" points="-0,4606.23 13144.21,4606.23 13144.21,3059.6 -0,3059.6 "/>
   </g>
  </g>
 </g>
</svg>
