<?xml version="1.0" encoding="UTF-8"?>
<!DOCTYPE svg PUBLIC "-//W3C//DTD SVG 1.1//EN" "http://www.w3.org/Graphics/SVG/1.1/DTD/svg11.dtd">
<!-- Creator: CorelDRAW 2020 (64-Bit) -->
<svg xmlns="http://www.w3.org/2000/svg" xml:space="preserve" width="133.264mm" height="77.7408mm" version="1.1" style="shape-rendering:geometricPrecision; text-rendering:geometricPrecision; image-rendering:optimizeQuality; fill-rule:evenodd; clip-rule:evenodd"
viewBox="0 0 13144.21 7667.78"
 xmlns:xlink="http://www.w3.org/1999/xlink"
 xmlns:xodm="http://www.corel.com/coreldraw/odm/2003">
 <defs>
  <style type="text/css">
   <![CDATA[
    .fil0 {fill:#D12437;fill-rule:nonzero}
    .fil1 {fill:#F7E81A;fill-rule:nonzero}
   ]]>
  </style>
 </defs>
 <g id="Layer_x0020_1">
  <metadata id="CorelCorpID_0Corel-Layer"/>
  <g id="_1909720972720">
   <g id="_2263527341808">
    <polygon class="fil0" points="-0,7667.78 13144.21,7667.78 13144.21,0 -0,0 "/>
    <path class="fil1" d="M7826.28 3985.58c-7.59,62.18 -18.47,122.38 -34.7,181.94 7.59,1.69 16.23,3 25.13,4.97 -9.94,1.03 -19.5,4.97 -28.13,6.93 -16.23,59.55 -37.32,118.17 -63.86,173.41 7.97,4.31 15.56,7.31 25.51,8.91 -10.88,0 -19.51,0 -29.07,1.31 -26.17,56.64 -55.99,111.88 -90.03,162.53 6.93,4.22 14.54,9.18 23.44,11.9 -8.91,0 -19.51,-1.03 -30.1,-1.03 -33.67,51.95 -71.46,100.53 -113.1,143.57 5.91,6.28 12.57,11.91 20.16,18.57 -9.57,-3.66 -19.22,-6.66 -28.13,-7.97 -42.02,45.95 -86.66,85.34 -134.95,125.38 4.97,7.59 10.88,12.19 18.47,20.16 -9.57,-4.97 -18.47,-9.56 -27.1,-10.59 -48.3,36.39 -99.6,71.83 -153.52,102.22 4.97,7.97 9.67,13.59 14.63,21.57 -7.68,-6.01 -15.56,-12.57 -25.22,-15.29 -53.27,30.1 -108.13,57.58 -167.02,79.8 3,7.59 6.57,14.81 11.25,21.11 -7.32,-6.29 -14.25,-12.58 -21.85,-18.2 -58.24,20.91 -117.14,38.07 -177.63,51.95 1.6,7.6 3.57,15.57 7.59,24.19 -6.66,-8.62 -12.57,-15.56 -19.5,-21.19 -59.93,12.57 -121.82,18.19 -183.35,21.19 1.04,9.57 1.04,16.89 3.66,26.08 -4.6,-7.59 -10.59,-16.51 -14.25,-24.11 -18.47,0 -37.05,0.94 -53.55,0.94 -45.02,0 -89.66,-2.91 -132.99,-7.22 -1.03,7.22 -1.03,14.91 0,24.76 -4.02,-9.84 -7.68,-17.54 -10.59,-26.07 -62.93,-7.97 -123.79,-18.57 -182.69,-34.14 -1.96,6.01 -3.94,15.56 -4.97,24.19 -1.59,-8.63 -3.56,-19.22 -5.53,-28.79 -60.95,-15.56 -119.1,-38.36 -174.71,-62.83 -3,7.59 -6.01,17.54 -8.91,24.47 0,-9 0,-18.56 -2.07,-28.79 -55.89,-27.84 -111.13,-56.55 -162.05,-88.34 -4.96,5.62 -7.59,13.59 -11.63,21.2 1.04,-9.67 2.07,-18.57 2.07,-28.14 -51.3,-34.41 -100.63,-71.46 -145.93,-114.5 -5.62,4.31 -10.59,12.28 -15.56,21.85 3,-10.88 5.91,-20.54 6.93,-27.76 -45.67,-44.74 -87.96,-89.37 -126.69,-136.36 -5.63,6.01 -12.57,10.6 -19.22,18.2 4.69,-8.54 8.63,-18.2 11.63,-28.79 -37.7,-47.26 -72.5,-99.5 -103.53,-151.46 -7.69,4.6 -14.63,9.57 -21.2,13.88 5.63,-6.28 10.59,-16.88 15.56,-22.88 -30.75,-55.23 -56.92,-112.16 -79.43,-168.71 -6.66,3.66 -14.54,6.66 -23.16,12.29 7.97,-8.63 13.59,-16.23 19.5,-22.88 -21.47,-56.55 -38.73,-117.41 -51.3,-178.93 -7.59,3 -16.23,6.28 -25.13,7.87 7.97,-5.91 16.6,-12.57 23.54,-20.16 -12.94,-58.24 -20.55,-120.41 -23.54,-181.94 -8.63,0 -16.5,1.31 -26.07,3.01 9.57,-4.69 17.44,-10.6 25.13,-15.57 -1.03,-16.5 -1.03,-33.1 -1.03,-51.58 0,-44.74 1.96,-90.69 7.97,-132.05 -9.01,-0.65 -17.54,-0.65 -27.2,0 9.67,-4.31 19.23,-7.59 28.14,-11.9 5.62,-62.18 18.19,-124.36 33.76,-183.25 -7.59,-1.69 -15.57,-1.69 -24.11,-3 8.53,-1.69 18.47,-3.66 27.1,-6.66 17.16,-59.55 38.36,-119.1 62.55,-173.97 -6.66,-4.69 -14.25,-6.66 -24.19,-9.28 10.59,0 20.54,-1.31 30.1,-3 25.13,-54.86 54.96,-110.19 90.03,-160.47 -6.94,-4.59 -14.64,-9.56 -23.54,-12.57 9.94,0 19.51,1.97 29.17,1.97 33.66,-50.92 72.4,-99.88 114.13,-147.52 -6,-3 -13.59,-8.63 -21.56,-13.6 9.93,1.97 19.6,4.97 28.79,7.59 41.73,-45.58 87.4,-90.31 135.32,-126.69 -4.6,-7.59 -11.54,-14.16 -18.2,-18.47 9.57,3.28 18.2,5.91 27.1,10.88 48.01,-38.36 99.6,-73.81 152.58,-104.2 -4.03,-7.97 -8.92,-13.59 -14.54,-21.47 7.59,5.91 17.54,10.59 24.1,15.19 54.31,-30.48 111.13,-56.55 169.09,-77.74 -3,-7.97 -7.97,-15.56 -12.57,-24.48 7.6,7.6 14.54,14.91 22.13,19.51 58.24,-20.82 117.14,-39.38 178.65,-51.95 -1.97,-7.98 -3.94,-15.57 -7.59,-24.11 5.62,7.59 12.57,15.48 18.2,23.17 61.23,-14.64 122.1,-20.55 184.55,-23.17 -0.94,-7.97 -1.96,-16.88 -3.94,-26.17 4.97,9.29 10.98,18.2 15.56,24.11 17.54,0 34.05,0 51.96,0 44.64,0 89.93,2.06 132.6,7.69 1.04,-8.63 1.04,-16.6 0,-27.2 4.03,10.6 7.69,18.57 11.63,27.2 61.53,7.87 122.76,18.47 182.6,34.04 1.96,-6 2.62,-15.56 3.65,-24.19 1.97,8.63 3.95,19.22 6.94,27.19 59.93,18.2 118.82,40.33 173.68,64.53 4.03,-7.97 6.93,-17.54 8.91,-24.19 0,8.62 1.04,19.22 2.72,28.42 55.9,26.16 110.09,56.27 161.39,88.34 4.69,-5.62 8.63,-13.5 12.57,-21.1 -1.96,9.57 -2.9,20.16 -2.9,29.07 50.92,35.36 100.53,73.16 145.83,113.2 5.62,-6.01 11.63,-11.91 16.23,-21.57 -2.63,10.97 -5.63,20.16 -6.57,31.14 44.64,41.36 86.93,85.71 126.69,134.01 5.63,-7.32 11.54,-11.63 18.2,-19.61 -3.66,10.98 -8.63,19.61 -11.63,27.2 38.45,47.92 72.5,99.59 104.56,154.46 6.67,-5.63 14.54,-8.63 20.82,-14.91 -5.62,7.31 -11.25,16.88 -16.23,24.85 30.86,53.27 57.96,108.23 79.15,167.77 7.88,-2.71 15.48,-7.31 23.44,-12.57 -6.93,7.88 -13.59,14.16 -19.5,22.13 22.12,58.24 38.35,117.41 51.95,178.94 7.88,-1.97 16.5,-4.88 25.42,-9.85 -8.92,7.88 -16.51,14.16 -23.44,20.45 12.57,60.21 19.5,122.1 23.44,184.94 7.68,-1.31 16.23,-2.62 26.16,-4.22 -9.93,4.22 -18.47,10.5 -25.13,15.48 0,16.23 0,34.79 0,51.67 0,44.64 -1.96,88.34 -6.93,132.6 8.62,1.97 16.5,1.97 26.16,1.97 -9.66,1.69 -18.56,6 -27.19,9.28zm1055.69 -143.86c-297.38,73.43 -619.32,-163.84 -894.57,-113.48 0,-3 0,-7.69 -0.94,-8.63 265.68,-127.73 706.36,13.6 866.81,-238.57 -281.25,120.41 -633.59,-62.84 -897.29,28.79 -0.94,-4.97 -0.94,-7.59 -3.01,-12.57 242.24,-162.05 697.17,-94.63 816.27,-366.87 -258.08,162.15 -632.65,38.07 -880.04,166.74 -1.04,-4.59 -3,-9.28 -4.03,-10.97 213.45,-198.16 671.28,-203.12 745.74,-488.97 -228.92,199.85 -616.33,137.01 -840.36,301.41 -1.97,-3.66 -4.97,-7.88 -6.94,-12.57 181.65,-228.27 629.93,-302.72 657.68,-597.1 -193.19,232.85 -583.88,232.85 -781.1,427.08 -2.9,-3.01 -5.62,-7.6 -8.53,-10.6 145.55,-252.46 573.66,-396.03 556.12,-691.82 -155.21,260.43 -540.65,321.95 -704.39,543.64 -2.62,-3.65 -7.22,-6.66 -10.23,-9.66 106.17,-270.27 502.2,-481.65 440.31,-766.19 -113.1,278.9 -482.04,399.32 -610.33,642.78 -3,-3.57 -7.68,-6.29 -12.57,-7.6 64.8,-283.21 421.07,-551.15 314.91,-823.11 -67.52,290.16 -411.6,467.78 -500.23,726.52 -4.97,-1.6 -10.59,-3 -15.56,-4.97 20.54,-287.44 329.17,-608.73 181.65,-860.81 -19.51,299.72 -332.45,527.32 -379.81,797.32 -5.62,-1.97 -10.59,-3.66 -15.19,-3.66 -24.48,-287.15 229.95,-653.36 45.29,-877.69 24.86,297.75 -246.45,573.01 -252.08,847.31 -4.97,-2.06 -10.98,-2.06 -15.57,-2.06 -69.49,-280.88 125.77,-678.88 -92.93,-874.69 72.77,290.43 -153.24,605.72 -115.45,876.76 -4.96,1.31 -10.59,1.31 -15.56,1.31 -113.19,-266.06 17.54,-691.44 -228.92,-848.63 117.7,275.24 -56.92,621.02 23.16,882.29 -4.97,2.06 -9.66,3 -14.63,4.32 -153.52,-246.09 -91.62,-686.47 -359.27,-802.57 159.14,253.76 40.7,624.3 161.12,870.46 -3.66,2.91 -9.29,4.88 -13.23,7.88 -191.22,-220.66 -198.81,-665.65 -481,-739.08 197.13,224.7 136.92,611.35 297.75,835.02 -4.97,1.69 -9.01,4.69 -13.59,7.59 -223.29,-184.56 -300.76,-627.21 -593.17,-654.68 231.92,194.88 231.92,584.25 427.08,781.75 -3.01,1.7 -6.94,4.6 -9.94,8.92 -252.09,-146.86 -396.98,-574.97 -690.79,-558.47 260.05,156.9 319.98,546.55 544.87,708.71 -2.9,3 -4.87,5.91 -8.53,10.88 -272.62,-104.2 -482.69,-506.51 -769.85,-444.24 281.16,115.06 401.57,491.6 650.1,615.29 -1.96,2.63 -4.03,6.28 -5.62,9.29 -287.16,-56.56 -558.47,-423.8 -833.71,-316.32 296.44,68.55 475.37,423.51 740.68,505.85 -0.94,3.01 -1.97,6.01 -3.57,10.6 -291.84,-8.91 -619.32,-333.11 -875.44,-183.25 305.35,21.2 536.99,347.08 814.2,384.12 -1.04,2.91 -1.97,7.22 -1.97,10.88 -290.53,37.7 -666.03,-232.85 -897.29,-44.36 306.38,-26.07 588.56,261.09 868.5,252.17 0,2.91 -1.04,5.91 -1.04,8.91 -280.87,87.68 -696.41,-124.07 -895.51,99.6 299.73,-73.53 623.27,165.05 900.48,111.41 0,3.01 0,6.38 0,9.67 -263.62,131.66 -710.29,-15.57 -872.44,239.8 286.21,-122.38 645.21,67.52 909.86,-33.39 0,3.28 0.94,6.28 0.94,8.26 -238.48,173.68 -704.95,98.28 -825.73,375.49 262.68,-165.05 649.15,-33.66 895.23,-174.33 1.03,1.69 1.96,3 3,4.69 -207.44,212.04 -683.48,209.03 -759.91,502.85 235.57,-206.13 639.49,-132.04 859.5,-316.32 0.94,3.01 1.96,4.69 3,6.67 -170.12,242.51 -644.47,316.6 -673.26,618.01 199.76,-240.92 612.39,-232.95 799.58,-447.34 1.97,0 4.03,0 4.03,3 -127.73,269.35 -588.28,414.89 -570.1,717.61 160.47,-269.34 572.07,-324.29 722.58,-569.06 1.97,1.31 3,1.31 3,3.01 -82.05,287.81 -515.79,503.13 -451.93,801.54 118.72,-292.13 515.79,-411.23 626.54,-677.47 1.04,1.59 1.97,1.59 3.01,2.9 -36.39,296.83 -432.71,577.98 -320.55,862.88 69.4,-306.01 445.27,-486.72 511.77,-767.59 1.03,1.96 3,1.96 3.94,3 11.63,299.73 -337.05,637.52 -182.59,902.17 21.2,-315.3 364.24,-550.77 385.44,-838.31 1.97,0 3,0 3.94,1.69 58.62,293.72 -232.85,685.82 -38.63,922.33 -27.19,-314.91 274.22,-602.82 250.11,-888.67 0,0 2.91,0 3.94,0 104.2,279.94 -123.7,713.02 105.88,914.84 -76.15,-304.41 177.34,-634.9 107.47,-914.84 0,0 2.72,0 3.66,0 148.26,261.74 -9.57,721.93 249.45,888.67 -123.7,-291.84 73.43,-655.71 -36.76,-922.33 1.04,0 3.01,-1.69 4.03,-1.69 184.28,237.17 102.22,716.3 382.44,838.31 -166.09,-265.69 -29.17,-659 -178.65,-902.17 1.04,-1.04 1.97,-3 3.95,-3 218.04,204.44 213.07,689.47 508.85,767.59 -205.75,-237.26 -132.33,-642.21 -317.64,-864.19 1.97,0 1.97,-1.59 3.66,-1.59 248.15,168.71 317.64,647.08 621.96,677.47 -240.46,-200.41 -230.89,-614.64 -447.9,-803.24 0.94,0 2.91,-1.31 3.95,-2.62 269.34,128.39 413.19,588.85 718.26,570.37 -267.37,-160.18 -324.58,-567.75 -566.06,-720.61 1.97,-1.59 3.95,-1.59 4.97,-3 284.16,86.09 499.2,513.83 794.6,450.34 -287.81,-117.14 -407.2,-508.2 -666.96,-622.98 1.03,-1.7 1.03,-3.01 3,-4.97 293.16,43.32 572.35,429.79 853.59,319.6 -302.06,-70.15 -482.03,-434.11 -754.65,-508.86 1.03,-1.96 1.97,-4.97 1.97,-7.59 296.82,0 631.23,334.8 891.01,183.25 -308.36,-21.1 -541.96,-350.36 -822.18,-385.44 1.04,-2.91 1.97,-4.6 1.97,-7.59 292.51,-44.27 670.91,232.95 904.23,42.67 -306.38,25.88 -587.63,-259.97 -867.47,-252.36 0,-3.01 0,-6.28 0,-9.01 280.88,-87.6 697.35,124.07 896.17,-99.5z"/>
    <path class="fil1" d="M6459.61 3121.1c-174.72,-73.43 -363.87,-116.1 -563.06,-124.07 -15.56,15.56 -31.13,28.79 -45.67,44.36 189.53,7.59 370.25,50.64 536.33,119.76 24.1,-13.6 47.26,-28.14 72.4,-40.04z"/>
    <path class="fil1" d="M7180.23 2928.21c-167.11,-125.39 -374.84,-197.5 -599.16,-197.5 -223.67,0 -431.39,72.11 -600.48,197.5 212.69,9.28 414.23,55.32 600.48,134.39 185.59,-79.06 388.35,-125.11 599.16,-134.39z"/>
    <path class="fil1" d="M6289.87 3222c-154.82,-63.86 -321.85,-105.22 -496.58,-115.81 -11.9,13.23 -22.51,26.82 -33.1,41.36 166.46,13.6 324.57,54.58 470.5,117.14 19.12,-13.51 38.73,-27.1 59.17,-42.68l0.01 0z"/>
    <path class="fil1" d="M6724.26 3502.24c-20.45,15.19 -40.71,31.79 -59.83,48.67 286.77,270.93 469.09,653.75 477.99,1080.45 31.79,-20.45 62.93,-42.95 91.72,-67.44 -25.88,-422.47 -217.1,-797.32 -509.88,-1061.68z"/>
    <path class="fil1" d="M6774.25 3161.15c167.39,-69.12 349.05,-112.17 537.26,-119.76 -15.19,-15.56 -30.75,-28.79 -46.33,-44.36 -199.09,7.97 -388.35,50.64 -562.03,124.07 24.11,11.9 48.3,26.44 71.09,40.04z"/>
    <path class="fil1" d="M6893.36 3387.44c-24.19,13.22 -47.26,28.79 -70.43,45.95 286.78,249.18 486.91,600.19 542.52,996.88 29.17,-33.1 55.24,-70.15 80.38,-110.19 -77.37,-369.86 -275.24,-695.75 -552.46,-932.64z"/>
    <path class="fil1" d="M6151.63 3327.25c-134.39,-59.28 -280.22,-102.22 -432.79,-118.82 -101.57,160.46 -161.12,353.74 -161.12,558.18 0,123.7 21.85,241.86 60.58,351.67 102.6,-312 288.85,-584.25 533.33,-791.03z"/>
    <path class="fil1" d="M6931.05 3264.69c146.58,-62.55 305.07,-103.53 471.43,-117.14 -10.59,-14.54 -22.51,-28.13 -33.1,-41.36 -175.65,10.59 -342.68,51.95 -496.58,115.81 19.5,15.57 38.72,29.17 58.23,42.68l0.01 0z"/>
    <path class="fil1" d="M6156.24 4663.14c0,15.19 1.04,30.76 1.04,45.95 129.7,58.62 272.25,91.72 423.8,91.72 150.8,0 293.72,-33.1 423.42,-91.72 0,-15.19 0,-30.76 0,-45.95 0,-403.63 -162.43,-769.85 -423.42,-1035.52 -262.68,265.68 -424.83,631.89 -424.83,1035.52z"/>
    <path class="fil1" d="M6581.06 3177.66c-23.82,13.6 -48.95,26.17 -72.12,39.39 23.17,14.25 48.3,26.16 72.12,40.04 24.48,-13.88 48.58,-25.78 73.71,-40.04 -24.1,-13.23 -49.23,-25.79 -73.71,-39.39z"/>
    <path class="fil1" d="M7011.14 3327.25c243.46,206.78 430.74,479.03 532.3,791.03 39.67,-109.82 60.58,-227.98 60.58,-351.67 0,-204.45 -58.89,-397.73 -160.18,-558.18 -152.49,16.6 -298.69,59.54 -432.7,118.82z"/>
    <path class="fil1" d="M6497.97 3550.9c-19.79,-16.88 -39.3,-33.48 -59.55,-48.67 -292.78,264.37 -484,639.21 -509.79,1061.68 28.79,24.48 59.55,46.99 90.69,67.44 8.53,-426.7 190.83,-809.52 478.65,-1080.45z"/>
    <path class="fil1" d="M6520.48 3431.81c21.2,15.56 40.7,30.76 60.58,45.67 19.51,-14.9 40.04,-30.1 60.21,-45.67 -19.51,-16.6 -39.67,-32.08 -60.21,-46.04 -19.88,13.97 -40.42,29.44 -60.58,46.04z"/>
    <path class="fil1" d="M6339.86 3433.4c-24.1,-17.16 -47.26,-32.74 -71.46,-45.95 -276.28,236.89 -474.43,562.78 -551.52,932.64 24.19,40.04 51.01,77.09 79.05,110.19 56.93,-396.69 256.12,-747.7 543.93,-996.88z"/>
    <path class="fil1" d="M6679.62 3321.61c21.47,13.6 40.7,29.08 60.21,44.36 23.17,-15.28 48.01,-30.75 73.43,-42.67 -20.45,-15.29 -40.71,-29.17 -59.83,-43.04 -25.13,12.29 -49.61,25.79 -73.81,41.36z"/>
    <path class="fil1" d="M6349.43 3323.29c24.19,11.91 49.33,27.39 71.46,42.67 21.2,-15.28 40.71,-30.75 61.24,-44.36 -24.48,-15.56 -47.64,-29.07 -73.81,-41.36 -19.13,13.88 -39.38,27.76 -58.89,43.04z"/>
   </g>
  </g>
 </g>
</svg>
