<?xml version="1.0" encoding="UTF-8"?>
<!DOCTYPE svg PUBLIC "-//W3C//DTD SVG 1.1//EN" "http://www.w3.org/Graphics/SVG/1.1/DTD/svg11.dtd">
<!-- Creator: CorelDRAW 2020 (64-Bit) -->
<svg xmlns="http://www.w3.org/2000/svg" xml:space="preserve" width="133.267mm" height="77.7314mm" version="1.1" style="shape-rendering:geometricPrecision; text-rendering:geometricPrecision; image-rendering:optimizeQuality; fill-rule:evenodd; clip-rule:evenodd"
viewBox="0 0 13144.6 7666.92"
 xmlns:xlink="http://www.w3.org/1999/xlink"
 xmlns:xodm="http://www.corel.com/coreldraw/odm/2003">
 <defs>
  <style type="text/css">
   <![CDATA[
    .fil0 {fill:#57ADC6;fill-rule:nonzero}
    .fil1 {fill:#F7CA27;fill-rule:nonzero}
   ]]>
  </style>
 </defs>
 <g id="Layer_x0020_1">
  <metadata id="CorelCorpID_0Corel-Layer"/>
  <g id="_1909817602624">
   <g id="_2299929574464">
    <polygon class="fil0" points="-0,7666.92 13144.6,7666.92 13144.6,0 -0,0 "/>
    <path class="fil1" d="M862.13 5407.91c0,-154.46 138.61,-232.86 247.12,-232.86 145.64,0 224.05,87.02 224.05,200.51 0,66.11 -12.29,105.51 -42.02,168.34 0,0 -241.58,498.65 -335.18,692.76 -10.59,23.17 -15.19,51.96 -15.19,91.72 0,62.46 60.49,113.48 124.07,115.08 57.49,1.69 120.05,-53.55 120.05,-118.07 0,-74.08 -39.02,-108.22 -79.06,-108.22 -50.92,0 -71.74,19.5 -71.74,54.95 0,24.11 12.19,35.07 29.73,35.07 42.01,0 29.82,-57.96 29.82,-57.96 21.48,4.69 39.96,27.48 30.1,53 15.2,4.96 29.45,12.57 40.61,25.13 -11.16,10.59 -23.82,19.5 -40.61,22.51 9.85,33.38 -4.03,48.95 -33.76,55.23 6.28,-10.23 6.94,-22.79 5.63,-33.39 -46.99,11.53 -117.14,-9.66 -117.14,-88.06 0,-77.37 55.62,-144.52 156.52,-128.02 -23.82,-11.91 -36.1,-35.07 -38.73,-61.23 18.86,6 38.73,7.68 38.73,7.68 -11.25,-20.91 -28.13,-39.38 -26.54,-81.12 17.26,10.59 35.73,26.17 60.22,16.6 -38.36,-76.15 8.62,-178.65 128.11,-202.85 -43.05,48.67 -65.18,105.22 -65.18,160.18 0,177.99 49.6,208.37 49.6,330.48 0,51.95 -27.48,108.51 -78.77,146.87l0 -1.31c34.41,8.91 56.56,24.47 68.83,48.67 -78.12,21.76 -194.22,21.76 -257.05,-3 -71.83,-7.59 -121.73,-62.55 -136.36,-89.66 -15.85,-29.44 -43.33,-129.04 0,-219.35 47.36,-99.6 271.03,-572.06 339.77,-720.62 15.56,-32.08 24.57,-64.15 24.57,-100.91 0,-91.62 -83.09,-122.01 -131.01,-122.01 -56.92,0 -115.16,42.29 -115.16,97.25 0,32.73 19.51,54.21 45.95,54.21 63.87,0 60.21,-54.21 46.33,-88.62 40.71,18.19 64.9,48.67 57.58,82.05 22.79,3 44.37,15.56 64.15,38.73 -15.48,18.2 -35.36,33.39 -64.15,33.39 13.23,53.26 -22.13,73.43 -57.58,85.71 12.29,-36.1 19.22,-81.12 -46.33,-81.12 -47.64,0 -86,-9.19 -107.47,-37.98 -0.66,39.3 -5.35,201.44 -5.35,201.44 -1.97,61.53 82.71,60.21 135.7,43.04 -19.88,70.16 -61.24,108.79 -157.83,99.23 23.17,9.57 48.3,30.76 48.3,73.43 0,56.56 -46.61,121.07 -77.47,139.26l-15.85 -596.16 0 -0.01z"/>
    <path class="fil1" d="M893.26 5407.91c0,-154.46 -137.67,-232.86 -246.83,-232.86 -145.27,0 -222.64,87.02 -222.64,200.51 0,66.11 10.87,105.51 40.32,168.34 0,0 241.86,498.65 336.11,692.76 11.25,23.17 15.29,51.96 15.29,91.72 0,62.46 -60.58,113.48 -124.07,115.08 -57.96,1.69 -120.8,-53.55 -120.8,-118.07 0,-74.08 39.02,-108.22 79.43,-108.22 50.65,0 70.43,19.5 70.43,54.95 0,24.11 -11.25,35.07 -29.07,35.07 -41.74,0 -30.49,-57.96 -30.49,-57.96 -20.54,4.69 -38.35,27.48 -29.07,53 -15.29,4.96 -29.17,12.57 -41.36,25.13 12.19,10.59 24.47,19.5 41.36,22.51 -9.28,33.38 3.94,48.95 32.73,55.23 -5.91,-10.23 -5.91,-22.79 -4.6,-33.39 45.95,11.53 116.39,-9.66 116.39,-88.06 0,-77.37 -53.55,-144.52 -156.81,-128.02 24.48,-11.91 37.71,-35.07 39.11,-61.23 -17.54,6 -39.11,7.68 -39.11,7.68 12.29,-20.91 30.1,-39.38 28.51,-81.12 -19.22,10.59 -37.8,26.17 -61.24,16.6 38.07,-76.15 -8.63,-178.65 -128.01,-202.85 44.63,48.67 65.18,105.22 65.18,160.18 0,177.99 -49.61,208.37 -49.61,330.48 0,51.95 26.73,108.51 79.34,146.87l0 -1.31c-34.42,8.91 -57.21,24.47 -70.43,48.67 80.38,21.76 195.82,21.76 258,-3 72.87,-7.59 120.79,-62.55 136.64,-89.66 14.63,-29.44 43.04,-129.04 0,-219.35 -48.95,-99.6 -271.21,-572.06 -341.08,-720.62 -13.5,-32.08 -22.78,-64.15 -22.78,-100.91 0,-91.62 83.37,-122.01 130.64,-122.01 55.98,0 114.13,42.29 114.13,97.25 0,32.73 -18.47,54.21 -45.3,54.21 -63.49,0 -60.21,-54.21 -47.27,-88.62 -39.76,18.19 -62.54,48.67 -56.64,82.05 -22.13,3 -44.27,15.56 -64.15,38.73 16.23,18.2 35.07,33.39 64.15,33.39 -13.23,53.26 22.22,73.43 56.64,85.71 -11.25,-36.1 -18.19,-81.12 47.27,-81.12 48.3,0 85.06,-9.19 107.19,-37.98 1.69,39.3 5.63,201.44 5.63,201.44 2.62,61.53 -82.06,60.21 -136.27,43.04 19.8,70.16 61.8,108.79 159.16,99.23 -23.82,9.57 -49.05,30.76 -49.05,73.43 0,56.56 47.35,121.07 77.74,139.26l15.29 -596.16 0 -0.01z"/>
    <path class="fil1" d="M877.98 7066.14c0,0 72.12,59.55 98,29.08 39.67,-49.33 -122.1,-293.44 -122.1,-381.13 0,-142.55 93.97,-180.63 211.1,-200.13 79.34,-13.6 206.41,5.62 206.41,5.62 -22.78,32.35 -38.07,41.36 -79.43,44.27 45.02,23.17 91.63,75.12 91.63,153.24 0,122.01 -50.27,173.31 -50.27,309.01 0,77.74 61.52,174.62 61.52,174.62 -110.76,-10.88 -165.7,-115.07 -133.64,-195.82 -17.54,-3.27 -35.35,1.7 -47.27,14.91 -7.97,-22.88 3.95,-48.67 21.2,-73.52 -14.63,-5.63 -23.82,0 -46.7,3 3.28,-22.51 17.54,-47.27 50.65,-71.46 -99.6,27.48 -160.47,-44.36 -160.47,-116.1 0,-53.92 39.02,-93.59 75.78,-93.59 12.57,0 30.1,2.91 41.36,12.19 5.91,-14.91 2.62,-33.39 -5.63,-48.58 28.42,5.91 45.02,20.82 33.76,56.56 20.45,1.31 37.98,7.59 48.95,21.48 -10.97,16.5 -29.17,24.47 -48.95,22.88 15.2,32.07 -1.4,50.54 -27.48,64.14 0,0 16.89,-64.14 -23.82,-64.14 -19.22,0 -36.1,7.22 -36.1,33 0,23.54 20.54,57.31 69.49,55.24 45.95,-2.91 85.35,-33.01 85.35,-110.1 0,-68.55 -56.18,-103.91 -131.01,-105.22 -65.84,-3 -117.79,33.39 -117.79,104.2 0,90.02 133.08,298.13 133.08,380.84 0,60.87 -54.96,94.63 -110.19,94.63 -68.84,0 -128.39,-68.84 -128.39,-68.84l40.98 -50.27 0 -0.01z"/>
    <path class="fil1" d="M877.98 7066.14c0,0 -72.4,59.55 -96.88,29.08 -40.7,-49.33 122.38,-293.44 122.38,-381.13 0,-142.55 -95.56,-180.63 -212.03,-200.13 -79.44,-13.6 -208.11,5.62 -208.11,5.62 24.76,32.35 40.05,41.36 80.38,44.27 -44.37,23.17 -89.28,75.12 -89.28,153.24 0,122.01 48.95,173.31 48.95,309.01 0,77.74 -62.93,174.62 -62.93,174.62 110.19,-10.88 166.09,-115.07 135.33,-195.82 16.23,-3.27 33.11,1.7 47.36,14.91 6.93,-22.88 -5.35,-48.67 -21.85,-73.52 12.84,-5.63 23.45,0 45.94,3 -2.62,-22.51 -17.16,-47.27 -51.58,-71.46 100.25,27.48 161.77,-44.36 161.77,-116.1 0,-53.92 -38.35,-93.59 -76.71,-93.59 -11.25,0 -29.17,2.91 -39.77,12.19 -7.59,-14.91 -3,-33.39 3.66,-48.58 -26.82,5.91 -45.02,20.82 -32.73,56.56 -21.57,1.31 -37.42,7.59 -48.95,21.48 11.53,16.5 29.07,24.47 48.95,22.88 -15.29,32.07 2.25,50.54 26.82,64.14 0,0 -15.56,-64.14 25.13,-64.14 18.47,0 35.07,7.22 35.07,33 0,23.54 -20.54,57.31 -68.84,55.24 -46.32,-2.91 -84.68,-33.01 -84.68,-110.1 0,-68.55 55.9,-103.91 130.63,-105.22 66.87,-3 117.14,33.39 117.14,104.2 0,90.02 -132.33,298.13 -132.33,380.84 0,60.87 55.23,94.63 108.88,94.63 70.71,0 128.95,-68.84 128.95,-68.84l-40.71 -50.27 0 -0.01z"/>
    <path class="fil1" d="M862.13 2721.54c0,-153.24 138.61,-232.58 247.12,-232.58 145.64,0 224.05,88.34 224.05,201.81 0,65.84 -12.29,105.13 -42.02,166.75 0,0 -241.58,499.85 -335.18,692.76 -10.59,24.47 -15.19,53.26 -15.19,92 0,64.15 60.49,113.1 124.07,114.79 57.49,0.94 120.05,-52.33 120.05,-116.85 0,-76.06 -39.02,-108.13 -79.06,-108.13 -50.92,0 -71.74,18.2 -71.74,55.23 0,23.82 12.19,34.42 29.73,34.42 42.01,0 29.82,-59.27 29.82,-59.27 21.48,6.28 39.96,27.85 30.1,55.23 15.2,3 29.45,10.97 40.61,24.57 -11.16,8.91 -23.82,19.51 -40.61,23.07 9.85,31.79 -4.03,49.05 -33.76,54.96 6.28,-10.6 6.94,-23.17 5.63,-35.36 -46.99,13.88 -117.14,-7.68 -117.14,-87.41 0,-78.03 55.62,-143.87 156.52,-126.98 -23.82,-10.6 -36.1,-36.39 -38.73,-62.55 18.86,7.59 38.73,7.59 38.73,7.59 -11.25,-21.47 -28.13,-36.76 -26.54,-79.72 17.26,9.57 35.73,24.76 60.22,15.57 -38.36,-75.12 8.62,-177.72 128.11,-203.8 -43.05,52.24 -65.18,107.19 -65.18,162.43 0,177.63 49.6,206.42 49.6,330.12 0,52.33 -27.48,109.26 -78.77,147.24l0 -1.32c34.41,7.6 56.56,24.2 68.83,47.36 -78.12,23.17 -194.22,23.17 -257.05,-3 -71.83,-7.59 -121.73,-61.24 -136.36,-88.72 -15.85,-29.07 -43.33,-128.67 0,-218.98 47.36,-99.23 271.03,-572.06 339.77,-720.24 15.56,-30.76 24.57,-64.53 24.57,-101.19 0,-90.03 -83.09,-122.48 -131.01,-122.48 -56.92,0 -115.16,43.04 -115.16,96.59 0,33.76 19.51,52.99 45.95,52.99 63.87,0 60.21,-52.99 46.33,-87.02 40.71,18.57 64.9,50.26 57.58,82.34 22.79,3.66 44.37,15.56 64.15,38.73 -15.48,16.88 -35.36,32.08 -64.15,33.39 13.23,52.33 -22.13,75.49 -57.58,86.09 12.29,-38.45 19.22,-81.12 -46.33,-81.12 -47.64,0 -86,-9.57 -107.47,-38.36 -0.66,40.05 -5.35,201.54 -5.35,201.54 -1.97,62.83 82.71,60.21 135.7,41.63 -19.88,72.5 -61.24,108.51 -157.83,99.6 23.17,10.59 48.3,31.41 48.3,75.12 0,55.9 -46.61,121.07 -77.47,139.26l-15.85 -598.13 0 0.01z"/>
    <path class="fil1" d="M893.26 2721.54c0,-153.24 -137.67,-232.58 -246.83,-232.58 -145.27,0 -222.64,88.34 -222.64,201.81 0,65.84 10.87,105.13 40.32,166.75 0,0 241.86,499.85 336.11,692.76 11.25,24.47 15.29,53.26 15.29,92 0,64.15 -60.58,113.1 -124.07,114.79 -57.96,0.94 -120.8,-52.33 -120.8,-116.85 0,-76.06 39.02,-108.13 79.43,-108.13 50.65,0 70.43,18.2 70.43,55.23 0,23.82 -11.25,34.42 -29.07,34.42 -41.74,0 -30.49,-59.27 -30.49,-59.27 -20.54,6.28 -38.35,27.85 -29.07,55.23 -15.29,3 -29.17,10.97 -41.36,24.57 12.19,8.91 24.47,19.51 41.36,23.07 -9.28,31.79 3.94,49.05 32.73,54.96 -5.91,-10.6 -5.91,-23.17 -4.6,-35.36 45.95,13.88 116.39,-7.68 116.39,-87.41 0,-78.03 -53.55,-143.87 -156.81,-126.98 24.48,-10.6 37.71,-36.39 39.11,-62.55 -17.54,7.59 -39.11,7.59 -39.11,7.59 12.29,-21.47 30.1,-36.76 28.51,-79.72 -19.22,9.57 -37.8,24.76 -61.24,15.57 38.07,-75.12 -8.63,-177.72 -128.01,-203.8 44.63,52.24 65.18,107.19 65.18,162.43 0,177.63 -49.61,206.42 -49.61,330.12 0,52.33 26.73,109.26 79.34,147.24l0 -1.32c-34.42,7.6 -57.21,24.2 -70.43,47.36 80.38,23.17 195.82,23.17 258,-3 72.87,-7.59 120.79,-61.24 136.64,-88.72 14.63,-29.07 43.04,-128.67 0,-218.98 -48.95,-99.23 -271.21,-572.06 -341.08,-720.24 -13.5,-30.76 -22.78,-64.53 -22.78,-101.19 0,-90.03 83.37,-122.48 130.64,-122.48 55.98,0 114.13,43.04 114.13,96.59 0,33.76 -18.47,52.99 -45.3,52.99 -63.49,0 -60.21,-52.99 -47.27,-87.02 -39.76,18.57 -62.54,50.26 -56.64,82.34 -22.13,3.66 -44.27,15.56 -64.15,38.73 16.23,16.88 35.07,32.08 64.15,33.39 -13.23,52.33 22.22,75.49 56.64,86.09 -11.25,-38.45 -18.19,-81.12 47.27,-81.12 48.3,0 85.06,-9.57 107.19,-38.36 1.69,40.05 5.63,201.54 5.63,201.54 2.62,62.83 -82.06,60.21 -136.27,41.63 19.8,72.5 61.8,108.51 159.16,99.6 -23.82,10.59 -49.05,31.41 -49.05,75.12 0,55.9 47.35,121.07 77.74,139.26l15.29 -598.13 0 0.01z"/>
    <path class="fil1" d="M893.26 2260.98c0,154.55 -137.67,232.29 -246.83,232.29 -145.27,0 -222.64,-85.44 -222.64,-202.19 0,-62.55 10.87,-103.54 40.32,-165.43 0,0 241.86,-500.24 336.11,-694.46 11.25,-22.13 15.29,-49.89 15.29,-91.62 0,-62.84 -60.58,-111.51 -124.07,-114.41 -57.96,-1.69 -120.8,54.86 -120.8,116.39 0,77.74 39.02,111.51 79.43,111.51 50.65,0 70.43,-21.86 70.43,-56.56 0,-24.47 -11.25,-35.73 -29.07,-35.73 -41.74,0 -30.49,58.52 -30.49,58.52 -20.54,-4.6 -38.35,-26.08 -29.07,-53.55 -15.29,-4.97 -29.17,-10.6 -41.36,-24.19 12.19,-10.6 24.47,-20.45 41.36,-23.45 -9.28,-33.39 3.94,-49.99 32.73,-56.27 -5.91,13.88 -5.91,24.85 -4.6,36.76 45.95,-13.88 116.39,6.93 116.39,85.34 0,78.4 -53.55,145.27 -156.81,127.36 24.48,11.91 37.71,36.39 39.11,63.21 -17.54,-6.94 -39.11,-8.63 -39.11,-8.63 12.29,21.85 30.1,38.36 28.51,81.4 -19.22,-9.28 -37.8,-26.44 -61.24,-14.91 38.07,74.18 -8.63,178.65 -128.01,201.81 44.63,-52.24 65.18,-105.87 65.18,-160.73 0,-177.34 -49.61,-208.11 -49.61,-331.89 0,-50.92 26.73,-107.19 79.34,-143.87l0 1.31c-34.42,-8.91 -57.21,-27.48 -70.43,-48.67 80.38,-24.77 195.82,-23.45 258,1.03 72.87,7.59 120.79,64.53 136.64,90.68 14.63,27.1 43.04,128.68 0,218.33 -48.95,99.6 -271.21,573.01 -341.08,720.53 -13.5,31.13 -22.78,66.2 -22.78,101.28 0,89.94 83.37,124.08 130.64,124.08 55.98,0 114.13,-44.64 114.13,-96.98 0,-34.7 -18.47,-55.89 -45.3,-55.89 -63.49,0 -60.21,55.23 -47.27,88.62 -39.76,-17.54 -62.54,-50.92 -56.64,-83 -22.13,-3 -44.27,-13.6 -64.15,-36.39 16.23,-20.16 35.07,-35.07 64.15,-35.07 -13.23,-52.24 22.22,-75.12 56.64,-85.72 -11.25,36.4 -18.19,81.13 47.27,81.13 48.3,0 85.06,7.59 107.19,39.67 1.69,-41.73 5.63,-204.82 5.63,-204.82 2.62,-61.52 -82.06,-60.21 -136.27,-41.63 19.8,-70.52 61.8,-108.23 159.16,-99.6 -23.82,-8.63 -49.05,-32.08 -49.05,-73.43 0,-56.65 47.35,-120.79 77.74,-138.98l15.29 596.83z"/>
    <path class="fil1" d="M862.13 2260.98c0,154.55 138.61,232.29 247.12,232.29 145.64,0 224.05,-85.44 224.05,-202.19 0,-62.55 -12.29,-103.54 -42.02,-165.43 0,0 -241.58,-500.24 -335.18,-694.46 -10.59,-22.13 -15.19,-49.89 -15.19,-91.62 0,-62.84 60.49,-111.51 124.07,-114.41 57.49,-1.69 120.05,54.86 120.05,116.39 0,77.74 -39.02,111.51 -79.06,111.51 -50.92,0 -71.74,-21.86 -71.74,-56.56 0,-24.47 12.19,-35.73 29.73,-35.73 42.01,0 29.82,58.52 29.82,58.52 21.48,-4.6 39.96,-26.08 30.1,-53.55 15.2,-4.97 29.45,-10.6 40.61,-24.19 -11.16,-10.6 -23.82,-20.45 -40.61,-23.45 9.85,-33.39 -4.03,-49.99 -33.76,-56.27 6.28,13.88 6.94,24.85 5.63,36.76 -46.99,-13.88 -117.14,6.93 -117.14,85.34 0,78.4 55.62,145.27 156.52,127.36 -23.82,11.91 -36.1,36.39 -38.73,63.21 18.86,-6.94 38.73,-8.63 38.73,-8.63 -11.25,21.85 -28.13,38.36 -26.54,81.4 17.26,-9.28 35.73,-26.44 60.22,-14.91 -38.36,74.18 8.62,178.65 128.11,201.81 -43.05,-52.24 -65.18,-105.87 -65.18,-160.73 0,-177.34 49.6,-208.11 49.6,-331.89 0,-50.92 -27.48,-107.19 -78.77,-143.87l0 1.31c34.41,-8.91 56.56,-27.48 68.83,-48.67 -78.12,-24.77 -194.22,-23.45 -257.05,1.03 -71.83,7.59 -121.73,64.53 -136.36,90.68 -15.85,27.1 -43.33,128.68 0,218.33 47.36,99.6 271.03,573.01 339.77,720.53 15.56,31.13 24.57,66.2 24.57,101.28 0,89.94 -83.09,124.08 -131.01,124.08 -56.92,0 -115.16,-44.64 -115.16,-96.98 0,-34.7 19.51,-55.89 45.95,-55.89 63.87,0 60.21,55.23 46.33,88.62 40.71,-17.54 64.9,-50.92 57.58,-83 22.79,-3 44.37,-13.6 64.15,-36.39 -15.48,-20.16 -35.36,-35.07 -64.15,-35.07 13.23,-52.24 -22.13,-75.12 -57.58,-85.72 12.29,36.4 19.22,81.13 -46.33,81.13 -47.64,0 -86,7.59 -107.47,39.67 -0.66,-41.73 -5.35,-204.82 -5.35,-204.82 -1.97,-61.52 82.71,-60.21 135.7,-41.63 -19.88,-70.52 -61.24,-108.23 -157.83,-99.6 23.17,-8.63 48.3,-32.08 48.3,-73.43 0,-56.65 -46.61,-120.79 -77.47,-138.98l-15.85 596.83z"/>
    <path class="fil1" d="M893.26 4947.06c0,153.15 -137.67,232.58 -246.83,232.58 -145.27,0 -222.64,-88.62 -222.64,-201.44 0,-65.84 10.87,-104.57 40.32,-167.4 0,0 241.86,-500.23 336.11,-693.15 11.25,-24.47 15.29,-51.58 15.29,-91.62 0,-61.52 -60.58,-114.5 -124.07,-116.48 -57.96,-1.04 -120.8,54.96 -120.8,116.48 0,77.74 39.02,111.79 79.43,111.79 50.65,0 70.43,-20.17 70.43,-56.56 0,-24.47 -11.25,-35.07 -29.07,-35.07 -41.74,0 -30.49,59.55 -30.49,59.55 -20.54,-6.01 -38.35,-28.13 -29.07,-54.96 -15.29,-2.91 -29.17,-10.59 -41.36,-24.76 12.19,-10.32 24.47,-19.88 41.36,-22.51 -9.28,-32.45 3.94,-49.33 32.73,-56.92 -5.91,13.88 -5.91,25.78 -4.6,36.39 45.95,-13.23 116.39,7.97 116.39,86 0,79.43 -53.55,144.98 -156.81,128.76 24.48,11.91 37.71,34.7 39.11,62.46 -17.54,-7.22 -39.11,-9.19 -39.11,-9.19 12.29,21.76 30.1,40.05 28.51,81.03 -19.22,-8.91 -37.8,-24.19 -61.24,-15.19 38.07,74.74 -8.63,177.33 -128.01,201.81 44.63,-50.64 65.18,-105.6 65.18,-160.83 0,-176.97 -49.61,-206.13 -49.61,-331.8 0,-50.26 26.73,-106.53 79.34,-143.58l0 1.31c-34.42,-8.91 -57.21,-26.16 -70.43,-50.26 80.38,-21.2 195.82,-21.2 258,2.91 72.87,9.01 120.79,62.55 136.64,90.03 14.63,27.76 43.04,128.67 0,218.98 -48.95,99.59 -271.21,572.35 -341.08,720.62 -13.5,31.7 -22.78,64.14 -22.78,100.91 0,92.28 83.37,122.1 130.64,122.1 55.98,0 114.13,-42.39 114.13,-96.03 0,-33.39 -18.47,-55.23 -45.3,-55.23 -63.49,0 -60.21,55.23 -47.27,89 -39.76,-18.2 -62.54,-48.58 -56.64,-84.31 -22.13,-3 -44.27,-12.29 -64.15,-35.07 16.23,-19.88 35.07,-33.76 64.15,-33.76 -13.23,-53.65 22.22,-76.06 56.64,-88.62 -11.25,39.3 -18.19,83 47.27,83 48.3,0 85.06,6.93 107.19,39.38 1.69,-41.36 5.63,-205.1 5.63,-205.1 2.62,-61.62 -82.06,-57.96 -136.27,-41.08 19.8,-70.42 61.8,-107.19 159.16,-97.9 -23.82,-9.28 -49.05,-32.73 -49.05,-73.81 0,-58.24 47.35,-122.11 77.74,-142.27l15.29 599.83z"/>
    <path class="fil1" d="M862.13 4947.06c0,153.15 138.61,232.58 247.12,232.58 145.64,0 224.05,-88.62 224.05,-201.44 0,-65.84 -12.29,-104.57 -42.02,-167.4 0,0 -241.58,-500.23 -335.18,-693.15 -10.59,-24.47 -15.19,-51.58 -15.19,-91.62 0,-61.52 60.49,-114.5 124.07,-116.48 57.49,-1.04 120.05,54.96 120.05,116.48 0,77.74 -39.02,111.79 -79.06,111.79 -50.92,0 -71.74,-20.17 -71.74,-56.56 0,-24.47 12.19,-35.07 29.73,-35.07 42.01,0 29.82,59.55 29.82,59.55 21.48,-6.01 39.96,-28.13 30.1,-54.96 15.2,-2.91 29.45,-10.59 40.61,-24.76 -11.16,-10.32 -23.82,-19.88 -40.61,-22.51 9.85,-32.45 -4.03,-49.33 -33.76,-56.92 6.28,13.88 6.94,25.78 5.63,36.39 -46.99,-13.23 -117.14,7.97 -117.14,86 0,79.43 55.62,144.98 156.52,128.76 -23.82,11.91 -36.1,34.7 -38.73,62.46 18.86,-7.22 38.73,-9.19 38.73,-9.19 -11.25,21.76 -28.13,40.05 -26.54,81.03 17.26,-8.91 35.73,-24.19 60.22,-15.19 -38.36,74.74 8.62,177.33 128.11,201.81 -43.05,-50.64 -65.18,-105.6 -65.18,-160.83 0,-176.97 49.6,-206.13 49.6,-331.8 0,-50.26 -27.48,-106.53 -78.77,-143.58l0 1.31c34.41,-8.91 56.56,-26.16 68.83,-50.26 -78.12,-21.2 -194.22,-21.2 -257.05,2.91 -71.83,9.01 -121.73,62.55 -136.36,90.03 -15.85,27.76 -43.33,128.67 0,218.98 47.36,99.59 271.03,572.35 339.77,720.62 15.56,31.7 24.57,64.14 24.57,100.91 0,92.28 -83.09,122.1 -131.01,122.1 -56.92,0 -115.16,-42.39 -115.16,-96.03 0,-33.39 19.51,-55.23 45.95,-55.23 63.87,0 60.21,55.23 46.33,89 40.71,-18.2 64.9,-48.58 57.58,-84.31 22.79,-3 44.37,-12.29 64.15,-35.07 -15.48,-19.88 -35.36,-33.76 -64.15,-33.76 13.23,-53.65 -22.13,-76.06 -57.58,-88.62 12.29,39.3 19.22,83 -46.33,83 -47.64,0 -86,6.93 -107.47,39.38 -0.66,-41.36 -5.35,-205.1 -5.35,-205.1 -1.97,-61.62 82.71,-57.96 135.7,-41.08 -19.88,-70.42 -61.24,-107.19 -157.83,-97.9 23.17,-9.28 48.3,-32.73 48.3,-73.81 0,-58.24 -46.61,-122.11 -77.47,-142.27l-15.85 599.83z"/>
    <path class="fil1" d="M877.98 603.48c0,0 72.12,-60.58 98,-31.79 39.67,50.26 -122.1,296.44 -122.1,382.44 0,142.26 93.97,180.72 211.1,200.22 79.34,12.19 206.41,-4.02 206.41,-4.02 -22.78,-34.05 -38.07,-44.27 -79.43,-44.27 45.02,-24.86 91.63,-75.78 91.63,-154.83 0,-122.48 -50.27,-171.43 -50.27,-310.7 0,-76.72 61.52,-173.03 61.52,-173.03 -110.76,9.29 -165.7,113.48 -133.64,194.51 -17.54,3.37 -35.35,0 -47.27,-14.16 -7.97,23.17 3.95,49.24 21.2,72.78 -14.63,6.93 -23.82,2.9 -46.7,-1.97 3.28,22.78 17.54,48.95 50.65,72.4 -99.6,-26.17 -160.47,42.39 -160.47,115.83 0,54.86 39.02,93.31 75.78,93.31 12.57,0 30.1,-6.28 41.36,-13.88 5.91,17.16 2.62,38.36 -5.63,51.86 28.42,-7.88 45.02,-22.79 33.76,-57.87 20.45,-1.69 37.98,-9.28 48.95,-21.47 -10.97,-15.29 -29.17,-24.19 -48.95,-24.19 15.2,-30.76 -1.4,-48.95 -27.48,-62.83 0,0 16.89,62.83 -23.82,62.83 -19.22,0 -36.1,-6.28 -36.1,-32.45 0,-24.47 20.54,-55.23 69.49,-53.55 45.95,1.04 85.35,32.08 85.35,108.51 0,69.11 -56.18,104.19 -131.01,105.51 -65.84,3.65 -117.79,-33.39 -117.79,-100.91 0,-93.59 133.08,-303.3 133.08,-383.75 0,-61.14 -54.96,-96.22 -110.19,-96.22 -68.84,0 -128.39,70.15 -128.39,70.15l40.98 51.58z"/>
    <path class="fil1" d="M877.98 603.48c0,0 -72.4,-60.58 -96.88,-31.79 -40.7,50.26 122.38,296.44 122.38,382.44 0,142.26 -95.56,180.72 -212.03,200.22 -79.44,12.19 -208.11,-4.02 -208.11,-4.02 24.76,-34.05 40.05,-44.27 80.38,-44.27 -44.37,-24.86 -89.28,-75.78 -89.28,-154.83 0,-122.48 48.95,-171.43 48.95,-310.7 0,-76.72 -62.93,-173.03 -62.93,-173.03 110.19,9.29 166.09,113.48 135.33,194.51 16.23,3.37 33.11,0 47.36,-14.16 6.93,23.17 -5.35,49.24 -21.85,72.78 12.84,6.93 23.45,2.9 45.94,-1.97 -2.62,22.78 -17.16,48.95 -51.58,72.4 100.25,-26.17 161.77,42.39 161.77,115.83 0,54.86 -38.35,93.31 -76.71,93.31 -11.25,0 -29.17,-6.28 -39.77,-13.88 -7.59,17.16 -3,38.36 3.66,51.86 -26.82,-7.88 -45.02,-22.79 -32.73,-57.87 -21.57,-1.69 -37.42,-9.28 -48.95,-21.47 11.53,-15.29 29.07,-24.19 48.95,-24.19 -15.29,-30.76 2.25,-48.95 26.82,-62.83 0,0 -15.56,62.83 25.13,62.83 18.47,0 35.07,-6.28 35.07,-32.45 0,-24.47 -20.54,-55.23 -68.84,-53.55 -46.32,1.04 -84.68,32.08 -84.68,108.51 0,69.11 55.9,104.19 130.63,105.51 66.87,3.65 117.14,-33.39 117.14,-100.91 0,-93.59 -132.33,-303.3 -132.33,-383.75 0,-61.14 55.23,-96.22 108.88,-96.22 70.71,0 128.95,70.15 128.95,70.15l-40.71 51.58z"/>
    <path class="fil0" d="M734.12 4933.46c0,-10.5 -27.48,-4.6 -46.33,0 -21.48,3 -33.76,14.91 -32.08,27.2 1.6,12.57 26.07,6.28 46.6,1.96 20.55,-6.28 33.76,-15.56 31.8,-29.17l0 0z"/>
    <path class="fil0" d="M668.57 4974.54l-7.6 0 -12.84 -13.88c-1.69,-16.6 11.91,-29.17 37.32,-34.8 15.29,-2.91 28.13,-6.28 37.42,-6.28l6.93 0 12.29 13.88c0.65,16.6 -12.94,30.48 -37.42,36.76 -13.22,3.01 -26.82,4.32 -36.1,4.32l0 0z"/>
    <path class="fil1" d="M6862.28 5210.4c-1030.29,3.27 -1753.16,-821.44 -1818.99,-1647.93 0,0 -40.7,-14.82 -46.98,21.85 -11.25,87.03 25.51,356.37 10.97,338.17 -24.19,-35.45 -212.79,-537.37 -246.18,-484.09 -45.95,73.15 210.07,646.15 195.17,664.35 -51.59,60.86 -345.03,-560.07 -368.85,-514.12 -89.65,174.34 362.57,737.4 359.66,760.57 -9.28,74.46 -344.47,-303.01 -372.6,-263.62 -63.49,91.62 360.97,425.39 382.44,451.55 66.21,74.74 -231.27,-134.67 -240.46,-61.52 -7.59,57.86 144.24,179.31 234.18,230.23 91.06,51.67 120.14,36.39 146.3,81.13 19.13,33 -170.77,-22.23 -164.78,18.85 9.28,83.37 208.1,66.49 237.17,103.16 30.76,36.39 -134.67,9 -126.69,39.38 10.59,53.65 177.99,61.52 180.34,84.69 3.27,23.16 -105.61,7.59 -98.66,49.99 6.01,38.35 170.77,31.13 210.44,58.23 40.71,27.76 -147.23,3 -1.69,75.41 146.3,73.15 313.04,154.17 540.94,198.82 228.63,45.39 344.47,-4.6 353.36,-20.17 8.26,-13.5 -108.51,12.58 -270.28,-16.5 -161.78,-30.76 -378.51,-132.04 -466.47,-185.59 -28.14,-13.6 86,-46.99 62.17,-79.06 -24.47,-31.13 -115.82,4.6 -150.89,-40.05 -23.17,-29.17 43.7,-29.17 41.36,-47.35 -1.6,-16.89 -126.32,-45.68 -148.18,-78.4 -23.16,-30.39 55.52,-24.48 59.55,-45.95 2.25,-14.91 -78.78,-42.39 -84.03,-62.55 -6.94,-21.47 89.27,-15.56 45.02,-40.98 -48.02,-27.48 -179.03,-59.93 -203.51,-107.19 -24.48,-44.36 99.6,6.28 67.15,-36.76 -21.86,-30.38 -142.27,-81.03 -167.4,-150.24 -16.89,-47.27 85.71,-5.62 87.31,-36.66 1.31,-47.36 -60.49,-16.6 -80.37,-152.49 -6.94,-44.74 79.43,-14.26 79.43,-14.26l13.22 -22.51c0,0 100.26,54.96 230.89,207.73 130.74,151.55 167.4,293.82 290.53,396.41 59.84,50.55 61.53,-18.56 194.51,64.15 133.64,84.03 188.87,141.98 328.89,261.74 19.79,16.5 110.76,-16.89 379.44,39.67 145.27,30.75 174.06,105.5 174.06,105.5 0,3.01 81.3,-48.58 119.75,-105.5 15.2,-24.19 30.39,-1.69 35.07,-5.63 14.54,-14.25 -2.34,-32.44 -2.34,-32.44l0 0z"/>
    <path class="fil1" d="M4970.89 4797.57c-23.82,0 -29.45,2.62 -30.85,5.91 5.35,46.99 81.12,59.55 140.67,71.46 45.95,6.66 81.03,12.57 94.91,29.45l2.62 4.6 2.06 13.97c-6.93,13.5 -31.41,13.5 -71.17,14.82 -20.16,1.69 -55.9,3.65 -59.83,9.28 5.25,26.17 68.74,43.04 114.79,54.96 43.61,10.59 65.18,17.16 66.49,31.04 2.34,16.6 -21.48,19.5 -45.68,23.16 -19.22,4.03 -43.04,7.32 -51.3,16.6 0.66,25.79 60.22,33.67 103.26,37.98 43.04,6.28 82.99,10.59 102.6,22.88l9.18 17.16c-2.62,8.91 -15.56,10.97 -33,14.91 -8.35,1.31 -27.48,4.6 -30.49,9.28 0,0 0,10.59 51.59,35.36 128.76,63.87 304.04,152.86 538.68,197.5 61.15,13.59 118.35,19.22 172,19.22 110.85,0 167.78,-27.1 173.02,-36.76l-35.35 9.66c-16.6,0 -36.48,1.59 -59.55,1.59 -60.29,0 -115.54,-6.28 -169.74,-15.56 -167.4,-30.1 -389.1,-135.61 -469.48,-184.94 -7.97,-23.45 5.91,-30.75 23.45,-42.29 16.23,-9.57 36.11,-25.13 38.46,-33.1 -10.32,-18.2 -33.11,-18.2 -58.24,-18.2 -34.41,-1.03 -71.83,-1.03 -93.31,-28.79l-6.94 -19.5c2.91,-12.58 16.88,-17.54 29.07,-23.17 5.35,-3 16.89,-6.57 17.54,-9.28 -3.65,-4.32 -32.73,-15.2 -54.2,-24.76 -39.77,-11.91 -81.13,-28.79 -93.32,-48.96l-4.69 -19.6c4.03,-10.5 19.88,-15.48 36.76,-21.1 7.59,-1.97 25.13,-6.94 25.13,-11.25 -2.35,-4.03 -20.54,-13.6 -33.39,-21.57 -27.48,-15.19 -46.7,-24.11 -50.64,-37.7 6.94,-20.45 21.2,-23.45 37.42,-26.07 6.93,-2.07 18.47,-4.97 20.44,-6.28 -24.1,-13.98 -47.92,-21.57 -73.05,-32.45 -57.31,-21.2 -124.08,-47.36 -141.62,-81.03l-1.69 -4.32 0 -18.56c8.63,-13.88 29.17,-8.91 47.36,-7.32l17.81 0c-3,-15.19 -21.19,-27.76 -44.36,-43.98 -44.92,-31.04 -101.19,-66.11 -118.35,-115.08 -3.37,-9.66 -3.37,-17.25 0.65,-23.16 6.57,-9.28 21.11,-10.59 35.07,-10.59l29.74 1.31c8.62,0 19.22,-1.31 19.87,-6.28 0,-13.6 -6,-18.57 -18.19,-27.1 -19.22,-15.29 -48.96,-38.46 -61.9,-124.07 -0.65,-9.01 0.66,-15.57 5.91,-21.86 16.23,-19.22 82.06,-0.65 83.37,-0.65l3 -20.55 0 0c16.23,0 115.83,57.21 245.14,206.8 57.96,68.46 97.63,133.35 135.05,196.19 44.64,74.08 87.31,144.61 154.83,201.81 18.19,14.91 29.73,16.5 42.67,16.5l26.73 0c24.57,0 57.96,6.01 124.07,46.33 104.57,65.56 161.77,114.79 248.52,191.22l80.38 70.15c3.66,3.95 20.54,3.95 27.48,3.95l48.95 -0.94c57.21,0 150.89,4.6 299.73,35.07 147.89,30.75 179.03,107.19 180.62,109.82 0,-5.63 70.52,-57.87 106.26,-106.82 5.62,-10.98 13.23,-15.29 20.82,-15.29l15.85 4.31 1.69 -22.5 -6.28 7.97c-1055.42,0 -1753.16,-837.38 -1820.3,-1649.62 -2.35,0 -6.28,0 -10.59,0 -11.91,0 -18.48,3 -20.17,16.6 -6.66,47.64 1.69,154.45 6.94,232.58 7.59,90.59 9.28,104.56 3.28,108.51 -21.48,-11.91 -40.05,-54.96 -72.12,-132.7 -48.95,-113.48 -148.55,-348.68 -176.03,-350.65 -28.04,44.64 76.43,318.29 137.67,480.72 58.24,150.8 65.18,175.93 58.24,181.94l-15.2 7.97c-39.76,0 -115.54,-124.07 -226.67,-315.29 -53.26,-93.69 -115.16,-200.88 -131.29,-205.47 -61.89,127.36 184.94,484.67 304.32,658.06 51.3,76.43 61.24,90.31 60.21,98.84l-0.66 7.98 -16.88 9.56c-28.79,0 -91.62,-54.86 -191.22,-143.57 -66.49,-63.12 -143.58,-133.64 -164.4,-133.64 -48.01,70.52 242.81,319.98 337.43,401 24.48,21.47 40.42,35.36 44.37,39.39 8.91,10.87 12.84,18.47 10.59,25.13 -19.88,3.94 -41.36,-4.69 -82.71,-27.48 -50.92,-24.48 -119.76,-61.24 -153.52,-61.24 -11.63,0 -12.94,7.32 -13.88,8.63 -6,52.61 132.61,167.11 230.89,222.35 37.7,22.79 66.86,33.76 85.71,39.3 28.42,9.94 46.61,16.89 63.49,44.74 -7.59,45.95 -40.98,23.82 -75.77,19.79 -19.79,-2.91 -39.3,-4.22 -56.83,-4.22l0 0zm1076.51 644.75c-54.3,0 -113.19,-7.22 -175,-17.82 -236.89,-47.64 -412.92,-136.64 -542.25,-200.22 -45.02,-23.17 -62.18,-36.67 -59.55,-51.86 0.65,-13.6 21.85,-18.57 42.67,-21.57 7.59,-1.6 18.19,-3.28 20.82,-6.57 -19.23,-8.62 -59.83,-13.59 -99.6,-18.56 -61.14,-6.94 -113.75,-14.91 -117.14,-40.98l-1.31 -1.69 6.01 -17.82c10.59,-15.56 37.98,-20.26 60.21,-23.53 12.57,-2.63 30.76,-5.63 33.1,-8.63 -3.65,-4.97 -33.1,-10.6 -55.32,-17.54 -52.52,-13.5 -117.41,-28.79 -126.04,-67.15 11.63,-22.51 35.07,-24.48 74.46,-24.48 19.51,-0.94 53.27,-0.94 57.21,-7.97 -11.53,-14.81 -49.61,-20.82 -86.27,-26.73 -69.87,-12.57 -147.89,-26.16 -154.56,-81.4 19.51,-39.38 58.24,-25.78 104.57,-20.81 17.54,0.94 34.41,2.9 46.6,2.9 0,-23.45 -13.5,-26.44 -40.32,-37.04 -21.47,-7.6 -49.33,-16.89 -88.62,-39.39 -84.4,-47.64 -247.49,-173.02 -238.21,-239.14 0.94,-9.29 6.28,-22.88 28.42,-22.88 36.76,0 106.16,36.76 159.81,63.87 27.76,13.97 59.83,30.75 67.15,30.75 -16.51,-8.91 -32.08,-23.16 -55.61,-41.36 -195.82,-169.36 -389.39,-349.99 -340.43,-422.11 37.7,-7.97 96.6,44.64 188.31,128.68 68.75,61.52 155.12,140.67 180.25,140.67 1.69,-10.6 -26.44,-48.96 -55.52,-91.72 -120.14,-174.62 -371.28,-538.87 -300.75,-674.85 30.75,-7.59 64.8,50.64 153.8,203.41 71.18,122.76 179.68,310.97 213.44,310.97 2.26,-12.19 -27.47,-93.59 -56.92,-171.61 -92.28,-241.21 -165.8,-446.31 -136.64,-493.95 39.67,-7.69 99.88,114.41 202.1,354.59 22.88,50.64 42.01,96.59 51.67,118.16 -5.35,-16.89 -7.6,-53.65 -11.63,-87.03 -4.97,-84.68 -13.23,-186.9 -6.57,-237.55 2.25,-19.87 16.23,-30.1 35.36,-30.1 10.59,0 20.54,3.95 21.19,3.95 68.19,812.24 760.29,1644.92 1809.71,1644.92 12.84,4.69 22.13,15.57 22.13,29.17l0 2.62 -9.29 15.57 -11.91 -7.59 -12.19 4.97c-45.95,62.45 -125.77,117.41 -134.95,117.41 -9.01,-13.89 -44.08,-81.03 -175.76,-108.51 -147.89,-29.45 -240.17,-34.05 -296.72,-34.05l-48.95 0c-19.88,0 -30.76,0 -38.36,-7.03l-79.43 -67.43c-86.37,-76.43 -142.27,-127.07 -247.78,-193.19 -61.24,-38.07 -93.97,-40.7 -114.88,-40.7l-26.73 0c-16.23,0 -31.41,-3.37 -52.99,-21.2 -69.5,-59.93 -111.51,-130.35 -158.12,-207.45 -36.76,-61.89 -75.77,-125.11 -133.64,-194.22 -128.01,-148.18 -228.92,-206.41 -230.32,-206.41l-0.95 21.85c-9.93,3.94 -36.1,-4.97 -58.23,-4.97 -8.91,0 -15.85,1.31 -19.22,4.97 9.28,89.66 36.1,108.13 54.3,123.7 13.88,9.29 25.51,17.91 24.11,39.39 -0.95,20.16 -25.42,20.16 -34.7,20.16l-29.74 0c-15.94,0 -20.54,1.31 -22.22,3 16.23,53.55 71.83,90.97 113.19,118.07 24.76,16.6 44.64,28.79 52.9,41.36l3 4.31 2.35 16.89c-4.03,7.97 -13.6,7.97 -22.23,7.97l-38.35 -2.06c3.94,38.45 69.77,65.55 121.72,87.02 27.85,9.67 51.3,18.57 67.15,27.85 7.97,2.91 17.25,10.88 15.56,20.16 -2.34,10.6 -14.91,13.5 -32.08,16.51 -8.62,1.96 -22.78,6.28 -25.51,9.28 2.72,6.28 26.17,18.2 42.67,27.48 26.17,13.5 43.05,25.13 41.74,36.39 -1.7,15.56 -19.88,20.54 -36.11,25.13 -9.84,2.62 -26.07,6.94 -27.38,10.23 12.84,21.85 55.89,38.45 88.62,52.33 43.69,14.81 62.83,24.48 64.14,36.67 1.69,12.28 -13.88,18.19 -26.73,24.85 -6,0.94 -17.54,7.6 -18.85,11.91 18.85,27.48 52.52,27.48 84.69,29.07 28.42,0 55.9,0 68.74,18.2l4.69 16.88c-3,16.6 -24.48,31.14 -44.36,42.68 -9.94,6.28 -23.82,17.25 -24.48,20.25 79.43,44.27 297.48,151.84 464.49,178.65 52.61,10.5 106.92,16.79 166.46,16.79 23.07,0 42.95,-1.59 58.81,-1.59l26.17 -1.04c13.88,0 19.87,1.04 23.82,6 -8.63,24.11 -72.12,52.9 -186.91,52.9l0 0z"/>
    <path class="fil1" d="M7554.75 5518.11c-37.79,-7.98 -33.76,21.19 -33.76,21.19 2.91,36.67 -23.82,78.4 -54.57,86 -24.48,4.32 -11.91,22.51 -19.88,39.39l-100.25 -4.97c-158.12,86 -357.68,117.13 -596.55,89 0,0 -50.55,38.07 -93.88,76.06 -45.01,41.73 -76.43,51.01 -85.05,81.78 -9.29,33.39 22.78,48.95 64.14,50.26 41.36,1.69 95,-36.39 95,-36.39 0,0 7.59,30.1 45.29,35.07 38.07,3 106.91,-23.16 106.91,-23.16 0,0 58.14,26.16 103.16,20.16 42.67,-6.66 81.13,-33.76 81.13,-33.76 0,0 11.53,50.26 55.9,52.33 43.32,2.91 110.84,-54.3 110.84,-54.3 0,0 33.01,38.73 73.43,32.08 41.36,-3.94 89.66,-53.26 89.66,-53.26 0,0 50.26,23.16 96.87,7.59 47.65,-13.23 93.69,-61.15 93.69,-61.15 0,0 40.98,35.36 79.34,21.86 37.42,-12.57 63.58,-65.84 63.58,-65.84 0,0 100.91,42.29 169,7.22 46.7,-21.47 35.07,-95.94 35.07,-95.94 0,0 278.62,39.39 266.99,-142.55 -1.59,-19.88 -449.58,-14.25 -646.06,-48.67l0 0z"/>
    <path class="fil1" d="M7061.08 5912.45c12.94,7.97 23.82,50.64 61.24,50.64l2.25 7.97 0 -7.03c39.76,0 103.91,-53.17 104.94,-53.17 10.6,1.6 36.67,31.04 70.43,31.04 43.33,-4.96 90.97,-50.91 92.28,-50.91 6,0 35.45,9.56 67.52,9.56 11.25,0 22.13,0 31.41,-4.96 45.67,-13.51 89.37,-57.87 89.37,-57.87 6.28,1.31 39.01,22.78 67.8,22.78 49.24,-15.19 73.43,-64.14 73.43,-64.14 12.57,-4.97 61.52,14.91 112.44,14.91 24.57,0 44.08,-4.32 60.59,-12.29 42.38,-18.19 30.75,-88.34 30.75,-88.34 8.26,-7.88 34.42,-6.28 69.5,-6.28l0 0c55.89,0 131.01,-7.6 170.68,-50.27 19.88,-22.78 29.83,-49.33 26.83,-87.31 -8.63,-1.69 -104.85,-4.31 -198.16,-9.28 -147.52,-6.01 -331.14,-12.57 -442.36,-31.79l-20.45 1.03c0.65,51.96 -27.48,96.6 -62.93,104.57 -9.57,2.25 -10.23,5.25 -10.23,16.5 -1.03,4.32 -1.03,13.88 -4.96,19.88l-107.19 -1.41c-153.8,87.41 -356.27,116.48 -597.86,91.72 1.31,1.31 -45.3,36.67 -87.31,74.74 -16.89,13.6 -30.76,24.48 -43.04,32.08 -22.13,17.25 -34.7,25.13 -40.71,43.33 -1.97,8.62 -1.97,14.9 2.72,21.19 8.26,10.6 29.07,18.57 54.86,19.51 0.66,0 0.66,0 0.66,0 40.05,0 89.65,-35.07 90.31,-36.39 12.57,6.28 18.57,30.48 49.99,33.39 0.65,0 0.65,0 0.65,0 42.02,0 101.57,-21.48 102.6,-21.48 6.94,0 51.96,20.55 92.66,20.55 53.27,-4.97 89.28,-32.45 89.28,-32.45l0 0zm63.49 67.14l-2.91 0c-40.7,-2.91 -56.65,-39.67 -61.62,-55.24 -4.22,10.6 -36.39,31.14 -74.74,35.46 -52.89,-1.32 -103.91,-19.88 -107.19,-19.88 3.27,0 -57.21,23.16 -96.23,23.16 -39.11,-3.27 -53.64,-24.47 -58.23,-40.05 -4.69,11.91 -49.61,40.98 -86.37,40.98 -33.39,-0.94 -57.87,-10.5 -68.84,-24.1 -6.94,-10.6 -9.28,-23.17 -5.26,-36.76 6.94,-21.11 22.79,-33.67 47.65,-50.27 10.59,-9.56 23.45,-18.19 39.38,-32.07 45.29,-38.08 95.57,-78.13 95.57,-78.13 60.58,4.69 114.13,7.69 166.08,7.69 166.09,0 310.71,-32.83 431.4,-98.28l103.25 4.96c-3.66,-21.56 -3,-33.75 18.47,-39.38 27.48,-7.97 51.01,-44.64 49.7,-78.4 -0.65,0 -3,-12.57 4.6,-21.19 6.01,-6.67 13.88,-10.6 24.48,-10.6 121.07,23.17 304.41,30.1 451.28,34.42 198.82,7.59 212.03,10.59 213.35,23.16 2.34,41.64 -7.6,73.43 -32.08,99.6 -43.33,45.95 -122.38,56.56 -181.28,56.56l0 0c-30.48,0 -52.61,-3.66 -60.22,-4.31 8.26,6 14.91,74.46 -33.1,95.93 -54.86,27.48 -160.46,-3.27 -173.68,-7.59 3,6.01 -22.13,55.23 -60.58,66.21 -33.39,10.59 -77.74,-17.54 -84.69,-23.17 1.31,7.6 -41.36,50.27 -86.27,62.55 -41.36,12.19 -97.35,-6 -103.63,-7.68 3.38,3.37 -43.32,49.33 -85.62,55.32 -0.65,0 -0.65,0 -0.65,0 -44.36,0 -73.43,-31.13 -78.12,-37.14 1.69,7.97 -60.21,58.24 -103.91,58.24l0 0 0 -0.01z"/>
    <path class="fil1" d="M6960.17 5323.87c0,0 81.03,-32.35 223.95,-59.83 270.37,-57.3 363.59,-38.73 382.44,-55.23 213.45,-237.55 370.63,-255.75 524.8,-316.98 123.98,-103.91 164.69,-252.09 295.42,-403.64 129.98,-151.55 208.1,-163.74 208.1,-163.74l16.89 33.39c0,0 70.15,-51.96 66.49,-7.98 -5.63,68.19 -61.24,132.43 -58.24,178.38 1.7,30.38 95.57,-12.94 87.31,13.22 -22.12,72.5 -97.9,114.79 -118.44,143.96 -33.67,46.33 85.34,-15.56 60.87,30.76 -24.48,47.27 -143.87,94.63 -190.57,123.7 -28.69,16.89 31.51,21.2 25.51,41.73 -6.28,20.82 -128.38,66.77 -127.07,82.34 2.35,21.2 32.83,22.79 18.56,38.08 -26.16,29.07 -128.01,32.07 -129.32,50.54 -1.69,20.26 21.1,35.45 -1.69,64.53 -36.11,45.67 -63.49,0 -78.78,36.76 -7.59,21.2 59.55,62.84 13.98,71.46 -61.24,10.88 -108.88,38.73 -161.49,70.43 -20.17,12.57 -111.13,31.14 -163.09,44.73 -35.07,7.59 -225.63,31.41 -217,46.99 7.59,15.48 128.29,14.15 382.43,-30.48 108.51,-19.51 173.68,-32.08 345.03,-87.31 196.57,-62.93 -50.65,-66.87 -9.94,-93.03 40.42,-25.79 210.44,-13.89 217.1,-51.86 6.28,-43.05 -95,-30.85 -92.66,-54.02 3.28,-24.11 207.07,-22.78 219.64,-77.74 6,-30.39 -116.1,-7.88 -87.31,-44.64 29.07,-36.01 192.91,-45.95 199.19,-117.14 2.91,-41.36 -134.01,10.6 -116.48,-25.41 7.59,-13.23 62.83,-29.45 117.14,-66.87 86.27,-61.23 222.64,-163.74 214.01,-221.6 -6.94,-73.52 -282.84,168.05 -258.37,76.33 7.59,-34.04 447.25,-379.72 376.53,-464.49 -49.99,-57.21 -363.59,316.33 -374.56,241.21 -1.97,-24.48 488.98,-578.63 399.32,-752.69 -23.45,-45.95 -393.7,663.7 -444.99,603.2 -13.88,-17.54 315.3,-701.39 262.4,-768.26 -24.48,-35.36 -77.47,79.43 -132.98,203.13 -55.99,127.36 -118.17,264.65 -131.01,282.85 -12.29,18.56 14.54,-267.28 1.59,-354.31 -5.25,-36.67 -45.01,-21.85 -45.01,-21.85 -57.49,888.95 -911.09,1548.33 -1591.94,1646.33 -176.03,24.1 -231.92,108.13 -426.15,218.33 -64.14,35.73 -164.39,52.24 -250.77,101.56 -86.37,47.27 -147.89,120.41 -176.68,166.37 -13.89,21.86 6,87.69 23.53,95.28 19.13,6.01 17.54,-47.64 37.32,-60.21 20.17,-7.22 20.17,21.57 45.39,20.26 23.82,-1.69 50.55,-24.86 50.55,-24.86 0,0 480.44,-0.65 685.17,-6 37.8,-1.97 98.66,-16.79 124.73,-44.27 -7.59,-23.16 -63.49,-10.59 -98.56,-9.01 -144.62,-9.19 -335.18,0 -470.41,-7.59 0,0 -21.19,-1.6 -19.87,-25.13 0,-8.26 86.37,-99.88 86.37,-99.88l-68.19 0c0,0 -40.42,22.51 -60.87,23.82 -20.16,3 -28.51,-10.6 -20.16,-16.89 102.88,-77.74 410.86,-216.73 410.86,-216.73l0 0z"/>
    <path class="fil1" d="M8697.1 3568.76c-7.32,0 -15.19,3 -15.19,3 -49.7,850.97 -865.88,1539.05 -1592.41,1642.96 -117.7,17.25 -181.94,61.24 -270.94,120.79 -41.36,30.76 -89.28,61.8 -152.21,96.6 -31.41,18.19 -70.42,32.44 -111.78,44.36 -46.33,17.16 -94.63,31.7 -139.65,59.55 -79.72,44.63 -141.61,111.78 -173.68,163.74 -6.28,7.59 -5.62,29.07 1.97,50.64 6.28,18.47 13.98,30.39 18.56,32.35l0 0c3.01,-1.96 5.92,-13.88 7.6,-20.44 5.35,-14.91 9.94,-32.17 23.82,-39.39 20.54,0 25.13,4.6 29.82,8.91 5.63,7.98 9.19,10.88 15.85,10.88 20.82,0 46.61,-21.47 46.61,-21.47 5.62,-3.66 486.07,-3.66 690.79,-10.59 33.1,0 95,-11.91 118.82,-40.05 -4.03,2.06 -12.29,-0.94 -29.45,-0.94 -10.32,0 -24.85,0.94 -36.76,3l-26.44 2.62c-146.2,-10.59 -335.18,-1.04 -472.1,-10.59 0,0 -12.28,0 -19.5,-8.92 -5.63,-6.66 -7.98,-12.28 -6.94,-22.88 1.31,-7.59 30.39,-43.32 88.62,-106.16l-62.18 13.88 0 0c1.69,0 -38.07,22.51 -60.21,24.48 -17.54,1.69 -28.51,-4.6 -31.41,-13.6l-2.35 -6.56 6.94 -8.91c103.91,-79.44 401.67,-212.14 414.51,-219.07 0.66,-0.94 82.72,-31.8 224.98,-60.49 165.15,-35.73 263.06,-42.77 321.3,-46.04 32.08,-1.6 51.95,-3.66 57.86,-7.6 176.03,-195.81 313.62,-243.17 445.37,-289.5 27.39,-8.91 54.86,-18.2 81.69,-28.79 65.83,-56.56 109.53,-126.98 155.49,-204.72 37.42,-61.62 77.09,-127.08 136.26,-196.19 131.39,-151.55 208.76,-166.74 212.42,-166.74l24.48 36.66c-1.31,-8.91 28.13,-29.07 47.35,-29.07l16.23 6.56c2.25,2.72 5.26,10.32 4.6,18.85 -2.35,37.15 -18.56,70.81 -32.73,101.57 -14.91,29.17 -26.17,55.32 -25.51,76.81 19.87,4.31 30.75,2.35 41.36,0 9.28,-1.69 19.87,-3.28 26.82,-3.28l18.2 7.59c-15.85,64.15 -57.21,100.54 -88.72,126.7 -12.19,12.57 -25.13,21.47 -30.39,31.13 1.97,5.63 8.92,4.6 18.2,2.91 9.28,-1.6 19.13,-2.91 25.13,-2.91l4.6 0 15.56 7.59c5.35,8.54 0,18.2 -1.59,21.11 -18.57,36.76 -81.78,68.84 -137.67,96.69 -22.13,10.49 -42.02,21.1 -55.23,29.07 16.22,15.19 33.1,24.19 28.41,39.67 -3.65,12.57 -26.07,25.88 -74.46,48.95 -20.45,10.6 -49.61,26.17 -53.55,32.16 1.97,4.6 5.62,7.6 11.91,12.58l10.6 14.81c-20.54,32.16 -57.21,40.05 -88.72,47.64 -16.79,4.31 -39.67,10.97 -45.29,13.6 9.94,27.47 15.85,45.95 -2.35,67.14 -15.85,22.88 -32.73,26.17 -45.29,26.17l-17.16 -1.31c-5.63,0 -9.29,1.31 -14.63,10.59 -1.6,4.97 8.34,16.89 14.63,25.79 10.59,10.6 19.13,26.17 14.54,36.67 -2.63,7.97 -9.94,10.97 -20.82,12.65 -62.55,13.89 -108.88,39.67 -158.21,71.47 -16.14,7.87 -60.49,20.44 -109.17,31.04 -20.16,4.31 -40.7,8.62 -56.92,13.59 -10.5,1.31 -36.67,5.91 -67.43,12.19 -42.02,6.01 -115.45,16.6 -139.65,25.79 17.16,1.41 67.8,15.56 369.21,-36.67 109.54,-19.87 171.35,-32.44 344.08,-85.34 70.43,-24.85 72.12,-35.45 72.12,-35.45 0,-7.88 -35.35,-18.19 -48.95,-19.79 -26.82,-9.66 -41.36,-15.56 -43.7,-24.48l-0.94 -4.69 8.53 -9.28c19.22,-11.54 62.93,-18.48 107.86,-19.51 41.36,-4.6 104.29,-12.57 107.19,-28.14 2.35,-16.22 -18.47,-21.1 -50.55,-27.09 -21.85,-4.6 -43.32,-9.57 -42.01,-25.79 1.59,-15.56 24.76,-18.2 80.37,-28.13 52.61,-8.63 132.33,-21.2 139.27,-48.68 -3.95,-7.88 -27.1,-9.19 -40.71,-11.91 -23.82,-1.96 -45.95,-4.87 -50.64,-17.16l-1.97 -4.31 6.66 -17.16c13.88,-16.6 45.95,-26.54 82.71,-37.05 52.24,-16.23 112.45,-36.39 115.45,-74.18 -4.6,-11.25 -32.08,-9.84 -61.24,-6.93 -23.45,1.96 -46.6,7.97 -54.21,-5.91 5.26,-22.88 19.13,-31.41 42.95,-42.02 20.54,-11.63 49.7,-23.53 77.09,-41.73 191.22,-134.95 215.04,-193.19 211.1,-215.98 -32.73,-7.69 -84.68,22.78 -129.98,50.92 -49.05,28.79 -90.31,52.24 -112.53,52.89l-15.85 -5.91c-3.01,-6 -3.01,-13.22 0,-25.78 1.31,-8.63 25.78,-32.17 93.97,-96.6 115.44,-107.19 328.79,-305.72 282.19,-359.37 -41.37,0 -130.74,74.84 -201.16,137.96 -80.38,70.15 -130.64,116.19 -155.12,116.19l-7.03 0 -11.53 -16.88c-1.31,-9.28 9.28,-22.88 68.84,-99.31 129.32,-170.02 398.01,-523.3 331.52,-651.03 -13.32,6.93 -89.66,129.04 -157.83,239.14 -137.67,223.67 -230.99,370.63 -273,370.63 -19.8,-15.56 -14.54,-31.13 61.23,-213.07 81.69,-195.53 218.7,-521.8 187.57,-562.78 -25.42,-1.97 -81.4,116.1 -120.42,203.41l-17.54 41.08c-51.95,117.79 -101.85,226.29 -114.13,243.45 -18.2,-4.96 -18.2,-21.1 -13.6,-125.66 4.03,-84.04 8.34,-186.25 2.35,-232.58 -2.35,-13.6 -8.63,-16.6 -20.82,-16.6l0 0zm-2435.32 2227.59l-6 0c-14.54,-4.97 -23.82,-30.76 -26.73,-40.05 -7.31,-21.2 -10.59,-48.95 -1.03,-64.15 33.1,-53.64 96.59,-125.38 179.03,-170.11 45.94,-25.42 94.91,-42.67 142.92,-59.18 40.7,-13.88 79.05,-25.78 109.44,-43.04 61.62,-35.35 108.88,-67.15 150.89,-95.94 90.31,-59.83 155.21,-105.5 277.59,-122.76 720.53,-102.5 1529.11,-786.07 1584.34,-1638.64 13.6,-18.2 56.27,-9.19 60.22,19.87 7.68,49.34 1.4,151.55 -0.66,235.59 -3.28,53.55 -5.91,108.51 -4.6,116.48 0,-14.91 52.61,-130.08 102.22,-239.9l17.54 -41.73c66.21,-145.18 100.54,-215.33 131.67,-215.33l2.63 0 12.57 10.6c33.76,44.64 -64.15,285.84 -184.94,576.66 -40.33,92.93 -77.09,178.65 -76.43,192.53 36.76,-1.31 166.08,-211.11 260.06,-363.97 110.84,-178.93 153.89,-245.14 173.67,-245.14 80.47,142.64 -190.56,500.6 -322.89,674.95 -31.04,41.36 -61.8,79.72 -64.14,87.31 22.13,-3.01 88.62,-57.87 146.86,-108.51 79.44,-72.12 161.49,-145.55 202.47,-145.55l3.28 0 18.2 7.98c49.98,59.83 -113.1,220.29 -284.44,382.43 -42.77,39.3 -88.06,81.03 -90.03,89.01 19.22,11.91 64.14,-13.6 106.82,-39.11 78.12,-48.58 148.54,-79.06 153.24,-41.36 5.25,48.01 -66.87,125.38 -218.05,231.92 -28.41,17.54 -57.57,31.79 -80.37,42.67 -14.54,5.63 -32.08,15.95 -34.41,20.92 16.88,1.96 27.47,0 38.72,-1.31 32.36,-3.66 61.53,-3.66 72.12,7.87l5.91 14.91c-4.31,49.33 -68.84,68.84 -126.69,87.31 -32.45,10.59 -63.49,19.88 -74.47,33.48 -0.65,9.57 22.23,12.57 34.8,13.89 23.45,1.59 43.33,4.31 51.95,15.56 -5.35,50.55 -82.05,64.14 -148.54,73.71 -29.18,6.01 -63.21,11.63 -68.84,16.6 3,1.31 19.87,5.91 31.41,7.59 28.13,4.32 66.49,13.51 61.89,45.3 -4.69,26.16 -58.23,33.1 -120.14,38.73 -43.04,4.59 -84.69,7.97 -100.9,18.19 1.03,1.69 19.87,7.97 32.07,10.6 30.76,7.87 58.24,17.16 58.89,35.35 0,10.6 -10.59,26.17 -82.71,48.68 -173.31,53.55 -236.24,69.11 -345.67,89 -197.23,31.7 -292.79,37.98 -332.84,37.98 -45.01,0 -54.95,-6.94 -58.89,-13.88 6.28,-19.51 37.71,-25.14 156.15,-45.3 29.08,-4.6 56.56,-9.57 67.15,-12.57 15.56,-4.31 37.05,-8.63 56.27,-13.6 43.33,-10.59 90.97,-21.1 103.91,-29.07 51.2,-32.08 98.56,-59.55 165.05,-71.46 10.22,-7.97 1.04,-20.17 -3.66,-27.77 -9.94,-12.94 -20.82,-26.16 -15.19,-39.76 5.25,-15.19 12.85,-20.16 27.48,-20.16l17.16 7.59 0 -7.59c9.28,0 20.82,-1.69 33.1,-19.88 13.23,-14.16 8.63,-26.07 4.97,-36.67 -1.97,-6.28 -4.97,-14.9 -4.97,-21.57 2.35,-15.19 21.47,-19.5 55.9,-27.38 28.13,-4.69 63.49,-13.6 75.77,-27.85 -9.93,-12.19 -19.22,-19.13 -20.81,-31.7 -1.97,-12.57 14.53,-21.56 62.83,-46.04 23.82,-10.59 61.89,-32.08 65.18,-40.05 1.31,-4.6 -8.63,-7.22 -14.54,-11.53 -8.62,-4.97 -18.19,-11.25 -18.19,-18.57l0 -4.6 11.25 -12.57c12.84,-7.97 33.01,-18.57 55.9,-30.48 51.95,-25.42 115.44,-58.52 131.29,-88.35 -10.59,-7.59 -18.85,-6.93 -28.04,-5.25 -7.69,1.69 -16.23,3.28 -21.57,3.28l-18.19 -9.19c-3.28,-6.28 1.96,-13.98 6.93,-21.57 7.59,-8.91 19.51,-19.51 32.83,-32.08 32.08,-26.82 70.43,-60.87 85.62,-108.22 -11.54,1.03 -20.54,1.03 -28.14,2.72 -37.7,7.87 -59.17,-2.72 -59.17,-13.89 -2.35,-24.57 10.88,-53.64 25.13,-85.43 14.91,-30.76 30.1,-62.84 33.1,-94.63 -16.88,-9.84 -42.01,5.62 -54.95,14.91l-28.42 -35.07c0.94,4.69 -74.84,22.88 -195.92,163.46 -57.21,67.15 -97.25,133.36 -135.33,195.82 -47.64,76.43 -90.97,151.55 -159.71,208.76 -29.45,13.32 -57.58,20.91 -85.06,31.79 -129.32,44.37 -264.65,91.63 -439.74,284.81 -10.23,8.63 -27.77,10.6 -66.49,13.6 -58.52,3 -155.5,8.91 -319.89,42.39 -141.24,29.07 -222.65,59.83 -222.65,59.83 -3,3 -307.32,138.98 -409.91,217.38 30.1,0 61.89,-13.22 72.49,-20.16l72.78 -1.03c-34.42,54.95 -77.09,102.21 -78.78,109.82l12.28 23.16 0 -9.57c136.27,9.57 325.8,-1.31 471.06,10.6l24.48 -2.63c30.1,-3 69.87,-13.59 80.37,17.16 -29.73,36.4 -93.87,51.3 -131.67,51.3 -202.75,6.28 -672.23,7.6 -684.51,7.6 0.65,1.96 -26.08,23.16 -51.21,24.85l0 0c-15.94,0 -23.82,-9.28 -28.51,-15.29 -16.89,-1.59 -24.76,13.6 -28.14,24.48 -5.25,15.56 -9.18,29.17 -22.13,29.17l0 0z"/>
    <path class="fil0" d="M6484.42 5614.03c-0.66,-9.28 -23.82,-3 -39.67,0 -17.91,4.32 -27.85,11.25 -26.17,21.48 0.66,10.59 22.13,6 38.36,1.03 17.54,-3.66 28.13,-11.25 27.48,-22.51l0 0z"/>
    <path class="fil0" d="M6429.18 5649.11l-7.59 0 -11.25 -12.57c-1.69,-13.22 10.6,-25.51 32.08,-29.82 14.54,-3.28 24.48,-4.6 32.08,-4.6l7.31 0 10.23 11.91c0.65,11.91 -11.54,26.17 -33.11,30.48 -11.16,3.28 -21.1,4.6 -29.73,4.6l0 0z"/>
    <path class="fil1" d="M7098.79 2130.61c57.96,12.58 86.37,-19.87 95.65,-62.83 11.91,-57.96 -13.22,-349.72 -13.22,-349.72 0,0 -134.67,260.06 -145.27,315.95 -9.29,46.33 5.25,86 62.83,96.59l0 0z"/>
    <path class="fil1" d="M7310.54 2194.85c54.96,22.42 89.28,-2.34 106.16,-44.07 22.23,-53.92 55.33,-344.74 55.33,-344.74 0,0 -182.97,227.98 -205.85,282.94 -15.19,41.63 -10.22,84.31 44.36,105.87l0 0z"/>
    <path class="fil1" d="M7505.7 2300.65c49.04,31.79 87.69,11.91 113.19,-24.77 31.41,-47.35 120.04,-325.89 120.04,-325.89 0,0 -222.92,188.22 -256.4,237.55 -23.45,37.05 -26.07,79.43 23.17,113.1l0 0z"/>
    <path class="fil1" d="M7676.11 2439.63c42.01,42.67 84.03,31.13 114.79,-1.04 42.01,-40.33 182.97,-295.41 182.97,-295.41 0,0 -255.75,140.3 -297.1,181.28 -32.07,32.44 -42.67,73.8 -0.65,115.16l0 0z"/>
    <path class="fil1" d="M7816.03 2611.34c32.83,48.68 76.81,46.98 112.53,20.82 49.61,-33.11 237.17,-255.09 237.17,-255.09 0,0 -277.87,88.71 -326.82,120.79 -35.73,24.48 -55.62,64.53 -22.88,113.48l0 0z"/>
    <path class="fil1" d="M7920.31 2805.56c24.1,54.86 65.45,61.14 106.16,43.98 54.3,-22.51 282.84,-205.1 282.84,-205.1 0,0 -289.79,33.76 -344.73,54.86 -41.37,17.54 -66.77,52.33 -44.27,106.26l0 0z"/>
    <path class="fil1" d="M7984.46 3018.25c11.63,55.9 51.96,71.47 95.66,62.84 58.23,-12.85 317.25,-145.83 317.25,-145.83 0,0 -291.19,-24.19 -348.02,-13.6 -44.36,8.91 -75.49,38.07 -64.9,96.59l0 0z"/>
    <path class="fil1" d="M8005.93 3236.3c0.65,60.21 37.41,81.4 81.78,81.4 59.83,0 338.74,-81.4 338.74,-81.4 0,0 -278.91,-81.03 -338.74,-81.03 -44.37,0 -81.78,22.13 -81.78,81.03l0 0z"/>
    <path class="fil1" d="M7984.46 3456.59c-10.59,58.62 20.55,86.09 64.9,95.65 56.83,11.91 348.02,-12.57 348.02,-12.57 0,0 -259.02,-134.66 -317.25,-146.58 -43.7,-7.97 -85.06,4.31 -95.66,63.49l0 0z"/>
    <path class="fil1" d="M7920.31 3668.35c-21.57,54.96 2.9,88.72 44.27,105.22 54.95,24.86 344.73,54.96 344.73,54.96 0,0 -228.54,-181.65 -282.84,-204.82 -40.71,-15.56 -83.37,-10.59 -106.16,44.64l0 0z"/>
    <path class="fil1" d="M7816.03 3863.89c-32.08,47.64 -12.85,87.31 22.88,113.47 48.95,30.49 326.82,120.8 326.82,120.8 0,0 -187.56,-223.3 -237.17,-257.06 -35.73,-23.16 -79.71,-26.17 -112.53,22.79l0 0z"/>
    <path class="fil1" d="M7676.11 4033.63c-41.36,40.98 -31.41,84.03 0.65,116.48 41.36,39.67 297.1,181.94 297.1,181.94 0,0 -140.96,-257.43 -182.97,-296.73 -30.76,-31.79 -73.72,-42.76 -114.79,-1.69l0 0z"/>
    <path class="fil1" d="M7505.7 4172.9c-48.3,34.04 -46.61,76.81 -23.17,113.47 33.48,50.27 256.4,236.52 256.4,236.52 0,0 -88.62,-276.56 -120.04,-325.15 -25.51,-38.72 -64.15,-56.92 -113.19,-24.85l0 0z"/>
    <path class="fil1" d="M7310.54 4278.77c-54.57,24.19 -59.55,64.15 -44.36,105.22 22.88,54.87 205.85,282.85 205.85,282.85 0,0 -33.1,-288.85 -55.33,-343.71 -16.88,-40.05 -51.86,-67.81 -106.16,-44.37l0 0z"/>
    <path class="fil1" d="M6253.16 4172.9c-49.61,-30.1 -88.62,-13.88 -113.1,24.85 -32.83,48.59 -121.45,325.15 -121.45,325.15 0,0 223.3,-186.25 256.12,-236.52 25.13,-36.66 28.42,-79.43 -21.57,-113.47l0 0z"/>
    <path class="fil1" d="M6082.76 4033.63c-42.95,-41.07 -84.31,-30.1 -114.79,1.69 -42.95,39.3 -183.63,296.73 -183.63,296.73 0,0 255.46,-142.27 296.82,-181.94 31.41,-32.45 42.95,-75.49 1.6,-116.48l0 0z"/>
    <path class="fil1" d="M5942.18 3863.89c-33.1,-48.96 -75.78,-45.95 -112.82,-22.79 -49.61,33.76 -237.84,257.06 -237.84,257.06 0,0 278.53,-90.31 327.48,-120.8 36.77,-26.16 55.9,-65.83 23.17,-113.47l0 0z"/>
    <path class="fil1" d="M5837.99 3668.35c-22.88,-55.23 -65.84,-60.21 -107.19,-44.64 -54.3,23.17 -282.85,204.82 -282.85,204.82 0,0 290.45,-30.1 345.68,-54.96 40.42,-16.5 66.49,-50.26 44.37,-105.22l0 0z"/>
    <path class="fil1" d="M5773.75 3456.59c-12.19,-59.18 -51.85,-71.46 -97.24,-63.49 -55.9,11.91 -315.95,146.58 -315.95,146.58 0,0 290.81,24.48 349.05,12.57 42.67,-9.57 76.43,-37.04 64.14,-95.65l0 0z"/>
    <path class="fil1" d="M5752.28 3236.3c-0.65,-58.89 -37.32,-81.03 -81.03,-81.03 -59.55,0 -341.08,81.03 -341.08,81.03 0,0 281.54,81.4 341.08,81.4 43.7,0 81.03,-21.2 81.03,-81.4l0 0z"/>
    <path class="fil1" d="M5773.75 3018.25c10.6,-58.52 -21.47,-87.69 -64.14,-96.59 -58.24,-10.59 -349.05,13.6 -349.05,13.6 0,0 260.06,132.98 315.95,145.83 45.39,8.63 85.05,-4.88 97.24,-62.84l0 0z"/>
    <path class="fil1" d="M5837.99 2805.56c22.12,-53.92 -3.95,-88.72 -44.37,-106.26 -55.23,-21.1 -345.68,-54.86 -345.68,-54.86 0,0 228.55,182.59 282.85,205.1 41.36,17.16 84.31,10.88 107.19,-43.98l0 0z"/>
    <path class="fil1" d="M5942.18 2611.34c32.73,-48.95 13.6,-89 -23.17,-113.48 -48.95,-32.08 -327.48,-120.79 -327.48,-120.79 0,0 188.22,221.97 237.84,255.09 37.04,26.16 80.37,29.82 112.82,-20.82l0 0z"/>
    <path class="fil1" d="M6082.76 2439.63c40.7,-41.37 29.82,-82.72 -1.6,-115.16 -41.36,-40.98 -296.82,-181.28 -296.82,-181.28 0,0 140.67,255.08 183.63,295.41 30.48,32.16 72.77,43.7 114.79,1.04l0 0z"/>
    <path class="fil1" d="M6878.12 2247.09c547.58,0 991.54,443.68 991.54,991.18 0,549.19 -443.96,993.24 -991.54,993.24 -548.16,0 -992.49,-444.05 -992.49,-993.24 0,-547.49 444.33,-991.18 992.49,-991.18l0 0z"/>
    <path class="fil1" d="M6878.12 2110.74c59.55,-1.31 82.05,-37.98 82.05,-82.34 0,-58.24 -82.05,-340.15 -82.05,-340.15 0,0 -79.34,281.9 -79.34,340.15 0,44.36 21.47,82.34 79.34,82.34l0 0z"/>
    <path class="fil1" d="M7098.79 4341.32c-57.58,13.5 -72.12,53.27 -62.83,97.54 10.59,57.3 145.27,316.98 145.27,316.98 0,0 25.13,-292.13 13.22,-348.68 -9.28,-44.36 -37.7,-75.12 -95.65,-65.84l0 0z"/>
    <path class="fil1" d="M6878.12 4362.81c-57.87,1.31 -79.34,38.07 -79.34,82.71 0,59.17 79.34,339.49 79.34,339.49 0,0 82.05,-280.32 82.05,-339.49 0,-44.64 -22.51,-82.71 -82.05,-82.71l0 0z"/>
    <path class="fil1" d="M6659.42 4341.32c-57.87,-9.28 -87.31,21.48 -95.57,65.84 -11.25,56.56 13.23,348.68 13.23,348.68 0,0 132.7,-259.68 144.89,-316.98 9.28,-44.27 -4.97,-85.35 -62.55,-97.54l0 0z"/>
    <path class="fil1" d="M6447.75 4278.77c-54.3,-23.45 -89.66,4.32 -106.26,44.37 -23.16,54.86 -55.23,343.71 -55.23,343.71 0,0 182.97,-227.98 205.76,-282.85 16.23,-41.07 9.94,-82.71 -44.27,-105.22l0 0z"/>
    <path class="fil1" d="M6253.16 2300.65c48.29,-33.67 46.7,-76.06 21.57,-113.1 -32.83,-49.33 -256.12,-237.55 -256.12,-237.55 0,0 88.62,278.53 121.45,325.89 24.48,36.67 63.49,56.56 113.1,24.77l0 0z"/>
    <path class="fil1" d="M6447.75 2194.85c54.21,-22.87 60.49,-64.24 44.27,-105.87 -22.79,-54.96 -205.76,-282.94 -205.76,-282.94 0,0 32.08,290.82 55.23,344.74 16.6,41.73 51.96,66.49 106.26,44.07l0 0z"/>
    <path class="fil1" d="M6659.42 2130.61c57.58,-12.19 71.83,-50.26 62.55,-96.59 -12.19,-55.9 -144.89,-315.95 -144.89,-315.95 0,0 -24.48,291.76 -13.23,349.72 8.26,42.95 37.7,76.43 95.57,62.83l0 0z"/>
   </g>
  </g>
 </g>
</svg>
