<?xml version="1.0" encoding="UTF-8"?>
<!DOCTYPE svg PUBLIC "-//W3C//DTD SVG 1.1//EN" "http://www.w3.org/Graphics/SVG/1.1/DTD/svg11.dtd">
<!-- Creator: CorelDRAW 2020 (64-Bit) -->
<svg xmlns="http://www.w3.org/2000/svg" xml:space="preserve" width="133.256mm" height="77.7512mm" version="1.1" style="shape-rendering:geometricPrecision; text-rendering:geometricPrecision; image-rendering:optimizeQuality; fill-rule:evenodd; clip-rule:evenodd"
viewBox="0 0 13143.87 7669.07"
 xmlns:xlink="http://www.w3.org/1999/xlink"
 xmlns:xodm="http://www.corel.com/coreldraw/odm/2003">
 <defs>
  <style type="text/css">
   <![CDATA[
    .fil4 {fill:#36775C}
    .fil9 {fill:#AF3E30}
    .fil7 {fill:#B03E2F}
    .fil3 {fill:#C23D2A}
    .fil6 {fill:#CD3C27}
    .fil2 {fill:#E28424}
    .fil10 {fill:#FCFDFE}
    .fil8 {fill:#FEFEFE}
    .fil0 {fill:#36775C;fill-rule:nonzero}
    .fil1 {fill:#BF2839;fill-rule:nonzero}
    .fil5 {fill:#E28424;fill-rule:nonzero}
   ]]>
  </style>
 </defs>
 <g id="Layer_x0020_1">
  <metadata id="CorelCorpID_0Corel-Layer"/>
  <g id="_1909509906624">
   <g id="_2263523746688">
    <polygon class="fil0" points="-0,7669.07 13143.87,7669.07 13143.87,0 -0,0 "/>
    <polygon class="fil1" points="1379.29,7669.07 3451.15,7669.07 3451.15,0 1379.29,0 "/>
    <polygon class="fil2" points="1379.29,2142.21 1379.29,2082.37 1468.94,1933.82 1445.78,1904.65 1499.04,1823.62 1483.47,1793.14 1445.78,1852.69 1432.54,1823.62 1550.07,1615.9 1573.23,1646.27 1550.07,1675.44 1587.75,1733.96 1677.69,1586.73 1587.75,1445.77 1550.07,1496.03 1573.23,1527.17 1550.07,1555.96 1432.54,1349.17 1445.78,1319.06 1483.47,1378.34 1499.04,1349.17 1445.78,1268.14 1468.94,1237.66 1379.29,1089.48 1379.29,1031.24 1499.04,1237.66 1483.47,1268.14 1536.74,1349.17 1499.04,1409.09 1536.74,1469.3 1587.75,1378.34 1705.84,1586.73 1587.75,1793.14 1536.74,1704.8 1499.04,1764.07 1536.74,1823.62 1483.47,1904.65 1499.04,1933.82 "/>
    <polygon class="fil2" points="1379.29,1409.09 1402.44,1469.3 1402.44,1555.96 1455.42,1555.96 1483.47,1586.73 1455.42,1615.9 1402.44,1615.9 1402.44,1704.8 1379.29,1764.07 "/>
    <polygon class="fil2" points="1379.29,3549.61 1379.29,3489.77 1468.94,3342.92 1445.78,3312.07 1499.04,3223.43 1483.47,3193.32 1445.78,3252.5 1432.54,3223.43 1550.07,3023.3 1573.23,3054.07 1550.07,3083.14 1587.75,3142.41 1677.69,2994.14 1587.75,2853.19 1550.07,2905.5 1573.23,2936.27 1550.07,2965.34 1432.54,2756.96 1445.78,2726.48 1483.47,2786.03 1499.04,2756.96 1445.78,2668.24 1468.94,2637.85 1379.29,2496.88 1379.29,2438.66 1499.04,2637.85 1483.47,2668.24 1536.74,2756.96 1499.04,2816.51 1536.74,2876.35 1587.75,2786.03 1705.84,2994.14 1587.75,3193.32 1536.74,3113.24 1499.04,3171.47 1536.74,3223.43 1483.47,3312.07 1499.04,3342.92 "/>
    <polygon class="fil2" points="1379.29,2816.51 1402.44,2876.35 1402.44,2965.34 1455.42,2965.34 1483.47,2994.14 1455.42,3023.3 1402.44,3023.3 1402.44,3113.24 1379.29,3171.47 "/>
    <polygon class="fil2" points="1379.29,4957.13 1379.29,4898.88 1468.94,4750.33 1445.78,4719.85 1499.04,4631.23 1483.47,4601.78 1445.78,4661.33 1432.54,4631.23 1550.07,4430.34 1573.23,4453.51 1550.07,4482.66 1587.75,4542.5 1677.69,4401.55 1587.75,4253.36 1550.07,4312.55 1573.23,4341.72 1550.07,4372.48 1432.54,4164.36 1445.78,4135.3 1483.47,4193.81 1499.04,4164.36 1445.78,4076.03 1468.94,4045.27 1379.29,3898.39 1379.29,3838.47 1499.04,4045.27 1483.47,4076.03 1536.74,4164.36 1499.04,4222.88 1536.74,4282.45 1587.75,4193.81 1705.84,4401.55 1587.75,4601.78 1536.74,4513.7 1499.04,4571.66 1536.74,4631.23 1483.47,4719.85 1499.04,4750.33 "/>
    <polygon class="fil2" points="1379.29,4222.88 1402.44,4282.45 1402.44,4372.48 1455.42,4372.48 1483.47,4401.55 1455.42,4430.34 1402.44,4430.34 1402.44,4513.7 1379.29,4571.66 "/>
    <polygon class="fil2" points="1379.29,6275.17 1379.29,6215.97 1468.94,6069.02 1445.78,6038.64 1499.04,5949.91 1483.47,5918.87 1445.78,5979.09 1432.54,5949.91 1550.07,5741.81 1573.23,5772.29 1550.07,5801.08 1587.75,5860.91 1677.69,5713.4 1587.75,5572.16 1550.07,5631.71 1573.23,5661.17 1550.07,5690.22 1432.54,5483.43 1445.78,5452.67 1483.47,5513.54 1499.04,5483.43 1445.78,5394.44 1468.94,5363.39 1379.29,5216.8 1379.29,5157.25 1499.04,5363.39 1483.47,5394.44 1536.74,5483.43 1499.04,5541.02 1536.74,5601.23 1587.75,5513.54 1705.84,5719.02 1587.75,5918.87 1536.74,5831.84 1499.04,5890.08 1536.74,5949.91 1483.47,6038.64 1499.04,6069.02 "/>
    <polygon class="fil2" points="1379.29,5541.02 1402.44,5601.23 1402.44,5690.22 1455.42,5690.22 1483.47,5713.4 1455.42,5741.81 1402.44,5741.81 1402.44,5831.84 1379.29,5890.08 "/>
    <polygon class="fil2" points="3451.05,2142.21 3451.05,2082.37 3361.41,1933.82 3384.28,1904.65 3332.32,1823.62 3347.88,1793.14 3384.28,1852.69 3396.85,1823.62 3279.34,1615.9 3257.87,1646.27 3279.34,1675.44 3242.28,1733.96 3160.23,1586.73 3242.28,1445.77 3279.34,1496.03 3257.87,1527.17 3279.34,1555.96 3396.85,1349.17 3384.28,1319.06 3347.88,1378.34 3332.32,1349.17 3384.28,1268.14 3361.41,1237.66 3451.05,1089.48 3451.05,1031.24 3332.32,1237.66 3347.88,1268.14 3294.62,1349.17 3332.32,1409.09 3294.62,1469.3 3242.28,1378.34 3124.5,1586.73 3242.28,1793.14 3294.62,1704.8 3332.32,1764.07 3294.62,1823.62 3347.88,1904.65 3332.32,1933.82 "/>
    <polygon class="fil2" points="3451.05,1409.09 3435.48,1469.3 3435.48,1555.96 3384.28,1555.96 3347.88,1586.73 3384.28,1615.9 3435.48,1615.9 3435.48,1704.8 3451.05,1764.07 "/>
    <polygon class="fil2" points="3451.05,3549.61 3451.05,3489.77 3361.41,3342.92 3384.28,3312.07 3332.32,3223.43 3347.88,3193.32 3384.28,3252.5 3396.85,3223.43 3279.34,3023.3 3257.87,3054.07 3279.34,3083.14 3242.28,3142.41 3160.23,2994.14 3242.28,2853.19 3279.34,2905.5 3257.87,2936.27 3279.34,2965.34 3396.85,2756.96 3384.28,2726.48 3347.88,2786.03 3332.32,2756.96 3384.28,2668.24 3361.41,2637.85 3451.05,2496.88 3451.05,2438.66 3332.32,2637.85 3347.88,2668.24 3294.62,2756.96 3332.32,2816.51 3294.62,2876.35 3242.28,2786.03 3124.5,2994.14 3242.28,3193.32 3294.62,3113.24 3332.32,3171.47 3294.62,3223.43 3347.88,3312.07 3332.32,3342.92 "/>
    <polygon class="fil2" points="3451.05,2816.51 3435.48,2876.35 3435.48,2965.34 3384.28,2965.34 3347.88,2994.14 3384.28,3023.3 3435.48,3023.3 3435.48,3113.24 3451.05,3171.47 "/>
    <polygon class="fil2" points="3451.05,4957.13 3451.05,4898.88 3361.41,4750.33 3384.28,4719.85 3332.32,4631.23 3347.88,4601.78 3384.28,4661.33 3396.85,4631.23 3279.34,4430.34 3257.87,4453.51 3279.34,4482.66 3242.28,4542.5 3160.23,4401.55 3242.28,4253.36 3279.34,4312.55 3257.87,4341.72 3279.34,4372.48 3396.85,4164.36 3384.28,4135.3 3347.88,4193.81 3332.32,4164.36 3384.28,4076.03 3361.41,4045.27 3451.05,3898.39 3451.05,3838.47 3332.32,4045.27 3347.88,4076.03 3294.62,4164.36 3332.32,4222.88 3294.62,4282.45 3242.28,4193.81 3124.5,4401.55 3242.28,4601.78 3294.62,4513.7 3332.32,4571.66 3294.62,4631.23 3347.88,4719.85 3332.32,4750.33 "/>
    <polygon class="fil2" points="3451.05,4222.88 3435.48,4282.45 3435.48,4372.48 3384.28,4372.48 3347.88,4401.55 3384.28,4430.34 3435.48,4430.34 3435.48,4513.7 3451.05,4571.66 "/>
    <polygon class="fil2" points="3451.05,6275.17 3451.05,6215.97 3361.41,6069.02 3384.28,6038.64 3332.32,5949.91 3347.88,5918.87 3384.28,5979.09 3396.85,5949.91 3279.34,5741.81 3257.87,5772.29 3279.34,5801.08 3242.28,5860.91 3160.23,5713.4 3242.28,5572.16 3279.34,5631.71 3257.87,5661.17 3279.34,5690.22 3396.85,5483.43 3384.28,5452.67 3347.88,5513.54 3332.32,5483.43 3384.28,5394.44 3361.41,5363.39 3451.05,5216.8 3451.05,5157.25 3332.32,5363.39 3347.88,5394.44 3294.62,5483.43 3332.32,5541.02 3294.62,5601.23 3242.28,5513.54 3124.5,5719.02 3242.28,5918.87 3294.62,5831.84 3332.32,5890.08 3294.62,5949.91 3347.88,6038.64 3332.32,6069.02 "/>
    <polygon class="fil2" points="3451.05,5541.02 3435.48,5601.23 3435.48,5690.22 3384.28,5690.22 3347.88,5713.4 3384.28,5741.81 3435.48,5741.81 3435.48,5831.84 3451.05,5890.08 "/>
    <polygon class="fil2" points="1379.29,564.77 1379.29,505.2 1468.94,356.28 1445.78,327.5 1499.04,237.56 1483.47,208.1 1445.78,267.66 1432.54,237.56 1550.07,30.76 1573.23,59.83 1550.07,90.96 1587.75,148.83 1677.69,0 1705.84,0 1587.75,208.1 1536.74,119.75 1499.04,178.94 1536.74,237.56 1483.47,327.5 1499.04,356.28 "/>
    <polygon class="fil2" points="1379.29,0 1483.47,0 1455.42,30.76 1402.44,30.76 1402.44,119.75 1379.29,178.94 "/>
    <polygon class="fil2" points="3451.05,564.77 3451.05,505.2 3361.41,356.28 3384.28,327.5 3332.32,237.56 3347.88,208.1 3384.28,267.66 3396.85,237.56 3279.34,30.76 3257.87,59.83 3279.34,90.96 3242.28,148.83 3160.23,0 3124.5,0 3242.28,208.1 3294.62,119.75 3332.32,178.94 3294.62,237.56 3347.88,327.5 3332.32,356.28 "/>
    <polygon class="fil2" points="3451.05,0 3347.88,0 3384.28,30.76 3435.48,30.76 3435.48,119.75 3451.05,178.94 "/>
    <path class="fil2" d="M2239.84 7602.2c0,0 75.4,-111.78 268.68,-148.16 186.25,-29.18 214.4,81.02 326.18,81.02 103.26,0 274.23,-81.02 274.23,-81.02 0,0 -170.97,148.16 -304.05,140.58 -125.67,0 -171.63,-73.15 -303.39,-59.56 -134.95,7.6 -261.65,74.75 -261.65,67.15l0 0 0 -0.01z"/>
    <path class="fil2" d="M2605.14 7602.2c0,0 -74.47,-111.78 -260.06,-148.16 -186.25,-29.18 -223.03,81.02 -327.59,81.02 -110.1,0 -275.25,-81.02 -275.25,-81.02 0,0 165.16,148.16 297.76,140.58 133.36,0 178.66,-73.15 312.95,-59.56 132.05,7.6 252.19,74.75 252.19,67.15l0 0 0 -0.01z"/>
    <path class="fil2" d="M1996.37 7416.98c-22.23,-30.85 -59.93,-163.84 -37.8,-178.66 30.1,-6.66 119.1,126.7 111.22,246.09 -58.9,21.57 -251.15,-15.19 -251.15,-45.95 13.6,-52.33 124.74,-37.05 177.72,-21.47l0 0z"/>
    <path class="fil2" d="M1878.59 7304.81c-16.6,-36.39 -30.11,-177.06 -8.63,-184.28 37.42,0 96.59,147.89 66.48,265.6 -57.86,9.66 -244.12,-73.43 -230.61,-110.11 22.88,-44.36 126.42,0 172.75,28.79l0 0 0.01 0z"/>
    <path class="fil2" d="M1779.92 7172.1c-6.57,-28.79 -6.57,-171.34 15.56,-176.96 36.77,0 83.1,163.08 36.77,265.96 -58.91,7.32 -236.62,-102.88 -221.99,-133.36 28.79,-43.98 125.39,15.56 169.65,44.36l0 0z"/>
    <path class="fil2" d="M1705.84 7039.4c-6.94,-38.64 15.19,-177.62 36.39,-177.62 37.7,5.63 62.18,177.62 0,273.94 -58.9,-7.97 -215.05,-140.58 -198.82,-169.75 29.82,-38.72 125.39,34.8 162.43,73.43l0 0z"/>
    <path class="fil2" d="M1654.54 6898.54c0,-36.76 28.79,-171.72 59.92,-171.72 27.77,16.88 37.42,179.31 -31.13,273.94 -65.46,-19.89 -199.86,-183.34 -184.29,-206.79 37.71,-29.83 118.83,59.83 155.5,104.56l0 0z"/>
    <path class="fil2" d="M1668.78 6734.7c-6.66,140.67 -36.76,140.67 -87.69,38.07 -31.04,-38.07 -31.04,-207.74 -7.88,-207.74 29.08,-7.31 95.57,111.14 95.57,169.66l0 0z"/>
    <path class="fil2" d="M2849.25 7432.45c15.56,-31.05 51.3,-164.03 29.17,-179.32 -29.17,-5.91 -118.17,125.4 -110.2,244.87 58.9,23.45 251.06,-13.6 251.06,-43.98 -14.16,-52.62 -126.32,-37.05 -170.03,-21.57l0 0z"/>
    <path class="fil2" d="M2961.42 7320.28c14.53,-37.98 28.13,-176.97 4.6,-184.57 -34.7,0 -94.54,146.58 -65.46,265.69 60.87,7.88 245.15,-73.15 238.49,-109.81 -23.07,-44.37 -126.32,0 -177.62,28.69l0 0z"/>
    <path class="fil2" d="M3056.03 7187.3c8.63,-29.08 16.51,-171.06 -13.59,-176.7 -29.73,0 -81.03,161.5 -37.33,265.41 59.56,6.28 237.18,-103.91 221.62,-132.7 -28.79,-44.64 -124.36,14.91 -170.69,43.99l0 0z"/>
    <path class="fil2" d="M3132.09 7054.69c6.94,-38.45 -7.59,-179.31 -36.39,-179.31 -31.04,7.59 -60.21,179.31 0,275.25 57.96,-7.32 213.46,-140.02 198.92,-169.75 -29.83,-38.07 -118.83,35.36 -162.53,73.81l0 0z"/>
    <path class="fil2" d="M3182.74 6914.01c0,-38.64 -29.08,-170.31 -58.24,-170.31 -28.79,13.51 -38.36,177.63 35.74,272.54 60.87,-15.48 192.25,-183.26 178.66,-206.7 -37.71,-29.17 -117.79,57.87 -156.15,104.48l0 0z"/>
    <path class="fil2" d="M3175.8 6749.6c0,140.96 29.83,140.96 82.07,37.42 28.79,-37.42 28.79,-206.79 6.93,-206.79 -30.1,-7.59 -89,111.51 -89,169.37l0 0z"/>
    <polygon class="fil3" points="3132.09,5276.64 3025.93,5276.64 3025.93,5363.39 2931.32,5363.39 2931.32,5452.67 2530.67,5452.67 2462.86,5541.02 2501.5,5586.97 2664.68,5586.97 2701.72,5541.02 2530.67,5541.02 2568.08,5498.73 2797.3,5498.73 2701.72,5631.71 2462.86,5631.71 2396.36,5586.97 2329.87,5631.71 2100.56,5631.71 2002.94,5498.73 2234.88,5498.73 2263,5541.02 2100.56,5541.02 2135.65,5586.97 2299.77,5586.97 2329.87,5541.02 2263,5452.67 1899.03,5452.67 1899.03,5363.39 1802.43,5363.39 1802.43,5276.64 1705.84,5276.64 1705.84,4870.09 1802.43,4870.09 1802.43,4779.4 1899.03,4779.4 1899.03,4690.78 2263,4690.78 2329.87,4601.78 2299.77,4556.11 2135.65,4556.11 2100.56,4601.78 2263,4601.78 2234.88,4646.41 2002.94,4646.41 2100.56,4513.7 2329.87,4513.7 2396.36,4556.11 2462.86,4513.7 2701.72,4513.7 2797.3,4646.41 2568.08,4646.41 2530.67,4601.78 2701.72,4601.78 2664.68,4556.11 2501.5,4556.11 2462.86,4601.78 2530.67,4690.78 2931.32,4690.78 2931.32,4779.4 3025.93,4779.4 3025.93,4870.09 3132.09,4870.09 "/>
    <polygon class="fil4" points="1735.66,4919.98 1735.66,5230.7 1832.25,5230.7 1832.25,5321 1936.44,5321 1936.44,5410 2263,5410 2396.36,5541.02 2530.67,5410 2892.95,5410 2892.95,5321 2998.17,5321 2998.17,5230.7 3095.71,5230.7 3095.71,4912.38 2998.17,4912.38 2998.17,4823.39 2892.95,4831.36 2892.95,4733.72 2530.67,4733.72 2396.36,4601.78 2263,4733.72 1936.44,4733.72 1936.44,4831.36 1832.25,4831.36 1832.25,4919.98 "/>
    <path class="fil5" d="M1714.46 4898.88l21.2 0 0 21.1 -21.2 0 0 -21.1zm117.79 44.64l-96.6 0 0 -44.64 96.6 0 0 44.64zm23.17 0l-23.16 0 0 -23.54 23.16 0 0 23.54zm0 -23.54l-45.39 0 0 -88.62 45.39 0 0 88.62zm-45.4 -110.1l22.23 0 0 21.47 -22.23 0 0 -21.47zm126.42 42.68l-104.19 0 0 -42.67 104.19 0 0 42.67zm22.14 0l-22.13 0 0 -21.2 22.13 0 0 21.2zm0 -21.2l-45.29 0 0 -97.63 45.29 0 0 97.63zm-45.3 -119.48l23.16 0 0 22.88 -23.16 0 0 -22.88zm349.71 46.03l-326.55 0 0 -46.03 326.55 0 0 46.03zm23.18 0l-23.17 0 0 -24.2 23.17 24.2zm125.66 -134.29l-125.66 134.29 -37.71 -38.07 133.27 -132.61 30.1 36.39zm-30.1 -36.38l14.64 -15.57 15.47 15.57 -15.47 14.54 -14.64 -14.54zm133.37 170.67l-133.37 -134.29 30.1 -36.39 133.37 132.61 -30.1 38.07zm15.56 0l-15.56 0 15.56 -24.2 0 24.2zm362.29 0l-362.29 0 0 -46.03 362.29 0 0 46.03zm0 -46.03l24.76 0 0 22.88 -24.76 0 0 -22.88zm-21.48 21.85l46.24 0 0 97.63 -46.24 0 0 -97.63zm21.48 118.83l-21.48 0 0 -21.2 21.48 0 0 21.2zm105.22 -5.62l-105.22 5.62 0 -42.67 105.22 -9.01 0 46.04 0 0.01zm0 -46.04l21.1 0 0 22.51 -21.1 0 0 -22.51zm-22.23 22.51l43.33 0 0 89 -43.33 0 0 -89zm22.23 110.2l-22.23 0 0 -21.2 22.23 0 0 21.2zm97.53 0l-97.53 0 0 -43.98 97.53 0 0 43.98zm0 -43.99l20.26 0 0 22.78 -20.26 0 0 -22.78zm-23.17 22.78l43.42 0 0 318.31 -43.42 0 0 -318.31zm43.43 341.1l-20.26 0 0 -22.78 20.26 0 0 22.78zm-117.79 -43.99l97.53 0 0 43.98 -97.53 0 0 -43.98zm-22.23 0l22.23 0 0 21.2 -22.23 0 0 -21.2zm0 21.21l43.33 0 0 90.31 -43.33 0 0 -90.31zm43.33 111.77l-21.1 0 0 -21.47 21.1 0 0 21.47zm-126.32 -44.64l105.22 0 0 44.64 -105.22 0 0 -44.64zm-21.48 0l21.48 0 0 23.17 -21.48 0 0 -23.17zm0 23.17l46.24 0 0 89 -46.24 0 0 -89zm46.23 110.2l-24.76 0 0 -21.2 24.76 0 0 21.2zm-387.04 -44.36l362.29 0 0 44.36 -362.29 0 0 -44.36zm-15.56 0l15.56 0 0 23.16 -15.56 -23.16zm-133.37 133.36l133.37 -133.36 30.1 36.76 -133.37 132.98 -30.1 -36.39zm30.1 36.38l-15.47 15.57 -14.64 -15.57 14.64 -15.56 15.47 15.56zm-125.66 -169.73l125.66 133.36 -30.1 36.39 -133.27 -132.98 37.71 -36.76zm-23.18 0l23.17 0 -23.17 23.16 0 -23.16zm-326.55 0l326.55 0 0 44.36 -326.55 0 0 -44.36zm0 44.36l-23.16 0 0 -21.2 23.16 0 0 21.2zm22.14 -21.2l-45.29 0 0 -89 45.29 0 0 89zm-22.14 -112.17l22.13 0 0 23.17 -22.13 0 0 -23.17zm-104.19 0l104.19 0 0 44.64 -104.19 0 0 -44.64zm0 44.64l-22.23 0 0 -21.47 22.23 0 0 21.47zm23.17 -21.47l-45.39 0 0 -90.31 45.39 0 0 90.31zm-23.17 -111.51l23.16 0 0 21.2 -23.16 0 0 -21.2zm-96.6 0l96.6 0 0 43.98 -96.6 0 0 -43.98zm0 43.99l-21.2 0 0 -22.78 21.2 0 0 22.78zm23.17 -22.78l-44.37 0 0 -310.71 44.37 0 0 310.71z"/>
    <polygon class="fil3" points="2203.08,4779.4 2002.94,5001.1 2002.94,4779.4 "/>
    <polygon class="fil3" points="2596.13,4779.4 2797.3,5001.1 2797.3,4779.4 "/>
    <polygon class="fil3" points="2203.08,5363.39 2002.94,5143.38 2002.94,5363.39 "/>
    <polygon class="fil3" points="2596.13,5363.39 2797.3,5143.38 2797.3,5363.39 "/>
    <polygon class="fil3" points="2664.68,4912.38 2596.13,5001.1 2729.85,5001.1 "/>
    <polygon class="fil3" points="2135.65,4912.38 2069.8,5001.1 2203.08,5001.1 "/>
    <polygon class="fil3" points="2135.65,5230.7 2069.8,5143.38 2203.08,5143.38 "/>
    <polygon class="fil3" points="2664.68,5230.7 2596.13,5143.38 2729.85,5143.38 "/>
    <polygon class="fil2" points="2396.36,5452.67 2329.87,5363.39 2462.86,5363.39 "/>
    <polygon class="fil2" points="2396.36,5001.1 2329.87,4912.38 2462.86,4912.38 "/>
    <polygon class="fil2" points="2396.36,4690.78 2329.87,4779.4 2462.86,4779.4 "/>
    <polygon class="fil2" points="2396.36,5143.38 2329.87,5230.7 2462.86,5230.7 "/>
    <polygon class="fil2" points="2596.13,5047.07 2729.76,5047.07 2729.76,5001.1 2596.13,5001.1 "/>
    <polygon class="fil6" points="2100.56,5097.71 2166.31,5097.71 2166.31,5047.07 2100.56,5047.07 "/>
    <polygon class="fil6" points="2633.27,5097.71 2701.72,5097.71 2701.72,5047.07 2633.27,5047.07 "/>
    <polygon class="fil7" points="2329.87,4823.39 2462.86,4823.39 2462.86,4779.49 2329.87,4779.49 "/>
    <polygon class="fil7" points="2329.87,4912.38 2462.86,4912.38 2462.86,4870 2329.87,4870 "/>
    <polygon class="fil7" points="2299.77,4870.09 2501.6,4870.09 2501.6,4823.39 2299.77,4823.39 "/>
    <polygon class="fil7" points="2329.87,5276.64 2462.86,5276.64 2462.86,5230.7 2329.87,5230.7 "/>
    <polygon class="fil7" points="2329.87,5363.39 2462.86,5363.39 2462.86,5321.09 2329.87,5321.09 "/>
    <polygon class="fil7" points="2299.77,5321 2501.6,5321 2501.6,5276.64 2299.77,5276.64 "/>
    <polygon class="fil2" points="2596.13,5143.38 2729.76,5143.38 2729.76,5097.71 2596.13,5097.71 "/>
    <polygon class="fil2" points="2069.8,5047.07 2202.98,5047.07 2202.98,5001.1 2069.8,5001.1 "/>
    <polygon class="fil2" points="2069.8,5143.38 2202.98,5143.38 2202.98,5097.71 2069.8,5097.71 "/>
    <polygon class="fil2" points="2033.05,5097.71 2100.47,5097.71 2100.47,5047.07 2033.05,5047.07 "/>
    <polygon class="fil2" points="2166.41,5097.71 2234.88,5097.71 2234.88,5047.07 2166.41,5047.07 "/>
    <polygon class="fil2" points="2568.08,5097.71 2633.17,5097.71 2633.17,5047.07 2568.08,5047.07 "/>
    <polygon class="fil2" points="2701.72,5097.71 2760.33,5097.71 2760.33,5047.07 2701.72,5047.07 "/>
    <path class="fil8" d="M2322.83 5297.83c0,0 0,6.67 -7.59,6.67l-6.93 -6.67c0,-7.59 6.93,-13.5 6.93,-13.5 7.59,0 7.59,5.91 7.59,13.5l0 0z"/>
    <path class="fil8" d="M2411.84 5297.83c0,0 -6.93,6.67 -15.47,6.67l-6.94 -6.67c0,-7.59 6.94,-13.5 6.94,-13.5 8.53,0 15.47,5.91 15.47,13.5l0 0z"/>
    <path class="fil8" d="M2491.93 5290.24c0,7.59 -6.93,14.26 -6.93,14.26 -6.57,0 -14.54,-6.67 -14.54,-14.26 0,0 7.97,-5.91 14.54,-5.91l6.93 5.91z"/>
    <path class="fil8" d="M2359.6 5253.48l-6.66 7.97c-7.87,0 -7.87,-7.97 -7.87,-7.97 0,-7.22 0,-14.54 7.87,-14.54 0,0 6.66,7.32 6.66,14.54l0 0z"/>
    <path class="fil8" d="M2454.88 5246.25c0,7.22 0,15.19 -6.28,15.19 -6.94,0 -6.94,-7.97 -6.94,-15.19 0,0 0,-7.32 6.94,-7.32 6.28,0 6.28,7.32 6.28,7.32l0 0z"/>
    <path class="fil8" d="M2359.6 5334.61c0,7.87 -6.66,15.56 -6.66,15.56 -7.87,0 -7.87,-7.69 -7.87,-15.56 0,0 0,-7.6 7.87,-7.6l6.66 7.6z"/>
    <path class="fil8" d="M2454.88 5342.47c0,7.69 0,7.69 -6.28,7.69 -6.94,0 -6.94,0 -6.94,-7.69 0,-7.87 0,-15.48 6.94,-15.48 6.28,0 6.28,7.6 6.28,15.48l0 0z"/>
    <path class="fil8" d="M2589.55 5069.2c0,7.03 -6.93,14.63 -6.93,14.63 -7.6,0 -7.6,-7.59 -7.6,-14.63 0,-7.88 0,-7.88 7.6,-7.88 0,0 6.93,0 6.93,7.88l0 0z"/>
    <path class="fil8" d="M2671.62 5069.2c0,7.03 0,14.63 -6.94,14.63 -8.63,0 -8.63,-7.59 -8.63,-14.63 0,-7.88 0,-7.88 8.63,-7.88 6.94,0 6.94,0 6.94,7.88l0 0z"/>
    <path class="fil8" d="M2752.65 5069.2c0,7.03 0,14.63 -6.94,14.63 -7.59,0 -7.59,-7.59 -7.59,-14.63 0,-7.88 0,-7.88 7.59,-7.88 6.94,0 6.94,0 6.94,7.88l0 0z"/>
    <path class="fil8" d="M2619.65 5024.55c0,5.62 0,13.6 -7.97,13.6 0,0 -6.56,-7.98 -6.56,-13.6 0,-7.88 6.56,-7.88 6.56,-7.88 7.97,0 7.97,0 7.97,7.88l0 0z"/>
    <path class="fil8" d="M2722.92 5024.55c0,5.62 -6.66,13.6 -6.66,13.6 -7.98,0 -14.54,-7.98 -14.54,-13.6 0,-7.88 6.56,-7.88 14.54,-7.88 0,0 6.66,0 6.66,7.88l0 0z"/>
    <path class="fil8" d="M2619.65 5112.9c0,7.97 0,13.88 -7.97,13.88 0,0 -6.56,-5.91 -6.56,-13.88 0,-7.23 6.56,-7.23 6.56,-7.23 7.97,0 7.97,0 7.97,7.23l0 0z"/>
    <path class="fil8" d="M2722.92 5112.9c0,7.97 -6.66,13.88 -6.66,13.88 -7.98,0 -14.54,-5.91 -14.54,-13.88 0,0 6.56,-7.23 14.54,-7.23l6.66 7.23z"/>
    <path class="fil8" d="M2322.83 4846.93c0,5.62 0,13.5 -7.59,13.5 0,0 -6.93,-7.88 -6.93,-13.5l6.93 -7.98c7.59,0 7.59,7.98 7.59,7.98l0 0z"/>
    <path class="fil8" d="M2404.89 4846.93c0,5.62 0,13.5 -8.53,13.5 0,0 -6.94,-7.88 -6.94,-13.5l6.94 -7.98c8.53,0 8.53,7.98 8.53,7.98l0 0z"/>
    <path class="fil8" d="M2491.93 4846.93c0,5.62 -6.93,13.5 -13.5,13.5 0,0 -7.97,-7.88 -7.97,-13.5 0,-7.98 7.97,-7.98 7.97,-7.98 6.57,0 13.5,0 13.5,7.98l0 0z"/>
    <path class="fil8" d="M2359.6 4800.88c0,9.01 -6.66,14.91 -6.66,14.91 -7.87,0 -7.87,-5.91 -7.87,-14.91 0,0 0,-7.59 7.87,-7.59l6.66 7.59z"/>
    <path class="fil8" d="M2454.88 4800.88c0,9.01 0,14.91 -6.28,14.91 -6.94,0 -6.94,-5.91 -6.94,-14.91 0,-7.59 0,-7.59 6.94,-7.59 6.28,0 6.28,0 6.28,7.59l0 0z"/>
    <path class="fil8" d="M2359.6 4889.6c0,9.28 -6.66,16.88 -6.66,16.88 -7.87,0 -14.53,-7.59 -14.53,-16.88 0,-6.01 6.66,-6.01 14.53,-6.01 0,0 6.66,0 6.66,6.01l0 0z"/>
    <path class="fil8" d="M2454.88 4898.88c0,0 0,7.59 -6.28,7.59 -6.94,0 -6.94,-7.59 -6.94,-7.59 0,-9.28 0,-15.29 6.94,-15.29 6.28,0 6.28,6.01 6.28,15.29l0 0z"/>
    <path class="fil8" d="M2062.21 5076.22c0,7.59 -7.03,7.59 -7.03,7.59 -6.56,0 -15.19,0 -15.19,-7.59 0,-7.03 8.63,-14.91 15.19,-14.91 0,0 7.03,7.88 7.03,14.91l0 0z"/>
    <path class="fil8" d="M2145.22 5076.22c0,7.59 -9.57,7.59 -9.57,7.59 -6.93,0 -6.93,0 -6.93,-7.59 0,-7.03 0,-14.91 6.93,-14.91 0,0 9.57,7.88 9.57,14.91l0 0z"/>
    <path class="fil8" d="M2226.24 5076.22l-7.59 7.59c-8.91,0 -8.91,-7.59 -8.91,-7.59 0,-7.03 0,-14.91 8.91,-14.91 0,0 7.59,7.88 7.59,14.91l0 0z"/>
    <path class="fil8" d="M2091.94 5030.17c0,7.98 0,7.98 -6.56,7.98 -7.69,0 -7.69,0 -7.69,-7.98 0,-5.62 0,-13.5 7.69,-13.5 6.56,0 6.56,7.88 6.56,13.5l0 0z"/>
    <path class="fil8" d="M2188.54 5030.17c0,0 0,7.98 -6.94,7.98l-8.26 -7.98c0,-5.62 8.26,-13.5 8.26,-13.5 6.94,0 6.94,7.88 6.94,13.5l0 0z"/>
    <path class="fil8" d="M2091.94 5120.88c0,0 0,5.91 -6.56,5.91 -7.69,0 -7.69,-5.91 -7.69,-5.91 0,-7.97 0,-15.2 7.69,-15.2 6.56,0 6.56,7.23 6.56,15.2l0 0z"/>
    <path class="fil8" d="M2188.54 5120.88c0,5.91 0,5.91 -6.94,5.91 0,0 -8.26,0 -8.26,-5.91 0,-7.97 8.26,-15.2 8.26,-15.2 6.94,0 6.94,7.23 6.94,15.2l0 0z"/>
    <polygon class="fil8" points="2530.67,4098.82 2589.55,4068.43 2640.48,4098.82 "/>
    <polygon class="fil8" points="2359.6,4098.82 2418.5,4068.43 2470.46,4098.82 "/>
    <polygon class="fil8" points="2188.54,4098.82 2248.47,4068.43 2299.77,4098.82 "/>
    <polygon class="fil8" points="2530.67,3319.75 2589.55,3348.46 2640.48,3319.75 "/>
    <polygon class="fil8" points="2359.6,3319.75 2418.5,3348.46 2470.46,3319.75 "/>
    <polygon class="fil8" points="2188.54,3319.75 2248.47,3348.46 2299.77,3319.75 "/>
    <polygon class="fil4" points="2484.99,4081.65 2418.5,4141.86 2352.93,4081.65 2286.18,4141.86 2218.64,4081.65 2218.64,4112.78 2263,4141.86 2239.84,4164.36 2239.84,4193.81 2263,4193.81 2286.18,4164.36 2308.31,4193.81 2329.87,4193.81 2329.87,4164.36 2308.31,4141.86 2352.93,4112.78 2396.36,4141.86 2374.79,4164.36 2374.79,4193.81 2396.36,4193.81 2418.5,4164.36 2441.67,4193.81 2462.86,4193.81 2462.86,4164.36 2441.67,4141.86 2484.99,4112.78 2530.67,4141.86 2508.52,4164.36 2508.52,4193.81 2530.67,4193.81 2545.19,4164.36 2568.08,4193.81 2589.55,4193.81 2589.55,4164.36 2568.08,4141.86 2611.68,4112.78 2611.68,4081.65 2545.19,4141.86 "/>
    <polygon class="fil4" points="2484.99,3312.07 2418.5,3260.86 2352.93,3312.07 2286.18,3260.86 2218.64,3312.07 2218.64,3290.96 2263,3260.86 2239.84,3238.64 2239.84,3209.56 2263,3209.56 2286.18,3238.64 2308.31,3209.56 2329.87,3209.56 2329.87,3238.64 2308.31,3260.86 2352.93,3290.96 2396.36,3260.86 2374.79,3238.64 2374.79,3209.56 2396.36,3209.56 2418.5,3238.64 2441.67,3209.56 2462.86,3209.56 2462.86,3238.64 2441.67,3260.86 2484.99,3290.96 2530.67,3260.86 2508.52,3238.64 2508.52,3209.56 2530.67,3209.56 2545.19,3238.64 2568.08,3209.56 2589.55,3209.56 2589.55,3238.64 2568.08,3260.86 2611.68,3290.96 2611.68,3312.07 2545.19,3260.86 "/>
    <polygon class="fil4" points="2982.62,3756.42 3056.03,3697.89 2982.62,3646.22 3056.03,3586.39 2982.62,3528.13 3019.27,3528.13 3056.03,3565.19 3095.71,3549.61 3132.09,3549.61 3132.09,3565.19 3095.71,3586.39 3132.09,3601.94 3132.09,3624.46 3095.71,3624.46 3056.03,3601.94 3019.27,3646.22 3056.03,3682.97 3095.71,3661.12 3132.09,3661.12 3132.09,3682.97 3095.71,3697.89 3132.09,3720.4 3132.09,3742.25 3095.71,3742.25 3056.03,3720.4 3019.27,3756.42 3056.03,3793.82 3095.71,3778.92 3132.09,3778.92 3132.09,3793.82 3095.71,3816.99 3132.09,3838.47 3132.09,3854.05 3095.71,3854.05 3056.03,3838.47 3019.27,3875.23 2982.62,3875.23 3056.03,3816.99 "/>
    <polygon class="fil4" points="1848.48,3756.42 1773.36,3697.89 1848.48,3646.22 1773.36,3586.39 1848.48,3528.13 1810.02,3528.13 1773.36,3565.19 1735.66,3549.61 1705.84,3549.61 1705.84,3565.19 1735.66,3586.39 1705.84,3601.94 1705.84,3624.46 1735.66,3624.46 1773.36,3601.94 1810.02,3646.22 1773.36,3682.97 1735.66,3661.12 1705.84,3661.12 1705.84,3682.97 1735.66,3697.89 1705.84,3720.4 1705.84,3742.25 1735.66,3742.25 1773.36,3720.4 1810.02,3756.42 1773.36,3793.82 1735.66,3778.92 1705.84,3778.92 1705.84,3793.82 1735.66,3816.99 1705.84,3838.47 1705.84,3854.05 1735.66,3854.05 1773.36,3838.47 1810.02,3875.23 1848.48,3875.23 1773.36,3816.99 "/>
    <polygon class="fil4" points="3012.72,3979.42 3042.45,3979.42 3042.45,3950.63 3012.72,3950.63 "/>
    <polygon class="fil4" points="2982.62,4008.49 3012.72,4008.49 3012.72,3979.42 2982.62,3979.42 "/>
    <polygon class="fil4" points="2841.28,4141.86 2871.47,4141.86 2871.47,4112.78 2841.28,4112.78 "/>
    <polygon class="fil4" points="2871.47,4112.78 2900.55,4112.78 2900.55,4081.65 2871.47,4081.65 "/>
    <polygon class="fil4" points="1929.79,4112.78 1958.67,4112.78 1958.67,4081.65 1929.79,4081.65 "/>
    <polygon class="fil4" points="1788.93,3979.42 1818.75,3979.42 1818.75,3950.63 1788.93,3950.63 "/>
    <polygon class="fil4" points="1818.66,4008.49 1848.39,4008.49 1848.39,3979.42 1818.66,3979.42 "/>
    <polygon class="fil4" points="1818.66,3424.23 1848.39,3424.23 1848.39,3393.29 1818.66,3393.29 "/>
    <polygon class="fil4" points="1788.93,3447.1 1818.75,3447.1 1818.75,3424.23 1788.93,3424.23 "/>
    <polygon class="fil4" points="1958.59,3290.96 1988.69,3290.96 1988.69,3260.86 1958.59,3260.86 "/>
    <polygon class="fil4" points="1929.79,3312.07 1958.67,3312.07 1958.67,3291.06 1929.79,3291.06 "/>
    <polygon class="fil4" points="2841.28,3290.96 2871.47,3290.96 2871.47,3260.86 2841.28,3260.86 "/>
    <polygon class="fil4" points="2871.47,3312.07 2900.55,3312.07 2900.55,3291.06 2871.47,3291.06 "/>
    <polygon class="fil4" points="2982.62,3424.23 3012.72,3424.23 3012.72,3393.29 2982.62,3393.29 "/>
    <polygon class="fil4" points="3012.72,3447.1 3042.45,3447.1 3042.45,3424.23 3012.72,3424.23 "/>
    <polygon class="fil4" points="1958.59,4141.86 1988.69,4141.86 1988.69,4112.78 1958.59,4112.78 "/>
    <path class="fil8" d="M2329.87 3697.89l-81.4 0 0 -51.68 51.3 0 0 -44.27 59.83 0 0 -44.64 52.24 0 0 50.55c-45.29,0 -81.97,38.36 -81.97,90.03l0 0z"/>
    <path class="fil2" d="M2491.93 3697.89l90.7 0 0 -51.68 -59.56 0 0 -44.27 -52.61 0 0 -44.64 -58.62 0 0 50.55c43.05,0 80.09,38.36 80.09,90.03l0 0z"/>
    <path class="fil8" d="M2491.93 3697.89l90.7 0 0 51.58 -59.56 0 0 52.34 -52.61 0 0 42.67 -58.62 0 0 -50.65c43.05,0 80.09,-44.36 80.09,-95.93l0 0z"/>
    <path class="fil2" d="M2329.87 3697.89l-81.4 0 0 51.58 51.3 0 0 52.34 59.83 0 0 42.67 52.24 0 0 -50.65c-45.29,0 -81.97,-44.36 -81.97,-95.93l0 0z"/>
    <path class="fil4" d="M2491.93 3697.89l-80.09 0 0 -90.03c43.05,0 80.09,45.67 80.09,90.03l0 0z"/>
    <path class="fil3" d="M2491.93 3697.89l-80.09 0 0 95.93c43.05,0 80.09,-44.36 80.09,-95.93l0 0z"/>
    <path class="fil4" d="M2329.87 3697.89l81.97 0 0 95.93c-45.29,0 -81.97,-44.36 -81.97,-95.93l0 0z"/>
    <path class="fil3" d="M2329.87 3697.89l81.97 0 0 -90.03c-45.29,0 -81.97,45.67 -81.97,90.03l0 0z"/>
    <polygon class="fil4" points="2501.5,4031.66 2418.5,3979.42 2329.87,4031.66 2248.47,3979.42 2158.81,4031.66 2158.81,4008.49 2218.64,3979.42 2188.54,3950.63 2188.54,3927.18 2218.64,3927.18 2248.47,3950.63 2271.63,3927.18 2299.77,3927.18 2299.77,3950.63 2271.63,3979.42 2329.87,4008.49 2389.43,3979.42 2359.6,3950.63 2359.6,3927.18 2389.43,3927.18 2418.5,3950.63 2441.67,3927.18 2470.46,3927.18 2470.46,3950.63 2441.67,3979.42 2501.5,4008.49 2559.45,3979.42 2530.67,3950.63 2530.67,3927.18 2559.45,3927.18 2589.55,3950.63 2611.68,3927.18 2640.48,3927.18 2640.48,3950.63 2611.68,3979.42 2669.64,4008.49 2669.64,4031.66 2589.55,3979.42 "/>
    <polygon class="fil4" points="2501.5,3370.68 2418.5,3424.23 2329.87,3370.68 2248.47,3424.23 2158.81,3370.68 2158.81,3393.19 2218.64,3424.23 2188.54,3447.1 2188.54,3474.22 2218.64,3474.22 2248.47,3447.1 2271.63,3474.22 2299.77,3474.22 2299.77,3447.1 2271.63,3424.23 2329.87,3393.19 2389.43,3424.23 2359.6,3447.1 2359.6,3474.22 2389.43,3474.22 2418.5,3447.1 2441.67,3474.22 2470.46,3474.22 2470.46,3447.1 2441.67,3424.23 2501.5,3393.19 2559.45,3424.23 2530.67,3447.1 2530.67,3474.22 2559.45,3474.22 2589.55,3447.1 2611.68,3474.22 2640.48,3474.22 2640.48,3447.1 2611.68,3424.23 2669.64,3393.19 2669.64,3370.68 2589.55,3424.23 "/>
    <polygon class="fil4" points="2812.85,3763.34 2775.81,3697.89 2812.85,3630.73 2775.81,3565.19 2812.85,3505.36 2790.35,3505.36 2775.81,3549.61 2752.65,3528.13 2729.85,3528.13 2729.85,3549.61 2752.65,3565.19 2729.85,3586.39 2729.85,3607.86 2752.65,3607.86 2775.81,3586.39 2790.35,3630.73 2775.81,3675.39 2752.65,3653.52 2729.85,3653.52 2729.85,3675.39 2752.65,3697.89 2729.85,3720.4 2729.85,3742.25 2752.65,3742.25 2775.81,3720.4 2790.35,3763.34 2775.81,3808.09 2752.65,3786.22 2729.85,3786.22 2729.85,3808.09 2752.65,3830.5 2729.85,3854.05 2729.85,3875.23 2752.65,3875.23 2775.81,3854.05 2790.35,3898.39 2812.85,3898.39 2775.81,3830.5 "/>
    <path class="fil4" d="M2128.7 3312.07l-280.23 268.03 0 242.8 280.23 258.75 573.02 0 280.89 -258.75 0 -242.8 -280.89 -268.03 -573.02 0zm30.1 81.12l-110.2 112.17 0 393.04 110.2 110.1 512.81 0 111.13 -110.1 0 -393.04 -111.13 -112.17 -512.81 0z"/>
    <polygon class="fil2" points="2278.2,4031.66 2322.83,4081.65 2366.53,4031.66 "/>
    <polygon class="fil2" points="2278.2,3370.68 2322.83,3312.07 2366.53,3370.68 "/>
    <polygon class="fil2" points="2462.86,3370.68 2508.52,3312.07 2551.49,3370.68 "/>
    <polygon class="fil2" points="2462.86,4031.66 2508.52,4081.65 2551.49,4031.66 "/>
    <polygon class="fil3" points="2188.54,3370.68 2234.88,3312.07 2278.2,3370.68 "/>
    <polygon class="fil3" points="2366.53,3370.68 2418.5,3312.07 2462.86,3370.68 "/>
    <polygon class="fil3" points="2551.49,3370.68 2596.13,3312.07 2640.48,3370.68 "/>
    <polygon class="fil3" points="2077.68,3950.63 2158.81,4031.66 2077.68,4031.66 "/>
    <polygon class="fil4" points="2017.47,3763.34 2062.21,3697.89 2017.47,3630.73 2062.21,3565.19 2017.47,3505.36 2039.99,3505.36 2062.21,3549.61 2077.68,3528.13 2100.56,3528.13 2100.56,3549.61 2077.68,3565.19 2100.56,3586.39 2100.56,3607.86 2077.68,3607.86 2062.21,3586.39 2039.99,3630.73 2062.21,3675.39 2077.68,3653.52 2100.56,3653.52 2100.56,3675.39 2077.68,3697.89 2100.56,3720.4 2100.56,3742.25 2077.68,3742.25 2062.21,3720.4 2039.99,3763.34 2062.21,3808.09 2077.68,3786.22 2100.56,3786.22 2100.56,3808.09 2077.68,3830.5 2100.56,3854.05 2100.56,3875.23 2077.68,3875.23 2062.21,3854.05 2039.99,3898.39 2017.47,3898.39 2062.21,3830.5 "/>
    <polygon class="fil3" points="2841.28,3630.73 2961.42,3630.73 2982.62,3653.52 2961.42,3675.39 2841.28,3675.39 "/>
    <polygon class="fil3" points="2077.68,3447.1 2017.47,3505.36 2017.47,3898.39 2077.68,3950.63 1988.69,3950.63 1988.69,3447.1 "/>
    <polygon class="fil3" points="2188.54,4031.66 2234.88,4081.65 2278.2,4031.66 "/>
    <polygon class="fil3" points="2366.53,4031.66 2418.5,4081.65 2462.86,4031.66 "/>
    <polygon class="fil3" points="2551.49,4031.66 2596.13,4081.65 2640.48,4031.66 "/>
    <polygon class="fil3" points="2760.24,3447.1 2812.85,3505.36 2812.85,3898.39 2760.24,3950.63 2841.28,3950.63 2841.28,3447.1 "/>
    <polygon class="fil3" points="2760.24,3950.63 2669.64,4031.66 2760.24,4031.66 "/>
    <polygon class="fil3" points="2760.24,3447.1 2669.64,3370.68 2760.24,3370.68 "/>
    <polygon class="fil3" points="2077.68,3447.1 2158.81,3370.68 2077.68,3370.68 "/>
    <path class="fil4" d="M2158.81 3370.68l-141.34 134.68 0 393.04 141.34 133.27 512.81 0 141.24 -133.27 0 -393.04 -141.24 -134.68 -512.81 0zm0 22.51l-110.2 112.17 0 393.04 110.2 110.1 512.81 0 111.13 -110.1 0 -393.04 -111.13 -112.17 -512.81 0z"/>
    <polygon class="fil2" points="2841.28,3675.39 2961.42,3675.39 2982.62,3697.89 2961.42,3726.96 2841.28,3726.96 "/>
    <polygon class="fil3" points="2841.28,3726.96 2961.42,3726.96 2982.62,3749.47 2961.42,3771.33 2841.28,3771.33 "/>
    <polygon class="fil2" points="2841.28,3771.33 2961.42,3771.33 2982.62,3793.82 2961.42,3822.91 2841.28,3822.91 "/>
    <polygon class="fil2" points="2841.28,3580.09 2961.42,3580.09 2982.62,3607.86 2961.42,3630.73 2841.28,3630.73 "/>
    <polygon class="fil3" points="1988.69,3630.73 1878.59,3630.73 1848.48,3653.52 1878.59,3675.39 1988.69,3675.39 "/>
    <polygon class="fil2" points="1988.69,3675.39 1878.59,3675.39 1848.48,3697.89 1878.59,3726.96 1988.69,3726.96 "/>
    <polygon class="fil3" points="1988.69,3726.96 1878.59,3726.96 1848.48,3749.47 1878.59,3771.33 1988.69,3771.33 "/>
    <polygon class="fil2" points="1988.69,3771.33 1878.59,3771.33 1848.48,3793.82 1878.59,3822.91 1988.69,3822.91 "/>
    <polygon class="fil2" points="1988.69,3580.09 1878.59,3580.09 1848.48,3607.86 1878.59,3630.73 1988.69,3630.73 "/>
    <path class="fil9" d="M1848.48 3447.1l0 503.53 140.21 0 0 131.02 852.59 0 0 -131.02 141.34 0 0 -503.53 -141.34 0 0 -135.04 -852.59 0 0 135.04 -140.21 0zm-29.82 -22.88l0 555.2 139.93 0 0 133.36 912.89 0 0 -133.36 141.25 0 0 -555.2 -141.25 0 0 -133.27 -912.89 0 0 133.27 -139.93 0z"/>
    <polygon class="fil3" points="3132.09,698.03 3042.45,564.77 3042.45,468.44 2961.42,364.25 2782.75,364.25 2640.48,267.66 2188.54,267.66 2048.61,364.25 1878.59,364.25 1788.93,468.44 1788.93,564.77 1705.84,698.03 1705.84,958.09 1788.93,1089.48 1788.93,1186.08 1878.59,1282.67 2048.61,1282.67 2188.54,1378.34 2640.48,1378.34 2782.75,1282.67 2961.42,1282.67 3042.45,1186.08 3042.45,1089.48 3132.09,958.09 "/>
    <polygon class="fil2" points="1728.71,823.14 1728.71,919.73 1818.66,1052.72 1818.66,1149.32 1899.03,1252.94 2077.68,1252.94 2218.64,1349.17 2418.5,1349.17 2418.5,823.14 "/>
    <polygon class="fil3" points="2173.35,1052.72 2069.8,1135.44 2010.91,1135.44 2033.05,1164.61 1988.69,1222.84 2010.91,1252.94 2069.8,1222.84 2091.94,1252.94 2100.56,1178.48 2218.64,1089.48 "/>
    <polygon class="fil3" points="2062.21,985.29 1958.59,1075.88 1892.09,1075.88 1913.28,1098.77 1878.59,1156.65 1892.09,1186.08 1958.59,1156.65 1981.09,1186.08 1988.69,1112.93 2100.56,1023.65 "/>
    <polygon class="fil3" points="2002.94,859.52 1899.03,942.54 1840.79,942.54 1861.98,971.69 1818.66,1023.65 1840.79,1052.72 1899.03,1023.65 1921.9,1052.72 1929.79,979.29 2048.61,890.67 "/>
    <polygon class="fil2" points="3102.36,823.14 3102.36,725.51 3012.72,593.85 3012.72,497.23 2931.32,400.65 2760.24,400.65 2611.68,297.11 2418.5,297.11 2418.5,823.14 "/>
    <polygon class="fil3" points="2418.5,1349.17 2359.6,1349.17 2299.77,1282.67 2203.08,1282.67 2151.86,1252.94 2181.59,1216.47 2234.88,1252.94 2286.18,1252.94 2338.41,1149.32 2418.5,1186.08 2418.5,1252.94 2338.41,1252.94 "/>
    <polygon class="fil8" points="1728.71,823.14 1728.71,725.51 1818.66,593.85 1818.66,497.23 1899.03,400.65 2077.68,400.65 2218.64,297.11 2418.5,297.11 2418.5,823.14 "/>
    <polygon class="fil3" points="2418.5,297.11 2359.6,297.11 2299.77,364.25 2203.08,364.25 2151.86,400.65 2181.59,429.72 2234.88,400.65 2286.18,400.65 2338.41,497.23 2418.5,468.44 2418.5,400.65 2338.41,400.65 "/>
    <polygon class="fil3" points="2418.5,297.11 2470.46,297.11 2530.67,364.25 2626.23,364.25 2679.21,400.65 2656.05,429.72 2596.13,400.65 2545.19,400.65 2491.93,497.23 2418.5,468.44 2418.5,400.65 2491.93,400.65 "/>
    <polygon class="fil8" points="3102.36,823.14 3102.36,919.73 3012.72,1052.72 3012.72,1149.32 2931.32,1252.94 2760.24,1252.94 2611.68,1349.17 2418.5,1349.17 2418.5,823.14 "/>
    <polygon class="fil3" points="2418.5,1349.17 2470.46,1349.17 2530.67,1282.67 2626.23,1282.67 2679.21,1252.94 2656.05,1216.47 2596.13,1252.94 2545.19,1252.94 2491.93,1149.32 2418.5,1186.08 2418.5,1252.94 2491.93,1252.94 "/>
    <polygon class="fil3" points="2062.21,659.67 1958.59,578.26 1892.09,578.26 1913.28,549.47 1878.59,489.64 1892.09,468.44 1958.59,489.64 1981.09,468.44 1988.69,541.88 2100.56,630.88 "/>
    <polygon class="fil3" points="2656.05,593.85 2760.24,510.84 2819.52,510.84 2804.88,481.68 2841.28,429.72 2819.52,400.65 2760.24,429.72 2738.12,400.65 2729.85,474.45 2611.68,564.77 "/>
    <polygon class="fil3" points="2173.35,593.85 2069.8,510.84 2010.91,510.84 2033.05,481.68 1988.69,429.72 2010.91,400.65 2069.8,429.72 2091.94,400.65 2100.56,474.45 2218.64,564.77 "/>
    <polygon class="fil3" points="2002.94,793.03 1899.03,705.06 1840.79,705.06 1861.98,682.55 1818.66,623 1840.79,593.85 1899.03,623 1921.9,593.85 1929.79,667.26 2048.61,755.99 "/>
    <polygon class="fil8" points="1779.92,823.14 1810.02,823.14 1832.25,859.52 1861.98,823.14 2418.5,823.14 2418.5,1282.67 2389.43,1282.67 2418.5,1312.5 2418.5,1349.17 2338.41,1252.94 2338.41,1216.47 2359.6,1216.47 2359.6,1252.94 2389.43,1252.94 2389.43,1216.47 2173.35,1075.88 1996.37,1075.88 1996.37,934.92 1913.28,859.52 1861.98,859.52 1832.25,890.67 1861.98,919.73 1832.25,919.73 "/>
    <polygon class="fil2" points="1779.92,823.14 1810.02,823.14 1832.25,793.03 1861.98,823.14 2418.5,823.14 2418.5,364.25 2389.43,364.25 2418.5,333.49 2418.5,297.11 2338.41,400.65 2338.41,429.72 2359.6,429.72 2359.6,400.65 2389.43,400.65 2389.43,429.72 2173.35,578.26 1996.37,578.26 1996.37,718.94 1913.28,793.03 1861.98,793.03 1832.25,755.99 1861.98,725.51 1832.25,725.51 "/>
    <polygon class="fil4" points="1899.03,823.14 2418.5,823.14 2418.5,1216.47 2188.54,1052.72 2017.47,1052.72 2017.47,919.73 "/>
    <polygon class="fil3" points="2768.22,659.67 2871.47,578.26 2937.96,578.26 2915.73,549.47 2961.42,489.64 2937.96,468.44 2871.47,489.64 2855.9,468.44 2841.28,541.88 2729.85,630.88 "/>
    <polygon class="fil3" points="2827.11,793.03 2931.32,705.06 2989.54,705.06 2975.94,682.55 3012.72,623 2989.54,593.85 2931.32,623 2908.51,593.85 2900.55,667.26 2782.75,755.99 "/>
    <polygon class="fil8" points="3051.06,823.14 3019.27,823.14 2998.17,793.03 2966.01,823.14 2418.5,823.14 2418.5,364.25 2441.67,364.25 2418.5,333.49 2418.5,297.11 2491.93,400.65 2491.93,429.72 2470.46,429.72 2470.46,400.65 2441.67,400.65 2441.67,429.72 2656.05,578.26 2834.7,578.26 2834.7,718.94 2915.73,793.03 2966.01,793.03 2998.17,755.99 2966.01,725.51 2998.17,725.51 "/>
    <polygon class="fil4" points="2931.32,823.14 2418.5,823.14 2418.5,429.72 2640.48,593.85 2812.85,593.85 2812.85,725.51 "/>
    <polygon class="fil3" points="2656.05,1052.72 2760.24,1135.44 2819.52,1135.44 2804.88,1164.61 2841.28,1222.84 2819.52,1252.94 2760.24,1222.84 2738.12,1252.94 2729.85,1178.48 2611.68,1089.48 "/>
    <polygon class="fil3" points="2768.22,985.29 2871.47,1075.88 2937.96,1075.88 2915.73,1098.77 2961.42,1156.65 2937.96,1186.08 2871.47,1156.65 2855.9,1186.08 2841.28,1112.93 2729.85,1023.65 "/>
    <polygon class="fil3" points="2827.11,859.52 2931.32,942.54 2989.54,942.54 2975.94,971.69 3012.72,1023.65 2989.54,1052.72 2931.32,1023.65 2908.51,1052.72 2900.55,979.29 2782.75,890.67 "/>
    <polygon class="fil2" points="3051.06,823.14 3019.27,823.14 2998.17,859.52 2966.01,823.14 2418.5,823.14 2418.5,1282.67 2441.67,1282.67 2418.5,1312.5 2418.5,1349.17 2491.93,1252.94 2491.93,1216.47 2470.46,1216.47 2470.46,1252.94 2441.67,1252.94 2441.67,1216.47 2656.05,1075.88 2834.7,1075.88 2834.7,934.92 2915.73,859.52 2966.01,859.52 2998.17,890.67 2966.01,919.73 2998.17,919.73 "/>
    <polygon class="fil3" points="2931.32,823.14 2418.5,823.14 2418.5,1216.47 2640.48,1052.72 2812.85,1052.72 2812.85,919.73 "/>
    <polygon class="fil3" points="1899.03,823.14 2418.5,823.14 2418.5,429.72 2188.54,593.85 2017.47,593.85 2017.47,725.51 "/>
    <polygon class="fil3" points="2470.46,823.14 2611.68,725.51 2701.72,725.51 2669.64,698.03 2729.85,630.88 2701.72,593.85 2611.68,630.88 2589.55,593.85 2575.02,682.55 2418.5,785.06 "/>
    <polygon class="fil3" points="2359.6,823.14 2218.64,919.73 2128.7,919.73 2158.81,958.09 2100.56,1023.65 2128.7,1052.72 2218.64,1023.65 2248.47,1052.72 2255.41,963.71 2418.5,859.52 "/>
    <polygon class="fil4" points="2359.6,823.14 2218.64,725.51 2128.7,725.51 2158.81,698.03 2100.56,630.88 2128.7,593.85 2218.64,630.88 2248.47,593.85 2255.41,682.55 2418.5,785.06 "/>
    <polygon class="fil4" points="2470.46,823.14 2611.68,919.73 2701.72,919.73 2669.64,958.09 2729.85,1023.65 2701.72,1052.72 2611.68,1023.65 2589.55,1052.72 2575.02,963.71 2418.5,859.52 "/>
    <polygon class="fil8" points="2248.47,823.14 2418.5,659.67 2589.55,823.14 2418.5,985.29 "/>
    <polygon class="fil3" points="1861.98,890.67 1885.52,919.73 1861.98,958.09 1832.25,958.09 1758.82,823.14 1779.92,823.14 1832.25,919.73 1861.98,919.73 1832.25,890.67 1861.98,859.52 1913.28,859.52 1913.28,890.67 "/>
    <polygon class="fil3" points="1861.98,755.99 1885.52,725.51 1861.98,698.03 1832.25,698.03 1758.82,823.14 1779.92,823.14 1832.25,725.51 1861.98,725.51 1832.25,755.99 1861.98,793.03 1913.28,793.03 1913.28,755.99 "/>
    <polygon class="fil3" points="2966.01,890.67 2944.9,919.73 2966.01,958.09 2998.17,958.09 3072.54,823.14 3051.06,823.14 2998.17,919.73 2966.01,919.73 2998.17,890.67 2966.01,859.52 2915.73,859.52 2915.73,890.67 "/>
    <polygon class="fil3" points="2966.01,755.99 2944.9,725.51 2966.01,698.03 2998.17,698.03 3072.54,823.14 3051.06,823.14 2998.17,725.51 2966.01,725.51 2998.17,755.99 2966.01,793.03 2915.73,793.03 2915.73,755.99 "/>
    <polygon class="fil3" points="2389.43,958.09 2441.57,958.09 2441.57,698.13 2389.43,698.13 "/>
    <polygon class="fil3" points="2308.31,890.67 2522.97,890.67 2522.97,755.99 2308.31,755.99 "/>
    <polygon class="fil4" points="2181.59,5949.91 1705.84,6223.86 1705.84,6691.74 2181.59,6965.96 2656.05,6965.96 3132.09,6691.74 3132.09,6223.86 2656.05,5949.91 "/>
    <polygon class="fil6" points="1878.59,6349.24 1907.38,6349.24 1907.38,6283.13 1966.55,6283.13 1966.55,6349.24 1996.37,6349.24 1996.37,6194.79 1966.55,6194.79 1966.55,6260.24 1907.38,6260.24 1907.38,6194.79 1878.59,6194.79 "/>
    <polygon class="fil6" points="2605.14,6875.38 2633.27,6875.38 2633.27,6809.54 2694.79,6809.54 2694.79,6875.38 2722.92,6875.38 2722.92,6720.81 2694.79,6720.81 2694.79,6787.04 2633.27,6787.04 2633.27,6720.81 2605.14,6720.81 "/>
    <polygon class="fil6" points="2834.7,6349.24 2864.8,6349.24 2864.8,6283.13 2922.68,6283.13 2922.68,6349.24 2952.5,6349.24 2952.5,6194.79 2922.68,6194.79 2922.68,6260.24 2864.8,6260.24 2864.8,6194.79 2834.7,6194.79 "/>
    <polygon class="fil6" points="2834.7,6616.62 2864.8,6616.62 2864.8,6549.76 2922.68,6549.76 2922.68,6616.62 2952.5,6616.62 2952.5,6453.15 2922.68,6453.15 2922.68,6528.56 2864.8,6528.56 2864.8,6453.15 2834.7,6453.15 "/>
    <polygon class="fil2" points="2418.5,6942.8 2418.5,6453.15 3102.36,6453.15 3102.36,6676.18 2649.11,6942.8 "/>
    <polygon class="fil2" points="2418.5,5973.08 2418.5,6453.15 1728.71,6453.15 1728.71,6238.77 2188.54,5973.08 "/>
    <polygon class="fil8" points="2418.5,5973.08 2418.5,6453.15 3102.36,6453.15 3102.36,6238.77 2649.11,5973.08 "/>
    <polygon class="fil8" points="2418.5,6942.8 2418.5,6453.15 1728.71,6453.15 1728.71,6676.18 2188.54,6942.8 "/>
    <path class="fil2" d="M3102.36 6238.77l0 214.39 -432.72 0 0 -170.03 -94.63 0 -112.16 -67.15 0 -154.55 67.8 -67.15 -89 0 0 221.7 -23.17 0 0 -242.89 230.62 0 453.25 265.69zm-319.61 21.47l273.28 0 -273.28 -132.61 0 132.61z"/>
    <polygon class="fil3" points="2188.54,6304.98 2188.54,6609.68 2255.41,6609.68 2418.5,6697.65 2575.02,6609.68 2649.11,6609.68 2649.11,6304.98 2575.02,6304.98 2418.5,6215.97 2255.41,6304.98 "/>
    <path class="fil2" d="M1728.71 6676.18l0 -223.03 437.69 0 0 179.02 89 0 111.13 65.46 0 156.15 -66.78 67.53 89.66 0 0 -223.68 29.07 0 0 245.15 -229.94 0 -459.82 -266.62 -0.01 0.01zm319.9 -22.51l-275.26 0 275.26 133.36 0 -133.36z"/>
    <path class="fil8" d="M1728.71 6238.77l0 214.39 437.69 0 0 -170.03 89 0 111.13 -67.15 0 -154.55 -66.78 -67.15 89.66 0 0 221.7 29.07 0 0 -242.89 -229.94 0 -459.82 265.69 -0.01 0zm319.9 21.47l-275.26 0 275.26 -132.61 0 132.61z"/>
    <path class="fil8" d="M3102.36 6676.18l0 -223.03 -432.72 0 0 179.02 -94.63 0 -112.16 65.46 0 156.15 67.8 67.53 -89 0 0 -223.68 -23.17 0 0 245.15 230.62 0 453.25 -266.62 0 0.01zm-319.61 -22.51l273.28 0 -273.28 133.36 0 -133.36z"/>
    <polygon class="fil3" points="1861.98,6632.19 1892.09,6632.19 1892.09,6565.04 1952.02,6565.04 1952.02,6632.19 1981.09,6632.19 1981.09,6476.32 1952.02,6476.32 1952.02,6542.16 1892.09,6542.16 1892.09,6476.32 1861.98,6476.32 "/>
    <polygon class="fil3" points="2135.65,6853.8 2166.41,6853.8 2166.41,6787.04 2226.24,6787.04 2226.24,6853.8 2255.41,6853.8 2255.41,6697.65 2226.24,6697.65 2226.24,6764.14 2166.41,6764.14 2166.41,6697.65 2135.65,6697.65 "/>
    <polygon class="fil3" points="1861.98,6283.13 1892.09,6283.13 1892.09,6349.24 1952.02,6349.24 1952.02,6283.13 1981.09,6283.13 1981.09,6437.59 1952.02,6437.59 1952.02,6372.12 1892.09,6372.12 1892.09,6437.59 1861.98,6437.59 "/>
    <polygon class="fil3" points="2135.65,6061.43 2166.41,6061.43 2166.41,6127.64 2226.24,6127.64 2226.24,6061.43 2255.41,6061.43 2255.41,6215.97 2226.24,6215.97 2226.24,6150.14 2166.41,6150.14 2166.41,6215.97 2135.65,6215.97 "/>
    <polygon class="fil3" points="2849.25,6437.59 2878.41,6437.59 2878.41,6372.12 2937.96,6372.12 2937.96,6437.59 2966.01,6437.59 2966.01,6283.13 2937.96,6283.13 2937.96,6349.24 2878.41,6349.24 2878.41,6283.13 2849.25,6283.13 "/>
    <polygon class="fil3" points="2575.02,6853.8 2605.14,6853.8 2605.14,6787.04 2664.68,6787.04 2664.68,6853.8 2694.79,6853.8 2694.79,6697.65 2664.68,6697.65 2664.68,6764.14 2605.14,6764.14 2605.14,6697.65 2575.02,6697.65 "/>
    <polygon class="fil3" points="2849.25,6632.19 2878.41,6632.19 2878.41,6565.04 2937.96,6565.04 2937.96,6632.19 2966.01,6632.19 2966.01,6476.32 2937.96,6476.32 2937.96,6542.16 2878.41,6542.16 2878.41,6476.32 2849.25,6476.32 "/>
    <polygon class="fil3" points="2575.02,6215.97 2605.14,6215.97 2605.14,6150.14 2664.68,6150.14 2664.68,6215.97 2694.79,6215.97 2694.79,6061.43 2664.68,6061.43 2664.68,6127.64 2605.14,6127.64 2605.14,6061.43 2575.02,6061.43 "/>
    <polygon class="fil4" points="2441.67,6453.15 2530.67,6379.73 2575.02,6379.73 2575.02,6416.49 2530.67,6416.49 2530.67,6437.59 2596.13,6437.59 2596.13,6356.57 2530.67,6356.57 2530.67,6297 2441.67,6297 2441.67,6356.57 2462.86,6356.57 2462.86,6311.92 2508.52,6311.92 2508.52,6356.57 2418.5,6437.59 2322.83,6356.57 2322.83,6311.92 2366.53,6311.92 2366.53,6356.57 2389.43,6356.57 2389.43,6297 2299.77,6297 2299.77,6356.57 2234.88,6356.57 2234.88,6437.59 2299.77,6437.59 2299.77,6416.49 2255.41,6416.49 2255.41,6379.73 2299.77,6379.73 2389.43,6453.15 2299.77,6535.59 2255.41,6535.59 2255.41,6497.52 2299.77,6497.52 2299.77,6476.32 2234.88,6476.32 2234.88,6557.73 2299.77,6557.73 2299.77,6616.62 2389.43,6616.62 2389.43,6557.73 2366.53,6557.73 2366.53,6602.76 2322.83,6602.76 2322.83,6557.73 2418.5,6476.32 2508.52,6557.73 2508.52,6602.76 2462.86,6602.76 2462.86,6557.73 2441.67,6557.73 2441.67,6616.62 2530.67,6616.62 2530.67,6557.73 2596.13,6557.73 2596.13,6476.32 2530.67,6476.32 2530.67,6497.52 2575.02,6497.52 2575.02,6535.59 2530.67,6535.59 "/>
    <polygon class="fil3" points="1773.36,2355.94 1818.66,2298.07 2085.37,2298.07 2286.18,2045.61 2551.49,2045.61 2752.65,2298.07 3012.72,2298.07 3056.03,2355.94 3012.72,2415.49 2752.65,2415.49 2551.49,2675.93 2286.18,2675.93 2085.37,2415.49 1818.66,2415.49 "/>
    <polygon class="fil3" points="1795.49,2290.1 1818.66,2267.59 2091.94,2267.59 2299.77,2024.42 2530.67,2024.42 2738.12,2267.59 3012.72,2267.59 3035.5,2290.1 3012.72,2311.95 2738.12,2311.95 2551.49,2527.65 2278.2,2527.65 2091.94,2311.95 1818.66,2311.95 "/>
    <path class="fil2" d="M2418.5 2178.97l-88.62 103.54 88.62 104.19 90.03 -104.19 -90.03 -103.54zm112.17 132.98l89 95.94 -44.64 52.24 -23.53 -21.47 -20.82 0 0 21.47 20.82 31.14 44.64 0 44.36 -52.61 0 -51.96 -89 -104.19 89 -103.54 0 -44.64 -44.36 -51.95 -44.64 0 -20.82 23.45 0 28.51 20.82 0 23.53 -28.51 44.64 51.58 -89 102.32 -89 -102.32 89 -104.19 0 -22.79 -22.13 0 -90.03 103.91 -88.62 -103.91 -21.56 0 0 22.79 88.06 104.19 -88.06 102.32 -89.66 -102.32 44.36 -51.58 23.17 28.51 22.13 0 0 -28.51 -22.13 -23.45 -46.33 0 -44.64 51.95 0 44.64 90.97 103.54 -90.97 104.19 0 51.96 44.64 52.61 46.33 0 22.13 -31.14 0 -21.47 -22.13 0 -23.17 21.47 -44.36 -52.24 89.66 -95.94 88.06 95.94 -88.06 104.2 0 29.17 21.56 0 88.62 -102.6 90.03 102.6 22.13 0 0 -29.17 -89 -104.2 89 -95.94z"/>
    <polygon class="fil2" points="2286.18,2564.42 2286.18,2763.53 2308.31,2741.38 2329.87,2763.53 2352.93,2741.38 2374.79,2763.53 2396.36,2741.38 2418.5,2763.53 2441.67,2741.38 2462.86,2763.53 2484.99,2741.38 2508.52,2763.53 2530.67,2741.38 2551.49,2763.53 2551.49,2564.42 "/>
    <polygon class="fil2" points="2551.49,2001.25 2551.49,1801.11 2530.67,1823.62 2508.52,1801.11 2484.99,1823.62 2462.86,1801.11 2441.67,1823.62 2418.5,1801.11 2396.36,1823.62 2374.79,1801.11 2352.93,1823.62 2329.87,1801.11 2308.31,1823.62 2286.18,1801.11 2286.18,2001.25 "/>
    <polygon class="fil2" points="2922.68,2230.91 2922.68,2030.41 2900.55,2053.21 2878.41,2030.41 2855.9,2053.21 2834.7,2030.41 2819.52,2053.21 2797.3,2030.41 2775.81,2053.21 2752.65,2030.41 2752.65,2230.91 "/>
    <polygon class="fil2" points="2085.37,2230.91 2085.37,2030.41 2062.21,2053.21 2039.99,2030.41 2017.47,2053.21 1996.37,2030.41 1974.14,2053.21 1952.02,2030.41 1929.79,2053.21 1907.38,2030.41 1907.38,2230.91 "/>
    <polygon class="fil2" points="2922.68,2334.46 2922.68,2541.26 2900.55,2512.09 2878.41,2541.26 2855.9,2512.09 2834.7,2541.26 2819.52,2512.09 2797.3,2541.26 2775.81,2512.09 2752.65,2541.26 2752.65,2334.46 "/>
    <polygon class="fil2" points="2085.37,2334.46 2085.37,2541.26 2062.21,2512.09 2039.99,2541.26 2017.47,2512.09 1996.37,2541.26 1974.14,2512.09 1952.02,2541.26 1929.79,2512.09 1907.38,2541.26 1907.38,2334.46 "/>
    <polygon class="fil4" points="2551.49,2564.42 2551.49,2689.8 2575.02,2668.24 2596.13,2689.8 2619.65,2668.24 2640.48,2689.8 2664.68,2668.24 2686.17,2689.8 2708.29,2668.24 2729.85,2689.8 2752.65,2668.24 2752.65,2334.46 "/>
    <polygon class="fil4" points="2286.18,2564.42 2286.18,2689.8 2263,2668.24 2239.84,2689.8 2218.64,2668.24 2195.2,2689.8 2173.35,2668.24 2151.86,2689.8 2128.7,2668.24 2108.44,2689.8 2085.37,2668.24 2085.37,2334.46 "/>
    <polygon class="fil4" points="2286.18,2001.25 2286.18,1875.57 2263,1904.65 2239.84,1875.57 2218.64,1904.65 2195.2,1875.57 2173.35,1904.65 2151.86,1875.57 2128.7,1904.65 2108.44,1875.57 2085.37,1904.65 2085.37,2230.91 "/>
    <polygon class="fil4" points="2551.49,2001.25 2551.49,1875.57 2575.02,1904.65 2596.13,1875.57 2619.65,1904.65 2640.48,1875.57 2664.68,1904.65 2686.17,1875.57 2708.29,1904.65 2729.85,1875.57 2752.65,1904.65 2752.65,2230.91 "/>
    <polygon class="fil4" points="1907.38,2491.27 1885.52,2460.13 1861.98,2491.27 1840.79,2460.13 1818.66,2491.27 1795.49,2460.13 1773.36,2491.27 1751.87,2460.13 1728.71,2491.27 1728.71,2082.37 1751.87,2105.82 1773.36,2082.37 1795.49,2105.82 1818.66,2082.37 1840.79,2105.82 1861.98,2082.37 1885.52,2105.82 1907.38,2082.37 1907.38,2230.91 1818.66,2230.91 1773.36,2282.51 1818.66,2334.46 1907.38,2334.46 "/>
    <polygon class="fil4" points="2922.68,2491.27 2944.9,2460.13 2966.01,2491.27 2989.54,2460.13 3012.72,2491.27 3035.5,2460.13 3056.03,2491.27 3079.2,2460.13 3102.36,2491.27 3102.36,2082.37 3079.2,2105.82 3056.03,2082.37 3035.5,2105.82 3012.72,2082.37 2989.54,2105.82 2966.01,2082.37 2944.9,2105.82 2922.68,2082.37 2922.68,2230.91 3012.72,2230.91 3056.03,2282.51 3012.72,2334.46 2922.68,2334.46 "/>
    <path class="fil8" d="M2173.35 2579.89c0,0 -21.47,21.2 -21.47,28.79 0,7.69 21.47,29.17 29.73,29.17 13.6,0 28.14,-15.56 28.14,-29.17 0,-7.59 -21.2,-28.79 -21.2,-28.79l0 -38.64c0,0 46.33,67.43 46.33,38.64 0,-23.07 -46.33,-60.21 -46.33,-60.21l-15.2 0c0,0 -44.63,44.73 -44.63,60.21 0,28.79 44.63,-38.64 44.63,-38.64l0 38.64z"/>
    <path class="fil3" d="M2404.89 2659.05c0,0 -23.17,23.45 -23.17,38.36 0,15.56 23.17,43.98 36.76,43.98 7.98,0 30.11,-28.42 30.11,-43.98 0,-14.91 -22.13,-38.36 -22.13,-38.36l0 -57.96c0,0 36.39,88.71 36.39,52.33 0,-31.13 -36.39,-81.12 -36.39,-81.12l-21.57 0c0,0 -45.3,65.55 -38.36,81.12 0,36.39 38.36,-52.33 38.36,-52.33l0 57.96z"/>
    <path class="fil4" d="M2218.64 2282.51c0,15.56 -23.45,29.44 -45.3,29.44 -28.13,0 -44.63,-13.88 -44.63,-29.44 0,-14.91 16.5,-22.79 44.63,-22.79 21.86,0 45.3,7.88 45.3,22.79l0 0z"/>
    <path class="fil4" d="M2462.86 2282.51c0,15.56 -21.2,29.44 -44.37,29.44 -29.07,0 -43.7,-13.88 -43.7,-29.44 0,-14.91 14.63,-22.79 43.7,-22.79 23.17,0 44.37,7.88 44.37,22.79l0 0z"/>
    <path class="fil4" d="M2708.29 2282.51c0,15.56 -22.12,29.44 -43.61,29.44 -31.42,0 -45.02,-13.88 -45.02,-29.44 0,-14.91 13.6,-22.79 45.02,-22.79 21.48,0 43.61,7.88 43.61,22.79l0 0z"/>
    <path class="fil8" d="M2166.41 1993.65c0,0 -14.54,-23.45 -14.54,-37.05 0,-7.59 14.54,-28.79 21.47,-28.79 15.2,0 29.73,21.2 29.73,28.79 0,13.6 -14.53,37.05 -14.53,37.05l0 36.76c0,0 37.7,-65.83 37.7,-36.76 0,23.17 -37.7,59.56 -37.7,59.56l-22.13 0c0,0 -37.7,-43.99 -37.7,-59.56 0,-29.07 37.7,36.76 37.7,36.76l0 -36.76z"/>
    <path class="fil3" d="M2396.36 1910.94c0,0 -21.57,-27.48 -21.57,-42.96 0,-7.97 30.1,-38.07 37.04,-38.07 14.64,0 29.83,22.78 29.83,38.07 0,15.48 -23.17,42.96 -23.17,42.96l0 59.27c0,0 44.37,-94.63 44.37,-51.68 0,30.48 -44.37,75.12 -44.37,75.12l-22.12 0c0,0 -43.43,-59.83 -36.77,-75.12 0,-42.96 36.77,51.68 36.77,51.68l0 -59.27z"/>
    <path class="fil8" d="M2649.11 2579.89c0,0 -22.88,21.2 -22.88,28.79 0,7.69 22.88,29.17 29.82,29.17 8.63,0 30.11,-15.56 30.11,-29.17 0,-7.59 -21.48,-28.79 -21.48,-28.79l0 -38.64c0,0 43.61,67.43 43.61,38.64 0,-23.07 -43.61,-60.21 -43.61,-60.21l-15.56 0c0,0 -43.98,44.73 -43.98,60.21 0,28.79 43.98,-38.64 43.98,-38.64l0 38.64z"/>
    <path class="fil8" d="M2640.48 1993.65c0,0 -14.25,-23.45 -14.25,-37.05 -6.57,-7.59 14.25,-28.79 22.88,-28.79 15.56,0 30.1,21.2 30.1,28.79 0,13.6 -14.54,37.05 -14.54,37.05l0 36.76c0,0 37.05,-65.83 37.05,-36.76 0,23.17 -37.05,59.56 -37.05,59.56l-24.2 0c0,0 -35.35,-43.99 -35.35,-59.56 0,-29.07 35.35,36.76 35.35,36.76l0 -36.76z"/>
    <path class="fil3" d="M1981.09 2438.66c0,0 -29.08,21.47 -29.08,29.17 0,7.88 29.08,29.07 36.67,29.07 14.25,0 36.76,-21.19 36.76,-29.07 0,-7.69 -22.51,-29.17 -22.51,-29.17l0 -36.67c0,0 45.68,58.15 45.68,29.08 0,-15.57 -45.68,-51.96 -45.68,-51.96l-21.85 0c0,0 -51.3,43.04 -44.64,51.96 0,29.07 44.64,-29.08 44.64,-29.08l0 36.67z"/>
    <path class="fil3" d="M1974.14 2149.52c0,0 -22.13,-15.19 -22.13,-30.1 0,-7.97 22.13,-29.17 36.67,-29.17 14.25,0 36.76,21.2 36.76,29.17 0,14.91 -29.07,30.1 -29.07,30.1l0 36.67c0,0 43.61,-59.56 43.61,-28.79 0,13.98 -43.61,50.64 -43.61,50.64l-22.23 0c0,0 -52.24,-42.95 -44.36,-50.64 0,-30.76 44.36,28.79 44.36,28.79l0 -36.67z"/>
    <path class="fil3" d="M2834.7 2431.06c0,0 -21.85,21.2 -21.85,29.07 -7.97,7.69 21.85,31.14 36.39,31.14 6.66,0 36.76,-23.45 36.76,-31.14 0,-7.87 -30.1,-29.07 -30.1,-29.07l0 -36.39c0,0 44.64,57.58 44.64,36.39 0,-23.17 -44.64,-51.96 -44.64,-51.96l-21.2 0c0,0 -51.95,36.39 -44.36,51.96 0,21.2 44.36,-36.39 44.36,-36.39l0 36.39z"/>
    <path class="fil3" d="M2827.11 2142.21c0,0 -22.22,-15.57 -22.22,-30.76 0,-5.62 22.22,-21.2 36.39,-21.2 14.63,0 37.14,15.57 37.14,21.2 0,15.19 -29.17,30.76 -29.17,30.76l0 36.76c0,0 43.71,-59.56 43.71,-29.45 0,15.57 -43.71,52.24 -43.71,52.24l-22.13 0c0,0 -51.3,-44.36 -44.36,-52.24 0,-30.1 44.36,29.45 44.36,29.45l0 -36.76z"/>
    <path class="fil8" d="M1795.49 2438.66c-6.56,-23.17 0,-30.76 0,-36.67 -6.56,-7.31 23.17,-30.85 29.83,-30.85 6.94,0 23.16,23.54 23.16,30.85l0 36.67 -16.22 -30.76c-13.6,44.37 -13.6,44.37 -22.23,0l-14.54 30.76z"/>
    <path class="fil8" d="M1795.49 2142.21c-6.56,15.19 0,29.17 0,36.76 0,7.22 23.17,29.07 29.83,29.07 6.94,0 23.16,-21.85 23.16,-36.66l0 -29.17 -16.22 29.17c-13.6,-44.74 -13.6,-44.74 -22.23,0l-14.54 -29.17z"/>
    <path class="fil8" d="M2998.17 2431.06c-8.63,-15.57 -8.63,-23.17 -8.63,-36.39 0,-7.98 23.17,-23.54 29.73,-23.54 16.23,0 31.79,15.56 31.79,30.85 0,5.91 0,13.5 -8.62,36.67l-6.94 -30.76c-16.23,36.76 -16.23,36.76 -22.78,-5.91l-14.54 29.08z"/>
    <path class="fil8" d="M2998.17 2142.21c-8.63,15.19 -8.63,22.88 -8.63,29.17 0,14.82 23.17,30.38 29.73,30.38 16.23,0 31.79,-22.78 31.79,-30.38l0 -37.05 -15.56 30.76c-16.23,-45.68 -16.23,-45.68 -22.78,0l-14.54 -22.88z"/>
    <path class="fil3" d="M2255.41 2793.99l0 -67.53 -206.79 0 0 -146.58 -186.63 0 0 -52.24 -156.15 0 0 -482.04 156.15 0 0 -44.37 186.63 0 0 -148.56 206.79 0 0 -73.71 319.61 0 0 73.71 207.74 0 0 148.56 183.26 0 0 44.37 166.08 0 0 482.04 -166.08 0 0 52.24 -183.26 0 0 146.58 -207.74 0 0 67.53 -319.61 0zm22.78 -23.17l0 -73.42 -208.39 0 0 -140.59 -184.28 0 0 -51.95 -156.8 0 0 -438.07 156.8 0 0 -42.38 184.28 0 0 -148.84 208.39 0 0 -67.52 273.29 0 0 67.52 208.76 0 0 148.84 184.66 0 0 42.38 157.46 0 0 438.07 -157.46 0 0 51.95 -184.66 0 0 140.59 -208.76 0 0 73.42 -273.29 0z"/>
    <path class="fil8" d="M6292.7 1719.71c0,-525.66 -430.75,-956.12 -958.1,-956.12 -525.37,0 -948.52,430.47 -948.52,956.12 0,533.72 423.15,956.21 948.52,956.21 527.35,0 958.1,-422.5 958.1,-956.21l0 0z"/>
    <path class="fil4" d="M6033.01 1571.53c0,-518.81 -423.15,-940.65 -943.94,-940.65 -517.41,0 -940.55,421.85 -940.55,940.65 0,526.31 423.15,948.16 940.55,948.16 520.79,0 943.94,-421.84 943.94,-948.16l0 0z"/>
    <polygon class="fil10" points="5461.96,1186.08 5326.63,1186.08 5290.25,1319.06 5246.54,1186.08 5112.62,1186.08 5215.78,1105.05 5172.18,979.29 5284.34,1052.72 5394.44,979.29 5357.77,1105.05 "/>
    <polygon class="fil10" points="4977.94,942.54 4845.9,950.21 4809.23,1075.88 4764.5,950.21 4631.5,942.54 4734.77,859.52 4689.09,734.51 4801.26,807.94 4904.8,734.51 4874.7,859.52 "/>
    <polygon class="fil10" points="4977.94,1430.58 4845.9,1430.58 4809.23,1555.96 4764.5,1430.58 4631.5,1430.58 4734.77,1349.17 4689.09,1216.47 4801.26,1296.94 4904.8,1216.47 4874.7,1349.17 "/>
    <polygon class="fil10" points="4977.94,1918.53 4845.9,1918.53 4809.23,2045.61 4764.5,1918.53 4631.5,1918.53 4734.77,1837.5 4689.09,1704.8 4801.26,1786.86 4904.8,1704.8 4874.7,1837.5 "/>
    <polygon class="fil10" points="4495.9,1667.75 4362.92,1667.75 4326.15,1801.11 4281.8,1667.75 4148.53,1667.75 4251.69,1586.73 4208.08,1459.37 4319.21,1534.77 4429.41,1459.37 4393.01,1586.73 "/>
    <polygon class="fil3" points="2575.02,6853.8 2605.14,6853.8 2605.14,6787.04 2664.68,6787.04 2664.68,6853.8 2694.79,6853.8 2694.79,6697.65 2664.68,6697.65 2664.68,6764.14 2605.14,6764.14 2605.14,6697.65 2575.02,6697.65 "/>
   </g>
  </g>
 </g>
</svg>
