<?xml version="1.0" encoding="UTF-8"?>
<!DOCTYPE svg PUBLIC "-//W3C//DTD SVG 1.1//EN" "http://www.w3.org/Graphics/SVG/1.1/DTD/svg11.dtd">
<!-- Creator: CorelDRAW 2020 (64-Bit) -->
<svg xmlns="http://www.w3.org/2000/svg" xml:space="preserve" width="133.263mm" height="77.738mm" version="1.1" style="shape-rendering:geometricPrecision; text-rendering:geometricPrecision; image-rendering:optimizeQuality; fill-rule:evenodd; clip-rule:evenodd"
viewBox="0 0 13144.55 7667.77"
 xmlns:xlink="http://www.w3.org/1999/xlink"
 xmlns:xodm="http://www.corel.com/coreldraw/odm/2003">
 <defs>
  <style type="text/css">
   <![CDATA[
    .fil2 {fill:#373B61;fill-rule:nonzero}
    .fil0 {fill:#C92629;fill-rule:nonzero}
    .fil1 {fill:#FEFEFE;fill-rule:nonzero}
   ]]>
  </style>
 </defs>
 <g id="Layer_x0020_1">
  <metadata id="CorelCorpID_0Corel-Layer"/>
  <g id="_1909820098000">
   <g id="_2263523857776">
    <polygon class="fil0" points="-0,7667.77 13144.55,7667.77 13144.55,7078.15 -0,7078.15 "/>
    <polygon class="fil1" points="-0,7078.15 13144.55,7078.15 13144.55,6488.63 -0,6488.63 "/>
    <polygon class="fil0" points="-0,6488.63 13144.55,6488.63 13144.55,5899.39 -0,5899.39 "/>
    <polygon class="fil1" points="-0,5899.39 13144.55,5899.39 13144.55,5309.11 -0,5309.11 "/>
    <polygon class="fil0" points="-0,5309.11 13144.55,5309.11 13144.55,4718.93 -0,4718.93 "/>
    <polygon class="fil1" points="-0,4718.93 13144.55,4718.93 13144.55,4129.96 -0,4129.96 "/>
    <polygon class="fil0" points="-0,4129.96 13144.55,4129.96 13144.55,3539.12 -0,3539.12 "/>
    <polygon class="fil1" points="-0,3539.12 13144.55,3539.12 13144.55,2949.51 -0,2949.51 "/>
    <polygon class="fil0" points="-0,2949.51 13144.55,2949.51 13144.55,2360.35 -0,2360.35 "/>
    <polygon class="fil1" points="-0,2360.26 13144.55,2360.26 13144.55,1770.07 -0,1770.07 "/>
    <polygon class="fil0" points="-0,1770.07 13144.55,1770.07 13144.55,1180.08 -0,1180.08 "/>
    <polygon class="fil1" points="-0,1180.18 13144.55,1180.18 13144.55,590.28 -0,590.28 "/>
    <polygon class="fil0" points="-0,590.28 13144.55,590.28 13144.55,0 -0,0 "/>
    <polygon class="fil2" points="-0,4129.96 6002.83,4129.96 6002.83,0 -0,0 "/>
    <polygon class="fil1" points="541.6,455.6 593.18,612.13 757.3,612.13 624.59,708.07 675.24,864.22 541.6,767.63 408.61,864.22 460.57,708.07 327.58,612.13 490.68,612.13 "/>
    <polygon class="fil1" points="541.6,1145.11 593.18,1300.6 757.3,1300.6 624.59,1396.16 675.24,1553.34 541.6,1456.75 408.61,1553.34 460.57,1396.16 327.58,1300.6 490.68,1300.6 "/>
    <polygon class="fil1" points="541.6,1833.94 593.18,1989.72 757.3,1989.72 624.59,2086.04 675.24,2242.47 541.6,2145.87 408.61,2242.47 460.57,2086.04 327.58,1989.72 490.68,1989.72 "/>
    <polygon class="fil1" points="541.6,2523.07 593.18,2678.94 757.3,2678.94 624.59,2775.53 675.24,2931.31 541.6,2835.75 408.61,2931.31 460.57,2775.53 327.58,2678.94 490.68,2678.94 "/>
    <polygon class="fil1" points="541.6,3212.19 593.18,3368.72 757.3,3368.72 624.59,3464.29 675.24,3620.81 541.6,3524.21 408.61,3620.81 460.57,3464.29 327.58,3368.72 490.68,3368.72 "/>
    <polygon class="fil1" points="1021.96,818.17 1070.91,974.69 1236.35,974.69 1104.02,1071.67 1154.01,1227.45 1021.96,1131.22 889.35,1227.45 939.9,1071.67 807.29,974.69 971.69,974.69 "/>
    <polygon class="fil1" points="1021.96,1508.05 1070.91,1663.82 1236.35,1663.82 1104.02,1760.42 1154.01,1915.91 1021.96,1820.35 889.35,1915.91 939.9,1760.42 807.29,1663.82 971.69,1663.82 "/>
    <polygon class="fil1" points="1021.96,2197.17 1070.91,2353.04 1236.35,2353.04 1104.02,2449.26 1154.01,2605.79 1021.96,2509.19 889.35,2605.79 939.9,2449.26 807.29,2353.04 971.69,2353.04 "/>
    <polygon class="fil1" points="1021.96,2886.67 1070.91,3042.16 1236.35,3042.16 1104.02,3138.76 1154.01,3294.26 1021.96,3197.66 889.35,3294.26 939.9,3138.76 807.29,3042.16 971.69,3042.16 "/>
    <polygon class="fil1" points="1506.73,455.6 1558.96,612.13 1723.09,612.13 1589.73,708.07 1641.03,864.22 1506.73,767.63 1375.34,864.22 1425.61,708.07 1293.28,612.13 1456.37,612.13 "/>
    <polygon class="fil1" points="1506.73,1145.11 1558.96,1300.6 1723.09,1300.6 1589.73,1396.16 1641.03,1553.34 1506.73,1456.75 1375.34,1553.34 1425.61,1396.16 1293.28,1300.6 1456.37,1300.6 "/>
    <polygon class="fil1" points="1506.73,1833.94 1558.96,1989.72 1723.09,1989.72 1589.73,2086.04 1641.03,2242.47 1506.73,2145.87 1375.34,2242.47 1425.61,2086.04 1293.28,1989.72 1456.37,1989.72 "/>
    <polygon class="fil1" points="1506.73,2523.07 1558.96,2678.94 1723.09,2678.94 1589.73,2775.53 1641.03,2931.31 1506.73,2835.75 1375.34,2931.31 1425.61,2775.53 1293.28,2678.94 1456.37,2678.94 "/>
    <polygon class="fil1" points="1506.73,3212.19 1558.96,3368.72 1723.09,3368.72 1589.73,3464.29 1641.03,3620.81 1506.73,3524.21 1375.34,3620.81 1425.61,3464.29 1293.28,3368.72 1456.37,3368.72 "/>
    <polygon class="fil1" points="1987.74,818.17 2038.02,974.69 2203.08,974.69 2070.09,1071.67 2121.11,1227.45 1987.74,1131.22 1855.41,1227.45 1906.34,1071.67 1772.32,974.69 1937.48,974.69 "/>
    <polygon class="fil1" points="1987.74,1508.05 2038.02,1663.82 2203.08,1663.82 2070.09,1760.42 2121.11,1915.91 1987.74,1820.35 1855.41,1915.91 1906.34,1760.42 1772.32,1663.82 1937.48,1663.82 "/>
    <polygon class="fil1" points="1987.74,2197.17 2038.02,2353.04 2203.08,2353.04 2070.09,2449.26 2121.11,2605.79 1987.74,2509.19 1855.41,2605.79 1906.34,2449.26 1772.32,2353.04 1937.48,2353.04 "/>
    <polygon class="fil1" points="1987.74,2886.67 2038.02,3042.16 2203.08,3042.16 2070.09,3138.76 2121.11,3294.26 1987.74,3197.66 1855.41,3294.26 1906.34,3138.76 1772.32,3042.16 1937.48,3042.16 "/>
    <polygon class="fil1" points="2473.46,455.6 2525.7,612.13 2688.13,612.13 2554.5,708.07 2608.04,864.22 2473.46,767.63 2341.4,864.22 2391.4,708.07 2260.37,612.13 2423.47,612.13 "/>
    <polygon class="fil1" points="2473.46,1145.11 2525.7,1300.6 2688.13,1300.6 2554.5,1396.16 2608.04,1553.34 2473.46,1456.75 2341.4,1553.34 2391.4,1396.16 2260.37,1300.6 2423.47,1300.6 "/>
    <polygon class="fil1" points="2473.46,1833.94 2525.7,1989.72 2688.13,1989.72 2554.5,2086.04 2608.04,2242.47 2473.46,2145.87 2341.4,2242.47 2391.4,2086.04 2260.37,1989.72 2423.47,1989.72 "/>
    <polygon class="fil1" points="2473.46,2523.07 2525.7,2678.94 2688.13,2678.94 2554.5,2775.53 2608.04,2931.31 2473.46,2835.75 2341.4,2931.31 2391.4,2775.53 2260.37,2678.94 2423.47,2678.94 "/>
    <polygon class="fil1" points="2473.46,3212.19 2525.7,3368.72 2688.13,3368.72 2554.5,3464.29 2608.04,3620.81 2473.46,3524.21 2341.4,3620.81 2391.4,3464.29 2260.37,3368.72 2423.47,3368.72 "/>
    <polygon class="fil1" points="2954.48,818.17 3004.74,974.69 3169.24,974.69 3036.53,1071.67 3086.15,1227.45 2954.48,1131.22 2822.15,1227.45 2871.47,1071.67 2739.05,974.69 2903.55,974.69 "/>
    <polygon class="fil1" points="2954.48,1508.05 3004.74,1663.82 3169.24,1663.82 3036.53,1760.42 3086.15,1915.91 2954.48,1820.35 2822.15,1915.91 2871.47,1760.42 2739.05,1663.82 2903.55,1663.82 "/>
    <polygon class="fil1" points="2954.48,2197.17 3004.74,2353.04 3169.24,2353.04 3036.53,2449.26 3086.15,2605.79 2954.48,2509.19 2822.15,2605.79 2871.47,2449.26 2739.05,2353.04 2903.55,2353.04 "/>
    <polygon class="fil1" points="2954.48,2886.67 3004.74,3042.16 3169.24,3042.16 3036.53,3138.76 3086.15,3294.26 2954.48,3197.66 2822.15,3294.26 2871.47,3138.76 2739.05,3042.16 2903.55,3042.16 "/>
    <polygon class="fil1" points="3439.53,455.6 3490.46,612.13 3653.93,612.13 3521.6,708.07 3573.54,864.22 3439.53,767.63 3308.13,864.22 3357.46,708.07 3225.13,612.13 3389.26,612.13 "/>
    <polygon class="fil1" points="3439.53,1145.11 3490.46,1300.6 3653.93,1300.6 3521.6,1396.16 3573.54,1553.34 3439.53,1456.75 3308.13,1553.34 3357.46,1396.16 3225.13,1300.6 3389.26,1300.6 "/>
    <polygon class="fil1" points="3439.53,1833.94 3490.46,1989.72 3653.93,1989.72 3521.6,2086.04 3573.54,2242.47 3439.53,2145.87 3308.13,2242.47 3357.46,2086.04 3225.13,1989.72 3389.26,1989.72 "/>
    <polygon class="fil1" points="3439.53,2523.07 3490.46,2678.94 3653.93,2678.94 3521.6,2775.53 3573.54,2931.31 3439.53,2835.75 3308.13,2931.31 3357.46,2775.53 3225.13,2678.94 3389.26,2678.94 "/>
    <polygon class="fil1" points="3439.53,3212.19 3490.46,3368.72 3653.93,3368.72 3521.6,3464.29 3573.54,3620.81 3439.53,3524.21 3308.13,3620.81 3357.46,3464.29 3225.13,3368.72 3389.26,3368.72 "/>
    <polygon class="fil1" points="3919.6,818.17 3970.8,974.69 4135.96,974.69 4002.6,1071.67 4052.87,1227.45 3919.6,1131.22 3787.18,1227.45 3838.2,1071.67 3706.15,974.69 3870.27,974.69 "/>
    <polygon class="fil1" points="3919.6,1508.05 3970.8,1663.82 4135.96,1663.82 4002.6,1760.42 4052.87,1915.91 3919.6,1820.35 3787.18,1915.91 3838.2,1760.42 3706.15,1663.82 3870.27,1663.82 "/>
    <polygon class="fil1" points="3919.6,2197.17 3970.8,2353.04 4135.96,2353.04 4002.6,2449.26 4052.87,2605.79 3919.6,2509.19 3787.18,2605.79 3838.2,2449.26 3706.15,2353.04 3870.27,2353.04 "/>
    <polygon class="fil1" points="3919.6,2886.67 3970.8,3042.16 4135.96,3042.16 4002.6,3138.76 4052.87,3294.26 3919.6,3197.66 3787.18,3294.26 3838.2,3138.76 3706.15,3042.16 3870.27,3042.16 "/>
    <polygon class="fil1" points="4406.24,455.6 4457.55,612.13 4620.92,612.13 4488.32,708.07 4538.57,864.22 4406.24,767.63 4275.24,864.22 4324.19,708.07 4192.14,612.13 4356.27,612.13 "/>
    <polygon class="fil1" points="4406.24,1145.11 4457.55,1300.6 4620.92,1300.6 4488.32,1396.16 4538.57,1553.34 4406.24,1456.75 4275.24,1553.34 4324.19,1396.16 4192.14,1300.6 4356.27,1300.6 "/>
    <polygon class="fil1" points="4406.24,1833.94 4457.55,1989.72 4620.92,1989.72 4488.32,2086.04 4538.57,2242.47 4406.24,2145.87 4275.24,2242.47 4324.19,2086.04 4192.14,1989.72 4356.27,1989.72 "/>
    <polygon class="fil1" points="4406.24,2523.07 4457.55,2678.94 4620.92,2678.94 4488.32,2775.53 4538.57,2931.31 4406.24,2835.75 4275.24,2931.31 4324.19,2775.53 4192.14,2678.94 4356.27,2678.94 "/>
    <polygon class="fil1" points="4406.24,3212.19 4457.55,3368.72 4620.92,3368.72 4488.32,3464.29 4538.57,3620.81 4406.24,3524.21 4275.24,3620.81 4324.19,3464.29 4192.14,3368.72 4356.27,3368.72 "/>
    <polygon class="fil1" points="4886.33,818.17 4936.98,974.69 5101,974.69 4969.33,1071.67 5018.94,1227.45 4886.33,1131.22 4753.35,1227.45 4804.28,1071.67 4672.88,974.69 4835.32,974.69 "/>
    <polygon class="fil1" points="4886.33,1508.05 4936.98,1663.82 5101,1663.82 4969.33,1760.42 5018.94,1915.91 4886.33,1820.35 4753.35,1915.91 4804.28,1760.42 4672.88,1663.82 4835.32,1663.82 "/>
    <polygon class="fil1" points="4886.33,2197.17 4936.98,2353.04 5101,2353.04 4969.33,2449.26 5018.94,2605.79 4886.33,2509.19 4753.35,2605.79 4804.28,2449.26 4672.88,2353.04 4835.32,2353.04 "/>
    <polygon class="fil1" points="4886.33,2886.67 4936.98,3042.16 5101,3042.16 4969.33,3138.76 5018.94,3294.26 4886.33,3197.66 4753.35,3294.26 4804.28,3138.76 4672.88,3042.16 4835.32,3042.16 "/>
    <polygon class="fil1" points="5371.29,455.6 5423.24,612.13 5586.42,612.13 5454.38,708.07 5505.31,864.22 5371.29,767.63 5239.98,864.22 5290.26,708.07 5157.93,612.13 5321.01,612.13 "/>
    <polygon class="fil1" points="5371.29,1145.11 5423.24,1300.6 5586.42,1300.6 5454.38,1396.16 5505.31,1553.34 5371.29,1456.75 5239.98,1553.34 5290.26,1396.16 5157.93,1300.6 5321.01,1300.6 "/>
    <polygon class="fil1" points="5371.29,1833.94 5423.24,1989.72 5586.42,1989.72 5454.38,2086.04 5505.31,2242.47 5371.29,2145.87 5239.98,2242.47 5290.26,2086.04 5157.93,1989.72 5321.01,1989.72 "/>
    <polygon class="fil1" points="5371.29,2523.07 5423.24,2678.94 5586.42,2678.94 5454.38,2775.53 5505.31,2931.31 5371.29,2835.75 5239.98,2931.31 5290.26,2775.53 5157.93,2678.94 5321.01,2678.94 "/>
    <polygon class="fil1" points="5371.29,3212.19 5423.24,3368.72 5586.42,3368.72 5454.38,3464.29 5505.31,3620.81 5371.29,3524.21 5239.98,3620.81 5290.26,3464.29 5157.93,3368.72 5321.01,3368.72 "/>
   </g>
  </g>
 </g>
</svg>
