<svg xmlns="http://www.w3.org/2000/svg" viewBox="0 0 9.5 9.73"><defs><style>.cls-1{fill:none;stroke:#fff;stroke-miterlimit:22.93;stroke-width:0.43px;}.cls-2{fill:#fff;fill-rule:evenodd;}</style></defs><title>VKontakte</title><g id="Слой_1" data-name="Слой 1"><ellipse class="cls-1" cx="4.75" cy="4.87" rx="4.54" ry="4.65"/><path class="cls-2" d="M401.38,286.7l0,0a2.55,2.55,0,0,0-.49-.57h0l-.21-.21a.2.2,0,0,1,0-.21,2,2,0,0,1,.23-.34l.17-.22q.44-.59.38-.75l0,0a.15.15,0,0,0-.08,0,.4.4,0,0,0-.16,0h-.84l0,0,0,0a4.15,4.15,0,0,1-.27.58l-.17.28-.13.17-.1.09-.07,0h0a.17.17,0,0,1-.06-.06.27.27,0,0,1,0-.1s0-.07,0-.1,0-.07,0-.12,0-.09,0-.11,0-.14,0-.21v-.18s0-.09,0-.14a.59.59,0,0,0,0-.12.4.4,0,0,0,0-.08.14.14,0,0,0-.05-.06l-.09,0a1.74,1.74,0,0,0-.35,0h-.1a1.43,1.43,0,0,0-.52.06l-.1.08s0,.06,0,.06a.31.31,0,0,1,.22.11l0,0a.48.48,0,0,1,0,.12,1.16,1.16,0,0,1,0,.19,2,2,0,0,1,0,.32q0,.13,0,.21a.42.42,0,0,1,0,.12l0,.06h-.08l-.09,0-.11-.1a1.3,1.3,0,0,1-.12-.18q-.07-.11-.14-.27l0-.07-.11-.21-.12-.27a.17.17,0,0,0-.06-.08h0l0,0-.06,0h-.7a.18.18,0,0,0-.15,0v0a.08.08,0,0,0,0,0h0a.21.21,0,0,0,0,.07q.15.36.33.7t.31.54q.13.2.27.39l.18.23.07.08.06.06.18.15.26.17a1.42,1.42,0,0,0,.34.14,1.16,1.16,0,0,0,.37,0h.29a.2.2,0,0,0,.14-.06h0l0,0a.26.26,0,0,0,0-.07.85.85,0,0,1,0-.2.52.52,0,0,1,0-.13l.06-.08,0,0h0a.16.16,0,0,1,.14,0,.85.85,0,0,1,.16.15l.18.2a1.2,1.2,0,0,0,.18.16l.05,0,.13.06a.29.29,0,0,0,.14,0h.66a.29.29,0,0,0,.15,0,.13.13,0,0,0,.06-.07.2.2,0,0,0,0-.09Z" transform="translate(-394.56 -280.44)"/></g></svg>