<svg xmlns="http://www.w3.org/2000/svg" viewBox="0 0 9.5 9.73"><g data-name="Слой 1"><ellipse cx="4.75" cy="4.87" rx="4.54" ry="4.65" fill="none" stroke="#fff" stroke-miterlimit="22.93" stroke-width=".43"/><path d="M6.82 6.26a2.55 2.55 0 0 0-.49-.57l-.21-.21a.2.2 0 0 1 0-.21 2 2 0 0 1 .23-.34l.17-.22q.44-.59.38-.75a.15.15 0 0 0-.08 0 .4.4 0 0 0-.16 0h-.84a4.15 4.15 0 0 1-.27.58l-.17.28-.13.17-.1.09h-.07a.17.17 0 0 1-.06-.06.27.27 0 0 1 0-.1v-.1-.12-.11-.39-.14a.59.59 0 0 0 0-.12.4.4 0 0 0 0-.08.14.14 0 0 0-.05-.06h-.09a1.74 1.74 0 0 0-.35 0h-.1a1.43 1.43 0 0 0-.52.06l-.1.08V4a.31.31 0 0 1 .22.11.48.48 0 0 1 0 .12 1.16 1.16 0 0 1 0 .19 2 2 0 0 1 0 .32v.21a.42.42 0 0 1 0 .12v.06H3.86l-.11-.1a1.3 1.3 0 0 1-.12-.18q-.07-.11-.14-.27v-.07l-.11-.21-.12-.27a.17.17 0 0 0-.06-.08h-.76a.18.18 0 0 0-.15 0 .21.21 0 0 0 0 .07q.15.36.33.7t.31.54q.13.2.27.39l.18.23.07.08.06.06.18.15.26.17a1.42 1.42 0 0 0 .34.14 1.16 1.16 0 0 0 .37 0h.29a.2.2 0 0 0 .14-.06.26.26 0 0 0 0-.07.85.85 0 0 1 0-.2.52.52 0 0 1 0-.13l.06-.08a.16.16 0 0 1 .14 0 .85.85 0 0 1 .16.15l.18.2a1.2 1.2 0 0 0 .18.16h.05l.13.06a.29.29 0 0 0 .14 0h.66a.29.29 0 0 0 .15 0A.13.13 0 0 0 7 6.44a.2.2 0 0 0 0-.09z" fill="#fff" fill-rule="evenodd"/></g></svg>